<svg width="200" height="200" viewBox="0 0 200 200" fill="none" xmlns="http://www.w3.org/2000/svg">
	<path d="M109.442 82.8184L159.95 57.5003C171.937 44.0967 196.477 18.2822 198.739 22.2536C201.568 27.218 199.952 52.536 190.658 76.8612C183.223 96.3213 164.125 100.855 155.505 100.69C162.509 111.611 178.617 136.93 187.022 150.83C197.527 168.205 148.232 183.098 140.15 167.212C132.069 151.326 106.613 126.008 98.532 128.987C90.4507 131.965 49.2364 201.466 38.3267 199.976C27.417 198.487 36.3064 158.773 38.3267 145.369C40.347 131.965 56.5096 128.987 56.5096 121.54C56.5096 114.094 76.3086 100.69 76.3086 95.7256C76.3086 91.7542 58.2605 92.0851 49.2364 92.747C38.5961 106.482 14.8104 132.958 4.78963 128.987C-5.23111 125.015 2.76932 108.467 8.02213 100.69L56.5096 63.954L109.442 82.8184Z" fill="#180027"/>
	<path d="M84.3898 51.0467L144.654 0L132.473 28.2108C132.473 28.2108 135.302 43.6002 132.473 51.0467C129.645 58.4932 128.837 51.0467 120.351 57.5003C111.866 63.954 105.805 63.954 102.169 63.954C98.532 63.954 84.3898 51.0467 84.3898 51.0467Z" fill="#180027"/>
</svg>
