<svg width="212" height="215" viewBox="0 0 212 215" fill="none" xmlns="http://www.w3.org/2000/svg">
	<path d="M109.442 97.8185C131.466 96.4955 159.95 72.5004 159.95 72.5004C171.937 59.0968 123.5 23.5 198.739 37.2537C204.36 38.2812 227.816 91.8613 190.658 91.8613C153.5 91.8613 158.414 103.286 161.5 123.5C164.345 142.135 207 115.69 190.658 139.5C179.168 156.241 108.081 203.386 100 187.5C91.9188 171.614 106.613 141.008 98.532 143.987C90.4508 146.965 49.2364 216.466 38.3267 214.977C27.417 213.487 36.3064 173.773 38.3267 160.369C40.347 146.965 45.8245 134.914 56.5096 123.5C62.7884 116.793 76.3086 115.69 76.3086 110.726C76.3086 106.754 59.7698 106.272 49.2364 107.747C27.0569 110.853 14.8104 147.958 4.78963 143.987C-5.23111 140.015 2.76932 123.467 8.02213 115.69C8.02213 115.69 32.9585 82.0712 56.5096 78.954C78.2647 76.0746 87.5364 99.1344 109.442 97.8185Z" fill="#180027"/>
	<path d="M102.169 78.954C98.532 78.954 84.3898 66.0468 84.3898 66.0468C84.3898 66.0468 70.5814 45.1866 73 31.0001C77.8186 2.73605 144.236 -13.6687 144.654 15.0001C144.829 26.999 132.473 30.4219 132.473 43.2109C132.473 56 135.302 58.6003 132.473 66.0468C129.645 73.4933 128.837 66.0468 120.351 72.5004C111.866 78.9541 105.805 78.954 102.169 78.954Z" fill="#180027"/>
</svg>
