<svg viewBox="0 0 932 1117" fill="none" xmlns="http://www.w3.org/2000/svg">
    <g id="perro" clip-path="url(#clip0_349_6)">
    <g id="Tail">
    <path id="Vector" d="M858.45 993.07C840.02 1004.84 810.42 1015.17 783.95 1020.22C760.99 1024.6 740.8 1025.23 726.06 1024.9C708.98 1022.59 691.89 1020.28 674.81 1017.97C663.61 1002.35 664.2 982.52 674.81 970.79C684.91 959.62 700.17 960.11 702.61 960.23C762.39 977.23 795.72 966.41 814.46 955.13C889.3 910.08 905.37 810.97 916.82 814.19C929.23 817.69 929.66 947.62 858.45 993.07Z" fill="#180027" stroke="#180027" stroke-width="16.94" stroke-linejoin="round"/>
    <path id="Vector_2" d="M840.39 946.12C842.73 944.73 846.36 942.91 851.08 941.85C854.04 941.18 861.84 939.54 870.46 942.89C874.44 944.43 881.66 947.24 883.38 953.04C885.54 960.31 877.84 968.24 870 976.12C856.08 990.1 841.94 996.86 838.39 998.5C819.08 1007.42 796.78 1011.73 794.88 1007.49C793.33 1004.03 807.08 998.6 808.39 986.73C809.27 978.69 804.02 971.53 799.81 966.99C813.34 960.03 826.86 953.08 840.39 946.12Z" fill="#180027"/>
    </g>
    <g id="Body">
    <g id="back-pat2">
    <path id="Vector_3" d="M447.11 1063.63C445.94 1068.52 443.06 1077.43 435.5 1085.61C421.64 1100.6 402.9 1101.43 398.94 1101.52C384.09 1106.9 342.32 1101.52 289.53 1101.52C250.68 1101.52 219.24 1070.09 219.24 1031.38C219.24 992.67 250.67 961.09 289.53 961.09C290.69 961.09 291.86 961.09 292.88 961.24C308.15 959.66 323.41 958.08 338.68 956.49C330.16 937.02 293.52 847.56 333.18 750.6C353.1 701.91 384.41 670.53 404.18 653.8C418.49 790.41 432.8 927.02 447.11 1063.63Z" fill="#180027"/>
    <path id="Vector_4" d="M314.72 1018.93C311.62 1018.32 286.07 1013.72 265.37 1031.74C249.84 1045.27 242.85 1066.47 246.96 1087.14" fill="#180027"/>
    <path id="Vector_5" d="M271.77 993.07C267.3 993.2 251.48 994.19 238.63 1006.44C218.1 1026.03 224.98 1055.48 225.29 1056.71" fill="#180027"/>
    </g>
    <path id="Vector_6" d="M750.26 1044.81C646.74 1133.37 452.68 1115.57 359.01 1017.96C334.11 992.01 320.2 961.95 292.4 901.84C260.12 832.07 235.77 777.58 246.53 710.68C249.43 692.64 255.89 652.51 286.17 617.38C340.31 554.57 447.61 534.09 516.62 571.83C594.42 614.36 559.45 689.78 653.45 784.3C730.59 861.87 801.66 858.87 812.89 918.12C824.58 979.78 758.04 1038.15 750.25 1044.82L750.26 1044.81Z" fill="#180027" stroke="#180027" stroke-width="16.94" stroke-miterlimit="10"/>
    <g id="back-pat">
    <path id="Vector_7" d="M799.06 1031.81C781.17 1065.36 753.59 1085.09 750.66 1087.14C733.78 1098.95 717.66 1105.11 706.5 1108.44H551.67C512.91 1108.16 481.43 1076.32 481.38 1038.3C481.33 993.74 524.48 968.01 551.67 968.01C552.83 968.01 554 968.01 555.02 968.16C575.66 968.08 596.3 968.01 616.94 967.93C598.88 916.57 624.99 859.41 675.47 839.44C726.16 819.39 784.54 843.55 806.29 893.71C810.36 905.62 831.48 971.02 799.06 1031.81Z" fill="#180027" stroke="#180027" stroke-width="16.94" stroke-miterlimit="10"/>
    <g id="Vector_8">
    <path d="M576.86 1025.85C573.76 1025.24 548.21 1020.64 527.51 1038.66C511.98 1052.19 504.99 1073.39 509.1 1094.06" fill="#180027"/>
    <path d="M576.86 1025.85C573.76 1025.24 548.21 1020.64 527.51 1038.66C511.98 1052.19 504.99 1073.39 509.1 1094.06" stroke="#180027" stroke-width="16.94" stroke-miterlimit="10"/>
    </g>
    <g id="Vector_9">
    <path d="M533.91 999.99C529.44 1000.12 513.62 1001.11 500.77 1013.36C480.24 1032.95 487.12 1062.4 487.43 1063.63" fill="#180027"/>
    <path d="M533.91 999.99C529.44 1000.12 513.62 1001.11 500.77 1013.36C480.24 1032.95 487.12 1062.4 487.43 1063.63" stroke="#180027" stroke-width="16.94" stroke-miterlimit="10"/>
    </g>
    </g>
    <g id="pat">
    <path id="Vector_10" d="M357.75 607.58C358.83 619 391.86 614.71 418.83 643.81C422.19 647.43 432.8 659.5 443.66 696.98C461.05 757.01 456.25 803.61 462.21 878.86C464.29 905.05 466.08 930.93 467.62 956.5C452.35 958.08 437.09 959.66 421.82 961.24C420.8 961.09 419.64 961.09 418.47 961.09C379.62 961.09 348.18 992.52 348.18 1031.38C348.18 1070.24 379.61 1101.52 418.47 1101.52C471.26 1101.52 513.03 1106.9 527.88 1101.52C531.83 1101.43 550.58 1100.61 564.44 1085.61C572 1077.43 574.88 1068.52 576.05 1063.63C575.53 977.98 570.29 887.3 558.56 792.37C556.25 773.68 553.74 755.25 551.04 737.06C549.9 721.81 551.47 709.44 553.48 700.22C557.05 683.8 561.8 678.36 564.96 661.95C565.86 657.26 569.32 639.33 566.29 625.92C558.37 590.85 503.64 576.14 496.54 574.23C426.22 555.32 356.53 594.76 357.74 607.57L357.75 607.58Z" fill="#180027" stroke="#180027" stroke-width="16.94" stroke-miterlimit="10"/>
    <path id="u&#195;&#177;a (Stroke)" d="M389.309 1024.87C413.087 1004.64 441.812 1009.93 445.296 1010.62L442.025 1027.24C439.336 1026.71 417.387 1022.88 399.872 1038.13C386.717 1049.59 380.667 1067.68 384.208 1085.49L367.592 1088.79C362.913 1065.26 370.842 1040.95 388.746 1025.35L388.749 1025.35L389.309 1024.87Z" fill="#180027"/>
    <path id="u&#195;&#177;a (Stroke)_2" d="M400.966 1001.54C397.069 1001.65 383.938 1002.55 373.424 1012.57C365.154 1020.46 362.241 1030.46 361.538 1039.14C361.188 1043.46 361.402 1047.31 361.722 1050.14C362.043 1052.96 362.457 1054.65 362.453 1054.64L346.027 1058.78C345.737 1057.63 343.745 1048.98 344.653 1037.78C345.564 1026.53 349.476 1012.01 361.733 1000.31L361.736 1000.31L362.45 999.64C377.497 985.798 395.509 984.747 400.473 984.603L400.966 1001.54Z" fill="#180027"/>
    </g>
    <path id="Vector_11" d="M570.41 657.77C555.41 660.08 538.06 742.05 578.24 796.57C583.48 803.68 606.75 833.47 646.39 839.99C669.75 843.83 702.85 840.27 706.23 827.55C710.13 812.85 670.15 801.76 631.36 759.65C582.82 706.95 582.44 655.92 570.41 657.77Z" fill="#180027"/>
    </g>
    <g id="Head">
    <path id="Vector_12" d="M265.52 72.31C339.96 17.38 344.63 5.68005 353.89 8.98004C387.88 21.09 394.27 203.33 315.6 234.41C284.27 246.79 236.19 236.49 215.58 203.85C195.45 171.98 208.85 130.44 224.03 107.92C232.14 95.89 239.02 91.86 265.53 72.3L265.52 72.31Z" fill="#180027" stroke="#180027" stroke-width="16.94" stroke-miterlimit="10"/>
    <path id="Vector_13" d="M552.38 468.61C540.46 503.01 528.54 537.42 516.63 571.82C491.45 588.89 441.75 617.32 373.68 623.12C338.59 626.11 308.54 622.24 286.18 617.38C263.87 593.56 241.56 569.74 219.25 545.92C330.29 520.15 441.34 494.38 552.38 468.62V468.61Z" fill="#180027" stroke="#180027" stroke-width="16.94" stroke-miterlimit="10"/>
    <path id="Vector_14" d="M586.73 345.21C586.73 214.35 479.05 106.67 348.19 106.67C271.2 106.67 198.71 146.56 156.88 203.42C110.83 266.02 109.67 337.22 109.64 345.21C82.7199 372.13 64.7699 390.08 61.2099 407.52C60.0299 413.28 57.8199 431.75 82.1999 458.88C145.22 547.59 247.31 595.86 348.19 583.75C458.31 570.53 586.73 483.02 586.73 345.21Z" fill="#180027" stroke="#180027" stroke-width="16.94" stroke-miterlimit="10"/>
    <path id="Vector_15" d="M512.07 143.53C586.51 88.5998 591.18 76.8998 600.44 80.1998C634.43 92.3098 640.82 274.55 562.15 305.63C530.82 318.01 482.74 307.71 462.13 275.07C442 243.2 455.4 201.66 470.58 179.14C478.69 167.11 485.57 163.08 512.08 143.52L512.07 143.53Z" fill="#180027" stroke="#180027" stroke-width="16.94" stroke-miterlimit="10"/>
    <path id="Vector_16" d="M262.37 320.49C278.524 320.49 291.62 304.556 291.62 284.9C291.62 265.244 278.524 249.31 262.37 249.31C246.216 249.31 233.12 265.244 233.12 284.9C233.12 304.556 246.216 320.49 262.37 320.49Z" fill="#180027"/>
    <path id="Vector_17" d="M67.3801 310.67C79.4033 310.67 89.1501 294.736 89.1501 275.08C89.1501 255.424 79.4033 239.49 67.3801 239.49C55.3569 239.49 45.6101 255.424 45.6101 275.08C45.6101 294.736 55.3569 310.67 67.3801 310.67Z" fill="#180027"/>
    <path id="Vector_18" d="M168.62 195.97C189.86 169.52 200.35 166.47 206.01 168.58C224.6 175.51 156.9 275.54 192.02 364.64C209.21 408.24 240.18 424.26 233.12 438.46C226.77 451.23 192.37 456.75 62.4399 419.67C65.7699 409.24 72.5599 392.61 86.6199 376.1C97.7899 362.98 109.59 354.6 118.1 349.53C116.35 329.76 116.41 299.27 128 265.03C141.58 224.89 164.2 201.47 168.61 195.97H168.62Z" fill="#180027"/>
    <path id="Vector_19" d="M50.7401 397.06C48.1401 395.82 23.8501 383.78 22.5901 362.54C21.9501 351.74 27.1801 337.32 34.3601 336.92C41.4201 336.53 47.3201 349.84 47.8801 351.16C58.5501 336.72 73.9301 332.23 82.0501 337.28C90.7601 342.7 89.8001 358.03 87.5201 366.23C81.1101 389.31 53.0801 396.5 50.7301 397.07L50.7401 397.06Z" fill="#180027"/>
    <path id="Vector_20" d="M68.67 471.38C76.16 481.85 94.22 503.58 133.12 515.19C187.95 531.56 254.43 509.62 257.95 484.17C263.86 441.51 97.47 356.33 35.18 404.57C22.14 414.67 10.93 432.73 8.85 452.26C5.75 481.32 21.74 516.75 44.49 520.5C55.92 522.38 67.14 515.96 69.77 514.45C82.12 507.38 87.49 496.72 89.2 492.92" fill="#180027"/>
    <path id="Vector (Stroke)" d="M30.8397 397.229C48.7114 383.857 72.9055 380.3 97.7479 382.212C123.162 384.169 150.525 391.932 175.442 402.483C200.355 413.032 223.318 426.577 239.845 440.467C248.093 447.4 255.015 454.651 259.731 461.908C264.372 469.049 267.474 477.136 266.34 485.33L266.341 485.331C264.992 495.083 257.946 503.022 249.571 508.963C240.972 515.063 229.649 520.033 217.036 523.525C191.834 530.502 159.865 532.014 130.697 523.306V523.305C114.667 518.521 101.926 512.087 91.8572 505.336C88.1878 510.626 82.4943 516.922 73.9862 521.794L73.9871 521.795C71.5478 523.196 57.865 531.284 43.1151 528.858L43.1121 528.857C27.8216 526.336 16.3687 513.651 9.39436 499.647C2.27308 485.348 -1.30577 467.611 0.427559 451.362C2.76468 429.42 15.2278 409.311 29.994 397.874L30.8397 397.229ZM96.4471 399.102C73.1515 397.308 53.561 401.047 40.366 411.265L40.367 411.266C29.0534 420.029 19.0954 436.039 17.2723 453.157V453.159C15.9058 465.969 18.7724 480.477 24.5584 492.095C30.4915 504.008 38.4088 510.913 45.868 512.142H45.867C53.9759 513.475 62.7314 508.724 65.5526 507.104L65.5623 507.099L66.0301 506.827C72.0414 503.269 75.9832 498.663 78.449 494.929C71.0816 488.322 65.987 482.065 62.5838 477.417L61.7811 476.308L61.5369 475.947C59.1176 472.175 60.0563 467.127 63.742 464.491C67.4278 461.854 72.5085 462.596 75.2967 466.104L75.5584 466.452L76.2235 467.371C79.6874 472.108 85.3792 479.063 94.326 486.178C94.4151 486.246 94.5028 486.315 94.5887 486.385C103.851 493.703 116.564 501.171 133.844 506.555L135.543 507.074L136.748 507.426C162.1 514.695 190.245 513.365 212.516 507.2C223.817 504.071 233.201 499.807 239.77 495.147C246.563 490.328 249.149 485.982 249.56 483.009V483.007L249.589 482.772C249.849 480.292 248.986 476.46 245.527 471.138C242.032 465.76 236.438 459.733 228.945 453.435C213.989 440.864 192.57 428.13 168.838 418.082C145.11 408.035 119.565 400.882 96.4471 399.102Z" fill="#180027"/>
    </g>
    <g id="Content">
    <rect x="216" y="594" width="531" height="81" fill="#FFFEFB"/>
    <rect x="216" y="594" width="531" height="81" stroke="#180027" stroke-width="4"/>
    <path id="No Seleccionado" d="M224.08 656C223.611 656 223.227 655.851 222.928 655.552C222.629 655.253 222.48 654.869 222.48 654.4V612.8C222.48 612.331 222.629 611.947 222.928 611.648C223.227 611.349 223.611 611.2 224.08 611.2H230.864C231.589 611.2 232.101 611.371 232.4 611.712C232.741 612.011 232.955 612.245 233.04 612.416L248.656 637.056V612.8C248.656 612.331 248.805 611.947 249.104 611.648C249.403 611.349 249.787 611.2 250.256 611.2H257.936C258.405 611.2 258.789 611.349 259.088 611.648C259.387 611.947 259.536 612.331 259.536 612.8V654.4C259.536 654.827 259.387 655.211 259.088 655.552C258.789 655.851 258.405 656 257.936 656H251.088C250.405 656 249.893 655.829 249.552 655.488C249.253 655.147 249.061 654.912 248.976 654.784L233.36 631.104V654.4C233.36 654.869 233.211 655.253 232.912 655.552C232.613 655.851 232.229 656 231.76 656H224.08ZM283.52 656.64C279.936 656.64 276.907 656.064 274.432 654.912C272 653.76 270.123 652.117 268.8 649.984C267.52 647.808 266.795 645.227 266.624 642.24C266.581 641.387 266.56 640.427 266.56 639.36C266.56 638.251 266.581 637.291 266.624 636.48C266.795 633.451 267.563 630.869 268.928 628.736C270.293 626.603 272.192 624.96 274.624 623.808C277.099 622.656 280.064 622.08 283.52 622.08C287.019 622.08 289.984 622.656 292.416 623.808C294.891 624.96 296.811 626.603 298.176 628.736C299.541 630.869 300.309 633.451 300.48 636.48C300.523 637.291 300.544 638.251 300.544 639.36C300.544 640.427 300.523 641.387 300.48 642.24C300.309 645.227 299.563 647.808 298.24 649.984C296.96 652.117 295.083 653.76 292.608 654.912C290.176 656.064 287.147 656.64 283.52 656.64ZM283.52 648.832C285.44 648.832 286.827 648.256 287.68 647.104C288.576 645.952 289.088 644.224 289.216 641.92C289.259 641.28 289.28 640.427 289.28 639.36C289.28 638.293 289.259 637.44 289.216 636.8C289.088 634.539 288.576 632.832 287.68 631.68C286.827 630.485 285.44 629.888 283.52 629.888C281.643 629.888 280.256 630.485 279.36 631.68C278.464 632.832 277.973 634.539 277.888 636.8C277.845 637.44 277.824 638.293 277.824 639.36C277.824 640.427 277.845 641.28 277.888 641.92C277.973 644.224 278.464 645.952 279.36 647.104C280.256 648.256 281.643 648.832 283.52 648.832ZM337.872 656.64C333.605 656.64 330.064 656.043 327.248 654.848C324.432 653.611 322.298 652.011 320.848 650.048C319.397 648.085 318.629 645.995 318.544 643.776C318.544 643.435 318.672 643.136 318.928 642.88C319.226 642.581 319.568 642.432 319.952 642.432H328.016C328.613 642.432 329.061 642.539 329.36 642.752C329.701 642.965 330 643.243 330.256 643.584C330.597 644.224 331.066 644.843 331.664 645.44C332.304 646.037 333.114 646.528 334.096 646.912C335.12 647.253 336.378 647.424 337.872 647.424C340.346 647.424 342.202 647.04 343.44 646.272C344.72 645.504 345.36 644.459 345.36 643.136C345.36 642.197 345.018 641.429 344.336 640.832C343.653 640.192 342.544 639.637 341.008 639.168C339.514 638.656 337.509 638.144 334.992 637.632C331.749 636.949 328.976 636.075 326.672 635.008C324.41 633.899 322.682 632.469 321.488 630.72C320.293 628.928 319.696 626.709 319.696 624.064C319.696 621.461 320.421 619.136 321.872 617.088C323.365 615.04 325.434 613.44 328.08 612.288C330.725 611.136 333.861 610.56 337.488 610.56C340.432 610.56 343.013 610.944 345.232 611.712C347.493 612.48 349.392 613.504 350.928 614.784C352.464 616.064 353.616 617.429 354.384 618.88C355.194 620.288 355.621 621.675 355.664 623.04C355.664 623.381 355.536 623.701 355.28 624C355.024 624.256 354.704 624.384 354.319 624.384H345.872C345.402 624.384 344.997 624.299 344.656 624.128C344.314 623.957 344.016 623.68 343.76 623.296C343.504 622.357 342.821 621.547 341.712 620.864C340.645 620.139 339.237 619.776 337.488 619.776C335.61 619.776 334.138 620.117 333.072 620.8C332.048 621.44 331.536 622.443 331.536 623.808C331.536 624.661 331.813 625.408 332.368 626.048C332.965 626.688 333.925 627.243 335.248 627.712C336.613 628.181 338.469 628.672 340.816 629.184C344.698 629.909 347.834 630.827 350.224 631.936C352.613 633.003 354.362 634.411 355.472 636.16C356.581 637.867 357.136 640.021 357.136 642.624C357.136 645.525 356.304 648.043 354.64 650.176C353.018 652.267 350.757 653.867 347.856 654.976C344.954 656.085 341.626 656.64 337.872 656.64ZM378.199 656.64C373.164 656.64 369.153 655.275 366.167 652.544C363.18 649.813 361.623 645.76 361.495 640.384C361.495 640.085 361.495 639.701 361.495 639.232C361.495 638.763 361.495 638.4 361.495 638.144C361.623 634.773 362.369 631.893 363.735 629.504C365.143 627.072 367.063 625.237 369.495 624C371.969 622.72 374.849 622.08 378.135 622.08C381.889 622.08 384.983 622.827 387.415 624.32C389.889 625.813 391.745 627.84 392.983 630.4C394.22 632.96 394.839 635.883 394.839 639.168V640.704C394.839 641.173 394.668 641.557 394.326 641.856C394.028 642.155 393.665 642.304 393.239 642.304H372.759C372.759 642.347 372.759 642.411 372.759 642.496C372.759 642.581 372.759 642.667 372.759 642.752C372.801 643.989 373.015 645.12 373.399 646.144C373.783 647.168 374.38 647.979 375.191 648.576C376.001 649.173 376.983 649.472 378.135 649.472C378.988 649.472 379.692 649.344 380.247 649.088C380.844 648.789 381.335 648.469 381.719 648.128C382.103 647.744 382.401 647.424 382.615 647.168C382.999 646.741 383.297 646.485 383.511 646.4C383.767 646.272 384.151 646.208 384.663 646.208H392.599C393.025 646.208 393.367 646.336 393.623 646.592C393.921 646.805 394.049 647.125 394.007 647.552C393.964 648.277 393.601 649.152 392.919 650.176C392.236 651.2 391.233 652.224 389.911 653.248C388.631 654.229 387.009 655.04 385.047 655.68C383.084 656.32 380.801 656.64 378.199 656.64ZM372.759 635.968H383.575V635.84C383.575 634.475 383.361 633.28 382.935 632.256C382.551 631.232 381.932 630.443 381.079 629.888C380.268 629.333 379.287 629.056 378.135 629.056C376.983 629.056 376.001 629.333 375.191 629.888C374.423 630.443 373.825 631.232 373.399 632.256C372.972 633.28 372.759 634.475 372.759 635.84V635.968ZM402.439 656C401.969 656 401.585 655.851 401.286 655.552C400.988 655.253 400.839 654.869 400.839 654.4V612.16C400.839 611.691 400.988 611.307 401.286 611.008C401.585 610.709 401.969 610.56 402.439 610.56H409.991C410.46 610.56 410.844 610.709 411.143 611.008C411.441 611.307 411.591 611.691 411.591 612.16V654.4C411.591 654.869 411.441 655.253 411.143 655.552C410.844 655.851 410.46 656 409.991 656H402.439ZM434.511 656.64C429.476 656.64 425.466 655.275 422.479 652.544C419.492 649.813 417.935 645.76 417.807 640.384C417.807 640.085 417.807 639.701 417.807 639.232C417.807 638.763 417.807 638.4 417.807 638.144C417.935 634.773 418.682 631.893 420.047 629.504C421.455 627.072 423.375 625.237 425.807 624C428.282 622.72 431.162 622.08 434.447 622.08C438.202 622.08 441.295 622.827 443.727 624.32C446.202 625.813 448.058 627.84 449.295 630.4C450.532 632.96 451.151 635.883 451.151 639.168V640.704C451.151 641.173 450.98 641.557 450.639 641.856C450.34 642.155 449.978 642.304 449.551 642.304H429.071C429.071 642.347 429.071 642.411 429.071 642.496C429.071 642.581 429.071 642.667 429.071 642.752C429.114 643.989 429.327 645.12 429.711 646.144C430.095 647.168 430.692 647.979 431.503 648.576C432.314 649.173 433.295 649.472 434.447 649.472C435.3 649.472 436.004 649.344 436.559 649.088C437.156 648.789 437.647 648.469 438.031 648.128C438.415 647.744 438.714 647.424 438.927 647.168C439.311 646.741 439.61 646.485 439.823 646.4C440.079 646.272 440.463 646.208 440.975 646.208H448.911C449.338 646.208 449.679 646.336 449.935 646.592C450.234 646.805 450.362 647.125 450.319 647.552C450.276 648.277 449.914 649.152 449.231 650.176C448.548 651.2 447.546 652.224 446.223 653.248C444.943 654.229 443.322 655.04 441.359 655.68C439.396 656.32 437.114 656.64 434.511 656.64ZM429.071 635.968H439.887V635.84C439.887 634.475 439.674 633.28 439.247 632.256C438.863 631.232 438.244 630.443 437.391 629.888C436.58 629.333 435.599 629.056 434.447 629.056C433.295 629.056 432.314 629.333 431.503 629.888C430.735 630.443 430.138 631.232 429.711 632.256C429.284 633.28 429.071 634.475 429.071 635.84V635.968ZM472.447 656.64C469.29 656.64 466.495 656.064 464.063 654.912C461.631 653.76 459.69 652.096 458.239 649.92C456.831 647.701 456.063 645.056 455.935 641.984C455.892 641.301 455.871 640.448 455.871 639.424C455.871 638.357 455.892 637.483 455.935 636.8C456.063 633.685 456.831 631.04 458.239 628.864C459.647 626.645 461.567 624.96 463.999 623.808C466.474 622.656 469.29 622.08 472.447 622.08C475.391 622.08 477.908 622.507 479.999 623.36C482.09 624.171 483.796 625.195 485.119 626.432C486.442 627.669 487.423 628.949 488.063 630.272C488.746 631.552 489.108 632.683 489.151 633.664C489.194 634.091 489.044 634.475 488.703 634.816C488.362 635.115 487.978 635.264 487.551 635.264H479.423C478.954 635.264 478.591 635.157 478.335 634.944C478.079 634.731 477.844 634.411 477.631 633.984C477.119 632.661 476.458 631.723 475.647 631.168C474.879 630.613 473.876 630.336 472.639 630.336C470.932 630.336 469.61 630.891 468.671 632C467.775 633.109 467.284 634.816 467.199 637.12C467.156 638.827 467.156 640.341 467.199 641.664C467.284 644.011 467.775 645.717 468.671 646.784C469.61 647.851 470.932 648.384 472.639 648.384C473.962 648.384 475.007 648.107 475.775 647.552C476.543 646.997 477.162 646.059 477.631 644.736C477.844 644.309 478.079 643.989 478.335 643.776C478.591 643.563 478.954 643.456 479.423 643.456H487.551C487.978 643.456 488.362 643.627 488.703 643.968C489.044 644.267 489.194 644.629 489.151 645.056C489.108 645.781 488.895 646.635 488.511 647.616C488.127 648.555 487.53 649.557 486.719 650.624C485.908 651.691 484.842 652.693 483.519 653.632C482.239 654.528 480.682 655.253 478.847 655.808C477.012 656.363 474.879 656.64 472.447 656.64ZM510.197 656.64C507.04 656.64 504.245 656.064 501.813 654.912C499.381 653.76 497.44 652.096 495.989 649.92C494.581 647.701 493.813 645.056 493.685 641.984C493.642 641.301 493.621 640.448 493.621 639.424C493.621 638.357 493.642 637.483 493.685 636.8C493.813 633.685 494.581 631.04 495.989 628.864C497.397 626.645 499.317 624.96 501.749 623.808C504.224 622.656 507.04 622.08 510.197 622.08C513.141 622.08 515.658 622.507 517.749 623.36C519.84 624.171 521.546 625.195 522.869 626.432C524.192 627.669 525.173 628.949 525.813 630.272C526.496 631.552 526.858 632.683 526.901 633.664C526.944 634.091 526.794 634.475 526.453 634.816C526.112 635.115 525.728 635.264 525.301 635.264H517.173C516.704 635.264 516.341 635.157 516.085 634.944C515.829 634.731 515.594 634.411 515.381 633.984C514.869 632.661 514.208 631.723 513.397 631.168C512.629 630.613 511.626 630.336 510.389 630.336C508.682 630.336 507.36 630.891 506.421 632C505.525 633.109 505.034 634.816 504.949 637.12C504.906 638.827 504.906 640.341 504.949 641.664C505.034 644.011 505.525 645.717 506.421 646.784C507.36 647.851 508.682 648.384 510.389 648.384C511.712 648.384 512.757 648.107 513.525 647.552C514.293 646.997 514.912 646.059 515.381 644.736C515.594 644.309 515.829 643.989 516.085 643.776C516.341 643.563 516.704 643.456 517.173 643.456H525.301C525.728 643.456 526.112 643.627 526.453 643.968C526.794 644.267 526.944 644.629 526.901 645.056C526.858 645.781 526.645 646.635 526.261 647.616C525.877 648.555 525.28 649.557 524.469 650.624C523.658 651.691 522.592 652.693 521.269 653.632C519.989 654.528 518.432 655.253 516.597 655.808C514.762 656.363 512.629 656.64 510.197 656.64ZM534.251 656C533.782 656 533.398 655.851 533.099 655.552C532.8 655.253 532.651 654.869 532.651 654.4V624.32C532.651 623.851 532.8 623.467 533.099 623.168C533.398 622.869 533.782 622.72 534.251 622.72H541.803C542.23 622.72 542.592 622.869 542.891 623.168C543.232 623.467 543.403 623.851 543.403 624.32V654.4C543.403 654.869 543.232 655.253 542.891 655.552C542.592 655.851 542.23 656 541.803 656H534.251ZM534.187 617.92C533.718 617.92 533.334 617.771 533.035 617.472C532.736 617.173 532.587 616.789 532.587 616.32V610.624C532.587 610.155 532.736 609.771 533.035 609.472C533.334 609.131 533.718 608.96 534.187 608.96H541.803C542.272 608.96 542.656 609.131 542.955 609.472C543.296 609.771 543.467 610.155 543.467 610.624V616.32C543.467 616.789 543.296 617.173 542.955 617.472C542.656 617.771 542.272 617.92 541.803 617.92H534.187ZM566.645 656.64C563.061 656.64 560.032 656.064 557.557 654.912C555.125 653.76 553.248 652.117 551.925 649.984C550.645 647.808 549.92 645.227 549.749 642.24C549.706 641.387 549.685 640.427 549.685 639.36C549.685 638.251 549.706 637.291 549.749 636.48C549.92 633.451 550.688 630.869 552.053 628.736C553.418 626.603 555.317 624.96 557.749 623.808C560.224 622.656 563.189 622.08 566.645 622.08C570.144 622.08 573.109 622.656 575.541 623.808C578.016 624.96 579.936 626.603 581.301 628.736C582.666 630.869 583.434 633.451 583.605 636.48C583.648 637.291 583.669 638.251 583.669 639.36C583.669 640.427 583.648 641.387 583.605 642.24C583.434 645.227 582.688 647.808 581.365 649.984C580.085 652.117 578.208 653.76 575.733 654.912C573.301 656.064 570.272 656.64 566.645 656.64ZM566.645 648.832C568.565 648.832 569.952 648.256 570.805 647.104C571.701 645.952 572.213 644.224 572.341 641.92C572.384 641.28 572.405 640.427 572.405 639.36C572.405 638.293 572.384 637.44 572.341 636.8C572.213 634.539 571.701 632.832 570.805 631.68C569.952 630.485 568.565 629.888 566.645 629.888C564.768 629.888 563.381 630.485 562.485 631.68C561.589 632.832 561.098 634.539 561.013 636.8C560.97 637.44 560.949 638.293 560.949 639.36C560.949 640.427 560.97 641.28 561.013 641.92C561.098 644.224 561.589 645.952 562.485 647.104C563.381 648.256 564.768 648.832 566.645 648.832ZM591.564 656C591.094 656 590.71 655.851 590.411 655.552C590.113 655.253 589.964 654.869 589.964 654.4V624.32C589.964 623.851 590.113 623.467 590.411 623.168C590.71 622.869 591.094 622.72 591.564 622.72H598.924C599.393 622.72 599.777 622.869 600.076 623.168C600.374 623.467 600.524 623.851 600.524 624.32V626.752C601.633 625.429 603.084 624.32 604.876 623.424C606.668 622.528 608.78 622.08 611.212 622.08C613.686 622.08 615.862 622.635 617.74 623.744C619.66 624.853 621.153 626.496 622.22 628.672C623.329 630.805 623.884 633.429 623.884 636.544V654.4C623.884 654.869 623.713 655.253 623.372 655.552C623.073 655.851 622.71 656 622.284 656H614.22C613.793 656 613.409 655.851 613.068 655.552C612.769 655.253 612.62 654.869 612.62 654.4V636.928C612.62 634.923 612.129 633.387 611.148 632.32C610.209 631.211 608.801 630.656 606.924 630.656C605.174 630.656 603.766 631.211 602.7 632.32C601.676 633.387 601.164 634.923 601.164 636.928V654.4C601.164 654.869 600.993 655.253 600.652 655.552C600.353 655.851 599.99 656 599.564 656H591.564ZM641.01 656.64C638.706 656.64 636.637 656.213 634.802 655.36C633.01 654.464 631.581 653.269 630.514 651.776C629.447 650.283 628.914 648.597 628.914 646.72C628.914 643.691 630.151 641.301 632.626 639.552C635.101 637.76 638.386 636.544 642.482 635.904L650.482 634.688V633.792C650.482 632.256 650.162 631.083 649.522 630.272C648.882 629.461 647.709 629.056 646.002 629.056C644.807 629.056 643.826 629.291 643.058 629.76C642.333 630.229 641.757 630.869 641.33 631.68C640.946 632.235 640.413 632.512 639.73 632.512H632.562C632.093 632.512 631.73 632.384 631.474 632.128C631.218 631.829 631.111 631.488 631.154 631.104C631.154 630.336 631.431 629.461 631.986 628.48C632.583 627.456 633.479 626.453 634.674 625.472C635.869 624.491 637.405 623.68 639.282 623.04C641.159 622.4 643.421 622.08 646.066 622.08C648.839 622.08 651.207 622.4 653.17 623.04C655.133 623.68 656.711 624.576 657.906 625.728C659.143 626.88 660.061 628.245 660.658 629.824C661.255 631.36 661.554 633.067 661.554 634.944V654.4C661.554 654.869 661.383 655.253 661.042 655.552C660.743 655.851 660.381 656 659.954 656H652.53C652.061 656 651.677 655.851 651.378 655.552C651.079 655.253 650.93 654.869 650.93 654.4V652.16C650.375 652.971 649.629 653.717 648.69 654.4C647.751 655.083 646.642 655.616 645.362 656C644.125 656.427 642.674 656.64 641.01 656.64ZM644.018 649.344C645.255 649.344 646.365 649.088 647.346 648.576C648.37 648.021 649.159 647.189 649.714 646.08C650.311 644.928 650.61 643.499 650.61 641.792V640.896L645.17 641.856C643.165 642.197 641.693 642.731 640.754 643.456C639.858 644.139 639.41 644.949 639.41 645.888C639.41 646.613 639.623 647.232 640.05 647.744C640.477 648.256 641.031 648.661 641.714 648.96C642.397 649.216 643.165 649.344 644.018 649.344ZM681.192 656.64C679.144 656.64 677.288 656.32 675.624 655.68C674.003 654.997 672.595 654.016 671.4 652.736C670.248 651.413 669.352 649.835 668.712 648C668.072 646.123 667.709 643.989 667.624 641.6C667.581 640.747 667.56 640 667.56 639.36C667.56 638.677 667.581 637.931 667.624 637.12C667.709 634.816 668.072 632.747 668.712 630.912C669.352 629.077 670.248 627.499 671.4 626.176C672.552 624.853 673.96 623.851 675.624 623.168C677.288 622.443 679.144 622.08 681.192 622.08C683.325 622.08 685.16 622.443 686.696 623.168C688.232 623.851 689.533 624.747 690.6 625.856V612.16C690.6 611.691 690.749 611.307 691.048 611.008C691.347 610.709 691.731 610.56 692.2 610.56H700.008C700.435 610.56 700.797 610.709 701.096 611.008C701.437 611.307 701.608 611.691 701.608 612.16V654.4C701.608 654.869 701.437 655.253 701.096 655.552C700.797 655.851 700.435 656 700.008 656H692.776C692.307 656 691.923 655.851 691.624 655.552C691.325 655.253 691.176 654.869 691.176 654.4V652.352C690.152 653.589 688.829 654.613 687.208 655.424C685.587 656.235 683.581 656.64 681.192 656.64ZM684.648 648.064C686.099 648.064 687.229 647.765 688.04 647.168C688.893 646.528 689.512 645.717 689.896 644.736C690.323 643.755 690.557 642.688 690.6 641.536C690.643 640.683 690.664 639.872 690.664 639.104C690.664 638.336 690.643 637.547 690.6 636.736C690.557 635.669 690.323 634.688 689.896 633.792C689.469 632.853 688.829 632.107 687.976 631.552C687.123 630.955 686.013 630.656 684.648 630.656C683.24 630.656 682.109 630.955 681.256 631.552C680.445 632.149 679.869 632.96 679.528 633.984C679.187 635.008 678.973 636.139 678.888 637.376C678.76 638.699 678.76 640.021 678.888 641.344C678.973 642.581 679.187 643.712 679.528 644.736C679.869 645.76 680.445 646.571 681.256 647.168C682.109 647.765 683.24 648.064 684.648 648.064ZM724.895 656.64C721.311 656.64 718.282 656.064 715.807 654.912C713.375 653.76 711.498 652.117 710.175 649.984C708.895 647.808 708.17 645.227 707.999 642.24C707.956 641.387 707.935 640.427 707.935 639.36C707.935 638.251 707.956 637.291 707.999 636.48C708.17 633.451 708.938 630.869 710.303 628.736C711.668 626.603 713.567 624.96 715.999 623.808C718.474 622.656 721.439 622.08 724.895 622.08C728.394 622.08 731.359 622.656 733.791 623.808C736.266 624.96 738.186 626.603 739.551 628.736C740.916 630.869 741.684 633.451 741.855 636.48C741.898 637.291 741.919 638.251 741.919 639.36C741.919 640.427 741.898 641.387 741.855 642.24C741.684 645.227 740.938 647.808 739.615 649.984C738.335 652.117 736.458 653.76 733.983 654.912C731.551 656.064 728.522 656.64 724.895 656.64ZM724.895 648.832C726.815 648.832 728.202 648.256 729.055 647.104C729.951 645.952 730.463 644.224 730.591 641.92C730.634 641.28 730.655 640.427 730.655 639.36C730.655 638.293 730.634 637.44 730.591 636.8C730.463 634.539 729.951 632.832 729.055 631.68C728.202 630.485 726.815 629.888 724.895 629.888C723.018 629.888 721.631 630.485 720.735 631.68C719.839 632.832 719.348 634.539 719.263 636.8C719.22 637.44 719.199 638.293 719.199 639.36C719.199 640.427 719.22 641.28 719.263 641.92C719.348 644.224 719.839 645.952 720.735 647.104C721.631 648.256 723.018 648.832 724.895 648.832Z" fill="#0D0802"/>
    </g>
    </g>
    <defs>
    <clipPath id="clip0_349_6">
    <rect width="931.61" height="1116.91" fill="white"/>
    </clipPath>
    </defs>
</svg>
