 <svg xmlns="http://www.w3.org/2000/svg" xmlns:xlink="http://www.w3.org/1999/xlink" style="display: none;">
    <symbol id="pitbull" viewBox="0 0 932 1117">
        <g id="perro" clip-path="url(#clip0_299_221)">
            <g id="tail">
                <!-- Paths de la cola -->
                <animate attributeName="transform" 
                    attributeType="XML" 
                    type="rotate" 
                    from="0 730 970" 
                    to="15 730 970" 
                    dur="2s" 
                    repeatCount="indefinite" 
                    additive="sum" />
                <path id="Vector" d="M858.45 993.07C840.02 1004.84 810.42 1015.17 783.95 1020.22C760.99 1024.6 740.8 1025.23 726.06 1024.9C708.98 1022.59 691.89 1020.28 674.81 1017.97C663.61 1002.35 664.2 982.52 674.81 970.79C684.91 959.62 700.17 960.11 702.61 960.23C762.39 977.23 795.72 966.41 814.46 955.13C889.3 910.08 905.37 810.97 916.82 814.19C929.23 817.69 929.66 947.62 858.45 993.07Z" fill="white" stroke="#180027" stroke-width="16.94" stroke-linejoin="round"/>
                <path id="Vector_2" d="M840.39 946.12C842.73 944.73 846.36 942.91 851.08 941.85C854.04 941.18 861.84 939.54 870.46 942.89C874.44 944.43 881.66 947.24 883.38 953.04C885.54 960.31 877.84 968.24 870 976.12C856.08 990.1 841.94 996.86 838.39 998.5C819.08 1007.42 796.78 1011.73 794.88 1007.49C793.33 1004.03 807.08 998.6 808.39 986.73C809.27 978.69 804.02 971.53 799.81 966.99C813.34 960.03 826.86 953.08 840.39 946.12Z" fill="#CBC5F2"/>
        </g>
        <g id="Body">
            <g id="back-pat2">
            <path id="Vector_3" d="M447.11 1063.63C445.94 1068.52 443.06 1077.43 435.5 1085.61C421.64 1100.6 402.9 1101.43 398.94 1101.52C384.09 1106.9 342.32 1101.52 289.53 1101.52C250.68 1101.52 219.24 1070.09 219.24 1031.38C219.24 992.67 250.67 961.09 289.53 961.09C290.69 961.09 291.86 961.09 292.88 961.24C308.15 959.66 323.41 958.08 338.68 956.49C330.16 937.02 293.52 847.56 333.18 750.6C353.1 701.91 384.41 670.53 404.18 653.8C418.49 790.41 432.8 927.02 447.11 1063.63Z" fill="#180027"/>
            <path id="Vector_4" d="M314.72 1018.93C311.62 1018.32 286.07 1013.72 265.37 1031.74C249.84 1045.27 242.85 1066.47 246.96 1087.14" fill="#180027"/>
            <path id="Vector_5" d="M271.77 993.07C267.3 993.2 251.48 994.19 238.63 1006.44C218.1 1026.03 224.98 1055.48 225.29 1056.71" fill="#180027"/>
            </g>
            <path id="Vector_6" d="M750.26 1044.81C646.74 1133.37 452.68 1115.57 359.01 1017.96C334.11 992.01 320.2 961.95 292.4 901.84C260.12 832.07 235.77 777.58 246.53 710.68C249.43 692.64 255.89 652.51 286.17 617.38C340.31 554.57 447.61 534.09 516.62 571.83C594.42 614.36 559.45 689.78 653.45 784.3C730.59 861.87 801.66 858.87 812.89 918.12C824.58 979.78 758.04 1038.15 750.25 1044.82L750.26 1044.81Z" fill="#FAFAFA" stroke="#180027" stroke-width="16.94" stroke-miterlimit="10"/>
            <g id="back-pat">
            <path id="Vector_7" d="M799.06 1031.81C781.17 1065.36 753.59 1085.09 750.66 1087.14C733.78 1098.95 717.66 1105.11 706.5 1108.44H551.67C512.91 1108.16 481.43 1076.32 481.38 1038.3C481.33 993.74 524.48 968.01 551.67 968.01C552.83 968.01 554 968.01 555.02 968.16C575.66 968.08 596.3 968.01 616.94 967.93C598.88 916.57 624.99 859.41 675.47 839.44C726.16 819.39 784.54 843.55 806.29 893.71C810.36 905.62 831.48 971.02 799.06 1031.81Z" fill="#CBC5F2" stroke="#180027" stroke-width="16.94" stroke-miterlimit="10"/>
            <g id="Vector_8">
            <path d="M576.86 1025.85C573.76 1025.24 548.21 1020.64 527.51 1038.66C511.98 1052.19 504.99 1073.39 509.1 1094.06" fill="#CBC5F2"/>
            <path d="M576.86 1025.85C573.76 1025.24 548.21 1020.64 527.51 1038.66C511.98 1052.19 504.99 1073.39 509.1 1094.06" stroke="#180027" stroke-width="16.94" stroke-miterlimit="10"/>
            </g>
            <g id="Vector_9">
            <path d="M533.91 999.99C529.44 1000.12 513.62 1001.11 500.77 1013.36C480.24 1032.95 487.12 1062.4 487.43 1063.63" fill="#CBC5F2"/>
            <path d="M533.91 999.99C529.44 1000.12 513.62 1001.11 500.77 1013.36C480.24 1032.95 487.12 1062.4 487.43 1063.63" stroke="#180027" stroke-width="16.94" stroke-miterlimit="10"/>
            </g>
            </g>
            <g id="pat">
            <path id="Vector_10" d="M357.75 607.58C358.83 619 391.86 614.71 418.83 643.81C422.19 647.43 432.8 659.5 443.66 696.98C461.05 757.01 456.25 803.61 462.21 878.86C464.29 905.05 466.08 930.93 467.62 956.5C452.35 958.08 437.09 959.66 421.82 961.24C420.8 961.09 419.64 961.09 418.47 961.09C379.62 961.09 348.18 992.52 348.18 1031.38C348.18 1070.24 379.61 1101.52 418.47 1101.52C471.26 1101.52 513.03 1106.9 527.88 1101.52C531.83 1101.43 550.58 1100.61 564.44 1085.61C572 1077.43 574.88 1068.52 576.05 1063.63C575.53 977.98 570.29 887.3 558.56 792.37C556.25 773.68 553.74 755.25 551.04 737.06C549.9 721.81 551.47 709.44 553.48 700.22C557.05 683.8 561.8 678.36 564.96 661.95C565.86 657.26 569.32 639.33 566.29 625.92C558.37 590.85 503.64 576.14 496.54 574.23C426.22 555.32 356.53 594.76 357.74 607.57L357.75 607.58Z" fill="#CBC5F2" stroke="#180027" stroke-width="16.94" stroke-miterlimit="10"/>
            <path id="u&#195;&#177;a (Stroke)" d="M389.309 1024.87C413.087 1004.64 441.812 1009.93 445.296 1010.62L442.025 1027.24C439.336 1026.71 417.387 1022.88 399.872 1038.13C386.717 1049.59 380.667 1067.68 384.208 1085.49L367.592 1088.79C362.913 1065.26 370.842 1040.95 388.746 1025.35L388.749 1025.35L389.309 1024.87Z" fill="#180027"/>
            <path id="u&#195;&#177;a (Stroke)_2" d="M400.966 1001.54C397.069 1001.65 383.938 1002.55 373.424 1012.57C365.154 1020.46 362.241 1030.46 361.538 1039.14C361.188 1043.46 361.402 1047.31 361.722 1050.14C362.043 1052.96 362.457 1054.65 362.453 1054.64L346.027 1058.78C345.737 1057.63 343.745 1048.98 344.653 1037.78C345.564 1026.53 349.476 1012.01 361.733 1000.31L361.736 1000.31L362.45 999.64C377.497 985.798 395.509 984.747 400.473 984.603L400.966 1001.54Z" fill="#180027"/>
            </g>
            <path id="Vector_11" d="M570.41 657.77C555.41 660.08 538.06 742.05 578.24 796.57C583.48 803.68 606.75 833.47 646.39 839.99C669.75 843.83 702.85 840.27 706.23 827.55C710.13 812.85 670.15 801.76 631.36 759.65C582.82 706.95 582.44 655.92 570.41 657.77Z" fill="#180027"/>
            </g>
        <g id="Head">
            <path id="Vector_12" d="M265.52 72.31C339.96 17.38 344.63 5.68005 353.89 8.98004C387.88 21.09 394.27 203.33 315.6 234.41C284.27 246.79 236.19 236.49 215.58 203.85C195.45 171.98 208.85 130.44 224.03 107.92C232.14 95.89 239.02 91.86 265.53 72.3L265.52 72.31Z" fill="#CBC5F2" stroke="#180027" stroke-width="16.94" stroke-miterlimit="10"/>
            <path id="Vector_13" d="M552.38 468.61C540.46 503.01 528.54 537.42 516.63 571.82C491.45 588.89 441.75 617.32 373.68 623.12C338.59 626.11 308.54 622.24 286.18 617.38C263.87 593.56 241.56 569.74 219.25 545.92C330.29 520.15 441.34 494.38 552.38 468.62V468.61Z" fill="#FF3E68" stroke="#180027" stroke-width="16.94" stroke-miterlimit="10"/>
            <path id="Vector_14" d="M586.73 345.21C586.73 214.35 479.05 106.67 348.19 106.67C271.2 106.67 198.71 146.56 156.88 203.42C110.83 266.02 109.67 337.22 109.64 345.21C82.7199 372.13 64.7699 390.08 61.2099 407.52C60.0299 413.28 57.8199 431.75 82.1999 458.88C145.22 547.59 247.31 595.86 348.19 583.75C458.31 570.53 586.73 483.02 586.73 345.21Z" fill="#CBC5F2" stroke="#180027" stroke-width="16.94" stroke-miterlimit="10"/>
            <path id="Vector_15" d="M512.07 143.53C586.51 88.5998 591.18 76.8998 600.44 80.1998C634.43 92.3098 640.82 274.55 562.15 305.63C530.82 318.01 482.74 307.71 462.13 275.07C442 243.2 455.4 201.66 470.58 179.14C478.69 167.11 485.57 163.08 512.08 143.52L512.07 143.53Z" fill="#CBC5F2" stroke="#180027" stroke-width="16.94" stroke-miterlimit="10"/>
            <path id="Vector_16" d="M262.37 320.49C278.524 320.49 291.62 304.556 291.62 284.9C291.62 265.244 278.524 249.31 262.37 249.31C246.216 249.31 233.12 265.244 233.12 284.9C233.12 304.556 246.216 320.49 262.37 320.49Z" fill="#180027"/>
            <path id="Vector_17" d="M67.3801 310.67C79.4033 310.67 89.1501 294.736 89.1501 275.08C89.1501 255.424 79.4033 239.49 67.3801 239.49C55.3569 239.49 45.6101 255.424 45.6101 275.08C45.6101 294.736 55.3569 310.67 67.3801 310.67Z" fill="#180027"/>
            <path id="Vector_18" d="M168.62 195.97C189.86 169.52 200.35 166.47 206.01 168.58C224.6 175.51 156.9 275.54 192.02 364.64C209.21 408.24 240.18 424.26 233.12 438.46C226.77 451.23 192.37 456.75 62.4399 419.67C65.7699 409.24 72.5599 392.61 86.6199 376.1C97.7899 362.98 109.59 354.6 118.1 349.53C116.35 329.76 116.41 299.27 128 265.03C141.58 224.89 164.2 201.47 168.61 195.97H168.62Z" fill="#FFFEFB"/>
            <path id="Vector_19" d="M50.7401 397.06C48.1401 395.82 23.8501 383.78 22.5901 362.54C21.9501 351.74 27.1801 337.32 34.3601 336.92C41.4201 336.53 47.3201 349.84 47.8801 351.16C58.5501 336.72 73.9301 332.23 82.0501 337.28C90.7601 342.7 89.8001 358.03 87.5201 366.23C81.1101 389.31 53.0801 396.5 50.7301 397.07L50.7401 397.06Z" fill="#180027"/>
            <path id="Vector_20" d="M68.67 471.38C76.16 481.85 94.22 503.58 133.12 515.19C187.95 531.56 254.43 509.62 257.95 484.17C263.86 441.51 97.47 356.33 35.18 404.57C22.14 414.67 10.93 432.73 8.85 452.26C5.75 481.32 21.74 516.75 44.49 520.5C55.92 522.38 67.14 515.96 69.77 514.45C82.12 507.38 87.49 496.72 89.2 492.92" fill="#FAFAFA"/>
            <path id="Vector (Stroke)" d="M30.8397 397.229C48.7114 383.857 72.9055 380.3 97.7479 382.212C123.162 384.169 150.525 391.932 175.442 402.483C200.355 413.032 223.318 426.577 239.845 440.467C248.093 447.4 255.015 454.651 259.731 461.908C264.372 469.049 267.474 477.136 266.34 485.33L266.341 485.331C264.992 495.083 257.946 503.022 249.571 508.963C240.972 515.063 229.649 520.033 217.036 523.525C191.834 530.502 159.865 532.014 130.697 523.306V523.305C114.667 518.521 101.926 512.087 91.8572 505.336C88.1878 510.626 82.4943 516.922 73.9862 521.794L73.9871 521.795C71.5478 523.196 57.865 531.284 43.1151 528.858L43.1121 528.857C27.8216 526.336 16.3687 513.651 9.39436 499.647C2.27308 485.348 -1.30577 467.611 0.427559 451.362C2.76468 429.42 15.2278 409.311 29.994 397.874L30.8397 397.229ZM96.4471 399.102C73.1515 397.308 53.561 401.047 40.366 411.265L40.367 411.266C29.0534 420.029 19.0954 436.039 17.2723 453.157V453.159C15.9058 465.969 18.7724 480.477 24.5584 492.095C30.4915 504.008 38.4088 510.913 45.868 512.142H45.867C53.9759 513.475 62.7314 508.724 65.5526 507.104L65.5623 507.099L66.0301 506.827C72.0414 503.269 75.9832 498.663 78.449 494.929C71.0816 488.322 65.987 482.065 62.5838 477.417L61.7811 476.308L61.5369 475.947C59.1176 472.175 60.0563 467.127 63.742 464.491C67.4278 461.854 72.5085 462.596 75.2967 466.104L75.5584 466.452L76.2235 467.371C79.6874 472.108 85.3792 479.063 94.326 486.178C94.4151 486.246 94.5028 486.315 94.5887 486.385C103.851 493.703 116.564 501.171 133.844 506.555L135.543 507.074L136.748 507.426C162.1 514.695 190.245 513.365 212.516 507.2C223.817 504.071 233.201 499.807 239.77 495.147C246.563 490.328 249.149 485.982 249.56 483.009V483.007L249.589 482.772C249.849 480.292 248.986 476.46 245.527 471.138C242.032 465.76 236.438 459.733 228.945 453.435C213.989 440.864 192.57 428.13 168.838 418.082C145.11 408.035 119.565 400.882 96.4471 399.102Z" fill="#180027"/>
        </g>
        </g>
        <defs>
        <clipPath id="clip0_299_221">
        <rect width="931.61" height="1116.91" fill="white"/>
        </clipPath>
        </defs>

    </symbol>

    <symbol id="dachshund" viewBox="0 0 409 377">
        <g clip-path="url(#clip0_211_5)">
        <path d="M382.909 332.68C376.32 336.871 365.763 340.558 356.314 342.371C348.113 343.943 340.921 344.164 335.662 344.043C329.557 343.217 323.473 342.391 317.368 341.565C313.379 335.984 313.58 328.913 317.368 324.722C320.974 320.733 326.414 320.914 327.281 320.954C348.617 327.019 360.504 323.17 367.193 319.141C393.909 303.063 399.631 267.683 403.721 268.852C408.154 270.101 408.315 316.461 382.889 332.7L382.909 332.68Z" fill="#6D1B34" stroke="#180027" stroke-width="5" stroke-miterlimit="10"/>
        <path d="M285.172 315.917C285.998 315.414 287.307 314.769 288.98 314.386C290.047 314.144 292.828 313.56 295.89 314.749C297.301 315.293 299.88 316.3 300.504 318.375C301.27 320.974 298.53 323.795 295.729 326.616C290.753 331.612 285.716 334.01 284.446 334.594C277.556 337.778 269.597 339.309 268.912 337.798C268.348 336.569 273.264 334.634 273.728 330.383C274.05 327.522 272.176 324.964 270.665 323.332C275.501 320.853 280.316 318.375 285.152 315.877L285.172 315.917Z" fill="#CBC5F2"/>
        <path d="M144.822 357.865C144.399 359.618 143.372 362.781 140.672 365.702C135.736 371.062 129.047 371.344 127.616 371.384C122.317 373.298 107.408 371.384 88.5697 371.384C74.708 371.384 63.4857 360.162 63.4857 346.361C63.4857 332.559 74.708 321.277 88.5697 321.277C88.9928 321.277 89.3958 321.277 89.7584 321.337C95.1983 320.773 100.658 320.209 106.098 319.645C100.497 291.135 94.8961 262.626 89.3152 234.117C102.713 226.622 116.092 219.127 129.49 211.632C132.452 234.963 135.212 258.758 137.771 282.996C140.45 308.402 142.787 333.365 144.802 357.885L144.822 357.865Z" fill="#180027"/>
        <path d="M97.5757 341.908C96.4676 341.686 87.3608 340.054 79.9665 346.481C74.4259 351.317 71.9276 358.872 73.3984 366.246" fill="#180027"/>
        <path d="M82.2433 332.68C80.6516 332.72 75.0102 333.083 70.4165 337.455C63.0827 344.447 65.5408 354.964 65.6617 355.387" fill="#180027"/>
        <path d="M346.844 326.233C336.69 338.563 318.275 336.609 253.822 326.233C142.687 308.342 119.053 301.552 104.184 279.833C99.4293 272.882 90.8665 257.549 87.0183 237.26C84.0364 221.585 81.6589 208.993 87.4212 198.617C99.4293 176.958 140.934 175.628 169.664 182.358C204.863 190.598 203.896 206.978 248.362 229.967C301.632 257.509 330.323 248.1 346.078 275.34C354.984 290.733 357.301 313.56 346.864 326.233H346.844Z" fill="#F96D5F" stroke="#180027" stroke-width="5" stroke-miterlimit="10"/>
        <path d="M361.713 346.502C355.326 358.469 345.494 365.521 344.446 366.246C338.422 370.457 332.66 372.653 328.691 373.842H273.446C259.624 373.741 248.382 362.378 248.362 348.819C248.362 332.922 263.734 323.735 273.446 323.735C273.869 323.735 274.272 323.735 274.634 323.795C282.008 323.775 289.362 323.735 296.737 323.714C290.289 305.38 299.618 284.99 317.63 277.858C335.722 270.706 356.555 279.329 364.312 297.22C365.763 301.471 373.298 324.802 361.733 346.502H361.713Z" fill="#F96D5F"/>
        <path d="M361.713 346.502C355.326 358.469 345.494 365.521 344.446 366.246C338.422 370.457 332.66 372.653 328.691 373.842H273.446C259.624 373.741 248.382 362.378 248.362 348.819C248.362 332.922 263.734 323.735 273.446 323.735C273.869 323.735 274.272 323.735 274.634 323.795C282.008 323.775 289.362 323.735 296.737 323.714C290.289 305.38 299.618 284.99 317.63 277.858C335.722 270.706 356.555 279.329 364.312 297.22C365.763 301.471 373.298 324.802 361.733 346.502H361.713Z" stroke="#180027" stroke-width="5" stroke-miterlimit="10" stroke-linecap="round"/>
        <path d="M282.411 344.366C281.303 344.144 272.196 342.512 264.802 348.939C259.262 353.775 256.763 361.33 258.234 368.704" fill="#F96D5F"/>
        <path d="M282.411 344.366C281.303 344.144 272.196 342.512 264.802 348.939C259.262 353.775 256.763 361.33 258.234 368.704" stroke="#180027" stroke-width="3" stroke-miterlimit="10" stroke-linecap="round"/>
        <path d="M267.079 335.138C265.487 335.178 259.846 335.541 255.252 339.913C247.918 346.905 250.376 357.422 250.497 357.845" fill="#F96D5F"/>
        <path d="M267.079 335.138C265.487 335.178 259.846 335.541 255.252 339.913C247.918 346.905 250.376 357.422 250.497 357.845" stroke="#180027" stroke-width="3" stroke-miterlimit="10" stroke-linecap="round"/>
        <path d="M143.593 227.005C149.799 248.422 148.086 265.064 150.222 291.921C150.967 301.27 151.612 310.497 152.156 319.624C146.716 320.189 141.256 320.753 135.816 321.317C135.454 321.256 135.03 321.256 134.627 321.256C120.766 321.256 109.543 332.479 109.543 346.34C109.543 360.202 120.766 371.364 134.627 371.364C153.466 371.364 168.375 373.278 173.674 371.364C175.084 371.324 181.773 371.042 186.73 365.682C189.429 362.761 190.457 359.577 190.88 357.845C190.074 335.44 188.603 318.315 187.354 306.428C186.508 298.369 185.098 286.703 186.045 270.806C186.468 263.573 187.253 257.61 187.878 253.52" fill="#F96D5F"/>
        <path d="M143.593 227.005C149.799 248.422 148.086 265.064 150.222 291.921C150.967 301.27 151.612 310.497 152.156 319.624C146.716 320.189 141.256 320.753 135.816 321.317C135.454 321.256 135.03 321.256 134.627 321.256C120.766 321.256 109.543 332.479 109.543 346.34C109.543 360.202 120.766 371.364 134.627 371.364C153.466 371.364 168.375 373.278 173.674 371.364C175.084 371.324 181.773 371.042 186.73 365.682C189.429 362.761 190.457 359.577 190.88 357.845C190.074 335.44 188.603 318.315 187.354 306.428C186.508 298.369 185.098 286.703 186.045 270.806C186.468 263.573 187.253 257.61 187.878 253.52" stroke="#180027" stroke-width="5" stroke-miterlimit="10"/>
        <path d="M143.593 341.908C142.485 341.686 133.378 340.054 125.984 346.481C120.443 351.317 117.945 358.872 119.416 366.246" fill="#F96D5F"/>
        <path d="M143.593 341.908C142.485 341.686 133.378 340.054 125.984 346.481C120.443 351.317 117.945 358.872 119.416 366.246" stroke="#180027" stroke-width="3" stroke-miterlimit="10" stroke-linecap="round"/>
        <path d="M128.261 332.68C126.669 332.72 121.028 333.083 116.434 337.455C109.1 344.447 111.558 354.964 111.679 355.387" fill="#F96D5F"/>
        <path d="M128.261 332.68C126.669 332.72 121.028 333.083 116.434 337.455C109.1 344.447 111.558 354.964 111.679 355.387" stroke="#180027" stroke-width="3" stroke-miterlimit="10" stroke-linecap="round"/>
        <path d="M87.8645 199.523C92.841 201.055 99.7517 202.626 108.093 202.868C115.809 203.09 122.357 202.102 127.213 201.014C130.598 203.916 135.292 208.509 139.261 215.158C146.474 227.166 147.139 238.671 147.703 250.759C148.67 271.572 149.456 289.282 150.182 307.516C143.613 305.541 111.719 295.266 95.4803 264.097C84.9632 243.909 85.2251 223.036 85.6079 215.682C85.9504 209.033 86.9578 203.513 87.8645 199.523Z" fill="#F4AAA6" stroke="#180027" stroke-width="5" stroke-miterlimit="10"/>
        <path d="M64.9363 8.76428C74.708 1.75286 90.1009 1.04768 100.316 7.2935C118.57 18.4755 115.407 48.7979 110.349 97.5757C109.12 109.342 107.267 120.403 98.7242 125.964C91.612 130.578 81.115 130.578 73.2977 126.75C46.3399 113.573 45.2721 61.6925 52.2432 31.8335C54.7416 21.1552 58.1466 13.6602 64.9565 8.74414L64.9363 8.76428Z" fill="#6D1B34" stroke="#180027" stroke-width="5" stroke-miterlimit="10"/>
        <path d="M182.398 145.507C178.147 157.777 173.896 170.067 169.644 182.337C160.658 188.422 142.928 198.577 118.63 200.652C106.098 201.72 95.3796 200.329 87.4011 198.597C79.4428 190.094 71.4844 181.592 63.526 173.09C103.157 163.902 142.787 154.695 182.418 145.507H182.398Z" fill="#CBC5F2" stroke="#180027" stroke-width="5" stroke-miterlimit="10"/>
        <path d="M194.648 101.464C194.648 54.7617 156.226 16.3398 109.523 16.3398C82.0417 16.3398 56.172 30.5642 41.2425 50.8731C24.8019 73.217 24.3989 98.6234 24.3788 101.464C24.3788 148.167 62.8006 186.589 109.503 186.589C156.226 186.589 194.628 148.126 194.628 101.464H194.648Z" fill="#F96D5F" stroke="#180027" stroke-width="5" stroke-miterlimit="10"/>
        <path d="M87.3607 92.6395C93.1247 92.6395 97.7973 86.9566 97.7973 79.9464C97.7973 72.9362 93.1247 67.2533 87.3607 67.2533C81.5968 67.2533 76.9242 72.9362 76.9242 79.9464C76.9242 86.9566 81.5968 92.6395 87.3607 92.6395Z" fill="#180027"/>
        <path d="M10.9 94.9162C15.1951 94.9162 18.677 89.2333 18.677 82.2231C18.677 75.2129 15.1951 69.53 10.9 69.53C6.60483 69.53 3.12292 75.2129 3.12292 82.2231C3.12292 89.2333 6.60483 94.9162 10.9 94.9162Z" fill="#180027"/>
        <path d="M158.744 33.7274C168.516 26.7159 183.909 26.0108 194.124 32.2566C212.378 43.4386 209.215 73.761 204.157 122.539C202.928 134.305 201.075 145.366 192.532 150.927C185.42 155.541 174.923 155.541 167.106 151.713C140.148 138.536 139.08 86.6556 146.051 56.7966C148.55 46.1182 151.955 38.6233 158.764 33.7072L158.744 33.7274Z" fill="#6D1B34" stroke="#180027" stroke-width="5" stroke-miterlimit="10"/>
        <path d="M21.5581 164.466C21.5581 164.466 28.086 172.566 45.7556 164.97C63.4252 157.374 36.3466 151.189 36.3466 151.189C36.3466 151.189 20.309 153.022 21.5581 164.466Z" fill="#F4AAA6" stroke="#180027" stroke-width="3" stroke-miterlimit="10"/>
        <path d="M65.7624 114.137C68.6838 120.987 72.3306 126.004 74.9095 129.127C84.5401 135.695 89.154 145.487 86.7161 153.022C84.6006 159.53 77.7906 162.512 73.9625 164.184C62.7402 169.1 51.8604 166.038 46.6421 164.567C38.0793 162.149 31.5313 157.898 26.998 154.11C26.6354 155.259 25.3056 158.845 21.7596 160.618C16.2794 163.338 10.4164 159.228 9.46947 158.563C8.56282 157.918 5.6011 155.702 4.09001 151.854C0.261936 142.163 7.53529 129.248 14.446 121.793C17.1861 118.832 21.2962 114.077 25.6078 107.73C31.4306 99.1473 31.8134 96.1855 35.9437 93.7275C42.532 89.7987 52.9685 90.6046 58.6099 95.9035C62.982 100.014 61.5313 104.184 65.7825 114.157L65.7624 114.137Z" fill="#F4AAA6" stroke="#180027" stroke-width="5" stroke-miterlimit="10" stroke-linejoin="bevel"/>
        <path d="M26.5347 154.251C17.3674 152.196 11.1619 146.575 10.9201 140.692C10.7791 137.529 12.3103 132.23 16.2794 131.404C19.1606 130.799 22.5655 132.693 24.54 136.199C28.4688 130.296 34.4527 128.241 37.757 130.074C41.303 132.049 41.2022 138.113 40.4568 141.397C38.3614 150.625 27.4413 153.989 26.5347 154.272V154.251Z" fill="#180027"/>
        </g>
        <defs>
        <clipPath id="clip0_211_5">
        <rect width="409" height="376.864" fill="white"/>
        </clipPath>
        </defs>
                        
    </symbol>

    <symbol id="chihuahua" viewBox="0 0 727 849">
       <g clip-path="url(#clip0_313_451)">
        <path d="M669.53 752.21C655.19 761.36 632.17 769.4 611.57 773.33C593.71 776.74 578 777.23 566.53 776.97C553.24 775.17 539.95 773.38 526.66 771.58C517.95 759.43 518.41 744 526.66 734.87C534.52 726.18 546.39 726.56 548.29 726.66C594.8 739.89 620.73 731.47 635.31 722.69C693.54 687.64 706.04 610.54 714.94 613.05C724.59 615.77 724.93 716.86 669.53 752.22V752.21Z" fill="#FFFEFB" stroke="#180027" stroke-width="13.18" stroke-linejoin="round"/>
        <path d="M349.52 807.11C348.61 810.92 346.37 817.85 340.49 824.21C329.71 835.87 315.13 836.52 312.05 836.58C300.5 840.77 268 836.58 226.93 836.58C196.7 836.58 172.25 812.13 172.25 782.01C172.25 751.89 196.7 727.33 226.93 727.33C227.84 727.33 228.74 727.33 229.53 727.44C241.41 726.21 253.28 724.98 265.16 723.75C258.53 708.6 230.03 639 260.88 563.57C276.38 525.69 300.73 501.28 316.12 488.26C327.25 594.54 338.38 700.82 349.52 807.1V807.11Z" fill="#180027"/>
        <path d="M246.53 772.33C244.12 771.85 224.24 768.27 208.14 782.3C196.06 792.82 190.62 809.32 193.81 825.4" fill="#180027"/>
        <path d="M213.12 752.21C209.64 752.31 197.33 753.08 187.34 762.61C171.37 777.85 176.72 800.76 176.96 801.72" fill="#180027"/>
        <path d="M585.36 792.46C503.2 863.7 346.19 848.7 280.98 771.57C257.29 743.55 243.12 704.27 235.68 683.67C224.49 652.66 215.62 627.17 219.71 593.93C221 583.43 224.62 553.97 244.74 528.62C280.62 483.42 354.31 469.75 404.68 492.53C453.76 514.73 439.48 552.89 498.63 605.39C564.31 663.67 622.41 652.56 634.08 693.89C646.59 738.22 590.26 788.2 585.35 792.46H585.36Z" fill="#FFFEFB" stroke="#180027" stroke-width="13.18" stroke-linejoin="round"/>
        <path d="M427.3 519.6C414.81 521.77 401.94 581.12 430.23 620.97C433.02 624.9 451.03 649.44 483.25 654.75C500.38 657.57 527.53 655.94 530.87 645.17C534.78 632.57 501.5 622.35 467.85 581.04C438.26 544.71 435.89 518.11 427.3 519.6Z" fill="#CE9463"/>
        <path d="M623.33 782.35C609.41 808.45 587.96 823.8 585.68 825.4C572.55 834.59 560.01 839.38 551.32 841.97H430.87C400.72 841.75 376.22 816.99 376.19 787.4C376.15 752.73 409.72 732.72 430.87 732.72C431.78 732.72 432.68 732.72 433.47 732.83C449.53 732.77 465.58 732.71 481.64 732.65C467.59 692.69 487.9 648.22 527.17 632.69C566.61 617.09 612.03 635.88 628.95 674.91C632.11 684.18 648.55 735.05 623.33 782.35Z" fill="#FFFEFB" stroke="#180027" stroke-width="13.18" stroke-miterlimit="10"/>
        <path d="M450.46 777.71C448.05 777.23 428.17 773.65 412.07 787.68C399.99 798.2 394.55 814.7 397.74 830.78" fill="#FFFEFB"/>
        <path d="M450.46 777.71C448.05 777.23 428.17 773.65 412.07 787.68C399.99 798.2 394.55 814.7 397.74 830.78" stroke="#180027" stroke-width="13.18" stroke-miterlimit="10"/>
        <path d="M417.05 757.59C413.57 757.69 401.26 758.46 391.27 767.99C375.3 783.23 380.65 806.14 380.89 807.1" fill="#FFFEFB"/>
        <path d="M417.05 757.59C413.57 757.69 401.26 758.46 391.27 767.99C375.3 783.23 380.65 806.14 380.89 807.1" stroke="#180027" stroke-width="13.18" stroke-miterlimit="10"/>
        <path d="M315.37 569.3C315.37 569.3 325.16 608.34 329.8 666.88C331.42 687.26 332.81 707.39 334.01 727.28C322.13 728.51 310.26 729.74 298.38 730.97C297.59 730.86 296.68 730.86 295.78 730.86C265.55 730.86 241.1 755.31 241.1 785.54C241.1 815.77 265.55 840.11 295.78 840.11C336.85 840.11 369.35 844.3 380.9 840.11C383.98 840.04 398.56 839.4 409.34 827.74C415.22 821.37 417.46 814.44 418.37 810.64C415.2 774.42 412.6 737.04 410.68 698.54C409.36 672.15 408.42 646.26 407.82 620.89" fill="#FFFEFB"/>
        <path d="M315.37 569.3C315.37 569.3 325.16 608.34 329.8 666.88C331.42 687.26 332.81 707.39 334.01 727.28C322.13 728.51 310.26 729.74 298.38 730.97C297.59 730.86 296.68 730.86 295.78 730.86C265.55 730.86 241.1 755.31 241.1 785.54C241.1 815.77 265.55 840.11 295.78 840.11C336.85 840.11 369.35 844.3 380.9 840.11C383.98 840.04 398.56 839.4 409.34 827.74C415.22 821.37 417.46 814.44 418.37 810.64C415.2 774.42 412.6 737.04 410.68 698.54C409.36 672.15 408.42 646.26 407.82 620.89" stroke="#180027" stroke-width="13.18" stroke-linejoin="round"/>
        <path d="M315.37 775.85C312.96 775.37 293.08 771.79 276.98 785.82C264.9 796.34 259.46 812.84 262.65 828.92" fill="#FFFEFB"/>
        <path d="M315.37 775.85C312.96 775.37 293.08 771.79 276.98 785.82C264.9 796.34 259.46 812.84 262.65 828.92" stroke="#180027" stroke-width="13.18" stroke-linecap="round" stroke-linejoin="round"/>
        <path d="M281.96 755.73C278.48 755.83 266.17 756.6 256.18 766.13C240.21 781.37 245.56 804.28 245.8 805.24" fill="#FFFEFB"/>
        <path d="M281.96 755.73C278.48 755.83 266.17 756.6 256.18 766.13C240.21 781.37 245.56 804.28 245.8 805.24" stroke="#180027" stroke-width="13.18" stroke-linecap="round" stroke-linejoin="round"/>
        <path d="M119.41 111.14C158.96 23.6401 157.26 10.6801 167.32 8.97015C204.24 2.70015 302.46 164.49 246.98 232.55C224.89 259.65 176.12 274.7 140.9 255.61C106.51 236.96 97.5702 192.54 99.9002 164.45C101.14 149.44 105.33 142.31 119.41 111.14Z" fill="#CE9463" stroke="#180027" stroke-width="17.58" stroke-miterlimit="10"/>
        <path d="M456.13 416.29C445.85 445.97 435.57 475.66 425.28 505.34C403.55 520.07 360.67 544.59 301.95 549.6C271.67 552.18 245.75 548.84 226.46 544.65C207.21 524.1 187.97 503.55 168.72 482.99C264.52 460.76 360.33 438.53 456.13 416.3V416.29Z" fill="#CBC5F2" stroke="#180027" stroke-width="14.61" stroke-miterlimit="10"/>
        <path d="M485.77 309.83C485.77 196.93 392.87 104.02 279.96 104.02C213.53 104.02 150.99 138.43 114.91 187.49C75.18 241.5 74.18 302.93 74.16 309.82C50.94 333.04 35.45 348.53 32.37 363.58C31.35 368.55 29.44 384.49 50.48 407.89C104.85 484.43 192.93 526.07 279.97 515.62C374.97 504.22 485.78 428.72 485.78 309.81L485.77 309.83Z" fill="#CE9463" stroke="#180027" stroke-width="14.61" stroke-miterlimit="10"/>
        <path d="M458.16 77.79C512.45 38.39 521.28 38.51 526.95 41.1C539.38 46.78 537.93 64.93 543.77 155.37C547.59 214.52 549.19 221.94 543.2 236.77C530.06 269.3 498.1 293.62 463.27 300.91C432.46 307.36 383.28 303.86 359.45 269.19C328.98 224.87 363.76 164.23 369.5 154.22C381.37 133.52 406.97 114.94 458.16 77.79Z" fill="#CE9463" stroke="#180027" stroke-width="17.58" stroke-miterlimit="10"/>
        <path d="M209.55 290.54C226.549 290.54 240.33 275.882 240.33 257.8C240.33 239.718 226.549 225.06 209.55 225.06C192.551 225.06 178.77 239.718 178.77 257.8C178.77 275.882 192.551 290.54 209.55 290.54Z" fill="#180027"/>
        <path d="M37.6901 280.03C50.1442 280.03 60.2401 266.281 60.2401 249.32C60.2401 232.36 50.1442 218.61 37.6901 218.61C25.2361 218.61 15.1401 232.36 15.1401 249.32C15.1401 266.281 25.2361 280.03 37.6901 280.03Z" fill="#180027"/>
        <path d="M126.84 183.02C140.1 167.94 151.68 154.77 157.29 157.44C171.07 163.98 114.95 249.81 145.22 326.6C160.05 364.22 186.77 378.04 180.68 390.29C175.2 401.31 145.52 406.07 33.4302 374.08C36.3102 365.08 42.1602 350.74 54.2902 336.49C63.9302 325.17 74.1002 317.94 81.4502 313.56C80.7402 295.72 82.0802 268.56 93.5402 238.45C99.4802 222.85 109.57 202.66 126.84 183.02Z" fill="#FFFEFB"/>
        <path d="M49.7099 426.66C49.7099 426.66 65.4099 446.15 107.87 427.87C150.33 409.59 85.2499 394.74 85.2499 394.74C85.2499 394.74 46.7099 399.17 49.7099 426.65V426.66Z" fill="#FFFEFB" stroke="#180027" stroke-width="13.18" stroke-miterlimit="10"/>
        <path d="M116.93 313.63C122.51 315.25 139.82 320.62 170.96 341.58C196.15 358.54 208.74 367.02 210.51 376.65C214.09 396.14 193.43 416.98 175.74 425.98C151.04 438.54 125.68 431.29 110.04 426.89C89.4401 421.09 73.7301 410.87 62.7901 401.73C61.9001 404.5 58.7001 413.13 50.1901 417.36C37.0201 423.89 22.9301 414.02 20.6301 412.4C20.6301 412.4 12.2101 406.4 7.69006 396.26C2.71006 385.1 15.5101 361.54 30.3801 344.26C42.0001 330.77 59.2101 310.77 85.9101 308.52C96.3201 307.64 103.86 309.82 116.94 313.62L116.93 313.63Z" fill="#FFFEFB" stroke="#180027" stroke-width="13.18" stroke-linejoin="round"/>
        <path d="M51.09 371.44C29.06 366.47 14.12 352.97 13.53 338.85C13.21 331.24 16.85 318.5 26.42 316.5C33.34 315.05 41.54 319.62 46.29 328.01C55.75 313.82 70.13 308.86 78.07 313.28C86.58 318.02 86.37 332.61 84.58 340.5C79.56 362.69 53.29 370.8 51.09 371.44Z" fill="#180027"/>
        </g>
        <defs>
        <clipPath id="clip0_313_451">
        <rect width="726.45" height="848.56" fill="white"/>
        </clipPath>
        </defs>
    </symbol>

    <symbol id="german_shepherd" viewBox="0 0 1161 1219">
        <g clip-path="url(#clip0_297_190)">
        <path d="M892.79 1160.01C889.75 1151.83 889.91 1141.5 881.76 1116.29C873.98 1092.22 864.74 1073.52 858.18 1061.52C854.81 1044.14 851.44 1026.77 848.08 1009.39C859.59 993.36 879.07 987.42 893.97 993.88C908.16 1000.03 912.69 1015.04 913.38 1017.45C920.08 1063.22 937.69 1088.09 952.71 1102.37C977.75 1126.19 1002.5 1127.16 1091.64 1161.34C1131.69 1176.7 1151.71 1184.46 1151.37 1188.41C1149.43 1210.87 916.25 1223.13 892.8 1160L892.79 1160.01Z" fill="#342F38" stroke="#180027" stroke-width="17.39" stroke-linejoin="round"/>
        <path d="M470.96 1164.29C469.76 1169.31 466.8 1178.46 459.04 1186.86C444.81 1202.25 425.57 1203.1 421.51 1203.19C406.26 1208.72 363.38 1203.19 309.18 1203.19C269.29 1203.19 237.01 1170.92 237.01 1131.17C237.01 1091.42 269.28 1059 309.18 1059C310.37 1059 311.57 1059 312.62 1059.15C328.29 1057.53 343.97 1055.9 359.64 1054.28C355.69 998.29 348.92 953.03 343.28 921.35C333.82 868.17 326.66 848.2 335.03 822.31C348.96 779.25 394.21 755.84 426.88 743.5C441.57 883.76 456.26 1024.02 470.96 1164.29Z" fill="#180027"/>
        <path d="M335.03 1118.39C331.85 1117.76 305.62 1113.04 284.36 1131.54C268.41 1145.43 261.23 1167.19 265.45 1188.42" fill="#180027"/>
        <path d="M290.94 1091.84C286.35 1091.97 270.11 1092.99 256.92 1105.57C235.84 1125.68 242.91 1155.92 243.22 1157.18" fill="#180027"/>
        <path d="M875.09 1144.96C768.8 1235.88 569.55 1217.61 473.39 1117.4C470.19 1114.06 448.68 1075.24 405 998.18C367.78 932.5 349.09 899.5 345.31 891.18C325.42 847.4 269.81 725.01 322.25 647.73C366.02 583.22 477.35 561.49 556.89 593.99C669.21 639.88 631.12 758.36 775.7 877.5C859.61 946.64 927.83 953.83 939.4 1014.89C951.4 1078.2 883.09 1138.13 875.09 1144.97V1144.96Z" fill="#E09A69" stroke="#180027" stroke-width="17.39" stroke-miterlimit="10"/>
        <path d="M556.91 604.37C535.93 606.41 531.52 631.03 503.18 662.59C459.85 710.85 412.75 717.21 415.85 728.37C418.74 738.74 462.38 743.96 499.21 726.67C540.05 707.49 544.49 673.45 566.12 674.5C595.39 675.93 615.31 739.65 623.96 767.31C645.71 836.87 642.69 896.64 651.18 896.97C658.96 897.27 663.55 848.67 675.37 848.58C682.96 848.53 683.66 867.9 698.47 890.08C725.36 930.36 771.43 938.82 776.21 939.73C798.58 943.99 828.29 942.35 831.54 931.84C835.4 919.36 798.45 905.76 755.09 867.52C702.14 820.83 673.26 767.07 665.49 751.89C639.11 700.34 641.16 673.35 606.04 637.06C576.35 606.38 563.42 603.73 556.9 604.36L556.91 604.37Z" fill="#342F38"/>
        <path d="M925.2 1131.61C906.83 1166.06 878.52 1186.31 875.51 1188.42C858.18 1200.55 841.63 1206.87 830.17 1210.29H671.21C631.42 1210 599.09 1177.32 599.04 1138.27C598.99 1092.52 643.29 1066.11 671.21 1066.11C672.4 1066.11 673.6 1066.11 674.65 1066.26C695.84 1066.18 717.03 1066.1 738.23 1066.02C719.69 1013.29 746.5 954.6 798.32 934.1C850.37 913.52 910.31 938.31 932.64 989.82C936.82 1002.05 958.51 1069.2 925.22 1131.61H925.2Z" fill="#E09A69" stroke="#180027" stroke-width="17.39" stroke-miterlimit="10"/>
        <path d="M697.05 1125.49C693.87 1124.86 667.64 1120.14 646.38 1138.64C630.43 1152.53 623.25 1174.29 627.47 1195.52" fill="#E09A69"/>
        <path d="M697.05 1125.49C693.87 1124.86 667.64 1120.14 646.38 1138.64C630.43 1152.53 623.25 1174.29 627.47 1195.52" stroke="#180027" stroke-width="17.39" stroke-miterlimit="10"/>
        <path d="M652.96 1098.94C648.37 1099.07 632.13 1100.09 618.94 1112.67C597.86 1132.78 604.93 1163.02 605.24 1164.28" fill="#E09A69"/>
        <path d="M652.96 1098.94C648.37 1099.07 632.13 1100.09 618.94 1112.67C597.86 1132.78 604.93 1163.02 605.24 1164.28" stroke="#180027" stroke-width="17.39" stroke-miterlimit="10"/>
        <path d="M452 787.84C459.52 848.08 465.95 910.35 471.05 974.58C473.18 1001.47 475.03 1028.04 476.6 1054.29C460.93 1055.91 445.25 1057.54 429.58 1059.16C428.53 1059.01 427.34 1059.01 426.14 1059.01C386.25 1059.01 353.97 1091.28 353.97 1131.18C353.97 1171.08 386.24 1203.19 426.14 1203.19C480.34 1203.19 523.23 1208.72 538.47 1203.19C542.53 1203.1 561.78 1202.25 576 1186.86C583.76 1178.46 586.72 1169.31 587.92 1164.29C587.39 1076.35 582.01 983.24 569.96 885.78C567.59 866.59 565.01 847.67 562.24 828.99" fill="#E09A69"/>
        <path d="M452 787.84C459.52 848.08 465.95 910.35 471.05 974.58C473.18 1001.47 475.03 1028.04 476.6 1054.29C460.93 1055.91 445.25 1057.54 429.58 1059.16C428.53 1059.01 427.34 1059.01 426.14 1059.01C386.25 1059.01 353.97 1091.28 353.97 1131.18C353.97 1171.08 386.24 1203.19 426.14 1203.19C480.34 1203.19 523.23 1208.72 538.47 1203.19C542.53 1203.1 561.78 1202.25 576 1186.86C583.76 1178.46 586.72 1169.31 587.92 1164.29C587.39 1076.35 582.01 983.24 569.96 885.78C567.59 866.59 565.01 847.67 562.24 828.99" stroke="#180027" stroke-width="17.39" stroke-miterlimit="10"/>
        <path d="M452 1118.39C448.82 1117.76 422.59 1113.04 401.33 1131.54C385.38 1145.43 378.2 1167.19 382.42 1188.42" fill="#E09A69"/>
        <path d="M452 1118.39C448.82 1117.76 422.59 1113.04 401.33 1131.54C385.38 1145.43 378.2 1167.19 382.42 1188.42" stroke="#180027" stroke-width="17.39" stroke-miterlimit="10"/>
        <path d="M407.91 1091.84C403.32 1091.97 387.08 1092.99 373.89 1105.57C352.81 1125.68 359.88 1155.92 360.19 1157.18" fill="#E09A69"/>
        <path d="M407.91 1091.84C403.32 1091.97 387.08 1092.99 373.89 1105.57C352.81 1125.68 359.88 1155.92 360.19 1157.18" stroke="#180027" stroke-width="17.39" stroke-miterlimit="10"/>
        <path d="M359.21 84.9498C290.57 19.2898 287.35 6.7698 277.49 8.9198C241.29 16.8098 210.99 201.57 287.04 243.5C317.33 260.2 367.63 255.99 392.89 225.45C417.55 195.63 409.33 151.57 396.82 126.66C390.14 113.35 383.66 108.35 359.21 84.9598V84.9498Z" fill="#342F38" stroke="#180027" stroke-width="17.39" stroke-miterlimit="10"/>
        <path d="M593.59 488C581.35 523.32 569.12 558.65 556.88 593.97C531.03 611.5 480 640.68 410.11 646.64C374.08 649.71 343.23 645.74 320.27 640.74C297.36 616.28 274.46 591.82 251.55 567.37C365.56 540.91 479.57 514.46 593.58 488H593.59Z" fill="#180027" stroke="#180027" stroke-width="17.39" stroke-miterlimit="10"/>
        <path d="M628.87 361.31C628.87 226.95 518.31 116.39 383.95 116.39C304.9 116.39 230.48 157.34 187.53 215.73C140.25 280.01 139.06 353.11 139.03 361.31C111.39 388.95 92.96 407.38 89.3 425.29C88.09 431.21 85.82 450.17 110.85 478.03C175.56 569.11 280.37 618.67 383.95 606.23C497.01 592.66 628.87 502.81 628.87 361.31Z" fill="#E09A69" stroke="#180027" stroke-width="17.39" stroke-miterlimit="10"/>
        <path d="M604.31 164.41C582.65 71.9298 586.79 59.6798 577.35 56.0898C542.71 42.9398 416.46 181.19 457.29 257.84C473.55 288.37 518 312.3 555.83 300.5C592.77 288.98 609.94 247.58 613.05 219.87C614.72 205.07 612.02 197.34 604.3 164.4L604.31 164.41Z" fill="#342F38" stroke="#180027" stroke-width="17.39" stroke-miterlimit="10"/>
        <path d="M95.6399 325.84C107.983 325.84 117.99 309.48 117.99 289.3C117.99 269.119 107.983 252.76 95.6399 252.76C83.2964 252.76 73.2899 269.119 73.2899 289.3C73.2899 309.48 83.2964 325.84 95.6399 325.84Z" fill="#180027"/>
        <path d="M192.89 307.38C211.46 316.63 259.5 196.54 312.42 201.05C361.96 205.27 410.56 318.21 378.03 362.26C347.66 403.39 253 375.5 243.45 407.04C237.43 426.91 270.69 450.65 265.8 457.06C261.99 462.06 237.38 453.33 159.19 405.38C148.87 377.34 147.87 353.57 148.37 339.32C148.37 339.32 149.79 298.47 172.63 255.31C175.01 250.82 179.59 243.31 183.9 236.26C189.05 227.83 189.58 227.02 190.19 227.13C194.26 227.84 179.02 300.46 192.88 307.37L192.89 307.38Z" fill="#342F38"/>
        <path d="M55.9199 509.52C55.9199 509.52 73.5699 531.44 121.34 510.88C169.1 490.32 95.8999 473.62 95.8999 473.62C95.8999 473.62 52.5499 478.6 55.9199 509.52Z" fill="#342F38" stroke="#180027" stroke-width="14.82" stroke-miterlimit="10"/>
        <path d="M199.65 316.43C220.85 325.37 204.32 363.31 238.02 414.61C254.7 439.99 268.25 445.17 266.75 460.28C263.76 490.39 206.25 506.39 197.67 508.78C160.33 519.17 130.22 511.62 123.77 509.8C100.59 503.28 82.9199 491.79 70.6199 481.5C69.6099 484.61 66.0199 494.33 56.4499 499.08C41.6399 506.43 25.7899 495.32 23.1999 493.51C23.1999 493.51 13.7299 486.76 8.63995 475.36C3.03995 462.81 17.4399 436.3 34.1599 416.87C52.4099 395.68 69.6299 391.18 96.6199 376.67C168.47 338.04 180.93 308.55 199.65 316.45V316.43Z" fill="#342F38" stroke="#180027" stroke-width="14.82" stroke-linejoin="round"/>
        <path d="M57.4699 447.42C32.6999 441.84 15.8899 426.64 15.2199 410.76C14.8599 402.2 18.9599 387.87 29.7099 385.62C37.4999 383.99 46.7099 389.13 52.0599 398.57C62.6999 382.61 78.8799 377.02 87.7999 382C97.3699 387.33 97.1299 403.74 95.1299 412.61C89.4799 437.57 59.9399 446.69 57.4599 447.41L57.4699 447.42Z" fill="#180027"/>
        <path d="M295.84 335.93C312.425 335.93 325.87 319.57 325.87 299.39C325.87 279.209 312.425 262.85 295.84 262.85C279.255 262.85 265.81 279.209 265.81 299.39C265.81 319.57 279.255 335.93 295.84 335.93Z" fill="#180027"/>
        </g>
        <defs>
        <clipPath id="clip0_297_190">
        <rect width="1160.06" height="1218.99" fill="white"/>
        </clipPath>
        </defs>
    </symbol>
    
    <symbol id="poodle" viewBox="0 0 1058 1019">
        <g clip-path="url(#clip0_304_283)">
        <path d="M846.96 894.87C828.53 906.64 798.93 916.97 772.46 922.02C749.5 926.4 729.31 927.03 714.57 926.7C697.49 924.39 680.4 922.08 663.32 919.77C652.12 904.15 652.71 884.32 663.32 872.59C673.42 861.42 688.68 861.91 691.12 862.03C750.9 879.03 784.23 868.21 802.97 856.93C877.81 811.88 893.88 712.77 905.33 715.99C917.74 719.49 918.17 849.42 846.96 894.87Z" fill="white" stroke="#180027" stroke-width="16.94" stroke-linejoin="round"/>
        <path d="M835.36 782.53C825.23 769.39 830.87 738.17 859.36 721.49C852.58 719.17 838.86 713.25 833.37 700.23C824.05 678.11 844.01 648.49 867.97 638.01C886.95 629.71 905.33 634.77 911.65 636.84C920.87 595.94 958.85 577.79 980.93 586.88C999.19 594.4 1011.84 622.71 1004.15 653.27C1023.96 648.02 1042.76 657.79 1047.72 671.4C1053.59 687.53 1040.95 711.64 1015.89 715.91C1035.03 730.24 1041.54 754.44 1033.5 771.83C1023.3 793.89 989.85 804.59 963.07 787.09C962.2 806.89 945.63 821.9 927.72 821.34C908.32 820.73 892 802 894.98 780.66C871.82 797.5 844.65 794.56 835.37 782.53H835.36Z" fill="#CBC5F2" stroke="#180027" stroke-width="16.94" stroke-linejoin="round"/>
        <path d="M435.62 965.43C434.45 970.32 431.57 979.23 424.01 987.41C410.15 1002.4 391.41 1003.23 387.45 1003.32C372.6 1008.7 330.83 1003.32 278.04 1003.32C239.19 1003.32 207.75 971.89 207.75 933.18C207.75 894.47 239.18 862.89 278.04 862.89C279.2 862.89 280.37 862.89 281.39 863.04C296.66 861.46 311.92 859.88 327.19 858.29C318.67 838.82 282.03 749.36 321.69 652.4C341.61 603.71 372.92 572.33 392.69 555.6C407 692.21 421.31 828.82 435.62 965.43Z" fill="#180027"/>
        <path d="M303.23 920.729C300.13 920.119 274.58 915.519 253.88 933.539C238.35 947.069 231.36 968.27 235.47 988.94" fill="#180027"/>
        <path d="M260.29 894.87C255.82 895 240 895.99 227.15 908.24C206.62 927.83 213.5 957.28 213.81 958.51" fill="#180027"/>
        <path d="M738.77 946.61C635.25 1035.17 441.19 1017.37 347.52 919.76C322.62 893.81 308.71 863.75 280.91 803.64C248.63 733.87 224.28 679.38 235.04 612.48C237.94 594.44 244.4 554.31 274.68 519.18C328.82 456.37 436.12 435.89 505.13 473.63C582.93 516.16 547.96 591.58 641.96 686.1C719.1 763.67 790.17 760.67 801.4 819.92C813.09 881.58 746.55 939.95 738.76 946.62L738.77 946.61Z" fill="white" stroke="#180027" stroke-width="16.94" stroke-miterlimit="10"/>
        <path d="M787.58 933.61C769.69 967.16 742.11 986.89 739.18 988.94C722.3 1000.75 706.18 1006.91 695.02 1010.24H540.19C501.43 1009.96 469.95 978.12 469.9 940.1C469.85 895.54 513 869.81 540.19 869.81C541.35 869.81 542.52 869.81 543.54 869.96C564.18 869.88 584.82 869.81 605.46 869.73C587.4 818.37 613.51 761.21 663.99 741.24C714.68 721.19 773.06 745.35 794.81 795.51C798.88 807.42 820 872.82 787.58 933.61Z" fill="#FFFEFB" stroke="#180027" stroke-width="16.94" stroke-miterlimit="10"/>
        <path d="M565.37 927.65C562.27 927.04 536.72 922.44 516.02 940.46C500.49 953.99 493.5 975.19 497.61 995.86" fill="#FFFEFB"/>
        <path d="M565.37 927.65C562.27 927.04 536.72 922.44 516.02 940.46C500.49 953.99 493.5 975.19 497.61 995.86" stroke="#180027" stroke-width="16.94" stroke-miterlimit="10"/>
        <path d="M522.43 901.79C517.96 901.92 502.14 902.91 489.29 915.16C468.76 934.75 475.64 964.2 475.95 965.43" fill="#FFFEFB"/>
        <path d="M522.43 901.79C517.96 901.92 502.14 902.91 489.29 915.16C468.76 934.75 475.64 964.2 475.95 965.43" stroke="#180027" stroke-width="16.94" stroke-miterlimit="10"/>
        <path d="M432.18 598.78C449.57 658.81 444.77 705.41 450.73 780.66C452.81 806.85 454.6 832.73 456.14 858.3C440.87 859.88 425.61 861.46 410.34 863.04C409.32 862.89 408.16 862.89 406.99 862.89C368.14 862.89 336.7 894.32 336.7 933.18C336.7 972.04 368.13 1003.32 406.99 1003.32C459.78 1003.32 501.55 1008.7 516.4 1003.32C520.35 1003.23 539.1 1002.41 552.96 987.41C560.52 979.23 563.4 970.32 564.57 965.43C564.05 879.78 558.81 789.1 547.08 694.17C544.77 675.48 542.26 657.05 539.56 638.86C538.42 623.61 539.99 611.24 542 602.02" fill="#FFFEFB"/>
        <path d="M432.18 598.78C449.57 658.81 444.77 705.41 450.73 780.66C452.81 806.85 454.6 832.73 456.14 858.3C440.87 859.88 425.61 861.46 410.34 863.04C409.32 862.89 408.16 862.89 406.99 862.89C368.14 862.89 336.7 894.32 336.7 933.18C336.7 972.04 368.13 1003.32 406.99 1003.32C459.78 1003.32 501.55 1008.7 516.4 1003.32C520.35 1003.23 539.1 1002.41 552.96 987.41C560.52 979.23 563.4 970.32 564.57 965.43C564.05 879.78 558.81 789.1 547.08 694.17C544.77 675.48 542.26 657.05 539.56 638.86C538.42 623.61 539.99 611.24 542 602.02" stroke="#180027" stroke-width="16.94" stroke-miterlimit="10"/>
        <path d="M432.18 920.729C429.08 920.119 403.53 915.519 382.83 933.539C367.3 947.069 360.31 968.27 364.42 988.94" fill="#FFFEFB"/>
        <path d="M432.18 920.729C429.08 920.119 403.53 915.519 382.83 933.539C367.3 947.069 360.31 968.27 364.42 988.94" stroke="#180027" stroke-width="16.94" stroke-miterlimit="10"/>
        <path d="M389.23 894.87C384.76 895 368.94 895.99 356.09 908.24C335.56 927.83 342.44 957.28 342.75 958.51" fill="#FFFEFB"/>
        <path d="M389.23 894.87C384.76 895 368.94 895.99 356.09 908.24C335.56 927.83 342.44 957.28 342.75 958.51" stroke="#180027" stroke-width="16.94" stroke-miterlimit="10"/>
        <path d="M383.42 707.48C373.29 694.34 378.93 663.12 407.42 646.44C400.64 644.12 386.92 638.2 381.43 625.18C372.11 603.06 392.07 573.44 416.03 562.96C435.01 554.66 453.39 559.72 459.71 561.79C468.93 520.89 506.91 502.74 528.99 511.83C547.25 519.35 559.9 547.66 552.21 578.22C572.02 572.97 590.82 582.74 595.78 596.35C601.65 612.48 589.01 636.59 563.95 640.86C583.09 655.19 589.6 679.39 581.56 696.78C571.36 718.84 537.91 729.54 511.13 712.04C510.26 731.84 493.69 746.85 475.78 746.29C456.38 745.68 440.06 726.95 443.04 705.61C419.88 722.45 392.71 719.51 383.43 707.48H383.42Z" fill="#CBC5F2" stroke="#180027" stroke-width="16.94" stroke-linejoin="round"/>
        <path d="M82.5001 280.93C80.1401 260.76 99.2601 238.19 125.76 239.11C121.58 231.51 115.92 219.87 111.57 204.96C108 192.73 82.6001 105.64 134.86 61.5602C167.72 33.8502 219.63 32.9702 255.24 53.0602C317.43 88.1402 312.32 177.19 311.22 196.35C309.52 225.92 301.19 249.52 294.47 264.66C313.94 271.07 324.37 289.51 321.1 303.62C317.22 320.35 293.48 333.65 270.15 323.57C278.37 346.02 270.63 369.85 254.41 380.04C233.83 392.97 199.96 383.69 187.05 354.41C175.52 370.53 153.45 374.07 138.74 363.84C122.81 352.75 119.34 328.15 133.49 311.88C108.12 318.3 84.8401 300.87 82.5101 280.93H82.5001Z" fill="#CBC5F2" stroke="#180027" stroke-width="16.94" stroke-linejoin="round"/>
        <path d="M540.89 370.41C528.97 404.81 517.05 439.22 505.14 473.62C479.96 490.69 430.26 519.12 362.19 524.92C327.1 527.91 297.05 524.04 274.69 519.18C252.38 495.36 230.07 471.54 207.76 447.72C318.8 421.95 429.85 396.18 540.89 370.42V370.41Z" fill="#3CE8A5" stroke="#180027" stroke-width="16.94" stroke-miterlimit="10"/>
        <path d="M575.25 247.01C575.25 116.15 467.57 8.47021 336.71 8.47021C259.72 8.47021 187.23 48.3602 145.4 105.22C99.3499 167.82 98.1899 239.02 98.1599 247.01C71.2399 273.93 53.2899 291.88 49.7299 309.32C48.5499 315.08 46.3399 333.55 70.7199 360.68C133.74 449.39 235.83 497.66 336.71 485.55C446.83 472.33 575.25 384.82 575.25 247.01Z" fill="#FFFEFB" stroke="#180027" stroke-width="16.94" stroke-miterlimit="10"/>
        <path d="M250.89 222.29C267.044 222.29 280.14 206.356 280.14 186.7C280.14 167.045 267.044 151.11 250.89 151.11C234.736 151.11 221.64 167.045 221.64 186.7C221.64 206.356 234.736 222.29 250.89 222.29Z" fill="#180027"/>
        <path d="M55.8901 212.47C67.9134 212.47 77.6601 196.536 77.6601 176.88C77.6601 157.224 67.9134 141.29 55.8901 141.29C43.8669 141.29 34.1201 157.224 34.1201 176.88C34.1201 196.536 43.8669 212.47 55.8901 212.47Z" fill="#180027"/>
        <path d="M57.5601 394.59C57.5601 394.59 75.7301 417.16 124.91 395.99C174.08 374.83 98.7201 357.63 98.7201 357.63C98.7201 357.63 54.0901 362.76 57.5701 394.58L57.5601 394.59Z" fill="#CBC5F2" stroke="#180027" stroke-width="15.26" stroke-miterlimit="10"/>
        <path d="M135.4 263.71C141.87 265.58 161.91 271.8 197.96 296.08C227.13 315.72 241.71 325.54 243.76 336.69C247.9 359.26 223.98 383.39 203.49 393.81C174.89 408.36 145.52 399.96 127.42 394.86C103.56 388.14 85.37 376.31 72.7 365.73C71.66 368.94 67.97 378.94 58.11 383.83C42.86 391.4 26.54 379.96 23.88 378.09C23.88 378.09 14.13 371.15 8.89003 359.4C3.13003 346.48 17.94 319.19 35.17 299.19C48.62 283.57 68.56 260.41 99.47 257.8C111.53 256.78 120.25 259.31 135.4 263.7V263.71Z" fill="#CBC5F2" stroke="#180027" stroke-width="15.26" stroke-linejoin="round"/>
        <path d="M59.1599 330.66C33.6599 324.91 16.3499 309.27 15.6699 292.92C15.2999 284.11 19.5199 269.36 30.5899 267.04C38.6099 265.36 48.0899 270.66 53.5999 280.37C64.5599 263.94 81.2099 258.19 90.3999 263.31C100.25 268.8 100.01 285.69 97.9399 294.83C92.1299 320.53 61.7099 329.91 59.1599 330.66Z" fill="#180027"/>
        <path d="M435.87 350.55C426.77 332.39 437.05 304.65 462.27 296.48C455.75 290.76 446.45 281.75 437.28 269.22C429.76 258.94 376.17 185.74 410.26 126.48C431.69 89.2202 480.19 70.6902 520.52 77.4202C590.94 89.1802 616.52 174.64 622.02 193.02C630.51 221.4 630.73 246.42 629.57 262.95C650.05 262.34 666.15 276.11 667.89 290.49C669.95 307.54 652.17 328.14 626.8 326.63C642.19 344.93 643.04 369.97 631.27 385.09C616.33 404.26 581.33 407.1 559.21 383.98C553.87 403.07 534.33 413.93 517.02 409.32C498.27 404.33 486.61 382.38 494.36 362.27C472.7 376.96 444.87 368.51 435.88 350.57L435.87 350.55Z" fill="#CBC5F2" stroke="#180027" stroke-width="16.94" stroke-linejoin="round"/>
        </g>
        <defs>
        <clipPath id="clip0_304_283">
        <rect width="1057.6" height="1018.71" fill="white"/>
        </clipPath>
        </defs>
    </symbol>

    
</svg>
