 <svg xmlns="http://www.w3.org/2000/svg" xmlns:xlink="http://www.w3.org/1999/xlink" style="display: none;">
    <symbol id="pitbull" viewBox="0 0 932 1117">
        <g id="perro" clip-path="url(#clip0_299_221)">
            <g id="tail">
                <!-- Paths de la cola -->
                <animate attributeName="transform" 
                    attributeType="XML" 
                    type="rotate" 
                    from="0 730 970" 
                    to="15 730 970" 
                    dur="2s" 
                    repeatCount="indefinite" 
                    additive="sum" />
                <path id="Vector" d="M858.45 993.07C840.02 1004.84 810.42 1015.17 783.95 1020.22C760.99 1024.6 740.8 1025.23 726.06 1024.9C708.98 1022.59 691.89 1020.28 674.81 1017.97C663.61 1002.35 664.2 982.52 674.81 970.79C684.91 959.62 700.17 960.11 702.61 960.23C762.39 977.23 795.72 966.41 814.46 955.13C889.3 910.08 905.37 810.97 916.82 814.19C929.23 817.69 929.66 947.62 858.45 993.07Z" fill="white" stroke="#180027" stroke-width="16.94" stroke-linejoin="round"/>
                <path id="Vector_2" d="M840.39 946.12C842.73 944.73 846.36 942.91 851.08 941.85C854.04 941.18 861.84 939.54 870.46 942.89C874.44 944.43 881.66 947.24 883.38 953.04C885.54 960.31 877.84 968.24 870 976.12C856.08 990.1 841.94 996.86 838.39 998.5C819.08 1007.42 796.78 1011.73 794.88 1007.49C793.33 1004.03 807.08 998.6 808.39 986.73C809.27 978.69 804.02 971.53 799.81 966.99C813.34 960.03 826.86 953.08 840.39 946.12Z" fill="#CBC5F2"/>
            </g>
            <g id="body">
                <g id="back-pat2">
                <path id="Vector_3" d="M447.11 1063.63C445.94 1068.52 443.06 1077.43 435.5 1085.61C421.64 1100.6 402.9 1101.43 398.94 1101.52C384.09 1106.9 342.32 1101.52 289.53 1101.52C250.68 1101.52 219.24 1070.09 219.24 1031.38C219.24 992.67 250.67 961.09 289.53 961.09C290.69 961.09 291.86 961.09 292.88 961.24C308.15 959.66 323.41 958.08 338.68 956.49C330.16 937.02 293.52 847.56 333.18 750.6C353.1 701.91 384.41 670.53 404.18 653.8C418.49 790.41 432.8 927.02 447.11 1063.63Z" fill="#180027"/>
                <path id="Vector_4" d="M314.72 1018.93C311.62 1018.32 286.07 1013.72 265.37 1031.74C249.84 1045.27 242.85 1066.47 246.96 1087.14" fill="#180027"/>
                <path id="Vector_5" d="M271.77 993.07C267.3 993.2 251.48 994.19 238.63 1006.44C218.1 1026.03 224.98 1055.48 225.29 1056.71" fill="#180027"/>
                </g>
                <path id="Vector_6" d="M750.26 1044.81C646.74 1133.37 452.68 1115.57 359.01 1017.96C334.11 992.01 320.2 961.95 292.4 901.84C260.12 832.07 235.77 777.58 246.53 710.68C249.43 692.64 255.89 652.51 286.17 617.38C340.31 554.57 447.61 534.09 516.62 571.83C594.42 614.36 559.45 689.78 653.45 784.3C730.59 861.87 801.66 858.87 812.89 918.12C824.58 979.78 758.04 1038.15 750.25 1044.82L750.26 1044.81Z" fill="#FAFAFA" stroke="#180027" stroke-width="16.94" stroke-miterlimit="10"/>
                <g id="back-pat">
                <path id="Vector_7" d="M799.06 1031.81C781.17 1065.36 753.59 1085.09 750.66 1087.14C733.78 1098.95 717.66 1105.11 706.5 1108.44H551.67C512.91 1108.16 481.43 1076.32 481.38 1038.3C481.33 993.74 524.48 968.01 551.67 968.01C552.83 968.01 554 968.01 555.02 968.16C575.66 968.08 596.3 968.01 616.94 967.93C598.88 916.57 624.99 859.41 675.47 839.44C726.16 819.39 784.54 843.55 806.29 893.71C810.36 905.62 831.48 971.02 799.06 1031.81Z" fill="#CBC5F2" stroke="#180027" stroke-width="16.94" stroke-miterlimit="10"/>
                <g id="Vector_8">
                <path d="M576.86 1025.85C573.76 1025.24 548.21 1020.64 527.51 1038.66C511.98 1052.19 504.99 1073.39 509.1 1094.06" fill="#CBC5F2"/>
                <path d="M576.86 1025.85C573.76 1025.24 548.21 1020.64 527.51 1038.66C511.98 1052.19 504.99 1073.39 509.1 1094.06" stroke="#180027" stroke-width="16.94" stroke-miterlimit="10"/>
                </g>
                <g id="Vector_9">
                <path d="M533.91 999.99C529.44 1000.12 513.62 1001.11 500.77 1013.36C480.24 1032.95 487.12 1062.4 487.43 1063.63" fill="#CBC5F2"/>
                <path d="M533.91 999.99C529.44 1000.12 513.62 1001.11 500.77 1013.36C480.24 1032.95 487.12 1062.4 487.43 1063.63" stroke="#180027" stroke-width="16.94" stroke-miterlimit="10"/>
                </g>
                </g>
                <g id="pat">
                <path id="Vector_10" d="M357.75 607.58C358.83 619 391.86 614.71 418.83 643.81C422.19 647.43 432.8 659.5 443.66 696.98C461.05 757.01 456.25 803.61 462.21 878.86C464.29 905.05 466.08 930.93 467.62 956.5C452.35 958.08 437.09 959.66 421.82 961.24C420.8 961.09 419.64 961.09 418.47 961.09C379.62 961.09 348.18 992.52 348.18 1031.38C348.18 1070.24 379.61 1101.52 418.47 1101.52C471.26 1101.52 513.03 1106.9 527.88 1101.52C531.83 1101.43 550.58 1100.61 564.44 1085.61C572 1077.43 574.88 1068.52 576.05 1063.63C575.53 977.98 570.29 887.3 558.56 792.37C556.25 773.68 553.74 755.25 551.04 737.06C549.9 721.81 551.47 709.44 553.48 700.22C557.05 683.8 561.8 678.36 564.96 661.95C565.86 657.26 569.32 639.33 566.29 625.92C558.37 590.85 503.64 576.14 496.54 574.23C426.22 555.32 356.53 594.76 357.74 607.57L357.75 607.58Z" fill="#CBC5F2" stroke="#180027" stroke-width="16.94" stroke-miterlimit="10"/>
                <path id="u&#195;&#177;a (Stroke)" d="M389.309 1024.87C413.087 1004.64 441.812 1009.93 445.296 1010.62L442.025 1027.24C439.336 1026.71 417.387 1022.88 399.872 1038.13C386.717 1049.59 380.667 1067.68 384.208 1085.49L367.592 1088.79C362.913 1065.26 370.842 1040.95 388.746 1025.35L388.749 1025.35L389.309 1024.87Z" fill="#180027"/>
                <path id="u&#195;&#177;a (Stroke)_2" d="M400.966 1001.54C397.069 1001.65 383.938 1002.55 373.424 1012.57C365.154 1020.46 362.241 1030.46 361.538 1039.14C361.188 1043.46 361.402 1047.31 361.722 1050.14C362.043 1052.96 362.457 1054.65 362.453 1054.64L346.027 1058.78C345.737 1057.63 343.745 1048.98 344.653 1037.78C345.564 1026.53 349.476 1012.01 361.733 1000.31L361.736 1000.31L362.45 999.64C377.497 985.798 395.509 984.747 400.473 984.603L400.966 1001.54Z" fill="#180027"/>
                </g>
                <path id="Vector_11" d="M570.41 657.77C555.41 660.08 538.06 742.05 578.24 796.57C583.48 803.68 606.75 833.47 646.39 839.99C669.75 843.83 702.85 840.27 706.23 827.55C710.13 812.85 670.15 801.76 631.36 759.65C582.82 706.95 582.44 655.92 570.41 657.77Z" fill="#180027"/>
                </g>
            <g id="head">
                <path id="Vector_12" d="M265.52 72.31C339.96 17.38 344.63 5.68005 353.89 8.98004C387.88 21.09 394.27 203.33 315.6 234.41C284.27 246.79 236.19 236.49 215.58 203.85C195.45 171.98 208.85 130.44 224.03 107.92C232.14 95.89 239.02 91.86 265.53 72.3L265.52 72.31Z" fill="#CBC5F2" stroke="#180027" stroke-width="16.94" stroke-miterlimit="10"/>
                <path id="Vector_13" d="M552.38 468.61C540.46 503.01 528.54 537.42 516.63 571.82C491.45 588.89 441.75 617.32 373.68 623.12C338.59 626.11 308.54 622.24 286.18 617.38C263.87 593.56 241.56 569.74 219.25 545.92C330.29 520.15 441.34 494.38 552.38 468.62V468.61Z" fill="#FF3E68" stroke="#180027" stroke-width="16.94" stroke-miterlimit="10"/>
                <path id="Vector_14" d="M586.73 345.21C586.73 214.35 479.05 106.67 348.19 106.67C271.2 106.67 198.71 146.56 156.88 203.42C110.83 266.02 109.67 337.22 109.64 345.21C82.7199 372.13 64.7699 390.08 61.2099 407.52C60.0299 413.28 57.8199 431.75 82.1999 458.88C145.22 547.59 247.31 595.86 348.19 583.75C458.31 570.53 586.73 483.02 586.73 345.21Z" fill="#CBC5F2" stroke="#180027" stroke-width="16.94" stroke-miterlimit="10"/>
                <path id="Vector_15" d="M512.07 143.53C586.51 88.5998 591.18 76.8998 600.44 80.1998C634.43 92.3098 640.82 274.55 562.15 305.63C530.82 318.01 482.74 307.71 462.13 275.07C442 243.2 455.4 201.66 470.58 179.14C478.69 167.11 485.57 163.08 512.08 143.52L512.07 143.53Z" fill="#CBC5F2" stroke="#180027" stroke-width="16.94" stroke-miterlimit="10"/>
                <path id="Vector_16" d="M262.37 320.49C278.524 320.49 291.62 304.556 291.62 284.9C291.62 265.244 278.524 249.31 262.37 249.31C246.216 249.31 233.12 265.244 233.12 284.9C233.12 304.556 246.216 320.49 262.37 320.49Z" fill="#180027"/>
                <path id="Vector_17" d="M67.3801 310.67C79.4033 310.67 89.1501 294.736 89.1501 275.08C89.1501 255.424 79.4033 239.49 67.3801 239.49C55.3569 239.49 45.6101 255.424 45.6101 275.08C45.6101 294.736 55.3569 310.67 67.3801 310.67Z" fill="#180027"/>
                <path id="Vector_18" d="M168.62 195.97C189.86 169.52 200.35 166.47 206.01 168.58C224.6 175.51 156.9 275.54 192.02 364.64C209.21 408.24 240.18 424.26 233.12 438.46C226.77 451.23 192.37 456.75 62.4399 419.67C65.7699 409.24 72.5599 392.61 86.6199 376.1C97.7899 362.98 109.59 354.6 118.1 349.53C116.35 329.76 116.41 299.27 128 265.03C141.58 224.89 164.2 201.47 168.61 195.97H168.62Z" fill="#FFFEFB"/>
                <path id="Vector_19" d="M50.7401 397.06C48.1401 395.82 23.8501 383.78 22.5901 362.54C21.9501 351.74 27.1801 337.32 34.3601 336.92C41.4201 336.53 47.3201 349.84 47.8801 351.16C58.5501 336.72 73.9301 332.23 82.0501 337.28C90.7601 342.7 89.8001 358.03 87.5201 366.23C81.1101 389.31 53.0801 396.5 50.7301 397.07L50.7401 397.06Z" fill="#180027"/>
                <path id="Vector_20" d="M68.67 471.38C76.16 481.85 94.22 503.58 133.12 515.19C187.95 531.56 254.43 509.62 257.95 484.17C263.86 441.51 97.47 356.33 35.18 404.57C22.14 414.67 10.93 432.73 8.85 452.26C5.75 481.32 21.74 516.75 44.49 520.5C55.92 522.38 67.14 515.96 69.77 514.45C82.12 507.38 87.49 496.72 89.2 492.92" fill="#FAFAFA"/>
                <path id="Vector (Stroke)" d="M30.8397 397.229C48.7114 383.857 72.9055 380.3 97.7479 382.212C123.162 384.169 150.525 391.932 175.442 402.483C200.355 413.032 223.318 426.577 239.845 440.467C248.093 447.4 255.015 454.651 259.731 461.908C264.372 469.049 267.474 477.136 266.34 485.33L266.341 485.331C264.992 495.083 257.946 503.022 249.571 508.963C240.972 515.063 229.649 520.033 217.036 523.525C191.834 530.502 159.865 532.014 130.697 523.306V523.305C114.667 518.521 101.926 512.087 91.8572 505.336C88.1878 510.626 82.4943 516.922 73.9862 521.794L73.9871 521.795C71.5478 523.196 57.865 531.284 43.1151 528.858L43.1121 528.857C27.8216 526.336 16.3687 513.651 9.39436 499.647C2.27308 485.348 -1.30577 467.611 0.427559 451.362C2.76468 429.42 15.2278 409.311 29.994 397.874L30.8397 397.229ZM96.4471 399.102C73.1515 397.308 53.561 401.047 40.366 411.265L40.367 411.266C29.0534 420.029 19.0954 436.039 17.2723 453.157V453.159C15.9058 465.969 18.7724 480.477 24.5584 492.095C30.4915 504.008 38.4088 510.913 45.868 512.142H45.867C53.9759 513.475 62.7314 508.724 65.5526 507.104L65.5623 507.099L66.0301 506.827C72.0414 503.269 75.9832 498.663 78.449 494.929C71.0816 488.322 65.987 482.065 62.5838 477.417L61.7811 476.308L61.5369 475.947C59.1176 472.175 60.0563 467.127 63.742 464.491C67.4278 461.854 72.5085 462.596 75.2967 466.104L75.5584 466.452L76.2235 467.371C79.6874 472.108 85.3792 479.063 94.326 486.178C94.4151 486.246 94.5028 486.315 94.5887 486.385C103.851 493.703 116.564 501.171 133.844 506.555L135.543 507.074L136.748 507.426C162.1 514.695 190.245 513.365 212.516 507.2C223.817 504.071 233.201 499.807 239.77 495.147C246.563 490.328 249.149 485.982 249.56 483.009V483.007L249.589 482.772C249.849 480.292 248.986 476.46 245.527 471.138C242.032 465.76 236.438 459.733 228.945 453.435C213.989 440.864 192.57 428.13 168.838 418.082C145.11 408.035 119.565 400.882 96.4471 399.102Z" fill="#180027"/>
            </g>
            </g>
            <defs>
            <clipPath id="clip0_299_221">
            <rect width="931.61" height="1116.91" fill="white"/>
            </clipPath>
            </defs>

    </symbol>

    <symbol id="dachshund" viewBox="0 0 1271 1117" >
        <g id="perro">
            <path id="tail" d="M1123.13 952.78C1105.14 964.26 1076.26 974.35 1050.42 979.27C1028.01 983.54 1008.3 984.16 993.92 983.83C977.25 981.58 960.58 979.32 943.9 977.07C932.97 961.83 933.55 942.48 943.9 931.02C953.76 920.12 968.65 920.6 971.03 920.71C1029.38 937.3 1061.9 926.74 1080.19 915.73C1153.23 871.76 1168.92 775.03 1180.08 778.18C1192.19 781.6 1192.62 908.4 1123.12 952.76L1123.13 952.78Z" fill="#6D1B34" stroke="#180027" stroke-width="16.53" stroke-miterlimit="10"/>
            <g id="body">
                <path id="Vector" d="M855.89 906.96C858.18 905.6 861.72 903.83 866.32 902.79C869.21 902.14 876.82 900.54 885.24 903.8C889.12 905.31 896.17 908.04 897.85 913.71C899.95 920.81 892.44 928.54 884.79 936.23C871.21 949.87 857.4 956.47 853.94 958.08C835.09 966.79 813.33 970.99 811.48 966.85C809.96 963.47 823.39 958.18 824.66 946.59C825.52 938.74 820.4 931.75 816.28 927.32C829.48 920.53 842.68 913.74 855.89 906.95V906.96Z" fill="#CBC5F2"/>
                <g id="Group">
                <path id="Vector_2" d="M472.06 1021.65C470.92 1026.42 468.11 1035.12 460.73 1043.11C447.21 1057.74 428.91 1058.55 425.05 1058.63C410.56 1063.88 369.79 1058.63 318.27 1058.63C280.35 1058.63 249.67 1027.95 249.67 990.17C249.67 952.39 280.35 921.57 318.27 921.57C319.41 921.57 320.54 921.57 321.54 921.71C336.44 920.17 351.34 918.62 366.24 917.08C350.93 839.11 335.62 761.14 320.32 683.17C356.94 662.67 393.55 642.16 430.17 621.66C438.26 685.45 445.83 750.53 452.81 816.84C460.12 886.32 466.51 954.61 472.07 1021.64L472.06 1021.65Z" fill="#180027"/>
                <path id="Vector_3" d="M342.85 978.02C339.83 977.42 314.89 972.93 294.69 990.52C279.53 1003.72 272.71 1024.41 276.72 1044.59" fill="#180027"/>
                <path id="Vector_4" d="M300.94 952.78C296.57 952.9 281.14 953.87 268.6 965.83C248.57 984.94 255.28 1013.69 255.58 1014.89" fill="#180027"/>
                </g>
                <path id="Vector_5" d="M1024.51 935.14C996.75 968.86 946.4 963.51 770.1 935.14C466.15 886.23 401.56 867.67 360.87 808.23C347.86 789.22 324.45 747.28 313.91 691.8C305.77 648.95 299.23 614.52 314.99 586.12C347.85 526.91 461.35 523.27 539.9 541.66C636.18 564.21 633.52 609 755.13 671.85C900.81 747.15 979.27 721.46 1022.35 795.96C1046.68 838.04 1053.03 900.5 1024.51 935.14Z" fill="#F96D5F" stroke="#180027" stroke-width="16.53" stroke-miterlimit="10"/>
                <g id="Group_2">
                <path id="Vector_6" d="M1065.17 990.59C1047.71 1023.33 1020.8 1042.59 1017.93 1044.59C1001.46 1056.12 985.72 1062.13 974.83 1065.38H823.73C785.91 1065.1 755.18 1034.04 755.13 996.92C755.08 953.43 797.19 928.32 823.73 928.32C824.87 928.32 826 928.32 827 928.46C847.14 928.38 867.29 928.31 887.43 928.23C869.81 878.1 895.29 822.31 944.55 802.83C994.02 783.27 1051 806.84 1072.23 855.79C1076.2 867.42 1096.82 931.24 1065.18 990.57L1065.17 990.59Z" fill="#F96D5F" stroke="#180027" stroke-width="16.53" stroke-miterlimit="10" stroke-linecap="round"/>
                <path id="Vector_7" d="M848.31 984.77C845.29 984.17 820.35 979.68 800.15 997.27C784.99 1010.47 778.17 1031.16 782.18 1051.34" fill="#F96D5F"/>
                <path id="Vector (Stroke)" d="M795.27 990.566C817.011 972.067 842.994 975.434 848.99 976.489L849.92 976.664L850.335 976.757C854.576 977.825 857.278 982.043 856.417 986.381C855.555 990.718 851.445 993.583 847.119 992.949L846.7 992.877L845.997 992.747C841.436 991.965 821.601 989.55 805.578 1003.5V1003.5C792.737 1014.68 786.832 1032.34 790.287 1049.73C791.176 1054.21 788.268 1058.56 783.792 1059.45C779.314 1060.34 774.963 1057.43 774.074 1052.95C769.509 1029.98 777.243 1006.26 794.722 991.037L795.27 990.566Z" fill="#180027"/>
                <path id="Vector_8" d="M806.4 959.53C802.03 959.65 786.6 960.62 774.06 972.58C754.03 991.69 760.74 1020.44 761.04 1021.64" fill="#F96D5F"/>
                <path id="Vector (Stroke)_2" d="M806.598 951.268C810.97 951.369 814.54 954.883 814.662 959.304C814.783 963.724 811.411 967.428 807.052 967.77L806.627 967.792C802.833 967.896 790.025 968.775 779.764 978.562C771.695 986.261 768.852 996.018 768.165 1004.49C767.823 1008.71 768.031 1012.47 768.343 1015.23C768.578 1017.3 768.865 1018.75 768.992 1019.34L769.058 1019.64L769.151 1020.05C769.995 1024.34 767.335 1028.59 763.044 1029.66C758.754 1030.73 754.409 1028.24 753.135 1024.05L753.022 1023.64L752.848 1022.89C752.303 1020.39 750.912 1012.72 751.688 1003.16C752.578 992.182 756.396 978.011 768.355 966.601L768.356 966.6L769.052 965.946C783.735 952.433 801.303 951.402 806.173 951.269L806.598 951.268Z" fill="#180027"/>
                </g>
                <g id="Group_3">
                <g id="Group_4">
                <path id="Vector_9" d="M468.7 663.81C485.67 722.39 480.98 767.88 486.81 841.31C488.84 866.87 490.59 892.13 492.09 917.08C477.19 918.62 462.29 920.17 447.39 921.71C446.4 921.57 445.26 921.57 444.12 921.57C406.2 921.57 375.52 952.25 375.52 990.17C375.52 1028.09 406.2 1058.62 444.12 1058.62C495.64 1058.62 536.41 1063.87 550.9 1058.62C554.76 1058.54 573.05 1057.73 586.58 1043.1C593.96 1035.11 596.77 1026.42 597.91 1021.64C595.72 960.36 591.71 913.54 588.26 881.01C585.92 858.95 582.11 827.07 584.67 783.6C585.83 763.81 587.98 747.5 589.7 736.35" fill="#F96D5F"/>
                <path id="Vector_10" d="M468.7 663.81C485.67 722.39 480.98 767.88 486.81 841.31C488.84 866.87 490.59 892.13 492.09 917.08C477.19 918.62 462.29 920.17 447.39 921.71C446.4 921.57 445.26 921.57 444.12 921.57C406.2 921.57 375.52 952.25 375.52 990.17C375.52 1028.09 406.2 1058.62 444.12 1058.62C495.64 1058.62 536.41 1063.87 550.9 1058.62C554.76 1058.54 573.05 1057.73 586.58 1043.1C593.96 1035.11 596.77 1026.42 597.91 1021.64C595.72 960.36 591.71 913.54 588.26 881.01C585.92 858.95 582.11 827.07 584.67 783.6C585.83 763.81 587.98 747.5 589.7 736.35" stroke="#180027" fill="#F96D5F" stroke-width="16.53" stroke-miterlimit="10"/>
                </g>
                <path id="Vector_11" d="M468.7 978.02C465.68 977.42 440.74 972.93 420.54 990.52C405.38 1003.72 398.56 1024.41 402.57 1044.59" fill="#F96D5F"/>
                <path id="Vector (Stroke)_3" d="M415.66 983.816C437.401 965.317 463.384 968.684 469.379 969.739L470.31 969.914L470.725 970.007C474.965 971.075 477.668 975.293 476.806 979.631C475.944 983.968 471.835 986.833 467.508 986.199L467.089 986.127L466.386 985.997C461.825 985.215 441.991 982.8 425.967 996.753V996.754C413.127 1007.93 407.221 1025.59 410.676 1042.98C411.566 1047.46 408.658 1051.81 404.181 1052.7C399.704 1053.59 395.353 1050.68 394.463 1046.2C389.898 1023.23 397.633 999.507 415.112 984.287L415.66 983.816Z" fill="#180027"/>
                <path id="Vector_12" d="M426.78 952.78C422.41 952.9 406.98 953.87 394.44 965.83C374.41 984.94 381.12 1013.69 381.42 1014.89" fill="#F96D5F"/>
                <path id="Vector (Stroke)_4" d="M426.978 944.518C431.35 944.619 434.92 948.133 435.042 952.554C435.163 956.974 431.791 960.679 427.431 961.02L427.006 961.042C423.213 961.146 410.405 962.025 400.144 971.812C392.075 979.511 389.232 989.268 388.544 997.744C388.202 1001.96 388.411 1005.72 388.723 1008.48C388.958 1010.55 389.245 1012 389.372 1012.59L389.438 1012.89L389.531 1013.3C390.375 1017.59 387.714 1021.84 383.424 1022.91C379.134 1023.98 374.789 1021.49 373.515 1017.3L373.402 1016.89L373.228 1016.14C372.683 1013.64 371.292 1005.97 372.068 996.408C372.958 985.432 376.775 971.261 388.735 959.851L388.736 959.85L389.432 959.196C404.115 945.683 421.683 944.652 426.553 944.519L426.978 944.518Z" fill="#180027"/>
                </g>
                <path id="Vector_13" d="M316.29 588.66C329.91 592.86 348.81 597.15 371.59 597.82C392.71 598.44 410.58 595.75 423.87 592.74C433.15 600.65 445.94 613.26 456.84 631.42C476.56 664.27 478.39 695.74 479.92 728.81C482.56 785.74 484.74 834.16 486.71 884.05C468.75 878.66 381.54 850.55 337.14 765.29C308.39 710.1 309.07 653 310.13 632.87C311.09 614.7 313.81 599.57 316.28 588.67L316.29 588.66Z" fill="#F4AAA6" stroke="#180027" stroke-width="16.53" stroke-miterlimit="10"/>
            </g>
            <g id="head">
                <path id="Vector_14" d="M253.6 66.98C280.3 47.78 322.4 45.85 350.37 62.98C400.29 93.54 391.63 176.48 377.78 309.9C374.44 342.05 369.33 372.35 345.99 387.52C326.56 400.14 297.83 400.13 276.44 389.68C202.71 353.66 199.8 211.75 218.84 130.11C225.65 100.89 234.96 80.39 253.6 66.99V66.98Z" fill="#6D1B34" stroke="#180027" stroke-width="16.53" stroke-miterlimit="10"/>
                <path id="Vector_15" d="M574.8 440.92C563.17 474.5 551.54 508.07 539.91 541.65C515.33 558.31 466.83 586.05 400.4 591.71C366.15 594.63 336.82 590.85 315 586.11C293.23 562.86 271.45 539.61 249.68 516.36C358.05 491.21 466.43 466.06 574.8 440.91V440.92Z" fill="#CBC5F2" stroke="#180027" stroke-width="16.53" stroke-miterlimit="10"/>
                <path id="Vector_16" d="M608.33 320.49C608.33 192.78 503.24 87.6802 375.52 87.6802C300.38 87.6802 229.63 126.61 188.81 182.11C143.87 243.21 142.74 312.7 142.71 320.49C142.71 448.21 247.8 553.3 375.52 553.3C503.28 553.3 608.33 448.13 608.33 320.49Z" fill="#F96D5F" stroke="#180027" stroke-width="16.53" stroke-miterlimit="10"/>
                <path id="Vector_17" d="M314.92 296.36C330.688 296.36 343.47 280.811 343.47 261.63C343.47 242.449 330.688 226.9 314.92 226.9C299.152 226.9 286.37 242.449 286.37 261.63C286.37 280.811 299.152 296.36 314.92 296.36Z" fill="#180027"/>
                <path id="Vector_18" d="M105.82 302.59C117.556 302.59 127.07 287.041 127.07 267.86C127.07 248.679 117.556 233.13 105.82 233.13C94.0838 233.13 84.5698 248.679 84.5698 267.86C84.5698 287.041 94.0838 302.59 105.82 302.59Z" fill="#180027"/>
                <path id="Vector_19" d="M510.15 135.25C536.85 116.05 578.95 114.12 606.92 131.25C656.84 161.81 648.18 244.75 634.33 378.17C630.99 410.32 625.88 440.62 602.54 455.79C583.11 468.41 554.38 468.4 532.99 457.95C459.26 421.93 456.35 280.02 475.39 198.38C482.2 169.16 491.51 148.66 510.15 135.26V135.25Z" fill="#6D1B34" stroke="#180027" stroke-width="16.53" stroke-miterlimit="10"/>
                <path id="Vector_20" d="M134.96 492.76C134.96 492.76 152.81 514.93 201.11 494.14C249.41 473.35 175.38 456.46 175.38 456.46C175.38 456.46 131.55 461.5 134.96 492.76Z" fill="#F4AAA6" stroke="#180027" stroke-width="16.53" stroke-miterlimit="10"/>
                <path id="Vector_21" d="M255.84 355.12C263.81 373.83 273.79 387.56 280.86 396.13C307.2 414.11 319.84 440.89 313.16 461.47C307.38 479.27 288.76 487.43 278.3 492.01C247.63 505.45 217.85 497.06 203.58 493.04C180.15 486.44 162.28 474.82 149.84 464.42C148.82 467.57 145.19 477.39 135.51 482.2C120.54 489.63 104.51 478.4 101.88 476.56C99.39 474.82 91.32 468.74 87.16 458.21C76.69 431.71 96.6 396.4 115.46 376.02C122.96 367.91 134.2 354.94 146 337.55C161.92 314.08 162.98 305.97 174.26 299.27C192.29 288.55 220.81 290.73 236.25 305.19C248.23 316.42 244.22 327.84 255.85 355.13L255.84 355.12Z" fill="#F4AAA6" stroke="#180027" stroke-width="16.53" stroke-miterlimit="10"/>
                <path id="Vector_22" d="M148.56 464.82C123.51 459.17 106.51 443.81 105.84 427.75C105.48 419.1 109.62 404.6 120.5 402.33C128.38 400.68 137.69 405.88 143.1 415.43C153.86 399.29 170.22 393.64 179.24 398.67C188.92 404.06 188.68 420.65 186.65 429.63C180.94 454.87 151.07 464.09 148.56 464.82Z" fill="#180027"/>
            </g>
        </g>                     
    </symbol>

    <symbol id="chihuahua" viewBox="0 0 848 921">
        <g id="perro">
            <path id="tail" d="M730.53 788.21C716.19 797.36 693.17 805.4 672.57 809.33C654.71 812.74 639 813.23 627.53 812.97C614.24 811.17 600.95 809.38 587.66 807.58C578.95 795.43 579.41 780 587.66 770.87C595.52 762.18 607.39 762.56 609.29 762.66C655.8 775.89 681.73 767.47 696.31 758.69C754.54 723.64 767.04 646.54 775.94 649.05C785.59 651.77 785.93 752.86 730.53 788.22V788.21Z" fill="#FFFEFB" stroke="#180027" stroke-width="13.18" stroke-linejoin="round"/>
            <g id="body">
                <g id="Group">
                <path id="Vector" d="M410.52 843.11C409.61 846.92 407.37 853.85 401.49 860.21C390.71 871.87 376.13 872.52 373.05 872.58C361.5 876.77 329 872.58 287.93 872.58C257.7 872.58 233.25 848.13 233.25 818.01C233.25 787.89 257.7 763.33 287.93 763.33C288.84 763.33 289.74 763.33 290.53 763.44C302.41 762.21 314.28 760.98 326.16 759.75C319.53 744.6 291.03 675 321.88 599.57C337.38 561.69 361.73 537.28 377.12 524.26C388.25 630.54 399.38 736.82 410.52 843.1V843.11Z" fill="#180027"/>
                <path id="Vector_2" d="M307.53 808.33C305.12 807.85 285.24 804.27 269.14 818.3C257.06 828.82 251.62 845.32 254.81 861.4" fill="#180027"/>
                <path id="Vector_3" d="M274.12 788.21C270.64 788.31 258.33 789.08 248.34 798.61C232.37 813.85 237.72 836.76 237.96 837.72" fill="#180027"/>
                </g>
                <path id="Vector_4" d="M646.36 828.46C564.2 899.7 407.19 884.7 341.98 807.57C318.29 779.55 304.12 740.27 296.68 719.67C285.49 688.66 276.62 663.17 280.71 629.93C282 619.43 285.62 589.97 305.74 564.62C341.62 519.42 415.31 505.75 465.68 528.53C514.76 550.73 500.48 588.89 559.63 641.39C625.31 699.67 683.41 688.56 695.08 729.89C707.59 774.22 651.26 824.2 646.35 828.46H646.36Z" fill="#FFFEFB" stroke="#180027" stroke-width="13.18" stroke-linejoin="round"/>
                <path id="Vector_5" d="M488.3 555.6C475.81 557.77 462.94 617.12 491.23 656.97C494.02 660.9 512.03 685.44 544.25 690.75C561.38 693.57 588.53 691.94 591.87 681.17C595.78 668.57 562.5 658.35 528.85 617.04C499.26 580.71 496.89 554.11 488.3 555.6Z" fill="#CE9463"/>
                <g id="Group_2">
                <path id="Vector_6" d="M684.33 818.35C670.41 844.45 648.96 859.8 646.68 861.4C633.55 870.59 621.01 875.38 612.32 877.97H491.87C461.72 877.75 437.22 852.99 437.19 823.4C437.15 788.73 470.72 768.72 491.87 768.72C492.78 768.72 493.68 768.72 494.47 768.83C510.53 768.77 526.58 768.71 542.64 768.65C528.59 728.69 548.9 684.22 588.17 668.69C627.61 653.09 673.03 671.88 689.95 710.91C693.11 720.18 709.55 771.05 684.33 818.35Z" fill="#FFFEFB" stroke="#180027" stroke-width="13.18" stroke-miterlimit="10"/>
                <g id="Vector_7">
                    <path d="M511.46 813.71C509.05 813.23 489.17 809.65 473.07 823.68C460.99 834.2 455.55 850.7 458.74 866.78" stroke="#180027" fill="#FFFEFB" stroke-width="13.18" stroke-miterlimit="10"/>
                </g>
                <g id="Vector_8">
                <path d="M478.05 793.59C474.57 793.69 462.26 794.46 452.27 803.99C436.3 819.23 441.65 842.14 441.89 843.1" fill="#FFFEFB"/>
                <path d="M478.05 793.59C474.57 793.69 462.26 794.46 452.27 803.99C436.3 819.23 441.65 842.14 441.89 843.1" stroke="#180027" stroke-width="13.18" stroke-miterlimit="10"/>
                </g>
                </g>
                <g id="Group_3">
                <g id="Group_4">
                <path id="Vector_9" d="M376.37 605.3C376.37 605.3 386.16 644.34 390.8 702.88C392.42 723.26 393.81 743.39 395.01 763.28C383.13 764.51 371.26 765.74 359.38 766.97C358.59 766.86 357.68 766.86 356.78 766.86C326.55 766.86 302.1 791.31 302.1 821.54C302.1 851.77 326.55 876.11 356.78 876.11C397.85 876.11 430.35 880.3 441.9 876.11C444.98 876.04 459.56 875.4 470.34 863.74C476.22 857.37 478.46 850.44 479.37 846.64C476.2 810.42 473.6 773.04 471.68 734.54C470.36 708.15 469.42 682.26 468.82 656.89" fill="#FFFEFB"/>
                <path id="Vector_10" d="M376.37 605.3C376.37 605.3 386.16 644.34 390.8 702.88C392.42 723.26 393.81 743.39 395.01 763.28C383.13 764.51 371.26 765.74 359.38 766.97C358.59 766.86 357.68 766.86 356.78 766.86C326.55 766.86 302.1 791.31 302.1 821.54C302.1 851.77 326.55 876.11 356.78 876.11C397.85 876.11 430.35 880.3 441.9 876.11C444.98 876.04 459.56 875.4 470.34 863.74C476.22 857.37 478.46 850.44 479.37 846.64C476.2 810.42 473.6 773.04 471.68 734.54C470.36 708.15 469.42 682.26 468.82 656.89" stroke="#180027" stroke-width="13.18" fill="#FFFEFB" stroke-linejoin="round"/>
                </g>
                <path id="Vector_11" d="M376.37 811.85C373.96 811.37 354.08 807.79 337.98 821.82C325.9 832.34 320.46 848.84 323.65 864.92" fill="#FFFEFB"/>
                <path id="Vector (Stroke)" d="M333.652 816.85C351.069 801.673 372.092 804.397 376.915 805.247L377.657 805.387L377.988 805.461C381.369 806.315 383.521 809.679 382.833 813.137C382.144 816.595 378.866 818.878 375.417 818.371L375.083 818.313L374.523 818.209C370.89 817.585 355.08 815.66 342.309 826.788L342.308 826.789C332.077 835.699 327.366 849.784 330.114 863.637C330.822 867.207 328.502 870.676 324.932 871.384C321.363 872.092 317.895 869.772 317.186 866.203C313.555 847.896 319.723 828.98 333.652 816.85Z" fill="#180027"/>
                <path id="Vector_12" d="M342.96 791.73C339.48 791.83 327.17 792.6 317.18 802.13C301.21 817.37 306.56 840.28 306.8 841.24" fill="#FFFEFB"/>
                <path id="Vector (Stroke)_2" d="M343.11 785.141C346.595 785.217 349.446 788.016 349.547 791.541C349.652 795.179 346.787 798.212 343.149 798.317L342.498 798.342C338.847 798.519 329.389 799.59 321.729 806.897L321.73 806.898C315.294 813.039 313.028 820.818 312.48 827.573C312.207 830.934 312.373 833.926 312.622 836.125C312.871 838.318 313.194 839.642 313.194 839.642C314.076 843.173 311.929 846.75 308.399 847.633C304.868 848.516 301.289 846.369 300.407 842.838C300.185 841.954 298.636 835.223 299.343 826.507C300.053 817.758 303.096 806.461 312.63 797.363L312.631 797.362C324.44 786.097 338.844 785.256 342.771 785.143L343.11 785.141Z" fill="#180027"/>
                </g>
            </g>
            <g id="head">
                <path id="Vector_13" d="M180.41 147.14C219.96 59.6401 218.26 46.6801 228.32 44.9701C265.24 38.7001 363.46 200.49 307.98 268.55C285.89 295.65 237.12 310.7 201.9 291.61C167.51 272.96 158.57 228.54 160.9 200.45C162.14 185.44 166.33 178.31 180.41 147.14Z" fill="#CE9463" stroke="#180027" stroke-width="17.58" stroke-miterlimit="10"/>
                <path id="Vector_14" d="M517.13 452.29C506.85 481.97 496.57 511.66 486.28 541.34C464.55 556.07 421.67 580.59 362.95 585.6C332.67 588.18 306.75 584.84 287.46 580.65C268.21 560.1 248.97 539.55 229.72 518.99C325.52 496.76 421.33 474.53 517.13 452.3V452.29Z" fill="#CBC5F2" stroke="#180027" stroke-width="14.61" stroke-miterlimit="10"/>
                <path id="Vector_15" d="M546.77 345.83C546.77 232.93 453.87 140.02 340.96 140.02C274.53 140.02 211.99 174.43 175.91 223.49C136.18 277.5 135.18 338.93 135.16 345.82C111.94 369.04 96.45 384.53 93.37 399.58C92.35 404.55 90.44 420.49 111.48 443.89C165.85 520.43 253.93 562.07 340.97 551.62C435.97 540.22 546.78 464.72 546.78 345.81L546.77 345.83Z" fill="#CE9463" stroke="#180027" stroke-width="14.61" stroke-miterlimit="10"/>
                <path id="Vector_16" d="M519.16 113.79C573.45 74.39 582.28 74.51 587.95 77.1C600.38 82.78 598.93 100.93 604.77 191.37C608.59 250.52 610.19 257.94 604.2 272.77C591.06 305.3 559.1 329.62 524.27 336.91C493.46 343.36 444.28 339.86 420.45 305.19C389.98 260.87 424.76 200.23 430.5 190.22C442.37 169.52 467.97 150.94 519.16 113.79Z" fill="#CE9463" stroke="#180027" stroke-width="17.58" stroke-miterlimit="10"/>
                <path id="Vector_17" d="M270.55 326.54C287.549 326.54 301.33 311.882 301.33 293.8C301.33 275.718 287.549 261.06 270.55 261.06C253.551 261.06 239.77 275.718 239.77 293.8C239.77 311.882 253.551 326.54 270.55 326.54Z" fill="#180027"/>
                <path id="Vector_18" d="M98.6901 316.03C111.144 316.03 121.24 302.281 121.24 285.32C121.24 268.36 111.144 254.61 98.6901 254.61C86.2361 254.61 76.1401 268.36 76.1401 285.32C76.1401 302.281 86.2361 316.03 98.6901 316.03Z" fill="#180027"/>
                <path id="Vector_19" d="M187.84 219.02C201.1 203.94 212.68 190.77 218.29 193.44C232.07 199.98 175.95 285.81 206.22 362.6C221.05 400.22 247.77 414.04 241.68 426.29C236.2 437.31 206.52 442.07 94.4302 410.08C97.3102 401.08 103.16 386.74 115.29 372.49C124.93 361.17 135.1 353.94 142.45 349.56C141.74 331.72 143.08 304.56 154.54 274.45C160.48 258.85 170.57 238.66 187.84 219.02Z" fill="#FFFEFB"/>
                <path id="Vector_20" d="M110.71 462.66C110.71 462.66 126.41 482.15 168.87 463.87C211.33 445.59 146.25 430.74 146.25 430.74C146.25 430.74 107.71 435.17 110.71 462.65V462.66Z" fill="#FFFEFB" stroke="#180027" stroke-width="13.18" stroke-miterlimit="10"/>
                <path id="Vector_21" d="M177.93 349.63C183.51 351.25 200.82 356.62 231.96 377.58C257.15 394.54 269.74 403.02 271.51 412.65C275.09 432.14 254.43 452.98 236.74 461.98C212.04 474.54 186.68 467.29 171.04 462.89C150.44 457.09 134.73 446.87 123.79 437.73C122.9 440.5 119.7 449.13 111.19 453.36C98.0201 459.89 83.9301 450.02 81.6301 448.4C81.6301 448.4 73.2101 442.4 68.6901 432.26C63.7101 421.1 76.5101 397.54 91.3801 380.26C103 366.77 120.21 346.77 146.91 344.52C157.32 343.64 164.86 345.82 177.94 349.62L177.93 349.63Z" fill="#FFFEFB" stroke="#180027" stroke-width="13.18" stroke-linejoin="round"/>
                <path id="Vector_22" d="M112.09 407.44C90.06 402.47 75.12 388.97 74.53 374.85C74.21 367.24 77.85 354.5 87.42 352.5C94.34 351.05 102.54 355.62 107.29 364.01C116.75 349.82 131.13 344.86 139.07 349.28C147.58 354.02 147.37 368.61 145.58 376.5C140.56 398.69 114.29 406.8 112.09 407.44Z" fill="#180027"/>
            </g>
        </g>
    </symbol>

    <symbol id="german_shepherd" viewBox="0 0 1161 1219">
        <g id="perro" clip-path="url(#clip0_297_190)">
            <path id="tail" d="M892.79 1160.01C889.75 1151.83 889.91 1141.5 881.76 1116.29C873.98 1092.22 864.74 1073.52 858.18 1061.52C854.81 1044.14 851.44 1026.77 848.08 1009.39C859.59 993.36 879.07 987.42 893.97 993.88C908.16 1000.03 912.69 1015.04 913.38 1017.45C920.08 1063.22 937.69 1088.09 952.71 1102.37C977.75 1126.19 1002.5 1127.16 1091.64 1161.34C1131.69 1176.7 1151.71 1184.46 1151.37 1188.41C1149.43 1210.87 916.25 1223.13 892.8 1160L892.79 1160.01Z" fill="#342F38" stroke="#180027" stroke-width="17.39" stroke-linejoin="round"/>
            <g id="body">
                <g id="Group">
                <path id="Vector" d="M470.96 1164.29C469.76 1169.31 466.8 1178.46 459.04 1186.86C444.81 1202.25 425.57 1203.1 421.51 1203.19C406.26 1208.72 363.38 1203.19 309.18 1203.19C269.29 1203.19 237.01 1170.92 237.01 1131.17C237.01 1091.42 269.28 1059 309.18 1059C310.37 1059 311.57 1059 312.62 1059.15C328.29 1057.53 343.97 1055.9 359.64 1054.28C355.69 998.29 348.92 953.03 343.28 921.35C333.82 868.17 326.66 848.2 335.03 822.31C348.96 779.25 394.21 755.84 426.88 743.5C441.57 883.76 456.26 1024.02 470.96 1164.29Z" fill="#180027"/>
                <path id="Vector_2" d="M335.03 1118.39C331.85 1117.76 305.62 1113.04 284.36 1131.54C268.41 1145.43 261.23 1167.19 265.45 1188.42" fill="#180027"/>
                <path id="Vector_3" d="M290.94 1091.84C286.35 1091.97 270.11 1092.99 256.92 1105.57C235.84 1125.68 242.91 1155.92 243.22 1157.18" fill="#180027"/>
                </g>
                <path id="Vector_4" d="M875.09 1144.96C768.8 1235.88 569.55 1217.61 473.39 1117.4C470.19 1114.06 448.68 1075.24 405 998.18C367.78 932.5 349.09 899.5 345.31 891.18C325.42 847.4 269.81 725.01 322.25 647.73C366.02 583.22 477.35 561.49 556.89 593.99C669.21 639.88 631.12 758.36 775.7 877.5C859.61 946.64 927.83 953.83 939.4 1014.89C951.4 1078.2 883.09 1138.13 875.09 1144.97V1144.96Z" fill="#E09A69" stroke="#180027" stroke-width="17.39" stroke-miterlimit="10"/>
                <path id="Vector_5" d="M556.91 604.37C535.93 606.41 531.52 631.03 503.18 662.59C459.85 710.85 412.75 717.21 415.85 728.37C418.74 738.74 462.38 743.96 499.21 726.67C540.05 707.49 544.49 673.45 566.12 674.5C595.39 675.93 615.31 739.65 623.96 767.31C645.71 836.87 642.69 896.64 651.18 896.97C658.96 897.27 663.55 848.67 675.37 848.58C682.96 848.53 683.66 867.9 698.47 890.08C725.36 930.36 771.43 938.82 776.21 939.73C798.58 943.99 828.29 942.35 831.54 931.84C835.4 919.36 798.45 905.76 755.09 867.52C702.14 820.83 673.26 767.07 665.49 751.89C639.11 700.34 641.16 673.35 606.04 637.06C576.35 606.38 563.42 603.73 556.9 604.36L556.91 604.37Z" fill="#342F38"/>
                <g id="Group_2">
                <path id="Vector_6" d="M925.2 1131.61C906.83 1166.06 878.52 1186.31 875.51 1188.42C858.18 1200.55 841.63 1206.87 830.17 1210.29H671.21C631.42 1210 599.09 1177.32 599.04 1138.27C598.99 1092.52 643.29 1066.11 671.21 1066.11C672.4 1066.11 673.6 1066.11 674.65 1066.26C695.84 1066.18 717.03 1066.1 738.23 1066.02C719.69 1013.29 746.5 954.6 798.32 934.1C850.37 913.52 910.31 938.31 932.64 989.82C936.82 1002.05 958.51 1069.2 925.22 1131.61H925.2Z" fill="#E09A69" stroke="#180027" stroke-width="17.39" stroke-miterlimit="10"/>
                <path id="Vector_7" d="M697.05 1125.49C693.87 1124.86 667.64 1120.14 646.38 1138.64C630.43 1152.53 623.25 1174.29 627.47 1195.52" fill="#E09A69"/>
                <path id="Vector (Stroke)" d="M641.248 1131.59C665.666 1110.82 695.151 1116.25 698.74 1116.96L695.36 1134.02C692.617 1133.48 670.081 1129.54 652.09 1145.2L652.091 1145.2C638.579 1156.96 632.363 1175.54 635.998 1193.82L618.942 1197.22C614.138 1173.04 622.282 1148.1 640.67 1132.08L640.672 1132.08L641.248 1131.59Z" fill="#180027"/>
                <path id="Vector_8" d="M652.96 1098.94C648.37 1099.07 632.13 1100.09 618.94 1112.67C597.86 1132.78 604.93 1163.02 605.24 1164.28" fill="#E09A69"/>
                <path id="Vector (Stroke)_2" d="M653.206 1107.63C649.214 1107.74 635.733 1108.67 624.941 1118.96C616.447 1127.07 613.458 1137.33 612.735 1146.25C612.376 1150.68 612.596 1154.63 612.925 1157.53C613.089 1158.98 613.277 1160.14 613.426 1160.95C613.573 1161.75 613.68 1162.19 613.683 1162.2L596.797 1166.36C596.519 1165.23 594.47 1156.35 595.402 1144.84C596.338 1133.29 600.353 1118.39 612.939 1106.38L613.672 1105.69C629.117 1091.48 647.607 1090.39 652.714 1090.25L653.206 1107.63Z" fill="#180027"/>
                </g>
                <g id="Group_3">
                <g id="Group_4">
                <g id="Vector_9">
                    <path d="M452 787.84C459.52 848.08 465.95 910.35 471.05 974.58C473.18 1001.47 475.03 1028.04 476.6 1054.29C460.93 1055.91 445.25 1057.54 429.58 1059.16C428.53 1059.01 427.34 1059.01 426.14 1059.01C386.25 1059.01 353.97 1091.28 353.97 1131.18C353.97 1171.08 386.24 1203.19 426.14 1203.19C480.34 1203.19 523.23 1208.72 538.47 1203.19C542.53 1203.1 561.78 1202.25 576 1186.86C583.76 1178.46 586.72 1169.31 587.92 1164.29C587.39 1076.35 582.01 983.24 569.96 885.78C567.59 866.59 565.01 847.67 562.24 828.99" stroke="#180027" stroke-width="17.39" stroke-miterlimit="10" fill="#E09A69"/>
                    </g>
                </g>
                <path id="Vector_10" d="M452 1118.39C448.82 1117.76 422.59 1113.04 401.33 1131.54C385.38 1145.43 378.2 1167.19 382.42 1188.42" fill="#E09A69"/>
                <path id="Vector (Stroke)_3" d="M396.198 1124.49C420.616 1103.72 450.101 1109.15 453.69 1109.86L450.31 1126.92C447.568 1126.38 425.03 1122.44 407.038 1138.1C393.528 1149.87 387.313 1168.44 390.948 1186.72L373.892 1190.12C369.088 1165.94 377.232 1141 395.62 1124.98L395.622 1124.98L396.198 1124.49Z" fill="#180027"/>
                <path id="Vector_11" d="M407.91 1091.84C403.32 1091.97 387.08 1092.99 373.89 1105.57C352.81 1125.68 359.88 1155.92 360.19 1157.18" fill="#E09A69"/>
                <path id="Vector (Stroke)_4" d="M408.156 1100.53C404.164 1100.64 390.683 1101.57 379.891 1111.86C371.398 1119.97 368.408 1130.23 367.686 1139.15C367.326 1143.58 367.546 1147.53 367.875 1150.43C368.039 1151.88 368.227 1153.04 368.376 1153.85C368.523 1154.65 368.63 1155.09 368.633 1155.1L351.747 1159.26C351.469 1158.13 349.421 1149.25 350.353 1137.74C351.288 1126.19 355.303 1111.29 367.889 1099.28C383.477 1084.41 402.476 1083.3 407.664 1083.15L408.156 1100.53Z" fill="#180027"/>
                </g>
            </g>
            <g id="head">
                <path id="Vector_12" d="M359.21 84.9498C290.57 19.2898 287.35 6.7698 277.49 8.9198C241.29 16.8098 210.99 201.57 287.04 243.5C317.33 260.2 367.63 255.99 392.89 225.45C417.55 195.63 409.33 151.57 396.82 126.66C390.14 113.35 383.66 108.35 359.21 84.9598V84.9498Z" fill="#342F38" stroke="#180027" stroke-width="17.39" stroke-miterlimit="10"/>
                <path id="Vector_13" d="M593.59 488C581.35 523.32 569.12 558.65 556.88 593.97C531.03 611.5 480 640.68 410.11 646.64C374.08 649.71 343.23 645.74 320.27 640.74C297.36 616.28 274.46 591.82 251.55 567.37C365.56 540.91 479.57 514.46 593.58 488H593.59Z" fill="#180027" stroke="#180027" stroke-width="17.39" stroke-miterlimit="10"/>
                <path id="Vector_14" d="M628.87 361.31C628.87 226.95 518.31 116.39 383.95 116.39C304.9 116.39 230.48 157.34 187.53 215.73C140.25 280.01 139.06 353.11 139.03 361.31C111.39 388.95 92.96 407.38 89.3 425.29C88.09 431.21 85.82 450.17 110.85 478.03C175.56 569.11 280.37 618.67 383.95 606.23C497.01 592.66 628.87 502.81 628.87 361.31Z" fill="#E09A69" stroke="#180027" stroke-width="17.39" stroke-miterlimit="10"/>
                <path id="Vector_15" d="M604.31 164.41C582.65 71.9298 586.79 59.6798 577.35 56.0898C542.71 42.9398 416.46 181.19 457.29 257.84C473.55 288.37 518 312.3 555.83 300.5C592.77 288.98 609.94 247.58 613.05 219.87C614.72 205.07 612.02 197.34 604.3 164.4L604.31 164.41Z" fill="#342F38" stroke="#180027" stroke-width="17.39" stroke-miterlimit="10"/>
                <path id="Vector_16" d="M95.6399 325.84C107.983 325.84 117.99 309.48 117.99 289.3C117.99 269.119 107.983 252.76 95.6399 252.76C83.2964 252.76 73.2899 269.119 73.2899 289.3C73.2899 309.48 83.2964 325.84 95.6399 325.84Z" fill="#180027"/>
                <path id="Vector_17" d="M192.89 307.38C211.46 316.63 259.5 196.54 312.42 201.05C361.96 205.27 410.56 318.21 378.03 362.26C347.66 403.39 253 375.5 243.45 407.04C237.43 426.91 270.69 450.65 265.8 457.06C261.99 462.06 237.38 453.33 159.19 405.38C148.87 377.34 147.87 353.57 148.37 339.32C148.37 339.32 149.79 298.47 172.63 255.31C175.01 250.82 179.59 243.31 183.9 236.26C189.05 227.83 189.58 227.02 190.19 227.13C194.26 227.84 179.02 300.46 192.88 307.37L192.89 307.38Z" fill="#342F38"/>
                <path id="Vector_18" d="M55.9199 509.52C55.9199 509.52 73.5699 531.44 121.34 510.88C169.1 490.32 95.8999 473.62 95.8999 473.62C95.8999 473.62 52.5499 478.6 55.9199 509.52Z" fill="#342F38" stroke="#180027" stroke-width="14.82" stroke-miterlimit="10"/>
                <path id="Vector_19" d="M199.65 316.43C220.85 325.37 204.32 363.31 238.02 414.61C254.7 439.99 268.25 445.17 266.75 460.28C263.76 490.39 206.25 506.39 197.67 508.78C160.33 519.17 130.22 511.62 123.77 509.8C100.59 503.28 82.92 491.79 70.6199 481.5C69.61 484.61 66.0199 494.33 56.4499 499.08C41.6399 506.43 25.7899 495.32 23.1999 493.51C23.1999 493.51 13.7299 486.76 8.63995 475.36C3.03995 462.81 17.4399 436.3 34.1599 416.87C52.41 395.68 69.63 391.18 96.6199 376.67C168.47 338.04 180.93 308.55 199.65 316.45V316.43Z" fill="#342F38" stroke="#180027" stroke-width="14.82" stroke-linejoin="round"/>
                <path id="Vector_20" d="M57.4699 447.42C32.6999 441.84 15.8899 426.64 15.2199 410.76C14.8599 402.2 18.9599 387.87 29.7099 385.62C37.4999 383.99 46.7099 389.13 52.0599 398.57C62.6999 382.61 78.8799 377.02 87.7999 382C97.3699 387.33 97.1299 403.74 95.1299 412.61C89.4799 437.57 59.9399 446.69 57.4599 447.41L57.4699 447.42Z" fill="#180027"/>
                <path id="Vector_21" d="M295.84 335.93C312.425 335.93 325.87 319.57 325.87 299.39C325.87 279.209 312.425 262.85 295.84 262.85C279.255 262.85 265.81 279.209 265.81 299.39C265.81 319.57 279.255 335.93 295.84 335.93Z" fill="#180027"/>
            </g>
        </g>
        <defs>
        <clipPath id="clip0_297_190">
        <rect width="1332" height="1219" fill="white"/>
        </clipPath>
        </defs>
    </symbol>
    
    <symbol id="poodle" viewBox="0 0 1058 1019">
        <g id="perro" clip-path="url(#clip0_304_283)">
        <g id="tail">
            <path id="Vector" d="M846.96 894.87C828.53 906.64 798.93 916.97 772.46 922.02C749.5 926.4 729.31 927.03 714.57 926.7C697.49 924.39 680.4 922.08 663.32 919.77C652.12 904.15 652.71 884.32 663.32 872.59C673.42 861.42 688.68 861.91 691.12 862.03C750.9 879.03 784.23 868.21 802.97 856.93C877.81 811.88 893.88 712.77 905.33 715.99C917.74 719.49 918.17 849.42 846.96 894.87Z" fill="white" stroke="#180027" stroke-width="16.94" stroke-linejoin="round"/>
            <path id="Vector_2" d="M835.36 782.53C825.23 769.39 830.87 738.17 859.36 721.49C852.58 719.17 838.86 713.25 833.37 700.23C824.05 678.11 844.01 648.49 867.97 638.01C886.95 629.71 905.33 634.77 911.65 636.84C920.87 595.94 958.85 577.79 980.93 586.88C999.19 594.4 1011.84 622.71 1004.15 653.27C1023.96 648.02 1042.76 657.79 1047.72 671.4C1053.59 687.53 1040.95 711.64 1015.89 715.91C1035.03 730.24 1041.54 754.44 1033.5 771.83C1023.3 793.89 989.85 804.59 963.07 787.09C962.2 806.89 945.63 821.9 927.72 821.34C908.32 820.73 892 802 894.98 780.66C871.82 797.5 844.65 794.56 835.37 782.53H835.36Z" fill="#CBC5F2" stroke="#180027" stroke-width="16.94" stroke-linejoin="round"/>
        </g>
        <g id="body">
            <g id="Group">
            <path id="Vector_3" d="M435.62 965.43C434.45 970.32 431.57 979.23 424.01 987.41C410.15 1002.4 391.41 1003.23 387.45 1003.32C372.6 1008.7 330.83 1003.32 278.04 1003.32C239.19 1003.32 207.75 971.89 207.75 933.18C207.75 894.47 239.18 862.89 278.04 862.89C279.2 862.89 280.37 862.89 281.39 863.04C296.66 861.46 311.92 859.88 327.19 858.29C318.67 838.82 282.03 749.36 321.69 652.4C341.61 603.71 372.92 572.33 392.69 555.6C407 692.21 421.31 828.82 435.62 965.43Z" fill="#180027"/>
            <path id="Vector_4" d="M303.23 920.729C300.13 920.119 274.58 915.519 253.88 933.539C238.35 947.069 231.36 968.27 235.47 988.94" fill="#180027"/>
            <path id="Vector_5" d="M260.29 894.87C255.82 895 240 895.99 227.15 908.24C206.62 927.83 213.5 957.28 213.81 958.51" fill="#180027"/>
            </g>
            <path id="Vector_6" d="M738.77 946.61C635.25 1035.17 441.19 1017.37 347.52 919.76C322.62 893.81 308.71 863.75 280.91 803.64C248.63 733.87 224.28 679.38 235.04 612.48C237.94 594.44 244.4 554.31 274.68 519.18C328.82 456.37 436.12 435.89 505.13 473.63C582.93 516.16 547.96 591.58 641.96 686.1C719.1 763.67 790.17 760.67 801.4 819.92C813.09 881.58 746.55 939.95 738.76 946.62L738.77 946.61Z" fill="white" stroke="#180027" stroke-width="16.94" stroke-miterlimit="10"/>
            <g id="Group_2">
            <path id="Vector_7" d="M787.58 933.61C769.69 967.16 742.11 986.89 739.18 988.94C722.3 1000.75 706.18 1006.91 695.02 1010.24H540.19C501.43 1009.96 469.95 978.12 469.9 940.1C469.85 895.54 513 869.81 540.19 869.81C541.35 869.81 542.52 869.81 543.54 869.96C564.18 869.88 584.82 869.81 605.46 869.73C587.4 818.37 613.51 761.21 663.99 741.24C714.68 721.19 773.06 745.35 794.81 795.51C798.88 807.42 820 872.82 787.58 933.61Z" fill="#FFFEFB" stroke="#180027" stroke-width="16.94" stroke-miterlimit="10"/>
            <g id="Vector_8">
            <path d="M565.37 927.65C562.27 927.04 536.72 922.44 516.02 940.46C500.49 953.99 493.5 975.19 497.61 995.86" fill="#FFFEFB"/>
            <path d="M565.37 927.65C562.27 927.04 536.72 922.44 516.02 940.46C500.49 953.99 493.5 975.19 497.61 995.86" stroke="#180027" stroke-width="16.94" stroke-miterlimit="10"/>
            </g>
            <g id="Vector_9">
            <path d="M522.43 901.79C517.96 901.92 502.14 902.91 489.29 915.16C468.76 934.75 475.64 964.2 475.95 965.43" fill="#FFFEFB"/>
            <path d="M522.43 901.79C517.96 901.92 502.14 902.91 489.29 915.16C468.76 934.75 475.64 964.2 475.95 965.43" stroke="#180027" stroke-width="16.94" stroke-miterlimit="10"/>
            </g>
            </g>
            <g id="Group_3">
            <g id="Group_4">
            <g id="Vector_10">
                <path d="M432.18 598.78C449.57 658.81 444.77 705.41 450.73 780.66C452.81 806.85 454.6 832.73 456.14 858.3C440.87 859.88 425.61 861.46 410.34 863.04C409.32 862.89 408.16 862.89 406.99 862.89C368.14 862.89 336.7 894.32 336.7 933.18C336.7 972.04 368.13 1003.32 406.99 1003.32C459.78 1003.32 501.55 1008.7 516.4 1003.32C520.35 1003.23 539.1 1002.41 552.96 987.41C560.52 979.23 563.4 970.32 564.57 965.43C564.05 879.78 558.81 789.1 547.08 694.17C544.77 675.48 542.26 657.05 539.56 638.86C538.42 623.61 539.99 611.24 542 602.02" stroke="#180027" stroke-width="16.94" fill="#FFFEFB" stroke-miterlimit="10"/>
            </g>
            </g>
            <path id="Vector_11" d="M432.18 920.729C429.08 920.119 403.53 915.519 382.83 933.539C367.3 947.069 360.31 968.27 364.42 988.94" fill="#FFFEFB"/>
            <path id="Vector (Stroke)" d="M377.829 926.669C401.607 906.443 430.332 911.734 433.816 912.419L430.545 929.04C427.856 928.511 405.907 924.681 388.392 939.928C375.237 951.39 369.187 969.484 372.728 987.288L356.112 990.592C351.433 967.057 359.362 942.752 377.266 927.154L377.269 927.152L377.829 926.669Z" fill="#180027"/>
            <path id="Vector_12" d="M389.23 894.87C384.76 895 368.94 895.99 356.09 908.24C335.56 927.83 342.44 957.28 342.75 958.51" fill="#FFFEFB"/>
            <path id="Vector (Stroke)_2" d="M389.476 903.336C385.579 903.45 372.448 904.348 361.934 914.371C353.664 922.264 350.751 932.262 350.048 940.944C349.698 945.264 349.912 949.11 350.232 951.935C350.553 954.761 350.967 956.458 350.963 956.44L334.537 960.58C334.247 959.429 332.255 950.776 333.163 939.576C334.074 928.329 337.986 913.808 350.243 902.112L350.246 902.109L350.96 901.44C366.007 887.598 384.019 886.547 388.983 886.403L389.476 903.336Z" fill="#180027"/>
            </g>
            <path id="Vector_13" d="M383.42 707.48C373.29 694.34 378.93 663.12 407.42 646.44C400.64 644.12 386.92 638.2 381.43 625.18C372.11 603.06 392.07 573.44 416.03 562.96C435.01 554.66 453.39 559.72 459.71 561.79C468.93 520.89 506.91 502.74 528.99 511.83C547.25 519.35 559.9 547.66 552.21 578.22C572.02 572.97 590.82 582.74 595.78 596.35C601.65 612.48 589.01 636.59 563.95 640.86C583.09 655.19 589.6 679.39 581.56 696.78C571.36 718.84 537.91 729.54 511.13 712.04C510.26 731.84 493.69 746.85 475.78 746.29C456.38 745.68 440.06 726.95 443.04 705.61C419.88 722.45 392.71 719.51 383.43 707.48H383.42Z" fill="#CBC5F2" stroke="#180027" stroke-width="16.94" stroke-linejoin="round"/>
        </g>
            <g id="head">
            <path id="Vector_14" d="M82.5001 280.93C80.1401 260.76 99.2601 238.19 125.76 239.11C121.58 231.51 115.92 219.87 111.57 204.96C108 192.73 82.6001 105.64 134.86 61.5602C167.72 33.8502 219.63 32.9702 255.24 53.0602C317.43 88.1402 312.32 177.19 311.22 196.35C309.52 225.92 301.19 249.52 294.47 264.66C313.94 271.07 324.37 289.51 321.1 303.62C317.22 320.35 293.48 333.65 270.15 323.57C278.37 346.02 270.63 369.85 254.41 380.04C233.83 392.97 199.96 383.69 187.05 354.41C175.52 370.53 153.45 374.07 138.74 363.84C122.81 352.75 119.34 328.15 133.49 311.88C108.12 318.3 84.8401 300.87 82.5101 280.93H82.5001Z" fill="#CBC5F2" stroke="#180027" stroke-width="16.94" stroke-linejoin="round"/>
            <path id="Vector_15" d="M540.89 370.41C528.97 404.81 517.05 439.22 505.14 473.62C479.96 490.69 430.26 519.12 362.19 524.92C327.1 527.91 297.05 524.04 274.69 519.18C252.38 495.36 230.07 471.54 207.76 447.72C318.8 421.95 429.85 396.18 540.89 370.42V370.41Z" fill="#3CE8A5" stroke="#180027" stroke-width="16.94" stroke-miterlimit="10"/>
            <path id="Vector_16" d="M575.25 247.01C575.25 116.15 467.57 8.47021 336.71 8.47021C259.72 8.47021 187.23 48.3602 145.4 105.22C99.3499 167.82 98.1899 239.02 98.1599 247.01C71.2399 273.93 53.2899 291.88 49.7299 309.32C48.5499 315.08 46.3399 333.55 70.7199 360.68C133.74 449.39 235.83 497.66 336.71 485.55C446.83 472.33 575.25 384.82 575.25 247.01Z" fill="#FFFEFB" stroke="#180027" stroke-width="16.94" stroke-miterlimit="10"/>
            <path id="Vector_17" d="M250.89 222.29C267.044 222.29 280.14 206.356 280.14 186.7C280.14 167.045 267.044 151.11 250.89 151.11C234.736 151.11 221.64 167.045 221.64 186.7C221.64 206.356 234.736 222.29 250.89 222.29Z" fill="#180027"/>
            <path id="Vector_18" d="M55.8901 212.47C67.9134 212.47 77.6601 196.536 77.6601 176.88C77.6601 157.224 67.9134 141.29 55.8901 141.29C43.8669 141.29 34.1201 157.224 34.1201 176.88C34.1201 196.536 43.8669 212.47 55.8901 212.47Z" fill="#180027"/>
            <path id="Vector_19" d="M57.5601 394.59C57.5601 394.59 75.7301 417.16 124.91 395.99C174.08 374.83 98.7201 357.63 98.7201 357.63C98.7201 357.63 54.0901 362.76 57.5701 394.58L57.5601 394.59Z" fill="#CBC5F2" stroke="#180027" stroke-width="15.26" stroke-miterlimit="10"/>
            <path id="Vector_20" d="M135.4 263.71C141.87 265.58 161.91 271.8 197.96 296.08C227.13 315.72 241.71 325.54 243.76 336.69C247.9 359.26 223.98 383.39 203.49 393.81C174.89 408.36 145.52 399.96 127.42 394.86C103.56 388.14 85.37 376.31 72.7 365.73C71.66 368.94 67.97 378.94 58.11 383.83C42.86 391.4 26.54 379.96 23.88 378.09C23.88 378.09 14.13 371.15 8.89003 359.4C3.13003 346.48 17.94 319.19 35.17 299.19C48.62 283.57 68.56 260.41 99.47 257.8C111.53 256.78 120.25 259.31 135.4 263.7V263.71Z" fill="#CBC5F2" stroke="#180027" stroke-width="15.26" stroke-linejoin="round"/>
            <path id="Vector_21" d="M59.1599 330.66C33.6599 324.91 16.3499 309.27 15.6699 292.92C15.2999 284.11 19.5199 269.36 30.5899 267.04C38.6099 265.36 48.0899 270.66 53.5999 280.37C64.5599 263.94 81.2099 258.19 90.3999 263.31C100.25 268.8 100.01 285.69 97.9399 294.83C92.1299 320.53 61.7099 329.91 59.1599 330.66Z" fill="#180027"/>
            <path id="Vector_22" d="M435.87 350.55C426.77 332.39 437.05 304.65 462.27 296.48C455.75 290.76 446.45 281.75 437.28 269.22C429.76 258.94 376.17 185.74 410.26 126.48C431.69 89.2202 480.19 70.6902 520.52 77.4202C590.94 89.1802 616.52 174.64 622.02 193.02C630.51 221.4 630.73 246.42 629.57 262.95C650.05 262.34 666.15 276.11 667.89 290.49C669.95 307.54 652.17 328.14 626.8 326.63C642.19 344.93 643.04 369.97 631.27 385.09C616.33 404.26 581.33 407.1 559.21 383.98C553.87 403.07 534.33 413.93 517.02 409.32C498.27 404.33 486.61 382.38 494.36 362.27C472.7 376.96 444.87 368.51 435.88 350.57L435.87 350.55Z" fill="#CBC5F2" stroke="#180027" stroke-width="16.94" stroke-linejoin="round"/>
            </g>
        </g>
        <defs>
        <clipPath id="clip0_304_283">
        <rect width="1168" height="1019" fill="white"/>
        </clipPath>
        </defs>
        
    </symbol>
</svg>
