 <svg xmlns="http://www.w3.org/2000/svg" xmlns:xlink="http://www.w3.org/1999/xlink" style="display: none">
    <symbol id="pitbull" viewBox="0 0 409 377">
        <!-- Cabeza del perro -->
        <g class="dog-head" transform="translate(28, 25) scale(0.3)">
            <path d="M87.404 23.8277C111.917 5.72907 113.441 1.87868 116.489 2.95754C127.677 6.95673 129.777 66.9818 103.889 77.2309C93.5741 81.3045 77.7399 77.9191 70.9565 67.1678C64.3218 56.6769 68.7449 42.9867 73.7442 35.5649C76.4204 31.6029 78.6692 30.2822 87.404 23.8277Z" fill="#CBC5F2" stroke="#180027" stroke-width="5" stroke-miterlimit="10"/>
            <path d="M181.833 154.387L170.069 188.39C161.78 194.007 145.426 203.382 123.012 205.298C111.453 206.284 101.566 205 94.206 203.401C86.865 195.551 79.5241 187.702 72.1831 179.852C108.739 171.37 145.295 162.869 181.852 154.387H181.833Z" fill="#FF3E68" stroke="#180027" stroke-width="5" stroke-miterlimit="10" stroke-linejoin="bevel"/>
            <path d="M193.151 113.744C193.151 70.6276 157.71 35.1557 114.631 35.1557C89.2811 35.1557 65.4183 48.2879 51.647 67.0376C36.4818 87.666 36.1101 111.122 36.0915 113.744C27.2266 122.617 21.3167 128.532 20.1458 134.28C19.7556 136.177 19.0308 142.26 27.0594 151.207C47.7999 180.429 81.4197 196.332 114.612 192.352C150.852 187.999 193.133 159.168 193.133 113.763L193.151 113.744Z" fill="#CBC5F2" stroke="#180027" stroke-width="5" stroke-miterlimit="10"/>
            <path d="M168.564 47.2835C193.077 29.1848 194.601 25.3344 197.649 26.4133C208.837 30.4125 210.937 90.4376 185.048 100.687C174.734 104.76 158.899 101.375 152.116 90.6236C145.481 80.1327 149.904 66.4424 154.904 59.0206C157.58 55.0587 159.829 53.738 168.564 47.2835Z" fill="#CBC5F2" stroke="#180027" stroke-width="5" stroke-miterlimit="10"/>
            <path d="M86.3633 105.579C91.68 105.579 95.9901 100.332 95.9901 93.8601C95.9901 87.3881 91.68 82.1415 86.3633 82.1415C81.0465 82.1415 76.7364 87.3881 76.7364 93.8601C76.7364 100.332 81.0465 105.579 86.3633 105.579Z" fill="#180027"/>
            <path d="M22.1716 102.342C26.1335 102.342 29.3453 97.0955 29.3453 90.6235C29.3453 84.1516 26.1335 78.905 22.1716 78.905C18.2096 78.905 14.9979 84.1516 14.9979 90.6235C14.9979 97.0955 18.2096 102.342 22.1716 102.342Z" fill="#180027"/>
            <path d="M55.5126 64.5637C62.5005 55.8399 65.9572 54.8354 67.8157 55.5423C73.9301 57.8302 51.647 90.7909 63.2067 120.143C68.8564 134.503 79.0595 139.786 76.7364 144.473C74.6549 148.677 63.3182 150.5 20.5547 138.279C21.6512 134.838 23.8814 129.369 28.509 123.919C32.1888 119.604 36.073 116.832 38.8793 115.158C38.3031 108.648 38.3217 98.6033 42.1316 87.3126C46.6105 74.0873 54.0444 66.368 55.494 64.5637H55.5126Z" fill="white"/>
            <path d="M16.7077 130.82C15.8528 130.411 7.86135 126.449 7.4339 119.436C7.22946 115.884 8.93926 111.122 11.3181 110.991C13.6412 110.861 15.5926 115.251 15.7784 115.679C19.291 110.917 24.346 109.448 27.0222 111.103C29.8843 112.889 29.5683 117.948 28.8249 120.645C26.7248 128.253 17.4882 130.615 16.7077 130.801V130.82Z" fill="#180027"/>
            <path d="M22.599 155.299C25.0708 158.74 31.0179 165.901 43.8228 169.733C61.8686 175.127 83.7614 167.892 84.9136 159.521C86.865 145.459 32.0958 117.409 11.5783 133.294C7.2852 136.623 3.58684 142.576 2.91779 149.012C1.89563 158.591 7.15511 170.254 14.6448 171.5C18.3989 172.114 22.0972 170.012 22.9707 169.51C27.0408 167.185 28.8063 163.669 29.3639 162.423" fill="white"/>
            <path d="M22.599 155.299C25.0708 158.74 31.0179 165.901 43.8228 169.733C61.8686 175.127 83.7614 167.892 84.9136 159.521C86.865 145.459 32.0958 117.409 11.5783 133.294C7.2852 136.623 3.58684 142.576 2.91779 149.012C1.89563 158.591 7.15511 170.254 14.6448 171.5C18.3989 172.114 22.0972 170.012 22.9707 169.51C27.0408 167.185 28.8063 163.669 29.3639 162.423" stroke="#180027" stroke-width="5" stroke-linecap="round" stroke-linejoin="round"/>
        </g>
                                            
        <!-- Cuerpo del perro -->
        <g class="dog-body" transform="translate(50, 80) scale(0.3)">
            <path d="M75.1911 171.441C74.8008 173.059 73.853 175.979 71.3626 178.677C66.8094 183.624 60.6392 183.885 59.3197 183.922C54.4319 185.689 40.6792 183.922 23.3025 183.922C10.5162 183.922 0.16452 173.561 0.16452 160.82C0.16452 148.078 10.5162 137.662 23.3025 137.662C23.6928 137.662 24.0645 137.662 24.399 137.717C29.4169 137.197 34.4533 136.676 39.4712 136.155C36.6649 129.738 24.6034 100.255 37.6685 68.3175C44.2289 52.2835 54.5249 41.9414 61.0481 36.4169C65.75 81.4311 70.4706 126.445 75.1725 171.441H75.1911Z" fill="#180027"/>
            <path d="M31.6099 156.709C30.5877 156.504 22.1874 154.998 15.3668 160.931C10.256 165.396 7.95152 172.371 9.30821 179.179" fill="#180027"/>
            <path d="M17.4669 148.19C15.9987 148.227 10.795 148.562 6.55766 152.598C-0.207179 159.053 2.06016 168.762 2.17167 169.153" fill="#180027"/>
            <path d="M174.972 165.247C140.888 194.432 77.0124 188.554 46.1803 156.393C37.9844 147.836 33.4126 137.941 24.2503 118.131C13.6199 95.1399 5.60983 77.1901 9.15951 55.148C10.1073 49.1957 12.2446 35.9891 22.206 24.4007C40.0287 3.69794 75.3397 -3.03558 98.0689 9.38982C123.679 23.3963 112.175 48.2471 143.118 79.385C168.505 104.943 191.903 103.957 195.602 123.469C199.449 143.781 177.556 163.015 174.991 165.209L174.972 165.247Z" fill="white" stroke="#180027" stroke-width="5" stroke-miterlimit="10"/>
            <path d="M191.048 160.95C185.157 171.999 176.088 178.509 175.121 179.179C169.564 183.066 164.249 185.094 160.588 186.191H109.629C96.8795 186.098 86.5092 175.607 86.4906 163.089C86.4906 148.413 100.671 139.931 109.629 139.931C110.019 139.931 110.391 139.931 110.725 139.987C117.527 139.968 124.311 139.931 131.113 139.912C125.165 122.985 133.77 104.161 150.385 97.5767C167.074 90.9733 186.291 98.9345 193.446 115.452C194.784 119.377 201.735 140.917 191.067 160.95H191.048Z" fill="#CBC5F2" stroke="#180027" stroke-width="5" stroke-miterlimit="10"/>
            <path d="M117.899 158.997C116.877 158.792 108.476 157.286 101.656 163.219C96.5449 167.683 94.2404 174.659 95.5971 181.467" fill="#CBC5F2"/>
            <path d="M117.899 158.997C116.877 158.792 108.476 157.286 101.656 163.219C96.5449 167.683 94.2404 174.659 95.5971 181.467" stroke="#180027" stroke-width="3" stroke-miterlimit="10"/>
            <path d="M103.756 150.478C102.288 150.515 97.0839 150.85 92.8466 154.886C86.0817 161.341 88.3491 171.05 88.4606 171.441" fill="#CBC5F2"/>
            <path d="M103.756 150.478C102.288 150.515 97.0839 150.85 92.8466 154.886C86.0817 161.341 88.3491 171.05 88.4606 171.441" stroke="#180027" stroke-width="3" stroke-miterlimit="10"/>
            <path d="M45.7715 21.1828C46.1246 24.9402 56.9966 23.5265 65.8802 33.1246C66.9767 34.315 70.4706 38.2956 74.0574 50.6466C79.7815 70.4194 78.2018 85.7837 80.1718 110.579C80.8594 119.209 81.4541 127.729 81.9559 136.155C76.9381 136.676 71.9016 137.197 66.8837 137.717C66.5492 137.662 66.1589 137.662 65.7872 137.662C53.0009 137.662 42.6492 148.022 42.6492 160.82C42.6492 173.617 53.0009 183.922 65.7872 183.922C83.1639 183.922 96.9166 185.689 101.804 183.922C103.105 183.885 109.275 183.624 113.847 178.677C116.338 175.979 117.286 173.04 117.676 171.441C117.509 143.223 115.78 113.35 111.915 82.0635C111.153 75.9066 110.335 69.8242 109.443 63.8347C109.071 58.8124 109.591 54.7388 110.242 51.7069C111.413 46.294 112.974 44.5083 114.015 39.0955C114.312 37.5516 115.446 31.6365 114.461 27.2281C111.859 15.677 93.8316 10.8221 91.5085 10.1897C68.3519 3.95839 45.4184 16.9604 45.8086 21.1642L45.7715 21.1828Z" fill="#CBC5F2" stroke="#180027" stroke-width="4" stroke-miterlimit="10"/>
            <path d="M74.0574 156.709C73.0353 156.504 64.635 154.998 57.8144 160.931C52.7036 165.396 50.3991 172.371 51.7557 179.179" fill="#CBC5F2"/>
            <path d="M73.6649 158.67C74.7479 158.887 75.8017 158.185 76.0185 157.101C76.2353 156.018 75.5331 154.965 74.45 154.748L73.6649 158.67ZM57.8144 160.931L56.5017 159.422L56.4987 159.425L57.8144 160.931ZM74.0574 156.709L74.45 154.748C73.3199 154.522 64.0728 152.836 56.5017 159.422L57.8144 160.931L59.1271 162.44C65.1971 157.159 72.7506 158.487 73.6649 158.67L74.0574 156.709ZM57.8144 160.931L56.4987 159.425C50.8303 164.376 48.3024 172.083 49.7943 179.57L51.7557 179.179L53.7172 178.788C52.4957 172.658 54.5769 166.415 59.1301 162.438L57.8144 160.931Z" fill="#180027"/>
            <path d="M59.9144 148.19C58.4463 148.227 53.2425 148.562 49.0052 152.598C42.2404 159.053 44.5077 168.762 44.6192 169.153" fill="#CBC5F2"/>
            <path d="M59.9651 150.189C61.0693 150.161 61.9418 149.243 61.9138 148.139C61.8858 147.035 60.968 146.162 59.8638 146.19L59.9651 150.189ZM49.0052 152.598L47.6257 151.15L47.6246 151.151L49.0052 152.598ZM59.9144 148.19L59.8638 146.19C58.2469 146.231 52.4125 146.59 47.6257 151.15L49.0052 152.598L50.3847 154.046C54.0726 150.533 58.6456 150.222 59.9651 150.189L59.9144 148.19ZM49.0052 152.598L47.6246 151.151C43.7716 154.827 42.5293 159.402 42.24 162.989C41.9527 166.551 42.5866 169.319 42.696 169.702L44.6192 169.153L46.5424 168.604C46.5513 168.635 46.4064 168.066 46.2931 167.081C46.182 166.114 46.1073 164.795 46.2271 163.31C46.4675 160.33 47.4739 156.823 50.3858 154.045L49.0052 152.598Z" fill="#180027"/>
            <path d="M115.78 37.719C110.837 38.4816 105.131 65.4901 118.363 83.4586C120.092 85.8023 127.749 95.6235 140.795 97.7626C148.489 99.0275 159.38 97.8556 160.495 93.6704C161.777 88.8342 148.619 85.1698 135.852 71.2936C119.869 53.9389 119.757 37.1237 115.78 37.719Z" fill="#180027"/>
        </g>
            
        <!-- Cola del perro -->
        <g class="dog-tail">
            <path d="M66.5994 62.1897C60.5222 66.0586 50.7838 69.4626 42.0676 71.1367C34.5036 72.5876 27.8688 72.7922 23.0182 72.6806C17.3871 71.9179 11.7745 71.1553 6.14329 70.3926C2.46351 65.2402 2.64936 58.7113 6.14329 54.8423C9.46996 51.1593 14.4878 51.3267 15.287 51.364C34.9682 56.9628 45.9332 53.41 52.1033 49.6899C76.7467 34.8463 82.0247 2.1832 85.7974 3.26205C89.8861 4.4153 90.0348 47.216 66.5808 62.2083L66.5994 62.1897Z" fill="white" stroke="#180027" stroke-width="5" stroke-linejoin="round"/>
            <path d="M60.6523 46.7137C61.4143 46.2487 62.6223 45.6535 64.1648 45.3001C65.1498 45.0769 67.7145 44.5374 70.5394 45.6349C71.8403 46.1371 74.2192 47.0672 74.7953 48.983C75.5015 51.3826 72.974 53.9867 70.3907 56.5908C65.8003 61.2038 61.1541 63.4173 59.9833 63.9568C53.6273 66.8957 46.2863 68.3094 45.6544 66.9143C45.1341 65.7796 49.6687 63.9939 50.0962 60.0692C50.3935 57.4278 48.6652 55.0655 47.2713 53.5588C51.7317 51.2709 56.1734 48.983 60.6338 46.6765L60.6523 46.7137Z" fill="#CBC5F2"/>
        </g>
    </symbol>


    <symbol id="dachshund" viewBox="0 0 409 377">
        <g clip-path="url(#clip0_211_5)">
        <path d="M382.909 332.68C376.32 336.871 365.763 340.558 356.314 342.371C348.113 343.943 340.921 344.164 335.662 344.043C329.557 343.217 323.473 342.391 317.368 341.565C313.379 335.984 313.58 328.913 317.368 324.722C320.974 320.733 326.414 320.914 327.281 320.954C348.617 327.019 360.504 323.17 367.193 319.141C393.909 303.063 399.631 267.683 403.721 268.852C408.154 270.101 408.315 316.461 382.889 332.7L382.909 332.68Z" fill="#6D1B34" stroke="#180027" stroke-width="5" stroke-miterlimit="10"/>
        <path d="M285.172 315.917C285.998 315.414 287.307 314.769 288.98 314.386C290.047 314.144 292.828 313.56 295.89 314.749C297.301 315.293 299.88 316.3 300.504 318.375C301.27 320.974 298.53 323.795 295.729 326.616C290.753 331.612 285.716 334.01 284.446 334.594C277.556 337.778 269.597 339.309 268.912 337.798C268.348 336.569 273.264 334.634 273.728 330.383C274.05 327.522 272.176 324.964 270.665 323.332C275.501 320.853 280.316 318.375 285.152 315.877L285.172 315.917Z" fill="#CBC5F2"/>
        <path d="M144.822 357.865C144.399 359.618 143.372 362.781 140.672 365.702C135.736 371.062 129.047 371.344 127.616 371.384C122.317 373.298 107.408 371.384 88.5697 371.384C74.708 371.384 63.4857 360.162 63.4857 346.361C63.4857 332.559 74.708 321.277 88.5697 321.277C88.9928 321.277 89.3958 321.277 89.7584 321.337C95.1983 320.773 100.658 320.209 106.098 319.645C100.497 291.135 94.8961 262.626 89.3152 234.117C102.713 226.622 116.092 219.127 129.49 211.632C132.452 234.963 135.212 258.758 137.771 282.996C140.45 308.402 142.787 333.365 144.802 357.885L144.822 357.865Z" fill="#180027"/>
        <path d="M97.5757 341.908C96.4676 341.686 87.3608 340.054 79.9665 346.481C74.4259 351.317 71.9276 358.872 73.3984 366.246" fill="#180027"/>
        <path d="M82.2433 332.68C80.6516 332.72 75.0102 333.083 70.4165 337.455C63.0827 344.447 65.5408 354.964 65.6617 355.387" fill="#180027"/>
        <path d="M346.844 326.233C336.69 338.563 318.275 336.609 253.822 326.233C142.687 308.342 119.053 301.552 104.184 279.833C99.4293 272.882 90.8665 257.549 87.0183 237.26C84.0364 221.585 81.6589 208.993 87.4212 198.617C99.4293 176.958 140.934 175.628 169.664 182.358C204.863 190.598 203.896 206.978 248.362 229.967C301.632 257.509 330.323 248.1 346.078 275.34C354.984 290.733 357.301 313.56 346.864 326.233H346.844Z" fill="#F96D5F" stroke="#180027" stroke-width="5" stroke-miterlimit="10"/>
        <path d="M361.713 346.502C355.326 358.469 345.494 365.521 344.446 366.246C338.422 370.457 332.66 372.653 328.691 373.842H273.446C259.624 373.741 248.382 362.378 248.362 348.819C248.362 332.922 263.734 323.735 273.446 323.735C273.869 323.735 274.272 323.735 274.634 323.795C282.008 323.775 289.362 323.735 296.737 323.714C290.289 305.38 299.618 284.99 317.63 277.858C335.722 270.706 356.555 279.329 364.312 297.22C365.763 301.471 373.298 324.802 361.733 346.502H361.713Z" fill="#F96D5F"/>
        <path d="M361.713 346.502C355.326 358.469 345.494 365.521 344.446 366.246C338.422 370.457 332.66 372.653 328.691 373.842H273.446C259.624 373.741 248.382 362.378 248.362 348.819C248.362 332.922 263.734 323.735 273.446 323.735C273.869 323.735 274.272 323.735 274.634 323.795C282.008 323.775 289.362 323.735 296.737 323.714C290.289 305.38 299.618 284.99 317.63 277.858C335.722 270.706 356.555 279.329 364.312 297.22C365.763 301.471 373.298 324.802 361.733 346.502H361.713Z" stroke="#180027" stroke-width="5" stroke-miterlimit="10" stroke-linecap="round"/>
        <path d="M282.411 344.366C281.303 344.144 272.196 342.512 264.802 348.939C259.262 353.775 256.763 361.33 258.234 368.704" fill="#F96D5F"/>
        <path d="M282.411 344.366C281.303 344.144 272.196 342.512 264.802 348.939C259.262 353.775 256.763 361.33 258.234 368.704" stroke="#180027" stroke-width="3" stroke-miterlimit="10" stroke-linecap="round"/>
        <path d="M267.079 335.138C265.487 335.178 259.846 335.541 255.252 339.913C247.918 346.905 250.376 357.422 250.497 357.845" fill="#F96D5F"/>
        <path d="M267.079 335.138C265.487 335.178 259.846 335.541 255.252 339.913C247.918 346.905 250.376 357.422 250.497 357.845" stroke="#180027" stroke-width="3" stroke-miterlimit="10" stroke-linecap="round"/>
        <path d="M143.593 227.005C149.799 248.422 148.086 265.064 150.222 291.921C150.967 301.27 151.612 310.497 152.156 319.624C146.716 320.189 141.256 320.753 135.816 321.317C135.454 321.256 135.03 321.256 134.627 321.256C120.766 321.256 109.543 332.479 109.543 346.34C109.543 360.202 120.766 371.364 134.627 371.364C153.466 371.364 168.375 373.278 173.674 371.364C175.084 371.324 181.773 371.042 186.73 365.682C189.429 362.761 190.457 359.577 190.88 357.845C190.074 335.44 188.603 318.315 187.354 306.428C186.508 298.369 185.098 286.703 186.045 270.806C186.468 263.573 187.253 257.61 187.878 253.52" fill="#F96D5F"/>
        <path d="M143.593 227.005C149.799 248.422 148.086 265.064 150.222 291.921C150.967 301.27 151.612 310.497 152.156 319.624C146.716 320.189 141.256 320.753 135.816 321.317C135.454 321.256 135.03 321.256 134.627 321.256C120.766 321.256 109.543 332.479 109.543 346.34C109.543 360.202 120.766 371.364 134.627 371.364C153.466 371.364 168.375 373.278 173.674 371.364C175.084 371.324 181.773 371.042 186.73 365.682C189.429 362.761 190.457 359.577 190.88 357.845C190.074 335.44 188.603 318.315 187.354 306.428C186.508 298.369 185.098 286.703 186.045 270.806C186.468 263.573 187.253 257.61 187.878 253.52" stroke="#180027" stroke-width="5" stroke-miterlimit="10"/>
        <path d="M143.593 341.908C142.485 341.686 133.378 340.054 125.984 346.481C120.443 351.317 117.945 358.872 119.416 366.246" fill="#F96D5F"/>
        <path d="M143.593 341.908C142.485 341.686 133.378 340.054 125.984 346.481C120.443 351.317 117.945 358.872 119.416 366.246" stroke="#180027" stroke-width="3" stroke-miterlimit="10" stroke-linecap="round"/>
        <path d="M128.261 332.68C126.669 332.72 121.028 333.083 116.434 337.455C109.1 344.447 111.558 354.964 111.679 355.387" fill="#F96D5F"/>
        <path d="M128.261 332.68C126.669 332.72 121.028 333.083 116.434 337.455C109.1 344.447 111.558 354.964 111.679 355.387" stroke="#180027" stroke-width="3" stroke-miterlimit="10" stroke-linecap="round"/>
        <path d="M87.8645 199.523C92.841 201.055 99.7517 202.626 108.093 202.868C115.809 203.09 122.357 202.102 127.213 201.014C130.598 203.916 135.292 208.509 139.261 215.158C146.474 227.166 147.139 238.671 147.703 250.759C148.67 271.572 149.456 289.282 150.182 307.516C143.613 305.541 111.719 295.266 95.4803 264.097C84.9632 243.909 85.2251 223.036 85.6079 215.682C85.9504 209.033 86.9578 203.513 87.8645 199.523Z" fill="#F4AAA6" stroke="#180027" stroke-width="5" stroke-miterlimit="10"/>
        <path d="M64.9363 8.76428C74.708 1.75286 90.1009 1.04768 100.316 7.2935C118.57 18.4755 115.407 48.7979 110.349 97.5757C109.12 109.342 107.267 120.403 98.7242 125.964C91.612 130.578 81.115 130.578 73.2977 126.75C46.3399 113.573 45.2721 61.6925 52.2432 31.8335C54.7416 21.1552 58.1466 13.6602 64.9565 8.74414L64.9363 8.76428Z" fill="#6D1B34" stroke="#180027" stroke-width="5" stroke-miterlimit="10"/>
        <path d="M182.398 145.507C178.147 157.777 173.896 170.067 169.644 182.337C160.658 188.422 142.928 198.577 118.63 200.652C106.098 201.72 95.3796 200.329 87.4011 198.597C79.4428 190.094 71.4844 181.592 63.526 173.09C103.157 163.902 142.787 154.695 182.418 145.507H182.398Z" fill="#CBC5F2" stroke="#180027" stroke-width="5" stroke-miterlimit="10"/>
        <path d="M194.648 101.464C194.648 54.7617 156.226 16.3398 109.523 16.3398C82.0417 16.3398 56.172 30.5642 41.2425 50.8731C24.8019 73.217 24.3989 98.6234 24.3788 101.464C24.3788 148.167 62.8006 186.589 109.503 186.589C156.226 186.589 194.628 148.126 194.628 101.464H194.648Z" fill="#F96D5F" stroke="#180027" stroke-width="5" stroke-miterlimit="10"/>
        <path d="M87.3607 92.6395C93.1247 92.6395 97.7973 86.9566 97.7973 79.9464C97.7973 72.9362 93.1247 67.2533 87.3607 67.2533C81.5968 67.2533 76.9242 72.9362 76.9242 79.9464C76.9242 86.9566 81.5968 92.6395 87.3607 92.6395Z" fill="#180027"/>
        <path d="M10.9 94.9162C15.1951 94.9162 18.677 89.2333 18.677 82.2231C18.677 75.2129 15.1951 69.53 10.9 69.53C6.60483 69.53 3.12292 75.2129 3.12292 82.2231C3.12292 89.2333 6.60483 94.9162 10.9 94.9162Z" fill="#180027"/>
        <path d="M158.744 33.7274C168.516 26.7159 183.909 26.0108 194.124 32.2566C212.378 43.4386 209.215 73.761 204.157 122.539C202.928 134.305 201.075 145.366 192.532 150.927C185.42 155.541 174.923 155.541 167.106 151.713C140.148 138.536 139.08 86.6556 146.051 56.7966C148.55 46.1182 151.955 38.6233 158.764 33.7072L158.744 33.7274Z" fill="#6D1B34" stroke="#180027" stroke-width="5" stroke-miterlimit="10"/>
        <path d="M21.5581 164.466C21.5581 164.466 28.086 172.566 45.7556 164.97C63.4252 157.374 36.3466 151.189 36.3466 151.189C36.3466 151.189 20.309 153.022 21.5581 164.466Z" fill="#F4AAA6" stroke="#180027" stroke-width="3" stroke-miterlimit="10"/>
        <path d="M65.7624 114.137C68.6838 120.987 72.3306 126.004 74.9095 129.127C84.5401 135.695 89.154 145.487 86.7161 153.022C84.6006 159.53 77.7906 162.512 73.9625 164.184C62.7402 169.1 51.8604 166.038 46.6421 164.567C38.0793 162.149 31.5313 157.898 26.998 154.11C26.6354 155.259 25.3056 158.845 21.7596 160.618C16.2794 163.338 10.4164 159.228 9.46947 158.563C8.56282 157.918 5.6011 155.702 4.09001 151.854C0.261936 142.163 7.53529 129.248 14.446 121.793C17.1861 118.832 21.2962 114.077 25.6078 107.73C31.4306 99.1473 31.8134 96.1855 35.9437 93.7275C42.532 89.7987 52.9685 90.6046 58.6099 95.9035C62.982 100.014 61.5313 104.184 65.7825 114.157L65.7624 114.137Z" fill="#F4AAA6" stroke="#180027" stroke-width="5" stroke-miterlimit="10" stroke-linejoin="bevel"/>
        <path d="M26.5347 154.251C17.3674 152.196 11.1619 146.575 10.9201 140.692C10.7791 137.529 12.3103 132.23 16.2794 131.404C19.1606 130.799 22.5655 132.693 24.54 136.199C28.4688 130.296 34.4527 128.241 37.757 130.074C41.303 132.049 41.2022 138.113 40.4568 141.397C38.3614 150.625 27.4413 153.989 26.5347 154.272V154.251Z" fill="#180027"/>
        </g>
        <defs>
        <clipPath id="clip0_211_5">
        <rect width="409" height="376.864" fill="white"/>
        </clipPath>
        </defs>
                        
    </symbol>


    <symbol viewBox="0 0 24 24">
        <path fill="white" d="M5.616 20q-.672 0-1.144-.472T4 18.385V7.486q0-.292.093-.55t.28-.475l1.558-1.87q.217-.293.543-.442T7.173 4h9.616q.372 0 .708.149t.553.441l1.577 1.91q.187.217.28.485q.093.267.093.56v10.84q0 .67-.472 1.143q-.472.472-1.143.472zM5.38 6.808H18.6L17.27 5.21q-.097-.096-.222-.153T16.788 5H7.192q-.134 0-.26.058t-.22.154zm9.619 1H9v5.47q0 .46.379.7t.783.028l1.838-.91l1.839.91q.403.211.782-.028q.379-.24.379-.7z" />
    </symbol>

</svg>