<svg width="792" height="792" viewBox="0 0 792 792" fill="none" xmlns="http://www.w3.org/2000/svg">
    <path d="M499.77 246.54C521.458 246.54 539.04 228.958 539.04 207.27C539.04 185.582 521.458 168 499.77 168C478.082 168 460.5 185.582 460.5 207.27C460.5 228.958 478.082 246.54 499.77 246.54Z" fill="#180027"/>
    <path d="M656.79 431.83C649.22 453.68 641.65 475.54 634.08 497.39C618.08 508.23 586.52 526.29 543.28 529.97C520.99 531.87 501.9 529.41 487.7 526.32C473.53 511.19 459.36 496.06 445.19 480.93C515.72 464.56 586.26 448.19 656.79 431.83Z" fill="#F93267" stroke="#180027" stroke-width="9.24" stroke-miterlimit="10"/>
    <path d="M527.1 504.97C610.782 504.97 678.62 437.132 678.62 353.45C678.62 269.768 610.782 201.93 527.1 201.93C443.418 201.93 375.58 269.768 375.58 353.45C375.58 437.132 443.418 504.97 527.1 504.97Z" fill="white" stroke="#180027" stroke-width="8.76" stroke-miterlimit="10"/>
    <path d="M375.58 385.41C373.93 384.62 358.5 376.97 357.7 363.48C357.29 356.62 360.62 347.46 365.18 347.21C369.66 346.96 373.41 355.42 373.77 356.25C380.55 347.08 390.31 344.22 395.47 347.43C401 350.87 400.39 360.61 398.94 365.82C394.87 380.48 377.06 385.05 375.57 385.41H375.58Z" fill="#180027"/>
    <path d="M485.59 406.82C482.56 409.97 464.31 428.33 436.76 427.32C411.85 426.4 389.17 409.99 378.8 385.42" stroke="#180027" stroke-width="9.24" stroke-miterlimit="10" stroke-linecap="round"/>
    <path d="M510.69 325.68C507.1 335.98 497.77 343.14 487.18 343.76C475.52 344.45 464.53 337.08 460.5 325.68" stroke="#180027" stroke-width="9.24" stroke-linecap="round" stroke-linejoin="bevel"/>
    <path d="M399.25 434.8L399.94 471.32L414.91 468.3L424.56 476.44L436.01 463.48L454.09 470.72L463.74 454.74L485.59 468.61L506.54 442.08" fill="white"/>
    <path d="M399.25 434.8L399.94 471.32L414.91 468.3L424.56 476.44L436.01 463.48L454.09 470.72L463.74 454.74L485.59 468.61L506.54 442.08" stroke="#180027" stroke-width="7.27" stroke-linecap="round" stroke-linejoin="round"/>
    <path d="M404.04 270.21L412.35 209.84L437.22 227.47L452.44 192.66L500.96 219.33L514.93 202.42L533.97 230.64" fill="white"/>
    <path d="M404.04 270.21L412.35 209.84L437.22 227.47L452.44 192.66L500.96 219.33L514.93 202.42L533.97 230.64" stroke="#180027" stroke-width="7.27" stroke-linecap="round" stroke-linejoin="round"/>
    <path d="M598.42 585.14C576.51 603.16 553.5 613.52 533.99 619.71H386.65C361.97 619.71 342 599.74 342 575.16C342 550.58 361.97 530.51 386.65 530.51C387.39 530.51 388.13 530.51 388.78 530.6C440.27 530.41 491.75 530.23 543.24 529.95C559.05 526.99 587.79 519.23 615.34 496.77C661.93 458.87 671.45 406.46 673.57 392.41C674.4 409.51 678.47 519.41 598.42 585.14Z" fill="white" stroke="#180027" stroke-width="8.99" stroke-miterlimit="10"/>
    <path d="M634.08 222.34C650.39 220.64 666.48 234.79 674.68 246.48C696.24 277.23 675 307.84 696.98 329.35C709.25 341.36 727.7 343.4 731.42 343.81C753.84 346.29 763.11 334.73 774.74 340.2C789.32 347.06 796.09 375.23 788.61 395.06C776.54 427.05 726.35 440.04 689.75 433.64C626.33 422.56 581.1 349.31 589.08 290.17C592.71 263.25 609.29 224.94 634.08 222.35V222.34Z" fill="#180027"/>
    <path d="M402.65 567.24C400.68 566.85 384.45 563.93 371.3 575.38C361.43 583.97 356.99 597.44 359.6 610.57" stroke="#180027" stroke-width="7.27" stroke-linecap="round" stroke-linejoin="bevel"/>
    <path d="M375.37 550.82C372.53 550.9 362.48 551.53 354.32 559.31C341.28 571.75 345.65 590.46 345.85 591.24" stroke="#180027" stroke-width="7.27" stroke-linecap="round" stroke-linejoin="bevel"/>
    <path d="M247.54 244.05L248.45 182.56L190.22 209.69" fill="white"/>
    <path d="M247.54 244.05L248.45 182.56L190.22 209.69" stroke="#180027" stroke-width="7.27" stroke-linecap="round" stroke-linejoin="round"/>
    <path d="M26.21 431.83C33.78 453.68 41.35 475.54 48.92 497.39C64.92 508.23 96.48 526.29 139.72 529.97C162.01 531.87 181.1 529.41 195.3 526.32C209.47 511.19 223.64 496.06 237.81 480.93C167.28 464.56 96.74 448.19 26.21 431.83Z" fill="#F93267" stroke="#180027" stroke-width="9.24" stroke-miterlimit="10"/>
    <path d="M155.9 504.97C239.582 504.97 307.42 437.132 307.42 353.45C307.42 269.768 239.582 201.93 155.9 201.93C72.2177 201.93 4.37988 269.768 4.37988 353.45C4.37988 437.132 72.2177 504.97 155.9 504.97Z" fill="white" stroke="#180027" stroke-width="8.76" stroke-miterlimit="10"/>
    <path d="M307.42 385.41C309.07 384.62 324.5 376.97 325.3 363.48C325.71 356.62 322.38 347.46 317.82 347.21C313.34 346.96 309.59 355.42 309.23 356.25C302.45 347.08 292.69 344.22 287.53 347.43C282 350.87 282.61 360.61 284.06 365.82C288.13 380.48 305.94 385.05 307.43 385.41H307.42Z" fill="#180027"/>
    <path d="M197.41 406.82C200.44 409.97 218.69 428.33 246.24 427.32C271.15 426.4 293.83 409.99 304.2 385.42" stroke="#180027" stroke-width="9.24" stroke-miterlimit="10" stroke-linecap="round"/>
    <path d="M172.31 325.68C175.9 335.98 185.23 343.14 195.82 343.76C207.48 344.45 218.47 337.08 222.5 325.68" stroke="#180027" stroke-width="9.24" stroke-linecap="round" stroke-linejoin="bevel"/>
    <path d="M84.5798 585.14C106.49 603.16 129.5 613.52 149.01 619.71H296.35C321.03 619.71 341 599.74 341 575.16C341 550.48 321.03 530.51 296.35 530.51C295.61 530.51 294.87 530.51 294.22 530.6C242.73 530.41 191.25 530.23 139.76 529.95C123.95 526.99 95.2098 519.23 67.6598 496.77C21.0698 458.87 11.5498 406.46 9.42982 392.41C8.59982 409.51 4.52982 519.41 84.5798 585.14Z" fill="white" stroke="#180027" stroke-width="8.99" stroke-miterlimit="10"/>
    <path d="M280.35 567.24C282.32 566.85 298.55 563.93 311.7 575.38C321.57 583.97 326.01 597.44 323.4 610.57" stroke="#180027" stroke-width="7.27" stroke-linecap="round" stroke-linejoin="bevel"/>
    <path d="M307.62 550.82C310.46 550.9 320.51 551.53 328.67 559.31C341.71 571.75 337.34 590.46 337.14 591.24" stroke="#180027" stroke-width="7.27" stroke-linecap="round" stroke-linejoin="bevel"/>
    <path d="M170.63 357.76L190.22 377.35" stroke="#180027" stroke-width="7.27" stroke-linecap="round" stroke-linejoin="bevel"/>
    <path d="M162.52 377.35H190.22" stroke="#180027" stroke-width="7.27" stroke-linecap="round" stroke-linejoin="bevel"/>
    <path d="M170.63 396.94L190.22 377.35" stroke="#180027" stroke-width="7.27" stroke-linecap="round" stroke-linejoin="bevel"/>
    <path d="M66.0997 251.28L19.6797 204.86L126.98 209.69" fill="white"/>
    <path d="M66.0997 251.28L19.6797 204.86L126.98 209.69" stroke="#180027" stroke-width="7.27" stroke-linecap="round" stroke-linejoin="round"/>
</svg>
