<svg width="168" height="139" viewBox="0 0 168 139" fill="none" xmlns="http://www.w3.org/2000/svg" xmlns:xlink="http://www.w3.org/1999/xlink" style="display:none">
    <g clip-path="url(#clip0_242_461)">
    <path d="M74.61 43.87C90.9 43.36 108.82 44.08 124.91 46.65C135.17 48.28 156.54 52.05 159.33 63.93C161.66 73.85 163.48 87.49 164.7 97.73C166.29 111.01 167.85 117.57 154.53 123.79C118.18 140.78 49.64 140.66 13.15 124.07C3.22997 119.56 0.979972 116.07 1.58997 104.95C2.19997 93.83 5.30997 75.72 7.74997 64.26C8.27997 61.78 8.94997 60.18 10.67 58.29C21.36 46.6 59.18 44.36 74.61 43.87Z" fill="#CBC5F2" stroke="#180027" stroke-width="3" stroke-linecap="round" stroke-linejoin="round"/>
    <path d="M105.71 108.47L61.97 108.38C59.28 110.74 58.57 113.87 54.78 115.32C49.61 117.3 41.45 118.33 38.68 112.29C35.76 105.91 45.37 103.59 45.12 100.57C44.88 97.71 37.48 95.51 38.02 90.92C38.88 83.59 47.72 84.09 52.97 85.48C58.53 86.96 58.38 89.9 62.39 93.02L104.41 93.05C106.64 92.76 108.65 87.76 111.45 86.36C114.85 84.67 122.46 83.66 125.73 85.82C128.93 87.94 130.18 91.37 127.78 94.6C126 97 120.5 98.91 122.77 102.11C125.39 105.8 132.14 107.33 127.79 113.6C124.71 118.03 118.18 117.02 113.62 115.71C109.56 114.54 107.93 111.79 105.72 108.47H105.71Z" fill="#180027"/>
    <path d="M146.18 65.17C144.06 67.16 140.75 68.06 138.01 68.91C111.1 77.22 59.5199 76.99 32.2799 69.82C31.4799 69.61 20.1699 66.24 20.9699 65.18C27.3399 62.18 34.2299 60.57 41.1499 59.31C61.6499 55.57 84.7899 55.24 105.58 56.7C119.13 57.65 133.66 59.88 146.17 65.18L146.18 65.17Z" fill="#504EAD" stroke="#180027" stroke-width="3" stroke-linecap="round" stroke-linejoin="round"/>
    <path d="M104.83 53.03C104.51 52.59 104.18 51.3 103.71 50.79C102 48.87 104.83 46.69 106.97 46.46C108.12 46.34 109.98 46.46 109.69 47.8C110.28 48.31 110.51 49.19 110.38 50.43C110.82 51.32 110.96 52.06 110.81 52.65C109.97 55.29 106.24 54.98 104.83 53.02V53.03Z" fill="#C94E28"/>
    <path d="M91.3799 80.31C88.1899 77 88.1899 72.41 91.1699 68.91C89.1799 66.06 90.1299 62.2 93.0699 60.43C87.3299 51.74 99.6399 45 104.84 53.04C105.94 53.3 107.08 53.56 108.25 53.82C109.15 53.39 110.01 53 110.82 52.67C111.03 52.54 111.21 52.46 111.29 52.51C113.53 54.12 112.63 55.03 111.25 52.45C108.9 48.08 111.73 44.89 116.06 44.07C118.57 43 122.67 43.41 125.03 44.82C124.53 45.54 123.5 45.6 122.61 45.53C121.94 47.39 121.76 49.34 121.82 51.31L121.3 51.54C120.35 51.04 119.92 49.88 120.02 48.04C114.56 47.21 113.07 53.63 119.48 53.45L120.18 54.16L120.26 55.01C118.39 56.01 116.66 56.92 115.76 58.95L114.95 59.02C107.29 55.87 107.84 67.22 114.9 63.32L115.7 63.5C116.04 62.67 117.07 64.17 117.07 64.56C117.07 64.98 114.99 66.52 114.45 66.81C115.34 67.88 115.61 70.28 114.96 71.34L115.21 72.17C112.06 75.95 118.58 79.01 120.57 75.45C119.08 75.37 118.33 74.87 118.32 73.95C115.39 72.41 114.43 69.16 115.53 66.17C116.65 65.16 117.34 64.37 116.12 63.2C113.73 58.59 118.43 54.89 122.68 54.47C121.55 50.98 120.74 45.45 125.8 44.81C128.52 43.88 132.32 44.42 134.77 45.93C135.71 46.06 136.04 47.07 135.52 47.8C135.03 48.55 139.63 49.89 140.02 49.85C141.43 48.18 143.01 47.31 145.24 47.43C146.45 46.33 152.57 48.34 153.21 49.31C153.62 49.93 152.96 50.63 152.43 51.02C152.43 52.24 152.27 53.54 151.96 54.91C151.27 57.63 150.35 60.34 147.13 61.1C146.41 61.27 144.58 61.17 144.49 61.26C144.41 61.35 144.43 62.8 144.08 63.65C143.4 65.31 141.46 66.13 141.21 66.57C140.56 67.71 141.53 69.42 139.44 71.34C136.25 74.29 132.49 74.08 128.8 72.46C126.5 71.39 125.72 68.69 125.85 66.97L125.06 66.49L124.71 67.28C115.92 65.52 120.12 76.47 125.71 71.28L126.55 71.35C127.26 70.89 127.74 71.4 127.3 72.1C126.97 73.88 123.64 74.08 123.26 74.41C123.14 74.51 123.01 75.63 122.62 76.2C120.54 79.22 117.03 79.21 113.85 78.45C112.28 77.76 110.8 77.01 110.46 75.15L109.74 74.71C107.59 74.95 104.6 74.9 102.65 73.96C102.46 79.87 96.6499 83.99 91.4399 80.31H91.3799Z" fill="#7C1703"/>
    <path d="M88.3999 74.7C88.3599 74.14 88.3399 73.37 88.3999 72.83C87.5599 71.91 87.9099 70.56 89.4399 68.79C89.0899 67.86 89.1199 67.21 89.5199 66.85C89.2399 65.74 88.9899 65 89.5199 63.86C88.6499 63.02 89.7699 60.55 91.0099 60.87C91.2299 60.61 92.0999 60.7 92.1599 60.27C92.1899 60.04 90.8499 55.94 90.6599 55.81C90.2699 55.54 88.6899 55.6 87.8199 55.29C86.2099 54.71 85.3799 53.25 83.9199 53.02L85.7799 51.53C85.8699 53.87 88.8499 55.41 91.0099 55.27C91.1399 55.14 90.8999 53.82 91.0099 53.4C89.7699 51.4 92.7799 49.51 94.4999 48.86C95.5099 48.48 97.6699 47.74 98.1099 48.92C100.89 48.72 99.2899 48.09 99.9799 45.93C98.4399 43.53 101.84 43.26 103.72 43.69C105.08 43.64 106.46 43.72 107.83 43.69L107.48 44.47C104.46 44.44 102.31 45.77 101.33 48.71C102.83 48.97 103.62 49.66 103.72 50.79C104.78 50.16 105.74 52.34 104.84 53.03L102.13 50.7C94.1599 47.88 88.2799 56.12 95.4999 61.62C93.4099 60.84 92.8899 60.72 91.6899 62.85C89.7899 66.23 91.0799 69.18 94.7599 70.22C94.3199 71.36 92.4099 69.52 91.9499 69.55C91.5399 69.58 90.2599 71.59 90.0899 72.08C89.3199 74.16 89.5099 76.51 90.3799 78.52C90.6499 79.15 91.9599 79.84 91.3999 80.3C89.2999 78.82 88.5699 77.18 88.4099 74.7H88.3999Z" fill="#551201"/>
    <path d="M127.25 72.09C127.25 72.09 126.62 71.47 126.5 71.34C124.73 71.86 123.28 67.07 125.01 66.48C125.65 66.38 126.12 65.57 126.88 65.73L126.59 69.19L128.75 72.45C128.34 72.27 127.55 72.26 127.26 72.08L127.25 72.09Z" fill="#571302"/>
    <path d="M109.69 74.7C109.75 74.7 110.48 74.02 110.81 74.33C110.92 74.43 111.22 76.67 111.99 77.08L113.8 78.44C111.62 77.92 110.14 77.16 109.69 74.7Z" fill="#501E10"/>
    <path d="M148.81 59.28C145.1 62.36 139.84 56.41 143.29 52.83C147.48 48.48 152.8 55.97 148.81 59.28Z" fill="#C94E28"/>
    <path d="M99.32 69.3999C93.89 70.3199 92.52 63.9699 97.34 62.5499C104.54 60.4299 106.05 68.2599 99.32 69.3999Z" fill="#C94E28"/>
    <path d="M97.46 80.3C94.89 80.84 92.23 78.31 92.58 75.82C92.73 74.75 93.94 72.56 95.01 72.25C101.13 70.46 102.38 79.28 97.46 80.3Z" fill="#C94E28"/>
    <path d="M127.88 64.12C126.09 65.73 122.33 65.75 120.51 64.07C116.96 60.8 123.54 56.02 127.76 59.43C129.12 60.53 129.14 62.99 127.88 64.12Z" fill="#C94E28"/>
    <path d="M139.3 66.3899C131.07 67.9099 131.45 58.9199 139.02 59.7499C143.66 60.2599 143.52 65.6099 139.3 66.3899Z" fill="#C94E28"/>
    <path d="M114.92 71.34C114.6 70.57 114.69 69.15 114.44 68.27C114.27 67.66 113.5 66.99 113.43 66.67C113.37 66.41 116.3 64.96 116.41 64.41C116.54 63.78 115.74 63.63 115.67 63.5C114.06 63.6 113.34 59.43 114.92 59.02C115.09 58.14 116.73 56.39 116.73 56.22C116.73 55.98 115.83 55.46 116.04 55.29C116.53 54.88 117.23 55.47 117.35 56.03L120.15 54.16C120.85 53.36 121.03 52.69 120.68 52.16L121.27 51.54C121.4 50.29 121.09 48.81 121.25 47.6C121.29 47.33 121.94 44.94 122.04 44.84C122.23 44.64 124.42 44.92 125.01 44.82C125.26 44.84 125.51 44.8 125.76 44.82C121.62 46.81 121.17 52.37 124.64 55.28C118.9 54.48 113 59.75 117.92 64.99C115.23 65.82 115.34 69.79 116.48 71.86L118.3 73.97C117.42 75.22 113.82 72.67 114.94 71.35L114.92 71.34Z" fill="#551101"/>
    <path d="M100.07 60.8C93.76 61.71 94.09 52.5 100.07 53.49C104.02 54.14 104.77 60.12 100.07 60.8Z" fill="#C94E28"/>
    <path d="M109.79 73.49C103.95 74.98 102.04 68.16 106.35 66.69C112.29 64.67 113.83 72.46 109.79 73.49Z" fill="#C94E28"/>
    <path d="M131.1 54.82C124.87 56.25 123.56 48.87 128.27 47.89C134.13 46.67 134.77 53.98 131.1 54.82Z" fill="#C94E28"/>
    <path d="M131.1 57.77C130.84 57.54 130.06 56.27 130.24 56.03C131.21 55.83 132.26 55.54 133.05 54.91C134.98 53.39 134.37 50.48 137.83 52.72C143.14 56.16 135.32 61.56 131.1 57.77Z" fill="#C94E28"/>
    <path d="M115.67 63.4999C113.25 66.9799 107.12 64.0699 108.86 59.8599C109.62 58.0199 114.11 56.2999 114.93 59.0199C114.64 60.5799 114.95 62.1399 115.68 63.4999H115.67Z" fill="#C94E28"/>
    <path d="M126.5 71.34C124.08 75.41 117.63 73.25 119.11 68.24C119.87 65.68 123.24 66.77 125.01 66.48C124.78 68.22 125.3 70.05 126.5 71.34Z" fill="#C94E28"/>
    <path d="M120.15 54.16C118.14 54.34 115.15 54.07 114.62 51.65C113.81 47.99 117.99 46.65 120.86 47.48C120.8 49.07 120.9 50.09 121.27 51.55C121.48 52.38 121.92 52.98 122.02 53.79C121.38 53.73 120.74 54.11 120.15 54.17V54.16Z" fill="#C94E28"/>
    <path d="M135.94 72.3699C132.03 73.1799 127.98 70.4499 130.97 66.6399C131.26 66.4499 134.3 67.8699 135.33 67.9399C136.42 68.0199 138.57 67.2599 139.04 67.9399C140.25 69.7299 137.57 72.0199 135.95 72.3599L135.94 72.3699Z" fill="#C94E28"/>
    <path d="M114.92 71.34C115.46 72.66 117.06 73.47 118.28 73.96C119.27 74.36 120.13 74.83 121.27 74.71C121.56 76.23 120.23 77.44 118.82 77.67C114.64 78.35 111.71 74.59 114.92 71.34Z" fill="#C94E28"/>
    <path d="M116.04 44.07C114.07 45.15 111.41 46.9 110.96 49.29C110.48 51.85 113.27 53.99 113.05 54.15C112.45 54.61 111.08 53.04 110.81 52.66C109.85 51.29 109.34 49.48 109.69 47.8C109.05 47.26 109.25 46.48 110.29 45.46C108.8 44.21 110.17 44.01 111.56 44.07C113.05 44.1 114.56 44.01 116.04 44.07Z" fill="#551101"/>
    <path d="M105.21 55.2799L107.45 55.6599C104.43 58.8399 104.92 63.3399 108.57 65.7399C107.73 65.8299 106.2 64.8799 105.74 64.2799C105.2 63.5799 105.31 62.9699 105 62.4099C104.69 61.8499 103.91 61.5199 103.77 60.9999C103.45 59.7699 105.97 57.0199 105.21 55.2799Z" fill="#581302"/>
    <path d="M145.18 47.43C142.98 48.1 141.66 49.12 140.08 50.74C138.61 49.85 137.05 49.37 135.49 48.71C135.16 48.57 134.02 47.62 135.46 47.8C135.62 47.9 138.77 49.28 138.95 49.24C139.68 49.1 141 46.57 142.55 47.05C143.4 47.21 144.31 47.23 145.17 47.42L145.18 47.43Z" fill="#571000"/>
    <path d="M88.4 74.6999C86.84 73.9999 85.06 74.4199 83.39 74.2999C82.64 74.2399 81.78 73.5799 81.18 73.6699C80.58 73.7599 79.03 75.1299 77.67 75.3599C74.41 75.9099 71.66 75.3799 69.55 72.8099C69.21 72.3999 69.05 71.4599 68.93 71.3799C68.7 71.2099 66.36 71.7299 65.48 71.6799C63.85 71.5799 62 70.3399 61.25 70.2799C60.83 70.2399 58.84 72.0299 57.88 72.3899C54.72 73.5499 51.57 73.2899 48.8 71.3499C47.56 69.8299 46.44 68.0699 47.07 66.0499C44.79 63.8799 43.94 61.5799 44.52 59.1299C46.19 56.7399 45.78 56.8299 44.41 59.0599C44.23 59.3499 43.89 59.4199 43.56 59.3899C43.32 60.2199 42.41 60.6299 40.83 60.6199C42.05 60.6899 42.96 61.0299 43.56 61.6299L43.54 62.1199C41.34 62.1199 40.97 62.2099 42.44 62.3699C40.56 63.3899 38.44 62.4899 36.84 61.6199C34.74 59.6099 33.26 57.3099 32.42 54.6999C30.63 51.1999 37.89 46.4899 39.87 47.8099C40.24 48.0599 39.72 51.6099 39.09 51.9099L38.83 52.6399C36.12 53.6599 36.05 57.1699 39.1 57.8799C40.87 58.2899 43.08 57.8499 42.83 56.0199C38.3 53.4899 38.38 47.6299 43.95 46.6799C45.4 45.2499 48.49 44.6299 50.3 45.5599C51.28 45.7599 52.19 46.0299 52.98 46.6799C53.54 45.9099 54.39 45.4099 55.53 45.1899C57.06 43.8599 60.14 43.4299 61.88 44.4399C62.49 45.2799 62.43 46.4799 61.7 48.0299C61.8 49.7799 61.49 50.4499 60.76 50.0499C60.17 50.0399 59.93 49.6499 60.01 48.8799C57.55 47.5499 55.98 51.7799 55.53 53.4099C56.69 53.8899 56.06 54.7499 55.11 55.2299C55.56 56.1999 55.96 57.8699 55.15 58.6399L54.4 59.3099C42.46 59.7899 53.83 69.6899 57.03 61.6699L57.77 61.2599C57.84 60.7999 58.61 61.5399 58.57 61.4999C55.76 59.0999 54.01 56.3299 57 53.0299C60.35 49.3399 62.26 51.0899 64.12 54.5299C63.87 55.1199 63.27 55.4299 62.34 55.4799C55.19 61.1199 70.66 62.8999 67.64 56.2099C65.95 56.0299 64.9 55.4699 64.5 54.5399L64.72 54.1499C60.63 52.9499 60.26 45.2499 64.87 44.4599C67.66 43.0699 72.02 42.6599 74.96 43.7099C74.05 45.3499 74.17 45.4999 75.33 44.1599L76.83 43.7099C82.85 42.3199 89.44 42.1699 95.51 43.3399C97.78 43.2699 99.27 44.1399 99.99 45.9599C101.3 47.0099 99.95 50.9799 98.12 48.9499C95.53 46.2299 91.66 46.5899 90.19 50.3399L91.02 53.4299L91.74 53.8199C91.35 55.9899 91.86 58.0199 92.86 59.9899C92.76 61.0699 91.73 61.9199 91.02 60.8999L90.24 60.5699C89.59 55.1899 82.47 57.3199 83.74 61.5099C84.66 64.5399 86.25 64.3299 88.58 63.8399C88.89 63.7699 89.21 63.8299 89.52 63.8999C90.21 64.5099 90.24 66.2399 89.52 66.8899L88.74 67.3699C83.23 65.1899 81.18 73.2299 87.7 72.2499L88.4 72.8699C89.37 73.0699 89.22 74.3099 88.4 74.7399V74.6999Z" fill="#7C1703"/>
    <path d="M31.61 52.6599C31.67 52.0499 32.41 50.7999 32.38 50.2499C32.35 49.8399 31.44 50.3099 31.61 49.6699C35.53 47.8499 39.74 47.3999 43.94 46.6799C41.25 47.7199 39.3 50.6099 40.66 53.5099C41.26 54.7899 42.77 55.2299 43.14 55.7199C43.21 55.8099 42.81 56.0099 42.82 56.0299C41.3 57.6899 37.46 53.2999 39.08 51.9199C38.73 50.2799 39.02 49.8099 39.45 48.1899C34.93 48.1299 31.65 52.5499 33.57 56.8699C34.03 57.9099 35.3 58.4499 35.74 59.1999C36.06 59.7499 35.78 60.9599 36.83 61.6399C34.23 60.2299 31.28 55.7799 31.6 52.6699L31.61 52.6599Z" fill="#551404"/>
    <path d="M48.7999 71.3399C44.8599 68.5699 47.14 67.5499 45.99 64.9999C45.92 64.8499 43.9899 62.5499 43.8499 62.4599C43.4699 62.2199 42.8799 62.4199 42.4399 62.3799C41.9499 62.3299 41.44 62.4199 40.95 62.3799V62.0099C41.5 61.7699 43.12 62.4399 43.56 61.6299C42.47 61.5999 42.45 59.4799 43.56 59.3899C43.95 57.5199 44.8799 56.2199 46.9199 56.7799C46.8999 57.9299 45.55 58.3099 45.22 59.3699C44.54 61.5799 45.04 62.9399 46.4 64.5799C47.46 65.8599 48.41 64.9899 47.36 67.3099L48.79 71.3499L48.7999 71.3399Z" fill="#561809"/>
    <path d="M82.14 52.1999C80.43 52.4899 77.98 52.4499 77.35 50.4399C76.22 46.8599 82.83 42.8299 85.79 46.1199C87.92 48.4899 84.66 51.7799 82.15 52.1999H82.14Z" fill="#C94E28"/>
    <path d="M89.52 63.9499C87.22 67.1499 81.07 63.4199 83.47 58.8299C85.68 54.6099 90.81 56.7899 91.01 60.9599C90.37 61.7099 89.91 63.3999 89.52 63.9499Z" fill="#C94E28"/>
    <path d="M48.88 55.9499C43.48 56.6099 41.76 50.3399 46.54 49.0999C53.75 47.2299 55.29 55.1699 48.88 55.9499Z" fill="#C94E28"/>
    <path d="M55.15 58.6398C56.23 58.9298 57.1 59.7998 57.77 61.2598C58.14 67.1098 46.85 66.5798 48.51 61.1498C49.24 58.7398 53.06 58.3098 55.16 58.6498L55.15 58.6398Z" fill="#C94E28"/>
    <path d="M64.1099 54.5299C64.1999 54.1999 64.3299 54.2099 64.4799 54.5299C64.8099 54.5799 67.9099 55.4999 68.0599 55.6199C68.5399 55.9899 68.9899 57.4399 68.9499 58.0599C68.8099 60.1299 66.0999 61.2399 64.2999 61.2799C57.5499 61.4399 58.8199 54.0699 64.1099 54.5299Z" fill="#C94E28"/>
    <path d="M70.1799 54.09C66.8199 54.56 63.5099 50.83 66.1499 48.16C71.4599 42.76 77.0499 53.13 70.1799 54.09Z" fill="#C94E28"/>
    <path d="M67.9401 70.4999C62.3501 70.8699 62.0301 63.6099 66.96 63.1399C72.41 62.6199 72.8701 70.1799 67.9401 70.4999Z" fill="#C94E28"/>
    <path d="M57.4999 71.6399C55.2499 72.1499 52.2599 71.8699 51.1299 69.5699C49.6199 66.4999 53.1299 66.8299 55.0499 66.1999C56.4599 65.7299 56.4799 64.4799 58.2799 65.4199C61.3799 67.0399 60.4599 70.9699 57.5099 71.6399H57.4999Z" fill="#C94E28"/>
    <path d="M78.4099 74.2399C73.2799 75.5499 70.5999 69.3099 75.0499 67.5199C80.7999 65.1999 82.9899 73.0699 78.4099 74.2399Z" fill="#C94E28"/>
    <path d="M89.5199 66.9399C89.6799 67.5699 90.3899 68.0299 90.2099 68.8999C89.9999 69.8899 88.6599 70.7099 88.3999 72.9099C79.9099 74.8999 81.9999 63.4899 89.5199 66.9299V66.9399Z" fill="#C94E28"/>
    <path d="M73.0799 62.7499C72.9099 62.1299 72.2799 61.4799 72.1299 60.8899C71.5299 58.5699 73.4299 56.0299 75.8799 56.0199C78.7299 56.0199 78.1699 57.6299 78.6799 59.7599C79.5199 59.5799 80.2299 63.2399 79.7399 63.5599C77.7599 63.1499 75.7799 63.0799 73.7999 63.3299L73.0699 62.7499H73.0799Z" fill="#C94E28"/>
    <path d="M57.76 61.2499C57.03 60.8099 55.49 59.3799 55.14 58.6299C54.32 56.8699 55.61 55.1699 52.9 55.0799C53.42 54.2899 54.54 54.7199 55.16 54.3299C55.55 54.0899 55.44 53.4699 55.52 53.3899C55.72 51.3899 59.05 48.9999 60.75 50.0299L61.05 49.7799C60.92 47.8299 61.5 46.2699 61.87 44.4199C62.85 44.3399 63.87 44.4799 64.86 44.4199C61.87 46.4099 61.33 49.8899 63.37 52.8199C63.76 53.3899 66.26 54.6399 64.49 54.4999C64.37 54.4799 64.24 54.5099 64.12 54.4999C61.95 53.3399 62.1 50.6599 59.53 51.9699C55.52 54.0199 55.08 58.7799 58.88 61.4099C58.65 61.9299 58.06 61.4099 57.76 61.2199V61.2499Z" fill="#551101"/>
    <path d="M39.08 51.9099C39.52 53.9299 40.72 55.5699 42.82 56.0199C43.04 56.4799 43.63 56.5699 43.94 56.9499C41.55 60.3499 34.79 58.7099 36.27 54.1299C36.56 53.2299 37.98 51.7199 39.09 51.9099H39.08Z" fill="#C94E28"/>
    <path d="M98.11 48.9299C95.13 49.1399 91.87 50.0799 91.01 53.4099C87.22 50.7299 90.82 46.3999 94.6 46.3499C95.78 46.3399 98.35 47.3299 98.1 48.9299H98.11Z" fill="#C94E28"/>
    <path d="M78.6799 59.7599C78.3299 56.1999 79.0599 53.3399 83.1599 53.4099L80.3899 56.4199C78.7999 60.6499 80.5599 63.6099 83.9099 66.0999L82.0399 65.36C81.8699 65.57 82.5399 66.36 82.4099 66.48C81.7299 67.09 81.5799 65.83 81.2999 65.55C78.9999 63.26 75.9999 63.5899 73.0699 64.2399C72.6099 63.6499 73.0799 62.8199 73.0699 62.7499C75.2599 62.0599 77.2499 62.6699 79.4199 63.1199C79.5399 62.9899 78.7999 60.2999 78.6799 59.7599Z" fill="#541201"/>
    <path d="M55.5199 53.41C55.1699 51.3 55.9699 48.59 58.3399 48.2C58.7499 48.13 60.6699 48.09 60.7499 48.18C60.8099 48.25 60.7999 49.94 60.7499 50.05C60.6899 50.19 58.5699 50.87 58.0099 51.23C57.3699 51.64 56.0899 52.83 55.5199 53.41Z" fill="#C94E28"/>
    <path d="M43.56 61.6299C41.97 61.7599 40.06 61.6099 39.08 60.1399L43.56 59.3899C43.46 59.8799 43.68 61.4999 43.56 61.6299Z" fill="#C94E28"/>
    <path d="M50.29 45.5599C52 45.3399 53.81 45.3599 55.52 45.1899C54.67 45.9799 53.54 46.4199 53.65 47.8099C53.44 47.9899 50.68 46.1399 50.29 45.5699V45.5599Z" fill="#5A1302"/>
    <path d="M76.8101 43.6899C75.7601 44.4899 74.8801 45.2199 74.9401 46.6799C73.9301 45.9099 73.6501 44.7399 72.3301 44.2499L74.9501 43.6899C75.5701 43.6599 76.2001 43.7099 76.8201 43.6899H76.8101Z" fill="#591101"/>
    <path d="M103.71 50.79C102.84 49.84 100.83 49.41 100.73 49.28C99.88 48.12 102.8 44.73 104.1 44.27C104.63 44.08 107.25 43.73 107.82 43.69C109.27 43.6 110.69 44.05 111.56 44.06L110.07 44.43L111.56 45.36C110.99 45.91 109.85 47.06 109.69 47.79C107.33 46.23 103.54 47.71 103.71 50.78V50.79Z" fill="#7C1703"/>
    <path d="M88.66 47.4501C88.29 47.0501 87.8 45.8101 87.28 45.3601C85.36 43.6601 87.89 41.1501 89.99 40.6701C91.12 40.4101 92.98 40.3101 92.85 41.6701C93.5 42.1101 93.83 42.9501 93.85 44.2001C94.39 45.0301 94.62 45.7501 94.55 46.3501C94.04 49.0701 90.29 49.2101 88.66 47.4401V47.4501Z" fill="#C94E28"/>
    <path d="M78.59 76.14C75.03 73.24 74.47 68.69 77.01 64.85C74.69 62.26 75.17 58.31 77.87 56.2C71.13 48.26 82.53 40.09 88.66 47.44C89.79 47.56 90.95 47.69 92.14 47.8C92.99 47.26 93.79 46.78 94.55 46.34C94.74 46.19 94.91 46.08 94.99 46.13C97.4 47.45 96.62 48.47 94.94 46.08C92.08 42.03 94.51 38.52 98.7 37.18C101.07 35.82 105.18 35.73 107.69 36.84C107.28 37.61 106.26 37.8 105.37 37.84C104.93 39.76 104.99 41.72 105.28 43.67L104.79 43.96C103.78 43.58 103.22 42.48 103.1 40.64C97.58 40.47 96.88 47.03 103.21 46.07L103.99 46.69L104.17 47.52C102.43 48.73 100.83 49.85 100.18 51.97L99.38 52.14C91.4 49.94 93.31 61.13 99.85 56.42L100.67 56.5C100.91 55.64 102.11 57 102.16 57.39C102.21 57.81 100.33 59.59 99.83 59.94C100.84 60.89 101.4 63.24 100.88 64.37L101.23 65.17C98.56 69.3 105.4 71.56 106.95 67.79C105.46 67.89 104.66 67.48 104.54 66.57C101.44 65.39 100.1 62.28 100.84 59.18C101.83 58.04 102.42 57.18 101.07 56.16C98.15 51.87 102.36 47.63 106.53 46.71C104.99 43.38 103.52 37.99 108.46 36.74C111.05 35.49 114.89 35.56 117.5 36.77C118.44 36.79 118.9 37.75 118.47 38.53C118.08 39.34 122.81 40.11 123.18 40.02C124.38 38.2 125.84 37.14 128.07 36.99C129.14 35.75 135.46 37.01 136.21 37.9C136.69 38.46 136.12 39.24 135.64 39.69C135.78 40.91 135.78 42.21 135.64 43.6C135.29 46.39 134.69 49.18 131.59 50.33C130.9 50.59 129.07 50.7 128.99 50.81C128.92 50.91 129.11 52.35 128.87 53.24C128.4 54.97 126.57 56.01 126.37 56.48C125.86 57.69 127.03 59.27 125.19 61.43C122.38 64.74 118.62 64.99 114.76 63.83C112.35 63.05 111.25 60.46 111.17 58.73L110.33 58.34L110.08 59.16C101.14 58.47 106.63 68.83 111.55 63.01L112.4 62.98C113.05 62.44 113.59 62.89 113.23 63.63C113.11 65.44 109.83 66.03 109.5 66.41C109.39 66.53 109.4 67.66 109.08 68.26C107.37 71.51 103.9 71.92 100.65 71.55C99.01 71.05 97.45 70.49 96.89 68.69L96.12 68.34C94.01 68.83 91.04 69.14 88.99 68.45C89.52 74.34 84.24 79.13 78.62 76.1L78.59 76.14Z" fill="#7C1703"/>
    <path d="M74.9499 70.9401C74.8499 70.3901 74.7299 69.6201 74.7299 69.0901C73.7799 68.2801 73.9699 66.9001 75.2799 64.9501C74.8199 64.0701 74.7699 63.4201 75.1299 63.0201C74.7199 61.9501 74.3799 61.2401 74.7699 60.0501C73.8099 59.3201 74.6199 56.7401 75.8899 56.9001C76.0799 56.6201 76.9499 56.6001 76.9599 56.1701C76.9599 55.9301 75.1399 52.0301 74.9299 51.9201C74.5099 51.7001 72.9499 51.9501 72.0399 51.7501C70.3799 51.3701 69.3699 50.0201 67.8899 49.9701L69.5599 48.2701C69.9299 50.5801 73.0699 51.7601 75.2099 51.3501C75.3199 51.2101 74.9299 49.9301 74.9799 49.4901C73.5099 47.6601 76.2699 45.4201 77.8999 44.5601C78.8499 44.0601 80.9199 43.0601 81.4899 44.1901C84.2299 43.6601 82.5599 43.2301 82.9799 41.0001C81.1599 38.8001 84.4999 38.1201 86.4199 38.3201C87.7699 38.1101 89.1499 38.0201 90.4999 37.8301L90.2399 38.6501C87.2399 38.9801 85.2599 40.5601 84.6499 43.6001C86.1699 43.6801 87.0399 44.2701 87.2699 45.3701C88.2399 44.6101 89.4599 46.6601 88.6499 47.4601L85.6799 45.4701C77.4299 43.6301 72.5799 52.5201 80.4099 57.1101C78.2399 56.5901 77.7099 56.5301 76.7699 58.7901C75.2899 62.3701 76.9199 65.1401 80.6999 65.7401C80.3999 66.9201 78.2799 65.3201 77.8299 65.4201C77.4299 65.5001 76.3999 67.6501 76.2799 68.1501C75.7599 70.3101 76.2299 72.6101 77.3399 74.5101C77.6899 75.1001 79.0599 75.6301 78.5699 76.1501C76.3099 74.9301 75.3899 73.3901 74.9299 70.9501L74.9499 70.9401Z" fill="#551201"/>
    <path d="M113.2 63.66C113.2 63.66 112.5 63.12 112.37 63.01C110.68 63.74 108.66 59.16 110.3 58.37C110.92 58.19 111.29 57.33 112.06 57.41L112.19 60.88L114.73 63.86C114.3 63.73 113.51 63.82 113.2 63.67V63.66Z" fill="#571302"/>
    <path d="M96.0898 68.3801C96.1498 68.3701 96.7998 67.6101 97.1498 67.8701C97.2698 67.9601 97.8398 70.1401 98.6498 70.4601L100.61 71.5901C98.3798 71.3401 96.8198 70.7601 96.0798 68.3801H96.0898Z" fill="#501E10"/>
    <path d="M133.07 48.35C129.76 51.85 123.82 46.58 126.81 42.61C130.44 37.78 136.63 44.58 133.07 48.35Z" fill="#C94E28"/>
    <path d="M85.1599 64.36C79.8799 65.93 77.7599 59.79 82.3699 57.8C89.2599 54.83 91.6999 62.42 85.1599 64.36Z" fill="#C94E28"/>
    <path d="M84.6199 75.4C82.1399 76.24 79.1899 74.05 79.2299 71.54C79.2499 70.46 80.1799 68.14 81.2099 67.7C87.0699 65.19 89.3799 73.79 84.6199 75.4Z" fill="#C94E28"/>
    <path d="M112.87 55.6801C111.29 57.4901 107.55 57.9601 105.54 56.5201C101.62 53.7001 107.58 48.1701 112.18 51.0401C113.66 51.9601 113.98 54.4001 112.87 55.6801Z" fill="#C94E28"/>
    <path d="M124.48 56.56C116.49 59.06 115.79 50.09 123.4 50C128.07 49.94 128.58 55.28 124.48 56.56Z" fill="#C94E28"/>
    <path d="M100.87 64.41C100.46 63.68 100.38 62.26 100.02 61.42C99.77 60.83 98.93 60.27 98.82 59.95C98.73 59.7 101.46 57.91 101.51 57.35C101.57 56.71 100.75 56.66 100.66 56.54C99.07 56.83 97.86 52.78 99.38 52.18C99.44 51.28 100.86 49.35 100.84 49.18C100.81 48.94 99.86 48.53 100.04 48.34C100.48 47.88 101.25 48.38 101.43 48.92L103.99 46.73C104.59 45.85 104.69 45.17 104.28 44.68L104.79 43.99C104.76 42.73 104.28 41.3 104.3 40.08C104.3 39.81 104.66 37.36 104.75 37.25C104.92 37.03 107.12 37.05 107.69 36.87C107.94 36.87 108.19 36.79 108.43 36.78C104.55 39.25 104.78 44.83 108.58 47.3C102.78 47.2 97.57 53.14 103.07 57.75C100.5 58.9 101.08 62.83 102.46 64.74L104.52 66.61C103.8 67.96 99.91 65.86 100.87 64.42V64.41Z" fill="#551101"/>
    <path d="M84.8599 55.73C78.7099 57.4 77.9199 48.21 83.9799 48.47C87.9799 48.64 89.4499 54.48 84.8599 55.73Z" fill="#C94E28"/>
    <path d="M96.0299 67.16C90.4099 69.34 87.6999 62.8 91.7899 60.82C97.4499 58.09 99.9099 65.64 96.0299 67.16Z" fill="#C94E28"/>
    <path d="M114.94 46.06C108.93 48.23 106.74 41.06 111.3 39.52C116.97 37.61 118.49 44.78 114.94 46.06Z" fill="#C94E28"/>
    <path d="M115.3 48.9901C115.01 48.7901 114.09 47.6201 114.23 47.3601C115.17 47.0401 116.17 46.6301 116.89 45.9101C118.62 44.1701 117.67 41.3501 121.38 43.1601C127.07 45.9301 119.95 52.2401 115.31 48.9801L115.3 48.9901Z" fill="#C94E28"/>
    <path d="M100.67 56.53C98.69 60.28 92.26 58.13 93.47 53.74C94 51.82 98.26 49.57 99.39 52.17C99.29 53.75 99.78 55.26 100.67 56.53Z" fill="#C94E28"/>
    <path d="M112.37 63.01C110.45 67.34 103.79 65.97 104.66 60.82C105.1 58.18 108.58 58.86 110.3 58.37C110.28 60.12 111.02 61.88 112.37 63.01Z" fill="#C94E28"/>
    <path d="M104 46.7201C102.02 47.1501 99.03 47.2301 98.21 44.8901C96.97 41.3501 100.95 39.5201 103.9 40.0001C104.03 41.5801 104.25 42.5801 104.8 43.9901C105.11 44.7901 105.62 45.3301 105.81 46.1201C105.17 46.1401 104.58 46.6001 104 46.7201Z" fill="#C94E28"/>
    <path d="M121.87 62.9C118.09 64.18 113.74 61.95 116.25 57.81C116.52 57.59 119.7 58.63 120.73 58.58C121.82 58.53 123.87 57.52 124.41 58.14C125.83 59.77 123.44 62.37 121.87 62.9Z" fill="#C94E28"/>
    <path d="M100.87 64.41C101.57 65.66 103.25 66.27 104.52 66.6C105.55 66.87 106.47 67.24 107.58 66.98C108.05 68.45 106.88 69.82 105.5 70.22C101.43 71.4 98.0698 68.02 100.86 64.41H100.87Z" fill="#C94E28"/>
    <path d="M98.6999 37.2001C96.8699 38.5101 94.4499 40.5701 94.2899 42.9901C94.1199 45.5901 97.1499 47.3801 96.9499 47.5701C96.4099 48.1001 94.8599 46.7101 94.5499 46.3601C93.4299 45.1101 92.7099 43.3801 92.8499 41.6701C92.1499 41.2101 92.2499 40.4101 93.1599 39.2701C91.5299 38.2101 92.8599 37.8401 94.2499 37.7401C95.7299 37.5901 97.2199 37.3101 98.6999 37.2001Z" fill="#551101"/>
    <path d="M89.2998 49.63L91.5698 49.73C88.9498 53.25 89.9798 57.65 93.8998 59.6C93.0798 59.79 91.4498 59.04 90.9098 58.49C90.2898 57.86 90.3298 57.24 89.9498 56.72C89.5698 56.2 88.7598 55.97 88.5598 55.47C88.0998 54.29 90.2598 51.26 89.2998 49.62V49.63Z" fill="#581302"/>
    <path d="M128.03 37.03C125.93 37.96 124.73 39.13 123.37 40.93C121.8 40.23 120.19 39.94 118.57 39.47C118.22 39.37 116.98 38.56 118.43 38.57C118.6 38.65 121.89 39.64 122.07 39.58C122.78 39.35 123.78 36.68 125.38 36.97C126.24 37.03 127.15 36.94 128.02 37.03H128.03Z" fill="#571000"/>
    <path d="M74.95 70.9401C73.32 70.4301 71.6 71.0701 69.93 71.1401C69.18 71.1701 68.24 70.6101 67.66 70.7801C67.08 70.9501 65.7 72.4901 64.38 72.8801C61.21 73.8201 58.42 73.6201 56.02 71.3301C55.64 70.9601 55.36 70.0501 55.24 69.9801C54.99 69.8401 52.73 70.6401 51.85 70.6901C50.22 70.7901 48.24 69.7801 47.48 69.8101C47.06 69.8201 45.3 71.8401 44.39 72.3101C41.4 73.8501 38.23 73.9601 35.26 72.3701C33.84 71.0101 32.52 69.3901 32.91 67.3201C30.38 65.4401 29.26 63.2501 29.55 60.7601C30.92 58.1801 30.53 58.3201 29.44 60.7101C29.3 61.0201 28.97 61.1301 28.64 61.1401C28.5 61.9901 27.64 62.5101 26.08 62.6901C27.3 62.6201 28.24 62.8401 28.91 63.3701L28.95 63.8601C26.77 64.1301 26.41 64.2601 27.88 64.2401C26.13 65.4801 23.92 64.8401 22.23 64.1701C19.9 62.4301 18.16 60.3201 17.01 57.8401C14.81 54.5801 21.45 49.0301 23.57 50.1001C23.97 50.3001 23.88 53.8901 23.29 54.2601L23.12 55.0201C20.55 56.3601 20.9 59.8501 24.02 60.1901C25.83 60.3901 27.96 59.6801 27.49 57.8901C22.69 55.9201 22.07 50.1001 27.48 48.4801C28.75 46.8801 31.74 45.9001 33.65 46.6001C34.64 46.6901 35.59 46.8401 36.45 47.3901C36.91 46.5501 37.7 45.9601 38.8 45.6001C40.16 44.1001 43.16 43.3001 45.01 44.0901C45.72 44.8501 45.8 46.0501 45.27 47.6701C45.58 49.3901 45.35 50.1001 44.57 49.7901C43.99 49.8501 43.69 49.4901 43.69 48.7201C41.08 47.7001 40.03 52.0901 39.78 53.7601C40.99 54.1001 40.47 55.0201 39.58 55.6101C40.14 56.5201 40.74 58.1201 40.03 58.9901L39.36 59.7401C27.57 61.6501 40.05 70.1101 42.25 61.7701L42.94 61.2701C42.95 60.8001 43.8 61.4401 43.76 61.4201C40.68 59.3801 38.61 56.8301 41.18 53.2001C44.06 49.1301 46.17 50.6501 48.43 53.8301C48.25 54.4401 47.7 54.8301 46.78 54.9801C40.36 61.4401 55.94 61.3401 52.13 55.0601C50.43 55.0901 49.33 54.6601 48.81 53.7801L48.98 53.3601C44.78 52.6601 43.48 45.0601 47.96 43.7201C50.56 42.0101 54.84 41.0701 57.88 41.7601C57.17 43.4901 57.31 43.6301 58.3 42.1601L59.73 41.5301C65.54 39.4301 72.06 38.4801 78.23 38.9101C80.47 38.5701 82.06 39.2501 83 40.9701C84.42 41.8501 83.56 45.9601 81.51 44.1601C78.61 41.7701 74.82 42.6001 73.81 46.4901L75.01 49.4601L75.77 49.7601C75.64 51.9601 76.39 53.9201 77.62 55.7501C77.66 56.8401 76.73 57.8001 75.91 56.8801L75.1 56.6401C73.81 51.3701 66.99 54.3501 68.76 58.3501C70.04 61.2401 71.59 60.8501 73.85 60.0701C74.15 59.9701 74.48 59.9801 74.79 60.0101C75.55 60.5301 75.79 62.2401 75.15 62.9801L74.43 63.5501C68.7 62.0501 67.63 70.2701 73.98 68.5201L74.75 69.0501C75.74 69.1401 75.74 70.3801 74.97 70.9001L74.95 70.9401Z" fill="#7C1703"/>
    <path d="M15.92 55.9001C15.91 55.2901 16.5 53.9601 16.39 53.4201C16.32 53.0201 15.46 53.5901 15.56 52.9401C19.24 50.6601 23.36 49.7001 27.44 48.4801C24.89 49.8401 23.31 52.9401 25.01 55.6501C25.76 56.8501 27.31 57.1101 27.74 57.5401C27.82 57.6201 27.44 57.8601 27.45 57.8801C26.14 59.7101 21.8 55.8101 23.25 54.2501C22.7 52.6701 22.94 52.1701 23.17 50.5001C18.67 50.9901 15.95 55.7601 18.38 59.8201C18.97 60.8001 20.28 61.1801 20.81 61.8701C21.2 62.3801 21.07 63.6101 22.19 64.1601C19.44 63.0701 15.97 59.0101 15.92 55.8901V55.9001Z" fill="#551404"/>
    <path d="M35.2299 72.3701C30.9799 70.1001 33.1299 68.8101 31.6799 66.4101C31.5899 66.2701 29.3999 64.2201 29.2499 64.1501C28.8399 63.9601 28.2799 64.2301 27.8399 64.2401C27.3499 64.2401 26.8499 64.4001 26.3599 64.4201L26.3199 64.0601C26.8299 63.7501 28.5299 64.2301 28.8699 63.3701C27.7899 63.4701 27.5099 61.3601 28.5999 61.1401C28.7599 59.2401 29.5299 57.8401 31.6199 58.1401C31.7399 59.2801 30.4399 59.8201 30.2499 60.9201C29.8399 63.2001 30.4999 64.4801 32.0499 65.9501C33.2599 67.0901 34.0999 66.1201 33.3299 68.5401L35.2299 72.3801V72.3701Z" fill="#561809"/>
    <path d="M66.0299 49.3501C64.3699 49.8401 61.9299 50.1001 61.0599 48.1801C59.5099 44.7601 65.5799 39.9601 68.9199 42.8701C71.3199 44.9601 68.4799 48.6201 66.0299 49.3501Z" fill="#C94E28"/>
    <path d="M74.7599 60.13C72.8599 63.58 66.3099 60.62 68.1399 55.78C69.8199 51.33 75.1899 52.87 75.8899 56.99C75.3399 57.81 75.0899 59.55 74.7699 60.14L74.7599 60.13Z" fill="#C94E28"/>
    <path d="M33.4599 57.08C28.1799 58.38 25.7199 52.37 30.3099 50.56C37.2399 47.83 39.7299 55.53 33.4599 57.08Z" fill="#C94E28"/>
    <path d="M40 59C41.1 59.16 42.07 59.92 42.91 61.28C43.98 67.04 32.71 67.88 33.7 62.29C34.14 59.81 37.88 58.92 40 59Z" fill="#C94E28"/>
    <path d="M48.4099 53.84C48.4599 53.5 48.5899 53.49 48.7799 53.8C49.1199 53.81 52.3099 54.35 52.4699 54.45C52.9999 54.76 53.6199 56.14 53.6499 56.77C53.7599 58.84 51.1999 60.27 49.4199 60.53C42.7399 61.5 43.1099 54.03 48.4099 53.85V53.84Z" fill="#C94E28"/>
    <path d="M54.3799 52.67C51.0999 53.54 47.3699 50.24 49.6599 47.27C54.2799 41.27 61.0799 50.89 54.3799 52.67Z" fill="#C94E28"/>
    <path d="M54.1399 69.23C48.6399 70.27 47.4499 63.1 52.2799 62.04C57.6199 60.87 58.9899 68.31 54.1399 69.23Z" fill="#C94E28"/>
    <path d="M43.9 71.62C41.73 72.4 38.72 72.48 37.32 70.33C35.45 67.46 38.98 67.37 40.81 66.51C42.15 65.88 42.02 64.63 43.92 65.35C47.19 66.59 46.75 70.6 43.9 71.62Z" fill="#C94E28"/>
    <path d="M64.9699 71.68C60.0399 73.6 56.6299 67.73 60.8199 65.41C66.2499 62.41 69.3699 69.96 64.9699 71.68Z" fill="#C94E28"/>
    <path d="M75.12 63.1001C75.35 63.7001 76.11 64.0801 76.04 64.9701C75.95 65.9801 74.72 66.9601 74.73 69.1701C66.54 72.1701 67.24 60.5901 75.12 63.1001Z" fill="#C94E28"/>
    <path d="M58.2999 60.92C58.0599 60.33 57.3499 59.76 57.1299 59.19C56.2599 56.96 57.8299 54.2 60.2699 53.9C63.0999 53.55 62.7399 55.23 63.4999 57.28C64.3199 57 65.4499 60.55 65.0099 60.92C62.9899 60.76 61.0199 60.92 59.0899 61.41L58.2999 60.92Z" fill="#C94E28"/>
    <path d="M42.92 61.28C42.14 60.93 40.44 59.69 40.01 59C38.99 57.35 40.06 55.51 37.36 55.75C37.78 54.9 38.95 55.19 39.51 54.74C39.86 54.46 39.68 53.85 39.75 53.77C39.71 51.76 42.73 48.99 44.54 49.8L44.81 49.52C44.45 47.6 44.83 45.98 44.98 44.1C45.95 43.91 46.98 43.92 47.95 43.74C45.23 46.08 45.1 49.6 47.48 52.26C47.94 52.77 50.57 53.72 48.79 53.8C48.67 53.8 48.54 53.84 48.42 53.84C46.12 52.95 45.96 50.27 43.56 51.88C39.82 54.4 39.96 59.18 44.06 61.33C43.9 61.88 43.25 61.42 42.93 61.28H42.92Z" fill="#551101"/>
    <path d="M23.2499 54.26C23.9299 56.22 25.3199 57.69 27.4499 57.89C27.7199 58.32 28.3199 58.34 28.6699 58.68C26.7099 62.35 19.7999 61.53 20.7099 56.8C20.8899 55.87 22.1199 54.2 23.2399 54.25L23.2499 54.26Z" fill="#C94E28"/>
    <path d="M81.4799 44.18C78.5499 44.75 75.4299 46.07 74.9699 49.49C70.8899 47.29 73.9299 42.55 77.6899 42.05C78.8599 41.89 81.5299 42.57 81.4799 44.19V44.18Z" fill="#C94E28"/>
    <path d="M63.5 57.2701C62.73 53.7801 63.11 50.8501 67.18 50.4301L64.79 53.7501C63.72 58.1401 65.82 60.8701 69.45 62.9401L67.51 62.4301C67.36 62.6601 68.12 63.3701 68.01 63.4901C67.4 64.1801 67.11 62.9401 66.8 62.7001C64.24 60.7001 61.31 61.3901 58.48 62.3901C57.95 61.8601 58.32 60.9801 58.29 60.9101C60.39 59.9601 62.43 60.3301 64.64 60.5101C64.74 60.3701 63.69 57.7801 63.5 57.2601V57.2701Z" fill="#541201"/>
    <path d="M39.75 53.7601C39.15 51.7101 39.62 48.9201 41.93 48.2501C42.33 48.1301 44.23 47.8601 44.32 47.9401C44.39 48.0001 44.58 49.6801 44.54 49.8001C44.49 49.9401 42.47 50.8701 41.96 51.3001C41.38 51.7901 40.25 53.1201 39.75 53.7701V53.7601Z" fill="#C94E28"/>
    <path d="M28.87 63.36C27.31 63.68 25.4 63.76 24.24 62.42L28.6 61.13C28.56 61.63 28.98 63.21 28.87 63.36Z" fill="#C94E28"/>
    <path d="M33.61 46.6001C35.29 46.1801 37.08 45.9801 38.76 45.6001C38.01 46.4901 36.94 47.0601 37.22 48.4201C37.04 48.6301 34.07 47.1201 33.62 46.6001H33.61Z" fill="#5A1302"/>
    <path d="M59.7201 41.55C58.7801 42.47 57.9901 43.3001 58.2201 44.7401C57.1201 44.1001 56.7001 42.97 55.3301 42.64L57.8601 41.7701C58.4701 41.6701 59.1001 41.64 59.7101 41.55H59.7201Z" fill="#591101"/>
    <path d="M87.2699 45.36C86.2999 44.52 84.2499 44.34 84.1299 44.22C83.1399 43.17 85.6299 39.46 86.8699 38.84C87.3699 38.59 89.9299 37.92 90.4899 37.82C91.9099 37.56 93.3799 37.83 94.2399 37.74L92.7999 38.29L94.3899 39.04C93.8899 39.65 92.8899 40.93 92.8299 41.68C90.2999 40.42 86.7199 42.34 87.2599 45.37L87.2699 45.36Z" fill="#7C1703"/>
    <path d="M71.5099 66.22C71.8299 66.66 72.1599 67.95 72.6299 68.46C74.3399 70.38 71.5099 72.56 69.3699 72.79C68.2199 72.91 66.3599 72.79 66.6499 71.45C66.0599 70.94 65.8299 70.06 65.9599 68.82C65.5199 67.93 65.3799 67.19 65.5299 66.6C66.3699 63.96 70.0999 64.27 71.5099 66.23V66.22Z" fill="#C94E28"/>
    <path d="M84.96 38.95C88.15 42.26 88.15 46.85 85.17 50.35C87.16 53.2 86.21 57.06 83.27 58.83C89.01 67.52 76.7 74.26 71.5 66.22C70.4 65.96 69.26 65.7 68.09 65.44C67.19 65.87 66.33 66.26 65.52 66.59C65.31 66.72 65.13 66.8 65.05 66.75C62.81 65.14 63.71 64.23 65.09 66.81C67.44 71.18 64.61 74.37 60.28 75.19C57.77 76.26 53.67 75.85 51.31 74.44C51.81 73.72 52.84 73.66 53.73 73.73C54.4 71.87 54.58 69.92 54.52 67.95L55.04 67.72C55.99 68.22 56.42 69.38 56.32 71.22C61.78 72.05 63.27 65.63 56.86 65.81L56.16 65.1L56.08 64.25C57.95 63.25 59.68 62.34 60.58 60.31L61.39 60.24C69.05 63.39 68.5 52.04 61.44 55.94L60.64 55.76C60.3 56.59 59.27 55.09 59.27 54.7C59.27 54.28 61.35 52.74 61.89 52.45C61 51.38 60.73 48.98 61.38 47.92L61.13 47.09C64.28 43.31 57.76 40.25 55.77 43.81C57.26 43.89 58.01 44.39 58.02 45.31C60.95 46.85 61.91 50.1 60.81 53.09C59.69 54.1 59 54.89 60.22 56.06C62.61 60.67 57.91 64.37 53.66 64.79C54.79 68.28 55.6 73.81 50.54 74.45C47.82 75.38 44.02 74.84 41.57 73.33C40.63 73.2 40.3 72.19 40.82 71.46C41.31 70.71 36.71 69.37 36.32 69.41C34.91 71.08 33.33 71.95 31.1 71.83C29.89 72.93 23.77 70.92 23.13 69.95C22.72 69.33 23.38 68.63 23.91 68.24C23.91 67.02 24.07 65.72 24.38 64.35C25.07 61.63 25.99 58.92 29.21 58.16C29.93 57.99 31.76 58.09 31.85 58C31.93 57.91 31.91 56.46 32.26 55.61C32.94 53.95 34.88 53.13 35.13 52.69C35.78 51.55 34.81 49.84 36.9 47.92C40.09 44.97 43.85 45.18 47.54 46.8C49.84 47.87 50.62 50.57 50.49 52.29L51.28 52.77L51.63 51.98C60.42 53.74 56.22 42.79 50.63 47.98L49.79 47.91C49.08 48.37 48.6 47.86 49.04 47.16C49.37 45.38 52.7 45.18 53.08 44.85C53.2 44.75 53.33 43.63 53.72 43.06C55.8 40.04 59.31 40.05 62.49 40.81C64.06 41.5 65.54 42.25 65.88 44.11L66.6 44.55C68.75 44.31 71.74 44.36 73.69 45.3C73.88 39.39 79.69 35.27 84.9 38.95H84.96Z" fill="#7C1703"/>
    <path d="M87.95 44.5499C87.99 45.1099 88.01 45.8799 87.95 46.4199C88.79 47.3399 88.44 48.6899 86.91 50.4599C87.26 51.3899 87.23 52.04 86.83 52.4C87.11 53.51 87.36 54.2499 86.83 55.3899C87.7 56.2299 86.58 58.7 85.34 58.38C85.12 58.64 84.25 58.5499 84.19 58.9799C84.16 59.2099 85.5 63.3099 85.69 63.4399C86.08 63.7099 87.66 63.6499 88.53 63.9599C90.14 64.5399 90.97 66 92.43 66.23L90.57 67.72C90.48 65.38 87.5 63.8399 85.34 63.9799C85.21 64.1099 85.45 65.4299 85.34 65.8499C86.58 67.8499 83.57 69.7399 81.85 70.3899C80.84 70.7699 78.68 71.51 78.24 70.33C75.46 70.53 77.06 71.16 76.37 73.32C77.91 75.72 74.51 75.9899 72.63 75.5599C71.27 75.6099 69.89 75.5299 68.52 75.5599L68.87 74.7799C71.89 74.8099 74.04 73.48 75.02 70.54C73.52 70.28 72.73 69.5899 72.63 68.4599C71.57 69.0899 70.61 66.91 71.51 66.22L74.22 68.55C82.19 71.37 88.07 63.13 80.85 57.63C82.94 58.41 83.46 58.53 84.66 56.4C86.56 53.02 85.27 50.0699 81.59 49.0299C82.03 47.8899 83.94 49.73 84.4 49.7C84.81 49.67 86.09 47.6599 86.26 47.1699C87.03 45.0899 86.84 42.7399 85.97 40.7299C85.7 40.0999 84.39 39.41 84.95 38.95C87.05 40.43 87.78 42.0699 87.94 44.5499H87.95Z" fill="#551201"/>
    <path d="M49.1 47.1699C49.1 47.1699 49.73 47.7899 49.85 47.9199C51.62 47.3999 53.07 52.1899 51.34 52.7799C50.7 52.8799 50.23 53.6899 49.47 53.5299L49.76 50.0699L47.6 46.8099C48.01 46.9899 48.8 46.9999 49.09 47.1799L49.1 47.1699Z" fill="#571302"/>
    <path d="M66.6601 44.5499C66.6001 44.5499 65.8701 45.2299 65.5401 44.9199C65.4301 44.8199 65.1301 42.5799 64.3601 42.1699L62.55 40.8099C64.73 41.3299 66.2101 42.0899 66.6601 44.5499Z" fill="#501E10"/>
    <path d="M27.53 59.98C31.24 56.9 36.5 62.85 33.05 66.43C28.86 70.78 23.54 63.29 27.53 59.98Z" fill="#C94E28"/>
    <path d="M77.0199 49.86C82.4499 48.94 83.8199 55.29 78.9999 56.71C71.7999 58.83 70.2899 51 77.0199 49.86Z" fill="#C94E28"/>
    <path d="M78.8801 38.95C81.4501 38.41 84.1101 40.94 83.7601 43.43C83.6101 44.5 82.4001 46.69 81.3301 47C75.2101 48.79 73.9601 39.97 78.8801 38.95Z" fill="#C94E28"/>
    <path d="M48.47 55.1299C50.26 53.5199 54.02 53.4999 55.84 55.1799C59.39 58.4499 52.81 63.2299 48.59 59.8199C47.23 58.7199 47.21 56.2599 48.47 55.1299Z" fill="#C94E28"/>
    <path d="M37.04 52.86C45.27 51.34 44.89 60.33 37.32 59.5C32.68 58.99 32.82 53.64 37.04 52.86Z" fill="#C94E28"/>
    <path d="M61.43 47.91C61.75 48.68 61.66 50.1 61.91 50.98C62.08 51.59 62.85 52.26 62.92 52.58C62.98 52.84 60.05 54.29 59.94 54.84C59.81 55.47 60.61 55.62 60.68 55.75C62.29 55.65 63.01 59.82 61.43 60.23C61.26 61.11 59.62 62.86 59.62 63.03C59.62 63.27 60.52 63.79 60.31 63.96C59.82 64.37 59.12 63.78 59 63.22L56.2 65.09C55.5 65.89 55.32 66.56 55.67 67.09L55.08 67.71C54.95 68.96 55.26 70.44 55.1 71.65C55.06 71.92 54.41 74.31 54.31 74.41C54.12 74.61 51.93 74.33 51.34 74.43C51.09 74.41 50.84 74.45 50.59 74.43C54.73 72.44 55.18 66.88 51.71 63.97C57.45 64.77 63.35 59.5 58.43 54.26C61.12 53.43 61.01 49.46 59.87 47.39L58.05 45.28C58.93 44.03 62.53 46.58 61.41 47.9L61.43 47.91Z" fill="#551101"/>
    <path d="M76.2801 58.46C82.5901 57.55 82.2601 66.76 76.2801 65.77C72.3301 65.12 71.5801 59.14 76.2801 58.46Z" fill="#C94E28"/>
    <path d="M66.5601 45.77C72.4001 44.28 74.3101 51.1 70.0001 52.57C64.0601 54.59 62.5201 46.8 66.5601 45.77Z" fill="#C94E28"/>
    <path d="M45.2501 64.4299C51.4801 62.9999 52.7901 70.3799 48.0801 71.3599C42.2201 72.5799 41.5801 65.2699 45.2501 64.4299Z" fill="#C94E28"/>
    <path d="M45.24 61.48C45.5 61.71 46.28 62.98 46.1 63.22C45.13 63.42 44.08 63.71 43.29 64.34C41.36 65.86 41.97 68.77 38.51 66.53C33.2 63.09 41.02 57.69 45.24 61.48Z" fill="#C94E28"/>
    <path d="M60.6799 55.7599C63.0999 52.2799 69.2299 55.1899 67.4899 59.3999C66.7299 61.2399 62.2399 62.9599 61.4199 60.2399C61.7099 58.6799 61.3999 57.1199 60.6699 55.7599H60.6799Z" fill="#C94E28"/>
    <path d="M49.84 47.91C52.26 43.84 58.71 46 57.23 51.01C56.47 53.57 53.1 52.48 51.33 52.77C51.56 51.03 51.04 49.2 49.84 47.91Z" fill="#C94E28"/>
    <path d="M56.1901 65.1C58.2001 64.92 61.1901 65.19 61.7201 67.61C62.5301 71.27 58.3501 72.61 55.4801 71.78C55.5401 70.19 55.4401 69.17 55.0701 67.71C54.8601 66.88 54.4201 66.28 54.3201 65.47C54.9601 65.53 55.6001 65.15 56.1901 65.09V65.1Z" fill="#C94E28"/>
    <path d="M40.4 46.88C44.31 46.07 48.36 48.8 45.37 52.61C45.08 52.8 42.04 51.38 41.01 51.31C39.92 51.23 37.77 51.99 37.3 51.31C36.09 49.52 38.77 47.23 40.39 46.89L40.4 46.88Z" fill="#C94E28"/>
    <path d="M61.4299 47.91C60.8899 46.59 59.2899 45.78 58.0699 45.29C57.0799 44.89 56.2199 44.42 55.0799 44.54C54.7899 43.02 56.1199 41.81 57.5299 41.58C61.7099 40.9 64.6399 44.66 61.4299 47.91Z" fill="#C94E28"/>
    <path d="M60.3 75.19C62.27 74.11 64.93 72.36 65.38 69.97C65.86 67.41 63.0701 65.27 63.2901 65.11C63.8901 64.65 65.26 66.22 65.53 66.6C66.49 67.97 67.0001 69.78 66.6501 71.46C67.2901 72 67.0901 72.78 66.0501 73.8C67.5401 75.05 66.17 75.25 64.78 75.19C63.29 75.16 61.78 75.25 60.3 75.19Z" fill="#551101"/>
    <path d="M71.14 63.98L68.9 63.6C71.92 60.42 71.43 55.92 67.78 53.52C68.62 53.43 70.15 54.38 70.61 54.98C71.15 55.68 71.04 56.29 71.35 56.85C71.66 57.41 72.44 57.74 72.58 58.26C72.9 59.49 70.38 62.24 71.14 63.98Z" fill="#581302"/>
    <path d="M31.16 71.82C33.36 71.15 34.68 70.13 36.26 68.51C37.73 69.4 39.29 69.88 40.85 70.54C41.18 70.68 42.32 71.63 40.88 71.45C40.72 71.35 37.57 69.97 37.39 70.01C36.66 70.15 35.34 72.68 33.79 72.2C32.94 72.04 32.03 72.02 31.17 71.83L31.16 71.82Z" fill="#571000"/>
    <path d="M87.95 44.5499C89.51 45.2499 91.2901 44.8299 92.9601 44.9499C93.7101 45.0099 94.57 45.6699 95.17 45.5799C95.77 45.4899 97.3201 44.1199 98.6801 43.8899C101.94 43.3399 104.69 43.8699 106.8 46.4399C107.14 46.8499 107.3 47.7899 107.42 47.8699C107.65 48.0399 109.99 47.5199 110.87 47.5699C112.5 47.6699 114.35 48.9099 115.1 48.9699C115.52 49.0099 117.51 47.2199 118.47 46.8599C121.63 45.6999 124.78 45.9599 127.55 47.8999C128.79 49.4199 129.91 51.1799 129.28 53.1999C131.56 55.3699 132.41 57.6699 131.83 60.1199C130.16 62.5099 130.57 62.4199 131.94 60.1899C132.12 59.8999 132.46 59.8299 132.79 59.8599C133.03 59.0299 133.94 58.6199 135.52 58.6299C134.3 58.5599 133.39 58.2199 132.79 57.6199L132.81 57.1299C135.01 57.1299 135.38 57.0399 133.91 56.8799C135.79 55.8599 137.91 56.7599 139.51 57.6299C141.61 59.6399 143.09 61.9399 143.93 64.5499C145.72 68.0499 138.46 72.7599 136.48 71.4399C136.11 71.1899 136.63 67.6399 137.26 67.3399L137.52 66.6099C140.23 65.5899 140.3 62.0799 137.25 61.3699C135.48 60.9599 133.27 61.3999 133.52 63.2299C138.05 65.7599 137.97 71.6199 132.4 72.5699C130.95 73.9999 127.86 74.6199 126.05 73.6899C125.07 73.4899 124.16 73.2199 123.37 72.5699C122.81 73.3399 121.96 73.8399 120.82 74.0599C119.29 75.3899 116.21 75.8199 114.47 74.8099C113.86 73.9699 113.92 72.7699 114.65 71.2199C114.55 69.4699 114.86 68.7999 115.59 69.1999C116.18 69.2099 116.42 69.5999 116.34 70.3699C118.8 71.6999 120.37 67.4699 120.82 65.8399C119.66 65.3599 120.29 64.4999 121.24 64.0199C120.79 63.0499 120.39 61.3799 121.2 60.6099L121.95 59.9399C133.89 59.4599 122.52 49.5599 119.32 57.5799L118.58 57.9899C118.51 58.4499 117.74 57.7099 117.78 57.7499C120.59 60.1499 122.34 62.9199 119.35 66.2199C116 69.9099 114.09 68.1599 112.23 64.7199C112.48 64.1299 113.08 63.8199 114.01 63.7699C121.16 58.1299 105.69 56.3499 108.71 63.0399C110.4 63.2199 111.45 63.7799 111.85 64.7099L111.63 65.0999C115.72 66.2999 116.09 73.9999 111.48 74.7899C108.69 76.1799 104.33 76.5899 101.39 75.5399C102.3 73.8999 102.18 73.7499 101.02 75.0899L99.52 75.5399C93.5 76.9299 86.91 77.0799 80.84 75.9099C78.57 75.9799 77.0801 75.1099 76.3601 73.2899C75.0501 72.2399 76.4001 68.2699 78.2301 70.2999C80.8201 73.0199 84.6901 72.6599 86.1601 68.9099L85.3301 65.8199L84.6101 65.4299C85.0001 63.2599 84.49 61.2299 83.49 59.2599C83.59 58.1799 84.6201 57.3299 85.3301 58.3499L86.1101 58.6799C86.7601 64.0599 93.8801 61.9299 92.6101 57.7399C91.6901 54.7099 90.1 54.9199 87.77 55.4099C87.46 55.4799 87.1401 55.4199 86.8301 55.3499C86.1401 54.7399 86.1101 53.0099 86.8301 52.3599L87.6101 51.8799C93.1201 54.0599 95.1701 46.0199 88.6501 46.9999L87.95 46.3799C86.98 46.1799 87.13 44.9399 87.95 44.5099V44.5499Z" fill="#7C1703"/>
    <path d="M144.74 66.59C144.68 67.2 143.94 68.45 143.97 69C144 69.41 144.91 68.94 144.74 69.58C140.82 71.4 136.61 71.85 132.41 72.57C135.1 71.53 137.05 68.64 135.69 65.74C135.09 64.46 133.58 64.02 133.21 63.53C133.14 63.44 133.54 63.24 133.53 63.22C135.05 61.56 138.89 65.95 137.27 67.33C137.62 68.97 137.33 69.44 136.9 71.06C141.42 71.12 144.7 66.7 142.78 62.38C142.32 61.34 141.05 60.8 140.61 60.05C140.29 59.5 140.57 58.29 139.52 57.61C142.12 59.02 145.07 63.47 144.75 66.58L144.74 66.59Z" fill="#551404"/>
    <path d="M127.55 47.9099C131.49 50.6799 129.21 51.6999 130.36 54.2499C130.43 54.3999 132.36 56.6999 132.5 56.7899C132.88 57.0299 133.47 56.8299 133.91 56.8699C134.4 56.9199 134.91 56.8299 135.4 56.8699V57.2399C134.85 57.4799 133.23 56.8099 132.79 57.6199C133.88 57.6499 133.9 59.7699 132.79 59.8599C132.4 61.7299 131.47 63.0299 129.43 62.4699C129.45 61.3199 130.8 60.9399 131.13 59.8799C131.81 57.6699 131.31 56.3099 129.95 54.6699C128.89 53.3899 127.94 54.2599 128.99 51.9399L127.56 47.8999L127.55 47.9099Z" fill="#561809"/>
    <path d="M94.2002 67.06C95.9102 66.77 98.3602 66.81 98.9902 68.82C100.12 72.4 93.5102 76.43 90.5502 73.14C88.4202 70.77 91.6802 67.48 94.1902 67.06H94.2002Z" fill="#C94E28"/>
    <path d="M86.8301 55.31C89.1301 52.11 95.2801 55.84 92.8801 60.43C90.6701 64.65 85.5401 62.47 85.3401 58.3C85.9801 57.55 86.4401 55.86 86.8301 55.31Z" fill="#C94E28"/>
    <path d="M127.47 63.3C132.87 62.64 134.59 68.91 129.81 70.15C122.6 72.02 121.06 64.08 127.47 63.3Z" fill="#C94E28"/>
    <path d="M121.2 60.6199C120.12 60.3299 119.25 59.4599 118.58 57.9999C118.21 52.1499 129.5 52.6799 127.84 58.1099C127.11 60.5199 123.29 60.9499 121.19 60.6099L121.2 60.6199Z" fill="#C94E28"/>
    <path d="M112.23 64.73C112.14 65.06 112.01 65.05 111.86 64.73C111.53 64.68 108.43 63.76 108.28 63.64C107.8 63.27 107.35 61.82 107.39 61.2C107.53 59.13 110.24 58.02 112.04 57.98C118.79 57.82 117.52 65.19 112.23 64.73Z" fill="#C94E28"/>
    <path d="M106.17 65.1699C109.53 64.6999 112.84 68.4299 110.2 71.0999C104.89 76.4999 99.3002 66.1299 106.17 65.1699Z" fill="#C94E28"/>
    <path d="M108.4 48.76C113.99 48.39 114.31 55.65 109.38 56.12C103.93 56.64 103.47 49.08 108.4 48.76Z" fill="#C94E28"/>
    <path d="M118.85 47.62C121.1 47.11 124.09 47.39 125.22 49.69C126.73 52.76 123.22 52.43 121.3 53.06C119.89 53.53 119.87 54.78 118.07 53.84C114.97 52.22 115.89 48.29 118.84 47.62H118.85Z" fill="#C94E28"/>
    <path d="M97.9401 45.02C103.07 43.71 105.75 49.95 101.3 51.74C95.5501 54.06 93.3601 46.19 97.9401 45.02Z" fill="#C94E28"/>
    <path d="M86.8301 52.3199C86.6701 51.6899 85.9601 51.2299 86.1401 50.3599C86.3501 49.3699 87.6901 48.5499 87.9501 46.3499C96.4401 44.3599 94.3501 55.7699 86.8301 52.3299V52.3199Z" fill="#C94E28"/>
    <path d="M103.27 56.5099C103.44 57.1299 104.07 57.7799 104.22 58.3699C104.82 60.6899 102.92 63.23 100.47 63.24C97.6202 63.24 98.1802 61.63 97.6702 59.5C96.8302 59.68 96.1202 56.02 96.6102 55.7C98.5902 56.11 100.57 56.18 102.55 55.93L103.28 56.5099H103.27Z" fill="#C94E28"/>
    <path d="M118.58 58C119.31 58.44 120.85 59.87 121.2 60.62C122.02 62.38 120.73 64.08 123.44 64.17C122.92 64.96 121.8 64.53 121.18 64.92C120.79 65.16 120.9 65.78 120.82 65.86C120.62 67.86 117.29 70.25 115.59 69.22L115.29 69.47C115.42 71.42 114.84 72.98 114.47 74.83C113.49 74.91 112.47 74.77 111.48 74.83C114.47 72.84 115.01 69.36 112.97 66.43C112.58 65.86 110.08 64.61 111.85 64.75C111.97 64.77 112.1 64.74 112.22 64.75C114.39 65.91 114.24 68.59 116.81 67.28C120.82 65.23 121.26 60.47 117.46 57.84C117.69 57.32 118.28 57.84 118.58 58.03V58Z" fill="#551101"/>
    <path d="M137.26 67.34C136.82 65.32 135.62 63.68 133.52 63.23C133.3 62.77 132.71 62.68 132.4 62.3C134.79 58.9 141.55 60.54 140.07 65.12C139.78 66.02 138.36 67.53 137.25 67.34H137.26Z" fill="#C94E28"/>
    <path d="M78.2402 70.33C81.2202 70.12 84.4802 69.18 85.3402 65.85C89.1302 68.53 85.5302 72.86 81.7502 72.91C80.5702 72.92 78.0002 71.93 78.2502 70.33H78.2402Z" fill="#C94E28"/>
    <path d="M97.6602 59.5C98.0102 63.06 97.2802 65.92 93.1802 65.85L95.9502 62.84C97.5402 58.61 95.7802 55.65 92.4302 53.16L94.3002 53.9C94.4702 53.69 93.8002 52.9 93.9302 52.78C94.6102 52.17 94.7602 53.43 95.0402 53.71C97.3402 56 100.34 55.67 103.27 55.02C103.73 55.61 103.26 56.44 103.27 56.51C101.08 57.2 99.0902 56.59 96.9202 56.14C96.8002 56.27 97.5402 58.96 97.6602 59.5Z" fill="#541201"/>
    <path d="M120.83 65.85C121.18 67.96 120.38 70.67 118.01 71.06C117.6 71.13 115.68 71.17 115.6 71.08C115.54 71.01 115.55 69.32 115.6 69.21C115.66 69.07 117.78 68.39 118.34 68.03C118.98 67.62 120.26 66.43 120.83 65.85Z" fill="#C94E28"/>
    <path d="M132.78 57.63C134.37 57.5 136.28 57.65 137.26 59.12L132.78 59.87C132.88 59.38 132.66 57.76 132.78 57.63Z" fill="#C94E28"/>
    <path d="M126.06 73.69C124.35 73.91 122.54 73.89 120.83 74.06C121.68 73.27 122.81 72.83 122.7 71.44C122.91 71.26 125.67 73.11 126.06 73.68V73.69Z" fill="#5A1302"/>
    <path d="M99.5303 75.5599C100.58 74.7599 101.46 74.0299 101.4 72.5699C102.41 73.3399 102.69 74.5099 104.01 74.9999L101.39 75.5599C100.77 75.5899 100.14 75.5399 99.5203 75.5599H99.5303Z" fill="#591101"/>
    <path d="M72.63 68.46C73.5 69.41 75.51 69.84 75.61 69.97C76.46 71.13 73.54 74.52 72.24 74.98C71.71 75.17 69.09 75.52 68.52 75.56C67.07 75.65 65.65 75.2 64.78 75.19L66.27 74.82L64.78 73.89C65.35 73.34 66.49 72.19 66.65 71.46C69.01 73.02 72.8 71.54 72.63 68.47V68.46Z" fill="#7C1703"/>
    <path d="M74.3401 43.71C74.6401 44.15 74.9601 45.44 75.4001 45.95C77.0201 47.87 74.3401 50.05 72.3001 50.28C71.2001 50.4 69.4401 50.28 69.7201 48.94C69.1601 48.43 68.9401 47.55 69.0701 46.31C68.6501 45.42 68.5201 44.68 68.6601 44.09C69.4501 41.45 73.0001 41.76 74.3401 43.72V43.71Z" fill="#C94E28"/>
    <path d="M87.1101 16.44C90.1401 19.75 90.1401 24.34 87.3101 27.84C89.2001 30.69 88.3001 34.55 85.5101 36.32C90.9601 45.01 79.2701 51.75 74.3401 43.71C73.2901 43.45 72.2101 43.19 71.1001 42.93C70.2401 43.36 69.4301 43.75 68.6601 44.08C68.4601 44.21 68.2901 44.29 68.2201 44.24C66.1001 42.63 66.9501 41.72 68.2601 44.3C70.4901 48.67 67.8001 51.86 63.7001 52.68C61.3101 53.75 57.4201 53.34 55.1801 51.93C55.6501 51.21 56.6401 51.15 57.4801 51.22C58.1101 49.36 58.2901 47.41 58.2301 45.44L58.7201 45.21C59.6301 45.71 60.0301 46.87 59.9401 48.71C65.1301 49.54 66.5401 43.12 60.4601 43.3L59.7901 42.59L59.7201 41.74C61.5001 40.74 63.1401 39.83 63.9901 37.8L64.7601 37.73C72.0301 40.88 71.5101 29.53 64.8101 33.43L64.0501 33.25C63.7201 34.08 62.7501 32.58 62.7501 32.19C62.7501 31.77 64.7301 30.23 65.2401 29.94C64.4001 28.87 64.1401 26.47 64.7601 25.41L64.5201 24.58C67.5101 20.8 61.3201 17.74 59.4301 21.3C60.8401 21.38 61.5501 21.88 61.5601 22.8C64.3401 24.34 65.2501 27.59 64.2101 30.58C63.1501 31.59 62.4901 32.38 63.6501 33.55C65.9201 38.16 61.4601 41.86 57.4201 42.28C58.4901 45.77 59.2601 51.3 54.4601 51.94C51.8701 52.87 48.2601 52.33 45.9401 50.82C45.0501 50.69 44.7301 49.68 45.2301 48.95C45.6901 48.2 41.3201 46.86 40.9601 46.9C39.6201 48.57 38.1201 49.44 36.0101 49.32C34.8601 50.42 29.0501 48.41 28.4401 47.44C28.0501 46.82 28.6701 46.12 29.1801 45.73C29.1801 44.51 29.3301 43.21 29.6201 41.84C30.2701 39.12 31.1501 36.41 34.2101 35.65C34.8901 35.48 36.6301 35.58 36.7201 35.49C36.8001 35.4 36.7801 33.95 37.1101 33.1C37.7601 31.44 39.6001 30.62 39.8401 30.18C40.4501 29.04 39.5401 27.33 41.5201 25.41C44.5501 22.46 48.1201 22.67 51.6301 24.29C53.8101 25.36 54.5501 28.06 54.4301 29.78L55.1801 30.26L55.5101 29.47C63.8601 31.23 59.8701 20.28 54.5601 25.47L53.7601 25.4C53.0901 25.86 52.6301 25.35 53.0501 24.65C53.3701 22.87 56.5301 22.67 56.8901 22.34C57.0001 22.24 57.1301 21.12 57.5001 20.55C59.4801 17.53 62.8001 17.54 65.8301 18.3C67.3201 18.99 68.7201 19.74 69.0501 21.6L69.7301 22.04C71.7801 21.8 74.6101 21.85 76.4701 22.79C76.6501 16.88 82.1701 12.76 87.1201 16.44H87.1101Z" fill="#7C1703"/>
    <path d="M89.95 22.0499C89.98 22.6099 90.01 23.38 89.95 23.92C90.75 24.84 90.42 26.1899 88.96 27.9599C89.29 28.8899 89.26 29.54 88.88 29.9C89.15 31.01 89.38 31.7499 88.88 32.8899C89.7 33.7299 88.64 36.2 87.46 35.88C87.25 36.14 86.43 36.0499 86.37 36.4799C86.34 36.7099 87.61 40.8099 87.8 40.9399C88.17 41.2099 89.67 41.1499 90.5 41.4599C92.03 42.0399 92.82 43.4999 94.21 43.7299L92.44 45.22C92.35 42.88 89.53 41.3399 87.47 41.4799C87.35 41.6099 87.57 42.9299 87.47 43.3499C88.65 45.3499 85.79 47.2399 84.15 47.8899C83.19 48.2699 81.13 49.01 80.72 47.83C78.08 48.03 79.6 48.66 78.95 50.82C80.42 53.22 77.18 53.49 75.4 53.06C74.1 53.11 72.79 53.03 71.5 53.06L71.84 52.2799C74.71 52.3099 76.75 50.98 77.68 48.04C76.26 47.78 75.5 47.0899 75.41 45.9599C74.4 46.5899 73.49 44.41 74.35 43.72L76.92 46.0499C84.49 48.8699 90.08 40.63 83.22 35.13C85.2 35.91 85.7 36.03 86.84 33.9C88.64 30.52 87.42 27.57 83.93 26.53C84.35 25.39 86.16 27.23 86.59 27.2C86.98 27.17 88.19 25.16 88.36 24.67C89.1 22.59 88.91 20.2399 88.09 18.2299C87.83 17.5999 86.59 16.91 87.12 16.45C89.11 17.93 89.8 19.5699 89.96 22.0499H89.95Z" fill="#551201"/>
    <path d="M53.0501 24.6599C53.0501 24.6599 53.6501 25.2799 53.7601 25.4099C55.4401 24.8899 56.8201 29.6799 55.1801 30.2699C54.5801 30.3699 54.1301 31.1799 53.4101 31.0199L53.6801 27.5599L51.6301 24.2999C52.0201 24.4799 52.7701 24.4899 53.0501 24.6699V24.6599Z" fill="#571302"/>
    <path d="M69.7201 22.0499C69.6601 22.0499 68.9701 22.7299 68.6601 22.4199C68.5601 22.3199 68.2701 20.0799 67.5401 19.6699L65.8201 18.3099C67.8901 18.8299 69.3001 19.5899 69.7201 22.0499Z" fill="#501E10"/>
    <path d="M32.5701 37.47C36.0901 34.39 41.0901 40.34 37.8201 43.92C33.8501 48.27 28.7801 40.78 32.5701 37.47Z" fill="#C94E28"/>
    <path d="M79.57 27.35C84.73 26.43 86.03 32.78 81.45 34.2C74.61 36.32 73.18 28.49 79.57 27.35Z" fill="#C94E28"/>
    <path d="M81.34 16.45C83.78 15.91 86.31 18.44 85.98 20.93C85.84 22 84.69 24.19 83.67 24.5C77.86 26.29 76.67 17.47 81.34 16.45Z" fill="#C94E28"/>
    <path d="M52.4501 32.62C54.1501 31.01 57.7201 30.99 59.4501 32.67C62.8201 35.94 56.5801 40.72 52.5601 37.31C51.2701 36.21 51.2501 33.75 52.4401 32.62H52.4501Z" fill="#C94E28"/>
    <path d="M41.6 30.35C49.42 28.83 49.06 37.82 41.86 36.99C37.45 36.48 37.58 31.13 41.6 30.35Z" fill="#C94E28"/>
    <path d="M64.76 25.41C65.06 26.18 64.98 27.6 65.21 28.48C65.38 29.09 66.11 29.76 66.17 30.08C66.22 30.34 63.45 31.79 63.34 32.34C63.21 32.97 63.98 33.12 64.05 33.25C65.58 33.15 66.26 37.32 64.76 37.73C64.6 38.61 63.04 40.36 63.04 40.53C63.04 40.77 63.89 41.29 63.7 41.46C63.23 41.87 62.57 41.28 62.46 40.72L59.8 42.59C59.13 43.39 58.97 44.06 59.3 44.59L58.74 45.21C58.62 46.46 58.91 47.94 58.76 49.15C58.73 49.42 58.11 51.81 58.01 51.91C57.83 52.11 55.75 51.83 55.19 51.93C54.96 51.91 54.71 51.95 54.48 51.93C58.42 49.94 58.84 44.38 55.54 41.47C60.99 42.27 66.59 37 61.93 31.76C64.48 30.93 64.38 26.96 63.3 24.89L61.57 22.78C62.41 21.53 65.83 24.08 64.76 25.4V25.41Z" fill="#551101"/>
    <path d="M78.86 35.95C84.85 35.04 84.54 44.2499 78.86 43.2599C75.1 42.6099 74.4 36.63 78.86 35.95Z" fill="#C94E28"/>
    <path d="M69.63 23.26C75.17 21.77 76.99 28.59 72.9 30.06C67.26 32.08 65.79 24.29 69.63 23.26Z" fill="#C94E28"/>
    <path d="M49.4001 41.9299C55.3201 40.4999 56.5601 47.8799 52.0801 48.8599C46.5101 50.0799 45.9101 42.7699 49.4001 41.9299Z" fill="#C94E28"/>
    <path d="M49.3901 38.98C49.6401 39.21 50.3801 40.48 50.2101 40.72C49.2901 40.92 48.2901 41.21 47.5401 41.84C45.7101 43.36 46.2901 46.27 43.0001 44.03C37.9601 40.59 45.3801 35.19 49.3901 38.98Z" fill="#C94E28"/>
    <path d="M64.05 33.25C66.35 29.77 72.17 32.68 70.52 36.89C69.8 38.73 65.53 40.45 64.76 37.73C65.04 36.17 64.74 34.61 64.05 33.25Z" fill="#C94E28"/>
    <path d="M53.76 25.41C56.06 21.34 62.19 23.5 60.78 28.51C60.06 31.07 56.86 29.98 55.18 30.27C55.4 28.53 54.9 26.7 53.76 25.41Z" fill="#C94E28"/>
    <path d="M59.79 42.59C61.7 42.41 64.53 42.68 65.04 45.1C65.81 48.76 61.84 50.1 59.11 49.27C59.16 47.68 59.07 46.66 58.72 45.2C58.52 44.37 58.1 43.77 58.01 42.96C58.62 43.02 59.23 42.64 59.78 42.58L59.79 42.59Z" fill="#C94E28"/>
    <path d="M44.7901 24.37C48.5001 23.56 52.3501 26.29 49.5101 30.1C49.2301 30.29 46.3501 28.87 45.3701 28.8C44.3401 28.72 42.2901 29.48 41.8501 28.8C40.7001 27.01 43.2501 24.72 44.7901 24.38V24.37Z" fill="#C94E28"/>
    <path d="M64.76 25.41C64.25 24.09 62.73 23.28 61.57 22.79C60.63 22.39 59.81 21.92 58.73 22.04C58.45 20.52 59.72 19.31 61.06 19.08C65.03 18.4 67.81 22.16 64.77 25.41H64.76Z" fill="#C94E28"/>
    <path d="M63.6902 52.68C65.5602 51.6 68.0902 49.85 68.5102 47.46C68.9702 44.9 66.3202 42.76 66.5202 42.6C67.0902 42.14 68.3902 43.71 68.6502 44.09C69.5702 45.46 70.0402 47.27 69.7102 48.95C70.3202 49.49 70.1302 50.27 69.1402 51.29C70.5502 52.54 69.2602 52.74 67.9402 52.68C66.5302 52.65 65.0902 52.74 63.6802 52.68H63.6902Z" fill="#551101"/>
    <path d="M73.98 41.47L71.85 41.09C74.72 37.91 74.25 33.41 70.79 31.01C71.59 30.92 73.04 31.87 73.48 32.47C73.99 33.17 73.89 33.78 74.19 34.34C74.49 34.9 75.23 35.23 75.35 35.75C75.65 36.98 73.26 39.73 73.98 41.47Z" fill="#581302"/>
    <path d="M36.02 49.32C38.11 48.65 39.37 47.63 40.86 46.01C42.26 46.9 43.74 47.38 45.22 48.04C45.54 48.18 46.62 49.13 45.25 48.95C45.1 48.85 42.11 47.47 41.93 47.51C41.24 47.65 39.98 50.18 38.51 49.7C37.7 49.54 36.84 49.52 36.03 49.33L36.02 49.32Z" fill="#571000"/>
    <path d="M89.95 22.0499C91.43 22.7499 93.12 22.3299 94.71 22.4499C95.42 22.5099 96.24 23.1699 96.81 23.0799C97.38 22.9899 98.85 21.6199 100.15 21.3899C103.25 20.8399 105.85 21.3699 107.86 23.9399C108.18 24.3499 108.34 25.2899 108.45 25.3699C108.67 25.5399 110.89 25.0199 111.73 25.0699C113.28 25.1699 115.03 26.4099 115.75 26.4699C116.15 26.5099 118.04 24.7199 118.95 24.3599C121.95 23.1999 124.95 23.4599 127.57 25.3999C128.75 26.9199 129.81 28.6799 129.21 30.6999C131.38 32.8699 132.18 35.1699 131.63 37.6199C130.04 40.0099 130.43 39.9199 131.73 37.6899C131.9 37.3999 132.22 37.3299 132.54 37.3599C132.77 36.5299 133.64 36.1199 135.13 36.1299C133.97 36.0599 133.11 35.7199 132.54 35.1199L132.56 34.6299C134.65 34.6299 135 34.5399 133.61 34.3799C135.4 33.3599 137.41 34.2599 138.93 35.1299C140.92 37.1399 142.33 39.4399 143.13 42.0499C144.83 45.5499 137.93 50.2599 136.06 48.9399C135.71 48.6899 136.2 45.1399 136.8 44.8399L137.05 44.1099C139.63 43.0899 139.69 39.5799 136.79 38.8699C135.11 38.4599 133.01 38.8999 133.25 40.7299C137.55 43.2599 137.47 49.1199 132.19 50.0699C130.81 51.4999 127.88 52.1199 126.16 51.1899C125.23 50.9899 124.36 50.7199 123.61 50.0699C123.08 50.8399 122.27 51.3399 121.19 51.5599C119.74 52.8899 116.81 53.3199 115.16 52.3099C114.58 51.4699 114.64 50.2699 115.33 48.7199C115.23 46.9699 115.53 46.2999 116.23 46.6999C116.79 46.7099 117.02 47.0999 116.94 47.8699C119.28 49.1999 120.77 44.9699 121.2 43.3399C120.1 42.8599 120.7 41.9999 121.6 41.5199C121.17 40.5499 120.79 38.8799 121.56 38.1099L122.28 37.4399C133.62 36.9599 122.82 27.0599 119.78 35.0799L119.08 35.4899C119.01 35.9499 118.29 35.2099 118.32 35.2499C120.99 37.6499 122.65 40.4199 119.81 43.7199C116.63 47.4099 114.81 45.6599 113.05 42.2199C113.29 41.6299 113.85 41.3199 114.74 41.2699C121.53 35.6299 106.84 33.8499 109.71 40.5399C111.31 40.7199 112.31 41.2799 112.7 42.2099L112.49 42.5999C116.37 43.7999 116.73 51.4999 112.35 52.2899C109.7 53.6799 105.56 54.0899 102.77 53.0399C103.63 51.3999 103.52 51.2499 102.42 52.5899L101 53.0399C95.28 54.4299 89.02 54.5799 83.26 53.4099C81.11 53.4799 79.69 52.6099 79 50.7899C77.76 49.7399 79.04 45.7699 80.77 47.7999C83.23 50.5199 86.9 50.1599 88.3 46.4099L87.51 43.3199L86.83 42.9299C87.21 40.7599 86.72 38.7299 85.77 36.7599C85.86 35.6799 86.84 34.8299 87.51 35.8499L88.25 36.1799C88.87 41.5599 95.63 39.4299 94.42 35.2399C93.55 32.2099 92.04 32.4199 89.82 32.9099C89.52 32.9799 89.22 32.9199 88.92 32.8499C88.26 32.2399 88.23 30.5099 88.92 29.8599L89.66 29.3799C94.89 31.5599 96.84 23.5199 90.65 24.4999L89.98 23.8799C89.06 23.6799 89.2 22.4399 89.98 22.0099L89.95 22.0499Z" fill="#7C1703"/>
    <path d="M143.88 44.09C143.82 44.7 143.12 45.95 143.15 46.5C143.17 46.91 144.04 46.44 143.88 47.08C140.15 48.9 136.16 49.35 132.17 50.07C134.73 49.03 136.57 46.14 135.28 43.24C134.71 41.96 133.28 41.52 132.92 41.03C132.86 40.94 133.24 40.74 133.23 40.72C134.68 39.06 138.32 43.45 136.78 44.83C137.11 46.47 136.83 46.94 136.43 48.56C140.72 48.62 143.84 44.2 142.01 39.88C141.57 38.84 140.37 38.3 139.95 37.55C139.64 37 139.91 35.79 138.91 35.11C141.38 36.52 144.18 40.97 143.88 44.08V44.09Z" fill="#551404"/>
    <path d="M127.56 25.4099C131.3 28.1799 129.13 29.1999 130.23 31.7499C130.29 31.8999 132.13 34.1999 132.26 34.2899C132.62 34.5299 133.18 34.3299 133.6 34.3699C134.06 34.4199 134.55 34.3299 135.02 34.3699V34.7399C134.5 34.9799 132.96 34.3099 132.54 35.1199C133.57 35.1499 133.59 37.2699 132.54 37.3599C132.17 39.2299 131.29 40.5299 129.35 39.9699C129.37 38.8199 130.65 38.4399 130.96 37.3799C131.61 35.1699 131.13 33.8099 129.84 32.1699C128.83 30.8899 127.93 31.7599 128.93 29.4399L127.58 25.3999L127.56 25.4099Z" fill="#561809"/>
    <path d="M95.89 44.5499C97.51 44.2599 99.84 44.2999 100.44 46.3099C101.51 49.8899 95.24 53.9199 92.43 50.6299C90.41 48.2599 93.51 44.9699 95.89 44.5499Z" fill="#C94E28"/>
    <path d="M88.88 32.8C91.06 29.5999 96.91 33.3299 94.63 37.9199C92.53 42.1399 87.66 39.96 87.47 35.79C88.08 35.04 88.52 33.35 88.89 32.8H88.88Z" fill="#C94E28"/>
    <path d="M127.48 40.8C132.61 40.14 134.24 46.41 129.7 47.65C122.85 49.52 121.39 41.58 127.48 40.8Z" fill="#C94E28"/>
    <path d="M121.53 38.1099C120.51 37.8199 119.68 36.9499 119.05 35.4899C118.7 29.6399 129.42 30.1699 127.85 35.5999C127.15 38.0099 123.53 38.4399 121.54 38.0999L121.53 38.1099Z" fill="#C94E28"/>
    <path d="M113.01 42.22C112.92 42.55 112.8 42.54 112.66 42.22C112.34 42.17 109.4 41.25 109.26 41.13C108.8 40.76 108.37 39.31 108.41 38.69C108.54 36.62 111.12 35.51 112.83 35.47C119.24 35.31 118.03 42.68 113.01 42.22Z" fill="#C94E28"/>
    <path d="M107.25 42.6599C110.44 42.1899 113.58 45.9199 111.08 48.5899C106.04 53.9899 100.73 43.6199 107.25 42.6599Z" fill="#C94E28"/>
    <path d="M109.37 26.25C114.68 25.88 114.98 33.14 110.3 33.61C105.13 34.13 104.69 26.57 109.37 26.25Z" fill="#C94E28"/>
    <path d="M119.3 25.1099C121.44 24.5999 124.28 24.8799 125.35 27.1799C126.78 30.2499 123.45 29.9199 121.63 30.5499C120.29 31.0199 120.27 32.2699 118.57 31.3299C115.63 29.7099 116.5 25.7799 119.3 25.1099Z" fill="#C94E28"/>
    <path d="M99.4401 22.5099C104.31 21.1999 106.85 27.4399 102.63 29.2299C97.1701 31.5499 95.0901 23.6799 99.4401 22.5099Z" fill="#C94E28"/>
    <path d="M88.8801 29.8099C88.7301 29.1799 88.0601 28.7199 88.2301 27.8499C88.4301 26.8599 89.7001 26.0399 89.9501 23.8399C98.0201 21.8499 96.0301 33.2599 88.8901 29.8199L88.8801 29.8099Z" fill="#C94E28"/>
    <path d="M104.5 33.9999C104.66 34.6199 105.26 35.2699 105.4 35.8599C105.97 38.1799 104.17 40.7199 101.84 40.7299C99.13 40.7299 99.6601 39.1199 99.1801 36.9899C98.3801 37.1699 97.7101 33.5099 98.1701 33.1899C100.05 33.5999 101.93 33.6699 103.81 33.4199L104.5 33.9999Z" fill="#C94E28"/>
    <path d="M119.04 35.5C119.73 35.94 121.2 37.37 121.52 38.12C122.3 39.88 121.07 41.58 123.65 41.67C123.15 42.46 122.09 42.03 121.51 42.42C121.14 42.66 121.25 43.28 121.17 43.36C120.98 45.36 117.82 47.75 116.2 46.72L115.91 46.97C116.03 48.92 115.49 50.48 115.13 52.33C114.2 52.41 113.23 52.27 112.29 52.33C115.13 50.34 115.65 46.86 113.71 43.93C113.34 43.36 110.96 42.11 112.65 42.25C112.76 42.27 112.89 42.24 113 42.25C115.06 43.41 114.92 46.09 117.36 44.78C121.17 42.73 121.59 37.97 117.97 35.34C118.19 34.82 118.75 35.34 119.03 35.53L119.04 35.5Z" fill="#551101"/>
    <path d="M136.78 44.8399C136.37 42.8199 135.22 41.1799 133.23 40.7299C133.03 40.2699 132.46 40.1799 132.17 39.7999C134.44 36.3999 140.86 38.0399 139.46 42.6199C139.18 43.5199 137.84 45.0299 136.78 44.8399Z" fill="#C94E28"/>
    <path d="M80.72 47.82C83.55 47.61 86.64 46.67 87.46 43.34C91.06 46.02 87.64 50.35 84.05 50.4C82.93 50.41 80.49 49.42 80.72 47.82Z" fill="#C94E28"/>
    <path d="M99.17 36.99C99.5 40.55 98.81 43.41 94.91 43.34L97.54 40.33C99.05 36.1 97.38 33.14 94.2 30.65L95.97 31.39C96.13 31.18 95.5 30.39 95.62 30.27C96.27 29.66 96.41 30.92 96.67 31.2C98.85 33.49 101.7 33.16 104.48 32.51C104.92 33.1 104.47 33.93 104.48 34C102.4 34.69 100.51 34.08 98.45 33.63C98.34 33.76 99.03 36.45 99.16 36.99H99.17Z" fill="#541201"/>
    <path d="M121.17 43.34C121.5 45.45 120.74 48.16 118.49 48.55C118.1 48.62 116.28 48.66 116.2 48.57C116.14 48.5 116.15 46.81 116.2 46.7C116.26 46.56 118.27 45.88 118.8 45.52C119.41 45.11 120.62 43.92 121.16 43.34H121.17Z" fill="#C94E28"/>
    <path d="M132.53 35.12C134.04 34.99 135.85 35.14 136.79 36.61L132.53 37.36C132.63 36.87 132.41 35.25 132.53 35.12Z" fill="#C94E28"/>
    <path d="M126.14 51.1899C124.51 51.4099 122.8 51.3899 121.17 51.5599C121.98 50.7699 123.05 50.3299 122.95 48.9399C123.15 48.7599 125.77 50.6099 126.14 51.1799V51.1899Z" fill="#5A1302"/>
    <path d="M100.95 53.0499C101.95 52.2499 102.78 51.5199 102.73 50.0599C103.69 50.8299 103.96 51.9999 105.21 52.4899L102.72 53.0499C102.13 53.0799 101.54 53.0299 100.95 53.0499Z" fill="#591101"/>
    <path d="M75.4 45.96C76.22 46.91 78.13 47.34 78.23 47.47C79.04 48.63 76.27 52.02 75.03 52.48C74.53 52.67 72.04 53.02 71.5 53.06C70.13 53.15 68.78 52.7 67.95 52.69L69.37 52.32L67.95 51.39C68.49 50.84 69.58 49.69 69.72 48.96C71.96 50.52 75.56 49.04 75.4 45.97V45.96Z" fill="#7C1703"/>
    <path d="M75.0699 28.6701C75.3499 29.1101 75.6499 30.4001 76.0699 30.9101C77.5899 32.8301 75.0799 35.0101 73.1699 35.2401C72.1399 35.3601 70.4899 35.2401 70.7499 33.9001C70.2199 33.3901 70.0199 32.5101 70.1399 31.2701C69.7499 30.3801 69.6199 29.6401 69.7499 29.0501C70.4899 26.4101 73.8199 26.7201 75.0699 28.6801V28.6701Z" fill="#C94E28"/>
    <path d="M87.05 1.39003C89.89 4.70003 89.89 9.29003 87.24 12.79C89.01 15.64 88.17 19.5 85.55 21.27C90.66 29.96 79.7 36.7 75.07 28.66C74.09 28.4 73.08 28.14 72.03 27.88C71.22 28.31 70.46 28.7 69.74 29.03C69.55 29.16 69.39 29.24 69.32 29.19C67.33 27.58 68.13 26.67 69.36 29.25C71.45 33.62 68.93 36.81 65.08 37.63C62.84 38.7 59.2 38.29 57.1 36.88C57.54 36.16 58.47 36.1 59.26 36.17C59.85 34.31 60.02 32.36 59.97 30.39L60.43 30.16C61.28 30.66 61.66 31.82 61.57 33.66C66.43 34.49 67.76 28.07 62.05 28.25L61.42 27.54L61.35 26.69C63.02 25.69 64.55 24.78 65.35 22.75L66.07 22.68C72.89 25.83 72.4 14.48 66.12 18.38L65.41 18.2C65.1 19.03 64.19 17.53 64.19 17.14C64.19 16.72 66.05 15.18 66.53 14.89C65.74 13.82 65.5 11.42 66.08 10.36L65.86 9.53003C68.66 5.75003 62.86 2.69003 61.09 6.25003C62.41 6.33003 63.08 6.83003 63.09 7.75003C65.7 9.29003 66.55 12.54 65.57 15.53C64.57 16.54 63.95 17.33 65.05 18.5C67.17 23.11 63 26.81 59.21 27.23C60.21 30.72 60.94 36.25 56.44 36.89C54.01 37.82 50.63 37.28 48.46 35.77C47.63 35.64 47.33 34.63 47.79 33.9C48.22 33.15 44.13 31.81 43.79 31.85C42.53 33.52 41.13 34.39 39.15 34.27C38.07 35.37 32.62 33.36 32.05 32.39C31.69 31.77 32.27 31.07 32.74 30.68C32.74 29.46 32.88 28.16 33.16 26.79C33.77 24.07 34.6 21.36 37.46 20.6C38.1 20.43 39.73 20.53 39.81 20.44C39.89 20.35 39.86 18.9 40.18 18.05C40.78 16.39 42.51 15.57 42.74 15.13C43.32 13.99 42.46 12.28 44.31 10.36C47.15 7.41003 50.5 7.62003 53.79 9.24003C55.84 10.31 56.53 13.01 56.42 14.73L57.12 15.21L57.43 14.42C65.26 16.18 61.52 5.23003 56.54 10.42L55.79 10.35C55.16 10.81 54.73 10.3 55.12 9.60003C55.42 7.82003 58.38 7.62003 58.72 7.29003C58.83 7.19003 58.95 6.07003 59.29 5.50003C61.15 2.48003 64.26 2.49003 67.1 3.25003C68.5 3.94003 69.81 4.69003 70.12 6.55003L70.76 6.99003C72.68 6.75003 75.33 6.80003 77.08 7.74003C77.24 1.83003 82.42 -2.28997 87.06 1.39003H87.05Z" fill="#7C1703"/>
    <path d="M89.7102 7.00002C89.7402 7.56002 89.7702 8.33002 89.7102 8.87002C90.4602 9.79002 90.1502 11.14 88.7802 12.91C89.0902 13.84 89.0702 14.49 88.7102 14.85C88.9602 15.96 89.1802 16.7 88.7102 17.84C89.4802 18.68 88.4801 21.15 87.3801 20.83C87.1801 21.09 86.4102 21 86.3602 21.43C86.3302 21.66 87.5301 25.76 87.7001 25.89C88.0501 26.16 89.4602 26.1 90.2302 26.41C91.6602 26.99 92.4101 28.45 93.7001 28.68L92.0402 30.17C91.9602 27.83 89.3101 26.29 87.3801 26.43C87.2701 26.56 87.4801 27.88 87.3801 28.3C88.4801 30.3 85.8001 32.19 84.2701 32.84C83.3701 33.22 81.4402 33.96 81.0602 32.78C78.5802 32.98 80.0102 33.61 79.4002 35.77C80.7802 38.17 77.7502 38.44 76.0702 38.01C74.8602 38.06 73.6302 37.98 72.4102 38.01L72.7302 37.23C75.4202 37.26 77.3401 35.93 78.2001 32.99C76.8701 32.73 76.1602 32.04 76.0702 30.91C75.1302 31.54 74.2702 29.36 75.0702 28.67L77.4802 31C84.5702 33.82 89.8101 25.58 83.3801 20.08C85.2401 20.86 85.7102 20.98 86.7802 18.85C88.4702 15.47 87.3302 12.52 84.0502 11.48C84.4402 10.34 86.1402 12.18 86.5502 12.15C86.9102 12.12 88.0502 10.11 88.2102 9.62002C88.9002 7.54002 88.7301 5.19002 87.9501 3.18002C87.7101 2.55002 86.5502 1.86002 87.0402 1.40002C88.9102 2.88002 89.5601 4.52002 89.7001 7.00002H89.7102Z" fill="#551201"/>
    <path d="M55.11 9.61C55.11 9.61 55.67 10.23 55.78 10.36C57.36 9.84 58.65 14.63 57.11 15.22C56.54 15.32 56.12 16.13 55.45 15.97L55.71 12.51L53.79 9.25C54.15 9.43 54.86 9.44 55.12 9.62L55.11 9.61Z" fill="#571302"/>
    <path d="M70.7501 7.00001C70.7001 7.00001 70.0401 7.68001 69.7601 7.37001C69.6601 7.27001 69.4001 5.03001 68.7101 4.62001L67.1001 3.26001C69.0401 3.78001 70.3601 4.54001 70.7601 7.00001H70.7501Z" fill="#501E10"/>
    <path d="M35.9101 22.4201C39.2101 19.3401 43.9001 25.2901 40.8301 28.8701C37.1001 33.2201 32.3601 25.7301 35.9101 22.4201Z" fill="#C94E28"/>
    <path d="M79.9801 12.3C84.8201 11.38 86.03 17.73 81.74 19.15C75.33 21.27 73.9901 13.44 79.9801 12.3Z" fill="#C94E28"/>
    <path d="M81.6401 1.40005C83.9301 0.860047 86.3001 3.39005 85.9901 5.88005C85.8601 6.95005 84.7801 9.14005 83.8301 9.45005C78.3801 11.24 77.2601 2.42005 81.6501 1.40005H81.6401Z" fill="#C94E28"/>
    <path d="M54.55 17.58C56.14 15.97 59.5 15.95 61.12 17.63C64.28 20.9 58.42 25.68 54.66 22.27C53.45 21.17 53.43 18.71 54.55 17.58Z" fill="#C94E28"/>
    <path d="M44.3801 15.3101C51.7101 13.7901 51.3701 22.7801 44.6301 21.9501C40.5001 21.4401 40.6201 16.0901 44.3801 15.3101Z" fill="#C94E28"/>
    <path d="M66.0902 10.36C66.3702 11.13 66.2902 12.55 66.5202 13.43C66.6702 14.04 67.3602 14.71 67.4202 15.03C67.4702 15.29 64.8702 16.74 64.7602 17.29C64.6402 17.92 65.3602 18.07 65.4202 18.2C66.8502 18.1 67.4902 22.27 66.0902 22.68C65.9402 23.56 64.4702 25.31 64.4802 25.48C64.4802 25.72 65.2802 26.24 65.1002 26.41C64.6602 26.82 64.0402 26.23 63.9402 25.67L61.4402 27.54C60.8102 28.34 60.6602 29.01 60.9702 29.54L60.4402 30.16C60.3302 31.41 60.6002 32.89 60.4602 34.1C60.4302 34.37 59.8502 36.76 59.7602 36.86C59.5902 37.06 57.6402 36.78 57.1202 36.88C56.9002 36.86 56.6702 36.9 56.4502 36.88C60.1402 34.89 60.5402 29.33 57.4502 26.42C62.5602 27.22 67.8102 21.95 63.4402 16.71C65.8302 15.88 65.7402 11.91 64.7202 9.84003L63.1002 7.73003C63.8802 6.48003 67.0902 9.03003 66.0902 10.35V10.36Z" fill="#551101"/>
    <path d="M79.32 20.9C84.94 19.99 84.65 29.2 79.32 28.21C75.8 27.56 75.13 21.58 79.32 20.9Z" fill="#C94E28"/>
    <path d="M70.6601 8.21003C75.8601 6.72003 77.5601 13.54 73.7201 15.01C68.4301 17.03 67.0601 9.24003 70.6601 8.21003Z" fill="#C94E28"/>
    <path d="M51.6901 26.88C57.2401 25.45 58.4001 32.83 54.2101 33.81C48.9901 35.03 48.4201 27.72 51.6901 26.88Z" fill="#C94E28"/>
    <path d="M51.68 23.9301C51.91 24.1601 52.61 25.4301 52.45 25.6701C51.59 25.8701 50.65 26.1601 49.95 26.7901C48.23 28.3101 48.77 31.2201 45.69 28.9801C40.96 25.5401 47.93 20.1401 51.68 23.9301Z" fill="#C94E28"/>
    <path d="M65.4302 18.2001C67.5802 14.7201 73.0402 17.6301 71.5002 21.8401C70.8302 23.6801 66.8202 25.4001 66.1002 22.6801C66.3602 21.1201 66.0802 19.5601 65.4302 18.2001Z" fill="#C94E28"/>
    <path d="M55.78 10.36C57.94 6.29003 63.68 8.45003 62.36 13.46C61.69 16.02 58.69 14.93 57.11 15.22C57.31 13.48 56.85 11.65 55.78 10.36Z" fill="#C94E28"/>
    <path d="M61.43 27.5401C63.22 27.3601 65.88 27.6301 66.36 30.0501C67.08 33.7101 63.36 35.0501 60.8 34.2201C60.85 32.6301 60.77 31.6101 60.43 30.1501C60.24 29.3201 59.85 28.7201 59.76 27.9101C60.33 27.9701 60.9 27.5901 61.42 27.5301L61.43 27.5401Z" fill="#C94E28"/>
    <path d="M47.37 9.32005C50.85 8.51005 54.46 11.2401 51.79 15.0501C51.53 15.2401 48.83 13.8201 47.91 13.7501C46.94 13.6701 45.02 14.4301 44.61 13.7501C43.53 11.9601 45.92 9.67005 47.36 9.33005L47.37 9.32005Z" fill="#C94E28"/>
    <path d="M66.0901 10.3601C65.6101 9.04007 64.1801 8.23007 63.1001 7.74007C62.2201 7.34007 61.4501 6.87007 60.4401 6.99007C60.1801 5.47007 61.3701 4.26007 62.6201 4.03007C66.3401 3.35007 68.9501 7.11007 66.0901 10.3601Z" fill="#C94E28"/>
    <path d="M65.0901 37.6301C66.8401 36.5501 69.2101 34.8001 69.6101 32.4101C70.0401 29.8501 67.5501 27.7101 67.7501 27.5501C68.2901 27.0901 69.5001 28.6601 69.7501 29.0401C70.6101 30.4101 71.0601 32.2201 70.7501 33.9001C71.3201 34.4401 71.1401 35.2201 70.2101 36.2401C71.5401 37.4901 70.3201 37.6901 69.0801 37.6301C67.7601 37.6001 66.4101 37.6901 65.0901 37.6301Z" fill="#551101"/>
    <path d="M74.74 26.4201L72.75 26.0401C75.44 22.8601 75 18.3601 71.75 15.9601C72.5 15.8701 73.86 16.8201 74.27 17.4201C74.75 18.1201 74.65 18.7301 74.93 19.2901C75.21 19.8501 75.9 20.1801 76.02 20.7001C76.3 21.9301 74.06 24.6801 74.74 26.4201Z" fill="#581302"/>
    <path d="M39.15 34.2701C41.11 33.6001 42.29 32.5801 43.69 30.9601C45 31.8501 46.39 32.3301 47.77 32.9901C48.07 33.1301 49.08 34.0801 47.8 33.9001C47.66 33.8001 44.85 32.4201 44.69 32.4601C44.04 32.6001 42.86 35.1301 41.48 34.6501C40.72 34.4901 39.91 34.4701 39.15 34.2801V34.2701Z" fill="#571000"/>
    <path d="M89.7099 6.99998C91.0999 7.69998 92.6799 7.27998 94.1699 7.39998C94.8399 7.45998 95.5999 8.11998 96.1399 8.02998C96.6799 7.93998 98.0599 6.56998 99.2699 6.33998C102.17 5.78998 104.62 6.31998 106.5 8.88998C106.8 9.29998 106.95 10.24 107.05 10.32C107.25 10.49 109.34 9.96998 110.12 10.02C111.57 10.12 113.22 11.36 113.89 11.42C114.27 11.46 116.03 9.66998 116.89 9.30998C119.7 8.14998 122.51 8.40998 124.97 10.35C126.08 11.87 127.07 13.63 126.51 15.65C128.54 17.82 129.3 20.12 128.78 22.57C127.29 24.96 127.65 24.87 128.88 22.64C129.04 22.35 129.34 22.28 129.64 22.31C129.86 21.48 130.67 21.07 132.07 21.08C130.98 21.01 130.17 20.67 129.64 20.07V19.58C131.61 19.58 131.94 19.49 130.64 19.33C132.32 18.31 134.2 19.21 135.63 20.08C137.5 22.09 138.81 24.39 139.57 27C141.16 30.5 134.7 35.21 132.94 33.89C132.61 33.64 133.07 30.09 133.63 29.79L133.86 29.06C136.27 28.04 136.34 24.53 133.62 23.82C132.04 23.41 130.08 23.85 130.3 25.68C134.33 28.21 134.26 34.07 129.3 35.02C128 36.45 125.26 37.07 123.64 36.14C122.77 35.94 121.95 35.67 121.25 35.02C120.75 35.79 119.99 36.29 118.98 36.51C117.62 37.84 114.88 38.27 113.32 37.26C112.78 36.42 112.83 35.22 113.48 33.67C113.39 31.92 113.67 31.25 114.32 31.65C114.84 31.66 115.06 32.05 114.98 32.82C117.17 34.15 118.57 29.92 118.97 28.29C117.94 27.81 118.5 26.95 119.34 26.47C118.94 25.5 118.58 23.83 119.3 23.06L119.97 22.39C130.6 21.91 120.48 12.01 117.63 20.03L116.97 20.44C116.91 20.9 116.23 20.16 116.26 20.2C118.77 22.6 120.32 25.37 117.66 28.67C114.68 32.36 112.97 30.61 111.32 27.17C111.54 26.58 112.07 26.27 112.9 26.22C119.26 20.58 105.49 18.8 108.18 25.49C109.68 25.67 110.62 26.23 110.98 27.16L110.78 27.55C114.42 28.75 114.76 36.45 110.64 37.24C108.16 38.63 104.27 39.04 101.66 37.99C102.47 36.35 102.36 36.2 101.33 37.54L99.9999 37.99C94.6399 39.38 88.7699 39.53 83.3699 38.36C81.3499 38.43 80.0199 37.56 79.3799 35.74C78.2199 34.69 79.4199 30.72 81.0399 32.75C83.3499 35.47 86.7899 35.11 88.0999 31.36L87.3599 28.27L86.7199 27.88C87.0699 25.71 86.6199 23.68 85.7199 21.71C85.8099 20.63 86.7299 19.78 87.3599 20.8L88.0499 21.13C88.6299 26.51 94.9699 24.38 93.8399 20.19C93.0199 17.16 91.6099 17.37 89.5299 17.86C89.2499 17.93 88.9699 17.87 88.6899 17.8C88.0699 17.19 88.0499 15.46 88.6899 14.81L89.3899 14.33C94.2999 16.51 96.1199 8.46998 90.3199 9.44998L89.6899 8.82998C88.8299 8.62998 88.9599 7.38998 89.6899 6.95998L89.7099 6.99998Z" fill="#7C1703"/>
    <path d="M140.27 29.0401C140.21 29.6501 139.55 30.9001 139.58 31.4501C139.6 31.8601 140.42 31.3901 140.26 32.0301C136.77 33.8501 133.02 34.3001 129.28 35.0201C131.68 33.9801 133.41 31.0901 132.2 28.1901C131.66 26.9101 130.32 26.4701 129.99 25.9801C129.93 25.8901 130.29 25.6901 130.28 25.6701C131.64 24.0101 135.05 28.4001 133.61 29.7801C133.92 31.4201 133.66 31.8901 133.28 33.5101C137.31 33.5701 140.23 29.1501 138.51 24.8301C138.1 23.7901 136.97 23.2501 136.58 22.5001C136.29 21.9501 136.54 20.7401 135.61 20.0601C137.92 21.4701 140.55 25.9201 140.27 29.0301V29.0401Z" fill="#551404"/>
    <path d="M124.97 10.36C128.48 13.13 126.44 14.15 127.47 16.7C127.53 16.85 129.25 19.15 129.37 19.24C129.71 19.48 130.24 19.28 130.62 19.32C131.06 19.37 131.51 19.28 131.95 19.32V19.69C131.46 19.93 130.02 19.26 129.62 20.07C130.59 20.1 130.61 22.22 129.62 22.31C129.28 24.18 128.45 25.48 126.63 24.92C126.65 23.77 127.85 23.39 128.14 22.33C128.75 20.12 128.3 18.76 127.09 17.12C126.14 15.84 125.3 16.71 126.23 14.39L124.96 10.35L124.97 10.36Z" fill="#561809"/>
    <path d="M95.28 29.5C96.8 29.21 98.98 29.25 99.55 31.26C100.56 34.84 94.67 38.87 92.04 35.58C90.14 33.21 93.05 29.92 95.29 29.5H95.28Z" fill="#C94E28"/>
    <path d="M88.7099 17.75C90.7599 14.55 96.2399 18.28 94.0999 22.87C92.1299 27.09 87.5599 24.91 87.3799 20.74C87.9499 19.99 88.3599 18.3 88.7099 17.75Z" fill="#C94E28"/>
    <path d="M124.9 25.7501C129.71 25.0901 131.24 31.3601 126.98 32.6001C120.56 34.4701 119.19 26.5301 124.9 25.7501Z" fill="#C94E28"/>
    <path d="M119.32 23.06C118.36 22.77 117.59 21.9 116.99 20.44C116.66 14.59 126.71 15.12 125.24 20.55C124.59 22.96 121.19 23.39 119.32 23.05V23.06Z" fill="#C94E28"/>
    <path d="M111.33 27.17C111.25 27.5 111.14 27.49 111 27.17C110.7 27.12 107.94 26.2 107.81 26.08C107.38 25.71 106.98 24.26 107.02 23.64C107.15 21.57 109.56 20.46 111.16 20.42C117.17 20.26 116.04 27.63 111.33 27.17Z" fill="#C94E28"/>
    <path d="M105.93 27.61C108.93 27.14 111.87 30.87 109.52 33.54C104.79 38.94 99.81 28.57 105.93 27.61Z" fill="#C94E28"/>
    <path d="M107.92 11.2001C112.9 10.8301 113.18 18.0901 108.79 18.5601C103.94 19.0801 103.53 11.5201 107.92 11.2001Z" fill="#C94E28"/>
    <path d="M117.22 10.06C119.22 9.55002 121.89 9.83001 122.9 12.13C124.24 15.2 121.11 14.87 119.41 15.5C118.16 15.97 118.14 17.22 116.54 16.28C113.78 14.66 114.6 10.73 117.23 10.06H117.22Z" fill="#C94E28"/>
    <path d="M98.61 7.46001C103.18 6.15001 105.56 12.39 101.6 14.18C96.48 16.5 94.53 8.63001 98.61 7.46001Z" fill="#C94E28"/>
    <path d="M88.71 14.76C88.57 14.13 87.94 13.67 88.1 12.8C88.28 11.81 89.48 10.99 89.71 8.79001C97.27 6.80001 95.41 18.21 88.71 14.77V14.76Z" fill="#C94E28"/>
    <path d="M103.35 18.95C103.5 19.57 104.06 20.22 104.2 20.81C104.73 23.13 103.04 25.67 100.86 25.68C98.32 25.68 98.82 24.07 98.36 21.94C97.61 22.12 96.98 18.46 97.41 18.14C99.17 18.55 100.94 18.62 102.7 18.37L103.35 18.95Z" fill="#C94E28"/>
    <path d="M116.99 20.4501C117.64 20.8901 119.01 22.3201 119.32 23.0701C120.05 24.8301 118.9 26.5301 121.31 26.6201C120.84 27.4101 119.85 26.9801 119.3 27.3701C118.96 27.6101 119.05 28.2301 118.98 28.3101C118.8 30.3101 115.83 32.7001 114.32 31.6701L114.05 31.9201C114.16 33.8701 113.65 35.4301 113.32 37.2801C112.44 37.3601 111.54 37.2201 110.66 37.2801C113.32 35.2901 113.81 31.8101 111.99 28.8801C111.64 28.3101 109.41 27.0601 110.99 27.2001C111.1 27.2201 111.21 27.1901 111.32 27.2001C113.25 28.3601 113.12 31.0401 115.4 29.7301C118.97 27.6801 119.37 22.9201 115.98 20.2901C116.18 19.7701 116.71 20.2901 116.98 20.4801L116.99 20.4501Z" fill="#551101"/>
    <path d="M133.62 29.79C133.23 27.77 132.16 26.13 130.29 25.68C130.1 25.22 129.57 25.13 129.3 24.75C131.42 21.35 137.45 22.99 136.13 27.57C135.87 28.47 134.61 29.98 133.62 29.79Z" fill="#C94E28"/>
    <path d="M81.06 32.77C83.71 32.56 86.61 31.62 87.38 28.29C90.75 30.97 87.55 35.3 84.18 35.35C83.13 35.36 80.85 34.37 81.06 32.77Z" fill="#C94E28"/>
    <path d="M98.36 21.94C98.67 25.5 98.02 28.36 94.37 28.29L96.84 25.28C98.26 21.05 96.69 18.09 93.7 15.6L95.36 16.34C95.51 16.13 94.92 15.34 95.03 15.22C95.64 14.61 95.77 15.87 96.01 16.15C98.06 18.44 100.73 18.11 103.34 17.46C103.75 18.05 103.33 18.88 103.34 18.95C101.39 19.64 99.62 19.03 97.69 18.58C97.59 18.71 98.24 21.4 98.35 21.94H98.36Z" fill="#541201"/>
    <path d="M118.98 28.29C119.29 30.4 118.58 33.11 116.47 33.5C116.11 33.57 114.4 33.61 114.32 33.52C114.26 33.45 114.28 31.76 114.32 31.65C114.38 31.51 116.26 30.83 116.76 30.47C117.33 30.06 118.47 28.87 118.98 28.29Z" fill="#C94E28"/>
    <path d="M129.63 20.07C131.04 19.94 132.74 20.09 133.62 21.56L129.63 22.31C129.72 21.82 129.52 20.2 129.63 20.07Z" fill="#C94E28"/>
    <path d="M123.64 36.14C122.11 36.36 120.51 36.34 118.98 36.51C119.74 35.72 120.75 35.28 120.65 33.89C120.83 33.71 123.3 35.56 123.64 36.13V36.14Z" fill="#5A1302"/>
    <path d="M100.02 38C100.95 37.2 101.74 36.47 101.69 35.01C102.59 35.78 102.84 36.95 104.02 37.44L101.69 38C101.14 38.03 100.58 37.98 100.03 38H100.02Z" fill="#591101"/>
    <path d="M76.0701 30.91C76.8401 31.86 78.6301 32.29 78.7201 32.42C79.4801 33.58 76.8801 36.97 75.7201 37.43C75.2501 37.62 72.9201 37.97 72.4101 38.01C71.1201 38.1 69.8601 37.65 69.0801 37.64L70.4101 37.27L69.0801 36.34C69.5901 35.79 70.6101 34.64 70.7401 33.91C72.8401 35.47 76.2101 33.99 76.0601 30.92L76.0701 30.91Z" fill="#7C1703"/>
    </g>
    <defs>
    <clipPath id="clip0_242_461">
    <rect width="167.24" height="138.03" fill="white"/>
    </clipPath>
    </defs>
</svg>
