<svg width="168" height="106" viewBox="0 0 168 106" fill="none" xmlns="http://www.w3.org/2000/svg" xmlns:xlink="http://www.w3.org/1999/xlink" style="display:none">
    <g clip-path="url(#clip0_242_359)">
    <path d="M74.61 11.49C90.9 10.98 108.82 11.7 124.91 14.27C135.17 15.9 156.54 19.67 159.33 31.55C161.66 41.47 163.48 55.11 164.7 65.35C166.29 78.63 167.85 85.19 154.53 91.41C118.18 108.4 49.64 108.28 13.15 91.69C3.22997 87.18 0.979972 83.69 1.58997 72.57C2.19997 61.45 5.30997 43.34 7.74997 31.88C8.27997 29.4 8.94997 27.8 10.67 25.91C21.36 14.22 59.18 11.98 74.61 11.49Z" fill="#CBC5F2" stroke="#180027" stroke-width="3" stroke-linecap="round" stroke-linejoin="round"/>
    <path d="M105.71 76.09L61.97 76C59.28 78.36 58.57 81.49 54.78 82.94C49.61 84.92 41.45 85.95 38.68 79.91C35.76 73.53 45.37 71.21 45.12 68.19C44.88 65.33 37.48 63.13 38.02 58.54C38.88 51.21 47.72 51.71 52.97 53.1C58.53 54.58 58.38 57.52 62.39 60.64L104.41 60.67C106.64 60.38 108.65 55.38 111.45 53.98C114.85 52.29 122.46 51.28 125.73 53.44C129 55.6 130.18 58.99 127.78 62.22C126 64.62 120.5 66.53 122.77 69.73C125.39 73.42 132.14 74.95 127.79 81.22C124.71 85.65 118.18 84.64 113.62 83.33C109.56 82.16 107.93 79.41 105.72 76.09H105.71Z" fill="#180027"/>
    <path d="M146.18 32.78C144.06 34.77 140.75 35.67 138.01 36.52C111.1 44.83 59.5199 44.6 32.2799 37.43C31.4799 37.22 20.1699 33.85 20.9699 32.79C27.3399 29.79 34.2299 28.18 41.1499 26.92C61.6499 23.18 84.7899 22.85 105.58 24.31C119.13 25.26 133.66 27.49 146.17 32.79L146.18 32.78Z" fill="#504EAD" stroke="#180027" stroke-width="3" stroke-linecap="round" stroke-linejoin="round"/>
    <path d="M72.9599 41.78C72.6799 41.22 72.4499 40.55 72.2199 40.26C70.7299 38.31 66.7499 38 65.8599 40.63C65.8199 40.77 65.7999 40.93 65.7999 41.09C68.1899 41.31 70.5699 41.54 72.9499 41.78H72.9599Z" fill="#C94E28"/>
    <path d="M53.2799 38.81C54.3099 38.72 55.3699 38.44 56.3599 38.03C56.1899 38.12 56.0199 38.2 55.8499 38.29L55.9299 39.14L56.6799 39.85C58.2599 39.81 59.3799 40.13 60.1099 40.63C61.9199 40.76 63.7199 40.91 65.5299 41.07C65.4899 41 65.4599 40.93 65.4199 40.85C65.4099 40.83 65.3999 40.81 65.3899 40.79C65.4799 40.84 65.6599 40.76 65.8799 40.63C66.7399 40.29 67.6499 39.91 68.6099 39.48C69.8499 39.74 71.0599 40 72.2399 40.26C72.6599 40.88 73.1399 41.4 73.6399 41.85C76.2899 42.12 78.9499 42.37 81.5999 42.61C82.1599 42.6 82.7199 42.59 83.2799 42.58C86.2099 40.72 87.6799 37.02 84.7599 32.87C87.8899 31.1 88.8999 27.24 86.7799 24.39C89.9499 20.89 89.9399 16.3 86.5499 12.99C81.0099 9.31999 74.8199 13.43 74.6199 19.34C72.5399 18.41 69.3599 18.36 67.0699 18.59L66.3099 18.15C65.9499 16.29 64.3699 15.54 62.6999 14.85C59.3199 14.1 55.5899 14.08 53.3699 17.1C52.9599 17.66 52.8099 18.79 52.6899 18.89C52.2799 19.22 48.7499 19.42 48.3899 21.2C48.2299 21.43 48.1899 21.63 48.2299 21.8C47.8299 21.41 47.3599 21.08 46.7999 20.83C42.8699 19.21 38.8699 19.01 35.4799 21.95C33.2699 23.87 34.2899 25.58 33.5999 26.72C33.3399 27.16 31.2699 27.98 30.5499 29.64C30.1799 30.49 30.1999 31.95 30.1099 32.03C30.0099 32.12 28.0599 32.03 27.2999 32.19C25.2499 32.65 24.0899 33.8 23.3199 35.24C23.6399 35.35 23.9499 35.49 24.2699 35.61C27.2799 36.62 30.3399 37.46 33.4899 38.02C34.9199 38.27 36.3599 38.47 37.7999 38.66C37.0399 38.55 38.9999 38.81 40.2799 38.96C43.2699 39.33 46.2299 39.71 49.1899 40.16C50.7099 40.19 52.2299 40.22 53.7399 40.28C53.6099 39.76 53.4599 39.27 53.2999 38.81H53.2799ZM61.4899 34.28L60.6299 34.35C60.2299 35.19 59.6699 35.84 59.0199 36.38C60.7899 34.79 61.6299 32.57 60.2499 30.08C60.1999 30.03 60.1699 29.99 60.1299 29.95C60.3499 30.08 60.5699 30.08 60.6999 29.79L61.5499 29.97C69.0599 26.07 69.6399 37.42 61.4899 34.27V34.28ZM60.2399 27.71C60.4299 27.52 60.6399 27.33 60.8799 27.12C61.1499 26.44 61.2799 25.75 61.3299 25.06C61.4899 25.61 61.7199 26.12 62.0399 26.48C61.7199 26.64 60.9099 27.18 60.2499 27.71H60.2399ZM61.2299 21.12L61.4999 21.95C61.2899 22.27 61.1799 22.7 61.1399 23.19C60.7299 21.6 59.6599 20.2 57.9199 19.34C57.9099 18.42 57.1099 17.92 55.5299 17.84C57.6499 14.28 64.5799 17.34 61.2299 21.12ZM51.1299 26.02L50.7599 26.81L49.9199 26.33C50.0099 25.1 49.6099 23.39 48.4899 22.11C48.6599 22.16 48.8999 22.12 49.1599 21.96L50.0599 22.03C56.0099 16.84 60.4799 27.79 51.1199 26.03L51.1299 26.02Z" fill="#7C1703"/>
    <path d="M82.16 31.67C87.63 35.59 86.03 40.9 81.59 42.61C83.19 42.58 84.79 42.55 86.39 42.52C87.16 41.74 87.55 40.83 86.93 39.88C87.05 39.46 86.79 38.14 86.93 38.01C89.24 37.86 92.4 39.41 92.5 41.75L94.48 40.26C92.93 40.03 92.04 38.57 90.33 37.99C89.4 37.68 87.72 37.74 87.3 37.47C87.09 37.34 85.66 33.24 85.7 33.01C85.77 32.58 86.69 32.67 86.92 32.41C88.24 32.73 89.43 30.26 88.51 29.42C89.07 28.29 88.81 27.54 88.51 26.43C88.94 26.07 88.96 25.42 88.59 24.49C90.22 22.72 90.59 21.37 89.7 20.45C89.77 19.92 89.74 19.14 89.7 18.58C89.53 16.1 88.75 14.46 86.52 12.98C85.93 13.44 87.32 14.13 87.61 14.76C88.54 16.78 88.74 19.12 87.92 21.2C87.73 21.68 86.37 23.69 85.94 23.73C85.46 23.77 83.42 21.92 82.96 23.06C86.87 24.1 88.24 27.05 86.22 30.43C84.94 32.57 84.38 32.44 82.16 31.66V31.67Z" fill="#551201"/>
    <path d="M48.38 21.2C48.38 21.2 49.05 21.82 49.17 21.95C51.05 21.43 52.59 26.22 50.76 26.81C50.08 26.91 49.58 27.72 48.77 27.56L49.08 24.1L46.78 20.84C47.21 21.02 48.06 21.03 48.37 21.21L48.38 21.2Z" fill="#571302"/>
    <path d="M67.0599 18.59C66.9999 18.59 66.2199 19.27 65.8699 18.96C65.7499 18.86 65.4299 16.62 64.6199 16.21L62.6899 14.85C65.0099 15.37 66.5799 16.13 67.0599 18.59Z" fill="#501E10"/>
    <path d="M32.45 37.8201C32.51 34.6601 28.49 31.6201 25.43 34.0101C24.85 34.4701 24.46 35.0001 24.22 35.5801C24.33 35.6201 24.44 35.6801 24.55 35.7201C27.14 36.5801 29.76 37.2901 32.44 37.8201H32.45Z" fill="#C94E28"/>
    <path d="M78.0899 23.9C83.8699 22.98 85.3199 29.33 80.1899 30.75C72.5299 32.87 70.9299 25.04 78.0899 23.9Z" fill="#C94E28"/>
    <path d="M80.07 12.99C82.8 12.45 85.63 14.98 85.27 17.47C85.11 18.54 83.83 20.73 82.68 21.04C76.17 22.83 74.83 14.01 80.07 12.99Z" fill="#C94E28"/>
    <path d="M47.7099 29.17C49.6099 27.56 53.6199 27.54 55.5499 29.22C59.3299 32.49 52.3299 37.27 47.8399 33.86C46.3999 32.76 46.3699 30.3 47.7099 29.17Z" fill="#C94E28"/>
    <path d="M35.5499 26.9001C44.3099 25.3801 43.8999 34.3701 35.8499 33.5401C30.9099 33.0301 31.0599 27.6801 35.5499 26.9001Z" fill="#C94E28"/>
    <path d="M52.9799 40.26C53.7299 40.28 54.4699 40.3 55.2199 40.33C55.2899 39.97 55.5199 39.57 55.9299 39.13L58.9099 37.26C59.0299 37.82 59.7699 38.41 60.2999 38C60.5199 37.83 59.5599 37.31 59.5599 37.07C59.5599 36.9 61.3099 35.15 61.4899 34.27C63.1699 33.86 62.4099 29.69 60.6999 29.79C60.6299 29.66 59.7699 29.51 59.9099 28.88C60.0299 28.33 63.1499 26.88 63.0899 26.62C63.0099 26.29 62.1999 25.63 62.0099 25.02C61.7399 24.14 61.8399 22.72 61.4999 21.95C62.6899 20.63 58.8599 18.08 57.9199 19.33L59.8499 21.44C61.0599 23.51 61.1699 27.48 58.3099 28.31C63.5299 33.55 57.2599 38.82 51.1599 38.02C51.9699 38.66 52.5699 39.43 52.9799 40.26Z" fill="#551101"/>
    <path d="M77.2899 32.49C83.9999 31.58 83.6499 40.79 77.2899 39.8C73.0799 39.15 72.2899 33.17 77.2899 32.49Z" fill="#C94E28"/>
    <path d="M66.96 19.8C73.17 18.31 75.2 25.13 70.62 26.6C64.3 28.62 62.66 20.83 66.96 19.8Z" fill="#C94E28"/>
    <path d="M49.1599 40.17C49.3499 40.17 49.5499 40.17 49.7399 40.17C48.8799 38.81 47.0399 37.88 44.2899 38.47C43.6799 38.6 43.1999 38.9 42.8099 39.29C44.9299 39.56 47.0499 39.85 49.1599 40.16V40.17Z" fill="#C94E28"/>
    <path d="M37.7799 38.6701C37.0199 38.5601 38.9799 38.8201 40.2599 38.9701C40.6599 39.0201 41.0599 39.0701 41.4599 39.1201C41.6699 38.8601 41.9099 38.6001 42.2099 38.3801C43.0499 37.7601 44.1699 37.4701 45.1999 37.2601C45.3899 37.0201 44.5599 35.7501 44.2799 35.5201C40.6999 32.5001 34.7099 35.3101 35.2699 38.3201C36.1099 38.4501 36.9399 38.5601 37.7799 38.6801V38.6701Z" fill="#C94E28"/>
    <path d="M60.7 29.8C63.27 26.32 69.7899 29.23 67.9499 33.44C67.1399 35.28 62.36 37 61.5 34.28C61.81 32.72 61.4799 31.16 60.7099 29.8H60.7Z" fill="#C94E28"/>
    <path d="M49.1699 21.95C51.7499 17.88 58.6099 20.04 57.0399 25.05C56.2399 27.61 52.6499 26.52 50.7599 26.81C50.9999 25.07 50.4499 23.24 49.1699 21.95Z" fill="#C94E28"/>
    <path d="M55.3699 40.34C57.3799 40.43 59.3899 40.57 61.3999 40.72C60.3299 39.16 57.7499 38.98 55.9299 39.14C55.2999 39.19 54.6199 39.57 53.9399 39.52C53.9699 39.8 54.0599 40.06 54.1599 40.31C54.5599 40.33 54.9699 40.33 55.3699 40.35V40.34Z" fill="#C94E28"/>
    <path d="M39.13 20.92C43.29 20.11 47.6 22.84 44.42 26.65C44.11 26.84 40.88 25.42 39.79 25.35C38.63 25.27 36.34 26.03 35.85 25.35C34.56 23.56 37.42 21.27 39.14 20.93L39.13 20.92Z" fill="#C94E28"/>
    <path d="M61.4899 21.95C60.9099 20.63 59.2099 19.82 57.9099 19.33C56.8499 18.93 55.9399 18.46 54.7299 18.58C54.4199 17.06 55.8399 15.85 57.3399 15.62C61.7799 14.94 64.8999 18.7 61.4899 21.95Z" fill="#C94E28"/>
    <path d="M71.82 38.02L69.44 37.64C72.66 34.46 72.13 29.96 68.25 27.56C69.14 27.47 70.77 28.42 71.26 29.02C71.83 29.72 71.71 30.33 72.05 30.89C72.39 31.45 73.21 31.78 73.35 32.3C73.69 33.53 71.01 36.28 71.82 38.02Z" fill="#581302"/>
    <path d="M142.58 30.8299C141.29 30.4099 139.9 30.2599 138.6 30.9199C140.16 31.0799 139.76 31.1699 137.43 31.1699L137.41 31.6599C138.05 32.2599 139.01 32.5999 140.31 32.6699C138.64 32.6599 137.67 33.0699 137.41 33.8999C137.06 33.8699 136.7 33.9399 136.51 34.2299C135.05 36.4599 134.61 36.5499 136.4 34.1599C137.02 31.7199 136.12 29.4099 133.69 27.2399C134.37 25.2199 133.18 23.4599 131.85 21.9399C128.91 19.9999 125.55 19.7299 122.19 20.8999C121.17 21.2499 119.05 23.0399 118.6 23.0099C117.8 22.9399 115.83 21.7099 114.1 21.6099C113.17 21.5599 110.67 22.0699 110.43 21.9099C110.31 21.8299 110.13 20.8799 109.77 20.4799C107.52 17.9099 104.6 17.3799 101.13 17.9299C99.68 18.1599 98.04 19.5199 97.39 19.6199C96.75 19.7199 95.84 19.0499 95.04 18.9899C93.26 18.8599 91.37 19.2899 89.71 18.5899C88.83 19.0099 88.68 20.2499 89.71 20.4599L90.46 21.0799C97.39 20.0999 95.21 28.1399 89.35 25.9599L88.52 26.4399C87.75 27.0899 87.78 28.8199 88.52 29.4299C88.85 29.4999 89.19 29.5499 89.52 29.4899C92.01 28.9899 93.7 28.7899 94.67 31.8199C96.02 35.9999 88.44 38.1399 87.75 32.7599L86.92 32.4299C86.17 31.4099 85.07 32.2599 84.97 33.3399C86.04 35.3099 86.58 37.3399 86.16 39.5099L86.92 39.8999C87.28 41.1599 87.53 42.0299 87.67 42.5199C94.52 42.4199 101.38 42.3499 108.23 42.0399C112.98 41.8199 117.71 41.4299 122.43 40.9399C122.65 40.7399 122.88 40.5399 123.12 40.2899C123.5 39.8999 123.8 39.5199 124.04 39.1399C123.99 39.4199 124.16 39.6999 124.69 39.9099C124.62 40.1399 124.53 40.4299 124.41 40.7299C124.5 40.7199 124.6 40.7099 124.69 40.6999C124.82 40.6899 125.23 40.6299 125.71 40.5799C127.83 39.8999 130.05 39.5399 132.36 39.5099C134.5 38.6199 136.78 38.0399 139.11 37.8699C138.83 37.6699 138.54 37.4699 138.2 37.2899C137.93 35.4599 140.28 35.0099 142.16 35.4299C142.18 35.4299 142.2 35.4399 142.22 35.4499C142.68 35.0199 143.12 34.5699 143.57 34.1199C143.15 33.0599 142.82 31.9699 142.57 30.8499L142.58 30.8299ZM117.44 37.8199C116.45 37.8599 115.82 38.1799 115.55 38.7699C115.75 39.1199 115.96 39.4499 116.16 39.7699C115.79 39.5099 115.38 39.2899 114.91 39.1699L115.15 38.7799C114.72 37.8399 113.6 37.2899 111.81 37.1099C108.59 30.4199 125.05 32.1999 117.44 37.8399V37.8199ZM124.32 38.6399C124.59 38.1099 124.73 37.5999 124.77 37.0999C124.87 37.4599 125 37.7999 125.14 38.0799C124.81 38.2399 124.53 38.4399 124.32 38.6499V38.6399ZM125.89 33.9899L125.09 34.6599C124.79 34.9299 124.66 35.3099 124.62 35.7199C124.2 34.3499 123.04 33.0799 121.6 31.9099C121.82 32.0899 122.26 32.3799 122.31 32.0399L123.1 31.6299C126.5 23.6099 138.6 33.5099 125.9 33.9899H125.89Z" fill="#7C1703"/>
    <path d="M131.84 21.9499C136.03 24.7199 133.6 25.7399 134.83 28.2899C134.9 28.4399 136.95 30.7399 137.1 30.8299C137.51 31.0699 138.13 30.8699 138.6 30.9099C139.12 30.9599 139.67 30.8699 140.19 30.9099V31.2799C139.61 31.5199 137.88 30.8499 137.41 31.6599C138.57 31.6899 138.59 33.8099 137.41 33.8999C137 35.7699 136.01 37.0699 133.83 36.5099C133.85 35.3599 135.29 34.9799 135.64 33.9199C136.36 31.7099 135.83 30.3499 134.38 28.7099C133.25 27.4299 132.24 28.2999 133.36 25.9799L131.84 21.9399V21.9499Z" fill="#561809"/>
    <path d="M101.16 42.2599C100.21 40.8399 97.9801 40.8399 96.3601 41.0899C95.4401 41.2399 94.4201 41.7299 93.5801 42.4099C96.1101 42.3699 98.6301 42.3199 101.16 42.2599Z" fill="#C94E28"/>
    <path d="M88.5201 29.34C90.9701 26.14 97.5101 29.87 94.9601 34.46C92.6101 38.68 87.1501 36.5 86.9301 32.33C87.6101 31.58 88.1001 29.89 88.5201 29.34Z" fill="#C94E28"/>
    <path d="M132.38 39.48C133.5 39.02 134.65 38.62 135.83 38.35C134.89 37.6 133.52 37.14 131.76 37.34C129.4 37.61 128.07 38.74 127.64 40.03C129.17 39.69 130.75 39.5 132.38 39.48Z" fill="#C94E28"/>
    <path d="M125.09 34.65C123.95 34.36 123.02 33.49 122.31 32.03C121.92 26.18 133.92 26.71 132.16 32.14C131.38 34.55 127.32 34.98 125.09 34.64V34.65Z" fill="#C94E28"/>
    <path d="M115.55 38.76C115.45 39.09 115.32 39.08 115.15 38.76C114.8 38.71 111.5 37.79 111.34 37.67C110.82 37.3 110.35 35.85 110.39 35.23C110.54 33.16 113.42 32.05 115.34 32.01C122.52 31.85 121.17 39.22 115.55 38.76Z" fill="#C94E28"/>
    <path d="M108.24 42.02C110.18 41.93 112.12 41.8 114.06 41.66C113.27 40.1 111.2 38.93 109.1 39.2C106.81 39.5 105.83 40.73 105.73 42.11C106.57 42.08 107.41 42.05 108.24 42.01V42.02Z" fill="#C94E28"/>
    <path d="M111.47 22.79C117.42 22.42 117.76 29.68 112.51 30.15C106.72 30.67 106.22 23.11 111.47 22.79Z" fill="#C94E28"/>
    <path d="M122.59 21.66C124.98 21.15 128.17 21.43 129.37 23.73C130.98 26.8 127.24 26.47 125.2 27.1C123.7 27.57 123.68 28.82 121.77 27.88C118.47 26.26 119.45 22.33 122.59 21.66Z" fill="#C94E28"/>
    <path d="M100.34 19.06C105.8 17.75 108.65 23.99 103.92 25.78C97.8 28.1 95.47 20.23 100.34 19.06Z" fill="#C94E28"/>
    <path d="M88.52 26.36C88.35 25.73 87.6 25.27 87.79 24.4C88.01 23.41 89.44 22.59 89.71 20.39C98.75 18.4 96.52 29.81 88.52 26.37V26.36Z" fill="#C94E28"/>
    <path d="M106.01 30.54C106.19 31.16 106.86 31.81 107.02 32.4C107.66 34.72 105.64 37.26 103.03 37.27C99.99 37.27 100.59 35.66 100.05 33.53C99.15 33.71 98.41 30.05 98.92 29.73C101.03 30.14 103.13 30.21 105.24 29.96L106.01 30.54Z" fill="#C94E28"/>
    <path d="M120.8 41.09C122 40.97 123.21 40.84 124.41 40.71C124.55 40.43 124.66 40.16 124.69 39.89C124.77 39.81 124.66 39.19 125.07 38.95C125.73 38.57 126.91 39 127.47 38.2C124.59 38.11 125.96 36.42 125.09 34.65C124.73 33.91 123.08 32.47 122.31 32.03C121.99 31.85 121.36 31.32 121.12 31.84C125.05 34.39 124.71 38.93 120.81 41.08L120.8 41.09Z" fill="#551101"/>
    <path d="M116.34 40.45C116.58 40.77 116.78 41.11 116.95 41.44C117.37 41.4 117.8 41.36 118.22 41.32C117.44 40.73 116.95 39.47 115.54 38.76C115.41 38.75 115.27 38.78 115.14 38.76C113.25 38.62 115.91 39.88 116.33 40.44L116.34 40.45Z" fill="#551101"/>
    <path d="M138.2 37.27C138.74 37.38 139.21 37.56 139.64 37.79C140.73 36.82 141.81 35.84 142.85 34.83C140.9 34.17 138.33 34.56 137.01 36.33C137.33 36.71 137.97 36.8 138.2 37.26V37.27Z" fill="#C94E28"/>
    <path d="M88.62 42.49C88.59 41.58 88.1 40.66 86.93 39.89C86.61 41.05 85.96 41.9 85.14 42.55C86.3 42.53 87.46 42.51 88.62 42.5V42.49Z" fill="#C94E28"/>
    <path d="M100.05 33.53C100.42 37.09 99.64 39.95 95.28 39.88L98.23 36.87C99.92 32.64 98.05 29.68 94.48 27.19L96.46 27.93C96.64 27.72 95.93 26.93 96.07 26.81C96.8 26.2 96.95 27.46 97.25 27.74C99.7 30.03 102.88 29.7 106 29.05C106.49 29.64 105.98 30.47 106 30.54C103.67 31.23 101.56 30.62 99.25 30.17C99.13 30.3 99.9 32.99 100.04 33.53H100.05Z" fill="#541201"/>
    <path d="M137.41 31.67C139.1 31.54 141.13 31.69 142.18 33.16L137.41 33.91C137.52 33.42 137.28 31.8 137.41 31.67Z" fill="#C94E28"/>
    <path d="M71.16 28.6701C71.48 29.1101 71.81 30.4001 72.28 30.9101C73.99 32.8301 71.16 35.0101 69.02 35.2401C67.87 35.3601 66.01 35.2401 66.3 33.9001C65.71 33.3901 65.48 32.5101 65.61 31.2701C65.17 30.3801 65.03 29.6401 65.18 29.0501C66.02 26.4101 69.75 26.7201 71.16 28.6801V28.6701Z" fill="#C94E28"/>
    <path d="M84.61 1.39003C87.8 4.70003 87.8 9.29003 84.82 12.79C86.81 15.64 85.86 19.5 82.92 21.27C88.66 29.96 76.35 36.7 71.15 28.66C70.05 28.4 68.91 28.14 67.74 27.88C66.84 28.31 65.98 28.7 65.17 29.03C64.96 29.16 64.78 29.24 64.7 29.19C62.46 27.58 63.36 26.67 64.74 29.25C67.09 33.62 64.26 36.81 59.93 37.63C57.42 38.7 53.32 38.29 50.96 36.88C51.46 36.16 52.49 36.1 53.38 36.17C54.05 34.31 54.23 32.36 54.17 30.39L54.69 30.16C55.64 30.66 56.07 31.82 55.97 33.66C61.43 34.49 62.92 28.07 56.51 28.25L55.81 27.54L55.73 26.69C57.6 25.69 59.33 24.78 60.23 22.75L61.04 22.68C68.7 25.83 68.15 14.48 61.09 18.38L60.29 18.2C59.95 19.03 58.92 17.53 58.92 17.14C58.92 16.72 61 15.18 61.54 14.89C60.65 13.82 60.38 11.42 61.03 10.36L60.78 9.53003C63.93 5.75003 57.41 2.69003 55.42 6.25003C56.91 6.33003 57.66 6.83003 57.67 7.75003C60.6 9.29003 61.56 12.54 60.46 15.53C59.34 16.54 58.65 17.33 59.87 18.5C62.26 23.11 57.56 26.81 53.31 27.23C54.44 30.72 55.25 36.25 50.19 36.89C47.47 37.82 43.67 37.28 41.22 35.77C40.28 35.64 39.95 34.63 40.47 33.9C40.96 33.15 36.36 31.81 35.97 31.85C34.56 33.52 32.98 34.39 30.75 34.27C29.54 35.37 23.42 33.36 22.78 32.39C22.37 31.77 23.03 31.07 23.56 30.68C23.56 29.46 23.72 28.16 24.03 26.79C24.72 24.07 25.64 21.36 28.86 20.6C29.58 20.43 31.41 20.53 31.5 20.44C31.58 20.35 31.56 18.9 31.91 18.05C32.59 16.39 34.53 15.57 34.78 15.13C35.43 13.99 34.46 12.28 36.55 10.36C39.74 7.41003 43.5 7.62003 47.19 9.24003C49.49 10.31 50.27 13.01 50.14 14.73L50.93 15.21L51.28 14.42C60.07 16.18 55.87 5.23003 50.28 10.42L49.44 10.35C48.73 10.81 48.25 10.3 48.69 9.60003C49.02 7.82003 52.35 7.62003 52.73 7.29003C52.85 7.19003 52.98 6.07003 53.37 5.50003C55.45 2.48003 58.96 2.49003 62.14 3.25003C63.71 3.94003 65.19 4.69003 65.53 6.55003L66.25 6.99003C68.4 6.75003 71.39 6.80003 73.34 7.74003C73.53 1.83003 79.34 -2.28997 84.55 1.39003H84.61Z" fill="#7C1703"/>
    <path d="M87.59 7.00002C87.63 7.56002 87.65 8.33002 87.59 8.87002C88.43 9.79002 88.08 11.14 86.55 12.91C86.9 13.84 86.87 14.49 86.47 14.85C86.75 15.96 87 16.7 86.47 17.84C87.34 18.68 86.22 21.15 84.98 20.83C84.76 21.09 83.89 21 83.83 21.43C83.8 21.66 85.14 25.76 85.33 25.89C85.72 26.16 87.3 26.1 88.17 26.41C89.78 26.99 90.61 28.45 92.07 28.68L90.21 30.17C90.12 27.83 87.14 26.29 84.98 26.43C84.85 26.56 85.09 27.88 84.98 28.3C86.22 30.3 83.21 32.19 81.49 32.84C80.48 33.22 78.32 33.96 77.88 32.78C75.1 32.98 76.7 33.61 76.01 35.77C77.55 38.17 74.15 38.44 72.27 38.01C70.91 38.06 69.53 37.98 68.16 38.01L68.51 37.23C71.53 37.26 73.68 35.93 74.66 32.99C73.16 32.73 72.37 32.04 72.27 30.91C71.21 31.54 70.25 29.36 71.15 28.67L73.86 31C81.83 33.82 87.71 25.58 80.49 20.08C82.58 20.86 83.1 20.98 84.3 18.85C86.2 15.47 84.91 12.52 81.23 11.48C81.67 10.34 83.58 12.18 84.04 12.15C84.45 12.12 85.73 10.11 85.9 9.62002C86.67 7.54002 86.48 5.19002 85.61 3.18002C85.34 2.55002 84.03 1.86002 84.59 1.40002C86.69 2.88002 87.42 4.52002 87.58 7.00002H87.59Z" fill="#551201"/>
    <path d="M48.74 9.61C48.74 9.61 49.37 10.23 49.49 10.36C51.26 9.84 52.71 14.63 50.98 15.22C50.34 15.32 49.87 16.13 49.11 15.97L49.4 12.51L47.24 9.25C47.65 9.43 48.44 9.44 48.73 9.62L48.74 9.61Z" fill="#571302"/>
    <path d="M66.3001 7.00001C66.2401 7.00001 65.5101 7.68001 65.1801 7.37001C65.0701 7.27001 64.7701 5.03001 64.0001 4.62001L62.1901 3.26001C64.3701 3.78001 65.8501 4.54001 66.3001 7.00001Z" fill="#501E10"/>
    <path d="M27.18 22.4201C30.89 19.3401 36.15 25.2901 32.7 28.8701C28.51 33.2201 23.19 25.7301 27.18 22.4201Z" fill="#C94E28"/>
    <path d="M76.6701 12.3C82.1001 11.38 83.4701 17.73 78.6501 19.15C71.4501 21.27 69.9401 13.44 76.6701 12.3Z" fill="#C94E28"/>
    <path d="M78.53 1.40005C81.1 0.860047 83.76 3.39005 83.41 5.88005C83.26 6.95005 82.05 9.14005 80.98 9.45005C74.86 11.24 73.61 2.42005 78.53 1.40005Z" fill="#C94E28"/>
    <path d="M48.1101 17.58C49.9001 15.97 53.6601 15.95 55.4801 17.63C59.0301 20.9 52.4501 25.68 48.2301 22.27C46.8701 21.17 46.8501 18.71 48.1101 17.58Z" fill="#C94E28"/>
    <path d="M36.69 15.3101C44.92 13.7901 44.54 22.7801 36.97 21.9501C32.33 21.4401 32.47 16.0901 36.69 15.3101Z" fill="#C94E28"/>
    <path d="M61.07 10.36C61.39 11.13 61.3 12.55 61.55 13.43C61.72 14.04 62.49 14.71 62.56 15.03C62.62 15.29 59.69 16.74 59.58 17.29C59.45 17.92 60.25 18.07 60.32 18.2C61.93 18.1 62.65 22.27 61.07 22.68C60.9 23.56 59.26 25.31 59.26 25.48C59.26 25.72 60.16 26.24 59.95 26.41C59.46 26.82 58.76 26.23 58.64 25.67L55.84 27.54C55.14 28.34 54.96 29.01 55.31 29.54L54.72 30.16C54.59 31.41 54.9 32.89 54.74 34.1C54.7 34.37 54.05 36.76 53.95 36.86C53.76 37.06 51.57 36.78 50.98 36.88C50.73 36.86 50.48 36.9 50.23 36.88C54.37 34.89 54.82 29.33 51.35 26.42C57.09 27.22 62.99 21.95 58.07 16.71C60.76 15.88 60.65 11.91 59.51 9.84003L57.69 7.73003C58.57 6.48003 62.17 9.03003 61.05 10.35L61.07 10.36Z" fill="#551101"/>
    <path d="M75.92 20.9C82.23 19.99 81.9 29.2 75.92 28.21C71.97 27.56 71.22 21.58 75.92 20.9Z" fill="#C94E28"/>
    <path d="M66.21 8.21003C72.05 6.72003 73.96 13.54 69.65 15.01C63.71 17.03 62.17 9.24003 66.21 8.21003Z" fill="#C94E28"/>
    <path d="M44.9001 26.88C51.1301 25.45 52.4401 32.83 47.7301 33.81C41.8701 35.03 41.2301 27.72 44.9001 26.88Z" fill="#C94E28"/>
    <path d="M44.8901 23.9301C45.1501 24.1601 45.9301 25.4301 45.7501 25.6701C44.7801 25.8701 43.7301 26.1601 42.9401 26.7901C41.0101 28.3101 41.6201 31.2201 38.1601 28.9801C32.8501 25.5401 40.6701 20.1401 44.8901 23.9301Z" fill="#C94E28"/>
    <path d="M60.3201 18.2001C62.7401 14.7201 68.8701 17.6301 67.1301 21.8401C66.3701 23.6801 61.8801 25.4001 61.0601 22.6801C61.3501 21.1201 61.0401 19.5601 60.3101 18.2001H60.3201Z" fill="#C94E28"/>
    <path d="M49.49 10.36C51.91 6.29003 58.36 8.45003 56.88 13.46C56.12 16.02 52.75 14.93 50.98 15.22C51.21 13.48 50.69 11.65 49.49 10.36Z" fill="#C94E28"/>
    <path d="M55.8401 27.5401C57.8501 27.3601 60.8401 27.6301 61.3701 30.0501C62.1801 33.7101 58.0001 35.0501 55.1301 34.2201C55.1901 32.6301 55.0901 31.6101 54.7201 30.1501C54.5101 29.3201 54.0701 28.7201 53.9701 27.9101C54.6101 27.9701 55.2501 27.5901 55.8401 27.5301V27.5401Z" fill="#C94E28"/>
    <path d="M40.05 9.32005C43.96 8.51005 48.01 11.2401 45.02 15.0501C44.73 15.2401 41.69 13.8201 40.66 13.7501C39.57 13.6701 37.42 14.4301 36.95 13.7501C35.74 11.9601 38.42 9.67005 40.04 9.33005L40.05 9.32005Z" fill="#C94E28"/>
    <path d="M61.07 10.3601C60.53 9.04007 58.93 8.23007 57.71 7.74007C56.72 7.34007 55.86 6.87007 54.72 6.99007C54.43 5.47007 55.76 4.26007 57.17 4.03007C61.35 3.35007 64.28 7.11007 61.07 10.3601Z" fill="#C94E28"/>
    <path d="M59.9501 37.6301C61.9201 36.5501 64.5801 34.8001 65.0301 32.4101C65.5101 29.8501 62.7201 27.7101 62.9401 27.5501C63.5401 27.0901 64.9101 28.6601 65.1801 29.0401C66.1401 30.4101 66.6501 32.2201 66.3001 33.9001C66.9401 34.4401 66.7401 35.2201 65.7001 36.2401C67.1901 37.4901 65.8201 37.6901 64.4301 37.6301C62.9401 37.6001 61.4301 37.6901 59.9501 37.6301Z" fill="#551101"/>
    <path d="M70.78 26.4201L68.54 26.0401C71.56 22.8601 71.07 18.3601 67.42 15.9601C68.26 15.8701 69.79 16.8201 70.25 17.4201C70.79 18.1201 70.68 18.7301 70.99 19.2901C71.3 19.8501 72.08 20.1801 72.22 20.7001C72.54 21.9301 70.02 24.6801 70.78 26.4201Z" fill="#581302"/>
    <path d="M30.8101 34.2701C33.0101 33.6001 34.3301 32.5801 35.9101 30.9601C37.3801 31.8501 38.9401 32.3301 40.5001 32.9901C40.8301 33.1301 41.9701 34.0801 40.5301 33.9001C40.3701 33.8001 37.2201 32.4201 37.0401 32.4601C36.3101 32.6001 34.9901 35.1301 33.4401 34.6501C32.5901 34.4901 31.6801 34.4701 30.8201 34.2801L30.8101 34.2701Z" fill="#571000"/>
    <path d="M87.5899 6.99998C89.1499 7.69998 90.9299 7.27998 92.5999 7.39998C93.3499 7.45998 94.2099 8.11998 94.8099 8.02998C95.4099 7.93998 96.9599 6.56998 98.3199 6.33998C101.58 5.78998 104.33 6.31998 106.44 8.88998C106.78 9.29998 106.94 10.24 107.06 10.32C107.29 10.49 109.63 9.96998 110.51 10.02C112.14 10.12 113.99 11.36 114.74 11.42C115.16 11.46 117.15 9.66998 118.11 9.30998C121.27 8.14998 124.42 8.40998 127.19 10.35C128.43 11.87 129.55 13.63 128.92 15.65C131.2 17.82 132.05 20.12 131.47 22.57C129.8 24.96 130.21 24.87 131.58 22.64C131.76 22.35 132.1 22.28 132.43 22.31C132.67 21.48 133.58 21.07 135.16 21.08C133.94 21.01 133.03 20.67 132.43 20.07L132.45 19.58C134.65 19.58 135.02 19.49 133.55 19.33C135.43 18.31 137.55 19.21 139.15 20.08C141.25 22.09 142.73 24.39 143.57 27C145.36 30.5 138.1 35.21 136.12 33.89C135.75 33.64 136.27 30.09 136.9 29.79L137.16 29.06C139.87 28.04 139.94 24.53 136.89 23.82C135.12 23.41 132.91 23.85 133.16 25.68C137.69 28.21 137.61 34.07 132.04 35.02C130.59 36.45 127.5 37.07 125.69 36.14C124.71 35.94 123.8 35.67 123.01 35.02C122.45 35.79 121.6 36.29 120.46 36.51C118.93 37.84 115.85 38.27 114.11 37.26C113.5 36.42 113.56 35.22 114.29 33.67C114.19 31.92 114.5 31.25 115.23 31.65C115.82 31.66 116.06 32.05 115.98 32.82C118.44 34.15 120.01 29.92 120.46 28.29C119.3 27.81 119.93 26.95 120.88 26.47C120.43 25.5 120.03 23.83 120.84 23.06L121.59 22.39C133.53 21.91 122.16 12.01 118.96 20.03L118.22 20.44C118.15 20.9 117.38 20.16 117.42 20.2C120.23 22.6 121.98 25.37 118.99 28.67C115.64 32.36 113.73 30.61 111.87 27.17C112.12 26.58 112.72 26.27 113.65 26.22C120.8 20.58 105.33 18.8 108.35 25.49C110.04 25.67 111.09 26.23 111.49 27.16L111.27 27.55C115.36 28.75 115.73 36.45 111.12 37.24C108.33 38.63 103.97 39.04 101.03 37.99C101.94 36.35 101.82 36.2 100.66 37.54L99.1599 37.99C93.1399 39.38 86.5499 39.53 80.4799 38.36C78.2099 38.43 76.7199 37.56 75.9999 35.74C74.6899 34.69 76.0399 30.72 77.8699 32.75C80.4599 35.47 84.3299 35.11 85.7999 31.36L84.9699 28.27L84.2499 27.88C84.6399 25.71 84.1299 23.68 83.1299 21.71C83.2299 20.63 84.2599 19.78 84.9699 20.8L85.7499 21.13C86.3999 26.51 93.5199 24.38 92.2499 20.19C91.3299 17.16 89.7399 17.37 87.4099 17.86C87.0999 17.93 86.7799 17.87 86.4699 17.8C85.7799 17.19 85.7499 15.46 86.4699 14.81L87.2499 14.33C92.7599 16.51 94.8099 8.46998 88.2899 9.44998L87.5899 8.82998C86.6199 8.62998 86.7699 7.38998 87.5899 6.95998V6.99998Z" fill="#7C1703"/>
    <path d="M144.38 29.0401C144.32 29.6501 143.58 30.9001 143.61 31.4501C143.64 31.8601 144.55 31.3901 144.38 32.0301C140.46 33.8501 136.25 34.3001 132.05 35.0201C134.74 33.9801 136.69 31.0901 135.33 28.1901C134.73 26.9101 133.22 26.4701 132.85 25.9801C132.78 25.8901 133.18 25.6901 133.17 25.6701C134.69 24.0101 138.53 28.4001 136.91 29.7801C137.26 31.4201 136.97 31.8901 136.54 33.5101C141.06 33.5701 144.34 29.1501 142.42 24.8301C141.96 23.7901 140.69 23.2501 140.25 22.5001C139.93 21.9501 140.21 20.7401 139.16 20.0601C141.76 21.4701 144.71 25.9201 144.39 29.0301L144.38 29.0401Z" fill="#551404"/>
    <path d="M127.2 10.36C131.14 13.13 128.86 14.15 130.01 16.7C130.08 16.85 132.01 19.15 132.15 19.24C132.53 19.48 133.12 19.28 133.56 19.32C134.05 19.37 134.56 19.28 135.05 19.32V19.69C134.5 19.93 132.88 19.26 132.44 20.07C133.53 20.1 133.55 22.22 132.44 22.31C132.05 24.18 131.12 25.48 129.08 24.92C129.1 23.77 130.45 23.39 130.78 22.33C131.46 20.12 130.96 18.76 129.6 17.12C128.54 15.84 127.59 16.71 128.64 14.39L127.21 10.35L127.2 10.36Z" fill="#561809"/>
    <path d="M93.8499 29.5C95.5599 29.21 98.0099 29.25 98.6399 31.26C99.7699 34.84 93.1599 38.87 90.1999 35.58C88.0699 33.21 91.3299 29.92 93.8399 29.5H93.8499Z" fill="#C94E28"/>
    <path d="M86.47 17.75C88.77 14.55 94.92 18.28 92.52 22.87C90.31 27.09 85.18 24.91 84.98 20.74C85.62 19.99 86.08 18.3 86.47 17.75Z" fill="#C94E28"/>
    <path d="M127.11 25.7501C132.51 25.0901 134.23 31.3601 129.45 32.6001C122.24 34.4701 120.7 26.5301 127.11 25.7501Z" fill="#C94E28"/>
    <path d="M120.84 23.06C119.76 22.77 118.89 21.9 118.22 20.44C117.85 14.59 129.14 15.12 127.48 20.55C126.75 22.96 122.93 23.39 120.83 23.05L120.84 23.06Z" fill="#C94E28"/>
    <path d="M111.88 27.17C111.79 27.5 111.66 27.49 111.51 27.17C111.18 27.12 108.08 26.2 107.93 26.08C107.45 25.71 107 24.26 107.04 23.64C107.18 21.57 109.89 20.46 111.69 20.42C118.44 20.26 117.17 27.63 111.88 27.17Z" fill="#C94E28"/>
    <path d="M105.81 27.61C109.17 27.14 112.48 30.87 109.84 33.54C104.53 38.94 98.9399 28.57 105.81 27.61Z" fill="#C94E28"/>
    <path d="M108.05 11.2001C113.64 10.8301 113.96 18.0901 109.03 18.5601C103.58 19.0801 103.12 11.5201 108.05 11.2001Z" fill="#C94E28"/>
    <path d="M118.49 10.06C120.74 9.55002 123.73 9.83001 124.86 12.13C126.37 15.2 122.86 14.87 120.94 15.5C119.53 15.97 119.51 17.22 117.71 16.28C114.61 14.66 115.53 10.73 118.48 10.06H118.49Z" fill="#C94E28"/>
    <path d="M97.5899 7.46001C102.72 6.15001 105.4 12.39 100.95 14.18C95.1999 16.5 93.0099 8.63001 97.5899 7.46001Z" fill="#C94E28"/>
    <path d="M86.47 14.76C86.31 14.13 85.6 13.67 85.78 12.8C85.99 11.81 87.33 10.99 87.59 8.79001C96.08 6.80001 93.99 18.21 86.47 14.77V14.76Z" fill="#C94E28"/>
    <path d="M102.91 18.95C103.08 19.57 103.71 20.22 103.86 20.81C104.46 23.13 102.56 25.67 100.11 25.68C97.2599 25.68 97.8199 24.07 97.3099 21.94C96.4699 22.12 95.7599 18.46 96.2499 18.14C98.2299 18.55 100.21 18.62 102.19 18.37L102.92 18.95H102.91Z" fill="#C94E28"/>
    <path d="M118.23 20.4501C118.96 20.8901 120.5 22.3201 120.85 23.0701C121.67 24.8301 120.38 26.5301 123.09 26.6201C122.57 27.4101 121.45 26.9801 120.83 27.3701C120.44 27.6101 120.55 28.2301 120.47 28.3101C120.27 30.3101 116.94 32.7001 115.24 31.6701L114.94 31.9201C115.07 33.8701 114.49 35.4301 114.12 37.2801C113.14 37.3601 112.12 37.2201 111.13 37.2801C114.12 35.2901 114.66 31.8101 112.62 28.8801C112.23 28.3101 109.73 27.0601 111.5 27.2001C111.62 27.2201 111.75 27.1901 111.87 27.2001C114.04 28.3601 113.89 31.0401 116.46 29.7301C120.47 27.6801 120.91 22.9201 117.11 20.2901C117.34 19.7701 117.93 20.2901 118.23 20.4801V20.4501Z" fill="#551101"/>
    <path d="M136.91 29.79C136.47 27.77 135.27 26.13 133.17 25.68C132.95 25.22 132.36 25.13 132.05 24.75C134.44 21.35 141.2 22.99 139.72 27.57C139.43 28.47 138.01 29.98 136.9 29.79H136.91Z" fill="#C94E28"/>
    <path d="M77.8799 32.77C80.8599 32.56 84.1199 31.62 84.9799 28.29C88.7699 30.97 85.1699 35.3 81.3899 35.35C80.2099 35.36 77.6399 34.37 77.8899 32.77H77.8799Z" fill="#C94E28"/>
    <path d="M97.31 21.94C97.66 25.5 96.93 28.36 92.83 28.29L95.6 25.28C97.19 21.05 95.43 18.09 92.08 15.6L93.95 16.34C94.12 16.13 93.45 15.34 93.58 15.22C94.26 14.61 94.41 15.87 94.69 16.15C96.99 18.44 99.99 18.11 102.92 17.46C103.38 18.05 102.91 18.88 102.92 18.95C100.73 19.64 98.74 19.03 96.57 18.58C96.45 18.71 97.19 21.4 97.31 21.94Z" fill="#541201"/>
    <path d="M120.47 28.29C120.82 30.4 120.02 33.11 117.65 33.5C117.24 33.57 115.32 33.61 115.24 33.52C115.18 33.45 115.19 31.76 115.24 31.65C115.3 31.51 117.42 30.83 117.98 30.47C118.62 30.06 119.9 28.87 120.47 28.29Z" fill="#C94E28"/>
    <path d="M132.43 20.07C134.02 19.94 135.93 20.09 136.91 21.56L132.43 22.31C132.53 21.82 132.31 20.2 132.43 20.07Z" fill="#C94E28"/>
    <path d="M125.7 36.14C123.99 36.36 122.18 36.34 120.47 36.51C121.32 35.72 122.45 35.28 122.34 33.89C122.55 33.71 125.31 35.56 125.7 36.13V36.14Z" fill="#5A1302"/>
    <path d="M99.1799 38C100.23 37.2 101.11 36.47 101.05 35.01C102.06 35.78 102.34 36.95 103.66 37.44L101.04 38C100.42 38.03 99.7899 37.98 99.1699 38H99.1799Z" fill="#591101"/>
    <path d="M72.2801 30.91C73.1501 31.86 75.1601 32.29 75.2601 32.42C76.1101 33.58 73.1901 36.97 71.8901 37.43C71.3601 37.62 68.7401 37.97 68.1701 38.01C66.7201 38.1 65.3001 37.65 64.4301 37.64L65.9201 37.27L64.4301 36.34C65.0001 35.79 66.1401 34.64 66.3001 33.91C68.6601 35.47 72.4501 33.99 72.2801 30.92V30.91Z" fill="#7C1703"/>
    </g>
    <defs>
    <clipPath id="clip0_242_359">
    <rect width="167.24" height="105.65" fill="white"/>
    </clipPath>
    </defs>
</svg>
