<svg width="168" height="96" viewBox="0 0 168 96" fill="none" xmlns="http://www.w3.org/2000/svg" xmlns:xlink="http://www.w3.org/1999/xlink" style="display:none">
    <g clip-path="url(#clip0_242_320)">
    <path d="M74.61 1.65005C90.9 1.14005 108.82 1.86005 124.91 4.43005C135.17 6.06005 156.54 9.83005 159.33 21.71C161.66 31.63 163.48 45.27 164.7 55.51C166.29 68.79 167.85 75.35 154.53 81.57C118.18 98.56 49.64 98.44 13.15 81.85C3.23002 77.34 0.990021 73.85 1.59002 62.73C2.19002 51.61 5.31002 33.5 7.75002 22.04C8.28002 19.56 8.95002 17.96 10.67 16.07C21.36 4.38005 59.18 2.14005 74.61 1.65005Z" fill="#CBC5F2" stroke="#180027" stroke-width="3" stroke-linecap="round" stroke-linejoin="round"/>
    <path d="M105.71 66.2501L61.97 66.1601C59.28 68.5201 58.57 71.65 54.78 73.1C49.61 75.08 41.45 76.1101 38.68 70.0701C35.76 63.6901 45.37 61.37 45.12 58.35C44.88 55.4901 37.48 53.2901 38.02 48.7001C38.88 41.3701 47.72 41.8701 52.97 43.2601C58.53 44.7401 58.38 47.6801 62.39 50.8001L104.41 50.8301C106.64 50.5401 108.65 45.5401 111.45 44.1401C114.85 42.4501 122.46 41.4401 125.73 43.6001C129 45.7601 130.18 49.1501 127.78 52.3801C126 54.7801 120.5 56.6901 122.77 59.8901C125.39 63.5801 132.14 65.11 127.79 71.38C124.71 75.81 118.18 74.8 113.62 73.49C109.56 72.32 107.93 69.5701 105.72 66.2501H105.71Z" fill="#180027"/>
    <path d="M146.18 22.9501C144.06 24.9401 140.75 25.8401 138.01 26.6901C111.1 35.0001 59.5201 34.7701 32.2801 27.6001C31.4801 27.3901 20.1701 24.0201 20.9701 22.9601C27.3401 19.9601 34.2301 18.3501 41.1501 17.0901C61.6501 13.3501 84.7901 13.0201 105.58 14.4801C119.13 15.4301 133.66 17.6601 146.17 22.9601L146.18 22.9501Z" fill="#504EAD" stroke="#180027" stroke-width="3" stroke-linecap="round" stroke-linejoin="round"/>
    <path d="M60.93 31.2601C61.92 29.8101 62.21 28.0101 61.19 26.0401C61.14 25.9901 61.12 25.9501 61.07 25.9101C61.28 26.0401 61.48 26.0401 61.6 25.7501L62.4 25.9301C69.46 22.0301 70.01 33.3801 62.35 30.2301L61.54 30.3001C61.38 30.6501 61.19 30.9701 60.99 31.2601C64.03 31.5401 67.07 31.8901 70.11 32.2601C75.3 32.5601 80.49 32.8101 85.68 33.0201C85.63 31.7201 85.19 30.3001 84.21 28.8101C87.15 27.0401 88.1 23.1801 86.11 20.3301C89.09 16.8301 89.08 12.2401 85.9 8.93006C80.69 5.26006 74.87 9.37006 74.69 15.2801C72.73 14.3501 69.75 14.3001 67.6 14.5301L66.88 14.0901C66.54 12.2301 65.06 11.4801 63.49 10.7901C60.31 10.0401 56.81 10.0201 54.72 13.0401C54.33 13.6001 54.2 14.7301 54.08 14.8301C53.7 15.1601 50.37 15.3601 50.04 17.1401C49.89 17.3701 49.86 17.5701 49.89 17.7401C49.52 17.3501 49.08 17.0201 48.55 16.7701C44.86 15.1501 41.09 14.9501 37.91 17.8901C35.83 19.8101 36.79 21.5201 36.14 22.6601C35.89 23.1001 33.95 23.9201 33.27 25.5801C33.03 26.1701 32.97 27.0301 32.92 27.5401C33.45 27.6801 33.97 27.8501 34.48 28.0701C36.3 28.8201 38.13 29.0701 40.06 29.4301C40.46 29.4901 40.76 29.5401 41.03 29.5801C41.95 29.6801 42.87 29.7901 43.79 29.8801C48.31 30.3201 52.84 30.6001 57.36 30.9401C58.56 31.0301 59.76 31.1301 60.96 31.2401L60.93 31.2601ZM61.17 23.6501C61.35 23.4601 61.55 23.2701 61.77 23.0601C62.02 22.3801 62.15 21.6901 62.19 21.0001C62.34 21.5501 62.56 22.0601 62.85 22.4201C62.55 22.5801 61.79 23.1201 61.16 23.6501H61.17ZM62.1 17.0701L62.35 17.9001C62.16 18.2201 62.05 18.6501 62.01 19.1401C61.62 17.5501 60.62 16.1501 58.98 15.2901C58.97 14.3701 58.22 13.8701 56.73 13.7901C58.72 10.2301 65.24 13.2901 62.09 17.0701H62.1ZM52.61 21.9701L52.26 22.7601L51.47 22.2801C51.56 21.0501 51.18 19.3401 50.13 18.0601C50.29 18.1101 50.51 18.0701 50.76 17.9101L51.6 17.9801C57.19 12.7901 61.39 23.7401 52.6 21.9801L52.61 21.9701Z" fill="#7C1703"/>
    <path d="M81.78 27.6201C83.97 29.2901 84.94 31.2101 85.02 33.0001C85.49 33.0201 85.96 33.0401 86.43 33.0601C86.01 32.0201 85.09 29.1701 85.11 28.9701C85.17 28.5401 86.04 28.6301 86.26 28.3701C87.5 28.6901 88.62 26.2201 87.75 25.3801C88.28 24.2501 88.03 23.5001 87.75 22.3901C88.15 22.0301 88.18 21.3801 87.83 20.4501C89.37 18.6801 89.71 17.3301 88.87 16.4101C88.93 15.8801 88.91 15.1001 88.87 14.5401C88.71 12.0601 87.98 10.4201 85.88 8.94006C85.33 9.40006 86.63 10.0901 86.9 10.7201C87.77 12.7401 87.96 15.0801 87.19 17.1601C87.01 17.6401 85.73 19.6501 85.33 19.6901C84.88 19.7301 82.96 17.8801 82.52 19.0201C86.2 20.0601 87.49 23.0101 85.59 26.3901C84.39 28.5301 83.86 28.4001 81.78 27.6201Z" fill="#551201"/>
    <path d="M50.03 17.15C50.03 17.15 50.66 17.77 50.78 17.9C52.55 17.38 54 22.17 52.27 22.76C51.63 22.86 51.16 23.67 50.4 23.51L50.69 20.05L48.53 16.79C48.94 16.97 49.73 16.98 50.02 17.16L50.03 17.15Z" fill="#571302"/>
    <path d="M67.5801 14.54C67.5201 14.54 66.7901 15.22 66.4601 14.91C66.3501 14.81 66.0501 12.57 65.2801 12.16L63.4701 10.8C65.6501 11.32 67.1301 12.08 67.5801 14.54Z" fill="#501E10"/>
    <path d="M77.9501 19.8401C83.3801 18.9201 84.7501 25.2701 79.9301 26.6901C72.7301 28.8101 71.2201 20.9801 77.9501 19.8401Z" fill="#C94E28"/>
    <path d="M79.81 8.94009C82.38 8.40009 85.04 10.9301 84.69 13.4201C84.54 14.4901 83.33 16.6801 82.26 16.9901C76.14 18.7801 74.89 9.96009 79.81 8.94009Z" fill="#C94E28"/>
    <path d="M50.57 30.4601C51.86 30.5601 53.15 30.6501 54.44 30.7401C57.18 29.9401 59.03 27.2501 56.77 25.1601C54.95 23.4801 51.18 23.5001 49.4 25.1101C48.14 26.2401 48.17 28.7001 49.52 29.8001C49.86 30.0701 50.21 30.2901 50.57 30.4601Z" fill="#C94E28"/>
    <path d="M35.9401 28.59C37.2701 28.97 38.6301 29.18 40.0301 29.44C40.1001 29.45 40.1501 29.46 40.2201 29.47C45.8101 28.69 45.4101 21.47 37.9701 22.84C34.6401 23.45 33.8601 26.9 35.9401 28.59Z" fill="#C94E28"/>
    <path d="M59.3701 24.2601C61.7501 26.8001 61.5801 29.3301 60.1401 31.1901C60.6901 31.2401 61.2401 31.2901 61.7901 31.3401C62.0701 30.9301 62.3001 30.5301 62.3601 30.2301C63.9401 29.8201 63.2201 25.6501 61.6101 25.7501C61.5401 25.6201 60.7301 25.4701 60.8701 24.8401C60.9901 24.2901 63.9101 22.8401 63.8501 22.5801C63.7801 22.2501 63.0101 21.5901 62.8301 20.9801C62.5801 20.1001 62.6701 18.6801 62.3501 17.9101C63.4701 16.5901 59.8701 14.0401 58.9901 15.2901L60.8101 17.4001C61.9501 19.4701 62.0601 23.4401 59.3701 24.2701V24.2601Z" fill="#551101"/>
    <path d="M81.72 32.8601C82.18 30.5901 80.73 27.9301 77.2 28.4401C74.68 28.8001 73.74 30.6901 74 32.4601C76.57 32.6001 79.14 32.7401 81.71 32.8601H81.72Z" fill="#C94E28"/>
    <path d="M67.49 15.7501C73.33 14.2601 75.24 21.0801 70.93 22.5501C64.99 24.5701 63.45 16.7801 67.49 15.7501Z" fill="#C94E28"/>
    <path d="M62.3501 30.23C62.5701 30.95 63.0501 31.35 63.6401 31.53C63.9701 31.56 64.2901 31.59 64.6201 31.63C66.1601 31.54 67.9601 30.49 68.4101 29.39C70.1401 25.18 64.0201 22.27 61.6001 25.75C62.3301 27.12 62.6401 28.68 62.3501 30.23Z" fill="#C94E28"/>
    <path d="M50.77 17.9001C53.19 13.8301 59.64 15.9901 58.16 21.0001C57.4 23.5601 54.03 22.4701 52.26 22.7601C52.49 21.0201 51.97 19.1901 50.77 17.9001Z" fill="#C94E28"/>
    <path d="M41.33 16.8601C45.24 16.0501 49.29 18.7801 46.3 22.5901C46.01 22.7801 42.97 21.3601 41.94 21.2901C40.85 21.2101 38.7 21.9701 38.23 21.2901C37.02 19.5001 39.7 17.2101 41.32 16.8701L41.33 16.8601Z" fill="#C94E28"/>
    <path d="M62.3501 17.9001C61.8101 16.5801 60.2101 15.7701 58.9901 15.2801C58.0001 14.8801 57.1401 14.4101 56.0001 14.5301C55.7101 13.0101 57.0401 11.8001 58.4501 11.5701C62.6301 10.8901 65.5601 14.6501 62.3501 17.9001Z" fill="#C94E28"/>
    <path d="M70.8201 32.2901C71.2301 32.3101 71.6501 32.3301 72.0601 32.3601C72.4801 30.8301 73.7401 29.1401 73.5101 28.2501C73.3701 27.7301 72.5901 27.3801 72.2801 26.8401C71.9601 26.2801 72.0701 25.6601 71.5401 24.9701C71.0801 24.3701 69.5401 23.4201 68.7101 23.5101C71.8901 25.6001 72.6701 29.2801 70.8301 32.3001L70.8201 32.2901Z" fill="#581302"/>
    <path d="M89.4101 33.14C90.7801 32.82 92.1901 32.65 93.6101 32.65C97.2901 32.65 100.96 32.63 104.64 32.61C106.21 32.48 107.79 32.35 109.36 32.21C108.18 27.45 117.66 27.98 116.78 31.44C116.97 31.42 117.16 31.4 117.35 31.38C118.69 31.22 120.03 31.05 121.37 30.89C120.85 29.82 119.94 28.81 118.85 27.86C119.06 28.04 119.47 28.33 119.52 27.99L120.26 27.58C123.46 19.56 134.83 29.46 122.89 29.94L122.14 30.61C122.08 30.67 122.05 30.74 122.01 30.81C122.82 30.71 123.63 30.61 124.44 30.51C126.77 30.25 126.69 30.26 124.2 30.52C125.29 30.32 126.36 30.03 127.4 29.65C129.12 29.11 130.85 28.85 132.54 28.83C132.66 28.72 132.78 28.6 132.91 28.49C132.86 26.65 131.99 24.88 130.22 23.2C130.85 21.18 129.74 19.42 128.49 17.9C125.73 15.96 122.57 15.69 119.41 16.86C118.45 17.21 116.46 19 116.04 18.97C115.28 18.9 113.44 17.67 111.81 17.57C110.93 17.52 108.59 18.03 108.36 17.87C108.25 17.79 108.08 16.84 107.74 16.44C105.63 13.87 102.88 13.34 99.6201 13.89C98.2601 14.12 96.7101 15.48 96.1101 15.58C95.5101 15.68 94.6501 15.01 93.9001 14.95C92.2301 14.82 90.4501 15.25 88.8901 14.55C88.0701 14.97 87.9201 16.21 88.8901 16.42L89.59 17.04C96.11 16.06 94.0601 24.1 88.5501 21.92L87.7701 22.4C87.0501 23.05 87.0801 24.78 87.7701 25.39C88.0801 25.46 88.4001 25.51 88.7101 25.45C91.0501 24.95 92.6401 24.75 93.5501 27.78C94.8201 31.96 87.7001 34.1 87.0501 28.72L86.2701 28.39C85.5601 27.37 84.5301 28.22 84.4301 29.3C85.0501 30.52 85.4701 31.76 85.6101 33.04C86.8801 33.09 88.1501 33.13 89.4201 33.17L89.4101 33.14Z" fill="#7C1703"/>
    <path d="M130.87 24.66C132 26.02 132.52 27.2 132.28 28.82C132.37 28.82 132.46 28.82 132.55 28.82C132.89 28.52 133.23 28.22 133.59 27.93C133.55 27.56 133.51 27.18 133.49 26.81C133.47 26.8 133.45 26.8 133.43 26.78C133.29 26.69 131.36 24.39 131.29 24.24C130.14 21.68 132.42 20.67 128.48 17.9L129.91 21.94C128.86 24.25 129.81 23.38 130.87 24.67V24.66Z" fill="#561809"/>
    <path d="M87.76 25.2901C90.06 22.0901 96.21 25.8201 93.81 30.4101C91.6 34.6301 86.47 32.4501 86.27 28.2801C86.91 27.5301 87.37 25.8401 87.76 25.2901Z" fill="#C94E28"/>
    <path d="M122.13 30.6C122.38 30.64 122.65 30.67 122.94 30.68C123.44 30.62 123.94 30.56 124.44 30.5C126.77 30.24 126.69 30.25 124.2 30.51C125.29 30.31 126.36 30.02 127.4 29.64C127.51 29.61 127.62 29.58 127.72 29.55C128.22 29.18 128.6 28.7 128.78 28.09C130.43 22.66 119.15 22.13 119.52 27.98C120.19 29.43 121.06 30.3 122.14 30.59L122.13 30.6Z" fill="#C94E28"/>
    <path d="M117.34 31.3701C117.41 31.3701 117.49 31.3501 117.56 31.3401C117.65 29.6101 116.28 27.8801 112.97 27.9601C111.17 28.0001 108.46 29.1101 108.32 31.1801C108.3 31.4401 108.38 31.8601 108.5 32.2801C111.45 32.0101 114.4 31.7201 117.34 31.3701Z" fill="#C94E28"/>
    <path d="M109.33 18.7401C114.92 18.3701 115.24 25.6301 110.31 26.1001C104.86 26.6201 104.4 19.0601 109.33 18.7401Z" fill="#C94E28"/>
    <path d="M119.78 17.6001C122.03 17.0901 125.02 17.3701 126.15 19.6701C127.66 22.7401 124.15 22.4101 122.23 23.0401C120.82 23.5101 120.8 24.7601 119 23.8201C115.9 22.2001 116.82 18.2701 119.77 17.6001H119.78Z" fill="#C94E28"/>
    <path d="M98.87 15.0001C104 13.6901 106.68 19.9301 102.23 21.7201C96.48 24.0401 94.29 16.1701 98.87 15.0001Z" fill="#C94E28"/>
    <path d="M87.76 22.3C87.6 21.67 86.89 21.21 87.07 20.34C87.28 19.35 88.62 18.53 88.88 16.33C97.37 14.34 95.28 25.75 87.76 22.31V22.3Z" fill="#C94E28"/>
    <path d="M98.59 29.4801C98.92 30.8401 98.82 31.9801 99.44 32.6301C100.74 32.6301 102.05 32.6301 103.35 32.6201C104.74 31.7301 105.57 29.9901 105.14 28.3501C104.99 27.7601 104.36 27.1101 104.19 26.4901L103.46 25.9101C101.48 26.1601 99.5 26.0901 97.52 25.6801C97.04 26.0001 97.74 29.6501 98.58 29.4801H98.59Z" fill="#C94E28"/>
    <path d="M120.78 30.9501C121.25 30.8901 121.72 30.8301 122.2 30.7801C122.18 30.7201 122.16 30.6601 122.14 30.6001C121.8 29.8601 120.25 28.4201 119.52 27.9801C119.22 27.8001 118.63 27.2701 118.4 27.7901C119.67 28.6701 120.44 29.7801 120.78 30.9401V30.9501Z" fill="#551101"/>
    <path d="M93.36 23.1301C96.67 25.5801 98.42 28.5101 96.94 32.6401C97.45 32.6401 97.97 32.6401 98.48 32.6401C98.68 31.7101 98.71 30.6501 98.59 29.4901C98.46 28.9501 97.73 26.2601 97.85 26.1301C100.02 26.5801 102 27.1901 104.2 26.5001C104.18 26.4201 104.66 25.6001 104.2 25.0101C101.27 25.6601 98.27 25.9901 95.97 23.7001C95.69 23.4201 95.55 22.1601 94.86 22.7701C94.73 22.8801 95.4 23.6801 95.23 23.8901L93.37 23.1501L93.36 23.1301Z" fill="#541201"/>
    </g>
    <defs>
    <clipPath id="clip0_242_320">
    <rect width="167.24" height="95.81" fill="white"/>
    </clipPath>
    </defs>
</svg>