<svg width="1118" height="1265" viewBox="0 0 1118 1265" fill="none" xmlns="http://www.w3.org/2000/svg">
    <g id="perro" clip-path="url(#clip0_373_318)">
    <path id="tail" d="M1061.32 1138.45C1046.98 1147.6 1023.96 1155.64 1003.36 1159.57C985.501 1162.98 969.791 1163.47 958.321 1163.21C945.031 1161.41 931.741 1159.62 918.451 1157.82C909.741 1145.67 910.201 1130.24 918.451 1121.11C926.311 1112.42 938.181 1112.8 940.081 1112.9C986.591 1126.13 1012.52 1117.71 1027.1 1108.93C1085.33 1073.88 1097.83 996.78 1106.73 999.29C1116.38 1002.01 1116.72 1103.1 1061.32 1138.46V1138.45Z" fill="#FFFEFB" stroke="#180027" stroke-width="13.18" stroke-linejoin="round"/>
    <g id="body">
    <g id="Group">
    <path id="Vector" d="M741.309 1193.34C740.399 1197.15 738.159 1204.08 732.279 1210.44C721.499 1222.1 706.919 1222.75 703.839 1222.81C692.289 1227 659.789 1222.81 618.719 1222.81C588.489 1222.81 564.039 1198.36 564.039 1168.24C564.039 1138.12 588.489 1113.56 618.719 1113.56C619.629 1113.56 620.529 1113.56 621.319 1113.67C633.199 1112.44 645.069 1111.21 656.949 1109.98C650.319 1094.83 621.819 1025.23 652.669 949.8C668.169 911.92 692.519 887.51 707.909 874.49C719.039 980.77 730.169 1087.05 741.309 1193.33V1193.34Z" fill="#180027"/>
    <path id="Vector_2" d="M638.309 1158.57C635.899 1158.09 616.019 1154.51 599.919 1168.54C587.839 1179.06 582.399 1195.56 585.589 1211.64" fill="#180027"/>
    <path id="Vector_3" d="M604.898 1138.45C601.418 1138.55 589.108 1139.32 579.118 1148.85C563.148 1164.09 568.498 1187 568.738 1187.96" fill="#180027"/>
    </g>
    <path id="Vector_4" d="M977.149 1178.7C894.989 1249.94 737.979 1234.94 672.769 1157.81C649.079 1129.79 634.909 1090.51 627.469 1069.91C616.279 1038.9 607.409 1013.41 611.499 980.17C612.789 969.67 616.409 940.21 636.529 914.86C672.409 869.66 746.099 855.99 796.469 878.77C845.549 900.97 831.269 939.13 890.419 991.63C956.099 1049.91 1014.2 1038.8 1025.87 1080.13C1038.38 1124.46 982.049 1174.44 977.139 1178.7H977.149Z" fill="#FFFEFB" stroke="#180027" stroke-width="13.18" stroke-linejoin="round"/>
    <path id="Vector_5" d="M819.089 905.84C806.599 908.01 793.729 967.36 822.019 1007.21C824.809 1011.14 842.819 1035.68 875.039 1040.99C892.169 1043.81 919.319 1042.18 922.659 1031.41C926.569 1018.81 893.289 1008.59 859.639 967.28C830.049 930.95 827.679 904.35 819.089 905.84Z" fill="#CE9463"/>
    <g id="Group_2">
    <path id="Vector_6" d="M1015.11 1168.59C1001.19 1194.69 979.739 1210.04 977.459 1211.64C964.329 1220.83 951.789 1225.62 943.099 1228.21H822.649C792.499 1227.99 767.999 1203.23 767.969 1173.64C767.929 1138.97 801.499 1118.96 822.649 1118.96C823.559 1118.96 824.459 1118.96 825.249 1119.07C841.309 1119.01 857.359 1118.95 873.419 1118.89C859.369 1078.93 879.679 1034.46 918.949 1018.93C958.389 1003.33 1003.81 1022.12 1020.73 1061.15C1023.89 1070.42 1040.33 1121.29 1015.11 1168.59Z" fill="#FFFEFB" stroke="#180027" stroke-width="13.18" stroke-miterlimit="10"/>
    <g id="Vector_7">
    <path d="M842.248 1163.95C839.838 1163.47 819.958 1159.89 803.858 1173.92C791.778 1184.44 786.338 1200.94 789.528 1217.02" fill="#FFFEFB"/>
    <path d="M842.248 1163.95C839.838 1163.47 819.958 1159.89 803.858 1173.92C791.778 1184.44 786.338 1200.94 789.528 1217.02" stroke="#180027" stroke-width="13.18" stroke-miterlimit="10"/>
    </g>
    <g id="Vector_8">
    <path d="M808.84 1143.83C805.36 1143.93 793.05 1144.7 783.06 1154.23C767.09 1169.47 772.44 1192.38 772.68 1193.34" fill="#FFFEFB"/>
    <path d="M808.84 1143.83C805.36 1143.93 793.05 1144.7 783.06 1154.23C767.09 1169.47 772.44 1192.38 772.68 1193.34" stroke="#180027" stroke-width="13.18" stroke-miterlimit="10"/>
    </g>
    </g>
    </g>
    <g id="pat-check">
    <path id="Vector_9" d="M731.999 977.82C684.009 987.49 643.809 995.65 606.539 1003.59C590.719 1006.96 563.259 1012.89 551.649 999.27C547.449 994.35 547.169 989.04 546.269 981.26C543.399 956.44 538.229 911.86 519.259 903.89C510.289 900.12 497.179 904.1 492.299 911.75C483.229 925.94 507.249 945.19 499.789 962.31C492.229 979.66 462.459 971.59 448.269 988.83C439.649 999.31 435.969 1020.11 455.999 1065.09C456.339 1067.84 458.239 1080.85 469.669 1089.45C475.909 1094.14 482.319 1095.52 485.809 1095.99C529.409 1089.99 562.559 1083.74 585.539 1078.92C597.199 1076.48 612.719 1073.05 632.869 1070.92C642.709 1069.88 650.129 1069.53 654.849 1069.3C692.299 1067.49 730.189 1065.87 745.849 1065.2" fill="#FFFEFB"/>
    <path id="Vector_10" d="M731.999 977.82C684.009 987.49 643.809 995.65 606.539 1003.59C590.719 1006.96 563.259 1012.89 551.649 999.27C547.449 994.35 547.169 989.04 546.269 981.26C543.399 956.44 538.229 911.86 519.259 903.89C510.289 900.12 497.179 904.1 492.299 911.75C483.229 925.94 507.249 945.19 499.789 962.31C492.229 979.66 462.459 971.59 448.269 988.83C439.649 999.31 435.969 1020.11 455.999 1065.09C456.339 1067.84 458.239 1080.85 469.669 1089.45C475.909 1094.14 482.319 1095.52 485.809 1095.99C529.409 1089.99 562.559 1083.74 585.539 1078.92C597.199 1076.48 612.719 1073.05 632.869 1070.92C642.709 1069.88 650.129 1069.53 654.849 1069.3C692.299 1067.49 730.189 1065.87 745.849 1065.2" stroke="#180027" stroke-width="11.87" stroke-miterlimit="10"/>
    </g>
    <path id="heart_3" d="M1033.55 487.33C1031.22 486.22 1009.5 475.45 1008.38 456.45C1007.81 446.79 1012.49 433.89 1018.91 433.53C1025.22 433.18 1030.5 445.09 1031.01 446.26C1040.55 433.35 1054.3 429.33 1061.57 433.85C1069.36 438.7 1068.5 452.41 1066.46 459.74C1060.73 480.38 1035.66 486.81 1033.56 487.32L1033.55 487.33Z" fill="#F93267" stroke="#180027" stroke-width="10.97" stroke-linecap="round" stroke-linejoin="round"/>
    <path id="heart_2" d="M1028.98 350.69C1024.3 348.45 980.689 326.84 978.429 288.68C977.279 269.29 986.679 243.38 999.579 242.66C1012.26 241.95 1022.85 265.87 1023.87 268.23C1043.04 242.3 1070.65 234.23 1085.23 243.3C1100.87 253.03 1099.14 280.56 1095.05 295.3C1083.54 336.76 1033.19 349.67 1028.98 350.69Z" fill="#F93267" stroke="#180027" stroke-width="21.95" stroke-linecap="round" stroke-linejoin="round"/>
    <path id="heart_1" d="M805.25 287.75C802.92 286.64 781.2 275.87 780.08 256.87C779.51 247.21 784.19 234.31 790.61 233.95C796.92 233.6 802.2 245.51 802.71 246.68C812.25 233.77 826 229.75 833.27 234.27C841.06 239.12 840.2 252.83 838.16 260.16C832.43 280.8 807.36 287.23 805.26 287.74L805.25 287.75Z" fill="#F93267" stroke="#180027" stroke-width="10.97" stroke-linecap="round" stroke-linejoin="round"/>
    <g id="plate">
    <path id="Vector_11" d="M172.539 1047.51C210.219 1046.33 251.659 1048 288.859 1053.93C312.579 1057.71 361.999 1066.43 368.459 1093.89C373.849 1116.83 378.049 1148.36 380.889 1172.07C384.569 1202.79 388.179 1217.94 357.369 1232.35C273.309 1271.65 114.789 1271.36 30.4295 1232.99C7.48947 1222.55 2.28947 1214.49 3.68947 1188.77C5.08947 1163.05 12.2795 1121.16 17.9295 1094.67C19.1595 1088.93 20.6995 1085.24 24.6795 1080.88C49.3895 1053.85 136.859 1048.66 172.539 1047.54V1047.51Z" fill="#CBC5F2" stroke="#180027" stroke-width="6.94" stroke-linecap="round" stroke-linejoin="round"/>
    <path id="Vector_12" d="M244.45 1196.88L143.3 1196.67C137.07 1202.13 135.44 1209.37 126.67 1212.73C114.73 1217.31 95.8502 1219.7 89.4402 1205.71C82.6802 1190.95 104.92 1185.59 104.33 1178.62C103.78 1172.01 86.6602 1166.91 87.9002 1156.29C89.8802 1139.34 110.33 1140.49 122.48 1143.71C135.35 1147.13 134.98 1153.93 144.26 1161.16L241.42 1161.23C246.57 1160.55 251.24 1148.99 257.71 1145.76C265.57 1141.84 283.18 1139.51 290.72 1144.52C298.12 1149.43 301.01 1157.36 295.46 1164.84C291.34 1170.39 278.62 1174.82 283.87 1182.2C289.94 1190.73 305.54 1194.26 295.48 1208.76C288.37 1219.01 273.26 1216.67 262.71 1213.63C253.32 1210.92 249.55 1204.57 244.44 1196.89L244.45 1196.88Z" fill="#180027"/>
    <path id="Vector_13" d="M338.05 1096.75C333.14 1101.36 325.48 1103.44 319.15 1105.39C256.91 1124.61 137.64 1124.07 74.6399 1107.48C72.7899 1106.99 46.6299 1099.2 48.4999 1096.74C63.2199 1089.81 79.1799 1086.08 95.1799 1083.16C142.6 1074.52 196.11 1073.74 244.17 1077.12C275.51 1079.33 309.11 1084.47 338.05 1096.74V1096.75Z" fill="#504EAD" stroke="#180027" stroke-width="6.94" stroke-linecap="round" stroke-linejoin="round"/>
    </g>
    <g id="head">
    <path id="Vector_14" d="M511.199 497.37C550.749 409.87 549.039 396.91 559.099 395.2C596.019 388.93 694.239 550.72 638.759 618.78C616.669 645.88 567.899 660.93 532.679 641.84C498.289 623.19 489.349 578.77 491.679 550.68C492.919 535.67 497.109 528.54 511.189 497.37H511.199Z" fill="#CE9463" stroke="#180027" stroke-width="17.58" stroke-miterlimit="10"/>
    <path id="Vector_15" d="M847.91 802.53C837.63 832.21 827.35 861.9 817.06 891.58C795.33 906.31 752.45 930.83 693.73 935.84C663.45 938.42 637.53 935.08 618.24 930.89C598.99 910.34 579.75 889.79 560.5 869.23C656.3 847 752.11 824.77 847.91 802.54V802.53Z" fill="#CBC5F2" stroke="#180027" stroke-width="14.61" stroke-miterlimit="10"/>
    <path id="Vector_16" d="M877.549 696.06C877.549 583.16 784.649 490.25 671.739 490.25C605.309 490.25 542.769 524.66 506.689 573.72C466.959 627.73 465.959 689.16 465.939 696.05C442.719 719.27 427.229 734.76 424.149 749.81C423.129 754.78 421.219 770.72 442.259 794.12C496.629 870.66 584.709 912.3 671.749 901.85C766.749 890.45 877.559 814.95 877.559 696.04L877.549 696.06Z" fill="#CE9463" stroke="#180027" stroke-width="14.61" stroke-miterlimit="10"/>
    <path id="Vector_17" d="M849.939 464.03C904.229 424.63 913.059 424.75 918.729 427.34C931.159 433.02 929.709 451.17 935.549 541.61C939.369 600.76 940.969 608.18 934.979 623.01C921.839 655.54 889.879 679.86 855.049 687.15C824.239 693.6 775.059 690.1 751.229 655.43C720.759 611.11 755.539 550.47 761.279 540.46C773.149 519.76 798.749 501.18 849.939 464.03Z" fill="#CE9463" stroke="#180027" stroke-width="17.58" stroke-miterlimit="10"/>
    <path id="Vector_18" d="M518.619 569.25C531.879 554.17 543.459 541 549.069 543.67C562.849 550.21 506.729 636.04 536.999 712.83C551.829 750.45 578.549 764.27 572.459 776.52C566.979 787.54 537.299 792.3 425.209 760.31C428.089 751.31 433.939 736.97 446.069 722.72C455.709 711.4 465.879 704.17 473.229 699.79C472.519 681.95 473.859 654.79 485.319 624.68C491.259 609.08 501.349 588.89 518.619 569.25Z" fill="#FFFEFB"/>
    <path id="Vector_19" d="M441.499 812.89C441.499 812.89 457.199 832.38 499.659 814.1C542.119 795.82 477.039 780.97 477.039 780.97C477.039 780.97 438.499 785.4 441.499 812.88V812.89Z" fill="#FFFEFB" stroke="#180027" stroke-width="13.18" stroke-miterlimit="10"/>
    <path id="Vector_20" d="M508.719 699.86C514.299 701.48 531.609 706.85 562.749 727.81C587.939 744.77 600.529 753.25 602.299 762.88C605.879 782.37 585.219 803.21 567.529 812.21C542.829 824.77 517.469 817.52 501.829 813.12C481.229 807.32 465.519 797.1 454.579 787.96C453.689 790.73 450.489 799.36 441.979 803.59C428.809 810.12 414.719 800.25 412.419 798.63C412.419 798.63 403.999 792.63 399.479 782.49C394.499 771.33 407.299 747.77 422.169 730.49C433.789 717 450.999 697 477.699 694.75C488.109 693.87 495.649 696.05 508.729 699.85L508.719 699.86Z" fill="#FFFEFB" stroke="#180027" stroke-width="13.18" stroke-linejoin="round"/>
    <path id="Vector_21" d="M442.88 757.68C420.85 752.71 405.91 739.21 405.32 725.09C405 717.48 408.64 704.74 418.21 702.74C425.13 701.29 433.33 705.86 438.08 714.25C447.54 700.06 461.92 695.1 469.86 699.52C478.37 704.26 478.16 718.85 476.37 726.74C471.35 748.93 445.08 757.04 442.88 757.68Z" fill="#180027"/>
    <path id="Vector_22" d="M363.109 667.28C364.019 665.93 375.649 649.26 395.819 649.53C409.839 649.72 419.149 657.97 421.489 660.18" stroke="#180027" stroke-width="16.37" stroke-miterlimit="10" stroke-linecap="round"/>
    <path id="Vector_23" d="M644.339 660.77C632.019 639.51 608.709 628.85 587.919 633.9C566.909 639.01 557.249 658.04 555.789 661.04" stroke="#180027" stroke-width="16.37" stroke-miterlimit="10" stroke-linecap="round"/>
    <g id="Group_3">
    <path id="Vector_24" d="M656.829 775.81C655.149 774.21 653.349 773.59 651.779 773.05C649.409 772.23 645.829 771 641.939 772.55C641.939 772.55 637.249 774.42 635.119 779.84C634.639 781.06 634.369 782.4 634.369 782.4C634.289 782.8 634.239 783.13 634.219 783.28C633.969 785.19 634.679 787.2 634.829 787.61C635.799 790.22 637.639 791.86 638.479 792.52C638.979 792.84 639.699 793.3 640.589 793.82C641.629 794.43 642.419 794.84 642.469 794.87C644.619 795.99 658.209 795.22 660.229 786.47C661.109 782.63 659.519 778.36 656.839 775.82L656.829 775.81Z" fill="#7C1703"/>
    <g id="Group_4">
    <path id="Vector_25" d="M657.629 776.45C657.219 776.12 656.859 775.91 656.689 775.82C657.929 777.48 660.029 780.91 659.319 784.7C657.969 791.82 647.409 796.3 640.459 793.33C637.849 792.21 636.209 790.24 635.309 788.89C635.689 789.57 636.049 790.25 636.449 790.91C636.969 791.6 637.779 792.52 638.919 793.42C639.789 794.1 641.809 795.66 644.709 796.07C645.929 796.24 647.119 796.05 649.519 795.66C653.229 795.06 655.089 794.76 656.269 793.59C656.769 793.09 657.689 791.97 658.809 790.61C659.149 790.19 659.429 789.84 659.619 789.62C659.589 789.65 659.669 789.54 659.799 789.36C659.979 788.96 660.239 788.31 660.439 787.48C661.359 783.81 660.679 778.89 657.639 776.46L657.629 776.45Z" fill="#551201"/>
    <path id="Vector_26" d="M644.389 773.97C656.479 772.22 655.859 789.88 644.389 787.98C636.809 786.73 635.379 775.28 644.389 773.97Z" fill="#C94E28"/>
    </g>
    </g>
    <g id="Group_5">
    <path id="Vector_27" d="M686.53 799.54C685.43 798.5 684.26 798.09 683.23 797.74C681.68 797.21 679.34 796.4 676.81 797.41C676.81 797.41 673.75 798.63 672.35 802.17C672.04 802.97 671.86 803.84 671.86 803.84C671.81 804.1 671.78 804.32 671.76 804.41C671.6 805.66 672.06 806.97 672.16 807.23C672.79 808.94 674 810 674.54 810.44C674.86 810.65 675.33 810.95 675.92 811.29C676.6 811.69 677.11 811.96 677.15 811.98C678.56 812.71 687.43 812.21 688.74 806.49C689.32 803.98 688.28 801.2 686.53 799.54Z" fill="#7C1703"/>
    <g id="Group_6">
    <path id="Vector_28" d="M687.05 799.95C686.78 799.74 686.55 799.6 686.44 799.54C687.25 800.63 688.621 802.86 688.151 805.34C687.271 809.99 680.371 812.91 675.841 810.97C674.131 810.24 673.07 808.95 672.48 808.07C672.73 808.51 672.96 808.96 673.22 809.39C673.56 809.84 674.091 810.44 674.831 811.03C675.401 811.48 676.72 812.49 678.61 812.76C679.4 812.87 680.19 812.75 681.75 812.49C684.17 812.1 685.381 811.9 686.151 811.14C686.481 810.81 687.08 810.08 687.81 809.19C688.03 808.92 688.221 808.69 688.341 808.54C688.321 808.56 688.371 808.49 688.461 808.37C688.581 808.11 688.75 807.68 688.88 807.14C689.48 804.74 689.04 801.53 687.05 799.94V799.95Z" fill="#551201"/>
    <path id="Vector_29" d="M678.411 798.33C686.301 797.19 685.901 808.71 678.411 807.48C673.461 806.66 672.531 799.19 678.411 798.33Z" fill="#C94E28"/>
    </g>
    </g>
    <g id="Group_7">
    <path id="Vector_30" d="M610.53 820.67C609.24 819.45 607.86 818.97 606.66 818.56C604.84 817.94 602.1 816.99 599.13 818.18C599.13 818.18 595.53 819.61 593.9 823.77C593.53 824.71 593.33 825.73 593.33 825.73C593.27 826.04 593.23 826.29 593.22 826.4C593.03 827.86 593.57 829.4 593.69 829.71C594.43 831.71 595.84 832.96 596.48 833.47C596.86 833.72 597.41 834.06 598.09 834.46C598.88 834.92 599.49 835.24 599.53 835.26C601.18 836.12 611.59 835.53 613.13 828.82C613.81 825.88 612.59 822.61 610.53 820.66V820.67Z" fill="#7C1703"/>
    <g id="Group_8">
    <path id="Vector_31" d="M611.139 821.15C610.829 820.9 610.549 820.74 610.419 820.67C611.369 821.94 612.979 824.57 612.429 827.47C611.399 832.92 603.299 836.35 597.979 834.08C595.979 833.22 594.729 831.71 594.029 830.68C594.319 831.2 594.599 831.72 594.899 832.23C595.299 832.76 595.919 833.47 596.789 834.15C597.449 834.67 599.009 835.87 601.219 836.18C602.149 836.31 603.069 836.16 604.909 835.87C607.749 835.41 609.169 835.18 610.079 834.28C610.459 833.9 611.169 833.04 612.029 831.99C612.289 831.67 612.509 831.4 612.649 831.23C612.629 831.26 612.689 831.17 612.789 831.03C612.929 830.72 613.119 830.22 613.279 829.59C613.979 826.78 613.469 823.01 611.139 821.15Z" fill="#551201"/>
    <path id="Vector_32" d="M601 819.25C610.26 817.91 609.78 831.44 601 829.98C595.19 829.02 594.1 820.25 601 819.25Z" fill="#C94E28"/>
    </g>
    </g>
    <g id="Group_9">
    <path id="Vector_33" d="M690.259 772.82C688.039 771.22 685.669 770.6 683.589 770.06C680.459 769.24 675.729 768.01 670.609 769.56C670.609 769.56 664.419 771.43 661.599 776.85C660.969 778.07 660.609 779.41 660.609 779.41C660.499 779.81 660.439 780.14 660.409 780.29C660.079 782.2 661.019 784.21 661.219 784.62C662.489 787.23 664.929 788.87 666.029 789.53C666.679 789.85 667.639 790.31 668.809 790.83C670.179 791.44 671.219 791.85 671.289 791.88C674.129 793 692.069 792.23 694.729 783.48C695.899 779.64 693.789 775.37 690.259 772.83V772.82Z" fill="#7C1703"/>
    <g id="Group_10">
    <path id="Vector_34" d="M691.319 773.45C690.779 773.12 690.299 772.91 690.079 772.82C691.719 774.48 694.489 777.91 693.549 781.7C691.769 788.82 677.829 793.3 668.659 790.33C665.209 789.21 663.049 787.24 661.859 785.89C662.359 786.57 662.829 787.25 663.359 787.91C664.049 788.6 665.109 789.52 666.619 790.42C667.759 791.1 670.439 792.66 674.259 793.07C675.869 793.24 677.449 793.05 680.609 792.66C685.509 792.06 687.959 791.76 689.509 790.59C690.169 790.09 691.379 788.97 692.869 787.61C693.319 787.19 693.689 786.84 693.939 786.62C693.899 786.65 693.999 786.54 694.179 786.36C694.409 785.96 694.759 785.31 695.029 784.48C696.239 780.81 695.349 775.89 691.339 773.46L691.319 773.45Z" fill="#551201"/>
    <path id="Vector_35" d="M673.849 770.97C689.809 769.22 688.979 786.88 673.849 784.98C663.839 783.73 661.959 772.28 673.849 770.97Z" fill="#C94E28"/>
    </g>
    </g>
    </g>
    </g>
    <defs>
    <clipPath id="clip0_373_318">
    <rect width="1118" height="1265" fill="white"/>
    </clipPath>
    </defs>
</svg>
