<svg width="1384" height="1331" viewBox="0 0 1384 1331" fill="none" xmlns="http://www.w3.org/2000/svg">
    <g id="perro" clip-path="url(#clip0_373_155)">
    <path id="heart_3" d="M924.18 457.25C921.85 456.14 900.13 445.37 899.01 426.37C898.44 416.71 903.12 403.81 909.54 403.45C915.85 403.1 921.13 415.01 921.64 416.18C931.18 403.27 944.93 399.25 952.2 403.77C959.99 408.62 959.13 422.33 957.09 429.66C951.36 450.3 926.29 456.73 924.19 457.24L924.18 457.25Z" fill="#F93267" stroke="#180027" stroke-width="10.97" stroke-linecap="round" stroke-linejoin="round"/>
    <path id="heart_2" d="M795.35 267.95C790.67 265.71 747.06 244.1 744.8 205.94C743.65 186.55 753.05 160.64 765.95 159.92C778.63 159.21 789.22 183.13 790.24 185.49C809.41 159.56 837.02 151.49 851.6 160.56C867.24 170.29 865.51 197.82 861.42 212.56C849.91 254.02 799.56 266.93 795.35 267.95Z" fill="#F93267" stroke="#180027" stroke-width="21.95" stroke-linecap="round" stroke-linejoin="round"/>
    <path id="heart_1" d="M620.59 288.12C618.26 287.01 596.54 276.24 595.42 257.24C594.85 247.58 599.53 234.68 605.95 234.32C612.26 233.97 617.54 245.88 618.05 247.05C627.59 234.14 641.34 230.12 648.61 234.64C656.4 239.49 655.54 253.2 653.5 260.53C647.77 281.17 622.7 287.6 620.6 288.11L620.59 288.12Z" fill="#F93267" stroke="#180027" stroke-width="10.97" stroke-linecap="round" stroke-linejoin="round"/>
    <path id="tail" d="M1312.57 1210.2C1294.58 1221.68 1265.7 1231.77 1239.86 1236.69C1217.45 1240.96 1197.74 1241.58 1183.36 1241.25C1166.69 1239 1150.02 1236.74 1133.34 1234.49C1122.41 1219.25 1122.99 1199.9 1133.34 1188.44C1143.2 1177.54 1158.09 1178.02 1160.47 1178.13C1218.82 1194.72 1251.34 1184.16 1269.63 1173.15C1342.67 1129.18 1358.36 1032.45 1369.52 1035.6C1381.63 1039.02 1382.06 1165.82 1312.56 1210.18L1312.57 1210.2Z" fill="#6D1B34" stroke="#180027" stroke-width="16.53" stroke-miterlimit="10"/>
    <g id="body">
    <g id="Group">
    <path id="Vector" d="M661.49 1279.07C660.35 1283.84 657.54 1292.54 650.16 1300.53C636.64 1315.16 618.34 1315.97 614.48 1316.05C599.99 1321.3 559.22 1316.05 507.7 1316.05C469.78 1316.05 439.1 1285.37 439.1 1247.59C439.1 1209.81 469.78 1178.99 507.7 1178.99C508.84 1178.99 509.97 1178.99 510.97 1179.13C525.87 1177.59 540.77 1176.04 555.67 1174.5C540.36 1096.53 525.05 1018.56 509.75 940.59C546.37 920.09 582.98 899.58 619.6 879.08C627.69 942.87 635.26 1007.95 642.24 1074.26C649.55 1143.74 655.94 1212.03 661.5 1279.06L661.49 1279.07Z" fill="#180027"/>
    <path id="Vector_2" d="M532.279 1235.44C529.259 1234.84 504.319 1230.35 484.119 1247.94C468.959 1261.14 462.139 1281.83 466.149 1302.01" fill="#180027"/>
    <path id="Vector_3" d="M490.37 1210.2C486 1210.32 470.57 1211.29 458.03 1223.25C438 1242.36 444.71 1271.11 445.01 1272.31" fill="#180027"/>
    </g>
    <path id="Vector_4" d="M1213.94 1192.56C1186.18 1226.28 1135.83 1220.93 959.531 1192.56C655.581 1143.65 590.991 1125.09 550.301 1065.65C537.291 1046.64 513.881 1004.7 503.341 949.22C495.201 906.37 488.661 871.94 504.421 843.54C537.281 784.33 650.781 780.69 729.331 799.08C825.611 821.63 822.951 866.42 944.561 929.27C1090.24 1004.57 1168.7 978.88 1211.78 1053.38C1236.11 1095.46 1242.46 1157.92 1213.94 1192.56Z" fill="#F96D5F" stroke="#180027" stroke-width="16.53" stroke-miterlimit="10"/>
    <g id="Group_2">
    <path id="Vector_5" d="M1254.61 1248.01C1237.15 1280.75 1210.24 1300.01 1207.37 1302.01C1190.9 1313.54 1175.16 1319.55 1164.27 1322.8H1013.17C975.35 1322.52 944.62 1291.46 944.57 1254.34C944.52 1210.85 986.63 1185.74 1013.17 1185.74C1014.31 1185.74 1015.44 1185.74 1016.44 1185.88C1036.58 1185.8 1056.73 1185.73 1076.87 1185.65C1059.25 1135.52 1084.73 1079.73 1133.99 1060.25C1183.46 1040.69 1240.44 1064.26 1261.67 1113.21C1265.64 1124.84 1286.26 1188.66 1254.62 1247.99L1254.61 1248.01Z" fill="#F96D5F" stroke="#180027" stroke-width="16.53" stroke-miterlimit="10" stroke-linecap="round"/>
    <g id="Vector_6">
    <path d="M1037.74 1242.19C1034.72 1241.59 1009.78 1237.1 989.58 1254.69C974.42 1267.89 967.6 1288.58 971.61 1308.76" fill="#F96D5F"/>
    <path d="M1037.74 1242.19C1034.72 1241.59 1009.78 1237.1 989.58 1254.69C974.42 1267.89 967.6 1288.58 971.61 1308.76" stroke="#180027" stroke-width="16.53" stroke-miterlimit="10" stroke-linecap="round"/>
    </g>
    <g id="Vector_7">
    <path d="M995.831 1216.95C991.461 1217.07 976.031 1218.04 963.491 1230C943.461 1249.11 950.171 1277.86 950.471 1279.06" fill="#F96D5F"/>
    <path d="M995.831 1216.95C991.461 1217.07 976.031 1218.04 963.491 1230C943.461 1249.11 950.171 1277.86 950.471 1279.06" stroke="#180027" stroke-width="16.53" stroke-miterlimit="10" stroke-linecap="round"/>
    </g>
    </g>
    <path id="Vector_8" d="M505.719 846.09C519.339 850.29 538.239 854.58 561.019 855.25C582.139 855.87 600.009 853.18 613.299 850.17C622.579 858.08 635.369 870.69 646.269 888.85C665.989 921.7 667.819 953.17 669.349 986.24C671.989 1043.17 674.169 1091.59 676.139 1141.48C658.179 1136.09 570.969 1107.98 526.569 1022.72C497.819 967.53 498.499 910.43 499.559 890.3C500.519 872.13 503.239 857 505.709 846.1L505.719 846.09Z" fill="#F4AAA6" stroke="#180027" stroke-width="16.53" stroke-miterlimit="10"/>
    </g>
    <g id="plate">
    <path id="Vector_9" d="M172.54 1109.99C210.22 1108.81 251.66 1110.48 288.86 1116.41C312.58 1120.19 362 1128.91 368.46 1156.37C373.85 1179.31 378.05 1210.84 380.89 1234.55C384.57 1265.27 388.18 1280.42 357.37 1294.83C273.31 1334.13 114.79 1333.84 30.4304 1295.47C7.49045 1285.03 2.29045 1276.97 3.69045 1251.25C5.14045 1224.6 12.2804 1183.64 17.9304 1157.15C19.1604 1151.41 20.7004 1147.72 24.6804 1143.36C49.3904 1116.33 136.86 1111.14 172.54 1110.02V1109.99Z" fill="#CBC5F2" stroke="#180027" stroke-width="6.94" stroke-linecap="round" stroke-linejoin="round"/>
    <path id="Vector_10" d="M244.45 1259.37L143.3 1259.16C137.07 1264.62 135.44 1271.86 126.67 1275.22C114.73 1279.8 95.8502 1282.19 89.4402 1268.2C82.6802 1253.44 104.92 1248.08 104.33 1241.11C103.78 1234.5 86.6602 1229.4 87.9002 1218.78C89.8802 1201.83 110.33 1202.98 122.48 1206.2C135.35 1209.62 134.98 1216.42 144.26 1223.65L241.42 1223.72C246.57 1223.04 251.24 1211.48 257.71 1208.25C265.57 1204.33 283.18 1202 290.72 1207.01C298.12 1211.92 301.01 1219.85 295.46 1227.33C291.34 1232.88 278.62 1237.31 283.87 1244.69C289.94 1253.22 305.54 1256.75 295.48 1271.25C288.37 1281.5 273.26 1279.16 262.71 1276.12C253.32 1273.41 249.55 1267.06 244.44 1259.38L244.45 1259.37Z" fill="#180027"/>
    <path id="Vector_11" d="M338.051 1159.23C333.141 1163.84 325.481 1165.92 319.151 1167.87C256.911 1187.09 137.641 1186.55 74.6409 1169.96C72.7909 1169.47 46.6309 1161.68 48.5009 1159.22C63.2209 1152.29 79.1809 1148.56 95.1809 1145.64C142.601 1137 196.111 1136.22 244.171 1139.6C275.511 1141.81 309.111 1146.95 338.051 1159.22V1159.23Z" fill="#504EAD" stroke="#180027" stroke-width="6.94" stroke-linecap="round" stroke-linejoin="round"/>
    </g>
    <g id="pat-check">
    <path id="Vector_12" d="M721.72 922.17C654.87 935.65 598.87 947.01 546.94 958.08C524.91 962.78 486.65 971.03 470.47 952.06C464.62 945.2 464.23 937.8 462.97 926.96C458.97 892.39 451.77 830.28 425.34 819.17C412.84 813.92 394.59 819.47 387.77 830.13C375.14 849.9 408.6 876.72 398.2 900.56C387.66 924.72 346.19 913.48 326.42 937.51C314.41 952.11 309.28 981.09 337.18 1043.75C337.65 1047.58 340.3 1065.7 356.22 1077.68C364.91 1084.22 373.84 1086.14 378.71 1086.79C439.46 1078.44 485.63 1069.72 517.65 1063.01C533.89 1059.61 555.51 1054.83 583.58 1051.87C597.29 1050.42 607.63 1049.94 614.2 1049.62C666.38 1047.09 719.15 1044.84 740.98 1043.91" fill="#F96D5F"/>
    <path id="Vector_13" d="M721.72 922.17C654.87 935.65 598.87 947.01 546.94 958.08C524.91 962.78 486.65 971.03 470.47 952.06C464.62 945.2 464.23 937.8 462.97 926.96C458.97 892.39 451.77 830.28 425.34 819.17C412.84 813.92 394.59 819.47 387.77 830.13C375.14 849.9 408.6 876.72 398.2 900.56C387.66 924.72 346.19 913.48 326.42 937.51C314.41 952.11 309.28 981.09 337.18 1043.75C337.65 1047.58 340.3 1065.7 356.22 1077.68C364.91 1084.22 373.84 1086.14 378.71 1086.79C439.46 1078.44 485.63 1069.72 517.65 1063.01C533.89 1059.61 555.51 1054.83 583.58 1051.87C597.29 1050.42 607.63 1049.94 614.2 1049.62C666.38 1047.09 719.15 1044.84 740.98 1043.91" stroke="#180027" stroke-width="16.53" stroke-miterlimit="10"/>
    </g>
    <g id="head">
    <path id="Vector_14" d="M443.03 324.4C469.73 305.2 511.83 303.27 539.8 320.4C589.72 350.96 581.06 433.9 567.21 567.32C563.87 599.47 558.76 629.77 535.42 644.94C515.99 657.56 487.26 657.55 465.87 647.1C392.14 611.08 389.23 469.17 408.27 387.53C415.08 358.31 424.39 337.81 443.03 324.41V324.4Z" fill="#6D1B34" stroke="#180027" stroke-width="16.53" stroke-miterlimit="10"/>
    <path id="Vector_15" d="M764.229 698.35C752.599 731.93 740.969 765.5 729.339 799.08C704.759 815.74 656.259 843.48 589.829 849.14C555.579 852.06 526.249 848.28 504.429 843.54C482.659 820.29 460.879 797.04 439.109 773.79C547.479 748.64 655.859 723.49 764.229 698.34V698.35Z" fill="#CBC5F2" stroke="#180027" stroke-width="16.53" stroke-miterlimit="10"/>
    <path id="Vector_16" d="M797.759 577.91C797.759 450.2 692.669 345.1 564.949 345.1C489.809 345.1 419.059 384.03 378.239 439.53C333.299 500.63 332.169 570.12 332.139 577.91C332.139 705.63 437.229 810.72 564.949 810.72C692.709 810.72 797.759 705.55 797.759 577.91Z" fill="#F96D5F" stroke="#180027" stroke-width="16.53" stroke-miterlimit="10"/>
    <path id="Vector_17" d="M699.579 392.67C726.279 373.47 768.379 371.54 796.349 388.67C846.269 419.23 837.609 502.17 823.759 635.59C820.419 667.74 815.309 698.04 791.969 713.21C772.539 725.83 743.809 725.82 722.419 715.37C648.689 679.35 645.779 537.44 664.819 455.8C671.629 426.58 680.939 406.08 699.579 392.68V392.67Z" fill="#6D1B34" stroke="#180027" stroke-width="16.53" stroke-miterlimit="10"/>
    <path id="Vector_18" d="M324.4 750.19C324.4 750.19 342.25 772.36 390.55 751.57C438.85 730.78 364.82 713.89 364.82 713.89C364.82 713.89 320.99 718.93 324.4 750.19Z" fill="#F4AAA6" stroke="#180027" stroke-width="16.53" stroke-miterlimit="10"/>
    <path id="Vector_19" d="M445.27 612.54C453.24 631.25 463.22 644.98 470.29 653.55C496.63 671.53 509.27 698.31 502.59 718.89C496.81 736.69 478.19 744.85 467.73 749.43C437.06 762.87 407.28 754.48 393.01 750.46C369.58 743.86 351.71 732.24 339.27 721.84C338.25 724.99 334.62 734.81 324.94 739.62C309.97 747.05 293.94 735.82 291.31 733.98C288.82 732.24 280.75 726.16 276.59 715.63C266.12 689.13 286.03 653.82 304.89 633.44C312.39 625.33 323.63 612.36 335.43 594.97C351.35 571.5 352.41 563.39 363.69 556.69C381.72 545.97 410.24 548.15 425.68 562.61C437.66 573.84 433.65 585.26 445.28 612.55L445.27 612.54Z" fill="#F4AAA6" stroke="#180027" stroke-width="16.53" stroke-miterlimit="10"/>
    <path id="Vector_20" d="M337.99 722.25C312.94 716.6 295.94 701.24 295.27 685.18C294.91 676.53 299.05 662.03 309.93 659.76C317.81 658.11 327.12 663.31 332.53 672.86C343.29 656.72 359.65 651.07 368.67 656.1C378.35 661.49 378.11 678.08 376.08 687.06C370.37 712.3 340.5 721.52 337.99 722.25Z" fill="#180027"/>
    <path id="Vector_21" d="M238.6 523.65C241.4 520.08 252.75 506.44 272.95 502.71C296.71 498.32 314.38 511.02 317.33 513.21" stroke="#180027" stroke-width="19.08" stroke-miterlimit="10" stroke-linecap="round"/>
    <path id="Vector_22" d="M574.009 518.64C572.369 515.13 561.799 493.47 537.669 486.79C514.829 480.47 489.169 490.17 473.799 511.36" stroke="#180027" stroke-width="19.08" stroke-miterlimit="10" stroke-linecap="round"/>
    <g id="Group_3">
    <path id="Vector_23" d="M553.76 710.96C552.08 709.36 550.28 708.74 548.71 708.2C546.34 707.38 542.76 706.15 538.87 707.7C538.87 707.7 534.18 709.57 532.05 714.99C531.57 716.21 531.3 717.55 531.3 717.55C531.22 717.95 531.171 718.28 531.151 718.43C530.901 720.34 531.61 722.35 531.76 722.76C532.73 725.37 534.57 727.01 535.41 727.67C535.91 727.99 536.63 728.45 537.52 728.97C538.56 729.58 539.351 729.99 539.401 730.02C541.551 731.14 555.14 730.37 557.16 721.62C558.04 717.78 556.45 713.51 553.77 710.97L553.76 710.96Z" fill="#7C1703"/>
    <g id="Group_4">
    <path id="Vector_24" d="M554.55 711.59C554.14 711.26 553.78 711.05 553.61 710.96C554.85 712.62 556.95 716.05 556.24 719.84C554.89 726.96 544.33 731.44 537.38 728.47C534.77 727.35 533.13 725.38 532.23 724.03C532.61 724.71 532.97 725.39 533.37 726.05C533.89 726.74 534.701 727.66 535.841 728.56C536.711 729.24 538.73 730.8 541.63 731.21C542.85 731.38 544.04 731.19 546.44 730.8C550.15 730.2 552.01 729.9 553.19 728.73C553.69 728.23 554.61 727.11 555.73 725.75C556.07 725.33 556.35 724.98 556.54 724.76C556.51 724.79 556.59 724.68 556.72 724.5C556.9 724.1 557.16 723.45 557.36 722.62C558.28 718.95 557.6 714.03 554.56 711.6L554.55 711.59Z" fill="#551201"/>
    <path id="Vector_25" d="M541.321 709.11C553.411 707.36 552.791 725.02 541.321 723.12C533.741 721.87 532.311 710.42 541.321 709.11Z" fill="#C94E28"/>
    </g>
    </g>
    <g id="Group_5">
    <path id="Vector_26" d="M583.46 734.68C582.36 733.64 581.19 733.23 580.16 732.88C578.61 732.35 576.27 731.54 573.74 732.55C573.74 732.55 570.68 733.77 569.28 737.31C568.97 738.11 568.79 738.98 568.79 738.98C568.74 739.24 568.71 739.46 568.69 739.55C568.53 740.8 568.99 742.11 569.09 742.37C569.72 744.08 570.93 745.14 571.47 745.58C571.79 745.79 572.26 746.09 572.85 746.43C573.53 746.83 574.04 747.1 574.08 747.12C575.49 747.85 584.36 747.35 585.67 741.63C586.25 739.12 585.21 736.34 583.46 734.68Z" fill="#7C1703"/>
    <g id="Group_6">
    <path id="Vector_27" d="M583.98 735.1C583.71 734.89 583.48 734.75 583.37 734.69C584.18 735.78 585.55 738.01 585.08 740.49C584.2 745.14 577.3 748.06 572.77 746.12C571.06 745.39 570 744.1 569.41 743.22C569.66 743.66 569.89 744.11 570.15 744.54C570.49 744.99 571.02 745.59 571.76 746.18C572.33 746.63 573.65 747.64 575.54 747.91C576.33 748.02 577.12 747.9 578.68 747.64C581.1 747.25 582.31 747.05 583.08 746.29C583.41 745.96 584.01 745.23 584.74 744.34C584.96 744.07 585.15 743.84 585.27 743.69C585.25 743.71 585.3 743.64 585.39 743.52C585.51 743.26 585.68 742.83 585.81 742.29C586.41 739.89 585.97 736.68 583.98 735.09V735.1Z" fill="#551201"/>
    <path id="Vector_28" d="M575.34 733.48C583.23 732.34 582.83 743.86 575.34 742.63C570.39 741.81 569.46 734.34 575.34 733.48Z" fill="#C94E28"/>
    </g>
    </g>
    <g id="Group_7">
    <path id="Vector_29" d="M507.45 755.81C506.16 754.59 504.78 754.11 503.58 753.7C501.76 753.08 499.02 752.13 496.05 753.32C496.05 753.32 492.45 754.75 490.82 758.91C490.45 759.85 490.25 760.87 490.25 760.87C490.19 761.18 490.15 761.43 490.14 761.54C489.95 763 490.49 764.54 490.61 764.85C491.35 766.85 492.76 768.1 493.4 768.61C493.78 768.86 494.33 769.2 495.01 769.6C495.8 770.06 496.41 770.38 496.45 770.4C498.1 771.26 508.51 770.67 510.05 763.96C510.73 761.02 509.51 757.75 507.45 755.8V755.81Z" fill="#7C1703"/>
    <g id="Group_8">
    <path id="Vector_30" d="M508.059 756.29C507.749 756.04 507.469 755.88 507.339 755.81C508.289 757.08 509.899 759.71 509.349 762.61C508.319 768.06 500.219 771.49 494.899 769.22C492.899 768.36 491.649 766.85 490.949 765.82C491.239 766.34 491.519 766.86 491.819 767.37C492.219 767.9 492.839 768.61 493.709 769.29C494.369 769.81 495.929 771.01 498.139 771.32C499.069 771.45 499.989 771.3 501.829 771.01C504.669 770.55 506.089 770.32 506.999 769.42C507.379 769.04 508.089 768.18 508.949 767.13C509.209 766.81 509.429 766.54 509.569 766.37C509.549 766.4 509.609 766.31 509.709 766.17C509.849 765.86 510.039 765.36 510.199 764.73C510.899 761.92 510.389 758.15 508.059 756.29Z" fill="#551201"/>
    <path id="Vector_31" d="M497.929 754.39C507.189 753.05 506.709 766.58 497.929 765.12C492.119 764.16 491.029 755.39 497.929 754.39Z" fill="#C94E28"/>
    </g>
    </g>
    <g id="Group_9">
    <path id="Vector_32" d="M587.189 707.96C584.969 706.36 582.599 705.74 580.519 705.2C577.389 704.38 572.659 703.15 567.539 704.7C567.539 704.7 561.349 706.57 558.529 711.99C557.899 713.21 557.539 714.55 557.539 714.55C557.429 714.95 557.369 715.28 557.339 715.43C557.009 717.34 557.949 719.35 558.149 719.76C559.419 722.37 561.859 724.01 562.959 724.67C563.609 724.99 564.569 725.45 565.739 725.97C567.109 726.58 568.149 726.99 568.219 727.02C571.059 728.14 588.999 727.37 591.659 718.62C592.829 714.78 590.719 710.51 587.189 707.97V707.96Z" fill="#7C1703"/>
    <g id="Group_10">
    <path id="Vector_33" d="M588.239 708.6C587.699 708.27 587.219 708.06 586.999 707.97C588.639 709.63 591.409 713.06 590.469 716.85C588.689 723.97 574.749 728.45 565.579 725.48C562.129 724.36 559.969 722.39 558.779 721.04C559.279 721.72 559.749 722.4 560.279 723.06C560.969 723.75 562.029 724.67 563.539 725.57C564.679 726.25 567.359 727.81 571.179 728.22C572.789 728.39 574.369 728.2 577.529 727.81C582.429 727.21 584.879 726.91 586.429 725.74C587.089 725.24 588.299 724.12 589.789 722.76C590.239 722.34 590.609 721.99 590.859 721.77C590.819 721.8 590.919 721.69 591.099 721.51C591.329 721.11 591.679 720.46 591.949 719.63C593.159 715.96 592.269 711.04 588.259 708.61L588.239 708.6Z" fill="#551201"/>
    <path id="Vector_34" d="M570.769 706.12C586.729 704.37 585.899 722.03 570.769 720.13C560.759 718.88 558.879 707.43 570.769 706.12Z" fill="#C94E28"/>
    </g>
    </g>
    </g>
    </g>
    <defs>
    <clipPath id="clip0_373_155">
    <rect width="1384" height="1331" fill="white"/>
    </clipPath>
    </defs>
</svg>
