<svg width="1454" height="1266" viewBox="0 0 1454 1266" fill="none" xmlns="http://www.w3.org/2000/svg">
    <g id="perro" clip-path="url(#clip0_373_263)">
    <path id="heart_#" d="M1008.53 260.33C1006.2 259.22 984.479 248.45 983.359 229.45C982.789 219.79 987.47 206.89 993.89 206.53C1000.2 206.18 1005.48 218.09 1005.99 219.26C1015.53 206.35 1029.28 202.33 1036.55 206.85C1044.34 211.7 1043.48 225.41 1041.44 232.74C1035.71 253.38 1010.64 259.81 1008.54 260.32L1008.53 260.33Z" fill="#F93267" stroke="#180027" stroke-width="10.97" stroke-linecap="round" stroke-linejoin="round"/>
    <path id="heart_2" d="M1003.95 123.69C999.27 121.45 955.66 99.84 953.4 61.68C952.25 42.29 961.65 16.38 974.55 15.66C987.23 14.95 997.82 38.87 998.84 41.23C1018.01 15.3 1045.62 7.22996 1060.2 16.3C1075.84 26.03 1074.11 53.56 1070.02 68.3C1058.51 109.76 1008.16 122.67 1003.95 123.69Z" fill="#F93267" stroke="#180027" stroke-width="21.95" stroke-linecap="round" stroke-linejoin="round"/>
    <path id="heart_1" d="M780.231 60.75C777.901 59.64 756.181 48.87 755.061 29.87C754.491 20.21 759.171 7.30998 765.591 6.94998C771.901 6.59998 777.181 18.51 777.691 19.68C787.231 6.76998 800.981 2.74998 808.251 7.26998C816.041 12.12 815.181 25.83 813.141 33.16C807.411 53.8 782.341 60.23 780.241 60.74L780.231 60.75Z" fill="#F93267" stroke="#180027" stroke-width="10.97" stroke-linecap="round" stroke-linejoin="round"/>
    <path id="tail" d="M1186.14 1176.53C1183.1 1168.35 1183.26 1158.02 1175.11 1132.81C1167.33 1108.74 1158.09 1090.04 1151.53 1078.04C1148.16 1060.66 1144.79 1043.29 1141.43 1025.91C1152.94 1009.88 1172.42 1003.94 1187.32 1010.4C1201.51 1016.55 1206.04 1031.56 1206.73 1033.97C1213.43 1079.74 1231.04 1104.61 1246.06 1118.89C1271.1 1142.71 1295.85 1143.68 1384.99 1177.86C1425.04 1193.22 1445.06 1200.98 1444.72 1204.93C1442.78 1227.39 1209.6 1239.65 1186.15 1176.52L1186.14 1176.53Z" fill="#342F38" stroke="#180027" stroke-width="17.39" stroke-linejoin="round"/>
    <g id="body">
    <g id="Group">
    <path id="Vector" d="M764.309 1180.81C763.109 1185.83 760.149 1194.98 752.389 1203.38C738.159 1218.77 718.919 1219.62 714.859 1219.71C699.609 1225.24 656.729 1219.71 602.529 1219.71C562.639 1219.71 530.359 1187.44 530.359 1147.69C530.359 1107.94 562.629 1075.52 602.529 1075.52C603.719 1075.52 604.919 1075.52 605.969 1075.67C621.639 1074.05 637.319 1072.42 652.989 1070.8C649.039 1014.81 642.269 969.55 636.629 937.87C627.169 884.69 620.009 864.72 628.379 838.83C642.309 795.77 687.559 772.36 720.229 760.02C734.919 900.28 749.609 1040.54 764.309 1180.81Z" fill="#180027"/>
    <path id="Vector_2" d="M628.38 1134.91C625.2 1134.28 598.97 1129.56 577.71 1148.06C561.76 1161.95 554.58 1183.71 558.8 1204.94" fill="#180027"/>
    <path id="Vector_3" d="M584.28 1108.36C579.69 1108.49 563.45 1109.51 550.26 1122.09C529.18 1142.2 536.25 1172.44 536.56 1173.7" fill="#180027"/>
    </g>
    <path id="Vector_4" d="M1168.43 1161.48C1062.14 1252.4 862.889 1234.13 766.729 1133.92C763.529 1130.58 742.019 1091.76 698.339 1014.7C661.119 949.02 642.429 916.02 638.649 907.7C618.759 863.92 563.149 741.53 615.589 664.25C659.359 599.74 770.689 578.01 850.229 610.51C962.549 656.4 924.459 774.88 1069.04 894.02C1152.95 963.16 1221.17 970.35 1232.74 1031.41C1244.74 1094.72 1176.43 1154.65 1168.43 1161.49V1161.48Z" fill="#E09A69" stroke="#180027" stroke-width="17.39" stroke-miterlimit="10"/>
    <path id="Vector_5" d="M850.26 620.89C829.28 622.93 824.87 647.55 796.53 679.11C753.2 727.37 706.1 733.73 709.2 744.89C712.09 755.26 755.73 760.48 792.56 743.19C833.4 724.01 837.84 689.97 859.47 691.02C888.74 692.45 908.66 756.17 917.31 783.83C939.06 853.39 936.04 913.16 944.53 913.49C952.31 913.79 956.9 865.19 968.72 865.1C976.31 865.05 977.01 884.42 991.82 906.6C1018.71 946.88 1064.78 955.34 1069.56 956.25C1091.93 960.51 1121.64 958.87 1124.89 948.36C1128.75 935.88 1091.8 922.28 1048.44 884.04C995.49 837.35 966.61 783.59 958.84 768.41C932.46 716.86 934.51 689.87 899.39 653.58C869.7 622.9 856.77 620.25 850.25 620.88L850.26 620.89Z" fill="#342F38"/>
    <g id="Group_2">
    <path id="Vector_6" d="M1218.54 1148.13C1200.17 1182.58 1171.86 1202.83 1168.85 1204.94C1151.52 1217.07 1134.97 1223.39 1123.51 1226.81H964.549C924.759 1226.52 892.429 1193.84 892.379 1154.79C892.329 1109.04 936.629 1082.63 964.549 1082.63C965.739 1082.63 966.939 1082.63 967.989 1082.78C989.179 1082.7 1010.37 1082.62 1031.57 1082.54C1013.03 1029.81 1039.84 971.12 1091.66 950.62C1143.71 930.04 1203.65 954.83 1225.98 1006.34C1230.16 1018.57 1251.85 1085.72 1218.56 1148.13H1218.54Z" fill="#E09A69" stroke="#180027" stroke-width="17.39" stroke-miterlimit="10"/>
    <g id="Vector_7">
    <path d="M990.4 1142.01C987.22 1141.38 960.99 1136.66 939.73 1155.16C923.78 1169.05 916.6 1190.81 920.82 1212.04" fill="#E09A69"/>
    <path d="M990.4 1142.01C987.22 1141.38 960.99 1136.66 939.73 1155.16C923.78 1169.05 916.6 1190.81 920.82 1212.04" stroke="#180027" stroke-width="17.39" stroke-miterlimit="10"/>
    </g>
    <g id="Vector_8">
    <path d="M946.309 1115.46C941.719 1115.59 925.479 1116.61 912.289 1129.19C891.209 1149.3 898.279 1179.54 898.589 1180.8" fill="#E09A69"/>
    <path d="M946.309 1115.46C941.719 1115.59 925.479 1116.61 912.289 1129.19C891.209 1149.3 898.279 1179.54 898.589 1180.8" stroke="#180027" stroke-width="17.39" stroke-miterlimit="10"/>
    </g>
    </g>
    </g>
    <g id="pat-check">
    <path id="Vector_9" d="M794.921 787C728.071 800.48 672.071 811.84 620.141 822.91C598.111 827.61 559.851 835.86 543.671 816.89C537.821 810.03 537.431 802.63 536.171 791.79C532.171 757.22 524.971 695.11 498.541 684C486.041 678.75 467.791 684.3 460.971 694.96C448.341 714.73 481.801 741.55 471.401 765.39C460.861 789.55 419.391 778.31 399.621 802.34C387.611 816.94 382.481 845.92 410.381 908.58C410.851 912.41 413.501 930.53 429.421 942.51C438.111 949.05 447.041 950.97 451.911 951.62C512.661 943.27 558.831 934.55 590.851 927.84C607.091 924.44 628.711 919.66 656.781 916.7C670.491 915.25 680.831 914.77 687.401 914.45C739.581 911.92 792.351 909.67 814.181 908.74" fill="#E09A69"/>
    <path id="Vector_10" d="M794.921 787C728.071 800.48 672.071 811.84 620.141 822.91C598.111 827.61 559.851 835.86 543.671 816.89C537.821 810.03 537.431 802.63 536.171 791.79C532.171 757.22 524.971 695.11 498.541 684C486.041 678.75 467.791 684.3 460.971 694.96C448.341 714.73 481.801 741.55 471.401 765.39C460.861 789.55 419.391 778.31 399.621 802.34C387.611 816.94 382.481 845.92 410.381 908.58C410.851 912.41 413.501 930.53 429.421 942.51C438.111 949.05 447.041 950.97 451.911 951.62C512.661 943.27 558.831 934.55 590.851 927.84C607.091 924.44 628.711 919.66 656.781 916.7C670.491 915.25 680.831 914.77 687.401 914.45C739.581 911.92 792.351 909.67 814.181 908.74" stroke="#180027" stroke-width="16.53" stroke-miterlimit="10"/>
    </g>
    <g id="plate">
    <path id="Vector_11" d="M172.539 1047.72C210.219 1046.54 251.659 1048.21 288.859 1054.14C312.579 1057.92 361.999 1066.64 368.459 1094.1C373.849 1117.04 378.049 1148.57 380.889 1172.28C384.569 1203 388.179 1218.15 357.369 1232.56C273.309 1271.86 114.789 1271.57 30.4295 1233.2C7.48947 1222.76 2.28947 1214.7 3.68947 1188.98C5.08947 1163.26 12.2795 1121.37 17.9295 1094.88C19.1595 1089.14 20.6995 1085.45 24.6795 1081.09C49.3895 1054.06 136.859 1048.87 172.539 1047.75V1047.72Z" fill="#CBC5F2" stroke="#180027" stroke-width="6.94" stroke-linecap="round" stroke-linejoin="round"/>
    <path id="Vector_12" d="M244.45 1197.1L143.3 1196.89C137.07 1202.35 135.44 1209.59 126.67 1212.95C114.73 1217.53 95.8502 1219.92 89.4402 1205.93C82.6802 1191.17 104.92 1185.81 104.33 1178.84C103.78 1172.23 86.6602 1167.13 87.9002 1156.51C89.8802 1139.56 110.33 1140.71 122.48 1143.93C135.35 1147.35 134.98 1154.15 144.26 1161.38L241.42 1161.45C246.57 1160.77 251.24 1149.21 257.71 1145.98C265.57 1142.06 283.18 1139.73 290.72 1144.74C298.12 1149.65 301.01 1157.58 295.46 1165.06C291.34 1170.61 278.62 1175.04 283.87 1182.42C289.94 1190.95 305.54 1194.48 295.48 1208.98C288.37 1219.23 273.26 1216.89 262.71 1213.85C253.32 1211.14 249.55 1204.79 244.44 1197.11L244.45 1197.1Z" fill="#180027"/>
    <path id="Vector_13" d="M338.05 1096.96C333.14 1101.57 325.48 1103.65 319.15 1105.6C256.91 1124.82 137.64 1124.28 74.6399 1107.69C72.7899 1107.2 46.6299 1099.41 48.4999 1096.95C63.2199 1090.02 79.1799 1086.29 95.1799 1083.37C142.6 1074.73 196.11 1073.95 244.17 1077.33C275.51 1079.54 309.11 1084.68 338.05 1096.95V1096.96Z" fill="#504EAD" stroke="#180027" stroke-width="6.94" stroke-linecap="round" stroke-linejoin="round"/>
    </g>
    <g id="head">
    <path id="Vector_14" d="M652.549 101.47C583.919 35.81 580.689 23.28 570.829 25.44C534.629 33.33 504.329 218.09 580.379 260.02C610.669 276.72 660.969 272.51 686.229 241.97C710.889 212.15 702.669 168.09 690.159 143.18C683.479 129.87 676.999 124.87 652.549 101.48V101.47Z" fill="#342F38" stroke="#180027" stroke-width="17.39" stroke-miterlimit="10"/>
    <path id="Vector_15" d="M886.94 504.52C874.7 539.84 862.47 575.17 850.23 610.49C824.38 628.02 773.35 657.2 703.46 663.16C667.43 666.23 636.58 662.26 613.62 657.26C590.71 632.8 567.81 608.34 544.9 583.89C658.91 557.43 772.92 530.98 886.93 504.52H886.94Z" fill="#180027" stroke="#180027" stroke-width="17.39" stroke-miterlimit="10"/>
    <path id="Vector_16" d="M922.22 377.82C922.22 243.46 811.66 132.9 677.3 132.9C598.25 132.9 523.83 173.85 480.88 232.24C433.6 296.52 432.41 369.62 432.38 377.82C404.74 405.46 386.31 423.89 382.65 441.8C381.44 447.72 379.17 466.68 404.2 494.54C468.91 585.62 573.72 635.18 677.3 622.74C790.36 609.17 922.22 519.32 922.22 377.82Z" fill="#E09A69" stroke="#180027" stroke-width="17.39" stroke-miterlimit="10"/>
    <path id="Vector_17" d="M897.66 180.93C876 88.45 880.14 76.2 870.7 72.61C836.06 59.46 709.81 197.71 750.64 274.36C766.9 304.89 811.35 328.82 849.18 317.02C886.12 305.5 903.29 264.1 906.4 236.39C908.07 221.59 905.37 213.86 897.65 180.92L897.66 180.93Z" fill="#342F38" stroke="#180027" stroke-width="17.39" stroke-miterlimit="10"/>
    <path id="Vector_18" d="M486.239 323.89C504.809 333.14 552.849 213.05 605.769 217.56C655.309 221.78 703.909 334.72 671.379 378.77C641.009 419.9 546.349 392.01 536.799 423.55C530.779 443.42 564.039 467.16 559.149 473.57C555.339 478.57 530.729 469.84 452.539 421.89C442.219 393.85 441.219 370.08 441.719 355.83C441.719 355.83 443.139 314.98 465.979 271.82C468.359 267.33 472.939 259.82 477.249 252.77C482.399 244.34 482.929 243.53 483.539 243.64C487.609 244.35 472.369 316.97 486.229 323.88L486.239 323.89Z" fill="#342F38"/>
    <path id="Vector_19" d="M349.259 526.04C349.259 526.04 366.909 547.96 414.679 527.4C462.439 506.84 389.239 490.14 389.239 490.14C389.239 490.14 345.889 495.12 349.259 526.04Z" fill="#342F38" stroke="#180027" stroke-width="14.82" stroke-miterlimit="10"/>
    <path id="Vector_20" d="M492.999 332.95C514.199 341.89 497.669 379.83 531.369 431.13C548.049 456.51 561.599 461.69 560.099 476.8C557.109 506.91 499.599 522.91 491.019 525.3C453.679 535.69 423.569 528.14 417.119 526.32C393.939 519.8 376.269 508.31 363.969 498.02C362.959 501.13 359.369 510.85 349.799 515.6C334.989 522.95 319.139 511.84 316.549 510.03C316.549 510.03 307.079 503.28 301.989 491.88C296.389 479.33 310.789 452.82 327.509 433.39C345.759 412.2 362.979 407.7 389.969 393.19C461.819 354.56 474.279 325.07 492.999 332.97V332.95Z" fill="#342F38" stroke="#180027" stroke-width="14.82" stroke-linejoin="round"/>
    <path id="Vector_21" d="M350.819 463.94C326.049 458.36 309.239 443.16 308.569 427.28C308.209 418.72 312.309 404.39 323.059 402.14C330.849 400.51 340.059 405.65 345.409 415.09C356.049 399.13 372.229 393.54 381.149 398.52C390.719 403.85 390.479 420.26 388.479 429.13C382.829 454.09 353.289 463.21 350.809 463.93L350.819 463.94Z" fill="#180027"/>
    <path id="Vector_22" d="M324.43 331.67C325.49 330.1 339.04 310.68 362.55 310.99C378.89 311.21 389.73 320.83 392.46 323.4" stroke="#180027" stroke-width="19.08" stroke-miterlimit="10" stroke-linecap="round"/>
    <path id="Vector_23" d="M652.11 324.08C637.75 299.31 610.59 286.88 586.37 292.78C561.89 298.73 550.63 320.91 548.93 324.4" stroke="#180027" stroke-width="19.08" stroke-miterlimit="10" stroke-linecap="round"/>
    <g id="Group_3">
    <path id="Vector_24" d="M640.87 477.81C639.19 476.21 637.39 475.59 635.82 475.05C633.45 474.23 629.87 473 625.98 474.55C625.98 474.55 621.29 476.42 619.16 481.84C618.68 483.06 618.41 484.4 618.41 484.4C618.33 484.8 618.28 485.13 618.26 485.28C618.01 487.19 618.72 489.2 618.87 489.61C619.84 492.22 621.68 493.86 622.52 494.52C623.02 494.84 623.74 495.3 624.63 495.82C625.67 496.43 626.46 496.84 626.51 496.87C628.66 497.99 642.25 497.22 644.27 488.47C645.15 484.63 643.56 480.36 640.88 477.82L640.87 477.81Z" fill="#7C1703"/>
    <g id="Group_4">
    <path id="Vector_25" d="M641.67 478.44C641.26 478.11 640.9 477.9 640.73 477.81C641.97 479.47 644.07 482.9 643.36 486.69C642.01 493.81 631.45 498.29 624.5 495.32C621.89 494.2 620.25 492.23 619.35 490.88C619.73 491.56 620.09 492.24 620.49 492.9C621.01 493.59 621.82 494.51 622.96 495.41C623.83 496.09 625.85 497.65 628.75 498.06C629.97 498.23 631.16 498.04 633.56 497.65C637.27 497.05 639.13 496.75 640.31 495.58C640.81 495.08 641.73 493.96 642.85 492.6C643.19 492.18 643.47 491.83 643.66 491.61C643.63 491.64 643.71 491.53 643.84 491.35C644.02 490.95 644.28 490.3 644.48 489.47C645.4 485.8 644.72 480.88 641.68 478.45L641.67 478.44Z" fill="#551201"/>
    <path id="Vector_26" d="M628.43 475.96C640.52 474.21 639.9 491.87 628.43 489.97C620.85 488.72 619.42 477.27 628.43 475.96Z" fill="#C94E28"/>
    </g>
    </g>
    <g id="Group_5">
    <path id="Vector_27" d="M670.569 501.54C669.469 500.5 668.299 500.09 667.269 499.74C665.719 499.21 663.379 498.4 660.849 499.41C660.849 499.41 657.789 500.63 656.389 504.17C656.079 504.97 655.899 505.84 655.899 505.84C655.849 506.1 655.819 506.32 655.799 506.41C655.639 507.66 656.099 508.97 656.199 509.23C656.829 510.94 658.039 512 658.579 512.44C658.899 512.65 659.369 512.95 659.959 513.29C660.639 513.69 661.149 513.96 661.189 513.98C662.599 514.71 671.469 514.21 672.779 508.49C673.359 505.98 672.319 503.2 670.569 501.54Z" fill="#7C1703"/>
    <g id="Group_6">
    <path id="Vector_28" d="M671.09 501.95C670.82 501.74 670.589 501.6 670.479 501.54C671.289 502.63 672.66 504.86 672.19 507.34C671.31 511.99 664.41 514.91 659.88 512.97C658.17 512.24 657.11 510.95 656.52 510.07C656.77 510.51 657 510.96 657.26 511.39C657.6 511.84 658.13 512.44 658.87 513.03C659.44 513.48 660.76 514.49 662.65 514.76C663.44 514.87 664.229 514.75 665.789 514.49C668.209 514.1 669.42 513.9 670.19 513.14C670.52 512.81 671.119 512.08 671.849 511.19C672.069 510.92 672.26 510.69 672.38 510.54C672.36 510.56 672.41 510.49 672.5 510.37C672.62 510.11 672.789 509.68 672.919 509.14C673.519 506.74 673.08 503.53 671.09 501.94V501.95Z" fill="#551201"/>
    <path id="Vector_29" d="M662.45 500.33C670.34 499.19 669.94 510.71 662.45 509.48C657.5 508.66 656.57 501.19 662.45 500.33Z" fill="#C94E28"/>
    </g>
    </g>
    <g id="Group_7">
    <path id="Vector_30" d="M594.569 522.66C593.279 521.44 591.899 520.96 590.699 520.55C588.879 519.93 586.139 518.98 583.169 520.17C583.169 520.17 579.569 521.6 577.939 525.76C577.569 526.7 577.369 527.72 577.369 527.72C577.309 528.03 577.269 528.28 577.259 528.39C577.069 529.85 577.609 531.39 577.729 531.7C578.469 533.7 579.879 534.95 580.519 535.46C580.899 535.71 581.449 536.05 582.129 536.45C582.919 536.91 583.529 537.23 583.569 537.25C585.219 538.11 595.629 537.52 597.169 530.81C597.849 527.87 596.629 524.6 594.569 522.65V522.66Z" fill="#7C1703"/>
    <g id="Group_8">
    <path id="Vector_31" d="M595.178 523.15C594.868 522.9 594.588 522.74 594.458 522.67C595.408 523.94 597.018 526.57 596.468 529.47C595.438 534.92 587.338 538.35 582.018 536.08C580.018 535.22 578.768 533.71 578.068 532.68C578.358 533.2 578.638 533.72 578.938 534.23C579.338 534.76 579.958 535.47 580.828 536.15C581.488 536.67 583.048 537.87 585.258 538.18C586.188 538.31 587.108 538.16 588.948 537.87C591.788 537.41 593.208 537.18 594.118 536.28C594.498 535.9 595.208 535.04 596.068 533.99C596.328 533.67 596.548 533.4 596.688 533.23C596.668 533.26 596.728 533.17 596.828 533.03C596.968 532.72 597.158 532.22 597.318 531.59C598.018 528.78 597.508 525.01 595.178 523.15Z" fill="#551201"/>
    <path id="Vector_32" d="M585.039 521.25C594.299 519.91 593.819 533.44 585.039 531.98C579.229 531.02 578.139 522.25 585.039 521.25Z" fill="#C94E28"/>
    </g>
    </g>
    <g id="Group_9">
    <path id="Vector_33" d="M674.298 474.82C672.078 473.22 669.708 472.6 667.628 472.06C664.498 471.24 659.769 470.01 654.649 471.56C654.649 471.56 648.458 473.43 645.638 478.85C645.008 480.07 644.649 481.41 644.649 481.41C644.539 481.81 644.478 482.14 644.448 482.29C644.118 484.2 645.058 486.21 645.258 486.62C646.528 489.23 648.968 490.87 650.068 491.53C650.718 491.85 651.678 492.31 652.848 492.83C654.218 493.44 655.258 493.85 655.328 493.88C658.168 495 676.108 494.23 678.768 485.48C679.938 481.64 677.828 477.37 674.298 474.83V474.82Z" fill="#7C1703"/>
    <g id="Group_10">
    <path id="Vector_34" d="M675.358 475.45C674.818 475.12 674.338 474.91 674.118 474.82C675.758 476.48 678.528 479.91 677.588 483.7C675.808 490.82 661.868 495.3 652.698 492.33C649.248 491.21 647.088 489.24 645.898 487.89C646.398 488.57 646.868 489.25 647.398 489.91C648.088 490.6 649.148 491.52 650.658 492.42C651.798 493.1 654.478 494.66 658.298 495.07C659.908 495.24 661.488 495.05 664.648 494.66C669.548 494.06 671.998 493.76 673.548 492.59C674.208 492.09 675.418 490.97 676.908 489.61C677.358 489.19 677.728 488.84 677.978 488.62C677.938 488.65 678.038 488.54 678.218 488.36C678.448 487.96 678.798 487.31 679.068 486.48C680.278 482.81 679.388 477.89 675.378 475.46L675.358 475.45Z" fill="#551201"/>
    <path id="Vector_35" d="M657.888 472.97C673.848 471.22 673.018 488.88 657.888 486.98C647.878 485.73 645.998 474.28 657.888 472.97Z" fill="#C94E28"/>
    </g>
    </g>
    </g>
    </g>
    <defs>
    <clipPath id="clip0_373_263">
    <rect width="1453.41" height="1265.46" fill="white"/>
    </clipPath>
    </defs>
</svg>
