<svg width="1226" height="1265" viewBox="0 0 1226 1265" fill="none" xmlns="http://www.w3.org/2000/svg">
    <g id="perro" clip-path="url(#clip0_373_209)">
    <g id="tail">
    <path id="Vector" d="M1152.63 1079.32C1134.2 1091.09 1104.6 1101.42 1078.13 1106.47C1055.17 1110.85 1034.98 1111.48 1020.24 1111.15C1003.16 1108.84 986.071 1106.53 968.991 1104.22C957.791 1088.6 958.381 1068.77 968.991 1057.04C979.091 1045.87 994.351 1046.36 996.791 1046.48C1056.57 1063.48 1089.9 1052.66 1108.64 1041.38C1183.48 996.33 1199.55 897.22 1211 900.44C1223.41 903.94 1223.84 1033.87 1152.63 1079.32Z" fill="white" stroke="#180027" stroke-width="16.94" stroke-linejoin="round"/>
    <path id="Vector_2" d="M1134.57 1032.37C1136.91 1030.98 1140.54 1029.16 1145.26 1028.1C1148.22 1027.43 1156.02 1025.79 1164.64 1029.14C1168.62 1030.68 1175.84 1033.49 1177.56 1039.29C1179.72 1046.56 1172.02 1054.49 1164.18 1062.37C1150.26 1076.35 1136.12 1083.11 1132.57 1084.75C1113.26 1093.67 1090.96 1097.98 1089.06 1093.74C1087.51 1090.28 1101.26 1084.85 1102.57 1072.98C1103.45 1064.94 1098.2 1057.78 1093.99 1053.24C1107.52 1046.28 1121.04 1039.33 1134.57 1032.37Z" fill="#CBC5F2"/>
    </g>
    <g id="body">
    <g id="Group">
    <path id="Vector_3" d="M741.29 1149.88C740.12 1154.77 737.24 1163.68 729.68 1171.86C715.82 1186.85 697.08 1187.68 693.12 1187.77C678.27 1193.15 636.5 1187.77 583.71 1187.77C544.86 1187.77 513.42 1156.34 513.42 1117.63C513.42 1078.92 544.85 1047.34 583.71 1047.34C584.87 1047.34 586.04 1047.34 587.06 1047.49C602.33 1045.91 617.59 1044.33 632.86 1042.74C624.34 1023.27 587.7 933.81 627.36 836.85C647.28 788.16 678.59 756.78 698.36 740.05C712.67 876.66 726.98 1013.27 741.29 1149.88Z" fill="#180027"/>
    <path id="Vector_4" d="M608.901 1105.18C605.801 1104.57 580.251 1099.97 559.551 1117.99C544.021 1131.52 537.031 1152.72 541.141 1173.39" fill="#180027"/>
    <path id="Vector_5" d="M565.95 1079.32C561.48 1079.45 545.66 1080.44 532.81 1092.69C512.28 1112.28 519.16 1141.73 519.47 1142.96" fill="#180027"/>
    </g>
    <path id="Vector_6" d="M1044.44 1131.06C940.92 1219.62 746.86 1201.82 653.19 1104.21C628.29 1078.26 614.38 1048.2 586.58 988.09C554.3 918.32 529.95 863.83 540.71 796.93C543.61 778.89 550.07 738.76 580.35 703.63C634.49 640.82 741.79 620.34 810.8 658.08C888.6 700.61 853.63 776.03 947.63 870.55C1024.77 948.12 1095.84 945.12 1107.07 1004.37C1118.76 1066.03 1052.22 1124.4 1044.43 1131.07L1044.44 1131.06Z" fill="white" stroke="#180027" stroke-width="16.94" stroke-miterlimit="10"/>
    <g id="Group_2">
    <path id="Vector_7" d="M1093.24 1118.06C1075.35 1151.61 1047.77 1171.34 1044.84 1173.39C1027.96 1185.2 1011.84 1191.36 1000.68 1194.69H845.851C807.091 1194.41 775.611 1162.57 775.561 1124.55C775.511 1079.99 818.661 1054.26 845.851 1054.26C847.011 1054.26 848.181 1054.26 849.201 1054.41C869.841 1054.33 890.481 1054.26 911.121 1054.18C893.061 1002.82 919.171 945.66 969.651 925.69C1020.34 905.64 1078.72 929.8 1100.47 979.96C1104.54 991.87 1125.66 1057.27 1093.24 1118.06Z" fill="#CBC5F2" stroke="#180027" stroke-width="16.94" stroke-miterlimit="10"/>
    <g id="Vector_8">
    <path d="M871.041 1112.1C867.941 1111.49 842.391 1106.89 821.691 1124.91C806.161 1138.44 799.171 1159.64 803.281 1180.31" fill="#CBC5F2"/>
    <path d="M871.041 1112.1C867.941 1111.49 842.391 1106.89 821.691 1124.91C806.161 1138.44 799.171 1159.64 803.281 1180.31" stroke="#180027" stroke-width="16.94" stroke-miterlimit="10"/>
    </g>
    <g id="Vector_9">
    <path d="M828.09 1086.24C823.62 1086.37 807.8 1087.36 794.95 1099.61C774.42 1119.2 781.3 1148.65 781.61 1149.88" fill="#CBC5F2"/>
    <path d="M828.09 1086.24C823.62 1086.37 807.8 1087.36 794.95 1099.61C774.42 1119.2 781.3 1148.65 781.61 1149.88" stroke="#180027" stroke-width="16.94" stroke-miterlimit="10"/>
    </g>
    </g>
    <path id="Vector_10" d="M864.589 744.02C849.589 746.33 832.239 828.3 872.419 882.82C877.659 889.93 900.929 919.72 940.569 926.24C963.929 930.08 997.029 926.52 1000.41 913.8C1004.31 899.1 964.329 888.01 925.539 845.9C876.999 793.2 876.619 742.17 864.589 744.02Z" fill="#180027"/>
    </g>
    <path id="heart_3" d="M996.141 342.33C993.811 341.22 972.091 330.45 970.971 311.45C970.401 301.79 975.081 288.89 981.501 288.53C987.811 288.18 993.091 300.09 993.601 301.26C1003.14 288.35 1016.89 284.33 1024.16 288.85C1031.95 293.7 1031.09 307.41 1029.05 314.74C1023.32 335.38 998.251 341.81 996.151 342.32L996.141 342.33Z" fill="#F93267" stroke="#180027" stroke-width="10.97" stroke-linecap="round" stroke-linejoin="round"/>
    <path id="heart_2" d="M991.559 205.69C986.879 203.45 943.269 181.84 941.009 143.68C939.859 124.29 949.259 98.38 962.159 97.66C974.839 96.95 985.429 120.87 986.449 123.23C1005.62 97.3 1033.23 89.23 1047.81 98.3C1063.45 108.03 1061.72 135.56 1057.63 150.3C1046.12 191.76 995.769 204.67 991.559 205.69Z" fill="#F93267" stroke="#180027" stroke-width="21.95" stroke-linecap="round" stroke-linejoin="round"/>
    <path id="heart_1" d="M767.84 142.75C765.51 141.64 743.79 130.87 742.67 111.87C742.1 102.21 746.78 89.31 753.2 88.95C759.51 88.6 764.79 100.51 765.3 101.68C774.84 88.77 788.59 84.75 795.86 89.27C803.65 94.12 802.79 107.83 800.75 115.16C795.02 135.8 769.95 142.23 767.85 142.74L767.84 142.75Z" fill="#F93267" stroke="#180027" stroke-width="10.97" stroke-linecap="round" stroke-linejoin="round"/>
    <g id="plate">
    <path id="Vector_11" d="M172.539 1047.74C210.219 1046.56 251.659 1048.23 288.859 1054.16C312.579 1057.94 361.999 1066.66 368.459 1094.12C373.849 1117.06 378.049 1148.59 380.889 1172.3C384.569 1203.02 388.179 1218.17 357.369 1232.58C273.309 1271.88 114.789 1271.59 30.4295 1233.22C7.48947 1222.78 2.28947 1214.72 3.68947 1189C5.13947 1162.35 12.2795 1121.39 17.9295 1094.9C19.1595 1089.16 20.6995 1085.47 24.6795 1081.11C49.3895 1054.08 136.859 1048.89 172.539 1047.77V1047.74Z" fill="#CBC5F2" stroke="#180027" stroke-width="6.94" stroke-linecap="round" stroke-linejoin="round"/>
    <path id="Vector_12" d="M244.45 1197.12L143.3 1196.91C137.07 1202.37 135.44 1209.61 126.67 1212.97C114.73 1217.55 95.8502 1219.94 89.4402 1205.95C82.6802 1191.19 104.92 1185.83 104.33 1178.86C103.78 1172.25 86.6602 1167.15 87.9002 1156.53C89.8802 1139.58 110.33 1140.73 122.48 1143.95C135.35 1147.37 134.98 1154.17 144.26 1161.4L241.42 1161.47C246.57 1160.79 251.24 1149.23 257.71 1146C265.57 1142.08 283.18 1139.75 290.72 1144.76C298.12 1149.67 301.01 1157.6 295.46 1165.08C291.34 1170.63 278.62 1175.06 283.87 1182.44C289.94 1190.97 305.54 1194.5 295.48 1209C288.37 1219.25 273.26 1216.91 262.71 1213.87C253.32 1211.16 249.55 1204.81 244.44 1197.13L244.45 1197.12Z" fill="#180027"/>
    <path id="Vector_13" d="M338.05 1096.98C333.14 1101.59 325.48 1103.67 319.15 1105.62C256.91 1124.84 137.64 1124.3 74.6399 1107.71C72.7899 1107.22 46.6299 1099.43 48.4999 1096.97C63.2199 1090.04 79.1799 1086.31 95.1799 1083.39C142.6 1074.75 196.11 1073.97 244.17 1077.35C275.51 1079.56 309.11 1084.7 338.05 1096.97V1096.98Z" fill="#504EAD" stroke="#180027" stroke-width="6.94" stroke-linecap="round" stroke-linejoin="round"/>
    </g>
    <path id="pat-check" d="M730.37 802.16C723.35 819.94 692.83 812.5 603.86 822.92C566.49 827.3 540.54 832.32 527.39 816.9C521.54 810.04 521.15 802.64 519.89 791.8C515.89 757.23 508.69 695.12 482.26 684.01C469.76 678.76 451.51 684.31 444.69 694.97C432.06 714.74 465.52 741.56 455.12 765.4C444.58 789.56 403.11 778.32 383.34 802.35C371.33 816.95 366.2 845.93 394.1 908.59C394.57 912.42 397.22 930.54 413.14 942.52C421.83 949.06 430.76 950.98 435.63 951.63C496.38 943.28 542.55 934.56 574.57 927.85C590.81 924.45 612.43 919.67 640.5 916.71C654.21 915.26 664.55 914.78 671.12 914.46C766.47 909.85 779.1 916.63 797.9 908.75C851.66 886.21 885.24 774.23 842.14 727.75C810.65 693.79 738.5 695.09 724.75 718.36C721.65 723.6 722.16 731.76 723.18 748.1C725.54 785.89 734.42 791.85 730.35 802.15L730.37 802.16Z" fill="#CBC5F2" stroke="#180027" stroke-width="16.94" stroke-miterlimit="10"/>
    <g id="head">
    <path id="Vector_14" d="M559.702 158.56C634.142 103.63 638.812 91.93 648.072 95.23C682.062 107.34 688.452 289.58 609.782 320.66C578.452 333.04 530.372 322.74 509.762 290.1C489.632 258.23 503.032 216.69 518.212 194.17C526.322 182.14 533.202 178.11 559.712 158.55L559.702 158.56Z" fill="#CBC5F2" stroke="#180027" stroke-width="16.94" stroke-miterlimit="10"/>
    <path id="Vector_15" d="M846.552 554.86C834.632 589.26 822.712 623.67 810.802 658.07C785.622 675.14 735.922 703.57 667.852 709.37C632.762 712.36 602.712 708.49 580.352 703.63C558.042 679.81 535.732 655.99 513.422 632.17C624.462 606.4 735.512 580.63 846.552 554.87V554.86Z" fill="#FF3E68" stroke="#180027" stroke-width="16.94" stroke-miterlimit="10"/>
    <path id="Vector_16" d="M880.911 431.46C880.911 300.6 773.231 192.92 642.371 192.92C565.381 192.92 492.891 232.81 451.061 289.67C405.011 352.27 403.851 423.47 403.821 431.46C376.901 458.38 358.951 476.33 355.391 493.77C354.211 499.53 352.001 518 376.381 545.13C439.401 633.84 541.491 682.11 642.371 670C752.491 656.78 880.911 569.27 880.911 431.46Z" fill="#CBC5F2" stroke="#180027" stroke-width="16.94" stroke-miterlimit="10"/>
    <path id="Vector_17" d="M806.251 229.78C880.691 174.85 885.361 163.15 894.621 166.45C928.611 178.56 935.001 360.8 856.331 391.88C825.001 404.26 776.921 393.96 756.311 361.32C736.181 329.45 749.581 287.91 764.761 265.39C772.871 253.36 779.751 249.33 806.261 229.77L806.251 229.78Z" fill="#CBC5F2" stroke="#180027" stroke-width="16.94" stroke-miterlimit="10"/>
    <path id="Vector_18" d="M462.801 282.22C484.041 255.77 494.531 252.72 500.191 254.83C518.781 261.76 451.081 361.79 486.201 450.89C503.391 494.49 534.361 510.51 527.301 524.71C520.951 537.48 486.551 543 356.621 505.92C359.951 495.49 366.741 478.86 380.801 462.35C391.971 449.23 403.771 440.85 412.281 435.78C410.531 416.01 410.591 385.52 422.181 351.28C435.761 311.14 458.381 287.72 462.791 282.22H462.801Z" fill="white"/>
    <path id="Vector_19" d="M344.922 483.31C342.322 482.07 318.032 470.03 316.772 448.79C316.132 437.99 321.362 423.57 328.542 423.17C335.602 422.78 341.502 436.09 342.062 437.41C352.732 422.97 368.112 418.48 376.232 423.53C384.942 428.95 383.982 444.28 381.702 452.48C375.292 475.56 347.262 482.75 344.912 483.32L344.922 483.31Z" fill="#180027"/>
    <g id="Vector_20">
    <path d="M362.851 557.63C370.341 568.1 388.401 589.83 427.301 601.44C482.131 617.81 548.611 595.87 552.131 570.42C558.041 527.76 391.651 442.58 329.361 490.82C316.321 500.92 305.111 518.98 303.031 538.51C299.931 567.57 315.921 603 338.671 606.75C350.101 608.63 361.321 602.21 363.951 600.7C376.301 593.63 381.671 582.97 383.381 579.17" fill="white"/>
    <path d="M362.851 557.63C370.341 568.1 388.401 589.83 427.301 601.44C482.131 617.81 548.611 595.87 552.131 570.42C558.041 527.76 391.651 442.58 329.361 490.82C316.321 500.92 305.111 518.98 303.031 538.51C299.931 567.57 315.921 603 338.671 606.75C350.101 608.63 361.321 602.21 363.951 600.7C376.301 593.63 381.671 582.97 383.381 579.17" stroke="#180027" stroke-width="16.94" stroke-linecap="round" stroke-linejoin="round"/>
    </g>
    <path id="Vector_21" d="M302.65 381.23C303.71 379.66 317.26 360.24 340.77 360.55C357.11 360.77 367.95 370.39 370.68 372.96" stroke="#180027" stroke-width="19.08" stroke-miterlimit="10" stroke-linecap="round"/>
    <path id="Vector_22" d="M630.33 373.64C615.97 348.87 588.81 336.44 564.59 342.34C540.11 348.29 528.85 370.47 527.15 373.96" stroke="#180027" stroke-width="19.08" stroke-miterlimit="10" stroke-linecap="round"/>
    <g id="Group_3">
    <path id="Vector_23" d="M621.391 548.77C619.711 547.17 617.911 546.55 616.341 546.01C613.971 545.19 610.391 543.96 606.501 545.51C606.501 545.51 601.811 547.38 599.681 552.8C599.201 554.02 598.931 555.36 598.931 555.36C598.851 555.76 598.801 556.09 598.781 556.24C598.531 558.15 599.241 560.16 599.391 560.57C600.361 563.18 602.201 564.82 603.041 565.48C603.541 565.8 604.261 566.26 605.151 566.78C606.191 567.39 606.981 567.8 607.031 567.83C609.181 568.95 622.771 568.18 624.791 559.43C625.671 555.59 624.081 551.32 621.401 548.78L621.391 548.77Z" fill="#7C1703"/>
    <g id="Group_4">
    <path id="Vector_24" d="M622.191 549.4C621.781 549.07 621.421 548.86 621.251 548.77C622.491 550.43 624.591 553.86 623.881 557.65C622.531 564.77 611.971 569.25 605.021 566.28C602.411 565.16 600.771 563.19 599.871 561.84C600.251 562.52 600.611 563.2 601.011 563.86C601.531 564.55 602.341 565.47 603.481 566.37C604.351 567.05 606.371 568.61 609.271 569.02C610.491 569.19 611.681 569 614.081 568.61C617.791 568.01 619.651 567.71 620.831 566.54C621.331 566.04 622.251 564.92 623.371 563.56C623.711 563.14 623.991 562.79 624.181 562.57C624.151 562.6 624.231 562.49 624.361 562.31C624.541 561.91 624.801 561.26 625.001 560.43C625.921 556.76 625.241 551.84 622.201 549.41L622.191 549.4Z" fill="#551201"/>
    <path id="Vector_25" d="M608.952 546.92C621.042 545.17 620.422 562.83 608.952 560.93C601.372 559.68 599.942 548.23 608.952 546.92Z" fill="#C94E28"/>
    </g>
    </g>
    <g id="Group_5">
    <path id="Vector_26" d="M651.091 572.5C649.991 571.46 648.821 571.05 647.791 570.7C646.241 570.17 643.901 569.36 641.371 570.37C641.371 570.37 638.311 571.59 636.911 575.13C636.601 575.93 636.421 576.8 636.421 576.8C636.371 577.06 636.341 577.28 636.321 577.37C636.161 578.62 636.621 579.93 636.721 580.19C637.351 581.9 638.561 582.96 639.101 583.4C639.421 583.61 639.891 583.91 640.481 584.25C641.161 584.65 641.671 584.92 641.711 584.94C643.121 585.67 651.991 585.17 653.301 579.45C653.881 576.94 652.841 574.16 651.091 572.5Z" fill="#7C1703"/>
    <g id="Group_6">
    <path id="Vector_27" d="M651.611 572.91C651.341 572.7 651.111 572.56 651.001 572.5C651.811 573.59 653.181 575.82 652.711 578.3C651.831 582.95 644.931 585.87 640.401 583.93C638.691 583.2 637.631 581.91 637.041 581.03C637.291 581.47 637.521 581.92 637.781 582.35C638.121 582.8 638.651 583.4 639.391 583.99C639.961 584.44 641.281 585.45 643.171 585.72C643.961 585.83 644.751 585.71 646.311 585.45C648.731 585.06 649.941 584.86 650.711 584.1C651.041 583.77 651.641 583.04 652.371 582.15C652.591 581.88 652.781 581.65 652.901 581.5C652.881 581.52 652.931 581.45 653.021 581.33C653.141 581.07 653.311 580.64 653.441 580.1C654.041 577.7 653.601 574.49 651.611 572.9V572.91Z" fill="#551201"/>
    <path id="Vector_28" d="M642.971 571.29C650.861 570.15 650.461 581.67 642.971 580.44C638.021 579.62 637.091 572.15 642.971 571.29Z" fill="#C94E28"/>
    </g>
    </g>
    <g id="Group_7">
    <path id="Vector_29" d="M575.09 593.62C573.8 592.4 572.42 591.92 571.22 591.51C569.4 590.89 566.66 589.94 563.69 591.13C563.69 591.13 560.09 592.56 558.46 596.72C558.09 597.66 557.89 598.68 557.89 598.68C557.83 598.99 557.79 599.24 557.78 599.35C557.59 600.81 558.13 602.35 558.25 602.66C558.99 604.66 560.4 605.91 561.04 606.42C561.42 606.67 561.97 607.01 562.65 607.41C563.44 607.87 564.05 608.19 564.09 608.21C565.74 609.07 576.15 608.48 577.69 601.77C578.37 598.83 577.15 595.56 575.09 593.61V593.62Z" fill="#7C1703"/>
    <g id="Group_8">
    <path id="Vector_30" d="M575.7 594.11C575.39 593.86 575.11 593.7 574.98 593.63C575.93 594.9 577.54 597.53 576.99 600.43C575.96 605.88 567.86 609.31 562.54 607.04C560.54 606.18 559.29 604.67 558.59 603.64C558.88 604.16 559.16 604.68 559.46 605.19C559.86 605.72 560.48 606.43 561.35 607.11C562.01 607.63 563.57 608.83 565.78 609.14C566.71 609.27 567.63 609.12 569.47 608.83C572.31 608.37 573.73 608.14 574.64 607.24C575.02 606.86 575.73 606 576.59 604.95C576.85 604.63 577.07 604.36 577.21 604.19C577.19 604.22 577.25 604.13 577.35 603.99C577.49 603.68 577.68 603.18 577.84 602.55C578.54 599.74 578.03 595.97 575.7 594.11Z" fill="#551201"/>
    <path id="Vector_31" d="M565.56 592.21C574.82 590.87 574.34 604.4 565.56 602.94C559.75 601.98 558.66 593.21 565.56 592.21Z" fill="#C94E28"/>
    </g>
    </g>
    <g id="Group_9">
    <path id="Vector_32" d="M654.82 545.78C652.6 544.18 650.23 543.56 648.15 543.02C645.02 542.2 640.29 540.97 635.17 542.52C635.17 542.52 628.98 544.39 626.16 549.81C625.53 551.03 625.17 552.37 625.17 552.37C625.06 552.77 625 553.1 624.97 553.25C624.64 555.16 625.58 557.17 625.78 557.58C627.05 560.19 629.49 561.83 630.59 562.49C631.24 562.81 632.2 563.27 633.37 563.79C634.74 564.4 635.78 564.81 635.85 564.84C638.69 565.96 656.63 565.19 659.29 556.44C660.46 552.6 658.35 548.33 654.82 545.79V545.78Z" fill="#7C1703"/>
    <g id="Group_10">
    <path id="Vector_33" d="M655.88 546.41C655.34 546.08 654.86 545.87 654.64 545.78C656.28 547.44 659.05 550.87 658.11 554.66C656.33 561.78 642.39 566.26 633.22 563.29C629.77 562.17 627.61 560.2 626.42 558.85C626.92 559.53 627.39 560.21 627.92 560.87C628.61 561.56 629.67 562.48 631.18 563.38C632.32 564.06 635 565.62 638.82 566.03C640.43 566.2 642.01 566.01 645.17 565.62C650.07 565.02 652.52 564.72 654.07 563.55C654.73 563.05 655.94 561.93 657.43 560.57C657.88 560.15 658.25 559.8 658.5 559.58C658.46 559.61 658.56 559.5 658.74 559.32C658.97 558.92 659.32 558.27 659.59 557.44C660.8 553.77 659.91 548.85 655.9 546.42L655.88 546.41Z" fill="#551201"/>
    <path id="Vector_34" d="M638.409 543.93C654.369 542.18 653.539 559.84 638.409 557.94C628.399 556.69 626.519 545.24 638.409 543.93Z" fill="#C94E28"/>
    </g>
    </g>
    </g>
    </g>
    <defs>
    <clipPath id="clip0_373_209">
    <rect width="1226" height="1265" fill="white"/>
    </clipPath>
    </defs>
</svg>
