<svg width="1329" height="1265" viewBox="0 0 1329 1265" fill="none" xmlns="http://www.w3.org/2000/svg">
    <g id="perro">
    <g id="tail">
    <path id="Vector" d="M1118.09 1075.31C1099.66 1087.08 1070.06 1097.41 1043.59 1102.46C1020.63 1106.84 1000.44 1107.47 985.7 1107.14C968.62 1104.83 951.53 1102.52 934.45 1100.21C923.25 1084.59 923.84 1064.76 934.45 1053.03C944.55 1041.86 959.81 1042.35 962.25 1042.47C1022.03 1059.47 1055.36 1048.65 1074.1 1037.37C1148.94 992.32 1165.01 893.21 1176.46 896.43C1188.87 899.93 1189.3 1029.86 1118.09 1075.31Z" fill="white" stroke="#180027" stroke-width="16.94" stroke-linejoin="round"/>
    <path id="Vector_2" d="M1106.49 962.97C1096.36 949.83 1102 918.61 1130.49 901.93C1123.71 899.61 1109.99 893.69 1104.5 880.67C1095.18 858.55 1115.14 828.93 1139.1 818.45C1158.08 810.15 1176.46 815.21 1182.78 817.28C1192 776.38 1229.98 758.23 1252.06 767.32C1270.32 774.84 1282.97 803.15 1275.28 833.71C1295.09 828.46 1313.89 838.23 1318.85 851.84C1324.72 867.97 1312.08 892.08 1287.02 896.35C1306.16 910.68 1312.67 934.88 1304.63 952.27C1294.43 974.33 1260.98 985.03 1234.2 967.53C1233.33 987.33 1216.76 1002.34 1198.85 1001.78C1179.45 1001.17 1163.13 982.44 1166.11 961.1C1142.95 977.94 1115.78 975 1106.5 962.97H1106.49Z" fill="#CBC5F2" stroke="#180027" stroke-width="16.94" stroke-linejoin="round"/>
    </g>
    <g id="body">
    <g id="Group">
    <path id="Vector_3" d="M706.751 1145.87C705.581 1150.76 702.701 1159.67 695.141 1167.85C681.281 1182.84 662.541 1183.67 658.581 1183.76C643.731 1189.14 601.961 1183.76 549.171 1183.76C510.321 1183.76 478.881 1152.33 478.881 1113.62C478.881 1074.91 510.311 1043.33 549.171 1043.33C550.331 1043.33 551.501 1043.33 552.521 1043.48C567.791 1041.9 583.051 1040.32 598.321 1038.73C589.801 1019.26 553.161 929.8 592.821 832.84C612.741 784.15 644.051 752.77 663.821 736.04C678.131 872.65 692.441 1009.26 706.751 1145.87Z" fill="#180027"/>
    <path id="Vector_4" d="M574.352 1101.17C571.252 1100.56 545.702 1095.96 525.002 1113.98C509.472 1127.51 502.482 1148.71 506.592 1169.38" fill="#180027"/>
    <path id="Vector_5" d="M531.411 1075.31C526.941 1075.44 511.121 1076.43 498.271 1088.68C477.741 1108.27 484.621 1137.72 484.931 1138.95" fill="#180027"/>
    </g>
    <path id="Vector_6" d="M1009.89 1127.05C906.371 1215.61 712.311 1197.81 618.641 1100.2C593.741 1074.25 579.831 1044.19 552.031 984.08C519.751 914.31 495.401 859.82 506.161 792.92C509.061 774.88 515.521 734.75 545.801 699.62C599.941 636.81 707.241 616.33 776.251 654.07C854.051 696.6 819.081 772.02 913.081 866.54C990.221 944.11 1061.29 941.11 1072.52 1000.36C1084.21 1062.02 1017.67 1120.39 1009.88 1127.06L1009.89 1127.05Z" fill="white" stroke="#180027" stroke-width="16.94" stroke-miterlimit="10"/>
    <g id="Group_2">
    <path id="Vector_7" d="M1058.7 1114.05C1040.81 1147.6 1013.23 1167.33 1010.3 1169.38C993.421 1181.19 977.302 1187.35 966.142 1190.68H811.312C772.552 1190.4 741.072 1158.56 741.022 1120.54C740.972 1075.98 784.122 1050.25 811.312 1050.25C812.472 1050.25 813.641 1050.25 814.661 1050.4C835.301 1050.32 855.942 1050.25 876.582 1050.17C858.522 998.81 884.631 941.65 935.111 921.68C985.801 901.63 1044.18 925.79 1065.93 975.95C1070 987.86 1091.12 1053.26 1058.7 1114.05Z" fill="#FFFEFB" stroke="#180027" stroke-width="16.94" stroke-miterlimit="10"/>
    <g id="Vector_8">
    <path d="M836.492 1108.09C833.392 1107.48 807.842 1102.88 787.142 1120.9C771.612 1134.43 764.622 1155.63 768.732 1176.3" fill="#FFFEFB"/>
    <path d="M836.492 1108.09C833.392 1107.48 807.842 1102.88 787.142 1120.9C771.612 1134.43 764.622 1155.63 768.732 1176.3" stroke="#180027" stroke-width="16.94" stroke-miterlimit="10"/>
    </g>
    <g id="Vector_9">
    <path d="M793.551 1082.23C789.081 1082.36 773.261 1083.35 760.411 1095.6C739.881 1115.19 746.761 1144.64 747.071 1145.87" fill="#FFFEFB"/>
    <path d="M793.551 1082.23C789.081 1082.36 773.261 1083.35 760.411 1095.6C739.881 1115.19 746.761 1144.64 747.071 1145.87" stroke="#180027" stroke-width="16.94" stroke-miterlimit="10"/>
    </g>
    </g>
    </g>
    <path id="heart_3" d="M1049.73 316.33C1047.4 315.22 1025.68 304.45 1024.56 285.45C1023.99 275.79 1028.67 262.89 1035.09 262.53C1041.4 262.18 1046.68 274.09 1047.19 275.26C1056.73 262.35 1070.48 258.33 1077.75 262.85C1085.54 267.7 1084.68 281.41 1082.64 288.74C1076.91 309.38 1051.84 315.81 1049.74 316.32L1049.73 316.33Z" fill="#F93267" stroke="#180027" stroke-width="10.97" stroke-linecap="round" stroke-linejoin="round"/>
    <path id="heart_2" d="M1045.16 179.69C1040.48 177.45 996.871 155.84 994.611 117.68C993.461 98.29 1002.86 72.38 1015.76 71.66C1028.44 70.95 1039.03 94.87 1040.05 97.23C1059.22 71.3 1086.83 63.23 1101.41 72.3C1117.05 82.03 1115.32 109.56 1111.23 124.3C1099.72 165.76 1049.37 178.67 1045.16 179.69Z" fill="#F93267" stroke="#180027" stroke-width="21.95" stroke-linecap="round" stroke-linejoin="round"/>
    <path id="heart_1" d="M821.43 116.75C819.1 115.64 797.38 104.87 796.26 85.87C795.69 76.21 800.37 63.31 806.79 62.95C813.1 62.6 818.38 74.51 818.89 75.68C828.43 62.77 842.18 58.75 849.45 63.27C857.24 68.12 856.38 81.83 854.34 89.16C848.61 109.8 823.54 116.23 821.44 116.74L821.43 116.75Z" fill="#F93267" stroke="#180027" stroke-width="10.97" stroke-linecap="round" stroke-linejoin="round"/>
    <g id="plate">
    <path id="Vector_10" d="M172.539 1047.04C210.219 1045.86 251.659 1047.53 288.859 1053.46C312.579 1057.24 361.999 1065.96 368.459 1093.42C373.849 1116.36 378.049 1147.89 380.889 1171.6C384.569 1202.32 388.179 1217.47 357.369 1231.88C273.309 1271.18 114.789 1270.89 30.4295 1232.52C7.48947 1222.08 2.28947 1214.02 3.68947 1188.3C5.08947 1162.58 12.2795 1120.69 17.9295 1094.2C19.1595 1088.46 20.6995 1084.77 24.6795 1080.41C49.3895 1053.38 136.859 1048.19 172.539 1047.07V1047.04Z" fill="#CBC5F2" stroke="#180027" stroke-width="6.94" stroke-linecap="round" stroke-linejoin="round"/>
    <path id="Vector_11" d="M244.45 1196.42L143.3 1196.21C137.07 1201.67 135.44 1208.91 126.67 1212.27C114.73 1216.85 95.8502 1219.24 89.4402 1205.25C82.6802 1190.49 104.92 1185.13 104.33 1178.16C103.78 1171.55 86.6602 1166.45 87.9002 1155.83C89.8802 1138.88 110.33 1140.03 122.48 1143.25C135.35 1146.67 134.98 1153.47 144.26 1160.7L241.42 1160.77C246.57 1160.09 251.24 1148.53 257.71 1145.3C265.57 1141.38 283.18 1139.05 290.72 1144.06C298.12 1148.97 301.01 1156.9 295.46 1164.38C291.34 1169.93 278.62 1174.36 283.87 1181.74C289.94 1190.27 305.54 1193.8 295.48 1208.3C288.37 1218.55 273.26 1216.21 262.71 1213.17C253.32 1210.46 249.55 1204.11 244.44 1196.43L244.45 1196.42Z" fill="#180027"/>
    <path id="Vector_12" d="M338.05 1096.28C333.14 1100.89 325.48 1102.97 319.15 1104.92C256.91 1124.14 137.64 1123.6 74.6399 1107.01C72.7899 1106.52 46.6299 1098.73 48.4999 1096.27C63.2199 1089.34 79.1799 1085.61 95.1799 1082.69C142.6 1074.05 196.11 1073.27 244.17 1076.65C275.51 1078.86 309.11 1084 338.05 1096.27V1096.28Z" fill="#504EAD" stroke="#180027" stroke-width="6.94" stroke-linecap="round" stroke-linejoin="round"/>
    </g>
    <g id="head">
    <path id="Vector_13" d="M353.619 461.37C351.259 441.2 370.379 418.63 396.879 419.55C392.699 411.95 387.039 400.31 382.689 385.4C379.119 373.17 353.719 286.08 405.979 242C438.839 214.29 490.749 213.41 526.359 233.5C588.549 268.58 583.439 357.63 582.339 376.79C580.639 406.36 572.309 429.96 565.589 445.1C585.059 451.51 595.489 469.95 592.219 484.06C588.339 500.79 564.599 514.09 541.269 504.01C549.489 526.46 541.749 550.29 525.529 560.48C504.949 573.41 471.079 564.13 458.169 534.85C446.639 550.97 424.569 554.51 409.859 544.28C393.929 533.19 390.459 508.59 404.609 492.32C379.239 498.74 355.959 481.31 353.629 461.37H353.619Z" fill="#CBC5F2" stroke="#180027" stroke-width="16.94" stroke-linejoin="round"/>
    <path id="Vector_14" d="M812.009 550.85C800.089 585.25 788.169 619.66 776.259 654.06C751.079 671.13 701.379 699.56 633.309 705.36C598.219 708.35 568.169 704.48 545.809 699.62C523.499 675.8 501.189 651.98 478.879 628.16C589.919 602.39 700.969 576.62 812.009 550.86V550.85Z" fill="#3CE8A5" stroke="#180027" stroke-width="16.94" stroke-miterlimit="10"/>
    <path id="Vector_15" d="M846.37 427.45C846.37 296.59 738.69 188.91 607.83 188.91C530.84 188.91 458.35 228.8 416.52 285.66C370.47 348.26 369.31 419.46 369.28 427.45C342.36 454.37 324.41 472.32 320.85 489.76C319.67 495.52 317.46 513.99 341.84 541.12C404.86 629.83 506.95 678.1 607.83 665.99C717.95 652.77 846.37 565.26 846.37 427.45Z" fill="#FFFEFB" stroke="#180027" stroke-width="16.94" stroke-miterlimit="10"/>
    <path id="Vector_16" d="M328.68 575.03C328.68 575.03 346.85 597.6 396.03 576.43C445.2 555.27 369.84 538.07 369.84 538.07C369.84 538.07 325.21 543.2 328.69 575.02L328.68 575.03Z" fill="#CBC5F2" stroke="#180027" stroke-width="15.26" stroke-miterlimit="10"/>
    <path id="Vector_17" d="M406.519 444.15C412.989 446.02 433.029 452.24 469.079 476.52C498.249 496.16 512.829 505.98 514.879 517.13C519.019 539.7 495.099 563.83 474.609 574.25C446.009 588.8 416.639 580.4 398.539 575.3C374.679 568.58 356.489 556.75 343.819 546.17C342.779 549.38 339.089 559.38 329.229 564.27C313.979 571.84 297.659 560.4 294.999 558.53C294.999 558.53 285.249 551.59 280.009 539.84C274.249 526.92 289.059 499.63 306.289 479.63C319.739 464.01 339.679 440.85 370.589 438.24C382.649 437.22 391.369 439.75 406.519 444.14V444.15Z" fill="#CBC5F2" stroke="#180027" stroke-width="15.26" stroke-linejoin="round"/>
    <path id="Vector_18" d="M330.29 511.1C304.79 505.35 287.48 489.71 286.8 473.36C286.43 464.55 290.65 449.8 301.72 447.48C309.74 445.8 319.22 451.1 324.73 460.81C335.69 444.38 352.34 438.63 361.53 443.75C371.38 449.24 371.14 466.13 369.07 475.27C363.26 500.97 332.84 510.35 330.29 511.1Z" fill="#180027"/>
    <path id="Vector_19" d="M706.991 530.99C697.891 512.83 708.171 485.09 733.391 476.92C726.871 471.2 717.571 462.19 708.401 449.66C700.881 439.38 647.291 366.18 681.381 306.92C702.811 269.66 751.311 251.13 791.641 257.86C862.061 269.62 887.641 355.08 893.141 373.46C901.631 401.84 901.851 426.86 900.691 443.39C921.171 442.78 937.271 456.55 939.011 470.93C941.071 487.98 923.291 508.58 897.921 507.07C913.311 525.37 914.161 550.41 902.391 565.53C887.451 584.7 852.451 587.54 830.331 564.42C824.991 583.51 805.451 594.37 788.141 589.76C769.391 584.77 757.73 562.82 765.48 542.71C743.82 557.4 715.991 548.95 707.001 531.01L706.991 530.99Z" fill="#CBC5F2" stroke="#180027" stroke-width="16.94" stroke-linejoin="round"/>
    <path id="Vector_20" d="M259.02 385.27C260.08 383.7 273.63 364.28 297.14 364.59C313.48 364.81 324.32 374.43 327.05 377" stroke="#180027" stroke-width="19.08" stroke-miterlimit="10" stroke-linecap="round"/>
    <path id="Vector_21" d="M586.7 377.68C572.34 352.91 545.18 340.48 520.96 346.38C496.48 352.33 485.22 374.51 483.52 378" stroke="#180027" stroke-width="19.08" stroke-miterlimit="10" stroke-linecap="round"/>
    <g id="Group_3">
    <path id="Vector_22" d="M571.28 530.9C569.6 529.3 567.8 528.68 566.23 528.14C563.86 527.32 560.28 526.09 556.39 527.64C556.39 527.64 551.7 529.51 549.57 534.93C549.09 536.15 548.82 537.49 548.82 537.49C548.74 537.89 548.69 538.22 548.67 538.37C548.42 540.28 549.13 542.29 549.28 542.7C550.25 545.31 552.09 546.95 552.93 547.61C553.43 547.93 554.15 548.39 555.04 548.91C556.08 549.52 556.87 549.93 556.92 549.96C559.07 551.08 572.66 550.31 574.68 541.56C575.56 537.72 573.97 533.45 571.29 530.91L571.28 530.9Z" fill="#7C1703"/>
    <g id="Group_4">
    <path id="Vector_23" d="M572.08 531.54C571.67 531.21 571.31 531 571.14 530.91C572.38 532.57 574.48 536 573.77 539.79C572.42 546.91 561.86 551.39 554.91 548.42C552.3 547.3 550.66 545.33 549.76 543.98C550.14 544.66 550.5 545.34 550.9 546C551.42 546.69 552.23 547.61 553.37 548.51C554.24 549.19 556.26 550.75 559.16 551.16C560.38 551.33 561.57 551.14 563.97 550.75C567.68 550.15 569.54 549.85 570.72 548.68C571.22 548.18 572.14 547.06 573.26 545.7C573.6 545.28 573.88 544.93 574.07 544.71C574.04 544.74 574.12 544.63 574.25 544.45C574.43 544.05 574.69 543.4 574.89 542.57C575.81 538.9 575.13 533.98 572.09 531.55L572.08 531.54Z" fill="#551201"/>
    <path id="Vector_24" d="M558.84 529.05C570.93 527.3 570.31 544.96 558.84 543.06C551.26 541.81 549.83 530.36 558.84 529.05Z" fill="#C94E28"/>
    </g>
    </g>
    <g id="Group_5">
    <path id="Vector_25" d="M600.979 554.63C599.879 553.59 598.709 553.18 597.679 552.83C596.129 552.3 593.789 551.49 591.259 552.5C591.259 552.5 588.199 553.72 586.799 557.26C586.489 558.06 586.309 558.93 586.309 558.93C586.259 559.19 586.229 559.41 586.209 559.5C586.049 560.75 586.509 562.06 586.609 562.32C587.239 564.03 588.449 565.09 588.989 565.53C589.309 565.74 589.779 566.04 590.369 566.38C591.049 566.78 591.559 567.05 591.599 567.07C593.009 567.8 601.879 567.3 603.189 561.58C603.769 559.07 602.729 556.29 600.979 554.63Z" fill="#7C1703"/>
    <g id="Group_6">
    <path id="Vector_26" d="M601.5 555.04C601.23 554.83 601 554.69 600.89 554.63C601.7 555.72 603.07 557.95 602.6 560.43C601.72 565.08 594.82 568 590.29 566.06C588.58 565.33 587.52 564.04 586.93 563.16C587.18 563.6 587.41 564.05 587.67 564.48C588.01 564.93 588.54 565.53 589.28 566.12C589.85 566.57 591.17 567.58 593.06 567.85C593.85 567.96 594.64 567.84 596.2 567.58C598.62 567.19 599.83 566.99 600.6 566.23C600.93 565.9 601.53 565.17 602.26 564.28C602.48 564.01 602.67 563.78 602.79 563.63C602.77 563.65 602.82 563.58 602.91 563.46C603.03 563.2 603.2 562.77 603.33 562.23C603.93 559.83 603.49 556.62 601.5 555.03V555.04Z" fill="#551201"/>
    <path id="Vector_27" d="M592.869 553.42C600.759 552.28 600.359 563.8 592.869 562.57C587.919 561.75 586.989 554.28 592.869 553.42Z" fill="#C94E28"/>
    </g>
    </g>
    <g id="Group_7">
    <path id="Vector_28" d="M524.979 575.76C523.689 574.54 522.309 574.06 521.109 573.65C519.289 573.03 516.549 572.08 513.579 573.27C513.579 573.27 509.979 574.7 508.349 578.86C507.979 579.8 507.779 580.82 507.779 580.82C507.719 581.13 507.679 581.38 507.669 581.49C507.479 582.95 508.019 584.49 508.139 584.8C508.879 586.8 510.289 588.05 510.929 588.56C511.309 588.81 511.859 589.15 512.539 589.55C513.329 590.01 513.939 590.33 513.979 590.35C515.629 591.21 526.039 590.62 527.579 583.91C528.259 580.97 527.039 577.7 524.979 575.75V575.76Z" fill="#7C1703"/>
    <g id="Group_8">
    <path id="Vector_29" d="M525.589 576.24C525.279 575.99 524.998 575.83 524.868 575.76C525.818 577.03 527.429 579.66 526.879 582.56C525.849 588.01 517.748 591.44 512.428 589.17C510.428 588.31 509.179 586.8 508.479 585.77C508.769 586.29 509.049 586.81 509.349 587.32C509.749 587.85 510.368 588.56 511.238 589.24C511.898 589.76 513.458 590.96 515.668 591.27C516.598 591.4 517.518 591.25 519.358 590.96C522.198 590.5 523.619 590.27 524.529 589.37C524.909 588.99 525.618 588.13 526.478 587.08C526.738 586.76 526.958 586.49 527.098 586.32C527.078 586.35 527.138 586.26 527.238 586.12C527.378 585.81 527.568 585.31 527.728 584.68C528.428 581.87 527.919 578.1 525.589 576.24Z" fill="#551201"/>
    <path id="Vector_30" d="M515.449 574.34C524.709 573 524.229 586.53 515.449 585.07C509.639 584.11 508.549 575.34 515.449 574.34Z" fill="#C94E28"/>
    </g>
    </g>
    <g id="Group_9">
    <path id="Vector_31" d="M604.709 527.91C602.489 526.31 600.119 525.69 598.039 525.15C594.909 524.33 590.179 523.1 585.059 524.65C585.059 524.65 578.869 526.52 576.049 531.94C575.419 533.16 575.059 534.5 575.059 534.5C574.949 534.9 574.889 535.23 574.859 535.38C574.529 537.29 575.469 539.3 575.669 539.71C576.939 542.32 579.379 543.96 580.479 544.62C581.129 544.94 582.089 545.4 583.259 545.92C584.629 546.53 585.669 546.94 585.739 546.97C588.579 548.09 606.519 547.32 609.179 538.57C610.349 534.73 608.239 530.46 604.709 527.92V527.91Z" fill="#7C1703"/>
    <g id="Group_10">
    <path id="Vector_32" d="M605.769 528.54C605.229 528.21 604.749 528 604.529 527.91C606.169 529.57 608.939 533 607.999 536.79C606.219 543.91 592.279 548.39 583.109 545.42C579.659 544.3 577.499 542.33 576.309 540.98C576.809 541.66 577.279 542.34 577.809 543C578.499 543.69 579.559 544.61 581.069 545.51C582.209 546.19 584.889 547.75 588.709 548.16C590.319 548.33 591.899 548.14 595.059 547.75C599.959 547.15 602.409 546.85 603.959 545.68C604.619 545.18 605.829 544.06 607.319 542.7C607.769 542.28 608.139 541.93 608.389 541.71C608.349 541.74 608.449 541.63 608.629 541.45C608.859 541.05 609.209 540.4 609.479 539.57C610.689 535.9 609.799 530.98 605.789 528.55L605.769 528.54Z" fill="#551201"/>
    <path id="Vector_33" d="M588.298 526.06C604.258 524.31 603.428 541.97 588.298 540.07C578.288 538.82 576.408 527.37 588.298 526.06Z" fill="#C94E28"/>
    </g>
    </g>
    </g>
    <g id="pat-check">
    <path id="Vector_34" d="M685.17 793.69C678.15 811.47 647.63 804.03 558.66 814.45C521.29 818.83 495.34 823.85 482.19 808.43C476.34 801.57 475.95 794.17 474.69 783.33C470.69 748.76 463.49 686.65 437.06 675.54C424.56 670.29 406.31 675.84 399.49 686.5C386.86 706.27 420.32 733.09 409.92 756.93C399.39 781.09 357.91 769.85 338.14 793.88C326.13 808.48 321 837.46 348.9 900.12C349.37 903.95 352.02 922.07 367.94 934.05C376.63 940.59 385.56 942.51 390.43 943.16C451.18 934.81 497.35 926.09 529.37 919.38C545.61 915.98 567.23 911.2 595.3 908.24C609.01 906.79 619.35 906.31 625.92 905.99C650.87 904.78 670.15 904.36 685.37 904.24C726.95 903.93 747.72 902.86 752.7 900.28C801.97 874.77 794.09 745.06 770.6 738.8C765.35 737.4 764.22 743.48 747.43 748.89C731.32 754.08 723.7 751.29 700.47 757.23C685.68 761.01 682.88 763.66 681.39 766.28C676.13 775.54 688.6 784.94 685.15 793.68L685.17 793.69Z" fill="#FFFEFB" stroke="#180027" stroke-width="16.94" stroke-miterlimit="10"/>
    <path id="Vector_35" d="M654.541 887.92C644.411 874.78 650.051 843.56 678.541 826.88C671.761 824.56 658.041 818.64 652.551 805.62C643.231 783.5 663.191 753.88 687.151 743.4C706.131 735.1 724.511 740.16 730.831 742.23C740.051 701.33 778.031 683.18 800.111 692.27C818.371 699.79 831.021 728.1 823.331 758.66C843.141 753.41 861.941 763.18 866.901 776.79C872.771 792.92 860.131 817.03 835.071 821.3C854.211 835.63 860.721 859.83 852.681 877.22C842.481 899.28 809.031 909.98 782.251 892.48C781.381 912.28 764.811 927.29 746.901 926.73C727.501 926.12 711.181 907.39 714.161 886.05C691.001 902.89 663.831 899.95 654.551 887.92H654.541Z" fill="#CBC5F2" stroke="#180027" stroke-width="16.94" stroke-linejoin="round"/>
    </g>
    </g>
</svg>
