<svg width="188" height="189" viewBox="0 0 188 189" fill="none" xmlns="http://www.w3.org/2000/svg">
    <path d="M169.729 79.6069C165.598 84.3457 159.91 87.453 153.691 88.3686C147.471 89.2842 141.129 87.9479 135.808 84.6006C135.785 84.5916 135.758 84.5916 135.735 84.6006L84.0714 136.271V136.33C86.1647 139.702 87.472 143.502 87.8963 147.448C88.3206 151.394 87.851 155.385 86.5224 159.124C85.1939 162.864 83.0403 166.257 80.2216 169.051C77.4029 171.845 73.9914 173.968 70.24 175.263C66.4887 176.559 62.4938 176.993 58.5517 176.534C54.6096 176.075 50.8215 174.734 47.4683 172.611C44.1151 170.488 41.2829 167.637 39.1817 164.271C37.0806 160.904 35.7645 157.107 35.331 153.162C31.386 152.728 27.5892 151.412 24.2223 149.311C20.8553 147.21 18.0047 144.378 15.8817 141.025C13.7587 137.671 12.4179 133.883 11.9588 129.941C11.4996 125.999 11.9339 122.004 13.2294 118.253C14.5249 114.501 16.6483 111.09 19.4422 108.271C22.2361 105.453 25.6288 103.299 29.3685 101.97C33.1083 100.642 37.0992 100.172 41.0452 100.597C44.9912 101.021 48.791 102.328 52.1628 104.421C52.1865 104.43 52.2126 104.43 52.2363 104.421L103.9 52.7508V52.692C101.806 49.3202 100.499 45.5204 100.075 41.5744C99.6505 37.6284 100.12 33.6375 101.449 29.8977C102.777 26.1579 104.931 22.7653 107.749 19.9714C110.568 17.1775 113.98 15.054 117.731 13.7586C121.482 12.4631 125.477 12.0288 129.419 12.488C133.361 12.9471 137.15 14.2879 140.503 16.4109C143.856 18.5338 146.688 21.3845 148.789 24.7514C150.89 28.1184 152.207 31.9151 152.64 35.8601C157.462 36.3677 162.051 38.1915 165.906 41.1321C169.761 44.0727 172.734 48.0167 174.498 52.5329C176.262 57.0491 176.75 61.9635 175.909 66.7385C175.068 71.5135 172.93 75.9653 169.729 79.6069Z" fill="#180027"/>
</svg>
