<svg width="222" height="223" viewBox="0 0 222 223" fill="none" xmlns="http://www.w3.org/2000/svg">
    <g clip-path="url(#clip0_53_992)">
    <path d="M152.945 219.145C144.435 219.145 138.705 216.295 137.155 215.415C124.755 208.405 126.185 191.015 126.715 184.465C126.765 183.855 126.805 183.345 126.835 182.925L126.875 182.295C127.325 174.585 124.485 167.005 119.075 161.505L59.2448 100.635C56.9648 98.315 55.2648 96.595 54.0348 95.345C53.0548 94.405 50.7848 93.805 47.8448 93.725L43.8648 93.925C42.4148 94.065 35.7648 94.655 29.6548 94.655C25.6248 94.655 22.6748 94.405 20.6148 93.885C18.6148 93.385 16.4448 92.265 14.3448 90.645C14.1748 90.515 13.9748 90.365 13.7848 90.205C13.5848 90.045 13.4448 89.915 13.2948 89.795C12.9648 89.515 12.6348 89.205 12.3048 88.875C12.1548 88.735 12.0048 88.585 11.8548 88.425C11.5648 88.125 11.2748 87.815 10.9848 87.485C7.6548 83.725 5.2948 78.855 4.1848 73.415C4.1448 73.215 4.1048 72.995 4.0548 72.765C3.9548 72.205 3.8548 71.655 3.7848 71.085C3.6948 70.445 3.6148 69.785 3.5648 69.115L3.5248 68.585C3.4548 67.615 3.4248 66.675 3.4248 65.725C3.4248 64.755 3.4648 63.795 3.5348 62.865C4.5348 49.725 12.7148 41.075 24.8848 40.285C25.2648 40.265 25.6548 40.245 26.1148 40.245C27.1348 40.245 28.5048 40.305 30.9948 40.415C31.0148 40.415 31.0248 40.415 31.0448 40.415C31.6848 40.425 32.3348 40.435 32.9948 40.435C34.2248 40.435 35.3048 40.405 36.2348 40.335C37.9848 39.305 40.2448 37.605 40.7348 36.915C40.9948 36.045 41.2048 35.055 41.3548 33.955C41.3848 33.625 41.4048 33.335 41.4348 33.045C41.5748 31.485 41.5648 29.885 41.5548 28.185C41.5348 25.225 41.5148 22.155 42.3348 19.025C42.4748 18.495 42.6748 17.965 42.9348 17.425C45.1448 10.515 50.2048 6.725 59.7848 4.785C62.8448 4.165 65.7948 3.845 68.5448 3.845C86.0548 3.845 92.3748 15.975 93.3548 23.145C94.0548 28.345 93.7848 34.695 93.4648 40.235L93.4248 40.875C92.9748 48.585 95.8148 56.165 101.225 61.665L160.375 120.815C165.505 126.035 172.625 129.025 179.925 129.015C180.295 129.015 180.665 129.015 181.035 128.995L181.715 128.975C182.605 128.935 183.955 128.885 185.575 128.885C199.055 128.885 208.805 132.575 213.795 139.565C215.555 142.015 220.035 152.475 218.135 162.625C215.565 176.315 206.545 178.755 197.175 179.345C197.035 179.345 196.865 179.355 196.675 179.355C196.205 179.355 195.555 179.315 194.765 179.275C193.695 179.215 192.375 179.135 190.965 179.135C185.605 179.135 183.305 180.295 182.315 181.265C180.305 183.235 179.075 188.785 178.675 197.755C178.645 198.345 178.625 198.795 178.605 199.075C177.685 210.565 172.605 215.975 160.515 218.365C157.995 218.855 155.455 219.115 152.965 219.115L152.945 219.145Z" fill="#DEBCA8"/>
    <path d="M68.535 6.85501C83.425 6.85501 89.445 16.755 90.365 23.555C91.055 28.675 90.725 35.215 90.455 40.075L90.425 40.715C89.925 49.285 93.065 57.655 99.085 63.775L158.255 122.945C163.975 128.765 171.795 132.025 179.935 132.025C180.345 132.025 180.755 132.025 181.165 132.005L181.805 131.985C182.695 131.955 183.995 131.895 185.575 131.895C192.675 131.895 205.375 132.945 211.355 141.315C212.445 142.845 216.975 152.545 215.185 162.085C213.155 172.915 207.135 175.725 196.985 176.365C196.895 176.365 196.795 176.365 196.675 176.365C195.605 176.365 193.445 176.145 190.965 176.145C187.225 176.145 182.755 176.645 180.215 179.135C175.805 183.455 175.795 196.695 175.615 198.845C174.795 208.975 170.735 213.295 159.925 215.435C157.425 215.925 155.095 216.125 152.955 216.125C145.165 216.125 139.915 213.505 138.635 212.785C126.855 206.125 129.555 187.935 129.835 183.075L129.865 182.435C130.365 173.885 127.225 165.495 121.205 159.375L61.375 98.505C59.085 96.175 57.385 94.455 56.155 93.205C54.125 91.255 50.565 90.755 47.795 90.695L43.635 90.905C42.425 91.025 35.745 91.635 29.645 91.635C26.415 91.635 23.355 91.465 21.345 90.955C19.825 90.575 18.015 89.665 16.185 88.255C16.025 88.135 15.865 88.005 15.695 87.875C15.555 87.755 15.415 87.645 15.265 87.515C14.975 87.265 14.685 86.995 14.395 86.705C14.265 86.575 14.125 86.445 13.995 86.305C13.745 86.045 13.485 85.775 13.245 85.495C10.585 82.495 8.24504 78.285 7.13504 72.795C7.09504 72.595 7.05504 72.395 7.01504 72.195C6.92504 71.695 6.83504 71.185 6.76504 70.665C6.68504 70.065 6.61504 69.465 6.55504 68.845C6.54504 68.685 6.52504 68.535 6.51504 68.375C6.45504 67.515 6.41504 66.625 6.41504 65.725C6.41504 64.815 6.44504 63.935 6.51504 63.085C7.48504 50.305 15.575 43.895 25.075 43.275C25.395 43.255 25.725 43.245 26.105 43.245C27.055 43.245 28.365 43.305 30.845 43.415C30.845 43.415 30.845 43.415 30.835 43.415C31.535 43.435 32.255 43.445 32.975 43.445C34.395 43.445 35.825 43.405 37.105 43.285C38.895 42.325 42.545 39.835 43.335 38.385C43.405 38.265 43.455 38.135 43.515 38.015C43.885 36.835 44.145 35.575 44.315 34.305C44.335 33.995 44.365 33.685 44.395 33.355C44.815 28.845 44.045 24.245 45.215 19.805C45.335 19.355 45.505 18.955 45.705 18.585C47.575 12.475 51.895 9.46501 60.365 7.74501C63.345 7.13501 66.065 6.86501 68.535 6.86501M68.535 0.855011C65.585 0.855011 62.435 1.19501 59.175 1.85501C52.035 3.30501 43.455 6.25501 40.125 16.315C39.815 16.965 39.585 17.615 39.415 18.275C38.495 21.795 38.515 25.205 38.535 28.215C38.545 29.835 38.555 31.365 38.425 32.785C38.395 33.065 38.375 33.345 38.355 33.635C38.265 34.265 38.155 34.855 38.025 35.385C37.425 35.915 36.325 36.735 35.295 37.385C34.605 37.415 33.835 37.435 32.985 37.435C32.365 37.435 31.745 37.435 31.145 37.415C31.145 37.415 31.125 37.415 31.115 37.415C28.585 37.305 27.185 37.245 26.105 37.245C25.595 37.245 25.145 37.255 24.695 37.285C11.115 38.165 1.63504 48.115 0.535039 62.625C0.455039 63.635 0.415039 64.675 0.415039 65.725C0.415039 66.735 0.455039 67.745 0.525039 68.805C0.525039 68.945 0.545039 69.105 0.565039 69.255V69.345C0.635039 70.055 0.715039 70.755 0.815039 71.505C0.885039 72.045 0.985039 72.615 1.10504 73.295V73.345C1.15504 73.575 1.20504 73.805 1.24504 74.035C2.45504 79.975 5.05504 85.325 8.74504 89.485C9.02504 89.805 9.34504 90.145 9.68504 90.495C9.86504 90.685 10.035 90.855 10.205 91.015C10.575 91.375 10.955 91.725 11.325 92.045C11.505 92.195 11.685 92.355 11.875 92.505C12.105 92.695 12.325 92.865 12.535 93.025C14.925 94.875 17.485 96.185 19.895 96.785C22.175 97.355 25.365 97.635 29.645 97.635C35.805 97.635 42.465 97.045 44.065 96.895L47.855 96.705C50.455 96.785 51.705 97.325 51.975 97.535C53.195 98.765 54.865 100.455 57.085 102.715L116.915 163.585C121.735 168.485 124.265 175.235 123.865 182.085L123.825 182.755C123.805 183.135 123.765 183.625 123.715 184.205C123.135 191.275 121.595 210.055 135.665 218.005C137.385 218.975 143.695 222.125 152.935 222.125C155.625 222.125 158.355 221.855 161.065 221.325C174.415 218.685 180.545 212.115 181.575 199.335C181.595 199.035 181.625 198.545 181.655 197.905C182.175 186.165 184.035 183.785 184.395 183.425C184.615 183.215 185.945 182.155 190.945 182.155C192.275 182.155 193.545 182.225 194.575 182.285C195.375 182.335 196.065 182.375 196.655 182.375C196.915 182.375 197.145 182.375 197.355 182.355C207.425 181.715 218.115 178.945 221.065 163.195C223.175 151.955 218.245 140.665 216.215 137.825C210.645 130.025 200.045 125.895 185.555 125.895C183.885 125.895 182.505 125.945 181.595 125.985L180.985 126.005C180.985 126.005 180.935 126.005 180.905 126.005C180.575 126.015 180.245 126.025 179.915 126.025C173.415 126.025 167.075 123.365 162.515 118.735C162.505 118.725 162.495 118.715 162.475 118.695L103.325 59.545C98.515 54.645 95.995 47.905 96.395 41.055L96.435 40.385C96.755 34.715 97.045 28.195 96.305 22.735C94.875 12.205 85.575 0.855011 68.535 0.855011Z" fill="#180027"/>
    <path d="M211.345 141.325C204.035 131.085 186.675 131.795 181.795 131.985L181.155 132.005C172.585 132.355 164.255 129.055 158.255 122.945L99.0851 63.775C93.0751 57.655 89.9251 49.275 90.4251 40.715L90.4551 40.075C90.7351 35.215 91.0651 28.675 90.3651 23.555C89.2851 15.625 81.2851 3.47501 60.3651 7.72501C49.5751 9.91501 45.4951 14.175 44.6751 24.315C44.5051 26.465 45.5951 37.585 41.3051 42.045C39.1851 44.245 27.2351 43.125 25.0851 43.255C14.9351 43.915 6.41507 51.165 6.41507 65.705C6.39507 81.445 16.2751 90.435 21.9451 90.775C27.0951 91.085 33.5851 91.345 38.4651 91.155L53.3751 90.405C53.3751 90.405 55.3751 92.385 61.3751 98.495L121.205 159.365C127.225 165.495 130.365 173.875 129.865 182.425L129.835 183.065C129.555 187.925 126.855 206.105 138.635 212.775C140.265 213.695 148.355 217.705 159.925 215.425C170.735 213.295 174.795 208.975 175.615 198.835C175.785 196.685 175.805 183.445 180.215 179.125C184.625 174.805 194.845 176.485 196.995 176.345C207.145 175.705 213.165 172.895 215.195 162.065C216.985 152.525 212.455 142.825 211.365 141.295" fill="#FCEACC"/>
    <path d="M45.2151 19.795C46.6051 14.465 53.7551 15.175 55.5251 16.895C57.3451 18.645 58.3551 21.095 58.6851 23.555C59.9851 33.635 56.6051 39.435 53.0851 41.325C49.5151 43.215 47.1351 43.545 41.8451 44.085C38.6351 44.415 35.9851 43.895 37.1051 43.285C38.8951 42.335 42.5551 39.835 43.3551 38.375C44.2751 36.675 44.2351 35.145 44.4151 33.345C44.8351 28.835 44.0651 24.235 45.2351 19.795M215.175 162.075C215.175 162.075 215.195 162.005 215.195 161.975C215.755 158.935 212.215 156.765 209.725 158.595C209.155 159.015 208.515 159.425 207.835 159.805C200.735 163.775 190.955 160.605 184.325 165.305C172.545 173.665 179.435 196.275 171.435 201.655C166.875 204.725 158.025 205.645 153.125 203.165C145.225 199.175 144.035 194.155 143.615 188.675C142.995 180.465 142.905 171.255 141.635 164.865C139.915 156.225 129.025 144.525 129.025 144.525C129.025 144.525 84.3251 95.525 67.5251 80.275C61.0751 74.425 51.0251 76.445 43.3551 77.375C34.3851 78.455 28.4351 77.705 23.1751 73.215C17.9151 68.725 16.4951 58.395 18.6851 51.835C20.8751 45.275 30.8451 43.405 30.8451 43.405C27.3351 43.245 26.1551 43.195 25.0651 43.265C14.9351 43.925 6.41507 51.175 6.41507 65.715C6.39507 81.455 15.8151 89.595 21.3351 90.965C27.5451 92.525 43.8251 90.895 43.8251 90.895C43.8251 90.895 52.6251 89.685 56.2351 93.285C57.4651 94.515 59.1551 96.235 61.3751 98.505L121.205 159.375C127.225 165.505 130.365 173.885 129.865 182.435L129.835 183.075C129.555 187.935 126.855 206.115 138.635 212.785C140.265 213.705 148.355 217.715 159.925 215.435C170.735 213.305 174.795 208.985 175.615 198.845C175.785 196.695 175.805 183.455 180.215 179.135C184.625 174.815 194.845 176.495 196.995 176.355C207.145 175.695 213.185 172.885 215.195 162.055" fill="#EEA696"/>
    </g>
    <defs>
    <clipPath id="clip0_53_992">
    <rect width="221.17" height="221.29" fill="white" transform="translate(0.415039 0.855011)"/>
    </clipPath>
    </defs>
</svg>
