<svg width="188" height="189" viewBox="0 0 188 189" fill="none" xmlns="http://www.w3.org/2000/svg">
    <path d="M128.552 7.77761C117.977 7.90245 98.7736 23.7907 102.519 50.8781C98.0025 53.5953 92.3478 55.7617 87.7947 54.9539C92.1275 61.6 100.132 64.6109 108.504 62.9585C105.456 64.721 101.381 66.0062 98.2595 66.2632C94.2205 66.5203 90.2548 65.7492 86.6931 63.6195C80.6345 57.2671 74.2822 44.6726 78.872 37.439C82.8744 31.3804 81.0384 24.503 76.8892 22.5422C67.7095 18.1874 46.4126 41.9187 59.8517 70.8898C56.3634 75.2593 51.5165 79.3351 45.972 80.0328C51.1126 83.6312 59.5212 84.6226 64.6986 83.2273C61.0634 85.6875 56.8408 87.1929 52.6915 87.4867C48.4689 87.7804 44.3197 86.8992 40.6478 84.5859C36.0726 80.1796 31.1927 72.946 32.2355 67.071C33.5978 59.9476 29.2466 54.2929 24.6751 54.0726C14.5187 53.5953 3.97677 83.7781 27.6383 105.332C18.499 120.277 11.7575 138.342 7.36592 160.153C2.68538 183.359 20.4084 188.904 31.6223 167.056C37.6001 156.959 43.6587 145.833 51.4431 138.673C70.3166 117.78 97.0845 100.228 118.969 90.6812C129.581 86.0546 138.87 83.1906 146.214 83.0437C150.951 82.9703 156.642 85.1 158.552 88.625C160.094 91.7093 159.8 95.271 158.405 99.2734C157.23 92.5171 153.007 90.571 148.564 89.9835C146.104 89.7632 142.469 90.1671 138.136 91.232C149.262 97.2171 152.53 106.911 144.048 112.859C147.463 105.075 136.631 97.0335 126.643 94.9406C124.183 95.8953 122.09 96.7765 119.887 97.7679C127.451 105.516 128.699 114.218 120.217 117.743C123.963 112.602 119.924 105.662 113.755 100.705C111.148 102.027 108.467 103.459 105.787 104.965C109.275 110.546 107.366 115.76 98.5533 119.248C102.042 116.017 101.858 112.198 99.3244 108.747C90.4384 114.144 81.4423 120.497 73.1072 127.473C84.9673 124.389 99.9486 123.508 120.915 121.745C198.392 115.173 196.923 44.8195 138.834 44.3421C137.402 44.3054 136.19 44.5625 134.942 44.0851C137.695 50.9882 145.37 56.6429 151.428 58.3687C146.618 58.9195 141.771 58.1484 137.659 56.1656C126.68 51.1351 124.183 30.2678 130.719 24.1578C136.374 19.6157 136.741 12.5033 133.399 9.3712C131.857 8.26964 130.058 7.77394 128.552 7.77761Z" fill="#180027"/>
</svg>
