<svg width="937" height="886" viewBox="0 0 937 886" fill="none" xmlns="http://www.w3.org/2000/svg">
    <g id="perro" clip-path="url(#clip0_367_98)">
    <g id="head">
    <path id="Vector" d="M212.861 20.87C81.0509 42.56 64.2509 35.6 58.3309 48.51C36.6209 95.88 218.741 286.04 330.141 235.96C374.501 216.02 412.271 155.9 399.271 101.7C386.581 48.78 330.101 20.8 291.511 13.82C270.901 10.09 259.801 13.15 212.851 20.87H212.861Z" fill="#CE9463" stroke="#180027" stroke-width="24.46" stroke-miterlimit="10"/>
    <path id="Vector_2" d="M681.152 416.41C667.332 456.32 653.502 496.22 639.682 536.13C610.472 555.93 552.822 588.9 473.882 595.63C433.182 599.1 398.322 594.61 372.392 588.97C346.512 561.34 320.642 533.71 294.762 506.08C423.562 476.19 552.362 446.3 681.162 416.42L681.152 416.41Z" fill="#CBC5F2" stroke="#180027" stroke-width="19.64" stroke-miterlimit="10"/>
    <path id="Vector_3" d="M721.002 300.03C721.002 162.81 596.102 49.89 444.322 49.89C355.012 49.89 270.942 91.72 222.422 151.35C169.012 217 167.662 291.66 167.632 300.04C136.412 328.27 115.592 347.09 111.452 365.38C110.082 371.42 107.522 390.79 135.792 419.24C208.892 512.26 327.302 562.88 444.312 550.18C572.032 536.32 720.992 444.56 720.992 300.04L721.002 300.03Z" fill="#CE9463" stroke="#180027" stroke-width="18.68" stroke-miterlimit="10"/>
    <path id="Vector_4" d="M793.88 246.05C906.28 173.86 924.46 173.58 924.77 159.39C925.91 107.3 683.31 4.96999 600.91 95.12C568.1 131.02 557.27 201.19 590.7 245.79C623.34 289.34 686.29 292.62 724.47 283.73C744.87 278.98 753.85 271.77 793.88 246.06V246.05Z" fill="#CE9463" stroke="#180027" stroke-width="24.46" stroke-miterlimit="10"/>
    <path id="Vector_5" d="M262.622 126.27C284.032 108.53 321.922 82.26 375.902 68.37C394.822 63.5 428.812 56.79 470.622 60.3C496.342 62.46 519.052 62.76 522.592 72.3C527.502 85.53 489.362 97.96 454.732 137.93C442.952 151.53 402.482 198.23 413.162 245.53C419.852 275.18 448.082 276.56 454.392 309.94C455.632 316.49 462.512 345.74 444.272 366.46C425.372 387.93 385.372 393.79 346.132 379.67C303.632 383.34 261.142 387.01 218.642 390.69C214.852 371.13 213.372 343.69 229.422 319.89C244.522 297.5 264.542 294.05 278.342 280.25C297.302 261.29 306.492 220.84 262.632 126.27H262.622Z" fill="white"/>
    <path id="Vector_6" d="M249.201 439.72C249.201 439.72 273.781 459.85 326.761 428.94C379.741 398.03 290.381 393.88 290.381 393.88C290.381 393.88 239.981 407.31 249.201 439.72Z" fill="#FFFEFB" stroke="#180027" stroke-width="16.87" stroke-miterlimit="10"/>
    <path id="Vector_7" d="M317.07 289.7C324.8 290.47 348.84 293.28 394.22 311.93C430.94 327.02 449.3 334.56 453.48 345.77C461.94 368.45 438.44 397.85 416.63 412.39C386.18 432.69 351.07 429.31 329.45 427.31C300.95 424.67 278.12 415.7 261.84 407.01C261.18 410.53 258.58 421.58 248.06 428.45C231.8 439.07 211.18 430.17 207.81 428.71C207.81 428.71 195.47 423.27 187.53 412.04C178.79 399.67 191.32 368.65 207.81 344.76C220.69 326.1 239.77 298.44 274.84 290.11C288.52 286.86 298.95 287.9 317.07 289.71V289.7Z" fill="#FFFEFB" stroke="#180027" stroke-width="16.87" stroke-linejoin="round"/>
    <path id="Vector_8" d="M240.531 373.06C210.301 371.73 187.861 358.63 184.391 341.79C182.521 332.71 184.941 316.63 197.271 312.21C206.201 309.01 217.961 312.78 225.881 321.87C235.761 302.83 253.941 293.83 265.331 297.47C277.551 301.38 280.041 318.96 279.171 328.82C276.721 356.55 243.341 371.82 240.531 373.06Z" fill="#180027"/>
    <path id="Vector_9" d="M285.471 225C283.941 229.68 277.421 247.82 258.201 259.13C235.591 272.44 212.841 266.04 209.021 264.9" stroke="#180027" stroke-width="20.72" stroke-miterlimit="10" stroke-linecap="round"/>
    <path id="Vector_10" d="M439.012 220.99C439.832 225.11 445.352 250.7 469.052 264.01C491.492 276.6 521.072 273.05 542.782 254.69" stroke="#180027" stroke-width="20.72" stroke-miterlimit="10" stroke-linecap="round"/>
    </g>
    <g id="plate">
    <path id="Vector_11" d="M418.571 489.95C487.061 487.81 562.401 490.85 630.031 501.62C673.141 508.48 762.991 524.34 774.731 574.26C784.541 615.96 792.161 673.29 797.321 716.37C804.011 772.21 810.571 799.76 754.561 825.94C601.751 897.38 313.591 896.85 160.221 827.1C118.511 808.13 109.061 793.46 111.601 746.71C114.141 699.96 127.221 623.81 137.491 575.64C139.721 565.2 142.521 558.49 149.771 550.56C194.701 501.42 353.711 491.98 418.561 489.95H418.571Z" fill="#CBC5F2" stroke="#180027" stroke-width="12.61" stroke-linecap="round" stroke-linejoin="round"/>
    <path id="Vector_12" d="M549.3 761.5L365.42 761.11C354.1 771.03 351.13 784.19 335.18 790.3C313.47 798.62 279.15 802.97 267.51 777.55C255.22 750.71 295.64 740.98 294.58 728.3C293.57 716.28 262.46 707.01 264.71 687.71C268.31 656.9 305.49 658.98 327.57 664.84C350.96 671.05 350.3 683.42 367.17 696.56L543.8 696.68C553.15 695.45 561.64 674.42 573.41 668.56C587.7 661.44 619.71 657.21 633.42 666.31C646.88 675.24 652.13 689.65 642.04 703.24C634.55 713.32 611.44 721.38 620.97 734.79C632 750.3 660.36 756.72 642.07 783.08C629.14 801.72 601.67 797.46 582.5 791.93C565.42 787 558.58 775.47 549.28 761.49L549.3 761.5Z" fill="#180027"/>
    <path id="Vector_13" d="M719.451 579.47C710.521 587.85 696.611 591.63 685.101 595.18C571.961 630.13 355.151 629.14 240.621 598.98C237.261 598.1 189.701 583.92 193.091 579.46C219.861 566.87 248.851 560.08 277.941 554.78C364.141 539.07 461.411 537.65 548.781 543.8C605.751 547.81 666.841 557.15 719.441 579.46L719.451 579.47Z" fill="#504EAD" stroke="#180027" stroke-width="12.61" stroke-linecap="round" stroke-linejoin="round"/>
    </g>
    <g id="pat_left">
    <g id="Group">
    <path id="Vector_14" d="M793.679 636.85C790.579 639.34 794.819 645.89 797.489 666.24C799.769 683.65 799.199 698.16 798.349 707.71C784.949 711.15 771.549 714.6 758.149 718.04C757.179 718.04 756.089 718.21 754.999 718.37C718.709 723.79 693.739 757.53 699.159 793.82C704.559 829.97 738.299 854.94 774.589 849.52C823.899 842.15 863.649 841.35 876.769 834.25C884.449 825.3 910.989 792.3 903.579 753.95C903.499 753.52 903.389 752.99 903.249 752.36C898.329 731.01 885.559 717.18 879.159 710.52C840.219 670.02 801.939 630.21 793.669 636.84L793.679 636.85Z" fill="#CE9463"/>
    <path id="Vector_15" d="M793.679 636.85C790.579 639.34 794.819 645.89 797.489 666.24C799.769 683.65 799.199 698.16 798.349 707.71C784.949 711.15 771.549 714.6 758.149 718.04C757.179 718.04 756.089 718.21 754.999 718.37C718.709 723.79 693.739 757.53 699.159 793.82C704.559 829.97 738.299 854.94 774.589 849.52C823.899 842.15 863.649 841.35 876.769 834.25C884.449 825.3 910.989 792.3 903.579 753.95C903.499 753.52 903.389 752.99 903.249 752.36C898.329 731.01 885.559 717.18 879.159 710.52C840.219 670.02 801.939 630.21 793.669 636.84L793.679 636.85Z" stroke="#180027" stroke-width="15.99" stroke-linejoin="round"/>
    </g>
    <g id="Vector_16">
    <path d="M786.598 768.87C783.618 768.73 759.118 768 742.298 787.72C729.678 802.52 726.108 823.29 732.828 842.03" fill="#CE9463"/>
    <path d="M786.598 768.87C783.618 768.73 759.118 768 742.298 787.72C729.678 802.52 726.108 823.29 732.828 842.03" stroke="#180027" stroke-width="15.99" stroke-miterlimit="10" stroke-linecap="round"/>
    </g>
    <g id="Vector_17">
    <path d="M742.88 750.71C738.72 751.45 724.079 754.58 713.799 767.82C697.359 788.98 707.889 815.52 708.359 816.63" fill="#CE9463"/>
    <path d="M742.88 750.71C738.72 751.45 724.079 754.58 713.799 767.82C697.359 788.98 707.889 815.52 708.359 816.63" stroke="#180027" stroke-width="15.99" stroke-miterlimit="10" stroke-linecap="round"/>
    </g>
    </g>
    <g id="pat_right">
    <g id="Group_2">
    <path id="Vector_18" d="M119.2 636.85C122.3 639.34 118.06 645.89 115.39 666.24C113.11 683.65 113.68 698.16 114.53 707.71C127.93 711.15 141.33 714.6 154.73 718.04C155.7 718.04 156.79 718.21 157.88 718.37C194.17 723.79 219.14 757.53 213.72 793.82C208.32 829.97 174.58 854.94 138.29 849.52C88.98 842.15 49.23 841.35 36.11 834.25C28.43 825.3 1.89004 792.3 9.30004 753.95C9.38004 753.52 9.49004 752.99 9.63004 752.36C14.55 731.01 27.32 717.18 33.72 710.52C72.66 670.02 110.94 630.21 119.21 636.84L119.2 636.85Z" fill="#CE9463"/>
    <path id="Vector_19" d="M119.2 636.85C122.3 639.34 118.06 645.89 115.39 666.24C113.11 683.65 113.68 698.16 114.53 707.71C127.93 711.15 141.33 714.6 154.73 718.04C155.7 718.04 156.79 718.21 157.88 718.37C194.17 723.79 219.14 757.53 213.72 793.82C208.32 829.97 174.58 854.94 138.29 849.52C88.98 842.15 49.23 841.35 36.11 834.25C28.43 825.3 1.89004 792.3 9.30004 753.95C9.38004 753.52 9.49004 752.99 9.63004 752.36C14.55 731.01 27.32 717.18 33.72 710.52C72.66 670.02 110.94 630.21 119.21 636.84L119.2 636.85Z" stroke="#180027" stroke-width="15.99" stroke-linejoin="round"/>
    </g>
    <g id="Vector_20">
    <path d="M126.279 768.87C129.259 768.73 153.759 768 170.579 787.72C183.199 802.52 186.769 823.29 180.049 842.03" fill="#CE9463"/>
    <path d="M126.279 768.87C129.259 768.73 153.759 768 170.579 787.72C183.199 802.52 186.769 823.29 180.049 842.03" stroke="#180027" stroke-width="15.99" stroke-miterlimit="10" stroke-linecap="round"/>
    </g>
    <g id="Vector_21">
    <path d="M170 750.71C174.16 751.45 188.8 754.58 199.08 767.82C215.52 788.98 204.99 815.52 204.52 816.63" fill="#CE9463"/>
    <path d="M170 750.71C174.16 751.45 188.8 754.58 199.08 767.82C215.52 788.98 204.99 815.52 204.52 816.63" stroke="#180027" stroke-width="15.99" stroke-miterlimit="10" stroke-linecap="round"/>
    </g>
    </g>
    </g>
    <defs>
    <clipPath id="clip0_367_98">
    <rect width="937" height="885.78" fill="white"/>
    </clipPath>
    </defs>
</svg>
