<svg width="955" height="830" viewBox="0 0 955 830" fill="none" xmlns="http://www.w3.org/2000/svg">
    <g id="perro" clip-path="url(#clip0_366_41)">
    <g id="head">
    <path id="Vector" d="M309.671 13.44C346.461 13.86 385.671 40.05 399.501 74.04C424.191 134.69 361.361 203.66 260.371 314.67C236.031 341.42 211.331 365.33 180.241 363.5C154.361 361.98 128.491 342.9 116.161 319.3C73.6408 237.93 165.171 108.16 236.491 47.24C262.011 25.44 284.001 13.15 309.681 13.44H309.671Z" fill="#6D1B34" stroke="#180027" stroke-width="18.49" stroke-miterlimit="10"/>
    <path id="Vector_2" d="M707.33 355.11C694.32 392.68 681.3 430.25 668.29 467.81C640.79 486.45 586.52 517.49 512.2 523.82C473.88 527.09 441.07 522.86 416.65 517.55C392.29 491.54 367.93 465.53 343.57 439.52C464.82 411.38 586.07 383.25 707.33 355.11Z" fill="#CBC5F2" stroke="#180027" stroke-width="18.49" stroke-miterlimit="10"/>
    <path id="Vector_3" d="M744.841 244.92C744.841 115.39 627.261 8.81 484.371 8.81C400.301 8.81 321.151 48.29 275.471 104.58C225.191 166.55 223.921 237.02 223.891 244.93C194.501 271.57 174.901 289.34 171.011 306.61C169.731 312.31 167.311 330.59 193.931 357.45C262.751 445.26 374.221 493.03 484.371 481.05C604.611 467.97 744.841 381.35 744.841 244.93V244.92Z" fill="#F96D5F" stroke="#180027" stroke-width="17.61" stroke-miterlimit="10"/>
    <path id="Vector_4" d="M600.47 136.25C602.44 99.51 630.27 61.45 664.81 49.06C726.45 26.95 792.71 92.64 899.35 198.23C925.05 223.68 947.89 249.37 944.76 280.35C942.15 306.14 922 331.18 897.89 342.51C814.79 381.56 689 284.63 631.15 210.8C610.45 184.38 599.09 161.9 600.47 136.25Z" fill="#6D1B34" stroke="#180027" stroke-width="18.49" stroke-miterlimit="10"/>
    <path id="Vector_5" d="M347.74 440.85C347.74 440.85 367.05 464.83 419.3 442.34C471.55 419.85 391.47 401.58 391.47 401.58C391.47 401.58 344.05 407.03 347.74 440.84V440.85Z" fill="#F4AAA6" stroke="#180027" stroke-width="17.88" stroke-miterlimit="10"/>
    <path id="Vector_6" d="M478.501 291.95C487.131 312.19 497.921 327.04 505.561 336.31C534.061 355.76 547.721 384.73 540.501 406.99C534.251 426.25 514.101 435.08 502.791 440.03C469.621 454.57 437.401 445.5 421.961 441.15C396.611 434.01 377.281 421.45 363.821 410.2C362.721 413.61 358.791 424.23 348.321 429.43C332.121 437.47 314.781 425.32 311.951 423.33C309.261 421.45 300.531 414.87 296.021 403.48C284.701 374.81 306.231 336.62 326.631 314.57C334.751 305.8 346.901 291.77 359.661 272.95C376.881 247.57 378.031 238.79 390.231 231.54C409.731 219.95 440.581 222.3 457.281 237.95C470.241 250.1 465.901 262.45 478.481 291.97L478.501 291.95Z" fill="#F4AAA6" stroke="#180027" stroke-width="17.88" stroke-miterlimit="10"/>
    <path id="Vector_7" d="M362.45 410.63C335.35 404.52 316.96 387.9 316.24 370.53C315.85 361.17 320.33 345.49 332.09 343.03C340.61 341.25 350.69 346.87 356.54 357.2C368.18 339.75 385.87 333.63 395.64 339.07C406.11 344.9 405.85 362.85 403.65 372.56C397.47 399.86 365.16 409.84 362.45 410.63Z" fill="#180027"/>
    <path id="Vector_8" d="M344.041 188.52C342.631 192.83 336.631 209.53 318.921 219.95C298.091 232.21 277.141 226.32 273.631 225.27" stroke="#180027" stroke-width="19.08" stroke-miterlimit="10" stroke-linecap="round"/>
    <path id="Vector_9" d="M504.801 182.66C505.551 186.46 510.641 210.02 532.461 222.28C553.121 233.88 580.361 230.6 600.361 213.7" stroke="#180027" stroke-width="19.08" stroke-miterlimit="10" stroke-linecap="round"/>
    </g>
    <g id="plate">
    <path id="Vector_10" d="M444.95 433.97C513.44 431.83 588.78 434.87 656.41 445.64C699.52 452.5 789.37 468.36 801.11 518.28C810.92 559.98 818.54 617.31 823.7 660.39C830.39 716.23 836.95 743.78 780.94 769.96C628.13 841.4 339.97 840.87 186.6 771.12C144.89 752.15 135.44 737.48 137.98 690.73C140.52 643.98 153.6 567.83 163.87 519.66C166.1 509.22 168.9 502.51 176.15 494.58C221.08 445.44 380.09 436 444.94 433.97H444.95Z" fill="#CBC5F2" stroke="#180027" stroke-width="12.61" stroke-linecap="round" stroke-linejoin="round"/>
    <path id="Vector_11" d="M575.679 705.51L391.799 705.12C380.479 715.04 377.509 728.2 361.559 734.31C339.849 742.63 305.529 746.98 293.889 721.56C281.599 694.72 322.019 684.99 320.959 672.31C319.949 660.29 288.839 651.02 291.089 631.72C294.689 600.91 331.869 602.99 353.949 608.85C377.339 615.06 376.679 627.43 393.549 640.57L570.179 640.69C579.529 639.46 588.019 618.43 599.789 612.57C614.079 605.45 646.089 601.22 659.799 610.32C673.259 619.25 678.509 633.66 668.419 647.25C660.929 657.33 637.819 665.39 647.349 678.8C658.379 694.31 686.739 700.73 668.449 727.09C655.519 745.73 628.049 741.47 608.879 735.94C591.799 731.01 584.959 719.48 575.659 705.5L575.679 705.51Z" fill="#180027"/>
    <path id="Vector_12" d="M745.83 523.48C736.9 531.86 722.99 535.64 711.48 539.19C598.34 574.14 381.53 573.15 267 542.99C263.64 542.11 216.08 527.93 219.47 523.47C246.24 510.88 275.23 504.09 304.32 498.79C390.52 483.08 487.79 481.66 575.16 487.81C632.13 491.82 693.22 501.16 745.82 523.47L745.83 523.48Z" fill="#504EAD" stroke="#180027" stroke-width="12.61" stroke-linecap="round" stroke-linejoin="round"/>
    </g>
    <g id="pat_left">
    <g id="Group">
    <path id="Vector_13" d="M807.46 541.03C803.62 544.11 808.87 552.21 812.17 577.39C815 598.93 814.28 616.88 813.23 628.69C796.65 632.95 780.08 637.21 763.5 641.47C762.3 641.47 760.95 641.68 759.61 641.88C714.72 648.59 683.83 690.33 690.53 735.22C697.21 779.94 738.95 810.84 783.85 804.13C844.85 795.02 894.04 794.03 910.26 785.24C919.76 774.17 952.6 733.34 943.43 685.9C943.33 685.36 943.19 684.71 943.02 683.93C936.93 657.51 921.14 640.41 913.22 632.17C865.04 582.06 817.68 532.81 807.46 541.02V541.03Z" fill="#F96D5F"/>
    <path id="Vector_14" d="M807.46 541.03C803.62 544.11 808.87 552.21 812.17 577.39C815 598.93 814.28 616.88 813.23 628.69C796.65 632.95 780.08 637.21 763.5 641.47C762.3 641.47 760.95 641.68 759.61 641.88C714.72 648.59 683.83 690.33 690.53 735.22C697.21 779.94 738.95 810.84 783.85 804.13C844.85 795.02 894.04 794.03 910.26 785.24C919.76 774.17 952.6 733.34 943.43 685.9C943.33 685.36 943.19 684.71 943.02 683.93C936.93 657.51 921.14 640.41 913.22 632.17C865.04 582.06 817.68 532.81 807.46 541.02V541.03Z" stroke="#180027" stroke-width="19.79" stroke-linejoin="round"/>
    </g>
    <g id="Vector_15">
    <path d="M798.7 704.35C795.01 704.18 764.7 703.27 743.89 727.67C728.28 745.98 723.86 771.68 732.18 794.86" fill="#F96D5F"/>
    <path d="M798.7 704.35C795.01 704.18 764.7 703.27 743.89 727.67C728.28 745.98 723.86 771.68 732.18 794.86" stroke="#180027" stroke-width="19.79" stroke-miterlimit="10" stroke-linecap="round"/>
    </g>
    <g id="Vector_16">
    <path d="M744.62 681.89C739.47 682.81 721.37 686.68 708.64 703.06C688.3 729.23 701.33 762.07 701.91 763.45" fill="#F96D5F"/>
    <path d="M744.62 681.89C739.47 682.81 721.37 686.68 708.64 703.06C688.3 729.23 701.33 762.07 701.91 763.45" stroke="#180027" stroke-width="19.79" stroke-miterlimit="10" stroke-linecap="round"/>
    </g>
    </g>
    <g id="pat_right">
    <g id="Group_2">
    <path id="Vector_17" d="M147.47 541.03C151.31 544.11 146.06 552.21 142.76 577.39C139.93 598.93 140.65 616.88 141.7 628.69C158.28 632.95 174.85 637.21 191.43 641.47C192.63 641.47 193.98 641.68 195.32 641.88C240.21 648.59 271.1 690.33 264.4 735.22C257.72 779.94 215.98 810.84 171.08 804.13C110.08 795.02 60.8897 794.03 44.6697 785.24C35.1697 774.17 2.3297 733.34 11.4997 685.9C11.5997 685.36 11.7397 684.71 11.9097 683.93C17.9997 657.51 33.7897 640.41 41.7097 632.17C89.8897 582.06 137.25 532.81 147.47 541.02V541.03Z" fill="#F96D5F"/>
    <path id="Vector_18" d="M147.47 541.03C151.31 544.11 146.06 552.21 142.76 577.39C139.93 598.93 140.65 616.88 141.7 628.69C158.28 632.95 174.85 637.21 191.43 641.47C192.63 641.47 193.98 641.68 195.32 641.88C240.21 648.59 271.1 690.33 264.4 735.22C257.72 779.94 215.98 810.84 171.08 804.13C110.08 795.02 60.8897 794.03 44.6697 785.24C35.1697 774.17 2.3297 733.34 11.4997 685.9C11.5997 685.36 11.7397 684.71 11.9097 683.93C17.9997 657.51 33.7897 640.41 41.7097 632.17C89.8897 582.06 137.25 532.81 147.47 541.02V541.03Z" stroke="#180027" stroke-width="19.79" stroke-linejoin="round"/>
    </g>
    <g id="Vector_19">
    <path d="M156.23 704.35C159.92 704.18 190.23 703.27 211.04 727.67C226.65 745.98 231.07 771.68 222.75 794.86" fill="#F96D5F"/>
    <path d="M156.23 704.35C159.92 704.18 190.23 703.27 211.04 727.67C226.65 745.98 231.07 771.68 222.75 794.86" stroke="#180027" stroke-width="19.79" stroke-miterlimit="10" stroke-linecap="round"/>
    </g>
    <g id="Vector_20">
    <path d="M210.32 681.89C215.47 682.81 233.57 686.68 246.3 703.06C266.64 729.23 253.61 762.07 253.03 763.45" fill="#F96D5F"/>
    <path d="M210.32 681.89C215.47 682.81 233.57 686.68 246.3 703.06C266.64 729.23 253.61 762.07 253.03 763.45" stroke="#180027" stroke-width="19.79" stroke-miterlimit="10" stroke-linecap="round"/>
    </g>
    </g>
    </g>
    <defs>
    <clipPath id="clip0_366_41">
    <rect width="954.93" height="829.79" fill="white"/>
    </clipPath>
    </defs>
</svg>
