<svg width="955" height="862" viewBox="0 0 955 862" fill="none" xmlns="http://www.w3.org/2000/svg">
    <g id="perro" clip-path="url(#clip0_367_69)">
    <g id="head">
    <path id="Vector" d="M261.641 33.48C141.521 15.82 128.891 5.15 120.211 14.69C88.3209 49.7 193.431 264.69 303.731 252.13C347.651 247.13 396.971 205.51 400.701 155C404.341 105.67 363.171 65.83 331.701 49.12C314.891 40.19 304.431 39.77 261.651 33.48H261.641Z" fill="#342F38" stroke="#180027" stroke-width="22.23" stroke-miterlimit="10"/>
    <path id="Vector_2" d="M653.061 408.07C640.501 444.34 627.931 480.61 615.371 516.88C588.821 534.88 536.431 564.84 464.671 570.96C427.671 574.11 396.001 570.03 372.421 564.91C348.901 539.8 325.381 514.68 301.871 489.57C418.931 462.41 535.991 435.24 653.061 408.08V408.07Z" fill="#180027" stroke="#180027" stroke-width="17.85" stroke-miterlimit="10"/>
    <path id="Vector_3" d="M689.281 277.98C689.281 140.03 575.761 26.51 437.811 26.51C356.641 26.51 280.231 68.56 236.131 128.51C187.591 194.51 186.361 269.57 186.331 277.99C157.951 306.37 139.031 325.29 135.271 343.68C134.031 349.75 131.691 369.22 157.391 397.83C223.831 491.35 331.451 542.23 437.801 529.47C553.891 515.54 689.271 423.29 689.271 278L689.281 277.98Z" fill="#E09A69" stroke="#180027" stroke-width="17.85" stroke-miterlimit="10"/>
    <path id="Vector_4" d="M196.68 269.62C193.55 263.38 194.97 256.66 197.94 243.48C204.48 214.47 210.74 187.12 236.53 165.61C249.08 155.14 278.9 135.52 297.45 143.88C308.27 148.76 306.01 158.98 322.36 186.15C335.01 207.16 342.03 218.83 352.5 220.2C370.52 222.55 378.25 191.64 411.93 164.51C456.99 128.21 527 115.98 541.82 132.79C542.57 133.64 543.08 134.45 543.4 135.32C547.1 145.17 542.58 156.16 541.23 159.37C531.33 182.91 550 236.76 567.64 253.89C570.14 256.32 579.95 265.12 579.64 276.72C579.61 277.99 579.49 279.03 579.4 279.35C573.49 299.18 496.92 288.28 399.65 303.59C351.9 311.11 313.4 322.7 286.93 332.01C282.16 324.42 273.95 313.5 260.39 304C232.65 284.55 205.4 287.06 196.66 269.64L196.68 269.62Z" fill="#342F38"/>
    <path id="Vector_5" d="M172.701 497.18C172.701 497.18 191.361 520.92 242.861 499.48C294.361 478.04 216.041 459.18 216.041 459.18C216.041 459.18 169.471 463.97 172.691 497.17L172.701 497.18Z" fill="#342F38" stroke="#180027" stroke-width="15.9" stroke-miterlimit="10"/>
    <path id="Vector_6" d="M329.371 291.89C351.991 301.75 333.781 342.24 369.271 397.7C386.831 425.14 401.311 430.88 399.501 447.06C395.901 479.32 334.011 495.75 324.771 498.2C284.581 508.87 252.371 500.38 245.481 498.35C220.701 491.05 201.891 478.5 188.831 467.31C187.711 470.64 183.731 481.01 173.401 485.99C157.421 493.68 140.551 481.56 137.801 479.58C137.801 479.58 127.721 472.22 122.411 459.92C116.571 446.38 132.351 418.13 150.541 397.5C170.391 375 188.921 370.4 218.061 355.17C295.631 314.65 309.381 283.18 329.361 291.89H329.371Z" fill="#342F38" stroke="#180027" stroke-width="15.9" stroke-linejoin="round"/>
    <path id="Vector_7" d="M175.172 430.58C148.672 424.27 130.832 407.75 130.322 390.71C130.052 381.52 134.622 366.2 146.192 363.93C154.572 362.28 164.382 367.92 170.002 378.11C181.622 361.13 199.052 355.34 208.562 360.79C218.762 366.63 218.292 384.23 216.032 393.73C209.652 420.43 177.842 429.84 175.182 430.58H175.172Z" fill="#180027"/>
    <path id="Vector_8" d="M283.99 209.13C282.58 213.44 276.58 230.14 258.87 240.56C238.04 252.82 217.09 246.93 213.58 245.88" stroke="#180027" stroke-width="19.08" stroke-miterlimit="10" stroke-linecap="round"/>
    <path id="Vector_9" d="M425.4 205.44C426.15 209.24 431.24 232.8 453.06 245.06C473.72 256.66 500.96 253.38 520.96 236.48" stroke="#180027" stroke-width="19.08" stroke-miterlimit="10" stroke-linecap="round"/>
    <path id="Vector_10" d="M762.321 181.45C809.191 69.45 822.651 59.86 815.561 49.08C789.541 9.51001 555.211 58.09 540.061 168.06C534.031 211.85 562.131 269.94 610.141 286.07C657.031 301.82 705.821 271.8 729.811 245.45C742.621 231.37 745.621 221.35 762.311 181.46L762.321 181.45Z" fill="#342F38" stroke="#180027" stroke-width="22.23" stroke-miterlimit="10"/>
    </g>
    <g id="plate">
    <path id="Vector_11" d="M444.95 465.9C513.44 463.76 588.78 466.8 656.41 477.57C699.52 484.43 789.37 500.29 801.11 550.21C810.92 591.91 818.54 649.24 823.7 692.32C830.39 748.16 836.95 775.71 780.94 801.89C628.13 873.33 339.97 872.8 186.6 803.05C144.89 784.08 135.44 769.41 137.98 722.66C140.52 675.91 153.6 599.76 163.87 551.59C166.1 541.15 168.9 534.44 176.15 526.51C221.08 477.37 380.09 467.93 444.94 465.9H444.95Z" fill="#CBC5F2" stroke="#180027" stroke-width="12.61" stroke-linecap="round" stroke-linejoin="round"/>
    <path id="Vector_12" d="M575.679 737.45L391.799 737.06C380.479 746.98 377.509 760.14 361.559 766.25C339.849 774.57 305.529 778.92 293.889 753.5C281.599 726.66 322.019 716.93 320.959 704.25C319.949 692.23 288.839 682.96 291.089 663.66C294.689 632.85 331.869 634.93 353.949 640.79C377.339 647 376.679 659.37 393.549 672.51L570.179 672.63C579.529 671.4 588.019 650.37 599.789 644.51C614.079 637.39 646.089 633.16 659.799 642.26C673.259 651.19 678.509 665.6 668.419 679.19C660.929 689.27 637.819 697.33 647.349 710.74C658.379 726.25 686.739 732.67 668.449 759.03C655.519 777.67 628.049 773.41 608.879 767.88C591.799 762.95 584.959 751.42 575.659 737.44L575.679 737.45Z" fill="#180027"/>
    <path id="Vector_13" d="M745.83 555.41C736.9 563.79 722.99 567.57 711.48 571.12C598.34 606.07 381.53 605.08 267 574.92C263.64 574.04 216.08 559.86 219.47 555.4C246.24 542.81 275.23 536.02 304.32 530.72C390.52 515.01 487.79 513.59 575.16 519.74C632.13 523.75 693.22 533.09 745.82 555.4L745.83 555.41Z" fill="#504EAD" stroke="#180027" stroke-width="12.61" stroke-linecap="round" stroke-linejoin="round"/>
    </g>
    <g id="pat_left">
    <g id="Group">
    <path id="Vector_14" d="M807.46 572.96C803.62 576.04 808.87 584.14 812.17 609.32C815 630.86 814.28 648.81 813.23 660.62C796.65 664.88 780.08 669.14 763.5 673.4C762.3 673.4 760.95 673.61 759.61 673.81C714.72 680.52 683.83 722.26 690.53 767.15C697.21 811.87 738.95 842.77 783.85 836.06C844.85 826.95 894.04 825.96 910.26 817.17C919.76 806.1 952.6 765.27 943.43 717.83C943.33 717.29 943.19 716.64 943.02 715.86C936.93 689.44 921.14 672.34 913.22 664.1C865.04 613.99 817.68 564.74 807.46 572.95V572.96Z" fill="#E09A69"/>
    <path id="Vector_15" d="M807.46 572.96C803.62 576.04 808.87 584.14 812.17 609.32C815 630.86 814.28 648.81 813.23 660.62C796.65 664.88 780.08 669.14 763.5 673.4C762.3 673.4 760.95 673.61 759.61 673.81C714.72 680.52 683.83 722.26 690.53 767.15C697.21 811.87 738.95 842.77 783.85 836.06C844.85 826.95 894.04 825.96 910.26 817.17C919.76 806.1 952.6 765.27 943.43 717.83C943.33 717.29 943.19 716.64 943.02 715.86C936.93 689.44 921.14 672.34 913.22 664.1C865.04 613.99 817.68 564.74 807.46 572.95V572.96Z" stroke="#180027" stroke-width="19.79" stroke-linejoin="round"/>
    </g>
    <g id="Vector_16">
    <path d="M798.7 736.29C795.01 736.12 764.7 735.21 743.89 759.61C728.28 777.92 723.86 803.62 732.18 826.8" fill="#E09A69"/>
    <path d="M798.7 736.29C795.01 736.12 764.7 735.21 743.89 759.61C728.28 777.92 723.86 803.62 732.18 826.8" stroke="#180027" stroke-width="19.79" stroke-miterlimit="10" stroke-linecap="round"/>
    </g>
    <g id="Vector_17">
    <path d="M744.62 713.82C739.47 714.74 721.37 718.61 708.64 734.99C688.3 761.16 701.33 794 701.91 795.38" fill="#E09A69"/>
    <path d="M744.62 713.82C739.47 714.74 721.37 718.61 708.64 734.99C688.3 761.16 701.33 794 701.91 795.38" stroke="#180027" stroke-width="19.79" stroke-miterlimit="10" stroke-linecap="round"/>
    </g>
    </g>
    <g id="pat_right">
    <g id="Group_2">
    <path id="Vector_18" d="M147.47 572.96C151.31 576.04 146.06 584.14 142.76 609.32C139.93 630.86 140.65 648.81 141.7 660.62C158.28 664.88 174.85 669.14 191.43 673.4C192.63 673.4 193.98 673.61 195.32 673.81C240.21 680.52 271.1 722.26 264.4 767.15C257.72 811.87 215.98 842.77 171.08 836.06C110.08 826.95 60.8897 825.96 44.6697 817.17C35.1697 806.1 2.3297 765.27 11.4997 717.83C11.5997 717.29 11.7397 716.64 11.9097 715.86C17.9997 689.44 33.7897 672.34 41.7097 664.1C89.8897 613.99 137.25 564.74 147.47 572.95V572.96Z" fill="#E09A69"/>
    <path id="Vector_19" d="M147.47 572.96C151.31 576.04 146.06 584.14 142.76 609.32C139.93 630.86 140.65 648.81 141.7 660.62C158.28 664.88 174.85 669.14 191.43 673.4C192.63 673.4 193.98 673.61 195.32 673.81C240.21 680.52 271.1 722.26 264.4 767.15C257.72 811.87 215.98 842.77 171.08 836.06C110.08 826.95 60.8897 825.96 44.6697 817.17C35.1697 806.1 2.3297 765.27 11.4997 717.83C11.5997 717.29 11.7397 716.64 11.9097 715.86C17.9997 689.44 33.7897 672.34 41.7097 664.1C89.8897 613.99 137.25 564.74 147.47 572.95V572.96Z" stroke="#180027" stroke-width="19.79" stroke-linejoin="round"/>
    </g>
    <g id="Vector_20">
    <path d="M156.23 736.29C159.92 736.12 190.23 735.21 211.04 759.61C226.65 777.92 231.07 803.62 222.75 826.8" fill="#E09A69"/>
    <path d="M156.23 736.29C159.92 736.12 190.23 735.21 211.04 759.61C226.65 777.92 231.07 803.62 222.75 826.8" stroke="#180027" stroke-width="19.79" stroke-miterlimit="10" stroke-linecap="round"/>
    </g>
    <g id="Vector_21">
    <path d="M210.32 713.82C215.47 714.74 233.57 718.61 246.3 734.99C266.64 761.16 253.61 794 253.03 795.38" fill="#E09A69"/>
    <path d="M210.32 713.82C215.47 714.74 233.57 718.61 246.3 734.99C266.64 761.16 253.61 794 253.03 795.38" stroke="#180027" stroke-width="19.79" stroke-miterlimit="10" stroke-linecap="round"/>
    </g>
    </g>
    </g>
    <defs>
    <clipPath id="clip0_367_69">
    <rect width="954.93" height="861.73" fill="white"/>
    </clipPath>
    </defs>
</svg>
