<svg width="955" height="849" viewBox="0 0 955 849" fill="none" xmlns="http://www.w3.org/2000/svg">
    <g id="perro" clip-path="url(#clip0_366_5)">
    <g id="head">
    <path id="Vector" d="M140.04 196.75C34.3503 121.52 16.7303 120.4 17.0903 106.62C18.4003 56.04 258.47 -32 334.23 59.27C364.4 95.62 371.65 164.18 337.16 205.9C303.48 246.63 242.27 246.9 205.64 236.5C186.07 230.95 177.7 223.54 140.06 196.74L140.04 196.75Z" fill="#CBC5F2" stroke="#180027" stroke-width="23.75" stroke-miterlimit="10"/>
    <path id="Vector_2" d="M684.9 376.22C671.48 414.97 658.05 453.73 644.63 492.48C616.26 511.71 560.28 543.73 483.61 550.26C444.08 553.63 410.23 549.27 385.04 543.79C359.91 516.96 334.78 490.12 309.65 463.29C434.73 434.26 559.82 405.24 684.9 376.21V376.22Z" fill="#FF3E68" stroke="#180027" stroke-width="19.08" stroke-miterlimit="10"/>
    <path id="Vector_3" d="M723.6 259.58C723.6 122.23 602.3 9.21001 454.9 9.21001C368.17 9.21001 286.52 51.07 239.4 110.76C187.53 176.47 186.22 251.2 186.19 259.58C155.87 287.83 135.65 306.67 131.63 324.98C130.3 331.03 127.81 350.41 155.27 378.89C226.26 472 341.26 522.66 454.89 509.95C578.93 496.08 723.59 404.23 723.59 259.58H723.6Z" fill="#CBC5F2" stroke="#180027" stroke-width="18.42" stroke-miterlimit="10"/>
    <path id="Vector_4" d="M782.769 33.69C908.079 67.26 924.979 62.15 929.469 75.19C945.919 123.04 751.719 289.39 648.849 230.34C607.879 206.82 577.139 145.11 594.889 93.97C612.219 44.04 669.479 22.41 707.439 19.35C727.719 17.72 738.149 21.74 782.779 33.69H782.769Z" fill="#CBC5F2" stroke="#180027" stroke-width="23.75" stroke-miterlimit="10"/>
    <path id="Vector_5" d="M275.77 83.54C296.56 66.44 333.36 41.11 385.78 27.72C404.15 23.03 437.16 16.56 477.76 19.94C502.74 22.02 524.79 22.31 528.23 31.51C533 44.27 495.96 56.25 462.32 94.78C450.88 107.89 411.58 152.91 421.95 198.51C423.05 203.37 434 223.7 461.99 260.61C472.81 274.87 486.08 293.8 502.17 320.41C515.43 342.34 525.24 360.66 531.21 372.18C438.73 386.28 346.25 400.38 253.78 414.48C253.25 395.37 254.25 365.85 263.62 331.84C284.81 254.98 327.89 231.09 327.92 180.41C327.93 157.69 319.29 124.36 275.77 83.55V83.54Z" fill="white"/>
    <path id="Vector_6" d="M320.021 340.02C316.671 338.42 285.441 322.94 283.821 295.61C283.001 281.72 289.731 263.17 298.971 262.65C308.051 262.14 315.641 279.28 316.371 280.96C330.101 262.39 349.871 256.61 360.321 263.11C371.521 270.08 370.281 289.8 367.351 300.35C359.111 330.04 323.051 339.29 320.031 340.02H320.021Z" fill="#180027"/>
    <g id="Vector_7">
    <path d="M330.22 415.27C339.86 426.03 363.09 448.37 413.12 460.31C483.65 477.13 569.16 454.58 573.69 428.42C581.29 384.57 367.27 297.01 287.15 346.6C270.38 356.98 255.96 375.55 253.28 395.62C249.29 425.49 269.86 461.92 299.12 465.77C313.82 467.71 328.25 461.1 331.64 459.55C347.52 452.28 354.44 441.33 356.63 437.42" fill="white"/>
    <path d="M330.22 415.27C339.86 426.03 363.09 448.37 413.12 460.31C483.65 477.13 569.16 454.58 573.69 428.42C581.29 384.57 367.27 297.01 287.15 346.6C270.38 356.98 255.96 375.55 253.28 395.62C249.29 425.49 269.86 461.92 299.12 465.77C313.82 467.71 328.25 461.1 331.64 459.55C347.52 452.28 354.44 441.33 356.63 437.42" stroke="#180027" stroke-width="19.48" stroke-linecap="round" stroke-linejoin="round"/>
    </g>
    <path id="Vector_8" d="M288.011 207.13C286.601 211.44 280.601 228.14 262.891 238.56C242.061 250.82 221.111 244.93 217.601 243.88" stroke="#180027" stroke-width="19.08" stroke-miterlimit="10" stroke-linecap="round"/>
    <path id="Vector_9" d="M448.77 201.27C449.52 205.07 454.61 228.63 476.43 240.89C497.09 252.49 524.33 249.21 544.33 232.31" stroke="#180027" stroke-width="19.08" stroke-miterlimit="10" stroke-linecap="round"/>
    </g>
    <g id="plate">
    <path id="Vector_10" d="M444.95 452.58C513.44 450.44 588.78 453.48 656.41 464.25C699.52 471.11 789.37 486.97 801.11 536.89C810.92 578.59 818.54 635.92 823.7 679C830.39 734.84 836.95 762.39 780.94 788.57C628.13 860.01 339.97 859.48 186.6 789.73C144.89 770.76 135.44 756.09 137.98 709.34C140.62 660.89 153.6 586.44 163.87 538.27C166.1 527.83 168.9 521.12 176.15 513.19C221.08 464.05 380.09 454.61 444.94 452.58H444.95Z" fill="#CBC5F2" stroke="#180027" stroke-width="12.61" stroke-linecap="round" stroke-linejoin="round"/>
    <path id="Vector_11" d="M575.68 724.13L391.8 723.74C380.48 733.66 377.51 746.82 361.56 752.93C339.85 761.25 305.53 765.6 293.89 740.18C281.6 713.34 322.02 703.61 320.96 690.93C319.95 678.91 288.84 669.64 291.09 650.34C294.69 619.53 331.87 621.61 353.95 627.47C377.34 633.68 376.68 646.05 393.55 659.19L570.18 659.31C579.53 658.08 588.02 637.05 599.79 631.19C614.08 624.07 646.09 619.84 659.8 628.94C673.26 637.87 678.51 652.28 668.42 665.87C660.93 675.95 637.82 684.01 647.35 697.42C658.38 712.93 686.74 719.35 668.45 745.71C655.52 764.35 628.05 760.09 608.88 754.56C591.8 749.63 584.96 738.1 575.66 724.12L575.68 724.13Z" fill="#180027"/>
    <path id="Vector_12" d="M745.83 542.09C736.9 550.47 722.99 554.25 711.48 557.8C598.34 592.75 381.53 591.76 267 561.6C263.64 560.72 216.08 546.54 219.47 542.08C246.24 529.49 275.23 522.7 304.32 517.4C390.52 501.69 487.79 500.27 575.16 506.42C632.13 510.43 693.22 519.77 745.82 542.08L745.83 542.09Z" fill="#504EAD" stroke="#180027" stroke-width="12.61" stroke-linecap="round" stroke-linejoin="round"/>
    </g>
    <g id="pat_right">
    <g id="Group">
    <path id="Vector_13" d="M807.46 559.64C803.62 562.72 808.87 570.82 812.17 596C815 617.54 814.28 635.49 813.23 647.3C796.65 651.56 780.08 655.82 763.5 660.08C762.3 660.08 760.95 660.29 759.61 660.49C714.72 667.2 683.83 708.94 690.53 753.83C697.21 798.55 738.95 829.45 783.85 822.74C844.85 813.63 894.04 812.64 910.26 803.85C919.76 792.78 952.6 751.95 943.43 704.51C943.33 703.97 943.19 703.32 943.02 702.54C936.93 676.12 921.14 659.02 913.22 650.78C865.04 600.67 817.68 551.42 807.46 559.63V559.64Z" fill="#CBC5F2"/>
    <path id="Vector_14" d="M807.46 559.64C803.62 562.72 808.87 570.82 812.17 596C815 617.54 814.28 635.49 813.23 647.3C796.65 651.56 780.08 655.82 763.5 660.08C762.3 660.08 760.95 660.29 759.61 660.49C714.72 667.2 683.83 708.94 690.53 753.83C697.21 798.55 738.95 829.45 783.85 822.74C844.85 813.63 894.04 812.64 910.26 803.85C919.76 792.78 952.6 751.95 943.43 704.51C943.33 703.97 943.19 703.32 943.02 702.54C936.93 676.12 921.14 659.02 913.22 650.78C865.04 600.67 817.68 551.42 807.46 559.63V559.64Z" stroke="#180027" stroke-width="19.79" stroke-linejoin="round"/>
    </g>
    <g id="Group_2">
    <path id="Vector_15" d="M798.7 722.97C795.01 722.8 764.7 721.89 743.89 746.29C728.28 764.6 723.86 790.3 732.18 813.48" fill="#CBC5F2"/>
    <path id="Vector_16" d="M798.7 722.97C795.01 722.8 764.7 721.89 743.89 746.29C728.28 764.6 723.86 790.3 732.18 813.48" stroke="#180027" stroke-width="19.79" stroke-miterlimit="10" stroke-linecap="round"/>
    </g>
    <g id="Group_3">
    <path id="Vector_17" d="M744.62 700.5C739.47 701.42 721.37 705.29 708.64 721.67C688.3 747.84 701.33 780.68 701.91 782.06" fill="#CBC5F2"/>
    <path id="Vector_18" d="M744.62 700.5C739.47 701.42 721.37 705.29 708.64 721.67C688.3 747.84 701.33 780.68 701.91 782.06" stroke="#180027" stroke-width="19.79" stroke-miterlimit="10" stroke-linecap="round"/>
    </g>
    </g>
    <g id="pat_left">
    <g id="Group_4">
    <path id="Vector_19" d="M147.47 559.64C151.31 562.72 146.06 570.82 142.76 596C139.93 617.54 140.65 635.49 141.7 647.3C158.28 651.56 174.85 655.82 191.43 660.08C192.63 660.08 193.98 660.29 195.32 660.49C240.21 667.2 271.1 708.94 264.4 753.83C257.72 798.55 215.98 829.45 171.08 822.74C110.08 813.63 60.8897 812.64 44.6697 803.85C35.1697 792.78 2.3297 751.95 11.4997 704.51C11.5997 703.97 11.7397 703.32 11.9097 702.54C17.9997 676.12 33.7897 659.02 41.7097 650.78C89.8897 600.67 137.25 551.42 147.47 559.63V559.64Z" fill="#CBC5F2"/>
    <path id="Vector_20" d="M147.47 559.64C151.31 562.72 146.06 570.82 142.76 596C139.93 617.54 140.65 635.49 141.7 647.3C158.28 651.56 174.85 655.82 191.43 660.08C192.63 660.08 193.98 660.29 195.32 660.49C240.21 667.2 271.1 708.94 264.4 753.83C257.72 798.55 215.98 829.45 171.08 822.74C110.08 813.63 60.8897 812.64 44.6697 803.85C35.1697 792.78 2.3297 751.95 11.4997 704.51C11.5997 703.97 11.7397 703.32 11.9097 702.54C17.9997 676.12 33.7897 659.02 41.7097 650.78C89.8897 600.67 137.25 551.42 147.47 559.63V559.64Z" stroke="#180027" stroke-width="19.79" stroke-linejoin="round"/>
    </g>
    <g id="Group_5">
    <path id="Vector_21" d="M156.229 722.97C159.919 722.8 190.229 721.89 211.039 746.29C226.649 764.6 231.069 790.3 222.749 813.48" fill="#CBC5F2"/>
    <path id="Vector_22" d="M156.229 722.97C159.919 722.8 190.229 721.89 211.039 746.29C226.649 764.6 231.069 790.3 222.749 813.48" stroke="#180027" stroke-width="19.79" stroke-miterlimit="10" stroke-linecap="round"/>
    </g>
    <g id="Group_6">
    <path id="Vector_23" d="M210.319 700.5C215.469 701.42 233.569 705.29 246.299 721.67C266.639 747.84 253.609 780.68 253.029 782.06" fill="#CBC5F2"/>
    <path id="Vector_24" d="M210.319 700.5C215.469 701.42 233.569 705.29 246.299 721.67C266.639 747.84 253.609 780.68 253.029 782.06" stroke="#180027" stroke-width="19.79" stroke-miterlimit="10" stroke-linecap="round"/>
    </g>
    </g>
    </g>
    <defs>
    <clipPath id="clip0_366_5">
    <rect width="954.93" height="848.41" fill="white"/>
    </clipPath>
    </defs>
</svg>
