<svg width="964" height="847" viewBox="0 0 964 847" fill="none" xmlns="http://www.w3.org/2000/svg">
    <g id="perro">
    <g id="head">
    <path id="Vector" d="M374.56 414.78C387.75 392.2 376.83 355.71 345.09 343.12C353.94 336.31 366.631 325.49 379.451 310.15C389.971 297.56 464.86 207.92 425.94 128.96C401.47 79.32 340.68 51.5 288.3 56.83C196.84 66.13 156.93 173.84 148.35 197.01C135.1 232.78 132.76 264.91 132.88 286.24C106.61 283.76 84.7905 300.13 81.3705 318.47C77.3205 340.2 98.4705 368.15 131.19 368.29C109.91 390.54 106.75 422.65 120.63 443.04C138.25 468.91 182.99 475.44 213.32 447.55C218.61 472.52 242.82 488.08 265.45 483.59C289.96 478.72 306.74 451.48 298.44 425C325.06 445.67 361.52 437.1 374.55 414.79L374.56 414.78Z" fill="#CBC5F2" stroke="#180027" stroke-width="21.81" stroke-linejoin="round"/>
    <path id="Vector_2" d="M680.59 401.47C667.4 434.99 654.21 468.52 641.02 502.04C613.15 518.67 558.13 546.37 482.79 552.02C443.95 554.93 410.68 551.16 385.93 546.43C361.24 523.22 336.54 500.01 311.85 476.8C434.76 451.69 557.67 426.58 680.59 401.48V401.47Z" fill="#3CE8A5" stroke="#180027" stroke-width="17.59" stroke-miterlimit="10"/>
    <path id="Vector_3" d="M718.62 281.23C718.62 153.72 599.43 48.79 454.579 48.79C369.359 48.79 289.12 87.65 242.83 143.06C191.86 204.06 190.57 273.44 190.55 281.22C160.75 307.45 140.89 324.94 136.94 341.94C135.64 347.55 133.19 365.55 160.17 391.99C229.93 478.43 342.93 525.46 454.59 513.66C576.48 500.78 718.63 415.51 718.63 281.22L718.62 281.23Z" fill="#FFFEFB" stroke="#180027" stroke-width="17.59" stroke-miterlimit="10"/>
    <path id="Vector_4" d="M284.95 439.34C284.95 439.34 305.11 461.38 359.67 440.71C414.22 420.04 330.61 403.25 330.61 403.25C330.61 403.25 281.1 408.26 284.95 439.34Z" fill="#CBC5F2" stroke="#180027" stroke-width="15.88" stroke-miterlimit="10"/>
    <path id="Vector_5" d="M371.31 311.52C378.48 313.35 400.72 319.42 440.71 343.13C473.07 362.31 489.25 371.9 491.52 382.79C496.11 404.83 469.58 428.4 446.85 438.58C415.12 452.79 382.54 444.58 362.45 439.61C335.98 433.05 315.8 421.5 301.75 411.16C300.6 414.29 296.5 424.06 285.56 428.83C268.65 436.22 250.54 425.05 247.58 423.23C247.58 423.23 236.76 416.45 230.95 404.98C224.56 392.36 240.99 365.71 260.1 346.18C275.02 330.92 297.14 308.31 331.43 305.76C344.81 304.77 354.48 307.23 371.3 311.52H371.31Z" fill="#CBC5F2" stroke="#180027" stroke-width="15.88" stroke-linejoin="round"/>
    <path id="Vector_6" d="M286.73 376.9C258.44 371.29 239.24 356.01 238.48 340.04C238.07 331.44 242.75 317.03 255.03 314.77C263.93 313.13 274.45 318.3 280.56 327.79C292.72 311.75 311.19 306.13 321.38 311.13C332.31 316.49 332.04 332.99 329.75 341.91C323.3 367.01 289.56 376.17 286.73 376.9Z" fill="#180027"/>
    <path id="Vector_7" d="M941.071 252.08C927.191 229.91 889.801 222.65 863.921 244.92C861.991 233.92 858.301 217.66 850.661 199.18C844.391 184.02 799.751 76.08 711.761 73.9C656.431 72.53 603.581 113.46 583.981 162.33C549.771 247.66 626.641 333 643.181 351.36C668.711 379.7 696.081 396.69 715.031 406.48C700.641 428.6 705.011 455.52 719.671 467.06C737.041 480.74 771.611 474.97 786.931 446.05C796.761 475.22 823.731 492.93 848.241 490.1C879.331 486.5 905.881 449.91 895.261 410.1C919.831 417.01 944.861 402.78 951.381 380.65C958.441 356.68 942.111 329.17 914.801 324.23C945.461 310.25 954.801 273.98 941.081 252.08H941.071Z" fill="#CBC5F2" stroke="#180027" stroke-width="21.81" stroke-linejoin="round"/>
    <path id="Vector_8" d="M290.651 236.59C289.121 241.27 282.601 259.41 263.381 270.72C240.771 284.03 218.021 277.63 214.201 276.49" stroke="#180027" stroke-width="20.72" stroke-miterlimit="10" stroke-linecap="round"/>
    <path id="Vector_9" d="M444.201 232.58C445.021 236.7 450.541 262.29 474.241 275.6C496.681 288.19 526.261 284.64 547.971 266.28" stroke="#180027" stroke-width="20.72" stroke-miterlimit="10" stroke-linecap="round"/>
    </g>
    <g id="plate">
    <path id="Vector_10" d="M439.85 451.09C508.34 448.95 583.68 451.99 651.31 462.76C694.42 469.62 784.27 485.48 796.01 535.4C805.82 577.1 813.44 634.43 818.6 677.51C825.29 733.35 831.85 760.9 775.84 787.08C623.03 858.52 334.87 857.99 181.5 788.24C139.79 769.27 130.34 754.6 132.88 707.85C135.42 661.1 148.5 584.95 158.77 536.78C161 526.34 163.8 519.63 171.05 511.7C215.98 462.56 374.99 453.12 439.84 451.09H439.85Z" fill="#CBC5F2" stroke="#180027" stroke-width="12.61" stroke-linecap="round" stroke-linejoin="round"/>
    <path id="Vector_11" d="M570.579 722.64L386.699 722.25C375.379 732.17 372.409 745.33 356.459 751.44C334.749 759.76 300.429 764.11 288.789 738.69C276.499 711.85 316.919 702.12 315.859 689.44C314.849 677.42 283.739 668.15 285.989 648.85C289.589 618.04 326.769 620.12 348.849 625.98C372.239 632.19 371.579 644.56 388.449 657.7L565.079 657.82C574.429 656.59 582.919 635.56 594.689 629.7C608.979 622.58 640.989 618.35 654.699 627.45C668.159 636.38 673.409 650.79 663.319 664.38C655.829 674.46 632.719 682.52 642.249 695.93C653.279 711.44 681.639 717.86 663.349 744.22C650.419 762.86 622.949 758.6 603.779 753.07C586.699 748.14 579.859 736.61 570.559 722.63L570.579 722.64Z" fill="#180027"/>
    <path id="Vector_12" d="M740.73 540.6C731.8 548.98 717.89 552.76 706.38 556.31C593.24 591.26 376.43 590.27 261.9 560.11C258.54 559.23 210.98 545.05 214.37 540.59C241.14 528 270.13 521.21 299.22 515.91C385.42 500.2 482.69 498.78 570.06 504.93C627.03 508.94 688.12 518.28 740.72 540.59L740.73 540.6Z" fill="#504EAD" stroke="#180027" stroke-width="12.61" stroke-linecap="round" stroke-linejoin="round"/>
    </g>
    <g id="pat_left">
    <g id="Group">
    <path id="Vector_13" d="M807.46 558.15C803.62 561.23 808.87 569.33 812.17 594.51C815 616.05 814.28 634 813.23 645.81C796.65 650.07 780.08 654.33 763.5 658.59C762.3 658.59 760.95 658.8 759.61 659C714.72 665.71 683.83 707.45 690.53 752.34C697.21 797.06 738.95 827.96 783.85 821.25C844.85 812.14 894.04 811.15 910.26 802.36C919.76 791.29 952.6 750.46 943.43 703.02C943.33 702.48 943.19 701.83 943.02 701.05C936.93 674.63 921.14 657.53 913.22 649.29C865.04 599.18 817.68 549.93 807.46 558.14V558.15Z" fill="#FFFEFB"/>
    <path id="Vector_14" d="M807.46 558.15C803.62 561.23 808.87 569.33 812.17 594.51C815 616.05 814.28 634 813.23 645.81C796.65 650.07 780.08 654.33 763.5 658.59C762.3 658.59 760.95 658.8 759.61 659C714.72 665.71 683.83 707.45 690.53 752.34C697.21 797.06 738.95 827.96 783.85 821.25C844.85 812.14 894.04 811.15 910.26 802.36C919.76 791.29 952.6 750.46 943.43 703.02C943.33 702.48 943.19 701.83 943.02 701.05C936.93 674.63 921.14 657.53 913.22 649.29C865.04 599.18 817.68 549.93 807.46 558.14V558.15Z" stroke="#180027" stroke-width="19.79" stroke-linejoin="round"/>
    </g>
    <g id="Vector_15">
    <path d="M798.7 721.48C795.01 721.31 764.7 720.4 743.89 744.8C728.28 763.11 723.86 788.81 732.18 811.99" fill="#FFFEFB"/>
    <path d="M798.7 721.48C795.01 721.31 764.7 720.4 743.89 744.8C728.28 763.11 723.86 788.81 732.18 811.99" stroke="#180027" stroke-width="19.79" stroke-miterlimit="10" stroke-linecap="round"/>
    </g>
    <g id="Vector_16">
    <path d="M744.62 699.01C739.47 699.93 721.37 703.8 708.64 720.18C688.3 746.35 701.33 779.19 701.91 780.57" fill="#FFFEFB"/>
    <path d="M744.62 699.01C739.47 699.93 721.37 703.8 708.64 720.18C688.3 746.35 701.33 779.19 701.91 780.57" stroke="#180027" stroke-width="19.79" stroke-miterlimit="10" stroke-linecap="round"/>
    </g>
    </g>
    <g id="pat_right">
    <g id="Group_2">
    <path id="Vector_17" d="M147.47 558.15C151.31 561.23 146.06 569.33 142.76 594.51C139.93 616.05 140.65 634 141.7 645.81C158.28 650.07 174.85 654.33 191.43 658.59C192.63 658.59 193.98 658.8 195.32 659C240.21 665.71 271.1 707.45 264.4 752.34C257.72 797.06 215.98 827.96 171.08 821.25C110.08 812.14 60.8897 811.15 44.6697 802.36C35.1697 791.29 2.3297 750.46 11.4997 703.02C11.5997 702.48 11.7397 701.83 11.9097 701.05C17.9997 674.63 33.7897 657.53 41.7097 649.29C89.8897 599.18 137.25 549.93 147.47 558.14V558.15Z" fill="#FFFEFB"/>
    <path id="Vector_18" d="M147.47 558.15C151.31 561.23 146.06 569.33 142.76 594.51C139.93 616.05 140.65 634 141.7 645.81C158.28 650.07 174.85 654.33 191.43 658.59C192.63 658.59 193.98 658.8 195.32 659C240.21 665.71 271.1 707.45 264.4 752.34C257.72 797.06 215.98 827.96 171.08 821.25C110.08 812.14 60.8897 811.15 44.6697 802.36C35.1697 791.29 2.3297 750.46 11.4997 703.02C11.5997 702.48 11.7397 701.83 11.9097 701.05C17.9997 674.63 33.7897 657.53 41.7097 649.29C89.8897 599.18 137.25 549.93 147.47 558.14V558.15Z" stroke="#180027" stroke-width="19.79" stroke-linejoin="round"/>
    </g>
    <g id="Vector_19">
    <path d="M156.23 721.48C159.92 721.31 190.23 720.4 211.04 744.8C226.65 763.11 231.07 788.81 222.75 811.99" fill="#FFFEFB"/>
    <path d="M156.23 721.48C159.92 721.31 190.23 720.4 211.04 744.8C226.65 763.11 231.07 788.81 222.75 811.99" stroke="#180027" stroke-width="19.79" stroke-miterlimit="10" stroke-linecap="round"/>
    </g>
    <g id="Vector_20">
    <path d="M210.32 699.01C215.47 699.93 233.57 703.8 246.3 720.18C266.64 746.35 253.61 779.19 253.03 780.57" fill="#FFFEFB"/>
    <path d="M210.32 699.01C215.47 699.93 233.57 703.8 246.3 720.18C266.64 746.35 253.61 779.19 253.03 780.57" stroke="#180027" stroke-width="19.79" stroke-miterlimit="10" stroke-linecap="round"/>
    </g>
    </g>
    </g>
</svg>
