<svg width="418" height="837" viewBox="0 0 418 837" fill="none" xmlns="http://www.w3.org/2000/svg">
    <g clip-path="url(#clip0_308_219)">
    <path d="M411.73 822.68L111.36 830.9L147.54 389.84C199.33 378.46 251.11 367.08 302.9 355.71C321.04 433.54 339.18 511.37 357.32 589.2C375.46 667.03 393.6 744.86 411.74 822.69L411.73 822.68Z" fill="#FFFEFB" stroke="#180027" stroke-width="11.04" stroke-linecap="round" stroke-linejoin="round"/>
    <path d="M333.77 824.51L194.97 828.61C191.47 696.67 187.96 564.73 184.46 432.79C191.57 435.42 207.35 440.17 227.24 436.96C247.44 433.71 261.08 423.99 266.98 419.22C295.02 554.31 305.74 689.41 333.78 824.5L333.77 824.51Z" fill="white" stroke="#180027" stroke-width="11" stroke-linecap="round" stroke-linejoin="round"/>
    <path d="M136.53 78.5203C93.53 16.9503 92.98 6.74031 85 6.88031C55.71 7.37031 3.51001 145.89 55.95 190.21C76.83 207.86 116.49 212.41 140.81 192.66C164.56 173.37 165.04 137.94 159.21 116.69C156.1 105.33 151.85 100.45 136.54 78.5203H136.53Z" fill="#CE9463" stroke="#180027" stroke-width="13.75" stroke-miterlimit="10"/>
    <path d="M326.21 296.21C318.44 318.64 310.67 341.08 302.9 363.51C286.48 374.64 254.07 393.18 209.69 396.96C186.81 398.91 167.21 396.39 152.63 393.22C138.08 377.69 123.54 362.15 108.99 346.62C181.4 329.82 253.81 313.01 326.21 296.21Z" fill="#CBC5F2" stroke="#180027" stroke-width="11.04" stroke-miterlimit="10"/>
    <path d="M348.62 215.74C348.62 130.41 278.4 60.1904 193.07 60.1904C142.86 60.1904 95.6 86.2004 68.32 123.28C38.29 164.1 37.54 210.53 37.52 215.74C19.97 233.29 8.25999 245 5.93999 256.37C5.16999 260.13 3.72999 272.17 19.62 289.86C60.72 347.71 127.28 379.18 193.06 371.28C264.86 362.66 348.61 305.6 348.61 215.73L348.62 215.74Z" fill="#CE9463" stroke="#180027" stroke-width="11.04" stroke-miterlimit="10"/>
    <path d="M364.82 93.6297C321.82 32.0597 321.27 21.8497 313.29 21.9897C284 22.4797 231.8 161 284.24 205.32C305.12 222.97 344.78 227.52 369.1 207.77C392.85 188.48 393.33 153.05 387.5 131.8C384.39 120.44 380.14 115.56 364.83 93.6297H364.82Z" fill="#CE9463" stroke="#180027" stroke-width="13.75" stroke-miterlimit="10"/>
    <path d="M90.92 107.69C102.95 96.66 124.26 80.32 154.6 71.69C165.24 68.66 184.34 64.49 207.85 66.67C222.31 68.01 235.08 68.2 237.07 74.13C239.83 82.36 218.39 90.08 198.92 114.94C192.3 123.4 169.55 152.44 175.55 181.85C179.31 200.29 195.18 201.15 198.73 221.9C199.43 225.98 203.29 244.16 193.04 257.05C182.41 270.4 159.93 274.05 137.87 265.27L66.2 272.12C64.07 259.96 63.24 242.89 72.26 228.1C80.75 214.18 92 212.03 99.76 203.45C110.42 191.66 115.59 166.5 90.93 107.7L90.92 107.69Z" fill="white"/>
    <path d="M216.88 183.34C228.981 183.34 238.79 179.709 238.79 175.23C238.79 170.751 228.981 167.12 216.88 167.12C204.779 167.12 194.97 170.751 194.97 175.23C194.97 179.709 204.779 183.34 216.88 183.34Z" fill="#180027"/>
    <path d="M99.75 183.34C111.851 183.34 121.66 179.709 121.66 175.23C121.66 170.751 111.851 167.12 99.75 167.12C87.6494 167.12 77.84 170.751 77.84 175.23C77.84 179.709 87.6494 183.34 99.75 183.34Z" fill="#180027"/>
    <path d="M76.98 295.39C76.98 295.39 88.86 310.14 121 296.31C153.14 282.48 103.88 271.24 103.88 271.24C103.88 271.24 74.71 274.59 76.98 295.39Z" fill="#FFFEFB" stroke="#180027" stroke-width="9.97" stroke-miterlimit="10"/>
    <path d="M127.86 209.85C132.09 211.07 145.19 215.14 168.75 231.01C187.81 243.85 197.35 250.27 198.68 257.55C201.39 272.3 185.75 288.07 172.36 294.88C153.67 304.39 134.47 298.9 122.64 295.57C107.05 291.18 95.16 283.45 86.88 276.53C86.2 278.62 83.79 285.16 77.35 288.36C67.39 293.3 56.72 285.83 54.98 284.61C54.98 284.61 48.61 280.07 45.18 272.4C41.41 263.95 51.1 246.12 62.35 233.05C71.14 222.84 84.17 207.71 104.37 206C112.25 205.33 117.95 206.99 127.85 209.86L127.86 209.85Z" fill="#FFFEFB" stroke="#180027" stroke-width="9.97" stroke-linejoin="round"/>
    <path d="M78.03 253.6C61.36 249.84 50.05 239.62 49.6 228.94C49.36 223.18 52.12 213.54 59.35 212.03C64.59 210.93 70.79 214.39 74.39 220.74C81.55 210 92.43 206.24 98.44 209.59C104.88 213.18 104.72 224.22 103.37 230.19C99.57 246.98 79.69 253.12 78.03 253.61V253.6Z" fill="#180027"/>
    </g>
    <defs>
    <clipPath id="clip0_308_219">
    <rect width="417.25" height="836.42" fill="white"/>
    </clipPath>
    </defs>
</svg>
