<svg width="418" height="837" viewBox="0 0 418 837" fill="none" xmlns="http://www.w3.org/2000/svg">
    <g clip-path="url(#clip0_319_584)">
    <path d="M412.02 822.68L111.65 830.9L147.83 389.84C199.62 378.46 251.4 367.08 303.19 355.71C321.33 433.54 339.47 511.37 357.61 589.2C375.75 667.03 393.89 744.86 412.03 822.69L412.02 822.68Z" fill="#FFFEFB" stroke="#180027" stroke-width="11.04" stroke-linecap="round" stroke-linejoin="round"/>
    <path d="M334.06 824.51L195.26 828.61C191.76 696.67 188.25 564.73 184.75 432.79C191.86 435.42 207.64 440.17 227.53 436.96C247.73 433.71 261.37 423.99 267.27 419.22C295.31 554.31 306.03 689.41 334.07 824.5L334.06 824.51Z" fill="white" stroke="#180027" stroke-width="11" stroke-linecap="round" stroke-linejoin="round"/>
    <path d="M136.53 78.5203C93.5295 16.9503 92.9795 6.74031 84.9995 6.88031C55.7095 7.37031 3.50955 145.89 55.9496 190.21C76.8295 207.86 116.49 212.41 140.81 192.66C164.56 173.37 165.04 137.94 159.21 116.69C156.1 105.33 151.85 100.45 136.54 78.5203H136.53Z" fill="#CE9463" stroke="#180027" stroke-width="13.75" stroke-miterlimit="10"/>
    <path d="M326.209 296.21C318.439 318.64 310.669 341.08 302.899 363.51C286.479 374.64 254.069 393.18 209.689 396.96C186.809 398.91 167.209 396.39 152.629 393.22C138.079 377.69 123.539 362.15 108.989 346.62C181.399 329.82 253.809 313.01 326.209 296.21Z" fill="#CBC5F2" stroke="#180027" stroke-width="11.04" stroke-miterlimit="10"/>
    <path d="M348.62 215.74C348.62 130.41 278.4 60.1904 193.07 60.1904C142.86 60.1904 95.5995 86.2004 68.3195 123.28C38.2895 164.1 37.5395 210.53 37.5195 215.74C19.9695 233.29 8.25953 245 5.93953 256.37C5.16953 260.13 3.72953 272.17 19.6195 289.86C60.7195 347.71 127.28 379.18 193.06 371.28C264.86 362.66 348.61 305.6 348.61 215.73L348.62 215.74Z" fill="#CE9463" stroke="#180027" stroke-width="11.04" stroke-miterlimit="10"/>
    <path d="M364.82 93.6307C321.82 32.0607 321.27 21.8507 313.29 21.9907C284 22.4807 231.8 161.001 284.24 205.321C305.12 222.971 344.78 227.521 369.1 207.771C392.85 188.481 393.33 153.051 387.5 131.801C384.39 120.441 380.14 115.561 364.83 93.6307H364.82Z" fill="#CE9463" stroke="#180027" stroke-width="13.75" stroke-miterlimit="10"/>
    <path d="M90.9191 107.69C102.949 96.66 124.259 80.32 154.599 71.69C165.239 68.66 184.339 64.49 207.849 66.67C222.309 68.01 235.079 68.2 237.069 74.13C239.829 82.36 218.389 90.08 198.919 114.94C192.299 123.4 169.549 152.44 175.549 181.85C179.309 200.29 195.179 201.15 198.729 221.9C199.429 225.98 203.289 244.16 193.039 257.05C182.409 270.4 159.929 274.05 137.869 265.27L66.1991 272.12C64.0691 259.96 63.2391 242.89 72.2591 228.1C80.7491 214.18 91.9991 212.03 99.7591 203.45C110.419 191.66 115.589 166.5 90.9291 107.7L90.9191 107.69Z" fill="white"/>
    <path d="M201.519 189.45C212.029 189.45 220.549 180.335 220.549 169.09C220.549 157.846 212.029 148.73 201.519 148.73C191.009 148.73 182.489 157.846 182.489 169.09C182.489 180.335 191.009 189.45 201.519 189.45Z" fill="#180027"/>
    <path d="M81.2791 190.771C90.3862 190.771 97.7691 181.655 97.7691 170.411C97.7691 159.166 90.3862 150.051 81.2791 150.051C72.1719 150.051 64.7891 159.166 64.7891 170.411C64.7891 181.655 72.1719 190.771 81.2791 190.771Z" fill="#180027"/>
    <path d="M76.9794 295.39C76.9794 295.39 88.8594 310.14 120.999 296.31C153.139 282.48 103.879 271.24 103.879 271.24C103.879 271.24 74.7094 274.59 76.9794 295.39Z" fill="#FFFEFB" stroke="#180027" stroke-width="9.97" stroke-miterlimit="10"/>
    <path d="M127.86 209.851C132.09 211.071 145.19 215.141 168.75 231.011C187.81 243.851 197.35 250.271 198.68 257.551C201.39 272.301 185.75 288.071 172.36 294.881C153.67 304.391 134.47 298.901 122.64 295.571C107.05 291.181 95.1597 283.451 86.8797 276.531C86.1997 278.621 83.7897 285.161 77.3497 288.361C67.3897 293.301 56.7197 285.831 54.9797 284.611C54.9797 284.611 48.6097 280.071 45.1797 272.401C41.4097 263.951 51.0997 246.121 62.3497 233.051C71.1397 222.841 84.1697 207.711 104.37 206.001C112.25 205.331 117.95 206.991 127.85 209.861L127.86 209.851Z" fill="#FFFEFB" stroke="#180027" stroke-width="9.97" stroke-linejoin="round"/>
    <path d="M78.0293 253.601C61.3593 249.841 50.0493 239.621 49.5993 228.941C49.3593 223.181 52.1193 213.541 59.3493 212.031C64.5893 210.931 70.7893 214.391 74.3893 220.741C81.5493 210.001 92.4293 206.241 98.4393 209.591C104.879 213.181 104.719 224.221 103.369 230.191C99.5693 246.981 79.6893 253.121 78.0293 253.611V253.601Z" fill="#180027"/>
    </g>
    <defs>
    <clipPath id="clip0_319_584">
    <rect width="417.54" height="836.42" fill="white"/>
    </clipPath>
    </defs>
</svg>
