<svg width="422" height="949" viewBox="0 0 422 949" fill="none" xmlns="http://www.w3.org/2000/svg">
    <g clip-path="url(#clip0_319_600)">
    <path d="M415.95 935.27L115.58 943.49L151.76 502.43C203.55 491.05 255.33 479.67 307.12 468.3C325.26 546.13 343.4 623.96 361.54 701.79C379.68 779.62 397.82 857.45 415.96 935.28L415.95 935.27Z" fill="#FFFEFB" stroke="#180027" stroke-width="11.04" stroke-linecap="round" stroke-linejoin="round"/>
    <path d="M337.99 937.09L199.19 941.19C195.69 809.25 192.18 677.31 188.68 545.37C195.79 548 211.57 552.75 231.46 549.54C251.66 546.29 265.3 536.57 271.2 531.8C299.24 666.89 309.96 801.99 338 937.08L337.99 937.09Z" fill="white" stroke="#180027" stroke-width="11" stroke-linecap="round" stroke-linejoin="round"/>
    <path d="M390.94 138.51C389.24 137.7 373.41 129.85 372.59 116C372.17 108.96 375.58 99.5495 380.27 99.2895C384.87 99.0295 388.72 107.72 389.09 108.57C396.05 99.1595 406.07 96.2195 411.37 99.5195C417.05 103.05 416.42 113.05 414.94 118.4C410.76 133.45 392.48 138.14 390.95 138.51H390.94Z" fill="#F93267" stroke="#180027" stroke-width="8" stroke-linecap="round" stroke-linejoin="round"/>
    <path d="M278.21 88.9098C274.8 87.2798 243 71.5198 241.35 43.6998C240.51 29.5598 247.36 10.6698 256.77 10.1498C266.01 9.6298 273.74 27.0798 274.48 28.7898C288.45 9.8798 308.59 3.9998 319.22 10.6098C330.62 17.6998 329.36 37.7798 326.38 48.5198C317.99 78.7398 281.28 88.1598 278.21 88.8998V88.9098Z" fill="#F93267" stroke="#180027" stroke-width="16" stroke-linecap="round" stroke-linejoin="round"/>
    <path d="M159.14 98.2195C157.44 97.4095 141.61 89.5595 140.79 75.7095C140.37 68.6695 143.78 59.2595 148.47 58.9995C153.07 58.7395 156.92 67.4295 157.29 68.2795C164.25 58.8695 174.27 55.9295 179.57 59.2295C185.25 62.7595 184.62 72.7595 183.14 78.1095C178.96 93.1595 160.68 97.8495 159.15 98.2195H159.14Z" fill="#F93267" stroke="#180027" stroke-width="8" stroke-linecap="round" stroke-linejoin="round"/>
    <path d="M136.53 191.099C93.5295 129.529 92.9795 119.319 84.9995 119.459C55.7095 119.949 3.50955 258.469 55.9496 302.789C76.8295 320.439 116.49 324.989 140.81 305.239C164.56 285.949 165.04 250.519 159.21 229.269C156.1 217.909 151.85 213.029 136.54 191.099H136.53Z" fill="#CE9463" stroke="#180027" stroke-width="13.75" stroke-miterlimit="10"/>
    <path d="M326.209 408.79C318.439 431.22 310.669 453.66 302.899 476.09C286.479 487.22 254.069 505.76 209.689 509.54C186.809 511.49 167.209 508.97 152.629 505.8C138.079 490.27 123.539 474.73 108.989 459.2C181.399 442.4 253.809 425.59 326.209 408.79Z" fill="#CBC5F2" stroke="#180027" stroke-width="11.04" stroke-miterlimit="10"/>
    <path d="M348.62 328.32C348.62 242.99 278.4 172.77 193.07 172.77C142.86 172.77 95.5995 198.78 68.3195 235.86C38.2895 276.68 37.5395 323.11 37.5195 328.32C19.9695 345.87 8.25953 357.58 5.93953 368.95C5.16953 372.71 3.72953 384.75 19.6195 402.44C60.7195 460.29 127.28 491.759 193.06 483.859C264.86 475.239 348.61 418.18 348.61 328.31L348.62 328.32Z" fill="#CE9463" stroke="#180027" stroke-width="11.04" stroke-miterlimit="10"/>
    <path d="M364.82 206.21C321.82 144.64 321.27 134.43 313.29 134.57C284 135.06 231.8 273.58 284.24 317.9C305.12 335.55 344.78 340.1 369.1 320.35C392.85 301.06 393.33 265.63 387.5 244.38C384.39 233.02 380.14 228.14 364.83 206.21H364.82Z" fill="#CE9463" stroke="#180027" stroke-width="13.75" stroke-miterlimit="10"/>
    <path d="M90.9191 220.27C102.949 209.24 124.259 192.9 154.599 184.27C165.239 181.24 184.339 177.07 207.849 179.25C222.309 180.59 235.079 180.78 237.069 186.71C239.829 194.94 218.389 202.66 198.919 227.52C192.299 235.98 169.549 265.02 175.549 294.43C179.309 312.87 195.179 313.73 198.729 334.48C199.429 338.56 203.289 356.74 193.039 369.63C182.409 382.98 159.929 386.63 137.869 377.85L66.1991 384.7C64.0691 372.54 63.2391 355.47 72.2591 340.68C80.7491 326.76 91.9991 324.61 99.7591 316.03C110.419 304.24 115.589 279.08 90.9291 220.28L90.9191 220.27Z" fill="white"/>
    <path d="M76.9794 407.969C76.9794 407.969 88.8594 422.719 120.999 408.889C153.139 395.059 103.879 383.819 103.879 383.819C103.879 383.819 74.7094 387.169 76.9794 407.969Z" fill="#FFFEFB" stroke="#180027" stroke-width="9.97" stroke-miterlimit="10"/>
    <path d="M127.86 322.43C132.09 323.65 145.19 327.72 168.75 343.59C187.81 356.43 197.35 362.85 198.68 370.13C201.39 384.88 185.75 400.65 172.36 407.46C153.67 416.97 134.47 411.48 122.64 408.15C107.05 403.76 95.1597 396.03 86.8797 389.11C86.1997 391.2 83.7897 397.74 77.3497 400.94C67.3897 405.88 56.7197 398.41 54.9797 397.19C54.9797 397.19 48.6097 392.65 45.1797 384.98C41.4097 376.53 51.0997 358.7 62.3497 345.63C71.1397 335.42 84.1697 320.29 104.37 318.58C112.25 317.91 117.95 319.57 127.85 322.44L127.86 322.43Z" fill="#FFFEFB" stroke="#180027" stroke-width="9.97" stroke-linejoin="round"/>
    <path d="M78.0293 366.19C61.3593 362.43 50.0493 352.21 49.5993 341.53C49.3593 335.77 52.1193 326.13 59.3493 324.62C64.5893 323.52 70.7893 326.98 74.3893 333.33C81.5493 322.59 92.4293 318.83 98.4393 322.18C104.879 325.77 104.719 336.81 103.369 342.78C99.5693 359.57 79.6893 365.71 78.0293 366.2V366.19Z" fill="#180027"/>
    <path d="M79.0197 303.36C77.3197 302.55 61.4897 294.7 60.6697 280.85C60.2497 273.81 63.6597 264.4 68.3497 264.14C72.9497 263.88 76.7997 272.57 77.1697 273.42C84.1297 264.01 94.1497 261.07 99.4497 264.37C105.13 267.9 104.5 277.9 103.02 283.25C98.8397 298.3 80.5597 302.99 79.0297 303.36H79.0197Z" fill="#F93267" stroke="#180027" stroke-width="8" stroke-linecap="round" stroke-linejoin="round"/>
    <path d="M204.239 303.36C202.539 302.55 186.709 294.7 185.889 280.85C185.469 273.81 188.879 264.4 193.569 264.14C198.169 263.88 202.019 272.57 202.389 273.42C209.349 264.01 219.369 261.07 224.669 264.37C230.349 267.9 229.719 277.9 228.239 283.25C224.059 298.3 205.779 302.99 204.249 303.36H204.239Z" fill="#F93267" stroke="#180027" stroke-width="8" stroke-linecap="round" stroke-linejoin="round"/>
    </g>
    <defs>
    <clipPath id="clip0_319_600">
    <rect width="421.47" height="949.01" fill="white"/>
    </clipPath>
    </defs>
</svg>
