<svg width="455" height="904" viewBox="0 0 455 904" fill="none" xmlns="http://www.w3.org/2000/svg">
    <g clip-path="url(#clip0_319_497)">
    <path d="M425.38 889.72L125.01 897.94L161.19 456.88C212.98 445.5 264.76 434.12 316.55 422.75C334.69 500.58 352.83 578.41 370.97 656.24C389.11 734.07 407.25 811.9 425.39 889.73L425.38 889.72Z" fill="#F96D5F" stroke="#180027" stroke-width="11.04" stroke-linecap="round" stroke-linejoin="round"/>
    <path d="M347.42 891.55L208.62 895.65C205.12 763.71 201.61 631.77 198.11 499.83C205.22 502.46 221 507.21 240.89 504C261.09 500.75 274.73 491.03 280.63 486.26C308.67 621.35 319.39 756.45 347.43 891.54L347.42 891.55Z" fill="white" stroke="#180027" stroke-width="11" stroke-linecap="round" stroke-linejoin="round"/>
    <path d="M56.8001 163.78C76.6001 154.25 104.52 157.87 120.93 172.39C150.22 198.3 134.89 251.86 110.27 338.04C104.34 358.81 97.4601 378.15 80.3401 385.41C66.0901 391.46 47.1901 388.11 34.3301 378.75C-9.99991 346.48 4.58009 252.77 26.5901 201.27C34.4701 182.84 42.9701 170.43 56.7901 163.78H56.8001Z" fill="#6D1B34" stroke="#180027" stroke-width="11.04" stroke-miterlimit="10"/>
    <path d="M335.12 378.59C327.35 401.02 319.58 423.46 311.81 445.89C295.39 457.02 262.98 475.56 218.6 479.34C195.72 481.29 176.12 478.77 161.54 475.6C146.99 460.07 132.45 444.53 117.9 429C190.31 412.2 262.72 395.39 335.12 378.59Z" fill="#CBC5F2" stroke="#180027" stroke-width="11.04" stroke-miterlimit="10"/>
    <path d="M357.52 298.13C357.52 212.8 287.3 142.58 201.97 142.58C151.76 142.58 104.5 168.59 77.2202 205.67C47.1902 246.49 46.4402 292.92 46.4202 298.13C28.8702 315.68 17.1602 327.39 14.8402 338.76C14.0702 342.52 12.6302 354.56 28.5202 372.25C69.6202 430.1 136.18 461.57 201.96 453.67C273.76 445.05 357.51 387.99 357.51 298.12L357.52 298.13Z" fill="#F96D5F" stroke="#180027" stroke-width="11.04" stroke-miterlimit="10"/>
    <path d="M109.12 269.6C107.42 268.79 91.5901 260.94 90.7701 247.09C90.3501 240.05 93.7601 230.64 98.4501 230.38C103.05 230.12 106.9 238.81 107.27 239.66C114.23 230.25 124.25 227.31 129.55 230.61C135.23 234.14 134.6 244.14 133.12 249.49C128.94 264.54 110.66 269.23 109.13 269.6H109.12Z" fill="#F93267" stroke="#180027" stroke-width="8" stroke-linecap="round" stroke-linejoin="round"/>
    <path d="M234.34 269.6C232.64 268.79 216.81 260.94 215.99 247.09C215.57 240.05 218.98 230.64 223.67 230.38C228.27 230.12 232.12 238.81 232.49 239.66C239.45 230.25 249.47 227.31 254.77 230.61C260.45 234.14 259.82 244.14 258.34 249.49C254.16 264.54 235.88 269.23 234.35 269.6H234.34Z" fill="#F93267" stroke="#180027" stroke-width="8" stroke-linecap="round" stroke-linejoin="round"/>
    <path d="M365.43 138.51C363.73 137.7 347.9 129.85 347.08 116C346.66 108.96 350.07 99.55 354.76 99.29C359.36 99.03 363.21 107.72 363.58 108.57C370.54 99.16 380.56 96.22 385.86 99.52C391.54 103.05 390.91 113.05 389.43 118.4C385.25 133.45 366.97 138.14 365.44 138.51H365.43Z" fill="#F93267" stroke="#180027" stroke-width="8" stroke-linecap="round" stroke-linejoin="round"/>
    <path d="M252.7 88.91C249.29 87.28 217.49 71.52 215.84 43.7C215 29.56 221.85 10.67 231.26 10.15C240.5 9.63004 248.23 27.08 248.97 28.79C262.94 9.88004 283.08 4.00004 293.71 10.61C305.11 17.7 303.85 37.78 300.87 48.52C292.48 78.74 255.77 88.16 252.7 88.9V88.91Z" fill="#F93267" stroke="#180027" stroke-width="16" stroke-linecap="round" stroke-linejoin="round"/>
    <path d="M133.63 98.22C131.93 97.41 116.1 89.56 115.28 75.71C114.86 68.67 118.27 59.26 122.96 59C127.56 58.74 131.41 67.43 131.78 68.28C138.74 58.87 148.76 55.93 154.06 59.23C159.74 62.76 159.11 72.76 157.63 78.11C153.45 93.16 135.17 97.85 133.64 98.22H133.63Z" fill="#F93267" stroke="#180027" stroke-width="8" stroke-linecap="round" stroke-linejoin="round"/>
    <path d="M329.61 183.96C344.08 167.43 371.19 159.81 391.98 166.72C429.09 179.06 435.99 234.35 447.16 323.27C449.85 344.7 451.11 365.19 438.21 378.59C427.48 389.74 408.77 394.08 393.27 390.51C339.84 378.21 316.49 286.3 316.53 230.29C316.55 210.25 319.5 195.5 329.61 183.96Z" fill="#6D1B34" stroke="#180027" stroke-width="11.04" stroke-miterlimit="10"/>
    <path d="M131.13 418.99C138.34 429.01 152.9 434.78 165.39 429.32C176.92 424.27 186.26 409.85 181.04 398.65C176.18 388.21 161.68 387.04 160.94 386.99C150.06 379.34 136.16 380.94 129.23 389C121.23 398.31 126.12 412.05 131.12 419L131.13 418.99Z" fill="#6D1B34" stroke="#180027" stroke-width="11.04" stroke-miterlimit="10"/>
    <path d="M201.57 318.38C206.72 330.47 213.17 339.34 217.73 344.87C221.25 346.74 231.65 352.85 236.16 365.35C237.34 368.61 239.55 374.73 237.65 381.56C234.56 392.68 222.78 397.78 215.95 400.73C200.01 407.63 185.35 406.06 176.78 405.03C157.58 402.74 142.7 395.21 133.09 388.99C129.56 391.37 122.29 395.55 112.43 396.03C109.24 396.19 90.6702 396.7 83.1502 384.05C78.3802 376.04 80.5502 366.96 80.9902 365.12C84.0102 352.46 93.4702 350.71 110.88 331.88C120.16 321.84 127.39 311.78 130.61 307.03C140.89 291.87 141.58 286.63 148.86 282.3C160.51 275.38 178.93 276.78 188.9 286.13C196.64 293.38 194.05 300.76 201.56 318.39L201.57 318.38Z" fill="#F4AAA6" stroke="#180027" stroke-width="10.68" stroke-miterlimit="10"/>
    <path d="M132.27 389.25C116.09 385.6 105.11 375.68 104.67 365.3C104.44 359.71 107.11 350.35 114.14 348.88C119.23 347.82 125.25 351.17 128.74 357.34C135.69 346.92 146.26 343.27 152.09 346.52C158.34 350 158.19 360.72 156.88 366.52C153.19 382.82 133.89 388.78 132.28 389.25H132.27Z" fill="#180027"/>
    </g>
    <defs>
    <clipPath id="clip0_319_497">
    <rect width="454.43" height="903.46" fill="white"/>
    </clipPath>
    </defs>
</svg>
