<svg width="455" height="767" viewBox="0 0 455 767" fill="none" xmlns="http://www.w3.org/2000/svg">
    <g clip-path="url(#clip0_319_482)">
    <path d="M429.7 752.66L129.33 760.88L165.51 319.82C217.3 308.44 269.08 297.06 320.87 285.69C339.01 363.52 357.15 441.35 375.29 519.18C393.43 597.01 411.57 674.84 429.71 752.67L429.7 752.66Z" fill="#F96D5F" stroke="#180027" stroke-width="11.04" stroke-linecap="round" stroke-linejoin="round"/>
    <path d="M351.74 754.49L212.94 758.59C209.44 626.65 205.93 494.71 202.43 362.77C209.54 365.4 225.32 370.15 245.21 366.94C265.41 363.69 279.05 353.97 284.95 349.2C312.99 484.29 323.71 619.39 351.75 754.48L351.74 754.49Z" fill="white" stroke="#180027" stroke-width="11" stroke-linecap="round" stroke-linejoin="round"/>
    <path d="M56.8 26.72C76.6 17.19 104.52 20.81 120.93 35.33C150.22 61.24 134.89 114.8 110.27 200.98C104.34 221.75 97.46 241.09 80.34 248.35C66.09 254.4 47.19 251.05 34.33 241.69C-9.99002 209.41 4.57998 115.71 26.6 64.21C34.48 45.78 42.98 33.37 56.8 26.72Z" fill="#6D1B34" stroke="#180027" stroke-width="11.04" stroke-miterlimit="10"/>
    <path d="M335.12 241.53C327.35 263.96 319.58 286.4 311.81 308.83C295.39 319.96 262.98 338.5 218.6 342.28C195.72 344.23 176.12 341.71 161.54 338.54C146.99 323.01 132.45 307.47 117.9 291.94C190.31 275.14 262.72 258.33 335.12 241.53Z" fill="#CBC5F2" stroke="#180027" stroke-width="11.04" stroke-miterlimit="10"/>
    <path d="M357.52 161.07C357.52 75.74 287.3 5.52002 201.97 5.52002C151.76 5.52002 104.5 31.53 77.2199 68.61C47.1899 109.43 46.4399 155.86 46.4199 161.07C28.8699 178.62 17.1599 190.33 14.8399 201.7C14.0699 205.46 12.6299 217.5 28.5199 235.19C69.6199 293.04 136.18 324.51 201.96 316.61C273.76 307.99 357.51 250.93 357.51 161.06L357.52 161.07Z" fill="#F96D5F" stroke="#180027" stroke-width="11.04" stroke-miterlimit="10"/>
    <path d="M242.74 131.46C253.272 131.46 261.81 121.069 261.81 108.25C261.81 95.4315 253.272 85.04 242.74 85.04C232.208 85.04 223.67 95.4315 223.67 108.25C223.67 121.069 232.208 131.46 242.74 131.46Z" fill="#180027"/>
    <path d="M120.79 131.46C131.322 131.46 139.86 121.069 139.86 108.25C139.86 95.4315 131.322 85.04 120.79 85.04C110.258 85.04 101.72 95.4315 101.72 108.25C101.72 121.069 110.258 131.46 120.79 131.46Z" fill="#180027"/>
    <path d="M329.61 46.9C344.08 30.37 371.19 22.75 391.98 29.66C429.09 42 435.99 97.29 447.16 186.21C449.85 207.64 451.11 228.13 438.21 241.53C427.48 252.68 408.77 257.02 393.27 253.45C339.84 241.15 316.49 149.24 316.53 93.23C316.55 73.19 319.5 58.44 329.61 46.9Z" fill="#6D1B34" stroke="#180027" stroke-width="11.04" stroke-miterlimit="10"/>
    <path d="M131.33 260.8C131.33 260.8 142.86 275.12 174.06 261.69C205.26 248.26 157.44 237.35 157.44 237.35C157.44 237.35 129.12 240.6 131.33 260.8Z" fill="#F4AAA6" stroke="#180027" stroke-width="10.68" stroke-miterlimit="10"/>
    <path d="M209.41 171.88C214.56 183.97 221.01 192.84 225.57 198.37C242.59 209.99 250.75 227.29 246.43 240.58C242.7 252.08 230.67 257.35 223.91 260.31C204.1 268.99 184.86 263.57 175.64 260.98C160.5 256.72 148.96 249.21 140.92 242.49C140.26 244.52 137.92 250.87 131.66 253.97C121.99 258.77 111.63 251.52 109.94 250.33C108.33 249.2 103.12 245.28 100.43 238.47C93.6699 221.35 106.53 198.54 118.71 185.38C123.56 180.14 130.82 171.76 138.44 160.53C148.72 145.37 149.41 140.13 156.69 135.8C168.34 128.88 186.76 130.28 196.73 139.63C204.47 146.88 201.88 154.26 209.39 171.89L209.41 171.88Z" fill="#F4AAA6" stroke="#180027" stroke-width="10.68" stroke-miterlimit="10"/>
    <path d="M140.11 242.75C123.93 239.1 112.95 229.18 112.51 218.8C112.28 213.21 114.95 203.85 121.98 202.38C127.07 201.32 133.09 204.67 136.58 210.84C143.53 200.42 154.1 196.77 159.93 200.02C166.18 203.5 166.03 214.22 164.72 220.02C161.03 236.32 141.73 242.28 140.12 242.75H140.11Z" fill="#180027"/>
    </g>
    <defs>
    <clipPath id="clip0_319_482">
    <rect width="454.43" height="766.4" fill="white"/>
    </clipPath>
    </defs>
</svg>
