<svg width="435" height="726" viewBox="0 0 435 726" fill="none" xmlns="http://www.w3.org/2000/svg">
    <g clip-path="url(#clip0_242_5)">
    <path d="M420.21 714.882L120.22 722.165L156.354 331.403L311.518 301.165C329.635 370.119 347.752 439.074 365.869 508.028C383.986 576.983 402.103 645.937 420.22 714.891L420.21 714.882Z" fill="#F96D5F" stroke="#180027" stroke-width="11.04" stroke-linecap="round" stroke-linejoin="round"/>
    <path d="M342.21 716.53L203.707 720.165C200.215 603.176 196.712 486.187 193.22 369.197C200.315 371.529 216.061 375.741 235.908 372.895C256.065 370.013 269.676 361.395 275.563 357.165C303.543 476.947 314.24 596.738 342.22 716.521L342.21 716.53Z" fill="white" stroke="#180027" stroke-width="11" stroke-linecap="round" stroke-linejoin="round"/>
    <path d="M56.56 26.845C76.36 17.315 104.28 20.935 120.69 35.455C149.98 61.365 134.65 114.925 110.03 201.105C104.1 221.875 97.22 241.215 80.1 248.475C65.85 254.525 46.95 251.175 34.09 241.815C-10.23 209.535 4.33999 115.835 26.36 64.335C34.24 45.905 42.74 33.495 56.56 26.845Z" fill="#6D1B34" stroke="#180027" stroke-width="11.04" stroke-miterlimit="10"/>
    <path d="M334.88 241.655C327.11 264.085 319.34 286.525 311.57 308.955C295.15 320.085 262.74 338.625 218.36 342.405C195.48 344.355 175.88 341.835 161.3 338.665C146.75 323.135 132.21 307.595 117.66 292.065C190.07 275.265 262.48 258.455 334.88 241.655Z" fill="#CBC5F2" stroke="#180027" stroke-width="11.04" stroke-miterlimit="10"/>
    <path d="M357.28 161.195C357.28 75.865 287.06 5.64502 201.73 5.64502C151.52 5.64502 104.26 31.655 76.9801 68.735C46.9501 109.555 46.2001 155.985 46.1801 161.195C28.6301 178.745 16.9201 190.455 14.6001 201.825C13.8301 205.585 12.3901 217.625 28.2801 235.315C69.3801 293.165 135.94 324.635 201.72 316.735C273.52 308.115 357.27 251.055 357.27 161.185L357.28 161.195Z" fill="#F96D5F" stroke="#180027" stroke-width="11.04" stroke-miterlimit="10"/>
    <path d="M310.42 52.9349C324.89 36.4049 352 28.7849 372.79 35.6949C409.9 48.0349 416.8 103.325 427.97 192.245C430.66 213.675 431.92 234.165 419.02 247.565C408.29 258.715 389.58 263.055 374.08 259.485C320.65 247.185 297.3 155.275 297.34 99.2649C297.36 79.2249 300.31 64.4749 310.42 52.9349Z" fill="#6D1B34" stroke="#180027" stroke-width="11.04" stroke-miterlimit="10"/>
    <path d="M225.54 128.795C237.641 128.795 247.45 125.164 247.45 120.685C247.45 116.206 237.641 112.575 225.54 112.575C213.439 112.575 203.63 116.206 203.63 120.685C203.63 125.164 213.439 128.795 225.54 128.795Z" fill="#180027"/>
    <path d="M108.42 128.795C120.521 128.795 130.33 125.164 130.33 120.685C130.33 116.206 120.521 112.575 108.42 112.575C96.3195 112.575 86.51 116.206 86.51 120.685C86.51 125.164 96.3195 128.795 108.42 128.795Z" fill="#180027"/>
    <path d="M120.14 265.875C120.14 265.875 131.67 280.195 162.87 266.765C194.07 253.335 146.25 242.425 146.25 242.425C146.25 242.425 117.93 245.675 120.14 265.875Z" fill="#F4AAA6" stroke="#180027" stroke-width="10.68" stroke-miterlimit="10"/>
    <path d="M198.23 176.965C203.38 189.055 209.83 197.925 214.39 203.455C231.41 215.075 239.57 232.375 235.25 245.665C231.52 257.165 219.49 262.435 212.73 265.395C192.92 274.075 173.68 268.655 164.46 266.065C149.32 261.805 137.78 254.295 129.74 247.575C129.08 249.605 126.74 255.955 120.48 259.055C110.81 263.855 100.45 256.605 98.76 255.415C97.15 254.285 91.94 250.365 89.25 243.555C82.49 226.435 95.35 203.625 107.53 190.465C112.38 185.225 119.64 176.845 127.26 165.615C137.54 150.455 138.23 145.215 145.51 140.885C157.16 133.965 175.58 135.365 185.55 144.715C193.29 151.965 190.7 159.345 198.21 176.975L198.23 176.965Z" fill="#F4AAA6" stroke="#180027" stroke-width="10.68" stroke-miterlimit="10"/>
    <path d="M128.93 247.835C112.75 244.185 101.77 234.265 101.33 223.885C101.1 218.295 103.77 208.935 110.8 207.465C115.89 206.405 121.91 209.755 125.4 215.925C132.35 205.505 142.92 201.855 148.75 205.105C155 208.585 154.85 219.305 153.54 225.105C149.85 241.405 130.55 247.365 128.94 247.835H128.93Z" fill="#180027"/>
    </g>
    <defs>
    <clipPath id="clip0_242_5">
    <rect width="435" height="726" fill="white"/>
    </clipPath>
    </defs>
</svg>
