<svg width="425" height="837" viewBox="0 0 425 837" fill="none" xmlns="http://www.w3.org/2000/svg">
  <g clip-path="url(#clip0_308_203)">
  <path d="M419.42 822.68L119.05 830.9L155.23 389.84C207.02 378.46 258.8 367.08 310.59 355.71C328.73 433.54 346.87 511.37 365.01 589.2C383.15 667.03 401.29 744.86 419.43 822.69L419.42 822.68Z" fill="#E09A69" stroke="#180027" stroke-width="11.04" stroke-linecap="round" stroke-linejoin="round"/>
  <path d="M341.46 824.51L202.66 828.61C199.16 696.67 195.65 564.73 192.15 432.79C199.26 435.42 215.04 440.17 234.93 436.96C255.13 433.71 268.77 423.99 274.67 419.22C302.71 554.31 313.43 689.41 341.47 824.5L341.46 824.51Z" fill="#E09A69" stroke="#180027" stroke-width="11" stroke-linecap="round" stroke-linejoin="round"/>
  <path d="M144.22 78.5203C101.22 16.9503 100.67 6.74031 92.69 6.88031C63.4 7.37031 11.2 145.89 63.64 190.21C84.52 207.86 124.18 212.41 148.5 192.66C172.25 173.37 172.73 137.94 166.9 116.69C163.79 105.33 159.54 100.45 144.23 78.5203H144.22Z" fill="#342F38" stroke="#180027" stroke-width="13.75" stroke-miterlimit="10"/>
  <path d="M333.9 296.21C326.13 318.64 318.36 341.08 310.59 363.51C294.17 374.64 261.76 393.18 217.38 396.96C194.5 398.91 174.9 396.39 160.32 393.22C145.77 377.69 131.23 362.15 116.68 346.62C189.09 329.82 261.5 313.01 333.9 296.21Z" fill="#180027" stroke="#180027" stroke-width="11.04" stroke-miterlimit="10"/>
  <path d="M356.31 215.74C356.31 130.41 286.09 60.1904 200.76 60.1904C150.55 60.1904 103.29 86.2004 76.01 123.28C45.98 164.1 45.23 210.53 45.21 215.74C27.66 233.29 15.95 245 13.63 256.37C12.86 260.13 11.42 272.17 27.31 289.86C68.41 347.71 134.97 379.18 200.75 371.28C272.55 362.66 356.3 305.6 356.3 215.73L356.31 215.74Z" fill="#E09A69" stroke="#180027" stroke-width="11.04" stroke-miterlimit="10"/>
  <path d="M372.51 93.6297C329.51 32.0597 328.96 21.8497 320.98 21.9897C291.69 22.4797 239.49 161 291.93 205.32C312.81 222.97 352.47 227.52 376.79 207.77C400.54 188.48 401.02 153.05 395.19 131.8C392.08 120.44 387.83 115.56 372.52 93.6297H372.51Z" fill="#342F38" stroke="#180027" stroke-width="13.75" stroke-miterlimit="10"/>
  <path d="M51.61 205.58C49.67 201.22 50.55 196.53 52.39 187.32C56.44 167.06 60.31 147.96 76.26 132.93C84.02 125.62 102.47 111.91 113.94 117.75C120.63 121.16 119.23 128.3 129.35 147.28C137.17 161.96 141.52 170.11 147.99 171.06C159.14 172.7 163.92 151.11 184.75 132.16C212.62 106.8 255.93 98.2598 265.09 110C267.67 113.3 265.69 115.83 264.73 128.56C263.31 147.23 261 177.64 275.82 191.62C279.67 195.25 287.35 201.56 288.49 210.52C288.56 211.09 288.52 211.69 288.34 212.36C284.69 226.21 237.32 218.6 177.16 229.29C147.62 234.54 123.81 242.64 107.44 249.14C104.49 243.84 99.41 236.21 91.03 229.57C73.87 215.99 57.01 217.74 51.61 205.57V205.58Z" fill="#342F38"/>
  <path d="M36.78 320.27C36.78 320.27 48.32 334.96 80.18 321.69C112.04 308.43 63.59 296.76 63.59 296.76C63.59 296.76 34.79 299.72 36.78 320.26V320.27Z" fill="#342F38" stroke="#180027" stroke-width="9.84" stroke-miterlimit="10"/>
  <path d="M133.69 193.29C147.68 199.39 136.42 224.44 158.37 258.74C169.23 275.72 178.19 279.26 177.07 289.27C174.85 309.22 136.56 319.38 130.85 320.9C105.99 327.5 86.07 322.25 81.81 320.99C66.48 316.48 54.85 308.71 46.77 301.79C46.08 303.85 43.62 310.27 37.23 313.34C27.35 318.1 16.91 310.6 15.21 309.38C15.21 309.38 8.98003 304.83 5.69003 297.22C2.08003 288.85 11.84 271.37 23.09 258.61C35.37 244.69 46.83 241.85 64.85 232.43C112.83 207.37 121.34 187.9 133.69 193.29Z" fill="#342F38" stroke="#180027" stroke-width="9.84" stroke-linejoin="round"/>
  <path d="M38.3099 279.07C21.9199 275.17 10.8799 264.95 10.5699 254.41C10.3999 248.73 13.2299 239.25 20.3899 237.85C25.5699 236.83 31.6399 240.32 35.1199 246.62C42.3099 236.12 53.0899 232.54 58.9699 235.91C65.2799 239.52 64.9899 250.41 63.5899 256.28C59.6399 272.8 39.9699 278.61 38.3199 279.07H38.3099Z" fill="#180027"/>
  <path d="M224.57 183.34C236.671 183.34 246.48 179.709 246.48 175.23C246.48 170.751 236.671 167.12 224.57 167.12C212.469 167.12 202.66 170.751 202.66 175.23C202.66 179.709 212.469 183.34 224.57 183.34Z" fill="#180027"/>
  <path d="M107.44 183.34C119.541 183.34 129.35 179.709 129.35 175.23C129.35 170.751 119.541 167.12 107.44 167.12C95.3395 167.12 85.53 170.751 85.53 175.23C85.53 179.709 95.3395 183.34 107.44 183.34Z" fill="#180027"/>
  </g>
  <defs>
  <clipPath id="clip0_308_203">
  <rect width="424.94" height="836.42" fill="white"/>
  </clipPath>
  </defs>
</svg>
