<svg width="426" height="837" viewBox="0 0 426 837" fill="none" xmlns="http://www.w3.org/2000/svg">
    <g clip-path="url(#clip0_319_549)">
    <path d="M419.71 822.68L119.34 830.9L155.52 389.84C207.31 378.46 259.09 367.08 310.88 355.71C329.02 433.54 347.16 511.37 365.3 589.2C383.44 667.03 401.58 744.86 419.72 822.69L419.71 822.68Z" fill="#E09A69" stroke="#180027" stroke-width="11.04" stroke-linecap="round" stroke-linejoin="round"/>
    <path d="M341.75 824.51L202.95 828.61C199.45 696.67 195.94 564.73 192.44 432.79C199.55 435.42 215.33 440.17 235.22 436.96C255.42 433.71 269.06 423.99 274.96 419.22C303 554.31 313.72 689.41 341.76 824.5L341.75 824.51Z" fill="#E09A69" stroke="#180027" stroke-width="11" stroke-linecap="round" stroke-linejoin="round"/>
    <path d="M144.22 78.5203C101.22 16.9503 100.67 6.74031 92.69 6.88031C63.4 7.37031 11.2 145.89 63.64 190.21C84.52 207.86 124.18 212.41 148.5 192.66C172.25 173.37 172.73 137.94 166.9 116.69C163.79 105.33 159.54 100.45 144.23 78.5203H144.22Z" fill="#342F38" stroke="#180027" stroke-width="13.75" stroke-miterlimit="10"/>
    <path d="M333.9 296.21C326.13 318.64 318.36 341.08 310.59 363.51C294.17 374.64 261.76 393.18 217.38 396.96C194.5 398.91 174.9 396.39 160.32 393.22C145.77 377.69 131.23 362.15 116.68 346.62C189.09 329.82 261.5 313.01 333.9 296.21Z" fill="#180027" stroke="#180027" stroke-width="11.04" stroke-miterlimit="10"/>
    <path d="M356.31 215.74C356.31 130.41 286.09 60.1904 200.76 60.1904C150.55 60.1904 103.29 86.2004 76.01 123.28C45.98 164.1 45.23 210.53 45.21 215.74C27.66 233.29 15.95 245 13.63 256.37C12.86 260.13 11.42 272.17 27.31 289.86C68.41 347.71 134.97 379.18 200.75 371.28C272.55 362.66 356.3 305.6 356.3 215.73L356.31 215.74Z" fill="#E09A69" stroke="#180027" stroke-width="11.04" stroke-miterlimit="10"/>
    <path d="M372.51 93.6307C329.51 32.0607 328.96 21.8507 320.98 21.9907C291.69 22.4807 239.49 161.001 291.93 205.321C312.81 222.971 352.47 227.521 376.79 207.771C400.54 188.481 401.02 153.051 395.19 131.801C392.08 120.441 387.83 115.561 372.52 93.6307H372.51Z" fill="#342F38" stroke="#180027" stroke-width="13.75" stroke-miterlimit="10"/>
    <path d="M51.6102 205.581C49.6702 201.221 50.5502 196.531 52.3902 187.321C56.4402 167.061 60.3102 147.961 76.2602 132.931C84.0202 125.621 102.47 111.911 113.94 117.751C120.63 121.161 119.23 128.301 129.35 147.281C137.17 161.961 141.52 170.111 147.99 171.061C159.14 172.701 163.92 151.111 184.75 132.161C212.62 106.801 255.93 98.2608 265.09 110.001C267.67 113.301 265.69 115.831 264.73 128.561C263.31 147.231 261 177.641 275.82 191.621C279.67 195.251 287.35 201.561 288.49 210.521C288.56 211.091 288.52 211.691 288.34 212.361C284.69 226.211 237.32 218.601 177.16 229.291C147.62 234.541 123.81 242.641 107.44 249.141C104.49 243.841 99.4102 236.211 91.0302 229.571C73.8702 215.991 57.0102 217.741 51.6102 205.571V205.581Z" fill="#342F38"/>
    <path d="M36.7802 320.271C36.7802 320.271 48.3202 334.961 80.1802 321.691C112.04 308.431 63.5902 296.761 63.5902 296.761C63.5902 296.761 34.7902 299.721 36.7802 320.261V320.271Z" fill="#342F38" stroke="#180027" stroke-width="9.84" stroke-miterlimit="10"/>
    <path d="M133.69 193.29C147.68 199.39 136.42 224.44 158.37 258.74C169.23 275.72 178.19 279.26 177.07 289.27C174.85 309.22 136.56 319.38 130.85 320.9C105.99 327.5 86.07 322.25 81.81 320.99C66.48 316.48 54.85 308.71 46.77 301.79C46.08 303.85 43.62 310.27 37.23 313.34C27.35 318.1 16.91 310.6 15.21 309.38C15.21 309.38 8.98003 304.83 5.69003 297.22C2.08003 288.85 11.84 271.37 23.09 258.61C35.37 244.69 46.83 241.85 64.85 232.43C112.83 207.37 121.34 187.9 133.69 193.29Z" fill="#342F38" stroke="#180027" stroke-width="9.84" stroke-linejoin="round"/>
    <path d="M38.3102 279.071C21.9202 275.171 10.8802 264.951 10.5702 254.411C10.4002 248.731 13.2302 239.251 20.3902 237.851C25.5702 236.831 31.6402 240.321 35.1202 246.621C42.3102 236.121 53.0902 232.541 58.9702 235.911C65.2802 239.521 64.9902 250.411 63.5902 256.281C59.6402 272.801 39.9702 278.611 38.3202 279.071H38.3102Z" fill="#180027"/>
    <path d="M198.13 195.52C207.657 195.52 215.38 184.507 215.38 170.92C215.38 157.334 207.657 146.32 198.13 146.32C188.603 146.32 180.88 157.334 180.88 170.92C180.88 184.507 188.603 195.52 198.13 195.52Z" fill="#180027"/>
    <path d="M88.6602 195.52C98.1871 195.52 105.91 184.507 105.91 170.92C105.91 157.334 98.1871 146.32 88.6602 146.32C79.1332 146.32 71.4102 157.334 71.4102 170.92C71.4102 184.507 79.1332 195.52 88.6602 195.52Z" fill="#180027"/>
    </g>
    <defs>
    <clipPath id="clip0_319_549">
    <rect width="425.23" height="836.42" fill="white"/>
    </clipPath>
    </defs>
</svg>
