<svg width="431" height="949" viewBox="0 0 431 949" fill="none" xmlns="http://www.w3.org/2000/svg">
  <g clip-path="url(#clip0_319_565)">
  <path d="M419.71 935.27L119.34 943.49L155.52 502.43C207.31 491.05 259.09 479.67 310.88 468.3C329.02 546.13 347.16 623.96 365.3 701.79C383.44 779.62 401.58 857.45 419.72 935.28L419.71 935.27Z" fill="#E09A69" stroke="#180027" stroke-width="11.04" stroke-linecap="round" stroke-linejoin="round"/>
  <path d="M341.75 937.09L202.95 941.19C199.45 809.25 195.94 677.31 192.44 545.37C199.55 548 215.33 552.75 235.22 549.54C255.42 546.29 269.06 536.57 274.96 531.8C303 666.89 313.72 801.99 341.76 937.08L341.75 937.09Z" fill="#E09A69" stroke="#180027" stroke-width="11" stroke-linecap="round" stroke-linejoin="round"/>
  <path d="M401.12 138.51C399.42 137.7 383.59 129.85 382.77 116C382.35 108.96 385.76 99.5495 390.45 99.2895C395.05 99.0295 398.9 107.72 399.27 108.57C406.23 99.1595 416.25 96.2195 421.55 99.5195C427.23 103.05 426.6 113.05 425.12 118.4C420.94 133.45 402.66 138.14 401.13 138.51H401.12Z" fill="#F93267" stroke="#180027" stroke-width="8" stroke-linecap="round" stroke-linejoin="round"/>
  <path d="M288.39 88.9098C284.98 87.2798 253.18 71.5198 251.53 43.6998C250.69 29.5598 257.54 10.6698 266.95 10.1498C276.19 9.6298 283.92 27.0798 284.66 28.7898C298.63 9.8798 318.77 3.9998 329.4 10.6098C340.8 17.6998 339.54 37.7798 336.56 48.5198C328.17 78.7398 291.46 88.1598 288.39 88.8998V88.9098Z" fill="#F93267" stroke="#180027" stroke-width="16" stroke-linecap="round" stroke-linejoin="round"/>
  <path d="M169.32 98.2195C167.62 97.4095 151.79 89.5595 150.97 75.7095C150.55 68.6695 153.96 59.2595 158.65 58.9995C163.25 58.7395 167.1 67.4295 167.47 68.2795C174.43 58.8695 184.45 55.9295 189.75 59.2295C195.43 62.7595 194.8 72.7595 193.32 78.1095C189.14 93.1595 170.86 97.8495 169.33 98.2195H169.32Z" fill="#F93267" stroke="#180027" stroke-width="8" stroke-linecap="round" stroke-linejoin="round"/>
  <path d="M144.22 191.099C101.22 129.529 100.67 119.319 92.69 119.459C63.4 119.949 11.2 258.469 63.64 302.789C84.52 320.439 124.18 324.989 148.5 305.239C172.25 285.949 172.73 250.519 166.9 229.269C163.79 217.909 159.54 213.029 144.23 191.099H144.22Z" fill="#342F38" stroke="#180027" stroke-width="13.75" stroke-miterlimit="10"/>
  <path d="M333.9 408.79C326.13 431.22 318.36 453.66 310.59 476.09C294.17 487.22 261.76 505.76 217.38 509.54C194.5 511.49 174.9 508.97 160.32 505.8C145.77 490.27 131.23 474.73 116.68 459.2C189.09 442.4 261.5 425.59 333.9 408.79Z" fill="#180027" stroke="#180027" stroke-width="11.04" stroke-miterlimit="10"/>
  <path d="M356.31 328.32C356.31 242.99 286.09 172.77 200.76 172.77C150.55 172.77 103.29 198.78 76.01 235.86C45.98 276.68 45.23 323.11 45.21 328.32C27.66 345.87 15.95 357.58 13.63 368.95C12.86 372.71 11.42 384.75 27.31 402.44C68.41 460.29 134.97 491.759 200.75 483.859C272.55 475.239 356.3 418.18 356.3 328.31L356.31 328.32Z" fill="#E09A69" stroke="#180027" stroke-width="11.04" stroke-miterlimit="10"/>
  <path d="M372.51 206.21C329.51 144.64 328.96 134.43 320.98 134.57C291.69 135.06 239.49 273.58 291.93 317.9C312.81 335.55 352.47 340.1 376.79 320.35C400.54 301.06 401.02 265.63 395.19 244.38C392.08 233.02 387.83 228.14 372.52 206.21H372.51Z" fill="#342F38" stroke="#180027" stroke-width="13.75" stroke-miterlimit="10"/>
  <path d="M51.6102 318.17C49.6702 313.81 50.5502 309.12 52.3902 299.91C56.4402 279.65 60.3102 260.55 76.2602 245.52C84.0202 238.21 102.47 224.5 113.94 230.34C120.63 233.75 119.23 240.89 129.35 259.87C137.17 274.55 141.52 282.7 147.99 283.65C159.14 285.29 163.92 263.7 184.75 244.75C212.62 219.39 255.93 210.85 265.09 222.59C267.67 225.89 265.69 228.42 264.73 241.15C263.31 259.82 261 290.23 275.82 304.21C279.67 307.84 287.35 314.15 288.49 323.11C288.56 323.68 288.52 324.28 288.34 324.95C284.69 338.8 237.32 331.19 177.16 341.88C147.62 347.13 123.81 355.23 107.44 361.73C104.49 356.43 99.4102 348.8 91.0302 342.16C73.8702 328.58 57.0102 330.33 51.6102 318.16V318.17Z" fill="#342F38"/>
  <path d="M36.7802 432.85C36.7802 432.85 48.3202 447.54 80.1802 434.27C112.04 421.01 63.5902 409.34 63.5902 409.34C63.5902 409.34 34.7902 412.3 36.7802 432.84V432.85Z" fill="#342F38" stroke="#180027" stroke-width="9.84" stroke-miterlimit="10"/>
  <path d="M133.69 305.87C147.68 311.97 136.42 337.02 158.37 371.32C169.23 388.3 178.19 391.84 177.07 401.85C174.85 421.8 136.56 431.96 130.85 433.48C105.99 440.08 86.07 434.83 81.81 433.57C66.48 429.06 54.85 421.29 46.77 414.37C46.08 416.43 43.62 422.85 37.23 425.92C27.35 430.68 16.91 423.18 15.21 421.96C15.21 421.96 8.98003 417.409 5.69003 409.799C2.08003 401.429 11.84 383.95 23.09 371.19C35.37 357.27 46.83 354.43 64.85 345.01C112.83 319.95 121.34 300.48 133.69 305.87Z" fill="#342F38" stroke="#180027" stroke-width="9.84" stroke-linejoin="round"/>
  <path d="M38.3102 391.659C21.9202 387.759 10.8802 377.539 10.5702 366.999C10.4002 361.319 13.2302 351.839 20.3902 350.439C25.5702 349.419 31.6402 352.909 35.1202 359.209C42.3102 348.709 53.0902 345.129 58.9702 348.499C65.2802 352.109 64.9902 362.999 63.5902 368.869C59.6402 385.389 39.9702 391.199 38.3202 391.659H38.3102Z" fill="#180027"/>
  <path d="M87.05 301.099C85.35 300.289 69.52 292.439 68.7 278.589C68.28 271.549 71.69 262.139 76.38 261.879C80.98 261.619 84.83 270.309 85.2 271.159C92.16 261.749 102.18 258.809 107.48 262.109C113.16 265.639 112.53 275.639 111.05 280.989C106.87 296.039 88.59 300.729 87.06 301.099H87.05Z" fill="#F93267" stroke="#180027" stroke-width="8" stroke-linecap="round" stroke-linejoin="round"/>
  <path d="M212.26 301.099C210.56 300.289 194.73 292.439 193.91 278.589C193.49 271.549 196.9 262.139 201.59 261.879C206.19 261.619 210.04 270.309 210.41 271.159C217.37 261.749 227.39 258.809 232.69 262.109C238.37 265.639 237.74 275.639 236.26 280.989C232.08 296.039 213.8 300.729 212.27 301.099H212.26Z" fill="#F93267" stroke="#180027" stroke-width="8" stroke-linecap="round" stroke-linejoin="round"/>
  </g>
  <defs>
  <clipPath id="clip0_319_565">
  <rect width="430.13" height="949.01" fill="white"/>
  </clipPath>
  </defs>
</svg>
