<svg width="418" height="837" viewBox="0 0 418 837" fill="none" xmlns="http://www.w3.org/2000/svg">
    <g clip-path="url(#clip0_280_119)">
    <path d="M47.96 78.5201C90.96 16.9501 91.52 6.74007 99.5 6.88007C128.79 7.37007 180.99 145.89 128.55 190.21C107.67 207.86 68.01 212.41 43.69 192.66C19.94 173.37 19.46 137.94 25.29 116.69C28.4 105.33 32.65 100.45 47.96 78.5201Z" fill="#CBC5F2" stroke="#180027" stroke-width="13.75" stroke-miterlimit="10"/>
    <path d="M411.73 822.68L111.36 830.9L147.54 389.84C199.33 378.46 251.11 367.08 302.9 355.71C321.04 433.54 339.18 511.37 357.32 589.2C375.46 667.03 393.6 744.86 411.74 822.69L411.73 822.68Z" fill="#CBC5F2" stroke="#180027" stroke-width="11.04" stroke-linecap="round" stroke-linejoin="round"/>
    <path d="M333.77 824.51L194.97 828.61C191.47 696.67 187.96 564.73 184.46 432.79C191.57 435.42 207.35 440.17 227.24 436.96C247.44 433.71 261.08 423.99 266.98 419.22C295.02 554.31 305.74 689.41 333.78 824.5L333.77 824.51Z" fill="white" stroke="#180027" stroke-width="11" stroke-linecap="round" stroke-linejoin="round"/>
    <path d="M326.21 296.21C318.44 318.64 310.67 341.08 302.9 363.51C286.48 374.64 254.07 393.18 209.69 396.96C186.81 398.91 167.21 396.39 152.63 393.22C138.08 377.69 123.54 362.15 108.99 346.62C181.4 329.82 253.81 313.01 326.21 296.21Z" fill="#FF3E68" stroke="#180027" stroke-width="11.04" stroke-miterlimit="10"/>
    <path d="M348.62 215.74C348.62 130.41 278.4 60.1899 193.07 60.1899C142.86 60.1899 95.6 86.1999 68.32 123.28C38.29 164.1 37.54 210.53 37.52 215.74C19.97 233.29 8.26002 245 5.94002 256.37C5.17002 260.13 3.73002 272.17 19.62 289.86C60.72 347.71 127.28 379.18 193.06 371.28C264.86 362.66 348.61 305.6 348.61 215.73L348.62 215.74Z" fill="#CBC5F2" stroke="#180027" stroke-width="11.04" stroke-miterlimit="10"/>
    <path d="M216.88 183.34C228.981 183.34 238.79 179.709 238.79 175.23C238.79 170.751 228.981 167.12 216.88 167.12C204.779 167.12 194.97 170.751 194.97 175.23C194.97 179.709 204.779 183.34 216.88 183.34Z" fill="#180027"/>
    <path d="M295.83 93.6299C338.83 32.0599 339.38 21.8499 347.36 21.9899C376.65 22.4799 428.85 161 376.41 205.32C355.53 222.97 315.87 227.52 291.55 207.77C267.8 188.48 267.32 153.05 273.15 131.8C276.26 120.44 280.51 115.56 295.82 93.6299H295.83Z" fill="#CBC5F2" stroke="#180027" stroke-width="13.75" stroke-miterlimit="10"/>
    <path d="M89.38 107.69C101.41 96.66 122.72 80.32 153.06 71.69C163.69 68.66 182.8 64.49 206.31 66.67C220.77 68.01 233.54 68.2 235.53 74.13C238.29 82.36 216.85 90.09 197.38 114.94C190.76 123.39 168.01 152.44 174.01 181.85C174.65 184.98 180.98 198.1 197.19 221.9C203.45 231.1 211.14 243.31 220.45 260.47C228.13 274.62 233.81 286.43 237.26 293.86C179.72 286.61 122.19 279.36 64.65 272.11C101.72 248.95 123.22 209.57 119.57 170.17C116.53 137.23 96.93 115.32 89.38 107.69Z" fill="white"/>
    <path d="M94.15 239.48C92.21 238.55 74.13 229.59 73.19 213.77C72.71 205.73 76.61 194.99 81.96 194.69C87.22 194.4 91.61 204.31 92.03 205.29C99.98 194.54 111.42 191.19 117.47 194.95C123.95 198.98 123.24 210.4 121.54 216.51C116.77 233.7 95.9 239.05 94.15 239.47V239.48Z" fill="#180027"/>
    <path d="M107.5 294.82C113.08 302.62 126.53 318.8 155.49 327.44C196.32 339.63 245.82 323.29 248.44 304.34C252.84 272.58 128.95 209.15 82.57 245.07C72.86 252.59 64.51 266.04 62.96 280.58C60.65 302.22 72.56 328.6 89.5 331.4C98.01 332.8 106.36 328.02 108.33 326.89C117.53 321.62 121.53 313.69 122.8 310.86" fill="white"/>
    <path d="M107.5 294.82C113.08 302.62 126.53 318.8 155.49 327.44C196.32 339.63 245.82 323.29 248.44 304.34C252.84 272.58 128.95 209.15 82.57 245.07C72.86 252.59 64.51 266.04 62.96 280.58C60.65 302.22 72.56 328.6 89.5 331.4C98.01 332.8 106.36 328.02 108.33 326.89C117.53 321.62 121.53 313.69 122.8 310.86" stroke="#180027" stroke-width="12.61" stroke-linecap="round" stroke-linejoin="round"/>
    <path d="M99.75 183.34C111.851 183.34 121.66 179.709 121.66 175.23C121.66 170.751 111.851 167.12 99.75 167.12C87.6494 167.12 77.84 170.751 77.84 175.23C77.84 179.709 87.6494 183.34 99.75 183.34Z" fill="#180027"/>
    </g>
    <defs>
    <clipPath id="clip0_280_119">
    <rect width="417.25" height="836.42" fill="white"/>
    </clipPath>
    </defs>
</svg>
