<svg width="426" height="949" viewBox="0 0 426 949" fill="none" xmlns="http://www.w3.org/2000/svg">
    <g clip-path="url(#clip0_319_530)">
    <path d="M420.24 935.27L119.87 943.49L156.05 502.43C207.84 491.05 259.62 479.67 311.41 468.3C329.55 546.13 347.69 623.96 365.83 701.79C383.97 779.62 402.11 857.45 420.25 935.28L420.24 935.27Z" fill="#CBC5F2" stroke="#180027" stroke-width="11.04" stroke-linecap="round" stroke-linejoin="round"/>
    <path d="M342.28 937.09L203.48 941.19C199.98 809.25 196.47 677.31 192.97 545.37C200.08 548 215.86 552.75 235.75 549.54C255.95 546.29 269.59 536.57 275.49 531.8C303.53 666.89 314.25 801.99 342.29 937.08L342.28 937.09Z" fill="white" stroke="#180027" stroke-width="11" stroke-linecap="round" stroke-linejoin="round"/>
    <path d="M395.68 138.51C393.98 137.7 378.15 129.85 377.33 116C376.91 108.96 380.32 99.5495 385.01 99.2895C389.61 99.0295 393.46 107.72 393.83 108.57C400.79 99.1595 410.81 96.2195 416.11 99.5195C421.79 103.05 421.16 113.05 419.68 118.4C415.5 133.45 397.22 138.14 395.69 138.51H395.68Z" fill="#F93267" stroke="#180027" stroke-width="8" stroke-linecap="round" stroke-linejoin="round"/>
    <path d="M282.95 88.9098C279.54 87.2798 247.74 71.5198 246.09 43.6998C245.25 29.5598 252.1 10.6698 261.51 10.1498C270.75 9.6298 278.48 27.0798 279.22 28.7898C293.19 9.8798 313.33 3.9998 323.96 10.6098C335.36 17.6998 334.1 37.7798 331.12 48.5198C322.73 78.7398 286.02 88.1598 282.95 88.8998V88.9098Z" fill="#F93267" stroke="#180027" stroke-width="16" stroke-linecap="round" stroke-linejoin="round"/>
    <path d="M163.88 98.2195C162.18 97.4095 146.35 89.5595 145.53 75.7095C145.11 68.6695 148.52 59.2595 153.21 58.9995C157.81 58.7395 161.66 67.4295 162.03 68.2795C168.99 58.8695 179.01 55.9295 184.31 59.2295C189.99 62.7595 189.36 72.7595 187.88 78.1095C183.7 93.1595 165.42 97.8495 163.89 98.2195H163.88Z" fill="#F93267" stroke="#180027" stroke-width="8" stroke-linecap="round" stroke-linejoin="round"/>
    <path d="M47.9601 191.099C90.9601 129.529 91.5101 119.319 99.4901 119.459C128.78 119.949 180.98 258.469 128.54 302.789C107.66 320.439 68.0001 324.989 43.6801 305.239C19.9301 285.949 19.4501 250.519 25.2801 229.269C28.3901 217.909 32.6401 213.029 47.9501 191.099H47.9601Z" fill="#CBC5F2" stroke="#180027" stroke-width="13.75" stroke-miterlimit="10"/>
    <path d="M326.21 408.79C318.44 431.22 310.67 453.66 302.9 476.09C286.48 487.22 254.07 505.76 209.69 509.54C186.81 511.49 167.21 508.97 152.63 505.8C138.08 490.27 123.54 474.73 108.99 459.2C181.4 442.4 253.81 425.59 326.21 408.79Z" fill="#FF3E68" stroke="#180027" stroke-width="11.04" stroke-miterlimit="10"/>
    <path d="M348.62 328.32C348.62 242.99 278.4 172.77 193.07 172.77C142.86 172.77 95.6 198.78 68.32 235.86C38.29 276.68 37.54 323.11 37.52 328.32C19.97 345.87 8.26002 357.58 5.94002 368.95C5.17002 372.71 3.73002 384.75 19.62 402.44C60.72 460.29 127.28 491.759 193.06 483.859C264.86 475.239 348.61 418.18 348.61 328.31L348.62 328.32Z" fill="#CBC5F2" stroke="#180027" stroke-width="11.04" stroke-miterlimit="10"/>
    <path d="M295.83 206.21C338.83 144.64 339.38 134.43 347.36 134.57C376.65 135.06 428.85 273.58 376.41 317.9C355.53 335.55 315.87 340.1 291.55 320.35C267.8 301.06 267.32 265.63 273.15 244.38C276.26 233.02 280.51 228.14 295.82 206.21H295.83Z" fill="#CBC5F2" stroke="#180027" stroke-width="13.75" stroke-miterlimit="10"/>
    <path d="M89.3799 220.27C101.41 209.24 122.72 192.9 153.06 184.27C163.69 181.24 182.8 177.07 206.31 179.25C220.77 180.59 233.54 180.78 235.53 186.71C238.29 194.94 216.85 202.67 197.38 227.52C190.76 235.97 168.01 265.02 174.01 294.43C174.65 297.56 180.98 310.68 197.19 334.48C203.45 343.68 211.14 355.89 220.45 373.05C228.13 387.2 233.81 399.01 237.26 406.44C179.72 399.19 122.19 391.94 64.6499 384.69C101.72 361.53 123.22 322.15 119.57 282.75C116.53 249.81 96.9299 227.9 89.3799 220.27Z" fill="white"/>
    <path d="M85.03 301.099C83.33 300.289 67.5 292.439 66.68 278.589C66.26 271.549 69.67 262.139 74.36 261.879C78.96 261.619 82.81 270.309 83.18 271.159C90.14 261.749 100.16 258.809 105.46 262.109C111.14 265.639 110.51 275.639 109.03 280.989C104.85 296.039 86.57 300.729 85.04 301.099H85.03Z" fill="#F93267" stroke="#180027" stroke-width="8" stroke-linecap="round" stroke-linejoin="round"/>
    <path d="M210.24 301.099C208.54 300.289 192.71 292.439 191.89 278.589C191.47 271.549 194.88 262.139 199.57 261.879C204.17 261.619 208.02 270.309 208.39 271.159C215.35 261.749 225.37 258.809 230.67 262.109C236.35 265.639 235.72 275.639 234.24 280.989C230.06 296.039 211.78 300.729 210.25 301.099H210.24Z" fill="#F93267" stroke="#180027" stroke-width="8" stroke-linecap="round" stroke-linejoin="round"/>
    <path d="M108.51 440.89C115.72 450.91 130.28 456.68 142.77 451.22C154.3 446.17 163.64 431.75 158.42 420.55C153.56 410.11 139.06 408.94 138.32 408.89C127.44 401.24 113.54 402.84 106.61 410.9C98.6101 420.21 103.5 433.95 108.5 440.9L108.51 440.89Z" fill="#6D1B34" stroke="#180027" stroke-width="11.04" stroke-miterlimit="10"/>
    <path d="M94.1498 352.07C92.2098 351.14 74.1299 342.18 73.1899 326.36C72.7099 318.32 76.6098 307.58 81.9598 307.28C87.2198 306.99 91.6098 316.9 92.0298 317.88C99.9798 307.13 111.42 303.78 117.47 307.54C123.95 311.57 123.24 322.99 121.54 329.1C116.77 346.29 95.8998 351.64 94.1498 352.06V352.07Z" fill="#180027"/>
    <path d="M107.5 407.41C113.08 415.21 126.53 431.39 155.49 440.03C196.32 452.22 245.82 435.88 248.44 416.93C252.84 385.17 128.95 321.74 82.5699 357.66C72.8599 365.18 64.5099 378.63 62.9599 393.17C60.6499 414.81 72.5599 441.19 89.4999 443.99C98.0099 445.39 106.36 440.61 108.33 439.48C117.53 434.21 121.53 426.28 122.8 423.45" fill="white"/>
    <path d="M107.5 407.41C113.08 415.21 126.53 431.39 155.49 440.03C196.32 452.22 245.82 435.88 248.44 416.93C252.84 385.17 128.95 321.74 82.5699 357.66C72.8599 365.18 64.5099 378.63 62.9599 393.17C60.6499 414.81 72.5599 441.19 89.4999 443.99C98.0099 445.39 106.36 440.61 108.33 439.48C117.53 434.21 121.53 426.28 122.8 423.45" stroke="#180027" stroke-width="12.61" stroke-linecap="round" stroke-linejoin="round"/>
    </g>
    <defs>
    <clipPath id="clip0_319_530">
    <rect width="425.76" height="949.01" fill="white"/>
    </clipPath>
    </defs>
</svg>
