<svg width="426" height="837" viewBox="0 0 426 837" fill="none" xmlns="http://www.w3.org/2000/svg">
    <g clip-path="url(#clip0_319_515)">
    <path d="M420.24 822.68L119.87 830.9L156.05 389.84C207.84 378.46 259.62 367.08 311.41 355.71C329.55 433.54 347.69 511.37 365.83 589.2C383.97 667.03 402.11 744.86 420.25 822.69L420.24 822.68Z" fill="#CBC5F2" stroke="#180027" stroke-width="11.04" stroke-linecap="round" stroke-linejoin="round"/>
    <path d="M342.28 824.51L203.48 828.61C199.98 696.67 196.47 564.73 192.97 432.79C200.08 435.42 215.86 440.17 235.75 436.96C255.95 433.71 269.59 423.99 275.49 419.22C303.53 554.31 314.25 689.41 342.29 824.5L342.28 824.51Z" fill="white" stroke="#180027" stroke-width="11" stroke-linecap="round" stroke-linejoin="round"/>
    <path d="M47.9598 78.5203C90.9598 16.9503 91.5198 6.74031 99.4998 6.88031C128.79 7.37031 180.99 145.89 128.55 190.21C107.67 207.86 68.0098 212.41 43.6898 192.66C19.9398 173.37 19.4598 137.94 25.2898 116.69C28.3998 105.33 32.6498 100.45 47.9598 78.5203Z" fill="#CBC5F2" stroke="#180027" stroke-width="13.75" stroke-miterlimit="10"/>
    <path d="M326.21 296.21C318.44 318.64 310.67 341.08 302.9 363.51C286.48 374.64 254.07 393.18 209.69 396.96C186.81 398.91 167.21 396.39 152.63 393.22C138.08 377.69 123.54 362.15 108.99 346.62C181.4 329.82 253.81 313.01 326.21 296.21Z" fill="#FF3E68" stroke="#180027" stroke-width="11.04" stroke-miterlimit="10"/>
    <path d="M348.62 215.74C348.62 130.41 278.4 60.1904 193.07 60.1904C142.86 60.1904 95.6 86.2004 68.32 123.28C38.29 164.1 37.54 210.53 37.52 215.74C19.97 233.29 8.26002 245 5.94002 256.37C5.17002 260.13 3.73002 272.17 19.62 289.86C60.72 347.71 127.28 379.18 193.06 371.28C264.86 362.66 348.61 305.6 348.61 215.73L348.62 215.74Z" fill="#CBC5F2" stroke="#180027" stroke-width="11.04" stroke-miterlimit="10"/>
    <path d="M205.11 183.34C214.781 183.34 222.62 173.992 222.62 162.46C222.62 150.928 214.781 141.58 205.11 141.58C195.44 141.58 187.6 150.928 187.6 162.46C187.6 173.992 195.44 183.34 205.11 183.34Z" fill="#180027"/>
    <path d="M295.83 93.6307C338.83 32.0607 339.38 21.8507 347.36 21.9907C376.65 22.4807 428.85 161.001 376.41 205.321C355.53 222.971 315.87 227.521 291.55 207.771C267.8 188.481 267.32 153.051 273.15 131.801C276.26 120.441 280.51 115.561 295.82 93.6307H295.83Z" fill="#CBC5F2" stroke="#180027" stroke-width="13.75" stroke-miterlimit="10"/>
    <path d="M89.3799 107.69C101.41 96.66 122.72 80.32 153.06 71.69C163.69 68.66 182.8 64.49 206.31 66.67C220.77 68.01 233.54 68.2 235.53 74.13C238.29 82.36 216.85 90.09 197.38 114.94C190.76 123.39 168.01 152.44 174.01 181.85C174.65 184.98 180.98 198.1 197.19 221.9C203.45 231.1 211.14 243.31 220.45 260.47C228.13 274.62 233.81 286.43 237.26 293.86C179.72 286.61 122.19 279.36 64.6499 272.11C101.72 248.95 123.22 209.57 119.57 170.17C116.53 137.23 96.9299 115.32 89.3799 107.69Z" fill="white"/>
    <path d="M94.1498 239.48C92.2098 238.55 74.1299 229.59 73.1899 213.77C72.7099 205.73 76.6098 194.99 81.9598 194.69C87.2198 194.4 91.6098 204.31 92.0298 205.29C99.9798 194.54 111.42 191.19 117.47 194.95C123.95 198.98 123.24 210.4 121.54 216.51C116.77 233.7 95.8998 239.05 94.1498 239.47V239.48Z" fill="#180027"/>
    <path d="M107.5 294.82C113.08 302.62 126.53 318.8 155.49 327.44C196.32 339.63 245.82 323.29 248.44 304.34C252.84 272.58 128.95 209.15 82.5699 245.07C72.8599 252.59 64.5099 266.04 62.9599 280.58C60.6499 302.22 72.5599 328.6 89.4999 331.4C98.0099 332.8 106.36 328.02 108.33 326.89C117.53 321.62 121.53 313.69 122.8 310.86" fill="white"/>
    <path d="M107.5 294.82C113.08 302.62 126.53 318.8 155.49 327.44C196.32 339.63 245.82 323.29 248.44 304.34C252.84 272.58 128.95 209.15 82.5699 245.07C72.8599 252.59 64.5099 266.04 62.9599 280.58C60.6499 302.22 72.5599 328.6 89.4999 331.4C98.0099 332.8 106.36 328.02 108.33 326.89C117.53 321.62 121.53 313.69 122.8 310.86" stroke="#180027" stroke-width="12.61" stroke-linecap="round" stroke-linejoin="round"/>
    <path d="M90.6599 188C100.33 188 108.17 178.652 108.17 167.12C108.17 155.589 100.33 146.24 90.6599 146.24C80.9894 146.24 73.1499 155.589 73.1499 167.12C73.1499 178.652 80.9894 188 90.6599 188Z" fill="#180027"/>
    </g>
    <defs>
    <clipPath id="clip0_319_515">
    <rect width="425.76" height="836.42" fill="white"/>
    </clipPath>
    </defs>
</svg>
