<svg width="462" height="787" viewBox="0 0 462 787" fill="none" xmlns="http://www.w3.org/2000/svg">
    <g clip-path="url(#clip0_319_619)">
    <path d="M81.1497 441.58C75.0397 433.65 78.4397 414.81 95.6297 404.74C91.5397 403.34 83.2598 399.76 79.9398 391.91C74.3098 378.56 86.3597 360.69 100.82 354.36C112.28 349.35 123.37 352.41 127.18 353.65C132.74 328.97 155.66 318.01 168.99 323.5C180.01 328.04 187.64 345.13 183 363.57C194.96 360.4 206.3 366.3 209.29 374.51C212.83 384.25 205.2 398.79 190.08 401.38C201.63 410.03 205.56 424.63 200.71 435.13C194.55 448.45 174.37 454.9 158.2 444.34C157.67 456.29 147.68 465.35 136.87 465.01C125.16 464.64 115.31 453.34 117.11 440.46C103.13 450.62 86.7297 448.85 81.1297 441.59L81.1497 441.58Z" fill="#CBC5F2" stroke="#180027" stroke-width="10.22" stroke-linejoin="round"/>
    <path d="M415.53 772.3L115.16 780.52L151.34 339.46C203.13 328.08 254.91 316.7 306.7 305.33C324.84 383.16 342.98 460.99 361.12 538.82C379.26 616.65 397.4 694.48 415.54 772.31L415.53 772.3Z" fill="#FFFEFB" stroke="#180027" stroke-width="11.04" stroke-linecap="round" stroke-linejoin="round"/>
    <path d="M337.57 774.13L198.77 778.23C195.27 646.29 191.76 514.35 188.26 382.41C195.37 385.04 211.15 389.79 231.04 386.58C251.24 383.33 264.88 373.61 270.78 368.84C298.82 503.93 309.54 639.03 337.58 774.12L337.57 774.13Z" fill="white" stroke="#180027" stroke-width="11" stroke-linecap="round" stroke-linejoin="round"/>
    <path d="M266.91 416.01C260.8 408.08 264.2 389.24 281.39 379.17C277.3 377.77 269.02 374.19 265.7 366.34C260.07 352.99 272.119 335.12 286.579 328.79C298.039 323.78 309.13 326.84 312.94 328.08C318.5 303.4 341.42 292.44 354.75 297.93C365.77 302.47 373.4 319.56 368.76 338C380.72 334.83 392.059 340.73 395.049 348.94C398.589 358.68 390.96 373.22 375.84 375.81C387.39 384.46 391.32 399.06 386.47 409.56C380.31 422.88 360.13 429.33 343.96 418.77C343.43 430.72 333.44 439.78 322.63 439.44C310.92 439.07 301.07 427.77 302.87 414.89C288.89 425.05 272.49 423.28 266.89 416.02L266.91 416.01Z" fill="#CBC5F2" stroke="#180027" stroke-width="10.22" stroke-linejoin="round"/>
    <path d="M217.599 179.46C217.709 164.05 201.419 148.62 181.519 151.51C184.039 145.43 187.349 136.18 189.389 124.58C191.069 115.06 203.009 47.29 159.959 18.39C132.889 0.210014 93.6791 3.84002 68.4891 21.93C24.4991 53.52 35.7291 120.25 38.1391 134.6C41.8691 156.76 50.0991 173.86 56.4291 184.72C42.2791 191.16 35.9391 205.93 39.5791 216.3C43.8891 228.59 62.8891 236.66 79.6491 227.13C75.3091 244.74 83.1191 262.07 96.1891 268.41C112.779 276.45 137.549 266.66 144.859 243.51C154.889 254.71 171.819 255.56 182.059 246.62C193.149 236.94 193.729 218.1 181.719 207.01C201.379 209.75 217.489 194.68 217.599 179.46Z" fill="#CBC5F2" stroke="#180027" stroke-width="12.85" stroke-linejoin="round"/>
    <path d="M326.209 245.83C318.439 268.26 310.669 290.7 302.899 313.13C286.479 324.26 254.069 342.8 209.689 346.58C186.809 348.53 167.209 346.01 152.629 342.84C138.079 327.31 123.539 311.77 108.989 296.24C181.399 279.44 253.809 262.63 326.209 245.83Z" fill="#3CE8A5" stroke="#180027" stroke-width="11.04" stroke-miterlimit="10"/>
    <path d="M348.62 165.36C348.62 80.0296 278.4 9.80957 193.07 9.80957C142.86 9.80957 95.5995 35.8196 68.3195 72.8996C38.2895 113.72 37.5395 160.15 37.5195 165.36C19.9695 182.91 8.25953 194.62 5.93953 205.99C5.16953 209.75 3.72953 221.79 19.6195 239.48C60.7195 297.33 127.28 328.8 193.06 320.9C264.86 312.28 348.61 255.22 348.61 165.35L348.62 165.36Z" fill="#FFFEFB" stroke="#180027" stroke-width="11.04" stroke-miterlimit="10"/>
    <path d="M76.9794 245.01C76.9794 245.01 88.8594 259.76 120.999 245.93C153.139 232.1 103.879 220.86 103.879 220.86C103.879 220.86 74.7094 224.21 76.9794 245.01Z" fill="#CBC5F2" stroke="#180027" stroke-width="9.97" stroke-miterlimit="10"/>
    <path d="M127.86 159.47C132.09 160.69 145.19 164.76 168.75 180.63C187.81 193.47 197.35 199.89 198.68 207.17C201.39 221.92 185.75 237.69 172.36 244.5C153.67 254.01 134.47 248.52 122.64 245.19C107.05 240.8 95.1597 233.07 86.8797 226.15C86.1997 228.24 83.7897 234.78 77.3497 237.98C67.3897 242.92 56.7197 235.45 54.9797 234.23C54.9797 234.23 48.6097 229.69 45.1797 222.02C41.4097 213.57 51.0997 195.74 62.3497 182.67C71.1397 172.46 84.1697 157.33 104.37 155.62C112.25 154.95 117.95 156.61 127.85 159.48L127.86 159.47Z" fill="#CBC5F2" stroke="#180027" stroke-width="9.97" stroke-linejoin="round"/>
    <path d="M78.0293 203.22C61.3593 199.46 50.0493 189.24 49.5993 178.56C49.3593 172.8 52.1193 163.16 59.3493 161.65C64.5893 160.55 70.7893 164.01 74.3893 170.36C81.5493 159.62 92.4293 155.86 98.4393 159.21C104.879 162.8 104.719 173.84 103.369 179.81C99.5693 196.6 79.6893 202.74 78.0293 203.23V203.22Z" fill="#180027"/>
    <path d="M454.46 182.1C452.51 166.82 434.31 153.7 414.97 159.21C416.66 152.85 418.7 143.24 419.18 131.47C419.57 121.82 422.36 53.0604 375.84 30.1504C346.59 15.7504 308.21 24.5804 285.66 45.8804C246.29 83.0604 266.32 147.69 270.63 161.6C277.28 183.06 287.72 198.91 295.44 208.83C282.28 217.1 277.97 232.58 282.96 242.38C288.87 253.98 308.78 259.44 324.12 247.76C322.17 265.79 332.22 281.92 346.03 286.46C363.55 292.22 386.79 279.2 390.94 255.29C402.37 265.05 419.27 263.63 428.23 253.4C437.93 242.33 435.99 223.58 422.6 214.19C442.45 214.29 456.4 197.19 454.48 182.09L454.46 182.1Z" fill="#CBC5F2" stroke="#180027" stroke-width="12.85" stroke-linejoin="round"/>
    <path d="M198.569 139.07C209.079 139.07 217.599 129.954 217.599 118.71C217.599 107.465 209.079 98.3496 198.569 98.3496C188.059 98.3496 179.539 107.465 179.539 118.71C179.539 129.954 188.059 139.07 198.569 139.07Z" fill="#180027"/>
    <path d="M78.3298 140.39C87.437 140.39 94.8198 131.274 94.8198 120.03C94.8198 108.785 87.437 99.6699 78.3298 99.6699C69.2227 99.6699 61.8398 108.785 61.8398 120.03C61.8398 131.274 69.2227 140.39 78.3298 140.39Z" fill="#180027"/>
    </g>
    <defs>
    <clipPath id="clip0_319_619">
    <rect width="461.06" height="786.04" fill="white"/>
    </clipPath>
    </defs>
</svg>
