<svg width="462" height="787" viewBox="0 0 462 787" fill="none" xmlns="http://www.w3.org/2000/svg">
    <g clip-path="url(#clip0_308_236)">
    <path d="M77.35 441.58C71.24 433.65 74.64 414.81 91.83 404.74C87.74 403.34 79.46 399.76 76.14 391.91C70.51 378.56 82.56 360.69 97.02 354.36C108.48 349.35 119.57 352.41 123.38 353.65C128.94 328.97 151.86 318.01 165.19 323.5C176.21 328.04 183.84 345.13 179.2 363.57C191.16 360.4 202.5 366.3 205.49 374.51C209.03 384.25 201.4 398.79 186.28 401.38C197.83 410.03 201.76 424.63 196.91 435.13C190.75 448.45 170.57 454.9 154.4 444.34C153.87 456.29 143.88 465.35 133.07 465.01C121.36 464.64 111.51 453.34 113.31 440.46C99.33 450.62 82.93 448.85 77.33 441.59L77.35 441.58Z" fill="#CBC5F2" stroke="#180027" stroke-width="10.22" stroke-linejoin="round"/>
    <path d="M411.73 772.3L111.36 780.52L147.54 339.46C199.33 328.08 251.11 316.7 302.9 305.33C321.04 383.16 339.18 460.99 357.32 538.82C375.46 616.65 393.6 694.48 411.74 772.31L411.73 772.3Z" fill="#FFFEFB" stroke="#180027" stroke-width="11.04" stroke-linecap="round" stroke-linejoin="round"/>
    <path d="M333.77 774.13L194.97 778.23C191.47 646.29 187.96 514.35 184.46 382.41C191.57 385.04 207.35 389.79 227.24 386.58C247.44 383.33 261.08 373.61 266.98 368.84C295.02 503.93 305.74 639.03 333.78 774.12L333.77 774.13Z" fill="white" stroke="#180027" stroke-width="11" stroke-linecap="round" stroke-linejoin="round"/>
    <path d="M263.11 416.01C257 408.08 260.4 389.24 277.59 379.17C273.5 377.77 265.22 374.19 261.9 366.34C256.27 352.99 268.32 335.12 282.78 328.79C294.24 323.78 305.33 326.84 309.14 328.08C314.7 303.4 337.62 292.44 350.95 297.93C361.97 302.47 369.6 319.56 364.96 338C376.92 334.83 388.26 340.73 391.25 348.94C394.79 358.68 387.16 373.22 372.04 375.81C383.59 384.46 387.52 399.06 382.67 409.56C376.51 422.88 356.33 429.33 340.16 418.77C339.63 430.72 329.64 439.78 318.83 439.44C307.12 439.07 297.27 427.77 299.07 414.89C285.09 425.05 268.69 423.28 263.09 416.02L263.11 416.01Z" fill="#CBC5F2" stroke="#180027" stroke-width="10.22" stroke-linejoin="round"/>
    <path d="M217.6 179.46C217.71 164.05 201.42 148.62 181.52 151.51C184.04 145.43 187.35 136.18 189.39 124.58C191.07 115.06 203.01 47.29 159.96 18.39C132.89 0.210014 93.68 3.84002 68.49 21.93C24.5 53.52 35.73 120.25 38.14 134.6C41.87 156.76 50.1 173.86 56.43 184.72C42.28 191.16 35.94 205.93 39.58 216.3C43.89 228.59 62.89 236.66 79.65 227.13C75.31 244.74 83.12 262.07 96.19 268.41C112.78 276.45 137.55 266.66 144.86 243.51C154.89 254.71 171.82 255.56 182.06 246.62C193.15 236.94 193.73 218.1 181.72 207.01C201.38 209.75 217.49 194.68 217.6 179.46Z" fill="#CBC5F2" stroke="#180027" stroke-width="12.85" stroke-linejoin="round"/>
    <path d="M326.21 245.83C318.44 268.26 310.67 290.7 302.9 313.13C286.48 324.26 254.07 342.8 209.69 346.58C186.81 348.53 167.21 346.01 152.63 342.84C138.08 327.31 123.54 311.77 108.99 296.24C181.4 279.44 253.81 262.63 326.21 245.83Z" fill="#3CE8A5" stroke="#180027" stroke-width="11.04" stroke-miterlimit="10"/>
    <path d="M348.62 165.36C348.62 80.0296 278.4 9.80957 193.07 9.80957C142.86 9.80957 95.6 35.8196 68.32 72.8996C38.29 113.72 37.54 160.15 37.52 165.36C19.97 182.91 8.25999 194.62 5.93999 205.99C5.16999 209.75 3.72999 221.79 19.62 239.48C60.72 297.33 127.28 328.8 193.06 320.9C264.86 312.28 348.61 255.22 348.61 165.35L348.62 165.36Z" fill="#FFFEFB" stroke="#180027" stroke-width="11.04" stroke-miterlimit="10"/>
    <path d="M216.88 132.96C228.981 132.96 238.79 129.329 238.79 124.85C238.79 120.371 228.981 116.74 216.88 116.74C204.779 116.74 194.97 120.371 194.97 124.85C194.97 129.329 204.779 132.96 216.88 132.96Z" fill="#180027"/>
    <path d="M99.75 132.96C111.851 132.96 121.66 129.329 121.66 124.85C121.66 120.371 111.851 116.74 99.75 116.74C87.6494 116.74 77.84 120.371 77.84 124.85C77.84 129.329 87.6494 132.96 99.75 132.96Z" fill="#180027"/>
    <path d="M76.98 245.01C76.98 245.01 88.86 259.76 121 245.93C153.14 232.1 103.88 220.86 103.88 220.86C103.88 220.86 74.71 224.21 76.98 245.01Z" fill="#CBC5F2" stroke="#180027" stroke-width="9.97" stroke-miterlimit="10"/>
    <path d="M127.86 159.47C132.09 160.69 145.19 164.76 168.75 180.63C187.81 193.47 197.35 199.89 198.68 207.17C201.39 221.92 185.75 237.69 172.36 244.5C153.67 254.01 134.47 248.52 122.64 245.19C107.05 240.8 95.16 233.07 86.88 226.15C86.2 228.24 83.79 234.78 77.35 237.98C67.39 242.92 56.72 235.45 54.98 234.23C54.98 234.23 48.61 229.69 45.18 222.02C41.41 213.57 51.1 195.74 62.35 182.67C71.14 172.46 84.17 157.33 104.37 155.62C112.25 154.95 117.95 156.61 127.85 159.48L127.86 159.47Z" fill="#CBC5F2" stroke="#180027" stroke-width="9.97" stroke-linejoin="round"/>
    <path d="M78.03 203.22C61.36 199.46 50.05 189.24 49.6 178.56C49.36 172.8 52.12 163.16 59.35 161.65C64.59 160.55 70.79 164.01 74.39 170.36C81.55 159.62 92.43 155.86 98.44 159.21C104.88 162.8 104.72 173.84 103.37 179.81C99.57 196.6 79.69 202.74 78.03 203.23V203.22Z" fill="#180027"/>
    <path d="M454.46 182.1C452.51 166.82 434.31 153.7 414.97 159.21C416.66 152.85 418.7 143.24 419.18 131.47C419.57 121.82 422.36 53.0604 375.84 30.1504C346.59 15.7504 308.21 24.5804 285.66 45.8804C246.29 83.0604 266.32 147.69 270.63 161.6C277.28 183.06 287.72 198.91 295.44 208.83C282.28 217.1 277.97 232.58 282.96 242.38C288.87 253.98 308.78 259.44 324.12 247.76C322.17 265.79 332.22 281.92 346.03 286.46C363.55 292.22 386.79 279.2 390.94 255.29C402.37 265.05 419.27 263.63 428.23 253.4C437.93 242.33 435.99 223.58 422.6 214.19C442.45 214.29 456.4 197.19 454.48 182.09L454.46 182.1Z" fill="#CBC5F2" stroke="#180027" stroke-width="12.85" stroke-linejoin="round"/>
    </g>
    <defs>
    <clipPath id="clip0_308_236">
    <rect width="461.06" height="786.04" fill="white"/>
    </clipPath>
    </defs>
</svg>
