<svg width="462" height="949" viewBox="0 0 462 949" fill="none" xmlns="http://www.w3.org/2000/svg">
    <g clip-path="url(#clip0_319_636)">
    <path d="M80.6898 604.54C74.5798 596.61 77.9798 577.77 95.1698 567.7C91.0798 566.3 82.7998 562.72 79.4798 554.87C73.8498 541.52 85.8998 523.65 100.36 517.32C111.82 512.31 122.91 515.37 126.72 516.61C132.28 491.93 155.2 480.97 168.53 486.46C179.55 491 187.18 508.09 182.54 526.53C194.5 523.36 205.84 529.26 208.83 537.47C212.37 547.21 204.74 561.75 189.62 564.34C201.17 572.99 205.1 587.59 200.25 598.09C194.09 611.41 173.91 617.86 157.74 607.3C157.21 619.25 147.22 628.31 136.41 627.97C124.7 627.6 114.85 616.3 116.65 603.42C102.67 613.58 86.2698 611.81 80.6698 604.55L80.6898 604.54Z" fill="#CBC5F2" stroke="#180027" stroke-width="10.22" stroke-linejoin="round"/>
    <path d="M415.08 935.27L114.71 943.49L150.89 502.43C202.68 491.05 254.46 479.67 306.25 468.3C324.39 546.13 342.53 623.96 360.67 701.79C378.81 779.62 396.95 857.45 415.09 935.28L415.08 935.27Z" fill="#FFFEFB" stroke="#180027" stroke-width="11.04" stroke-linecap="round" stroke-linejoin="round"/>
    <path d="M337.12 937.09L198.32 941.19C194.82 809.25 191.31 677.31 187.81 545.37C194.92 548 210.7 552.75 230.59 549.54C250.79 546.29 264.43 536.57 270.33 531.8C298.37 666.89 309.09 801.99 337.13 937.08L337.12 937.09Z" fill="white" stroke="#180027" stroke-width="11" stroke-linecap="round" stroke-linejoin="round"/>
    <path d="M266.459 578.97C260.349 571.04 263.749 552.2 280.939 542.13C276.849 540.73 268.569 537.15 265.249 529.3C259.619 515.95 271.669 498.08 286.129 491.75C297.589 486.74 308.679 489.8 312.489 491.04C318.049 466.36 340.969 455.4 354.299 460.89C365.319 465.43 372.949 482.52 368.309 500.96C380.269 497.79 391.609 503.69 394.599 511.9C398.139 521.64 390.509 536.18 375.389 538.77C386.939 547.42 390.869 562.02 386.019 572.52C379.859 585.84 359.679 592.29 343.509 581.73C342.979 593.68 332.989 602.74 322.179 602.4C310.469 602.03 300.619 590.73 302.419 577.85C288.439 588.01 272.039 586.24 266.439 578.98L266.459 578.97Z" fill="#CBC5F2" stroke="#180027" stroke-width="10.22" stroke-linejoin="round"/>
    <path d="M427.26 138.51C425.56 137.7 409.73 129.85 408.91 116C408.49 108.96 411.9 99.5495 416.59 99.2895C421.19 99.0295 425.04 107.72 425.41 108.57C432.37 99.1595 442.39 96.2195 447.69 99.5195C453.37 103.05 452.74 113.05 451.26 118.4C447.08 133.45 428.8 138.14 427.27 138.51H427.26Z" fill="#F93267" stroke="#180027" stroke-width="8" stroke-linecap="round" stroke-linejoin="round"/>
    <path d="M314.529 88.9098C311.119 87.2798 279.319 71.5198 277.669 43.6998C276.829 29.5598 283.679 10.6698 293.089 10.1498C302.329 9.6298 310.059 27.0798 310.799 28.7898C324.769 9.8798 344.909 3.9998 355.539 10.6098C366.939 17.6998 365.679 37.7798 362.699 48.5198C354.309 78.7398 317.599 88.1598 314.529 88.8998V88.9098Z" fill="#F93267" stroke="#180027" stroke-width="16" stroke-linecap="round" stroke-linejoin="round"/>
    <path d="M195.459 98.2195C193.759 97.4095 177.929 89.5595 177.109 75.7095C176.689 68.6695 180.099 59.2595 184.789 58.9995C189.389 58.7395 193.239 67.4295 193.609 68.2795C200.569 58.8695 210.589 55.9295 215.889 59.2295C221.569 62.7595 220.939 72.7595 219.459 78.1095C215.279 93.1595 196.999 97.8495 195.469 98.2195H195.459Z" fill="#F93267" stroke="#180027" stroke-width="8" stroke-linecap="round" stroke-linejoin="round"/>
    <path d="M217.599 342.42C217.709 327.01 201.419 311.58 181.519 314.47C184.039 308.39 187.349 299.14 189.389 287.54C191.069 278.02 203.009 210.25 159.959 181.35C132.889 163.17 93.6791 166.81 68.4891 184.9C24.4991 216.49 35.7291 283.22 38.1391 297.57C41.8691 319.73 50.0991 336.83 56.4291 347.69C42.2791 354.13 35.9391 368.9 39.5791 379.27C43.8891 391.56 62.8891 399.63 79.6491 390.1C75.3091 407.71 83.1191 425.04 96.1891 431.38C112.779 439.42 137.549 429.63 144.859 406.48C154.889 417.68 171.819 418.53 182.059 409.59C193.149 399.91 193.729 381.07 181.719 369.98C201.379 372.72 217.489 357.65 217.599 342.43V342.42Z" fill="#CBC5F2" stroke="#180027" stroke-width="12.85" stroke-linejoin="round"/>
    <path d="M326.209 408.79C318.439 431.22 310.669 453.66 302.899 476.09C286.479 487.22 254.069 505.76 209.689 509.54C186.809 511.49 167.209 508.97 152.629 505.8C138.079 490.27 123.539 474.73 108.989 459.2C181.399 442.4 253.809 425.59 326.209 408.79Z" fill="#3CE8A5" stroke="#180027" stroke-width="11.04" stroke-miterlimit="10"/>
    <path d="M348.62 328.32C348.62 242.99 278.4 172.77 193.07 172.77C142.86 172.77 95.5995 198.78 68.3195 235.86C38.2895 276.68 37.5395 323.11 37.5195 328.32C19.9695 345.87 8.25953 357.58 5.93953 368.95C5.16953 372.71 3.72953 384.75 19.6195 402.44C60.7195 460.29 127.28 491.759 193.06 483.859C264.86 475.239 348.61 418.18 348.61 328.31L348.62 328.32Z" fill="#FFFEFB" stroke="#180027" stroke-width="11.04" stroke-miterlimit="10"/>
    <path d="M76.9794 407.969C76.9794 407.969 88.8594 422.719 120.999 408.889C153.139 395.059 103.879 383.819 103.879 383.819C103.879 383.819 74.7094 387.169 76.9794 407.969Z" fill="#CBC5F2" stroke="#180027" stroke-width="9.97" stroke-miterlimit="10"/>
    <path d="M127.86 322.43C132.09 323.65 145.19 327.72 168.75 343.59C187.81 356.43 197.35 362.85 198.68 370.13C201.39 384.88 185.75 400.65 172.36 407.46C153.67 416.97 134.47 411.48 122.64 408.15C107.05 403.76 95.1597 396.03 86.8797 389.11C86.1997 391.2 83.7897 397.74 77.3497 400.94C67.3897 405.88 56.7197 398.41 54.9797 397.19C54.9797 397.19 48.6097 392.65 45.1797 384.98C41.4097 376.53 51.0997 358.7 62.3497 345.63C71.1397 335.42 84.1697 320.29 104.37 318.58C112.25 317.91 117.95 319.57 127.85 322.44L127.86 322.43Z" fill="#CBC5F2" stroke="#180027" stroke-width="9.97" stroke-linejoin="round"/>
    <path d="M78.0293 366.19C61.3593 362.43 50.0493 352.21 49.5993 341.53C49.3593 335.77 52.1193 326.13 59.3493 324.62C64.5893 323.52 70.7893 326.98 74.3893 333.33C81.5493 322.59 92.4293 318.83 98.4393 322.18C104.879 325.77 104.719 336.81 103.369 342.78C99.5693 359.57 79.6893 365.71 78.0293 366.2V366.19Z" fill="#180027"/>
    <path d="M454.46 345.07C452.51 329.79 434.31 316.67 414.97 322.18C416.66 315.82 418.7 306.21 419.18 294.44C419.57 284.79 422.36 216.03 375.84 193.12C346.59 178.72 308.21 187.55 285.66 208.85C246.29 246.03 266.32 310.66 270.63 324.57C277.28 346.03 287.72 361.88 295.44 371.8C282.28 380.07 277.97 395.55 282.96 405.35C288.87 416.95 308.78 422.41 324.12 410.73C322.17 428.76 332.22 444.89 346.03 449.43C363.55 455.19 386.79 442.17 390.94 418.26C402.37 428.02 419.27 426.6 428.23 416.37C437.93 405.3 435.99 386.55 422.6 377.16C442.45 377.26 456.4 360.16 454.48 345.06L454.46 345.07Z" fill="#CBC5F2" stroke="#180027" stroke-width="12.85" stroke-linejoin="round"/>
    <path d="M75.0295 303.36C73.3295 302.55 57.4995 294.7 56.6795 280.85C56.2595 273.81 59.6695 264.4 64.3595 264.14C68.9595 263.88 72.8095 272.57 73.1795 273.42C80.1395 264.01 90.1595 261.07 95.4595 264.37C101.14 267.9 100.51 277.9 99.0295 283.25C94.8495 298.3 76.5695 302.99 75.0395 303.36H75.0295Z" fill="#F93267" stroke="#180027" stroke-width="8" stroke-linecap="round" stroke-linejoin="round"/>
    <path d="M200.249 303.36C198.549 302.55 182.719 294.7 181.899 280.85C181.479 273.81 184.889 264.4 189.579 264.14C194.179 263.88 198.029 272.57 198.399 273.42C205.359 264.01 215.379 261.07 220.679 264.37C226.359 267.9 225.729 277.9 224.249 283.25C220.069 298.3 201.789 302.99 200.259 303.36H200.249Z" fill="#F93267" stroke="#180027" stroke-width="8" stroke-linecap="round" stroke-linejoin="round"/>
    </g>
    <defs>
    <clipPath id="clip0_319_636">
    <rect width="461.06" height="949.01" fill="white"/>
    </clipPath>
    </defs>
</svg>
