<svg width="686" height="655" viewBox="0 0 686 655" fill="none" xmlns="http://www.w3.org/2000/svg">
    <g clip-path="url(#clip0_310_384)">
    <path d="M262.4 127.41C192.63 27.4999 191.73 10.9399 178.78 11.1599C131.26 11.9599 46.5499 236.72 131.64 308.64C165.53 337.28 229.87 344.67 269.34 312.62C307.88 281.32 308.65 223.84 299.19 189.34C294.14 170.91 287.25 162.99 262.4 127.4V127.41Z" fill="#CE9463" stroke="#180027" stroke-width="22.31" stroke-miterlimit="10"/>
    <path d="M570.18 480.64C557.57 517.04 544.96 553.45 532.35 589.85C505.71 607.91 453.12 637.99 381.1 644.13C343.97 647.29 312.17 643.2 288.51 638.05C264.91 612.85 241.3 587.64 217.7 562.43C335.19 535.17 452.69 507.9 570.18 480.64Z" fill="#CBC5F2" stroke="#180027" stroke-width="17.92" stroke-miterlimit="10"/>
    <path d="M606.54 350.07C606.54 211.61 492.6 97.6699 354.14 97.6699C272.67 97.6699 195.98 139.87 151.72 200.04C103 266.28 101.77 341.62 101.74 350.07C73.2602 378.55 54.2702 397.55 50.5002 416C49.2502 422.1 46.9102 441.64 72.7102 470.35C139.39 564.21 247.41 615.28 354.15 602.47C470.66 588.48 606.55 495.89 606.55 350.07H606.54Z" fill="#CE9463" stroke="#180027" stroke-width="17.92" stroke-miterlimit="10"/>
    <path d="M632.82 151.92C563.05 52.0101 562.15 35.4501 549.2 35.6701C501.68 36.4701 416.97 261.23 502.06 333.15C535.95 361.79 600.29 369.18 639.76 337.13C678.3 305.83 679.07 248.35 669.61 213.85C664.56 195.42 657.67 187.5 632.82 151.91V151.92Z" fill="#CE9463" stroke="#180027" stroke-width="22.31" stroke-miterlimit="10"/>
    <path d="M188.39 174.74C207.92 156.84 242.49 130.33 291.72 116.32C308.98 111.41 339.98 104.63 378.12 108.18C401.59 110.36 422.3 110.67 425.53 120.29C430.01 133.64 395.22 146.18 363.62 186.51C352.87 200.23 315.96 247.35 325.7 295.08C331.81 325 357.55 326.39 363.31 360.07C364.44 366.68 370.72 396.19 354.08 417.1C336.83 438.77 300.35 444.68 264.55 430.43C225.78 434.13 187.02 437.84 148.25 441.54C144.79 421.81 143.45 394.11 158.09 370.11C171.86 347.52 190.12 344.04 202.71 330.11C220 310.98 228.39 270.16 188.38 174.74H188.39Z" fill="white"/>
    <path d="M392.77 297.5C412.409 297.5 428.33 291.608 428.33 284.34C428.33 277.072 412.409 271.18 392.77 271.18C373.131 271.18 357.21 277.072 357.21 284.34C357.21 291.608 373.131 297.5 392.77 297.5Z" fill="#180027"/>
    <path d="M202.72 297.5C222.359 297.5 238.28 291.608 238.28 284.34C238.28 277.072 222.359 271.18 202.72 271.18C183.081 271.18 167.16 277.072 167.16 284.34C167.16 291.608 183.081 297.5 202.72 297.5Z" fill="#180027"/>
    <path d="M324.07 295.38H238.55" stroke="#180027" stroke-width="16.28" stroke-linecap="round" stroke-linejoin="bevel"/>
    <path d="M123.47 403.03C187.165 403.03 238.8 351.395 238.8 287.7C238.8 224.005 187.165 172.37 123.47 172.37C59.7751 172.37 8.14014 224.005 8.14014 287.7C8.14014 351.395 59.7751 403.03 123.47 403.03Z" stroke="#180027" stroke-width="16.28" stroke-linecap="round" stroke-linejoin="bevel"/>
    <path d="M438.34 403.03C502.035 403.03 553.67 351.395 553.67 287.7C553.67 224.005 502.035 172.37 438.34 172.37C374.645 172.37 323.01 224.005 323.01 287.7C323.01 351.395 374.645 403.03 438.34 403.03Z" stroke="#180027" stroke-width="16.28" stroke-linecap="round" stroke-linejoin="bevel"/>
    <path opacity="0.5" d="M123.47 403.03C187.165 403.03 238.8 351.395 238.8 287.7C238.8 224.005 187.165 172.37 123.47 172.37C59.7751 172.37 8.14014 224.005 8.14014 287.7C8.14014 351.395 59.7751 403.03 123.47 403.03Z" fill="white" stroke="#180027" stroke-width="16.28" stroke-linecap="round" stroke-linejoin="bevel"/>
    <path opacity="0.5" d="M438.34 403.03C502.035 403.03 553.67 351.395 553.67 287.7C553.67 224.005 502.035 172.37 438.34 172.37C374.645 172.37 323.01 224.005 323.01 287.7C323.01 351.395 374.645 403.03 438.34 403.03Z" fill="white" stroke="#180027" stroke-width="16.28" stroke-linecap="round" stroke-linejoin="bevel"/>
    <path d="M165.77 479.31C165.77 479.31 185.04 503.24 237.19 480.8C289.34 458.36 209.41 440.12 209.41 440.12C209.41 440.12 162.08 445.56 165.77 479.31Z" fill="#FFFEFB" stroke="#180027" stroke-width="16.18" stroke-miterlimit="10"/>
    <path d="M248.32 340.51C255.18 342.5 276.43 349.09 314.66 374.84C345.59 395.67 361.06 406.09 363.23 417.91C367.62 441.85 342.26 467.44 320.53 478.49C290.2 493.92 259.05 485.01 239.85 479.61C214.55 472.49 195.25 459.94 181.82 448.71C180.72 452.11 176.8 462.71 166.35 467.9C150.18 475.92 132.87 463.8 130.04 461.81C130.04 461.81 119.7 454.44 114.15 441.99C108.04 428.28 123.75 399.35 142.02 378.14C156.29 361.57 177.43 337.02 210.21 334.25C223 333.17 232.25 335.85 248.32 340.51Z" fill="#FFFEFB" stroke="#180027" stroke-width="16.18" stroke-linejoin="round"/>
    <path d="M167.47 411.51C140.42 405.41 122.07 388.82 121.34 371.49C120.95 362.15 125.42 346.5 137.16 344.05C145.66 342.27 155.72 347.89 161.56 358.19C173.18 340.77 190.84 334.67 200.58 340.1C211.03 345.92 210.77 363.84 208.58 373.52C202.41 400.77 170.16 410.73 167.46 411.52L167.47 411.51Z" fill="#180027"/>
    </g>
    <defs>
    <clipPath id="clip0_310_384">
    <rect width="685.8" height="654.19" fill="white"/>
    </clipPath>
    </defs>
</svg>
