<svg width="409" height="316" viewBox="0 0 409 316" fill="none" xmlns="http://www.w3.org/2000/svg">
    <path d="M66.4791 24.5593C84.3875 15.9383 109.639 19.2156 124.487 32.347C150.983 55.7824 137.113 104.231 114.85 182.175C109.484 200.961 103.257 218.453 87.7759 225.024C74.889 230.495 57.7915 227.462 46.1599 218.997C6.06591 189.807 19.2528 105.053 39.161 58.4653C46.2877 41.7956 53.981 30.575 66.4791 24.5537V24.5593Z" fill="#6D1B34" stroke="#180027" stroke-width="8" stroke-miterlimit="10"/>
    <path d="M318.219 218.863C311.193 239.155 304.16 259.446 297.134 279.738C282.28 289.808 252.968 306.572 212.824 309.994C192.127 311.761 174.402 309.478 161.215 306.606C148.056 292.558 134.897 278.504 121.743 264.456C187.239 249.259 252.729 234.061 318.225 218.863H318.219Z" fill="#CBC5F2" stroke="#180027" stroke-width="8" stroke-miterlimit="10"/>
    <path d="M338.483 146.085C338.483 68.9022 274.97 5.39502 197.793 5.39502C152.383 5.39502 109.628 28.9193 84.9594 62.4587C57.8023 99.381 57.1135 141.375 57.1024 146.085C41.227 161.961 30.6397 172.548 28.54 182.835C27.8457 186.235 26.5403 197.127 40.9159 213.131C78.0882 265.451 138.296 293.919 197.798 286.775C262.744 278.982 338.488 227.367 338.488 146.08L338.483 146.085Z" fill="#F96D5F" stroke="#180027" stroke-width="8" stroke-miterlimit="10"/>
    <path d="M296.095 48.161C309.187 33.2077 333.7 26.3143 352.508 32.5689C386.07 43.7339 392.319 93.7375 402.418 174.17C404.851 193.556 405.989 212.087 394.324 224.207C384.615 234.294 367.701 238.216 353.68 234.989C305.349 223.868 284.23 140.73 284.269 90.0714C284.285 71.9408 286.957 58.6039 296.095 48.161Z" fill="#6D1B34" stroke="#180027" stroke-width="8" stroke-miterlimit="10"/>
    <path d="M219.329 116.779C230.274 116.779 239.148 113.493 239.148 109.441C239.148 105.388 230.274 102.103 219.329 102.103C208.383 102.103 199.509 105.388 199.509 109.441C199.509 113.493 208.383 116.779 219.329 116.779Z" fill="#180027"/>
    <path d="M113.383 116.779C124.329 116.779 133.202 113.493 133.202 109.441C133.202 105.388 124.329 102.103 113.383 102.103C102.437 102.103 93.564 105.388 93.564 109.441C93.564 113.493 102.437 116.779 113.383 116.779Z" fill="#180027"/>
    <path d="M123.993 240.771C123.993 240.771 134.424 253.725 162.642 241.577C190.86 229.429 147.611 219.563 147.611 219.563C147.611 219.563 121.998 222.507 123.993 240.771Z" fill="#F4AAA6" stroke="#180027" stroke-width="8" stroke-miterlimit="10"/>
    <path d="M194.616 160.344C199.276 171.282 205.108 179.297 209.236 184.302C224.628 194.806 232.01 210.459 228.105 222.479C224.728 232.883 213.846 237.649 207.741 240.327C189.822 248.176 172.424 243.276 164.081 240.932C150.389 237.077 139.946 230.289 132.68 224.213C132.086 226.051 129.964 231.789 124.309 234.6C115.561 238.944 106.195 232.378 104.662 231.306C103.213 230.289 98.4911 226.734 96.0581 220.58C89.9423 205.099 101.574 184.468 112.595 172.554C116.977 167.815 123.543 160.239 130.436 150.074C139.735 136.365 140.363 131.621 146.945 127.705C157.477 121.445 174.146 122.711 183.162 131.165C190.161 137.725 187.822 144.402 194.61 160.344H194.616Z" fill="#F4AAA6" stroke="#180027" stroke-width="8" stroke-miterlimit="10"/>
    <path d="M131.936 224.446C117.299 221.147 107.367 212.17 106.973 202.788C106.762 197.733 109.184 189.262 115.538 187.935C120.138 186.974 125.581 190.012 128.742 195.584C135.03 186.157 144.584 182.852 149.861 185.791C155.516 188.94 155.377 198.633 154.188 203.877C150.85 218.625 133.397 224.013 131.936 224.441V224.446Z" fill="#180027"/>
    <path d="M190.321 105.13H132.508" stroke="#180027" stroke-width="8" stroke-linecap="round" stroke-linejoin="bevel"/>
    <path opacity="0.5" d="M68.5841 164.927C103.965 164.927 132.647 136.245 132.647 100.864C132.647 65.4836 103.965 36.8018 68.5841 36.8018C33.2033 36.8018 4.52148 65.4836 4.52148 100.864C4.52148 136.245 33.2033 164.927 68.5841 164.927Z" fill="white" stroke="#180027" stroke-width="8" stroke-linecap="round" stroke-linejoin="bevel"/>
    <path opacity="0.5" d="M243.486 164.927C278.867 164.927 307.549 136.245 307.549 100.864C307.549 65.4836 278.867 36.8018 243.486 36.8018C208.105 36.8018 179.423 65.4836 179.423 100.864C179.423 136.245 208.105 164.927 243.486 164.927Z" fill="white" stroke="#180027" stroke-width="8" stroke-linecap="round" stroke-linejoin="bevel"/>
    <path d="M68.5841 164.927C103.965 164.927 132.647 136.245 132.647 100.864C132.647 65.4836 103.965 36.8018 68.5841 36.8018C33.2033 36.8018 4.52148 65.4836 4.52148 100.864C4.52148 136.245 33.2033 164.927 68.5841 164.927Z" stroke="#180027" stroke-width="8" stroke-linecap="round" stroke-linejoin="bevel"/>
    <path d="M243.486 164.927C278.867 164.927 307.549 136.245 307.549 100.864C307.549 65.4836 278.867 36.8018 243.486 36.8018C208.105 36.8018 179.423 65.4836 179.423 100.864C179.423 136.245 208.105 164.927 243.486 164.927Z" stroke="#180027" stroke-width="8" stroke-linecap="round" stroke-linejoin="bevel"/>
</svg>
