<svg width="667" height="641" viewBox="0 0 667 641" fill="none" xmlns="http://www.w3.org/2000/svg">
    <g clip-path="url(#clip0_310_366)">
    <path d="M252.52 124.66C184.25 26.9102 183.37 10.7002 170.7 10.9202C124.2 11.7002 41.3202 231.62 124.58 302C157.74 330.03 220.7 337.25 259.31 305.9C297.02 275.28 297.77 219.03 288.52 185.27C283.58 167.24 276.84 159.48 252.52 124.67V124.66Z" fill="#342F38" stroke="#180027" stroke-width="21.83" stroke-miterlimit="10"/>
    <path d="M553.68 470.29C541.34 505.91 529 541.53 516.67 577.15C490.6 594.82 439.14 624.25 368.68 630.26C332.35 633.36 301.24 629.35 278.09 624.32C254.99 599.66 231.9 574.99 208.8 550.33C323.76 523.65 438.73 496.97 553.69 470.3L553.68 470.29Z" fill="#180027" stroke="#180027" stroke-width="17.53" stroke-miterlimit="10"/>
    <path d="M589.25 342.54C589.25 207.06 477.77 95.5801 342.29 95.5801C262.58 95.5801 187.53 136.87 144.23 195.75C96.5599 260.56 95.3499 334.28 95.3299 342.55C67.4599 370.42 48.8799 389 45.1899 407.06C43.9699 413.02 41.6799 432.15 66.9199 460.24C132.17 552.08 237.86 602.05 342.3 589.52C456.3 575.84 589.26 485.24 589.26 342.55L589.25 342.54Z" fill="#E09A69" stroke="#180027" stroke-width="17.53" stroke-miterlimit="10"/>
    <path d="M614.97 148.65C546.7 50.8999 545.82 34.6899 533.15 34.8999C486.65 35.6799 403.77 255.6 487.03 325.98C520.19 354.01 583.15 361.23 621.76 329.88C659.47 299.26 660.22 243.01 650.97 209.25C646.03 191.22 639.29 183.46 614.97 148.65Z" fill="#342F38" stroke="#180027" stroke-width="21.83" stroke-miterlimit="10"/>
    <path d="M105.48 326.41C102.41 319.49 103.8 312.04 106.72 297.42C113.14 265.25 119.29 234.92 144.62 211.06C156.95 199.45 186.23 177.69 204.45 186.96C215.08 192.37 212.85 203.71 228.92 233.84C241.34 257.14 248.24 270.09 258.52 271.6C276.22 274.2 283.81 239.93 316.89 209.84C361.14 169.58 429.9 156.02 444.45 174.66C448.54 179.9 445.41 183.92 443.87 204.13C441.62 233.78 437.95 282.06 461.47 304.26C467.58 310.02 479.78 320.05 481.59 334.27C481.7 335.17 481.63 336.12 481.35 337.19C475.55 359.18 400.35 347.09 304.82 364.08C257.93 372.42 220.11 385.28 194.12 395.59C189.44 387.17 181.37 375.06 168.06 364.53C140.82 342.97 114.05 345.74 105.47 326.42L105.48 326.41Z" fill="#342F38"/>
    <path d="M380.09 291.1C399.304 291.1 414.88 285.333 414.88 278.22C414.88 271.106 399.304 265.34 380.09 265.34C360.876 265.34 345.3 271.106 345.3 278.22C345.3 285.333 360.876 291.1 380.09 291.1Z" fill="#180027"/>
    <path d="M194.12 291.1C213.334 291.1 228.91 285.333 228.91 278.22C228.91 271.106 213.334 265.34 194.12 265.34C174.906 265.34 159.33 271.106 159.33 278.22C159.33 285.333 174.906 291.1 194.12 291.1Z" fill="#180027"/>
    <path d="M324.07 288.68H238.55" stroke="#180027" stroke-width="16.28" stroke-linecap="round" stroke-linejoin="bevel"/>
    <path d="M123.47 396.33C187.165 396.33 238.8 344.695 238.8 281C238.8 217.305 187.165 165.67 123.47 165.67C59.7751 165.67 8.14014 217.305 8.14014 281C8.14014 344.695 59.7751 396.33 123.47 396.33Z" stroke="#180027" stroke-width="16.28" stroke-linecap="round" stroke-linejoin="bevel"/>
    <path d="M438.34 396.33C502.035 396.33 553.67 344.695 553.67 281C553.67 217.305 502.035 165.67 438.34 165.67C374.645 165.67 323.01 217.305 323.01 281C323.01 344.695 374.645 396.33 438.34 396.33Z" stroke="#180027" stroke-width="16.28" stroke-linecap="round" stroke-linejoin="bevel"/>
    <path opacity="0.5" d="M123.47 396.33C187.165 396.33 238.8 344.695 238.8 281C238.8 217.305 187.165 165.67 123.47 165.67C59.7751 165.67 8.14014 217.305 8.14014 281C8.14014 344.695 59.7751 396.33 123.47 396.33Z" fill="white" stroke="#180027" stroke-width="16.28" stroke-linecap="round" stroke-linejoin="bevel"/>
    <path opacity="0.5" d="M438.34 396.33C502.035 396.33 553.67 344.695 553.67 281C553.67 217.305 502.035 165.67 438.34 165.67C374.645 165.67 323.01 217.305 323.01 281C323.01 344.695 374.645 396.33 438.34 396.33Z" fill="white" stroke="#180027" stroke-width="16.28" stroke-linecap="round" stroke-linejoin="bevel"/>
    <path d="M81.93 508.5C81.93 508.5 100.25 531.82 150.83 510.76C201.41 489.7 124.5 471.18 124.5 471.18C124.5 471.18 78.77 475.88 81.93 508.49V508.5Z" fill="#342F38" stroke="#180027" stroke-width="15.62" stroke-miterlimit="10"/>
    <path d="M235.79 306.89C258.01 316.58 240.12 356.34 274.98 410.81C292.23 437.76 306.44 443.39 304.67 459.28C301.14 490.96 240.35 507.09 231.28 509.5C191.81 519.98 160.18 511.64 153.42 509.64C129.09 502.47 110.61 490.15 97.7799 479.16C96.6799 482.43 92.7699 492.62 82.6299 497.5C66.9399 505.06 50.3699 493.15 47.6699 491.21C47.6699 491.21 37.77 483.98 32.56 471.9C26.82 458.6 42.3199 430.86 60.1899 410.6C79.6799 388.5 97.8799 383.98 126.5 369.03C202.68 329.24 216.18 298.33 235.8 306.88L235.79 306.89Z" fill="#342F38" stroke="#180027" stroke-width="15.62" stroke-linejoin="round"/>
    <path d="M84.35 443.09C58.32 436.89 40.8 420.67 40.3 403.94C40.03 394.92 44.53 379.87 55.89 377.64C64.12 376.02 73.76 381.56 79.27 391.57C90.68 374.89 107.79 369.21 117.14 374.56C127.16 380.3 126.7 397.58 124.47 406.91C118.21 433.14 86.97 442.37 84.35 443.1V443.09Z" fill="#180027"/>
    </g>
    <defs>
    <clipPath id="clip0_310_366">
    <rect width="666.81" height="640.11" fill="white"/>
    </clipPath>
    </defs>
</svg>
