<svg width="694" height="661" viewBox="0 0 694 661" fill="none" xmlns="http://www.w3.org/2000/svg">
    <g clip-path="url(#clip0_280_5)">
    <path d="M124.57 117.56C188.96 25.38 189.79 10.09 201.74 10.29C245.59 11.03 323.76 218.42 245.24 284.79C213.97 311.22 154.6 318.04 118.18 288.46C82.6101 259.58 81.9101 206.53 90.6301 174.7C95.2901 157.7 101.65 150.38 124.58 117.55L124.57 117.56Z" fill="#CBC5F2" stroke="#180027" stroke-width="20.59" stroke-miterlimit="10"/>
    <path d="M572.88 486.82C560.23 523.35 547.57 559.88 534.92 596.41C508.18 614.54 455.41 644.72 383.14 650.88C345.88 654.06 313.97 649.95 290.23 644.78C266.54 619.49 242.85 594.19 219.17 568.9C337.08 541.54 454.98 514.18 572.89 486.82H572.88Z" fill="#FF3E68" stroke="#180027" stroke-width="17.98" stroke-miterlimit="10"/>
    <path d="M609.36 355.79C609.36 216.84 495.02 102.51 356.08 102.51C274.33 102.51 197.36 144.86 152.95 205.24C104.06 271.71 102.82 347.31 102.8 355.79C74.2199 384.37 55.1599 403.43 51.3799 421.95C50.1299 428.07 47.7799 447.68 73.6599 476.49C140.58 570.68 248.97 621.93 356.09 609.07C473.01 595.04 609.37 502.12 609.37 355.78L609.36 355.79Z" fill="#CBC5F2" stroke="#180027" stroke-width="17.98" stroke-miterlimit="10"/>
    <path d="M528.77 166.43C593.15 74.2401 593.98 58.9601 605.93 59.1601C649.78 59.9001 727.95 267.29 649.43 333.66C618.16 360.09 558.79 366.91 522.37 337.33C486.8 308.45 486.1 255.4 494.82 223.57C499.48 206.57 505.84 199.25 528.77 166.42V166.43Z" fill="#CBC5F2" stroke="#180027" stroke-width="20.59" stroke-miterlimit="10"/>
    <path d="M192.1 175.11C210.72 158.05 243.67 132.77 290.61 119.41C307.06 114.73 336.62 108.27 372.98 111.65C395.35 113.73 415.1 114.02 418.18 123.19C422.45 135.92 389.28 147.87 359.16 186.32C348.91 199.4 313.72 244.32 323.01 289.82C324 294.67 333.8 314.96 358.86 351.78C368.55 366.01 380.43 384.9 394.84 411.45C406.72 433.34 415.5 451.61 420.85 463.1L153.84 429.45C211.18 393.62 244.44 332.7 238.8 271.75C234.09 220.79 203.78 186.9 192.1 175.1V175.11Z" fill="white"/>
    <path d="M204.12 303.04C223.825 303.04 239.8 297.126 239.8 289.83C239.8 282.534 223.825 276.62 204.12 276.62C184.414 276.62 168.44 282.534 168.44 289.83C168.44 297.126 184.414 303.04 204.12 303.04Z" fill="#180027"/>
    <path d="M394.85 303.04C414.555 303.04 430.53 297.126 430.53 289.83C430.53 282.534 414.555 276.62 394.85 276.62C375.144 276.62 359.17 282.534 359.17 289.83C359.17 297.126 375.144 303.04 394.85 303.04Z" fill="#180027"/>
    <path d="M324.07 282.07H238.55" stroke="#180027" stroke-width="16.28" stroke-linecap="round" stroke-linejoin="bevel"/>
    <path d="M123.47 389.72C187.165 389.72 238.8 338.085 238.8 274.39C238.8 210.695 187.165 159.06 123.47 159.06C59.7749 159.06 8.13989 210.695 8.13989 274.39C8.13989 338.085 59.7749 389.72 123.47 389.72Z" stroke="#180027" stroke-width="16.28" stroke-linecap="round" stroke-linejoin="bevel"/>
    <path d="M438.34 389.72C502.035 389.72 553.67 338.085 553.67 274.39C553.67 210.695 502.035 159.06 438.34 159.06C374.645 159.06 323.01 210.695 323.01 274.39C323.01 338.085 374.645 389.72 438.34 389.72Z" stroke="#180027" stroke-width="16.28" stroke-linecap="round" stroke-linejoin="bevel"/>
    <path opacity="0.5" d="M123.47 389.72C187.165 389.72 238.8 338.085 238.8 274.39C238.8 210.695 187.165 159.06 123.47 159.06C59.7749 159.06 8.13989 210.695 8.13989 274.39C8.13989 338.085 59.7749 389.72 123.47 389.72Z" fill="white" stroke="#180027" stroke-width="16.28" stroke-linecap="round" stroke-linejoin="bevel"/>
    <path opacity="0.5" d="M438.34 389.72C502.035 389.72 553.67 338.085 553.67 274.39C553.67 210.695 502.035 159.06 438.34 159.06C374.645 159.06 323.01 210.695 323.01 274.39C323.01 338.085 374.645 389.72 438.34 389.72Z" fill="white" stroke="#180027" stroke-width="16.28" stroke-linecap="round" stroke-linejoin="bevel"/>
    <path d="M199.49 378.99C196.49 377.56 168.52 363.69 167.07 339.22C166.33 326.78 172.36 310.17 180.63 309.71C188.76 309.26 195.56 324.6 196.21 326.11C208.5 309.48 226.21 304.3 235.56 310.12C245.59 316.36 244.48 334.02 241.86 343.47C234.48 370.06 202.19 378.34 199.49 378.99Z" fill="#180027"/>
    <path d="M220.14 464.6C228.77 476.66 249.58 501.69 294.38 515.07C357.54 533.92 434.11 508.65 438.17 479.34C444.98 430.2 253.32 332.09 181.57 387.65C166.55 399.28 153.64 420.09 151.24 442.59C147.67 476.07 166.09 516.88 192.29 521.2C205.45 523.37 218.37 515.97 221.41 514.23C235.63 506.08 241.83 493.81 243.79 489.43" fill="white"/>
    <path d="M220.14 464.6C228.77 476.66 249.58 501.69 294.38 515.07C357.54 533.92 434.11 508.65 438.17 479.34C444.98 430.2 253.32 332.09 181.57 387.65C166.55 399.28 153.64 420.09 151.24 442.59C147.67 476.07 166.09 516.88 192.29 521.2C205.45 523.37 218.37 515.97 221.41 514.23C235.63 506.08 241.83 493.81 243.79 489.43" stroke="#180027" stroke-width="19.51" stroke-linecap="round" stroke-linejoin="round"/>
    </g>
    <defs>
    <clipPath id="clip0_280_5">
    <rect width="693.26" height="660.98" fill="white"/>
    </clipPath>
    </defs>
</svg>
