<svg width="793" height="583" viewBox="0 0 793 583" fill="none" xmlns="http://www.w3.org/2000/svg">
    <g clip-path="url(#clip0_310_402)">
    <path d="M390.23 296.46C390.41 271.01 363.51 245.51 330.62 250.28C334.79 240.24 340.25 224.96 343.63 205.8C346.4 190.08 366.13 78.13 295.02 30.37C250.3 0.339952 185.52 6.33995 143.9 36.23C71.2401 88.42 89.7801 198.65 93.7701 222.36C99.9301 258.97 113.53 287.21 123.98 305.15C100.61 315.79 90.1401 340.19 96.1401 357.32C103.26 377.62 134.65 390.95 162.34 375.2C155.17 404.29 168.07 432.92 189.67 443.39C217.08 456.68 258 440.5 270.07 402.26C286.64 420.76 314.61 422.16 331.53 407.4C349.85 391.41 350.81 360.29 330.97 341.97C363.45 346.5 390.06 321.6 390.24 296.45L390.23 296.46Z" fill="#CBC5F2" stroke="#180027" stroke-width="21.22" stroke-linejoin="round"/>
    <path d="M569.65 406.09C556.81 443.15 543.98 480.21 531.14 517.27C504.01 535.66 450.48 566.28 377.16 572.53C339.36 575.75 306.99 571.58 282.9 566.35C258.87 540.69 234.84 515.03 210.81 489.37C330.42 461.61 450.04 433.86 569.65 406.1V406.09Z" fill="#3CE8A5" stroke="#180027" stroke-width="18.24" stroke-miterlimit="10"/>
    <path d="M606.66 273.17C606.66 132.21 490.67 16.2202 349.71 16.2202C266.77 16.2202 188.69 59.1802 143.64 120.44C94.04 187.88 92.79 264.57 92.76 273.17C63.76 302.17 44.43 321.5 40.59 340.29C39.32 346.5 36.94 366.39 63.2 395.62C131.09 491.18 241.05 543.17 349.72 530.13C468.34 515.89 606.67 421.63 606.67 273.17H606.66Z" fill="#FFFEFB" stroke="#180027" stroke-width="18.24" stroke-miterlimit="10"/>
    <path d="M389.04 219.65C409.033 219.65 425.24 213.651 425.24 206.25C425.24 198.849 409.033 192.85 389.04 192.85C369.047 192.85 352.84 198.849 352.84 206.25C352.84 213.651 369.047 219.65 389.04 219.65Z" fill="#180027"/>
    <path d="M195.55 219.65C215.543 219.65 231.75 213.651 231.75 206.25C231.75 198.849 215.543 192.85 195.55 192.85C175.557 192.85 159.35 198.849 159.35 206.25C159.35 213.651 175.557 219.65 195.55 219.65Z" fill="#180027"/>
    <path d="M781.51 300.83C778.29 275.58 748.23 253.91 716.27 263.02C719.06 252.51 722.43 236.64 723.22 217.2C723.87 201.25 728.48 87.6699 651.62 49.8299C603.3 26.0399 539.9 40.6399 502.65 75.8199C437.61 137.25 470.7 244.01 477.81 266.98C488.8 302.44 506.05 328.61 518.8 345C497.06 358.67 489.94 384.24 498.18 400.42C507.94 419.59 540.84 428.61 566.17 409.31C562.95 439.09 579.55 465.75 602.36 473.24C631.3 482.75 669.69 461.25 676.55 421.75C695.44 437.88 723.35 435.53 738.14 418.63C754.16 400.34 750.96 369.37 728.85 353.86C761.64 354.02 784.69 325.78 781.51 300.84V300.83Z" fill="#CBC5F2" stroke="#180027" stroke-width="21.22" stroke-linejoin="round"/>
    <path d="M324.07 209.19H238.55" stroke="#180027" stroke-width="16.28" stroke-linecap="round" stroke-linejoin="bevel"/>
    <path d="M123.47 316.84C187.165 316.84 238.8 265.205 238.8 201.51C238.8 137.815 187.165 86.1802 123.47 86.1802C59.7751 86.1802 8.14014 137.815 8.14014 201.51C8.14014 265.205 59.7751 316.84 123.47 316.84Z" stroke="#180027" stroke-width="16.28" stroke-linecap="round" stroke-linejoin="bevel"/>
    <path d="M438.34 316.84C502.035 316.84 553.67 265.205 553.67 201.51C553.67 137.815 502.035 86.1802 438.34 86.1802C374.645 86.1802 323.01 137.815 323.01 201.51C323.01 265.205 374.645 316.84 438.34 316.84Z" stroke="#180027" stroke-width="16.28" stroke-linecap="round" stroke-linejoin="bevel"/>
    <path opacity="0.5" d="M123.47 316.84C187.165 316.84 238.8 265.205 238.8 201.51C238.8 137.815 187.165 86.1802 123.47 86.1802C59.7751 86.1802 8.14014 137.815 8.14014 201.51C8.14014 265.205 59.7751 316.84 123.47 316.84Z" fill="white" stroke="#180027" stroke-width="16.28" stroke-linecap="round" stroke-linejoin="bevel"/>
    <path opacity="0.5" d="M438.34 316.84C502.035 316.84 553.67 265.205 553.67 201.51C553.67 137.815 502.035 86.1802 438.34 86.1802C374.645 86.1802 323.01 137.815 323.01 201.51C323.01 265.205 374.645 316.84 438.34 316.84Z" fill="white" stroke="#180027" stroke-width="16.28" stroke-linecap="round" stroke-linejoin="bevel"/>
    <path d="M157.94 404.74C157.94 404.74 177.56 429.11 230.65 406.26C283.74 383.41 202.37 364.85 202.37 364.85C202.37 364.85 154.19 370.39 157.94 404.75V404.74Z" fill="#CBC5F2" stroke="#180027" stroke-width="16.47" stroke-miterlimit="10"/>
    <path d="M241.98 263.43C248.96 265.45 270.6 272.17 309.52 298.38C341.01 319.59 356.76 330.19 358.97 342.23C363.44 366.6 337.62 392.65 315.5 403.9C284.62 419.6 252.91 410.54 233.37 405.04C207.61 397.79 187.97 385.02 174.3 373.59C173.18 377.05 169.19 387.85 158.55 393.13C142.09 401.3 124.47 388.95 121.59 386.93C121.59 386.93 111.06 379.43 105.41 366.76C99.1898 352.81 115.19 323.35 133.78 301.75C148.3 284.88 169.83 259.88 203.2 257.06C216.22 255.96 225.64 258.69 242 263.43H241.98Z" fill="#CBC5F2" stroke="#180027" stroke-width="16.47" stroke-linejoin="round"/>
    <path d="M159.67 335.71C132.13 329.5 113.45 312.61 112.71 294.97C112.31 285.46 116.87 269.53 128.82 267.03C137.48 265.22 147.72 270.94 153.66 281.42C165.49 263.68 183.47 257.47 193.39 263C204.03 268.93 203.77 287.16 201.53 297.03C195.25 324.77 162.42 334.91 159.66 335.71H159.67Z" fill="#180027"/>
    </g>
    <defs>
    <clipPath id="clip0_310_402">
    <rect width="792.41" height="582.78" fill="white"/>
    </clipPath>
    </defs>
</svg>
