<svg width="220" height="220" viewBox="0 0 100 100" fill="none" xmlns="http://www.w3.org/2000/svg">
	<path d="M30 30L70 70ZM30 70L70 30Z" fill="#180027"/>
	<path d="M67.3211 27.0294C68.8914 25.6111 71.3148 25.6588 72.828 27.172C74.3411 28.6851 74.3888 31.1086 72.9706 32.6788L72.828 32.8282L55.6561 50.0001L72.828 67.172L72.9706 67.3214C74.3888 68.8916 74.3411 71.3151 72.828 72.8282C71.3148 74.3413 68.8914 74.3891 67.3211 72.9708L67.1717 72.8282L49.9998 55.6563L62.5 78.5C60.9379 80.0621 28.7338 74.3903 27.1717 72.8282C25.6096 71.2661 25.6096 68.7341 27.1717 67.172L44.3436 50.0001L27.1717 32.8282L27.0291 32.6788C25.6109 31.1086 25.6586 28.6851 27.1717 27.172C28.6849 25.6588 31.1083 25.6111 32.6786 27.0294L32.828 27.172L49.9998 44.3438L67.1717 27.172L67.3211 27.0294Z" fill="#180027"/>
	<path d="M20 50H80ZM50 20V80Z" fill="#180027"/>
	<path d="M46 80V54H20C17.7909 54 16 52.2091 16 50C16 47.7909 17.7909 46 20 46L38 12L46 20C46 17.7909 47.7909 16 50 16C52.2091 16 54 17.7909 54 20L60 27L80 46C82.2091 46 84 47.7909 84 50C84 52.2091 82.2091 54 80 54H54V80C54 82.2091 52.2091 84 50 84C47.7909 84 46 82.2091 46 80Z" fill="#180027"/>
</svg>
