<svg width="200" height="200" viewBox="0 0 100 100" fill="none" xmlns="http://www.w3.org/2000/svg">
	<path d="M30 30L70 70ZM30 70L70 30Z" fill="#180027"/>
	<path d="M67.3211 27.0294C68.8914 25.6111 71.3148 25.6588 72.828 27.172C74.3411 28.6851 74.3888 31.1086 72.9706 32.6788L72.828 32.8282L55.6561 50.0001L72.828 67.172L72.9706 67.3214C74.3888 68.8916 74.3411 71.3151 72.828 72.8282C71.3148 74.3413 68.8914 74.3891 67.3211 72.9708L67.1717 72.8282C67.1717 72.8282 59.4836 55.6563 49.9998 55.6563C40.5161 55.6563 32.828 72.8282 32.828 72.8282C31.2659 74.3903 28.7338 74.3903 27.1717 72.8282C25.6096 71.2661 25.6096 68.7341 27.1717 67.172L44.3436 50.0001L27.1717 32.8282L27.0291 32.6788C25.6109 31.1086 25.6586 28.6851 27.1717 27.172C28.6849 25.6588 31.1083 25.6111 32.6786 27.0294L32.828 27.172C32.828 27.172 40.5161 44.3438 49.9998 44.3438C59.4836 44.3438 67.1717 27.172 67.1717 27.172L67.3211 27.0294Z" fill="#180027"/>
</svg>
