<svg width="200" height="200" viewBox="0 0 102 88" fill="none" xmlns="http://www.w3.org/2000/svg">
	<g clip-path="url(#clip0_327_52)">
	<path d="M100.335 1.61558C102.549 3.76401 102.549 7.25308 100.335 9.40151L66.3354 42.4015L72.4802 48.3656C73.224 49.0875 73.649 50.0843 73.649 51.1156C73.649 53.264 71.8604 55 69.6469 55H64.4938L45.3333 36.3859V31.3843C45.3333 29.2359 47.1219 27.5 49.3354 27.5C50.3979 27.5 51.425 27.9125 52.1687 28.6343L58.3135 34.5984L92.3135 1.59839C94.5271 -0.550049 98.1219 -0.550049 100.335 1.59839V1.61558ZM39.4187 40.3734L60.4031 60.7406C61.0583 68.0796 58.3312 75.3843 52.9125 80.6437C48.0604 85.3531 41.4729 88 34.6198 88H3.91354C1.75313 88 0 86.2984 0 84.2015C0 83.1187 0.478125 82.0875 1.29271 81.3656L23.676 61.8234C24.4198 61.1875 23.6052 60.0359 22.7198 60.4656L13.6708 64.8656C12.5906 65.3812 11.3333 64.625 11.3333 63.4562C11.3333 58.0421 13.5469 52.8515 17.4958 49.0187L18.9125 47.6437C24.3312 42.3843 31.8573 39.7546 39.4187 40.3734ZM82.1667 60.5C85.9239 60.5 89.5272 61.9486 92.184 64.5272C94.8408 67.1059 96.3333 70.6032 96.3333 74.25C96.3333 77.8967 94.8408 81.394 92.184 83.9727C89.5272 86.5513 85.9239 88 82.1667 88C78.4094 88 74.8061 86.5513 72.1493 83.9727C69.4926 81.394 68 77.8967 68 74.25C68 70.6032 69.4926 67.1059 72.1493 64.5272C74.8061 61.9486 78.4094 60.5 82.1667 60.5Z" fill="#180027"/>
	</g>
	<defs>
	<clipPath id="clip0_327_52">
	<rect width="102" height="88" fill="white"/>
	</clipPath>
	</defs>
</svg>
