<svg width="223" height="223" viewBox="0 0 202 202" fill="none" xmlns="http://www.w3.org/2000/svg">
	<g clip-path="url(#clip0_327_14)">
	<path d="M140.278 123.444H138.858C139.756 118.967 140.278 114.281 140.278 109.417C140.278 79.9751 122.693 56.1111 101 56.1111C79.3074 56.1111 61.7222 79.9751 61.7222 109.417C61.7222 114.281 62.2441 118.967 63.1418 123.444H61.7222C50.5 140.278 53.2943 168.648 62.4068 173.944C101 196.389 78.5556 162.722 101 162.722C123.444 162.722 101 196.389 139.593 173.944C148.706 168.648 151.5 140.278 140.278 123.444Z" fill="#180027"/>
	<path d="M132.798 114.792C131.805 106.129 134.576 94.8053 134.229 85.3337C126.446 91.4162 111.924 95.3889 101 95.3889C90.0747 95.3889 75.6934 91.4162 67.9108 85.3337C67.5629 94.8053 70.1946 106.129 69.2014 114.792C66.6315 137.237 82.4043 155.102 101 155.102C119.595 155.102 135.368 137.237 132.798 114.792Z" fill="#180027"/>
	<path d="M69.4265 78.5557C69.4265 78.5557 41.371 84.1668 35.7599 117.833C30.1487 151.5 54.9442 154.76 63.8154 145.889C75.0376 134.667 63.8154 123.445 63.8154 123.445C63.8154 123.445 69.4265 95.389 69.4265 78.5557ZM132.574 78.5557C132.574 78.5557 160.63 84.1668 166.241 117.833C171.852 151.5 147.056 154.76 138.185 145.889C126.963 134.667 138.185 123.445 138.185 123.445C138.185 123.445 132.574 95.389 132.574 78.5557Z" fill="#180027"/>
	<path d="M72.9446 72.9443C61.7223 72.9443 67.3334 78.5554 67.3334 84.1666C67.3334 89.7777 72.9446 101 84.1668 95.3888C84.1668 95.3888 78.5557 106.611 78.5557 123.444C78.5557 123.444 89.7779 123.444 95.389 134.667C95.389 134.667 101 95.3888 101 84.1666C101 72.9443 78.5557 72.9443 72.9446 72.9443ZM129.056 72.9443C140.278 72.9443 134.667 78.5554 134.667 84.1666C134.667 89.7777 129.056 101 117.833 95.3888C117.833 95.3888 123.445 106.611 123.445 123.444C123.445 123.444 112.222 123.444 106.611 134.667C106.611 134.667 101 95.3888 101 84.1666C101 72.9443 123.445 72.9443 129.056 72.9443Z" fill="#180027"/>
	<path d="M61.7218 44.8889C74.1175 44.8889 84.1662 34.8402 84.1662 22.4444C84.1662 10.0487 74.1175 0 61.7218 0C49.3261 0 39.2773 10.0487 39.2773 22.4444C39.2773 34.8402 49.3261 44.8889 61.7218 44.8889Z" fill="#180027"/>
	<path d="M61.7222 33.6666C67.9201 33.6666 72.9444 28.6423 72.9444 22.4444C72.9444 16.2465 67.9201 11.2222 61.7222 11.2222C55.5244 11.2222 50.5 16.2465 50.5 22.4444C50.5 28.6423 55.5244 33.6666 61.7222 33.6666Z" fill="#180027"/>
	<path d="M140.277 44.8889C152.673 44.8889 162.722 89.5 162.722 22.4444C162.722 10.0487 152.673 0 140.277 0C127.882 0 117.833 10.0487 117.833 22.4444C117.833 34.8402 127.882 44.8889 140.277 44.8889Z" fill="#180027"/>
	<path d="M140.278 33.6666C146.476 33.6666 151.5 28.6423 151.5 22.4444C151.5 16.2465 146.476 11.2222 140.278 11.2222C134.08 11.2222 129.056 16.2465 129.056 22.4444C129.056 28.6423 134.08 33.6666 140.278 33.6666Z" fill="#180027"/>
	<path d="M101 89.7777C125.791 89.7777 145.889 70.9364 145.889 47.6944C145.889 24.4524 125.791 5.61108 101 5.61108C76.2085 5.61108 56.111 24.4524 56.111 47.6944C56.111 56.0994 56.2672 77.5 45.4996 91C34.7319 104.5 85.1738 89.7777 101 89.7777Z" fill="#180027"/>
	<path d="M84.1668 50.5001C87.2657 50.5001 89.7779 47.9879 89.7779 44.8889C89.7779 41.79 87.2657 39.2778 84.1668 39.2778C81.0678 39.2778 78.5557 41.79 78.5557 44.8889C78.5557 47.9879 81.0678 50.5001 84.1668 50.5001Z" fill="#180027"/>
	<path d="M117.834 50.5001C120.933 50.5001 123.445 47.9879 123.445 44.8889C123.445 41.79 120.933 39.2778 117.834 39.2778C114.735 39.2778 112.223 41.79 112.223 44.8889C112.223 47.9879 114.735 50.5001 117.834 50.5001Z" fill="#180027"/>
	<path d="M101.325 53.6589C63.1248 53.6589 75.4467 84.8679 100.5 84.8679C125.554 84.8679 139.526 53.6589 101.325 53.6589Z" fill="#180027"/>
	<path d="M93.9128 62.087L96.8643 67.1987C97.2834 67.9247 97.8862 68.5275 98.6121 68.9466C99.338 69.3657 100.161 69.5864 101 69.5864C101.838 69.5864 102.661 69.3657 103.387 68.9466C104.113 68.5275 104.716 67.9247 105.135 67.1987L108.087 62.087C108.506 61.361 108.728 60.5373 108.728 59.6987C108.728 58.8601 108.508 58.0362 108.089 57.3098C107.669 56.5835 107.066 55.9804 106.34 55.5611C105.614 55.1419 104.79 54.9213 103.951 54.9216H98.0482C97.2096 54.9213 96.3857 55.1419 95.6594 55.5611C94.9331 55.9804 94.33 56.5835 93.9108 57.3098C93.4917 58.0362 93.2711 58.8601 93.2715 59.6987C93.2718 60.5373 93.493 61.361 93.9128 62.087Z" fill="#180027"/>
	<path d="M63.2087 151.511C62.6005 151.515 62.0077 151.32 61.52 150.956C61.0324 150.593 60.6764 150.08 60.5058 149.496C60.3353 148.913 60.3596 148.289 60.5749 147.72C60.7902 147.151 61.1849 146.668 61.6993 146.344C63.4825 145.048 64.9237 143.339 65.8983 141.362C66.873 139.385 67.3518 137.201 67.2936 134.998C67.1645 129.437 62.0584 125.79 62.0079 125.762C61.6692 125.527 61.3865 125.22 61.1799 124.863C60.9733 124.506 60.848 124.108 60.8128 123.697C59.6625 110.455 64.46 97.2743 64.6676 96.7132C64.936 96.0302 65.4613 95.4795 66.1309 95.1792C66.8006 94.8789 67.5612 94.853 68.2498 95.107C68.9383 95.361 69.4999 95.8746 69.8142 96.5378C70.1284 97.201 70.1703 97.961 69.9308 98.6547C69.8859 98.7725 65.6608 110.432 66.3173 122.025C68.4214 123.832 72.7476 128.332 72.9047 134.869C73.1516 145.586 65.0604 150.866 64.7181 151.085C64.2657 151.368 63.7421 151.516 63.2087 151.511ZM138.796 151.511C138.261 151.512 137.738 151.36 137.287 151.074C136.939 150.855 128.847 145.58 129.094 134.858C129.246 128.321 133.578 123.821 135.682 122.014C136.344 110.388 132.113 98.7669 132.068 98.6491C131.94 98.3035 131.882 97.9361 131.896 97.5679C131.91 97.1997 131.997 96.8379 132.151 96.5031C132.305 96.1683 132.523 95.8672 132.793 95.6168C133.064 95.3664 133.381 95.1718 133.726 95.0439C134.072 94.9161 134.439 94.8576 134.808 94.8717C135.176 94.8858 135.538 94.9724 135.872 95.1263C136.207 95.2803 136.508 95.4987 136.759 95.769C137.009 96.0394 137.204 96.3564 137.331 96.702C137.539 97.2575 142.342 110.438 141.192 123.686C141.156 124.099 141.029 124.498 140.821 124.856C140.612 125.214 140.327 125.522 139.986 125.756C139.941 125.784 134.835 129.426 134.711 134.992C134.653 137.195 135.132 139.38 136.106 141.356C137.081 143.333 138.522 145.043 140.305 146.338C140.818 146.664 141.212 147.148 141.426 147.716C141.64 148.285 141.664 148.908 141.494 149.492C141.324 150.075 140.969 150.587 140.482 150.952C139.995 151.316 139.404 151.512 138.796 151.511Z" fill="#180027"/>
	<path d="M84.5 196C63.5 188.99 91.2161 164.237 80.2595 153.28C69.303 142.324 52.4273 141.436 42.5668 151.297C32.7062 161.158 17.5001 193.5 44.5513 188.99C55.5078 199.946 74.6394 205.861 84.5 196Z" fill="#180027"/>
	<path d="M74.9025 186.44C68.9884 192.355 58.5967 191.558 51.6894 184.656C44.7821 177.754 43.9853 167.363 49.9051 161.443C55.8248 155.523 66.2109 156.326 73.1182 163.227C80.0199 170.135 80.8167 180.526 74.9025 186.44Z" fill="#180027"/>
	<path d="M72.3215 183.865C67.9392 188.247 59.9434 187.361 54.467 181.878C48.9905 176.402 48.0983 168.406 52.4806 164.024C56.8629 159.642 64.8587 160.528 70.3352 166.01C75.8116 171.492 76.7038 179.483 72.3215 183.865Z" fill="#180027"/>
	<path d="M157.448 188.993C168.404 178.036 169.292 161.161 159.431 151.3C149.57 141.44 132.695 142.328 121.738 153.285C110.782 164.241 109.894 181.117 119.755 190.977C129.616 200.838 146.492 199.95 157.448 188.993Z" fill="#180027"/>
	<path d="M127.097 186.44C133.011 192.355 143.403 191.558 150.31 184.656C157.218 177.754 158.014 167.363 152.095 161.443C146.175 155.523 135.789 156.326 128.882 163.227C121.98 170.135 121.183 180.526 127.097 186.44Z" fill="#180027"/>
	<path d="M147.529 181.88C153.007 176.401 153.895 168.408 149.513 164.025C145.13 159.643 137.136 160.531 131.658 166.009C126.18 171.488 125.292 179.481 129.675 183.864C134.057 188.246 142.051 187.358 147.529 181.88Z" fill="#180027"/>
	<path d="M101.488 79.3298C94.3062 79.3298 88.869 74.0161 88.7849 73.9375C88.5289 73.6733 88.387 73.3192 88.3897 72.9513C88.3924 72.5835 88.5394 72.2315 88.7991 71.971C89.0588 71.7105 89.4105 71.5625 89.7783 71.5588C90.1461 71.5551 90.5007 71.696 90.7656 71.9512C91.1864 72.3664 101.141 82.0343 111.229 71.9512C111.36 71.8208 111.515 71.7173 111.685 71.6467C111.855 71.5761 112.038 71.5398 112.222 71.5398C112.407 71.5398 112.59 71.5761 112.76 71.6467C112.93 71.7173 113.085 71.8208 113.216 71.9512C113.346 72.0816 113.45 72.2364 113.52 72.4068C113.591 72.5773 113.627 72.7599 113.627 72.9443C113.627 73.1288 113.591 73.3114 113.52 73.4818C113.45 73.6523 113.346 73.8071 113.216 73.9375C109.17 77.9831 105.108 79.3298 101.488 79.3298Z" fill="#180027"/>
	<path d="M89.4971 166.802C88.9722 166.802 88.4579 166.654 88.0125 166.377C87.5672 166.099 87.2086 165.702 86.9777 165.23C74.218 139.223 48.8502 147.555 47.7785 147.915C47.0746 148.157 46.3032 148.11 45.6339 147.784C44.9646 147.458 44.4524 146.879 44.2098 146.175C43.9672 145.471 44.0142 144.7 44.3404 144.031C44.6667 143.361 45.2454 142.849 45.9493 142.606C46.2579 142.494 77.0516 132.254 92.0165 162.762C92.2261 163.189 92.3233 163.663 92.299 164.139C92.2747 164.615 92.1297 165.076 91.8777 165.481C91.6257 165.885 91.2749 166.218 90.8584 166.449C90.4419 166.68 89.9734 166.802 89.4971 166.802ZM112.508 166.802C112.045 166.801 111.589 166.686 111.182 166.467C110.774 166.247 110.427 165.931 110.171 165.544C109.915 165.158 109.759 164.715 109.717 164.254C109.674 163.793 109.747 163.328 109.927 162.902C122.58 133.157 155.607 142.472 155.927 142.573C156.639 142.782 157.239 143.266 157.596 143.917C157.952 144.568 158.036 145.333 157.829 146.046C157.616 146.756 157.132 147.354 156.483 147.712C155.834 148.069 155.07 148.158 154.356 147.959C153.194 147.617 125.762 139.992 115.089 165.096C114.874 165.602 114.514 166.033 114.055 166.337C113.596 166.64 113.058 166.802 112.508 166.802Z" fill="#180027"/>
	</g>
	<defs>
	<clipPath id="clip0_327_14">
	<rect width="202" height="202" fill="white"/>
	</clipPath>
	</defs>
</svg>
