<svg width="1010" height="460" viewBox="0 0 1010 460" fill="none" xmlns="http://www.w3.org/2000/svg">
    <g clip-path="url(#clip0_309_327)">
    <path d="M919.95 311.23C928.55 311.55 945.83 318.81 953.55 323.14C972.22 333.61 986.86 349.19 993.53 369.76C998.01 383.6 997.26 384.49 1005.67 396.94C1004.15 400.24 997.8 403.42 994.17 404.92C971.47 414.31 949.36 418.84 924.64 419.13C888.32 418.19 851.99 420.07 815.65 424.78C762.98 434.7 709.43 442.21 655.21 443.85C558.95 445.98 462.56 447.4 366.3 447.27C323.8 447.21 281.35 446.65 238.97 443C162.46 436.42 86.9501 421.85 11.6501 407.12C9.67006 406.73 7.74006 406.08 5.80006 405.41C3.86006 404.74 1.95006 403.95 0.0600586 403.12C0.710059 398.21 10.2601 389.98 12.6001 383.4C17.9401 368.37 20.0001 358.29 26.3001 348.67C26.3001 348.67 31.7701 340.02 43.4401 331.17C62.2801 316.88 181.03 303.8 343.79 300.39C432.42 297.79 521.05 295.18 609.68 292.58" fill="white"/>
    <path d="M7.14014 408.43C10.0001 408.21 12.9201 408.04 15.7501 408.58C85.9301 422.1 155 435.24 226.64 441.91C290.25 447.83 354.14 447.78 417.96 447.54C498.71 447.23 579.45 445.82 659.93 443.64C712.68 441.88 764.69 434.29 815.87 424.79C852.73 419.39 887.51 419.17 923.97 419.15C951.31 418.19 979.33 414.26 1003.22 400.09L1007.43 399.58C1008.97 402.23 1010.8 403.44 1007.4 406.18C952.53 443.38 884.79 446.16 820.53 449.94C613.5 462.11 405.57 462.19 198.44 449.96C133.66 446.13 62.5001 446.25 7.14014 408.42V408.43Z" fill="white"/>
    <path d="M1005.67 396.94C1006.2 397.72 1007.03 398.89 1007.44 399.59C964.11 427.17 910.21 419.56 861.16 421.64C823.93 423.22 787.4 432.43 750.61 437.46C681.87 446.85 612.99 446.42 544.05 447.39C417.75 449.16 292.21 454.29 166.76 436.58C115.36 429.33 57.4501 420.14 7.13011 408.43C2.79011 407.42 -0.549891 407.73 0.0601095 403.13C77.4901 417.82 155.13 433.78 233.79 441.12C306.13 447.87 378.67 445.06 451.13 444.62C549.73 444.02 653.13 447.48 750.6 433.93C783.01 429.43 815.23 421.6 847.93 419.03C894.63 415.37 949.18 423.88 992.59 403.75C996.91 401.75 1001.15 398.62 1005.66 396.94H1005.67Z" fill="#CBC5F2"/>
    <path d="M856.71 349.63C873.43 309.66 798.5 251.99 794.44 248.92C782.9 240.2 772.06 234.18 763.6 230.08C753.46 226.57 743.33 223.06 733.19 219.55C722.59 225.08 717.35 236.26 719.95 245.75C722.42 254.79 731.04 258.79 732.43 259.42C780.12 285.06 822.83 314.89 818.1 339.32C813.22 364.52 760.23 371.98 761.64 377.28C763.32 383.59 841.76 385.36 856.71 349.63Z" fill="#FFFEFB" stroke="#180027" stroke-width="10.54" stroke-miterlimit="10"/>
    <path d="M528.77 86.7305H573.77L513.58 146.93H580.03" stroke="#FFFEFB" stroke-width="10" stroke-linecap="round" stroke-linejoin="round"/>
    <path d="M657.32 5H702.32L642.13 65.19H708.58" stroke="#FFFEFB" stroke-width="10" stroke-linecap="round" stroke-linejoin="round"/>
    <path d="M598.53 65.1904H619.96L591.3 93.8404H622.94" stroke="#FFFEFB" stroke-width="10" stroke-linecap="round" stroke-linejoin="round"/>
    <path d="M231.65 298.72C219.46 299.79 209.5 300.91 203.15 301.67C202.52 301.58 201.79 301.58 201.07 301.58C176.89 301.58 157.34 321.14 157.34 345.32C157.34 369.5 176.9 388.96 201.07 388.96C233.92 388.96 259.91 392.31 269.15 388.96C334.43 389.28 399.71 389.61 464.99 389.93C486.56 359.25 485.17 342.16 481.42 332.8C459.81 278.77 284.42 294.1 231.64 298.72H231.65Z" fill="#180027"/>
    <path d="M384.63 240.41C403.47 202.96 439.54 197.02 444.17 196.35C534.38 199.61 624.6 202.88 714.81 206.14C725.2 210.08 739.72 218.03 750.47 234.43C771.17 265.99 769.6 316.17 745.71 359.56C628.81 356.86 511.92 354.16 395.02 351.46C371.67 318.75 367.77 273.9 384.62 240.4L384.63 240.41Z" fill="#FFFEFB" stroke="#180027" stroke-width="8.68" stroke-miterlimit="10"/>
    <path d="M507.93 298.72C498.43 299.7 488.93 300.69 479.43 301.67C478.8 301.58 478.07 301.58 477.35 301.58C453.17 301.58 433.62 321.14 433.62 345.32C433.62 369.5 453.18 388.96 477.35 388.96C510.2 388.96 536.19 392.31 545.43 388.96C547.89 388.91 559.55 388.39 568.18 379.06C572.89 373.97 574.68 368.42 575.4 365.38C576.92 359.76 580.62 343.11 572.2 326.79C561.5 306.04 535.62 294.33 507.92 298.71L507.93 298.72Z" fill="#FFFEFB"/>
    <path d="M507.93 298.72C498.43 299.7 488.93 300.69 479.43 301.67C478.8 301.58 478.07 301.58 477.35 301.58C453.17 301.58 433.62 321.14 433.62 345.32C433.62 369.5 453.18 388.96 477.35 388.96C510.2 388.96 536.19 392.31 545.43 388.96C547.89 388.91 559.55 388.39 568.18 379.06C572.89 373.97 574.68 368.42 575.4 365.38C576.92 359.76 580.62 343.11 572.2 326.79C561.5 306.04 535.62 294.33 507.92 298.71L507.93 298.72Z" stroke="#180027" stroke-width="10.54" stroke-miterlimit="10"/>
    <path d="M493.02 337.569C491.09 337.189 475.19 334.329 462.31 345.539C452.64 353.959 448.29 367.149 450.85 380.009" fill="#FFFEFB"/>
    <path d="M493.02 337.569C491.09 337.189 475.19 334.329 462.31 345.539C452.64 353.959 448.29 367.149 450.85 380.009" stroke="#180027" stroke-width="10.54" stroke-miterlimit="10" stroke-linecap="round"/>
    <path d="M466.3 321.47C463.52 321.55 453.67 322.17 445.68 329.79C432.91 341.98 437.19 360.3 437.38 361.07" fill="#FFFEFB"/>
    <path d="M466.3 321.47C463.52 321.55 453.67 322.17 445.68 329.79C432.91 341.98 437.19 360.3 437.38 361.07" stroke="#180027" stroke-width="10.54" stroke-miterlimit="10" stroke-linecap="round"/>
    <path d="M647.6 221.63C622.46 220.26 613.71 224.08 599.27 224.09C591.4 224.09 585.72 223.02 579.94 222.1C559.42 218.82 533.35 210.77 533.93 206.72C534.43 203.21 554.53 205.76 628.16 205.76C649.96 205.76 671.71 208.22 693.52 208.35C701.67 208.4 707.73 208.33 715.76 210.83C741.03 218.7 756.49 242.88 754.37 245.27C753.14 246.65 747.15 239.47 732.11 233.71C714.23 226.85 710.98 225.11 647.61 221.65L647.6 221.63Z" fill="#CE9463"/>
    <path d="M785.55 343.63C774.42 364.51 757.26 376.78 755.43 378.06C744.93 385.41 734.9 389.24 727.95 391.31H631.61C607.5 391.13 587.9 371.33 587.87 347.66C587.84 319.93 614.69 303.93 631.61 303.93C632.33 303.93 633.06 303.93 633.69 304.02C646.53 303.97 659.38 303.92 672.22 303.88C660.98 271.92 677.23 236.35 708.64 223.93C740.18 211.46 776.51 226.48 790.04 257.7C792.57 265.11 805.72 305.81 785.54 343.63H785.55Z" fill="#FFFEFB" stroke="#180027" stroke-width="10.54" stroke-miterlimit="10" stroke-linecap="round"/>
    <path d="M647.29 339.92C645.36 339.54 629.46 336.68 616.58 347.89C606.91 356.31 602.56 369.5 605.12 382.36" fill="#FFFEFB"/>
    <path d="M647.29 339.92C645.36 339.54 629.46 336.68 616.58 347.89C606.91 356.31 602.56 369.5 605.12 382.36" stroke="#180027" stroke-width="10.54" stroke-miterlimit="10" stroke-linecap="round"/>
    <path d="M620.57 323.83C617.79 323.91 607.94 324.53 599.95 332.15C587.18 344.34 591.46 362.66 591.65 363.43" fill="#FFFEFB"/>
    <path d="M620.57 323.83C617.79 323.91 607.94 324.53 599.95 332.15C587.18 344.34 591.46 362.66 591.65 363.43" stroke="#180027" stroke-width="10.54" stroke-miterlimit="10" stroke-linecap="round"/>
    <path d="M319.68 82.3997C384.83 96.5397 393.38 93.4897 396.01 100.08C405.63 124.24 310.06 214.43 255.8 186.65C234.19 175.59 216.88 144.67 224.73 117.98C232.39 91.9197 261.25 79.3997 280.66 76.8897C291.03 75.5497 296.48 77.3597 319.69 82.3897L319.68 82.3997Z" fill="#CE9463" stroke="#180027" stroke-width="12.21" stroke-miterlimit="10"/>
    <path d="M346.23 364.15C345.5 367.19 343.71 372.74 339.01 377.83C330.39 387.16 318.72 387.67 316.26 387.73C307.02 391.08 281.03 387.73 248.18 387.73C224 387.73 204.44 368.17 204.44 344.09C204.44 320.01 224 300.35 248.18 300.35C248.9 300.35 249.63 300.35 250.26 300.44C281.53 299.97 312.81 299.5 344.08 299.03C344.8 320.74 345.51 342.44 346.23 364.15Z" fill="#180027"/>
    <path d="M263.85 336.34C261.92 335.96 246.02 333.1 233.14 344.31C223.47 352.73 219.12 365.92 221.68 378.78" fill="#180027"/>
    <path d="M237.13 320.25C234.35 320.33 224.5 320.95 216.51 328.57C203.74 340.76 208.02 359.08 208.21 359.85" fill="#180027"/>
    <path d="M526.74 236.9C526.74 155.47 459.74 88.4697 378.31 88.4697C330.4 88.4697 285.3 113.29 259.27 148.67C230.62 187.62 229.89 231.93 229.88 236.9C229.88 318.33 296.88 385.33 378.31 385.33C459.77 385.33 526.74 318.28 526.74 236.9Z" fill="#CE9463" stroke="#180027" stroke-width="10.54" stroke-miterlimit="10"/>
    <path d="M493.56 95.14C558.71 109.28 567.26 106.23 569.89 112.82C579.51 136.98 483.94 227.17 429.68 199.39C408.07 188.33 390.76 157.41 398.61 130.72C406.27 104.66 435.13 92.14 454.54 89.63C464.91 88.29 470.36 90.1 493.57 95.13L493.56 95.14Z" fill="#CE9463" stroke="#180027" stroke-width="12.21" stroke-miterlimit="10"/>
    <path d="M246.47 179.94C257.06 157.44 269.59 142.92 273.47 138.85C287.39 124.26 301.75 115.67 311.43 110.84C311.99 110.52 312.49 110.29 312.88 110.12C325.49 104.76 348.16 116.94 350.17 129.33C352.21 141.91 331.93 145.64 313.36 173.16C298.28 195.51 296.31 218.55 295.78 225.79C294.63 241.41 293 263.65 305.56 282.4C309.57 288.39 314.51 293.25 313.36 299.5C311.84 307.71 300.84 312.61 291.74 315.47C283.37 312.73 255.39 302.42 241.78 274.71C233.59 258.04 234.03 242.05 234.35 230.42C234.96 207.87 241.62 190.28 246.48 179.95L246.47 179.94Z" fill="white"/>
    <path d="M367.62 240.55C365.91 241.85 354.08 250.57 338.27 247.22C321.44 243.65 314.19 229.39 313.35 227.65" stroke="#180027" stroke-width="10" stroke-miterlimit="10" stroke-linecap="round"/>
    <path d="M213.46 230.41C212.8 232.29 208.13 245.03 197.1 248.37C185.36 251.92 176.23 241.83 175.15 240.58" stroke="#180027" stroke-width="10" stroke-miterlimit="10" stroke-linecap="round"/>
    <path d="M230.66 346.78C230.66 346.78 242.54 361.53 274.68 347.7C306.82 333.87 257.56 322.63 257.56 322.63C257.56 322.63 228.39 325.98 230.66 346.78Z" fill="#FFFEFB" stroke="#180027" stroke-width="9.97" stroke-miterlimit="10"/>
    <path d="M281.53 261.24C285.76 262.46 298.86 266.53 322.42 282.4C341.48 295.24 351.02 301.66 352.35 308.94C355.06 323.69 339.42 339.46 326.03 346.27C307.34 355.78 288.14 350.29 276.31 346.96C260.72 342.57 248.83 334.84 240.55 327.92C239.87 330.01 237.46 336.55 231.02 339.75C221.06 344.69 210.39 337.22 208.65 336C208.65 336 202.28 331.46 198.85 323.79C195.08 315.34 204.77 297.51 216.02 284.44C224.81 274.23 237.84 259.1 258.04 257.39C265.92 256.72 271.62 258.38 281.52 261.25L281.53 261.24Z" fill="#FFFEFB" stroke="#180027" stroke-width="9.97" stroke-linejoin="round"/>
    <path d="M231.7 305C215.03 301.24 203.72 291.02 203.27 280.34C203.03 274.58 205.79 264.94 213.02 263.43C218.26 262.33 224.46 265.79 228.06 272.14C235.22 261.4 246.1 257.64 252.11 260.99C258.55 264.58 258.39 275.62 257.04 281.59C253.24 298.38 233.36 304.52 231.7 305.01V305Z" fill="#180027"/>
    </g>
    <defs>
    <clipPath id="clip0_309_327">
    <rect width="1009.33" height="459.11" fill="white"/>
    </clipPath>
    </defs>
</svg>
