<svg width="409" height="236" viewBox="0 0 409 236" fill="none" xmlns="http://www.w3.org/2000/svg">
    <g clip-path="url(#clip0_91_333)">
    <g clip-path="url(#clip1_91_333)">
    <path d="M372.782 164.95C376.267 165.104 383.269 168.592 386.397 170.672C393.962 175.702 399.895 183.187 402.598 193.069C404.413 199.718 404.109 200.146 407.517 206.127C406.901 207.713 404.328 209.24 402.857 209.961C393.659 214.472 384.699 216.649 374.682 216.788C359.965 216.336 345.243 217.239 330.517 219.502C309.174 224.268 287.475 227.876 265.504 228.664C226.497 229.687 187.438 230.369 148.432 230.307C131.21 230.278 114.009 230.009 96.8354 228.256C65.832 225.094 35.2339 218.095 4.72091 211.018C3.91857 210.831 3.1365 210.518 2.35037 210.196C1.56425 209.875 0.790279 209.495 0.0244141 209.096C0.287807 206.737 4.15765 202.784 5.10586 199.622C7.26974 192.402 8.10449 187.559 10.6574 182.937C10.6574 182.937 12.8739 178.782 17.6028 174.53C25.2412 167.674 73.3569 161.39 139.314 159.752C175.229 158.503 211.144 157.249 247.058 156" fill="white"/>
    <path d="M2.89355 211.647C4.05248 211.542 5.23572 211.46 6.38249 211.72C34.8208 218.215 62.8093 224.528 91.8392 227.732C117.615 230.576 143.505 230.552 169.366 230.437C202.087 230.288 234.805 229.61 267.417 228.563C288.792 227.718 309.867 224.071 330.607 219.507C345.543 216.913 359.636 216.807 374.411 216.798C385.489 216.336 396.844 214.448 406.524 207.641L408.23 207.396C408.854 208.669 409.596 209.25 408.218 210.567C385.984 228.438 358.534 229.774 332.495 231.59C248.602 237.437 164.345 237.475 80.412 231.599C54.1619 229.759 25.3265 229.817 2.89355 211.643V211.647Z" fill="white"/>
    <path d="M407.517 206.132C407.732 206.507 408.068 207.069 408.234 207.405C390.676 220.655 368.835 216.999 348.959 217.999C333.872 218.758 319.07 223.182 304.162 225.599C276.307 230.11 248.395 229.903 220.46 230.369C169.28 231.22 118.409 233.684 67.5744 225.176C46.7461 221.693 23.2799 217.278 2.88922 211.652C1.13057 211.167 -0.222861 211.316 0.0243223 209.106C31.4005 216.163 62.8617 223.831 94.7362 227.357C124.05 230.6 153.444 229.25 182.807 229.039C222.761 228.75 264.661 230.413 304.158 223.903C317.291 221.741 330.347 217.979 343.598 216.745C362.521 214.986 384.626 219.075 402.217 209.404C403.967 208.443 405.685 206.939 407.513 206.132H407.517Z" fill="#CBC5F2"/>
    </g>
    <path d="M34.9559 168.174C29.2217 168.677 24.5364 169.204 21.5493 169.561C21.253 169.519 20.9096 169.519 20.5709 169.519C9.19646 169.519 0 178.72 0 190.095C0 201.469 9.20116 210.623 20.5709 210.623C36.0238 210.623 48.2496 212.199 52.5962 210.623C83.3044 210.774 114.013 210.929 144.721 211.079C154.867 196.647 154.214 188.608 152.449 184.205C142.284 158.789 59.7793 166 34.9512 168.174H34.9559Z" fill="#180027"/>
    <path d="M135.101 134.079C146.771 114.364 169.111 111.24 171.981 110.887C227.855 112.604 283.73 114.321 339.605 116.043C346.045 118.118 355.035 122.304 361.696 130.936C374.514 147.551 373.54 173.96 358.751 196.803C286.351 195.382 213.946 193.961 141.545 192.541C127.085 175.324 124.662 151.719 135.101 134.083V134.079Z" fill="#F96D5F" stroke="#180027" stroke-width="6" stroke-miterlimit="10"/>
    <path d="M405.378 192.122C413.243 173.32 377.996 146.192 376.086 144.747C370.657 140.646 365.558 137.814 361.578 135.885C356.808 134.234 352.043 132.583 347.273 130.932C342.287 133.533 339.822 138.792 341.045 143.256C342.207 147.509 346.262 149.39 346.916 149.687C369.349 161.748 389.441 175.78 387.216 187.272C384.92 199.127 359.993 202.636 360.656 205.129C361.447 208.097 398.345 208.93 405.378 192.122Z" fill="#6D1B34" stroke="#180027" stroke-width="6" stroke-miterlimit="10"/>
    <path d="M115.494 198.952C115.151 200.383 114.309 202.993 112.098 205.388C108.043 209.777 102.554 210.016 101.396 210.045C97.0497 211.621 84.8239 210.045 69.371 210.045C57.9966 210.045 48.7954 200.844 48.7954 189.516C48.7954 178.189 57.9966 168.941 69.371 168.941C69.7097 168.941 70.0531 168.941 70.3495 168.983C85.0591 168.762 99.7734 168.541 114.483 168.32C114.822 178.532 115.156 188.74 115.494 198.952Z" fill="#180027"/>
    <path d="M76.742 185.87C75.8341 185.692 68.3547 184.346 62.2958 189.62C57.747 193.58 55.7007 199.785 56.905 205.834" fill="#180027"/>
    <path d="M64.1728 178.302C62.8651 178.339 58.2316 178.631 54.473 182.215C48.4659 187.95 50.4793 196.567 50.5686 196.93" fill="#180027"/>
    <path d="M371.909 186.37C366.673 196.192 358.601 201.964 357.74 202.566C352.801 206.024 348.082 207.825 344.813 208.799H299.494C288.153 208.714 278.933 199.4 278.918 188.266C278.904 175.222 291.535 167.695 299.494 167.695C299.833 167.695 300.176 167.695 300.473 167.737C306.513 167.714 312.557 167.69 318.597 167.671C313.31 152.637 320.954 135.905 335.73 130.062C350.566 124.196 367.656 131.262 374.021 145.948C375.211 149.434 381.397 168.579 371.904 186.37H371.909Z" fill="#F96D5F" stroke="#180027" stroke-width="5" stroke-miterlimit="10" stroke-linecap="round"/>
    <path d="M306.865 184.625C305.957 184.446 298.478 183.101 292.419 188.374C287.87 192.335 285.824 198.54 287.028 204.589" fill="#F96D5F"/>
    <path d="M306.865 184.625C305.957 184.446 298.478 183.101 292.419 188.374C287.87 192.335 285.824 198.54 287.028 204.589" stroke="#180027" stroke-width="5" stroke-miterlimit="10" stroke-linecap="round"/>
    <path d="M294.296 177.056C292.988 177.094 288.355 177.385 284.596 180.97C278.589 186.704 280.602 195.322 280.692 195.684" fill="#F96D5F"/>
    <path d="M294.296 177.056C292.988 177.094 288.355 177.385 284.596 180.97C278.589 186.704 280.602 195.322 280.692 195.684" stroke="#180027" stroke-width="5" stroke-miterlimit="10" stroke-linecap="round"/>
    <path d="M200.408 139.093C200.408 100.788 168.89 69.2708 130.585 69.2708C108.048 69.2708 86.8326 80.9463 74.588 97.5892C61.1108 115.912 60.7674 136.755 60.7627 139.093C60.7627 177.398 92.28 208.916 130.585 208.916C168.905 208.916 200.408 177.375 200.408 139.093Z" fill="#F96D5F" stroke="#180027" stroke-width="6" stroke-miterlimit="10"/>
    <path d="M152.624 120.747C156.269 113.343 165.235 102.829 175.796 103.234C191.526 103.836 191.757 127.944 220.983 155.096C235.937 168.992 246.456 172.501 245.543 180C244.419 189.248 226.981 195.843 213.362 196.403C189.325 197.391 168.655 179.91 158.739 162.416C154.571 155.059 144.486 137.263 152.619 120.747H152.624Z" fill="#6D1B34" stroke="#180027" stroke-width="6" stroke-miterlimit="10"/>
    <path d="M58.4389 208.361C58.4389 208.361 63.7921 215.007 78.2759 208.775C92.7597 202.542 70.5612 197.475 70.5612 197.475C70.5612 197.475 57.4134 198.985 58.4389 208.361Z" fill="#F4AAA6" stroke="#180027" stroke-width="6" stroke-miterlimit="10"/>
    <path d="M94.693 167.078C97.0826 172.69 100.079 176.806 102.196 179.374C110.094 184.765 113.886 192.8 111.882 198.971C110.151 204.31 104.562 206.757 101.429 208.13C92.2327 212.162 83.2997 209.645 79.019 208.441C71.9911 206.46 66.6332 202.979 62.9029 199.86C62.5971 200.806 61.5104 203.751 58.6033 205.19C54.1109 207.42 49.3034 204.052 48.5178 203.501C47.7746 202.979 45.352 201.154 44.1007 197.998C40.9631 190.052 46.9325 179.459 52.5868 173.348C54.8354 170.916 58.2082 167.026 61.7456 161.809C66.5203 154.772 66.8402 152.335 70.2224 150.327C75.6274 147.114 84.1841 147.763 88.8129 152.105C92.4068 155.473 91.2025 158.897 94.693 167.082V167.078Z" fill="#F4AAA6" stroke="#180027" stroke-width="6" stroke-miterlimit="10" stroke-linejoin="bevel"/>
    <path d="M62.5171 199.983C55.0047 198.289 49.9055 193.679 49.7032 188.867C49.595 186.27 50.8369 181.924 54.0968 181.242C56.4583 180.748 59.2525 182.31 60.8754 185.17C64.1024 180.329 69.0087 178.636 71.7136 180.146C74.616 181.764 74.5454 186.741 73.9339 189.431C72.2216 197 63.2604 199.766 62.5124 199.987L62.5171 199.983Z" fill="#180027"/>
    <path d="M191.564 168.174C187.095 168.635 182.626 169.1 178.157 169.561C177.861 169.519 177.517 169.519 177.179 169.519C165.804 169.519 156.608 178.72 156.608 190.095C156.608 201.469 165.809 210.623 177.179 210.623C192.632 210.623 204.858 212.199 209.204 210.623C210.361 210.6 215.846 210.355 219.906 205.966C222.121 203.572 222.964 200.961 223.302 199.531C224.017 196.887 225.758 189.055 221.797 181.378C216.764 171.617 204.589 166.109 191.559 168.169L191.564 168.174Z" fill="#F96D5F"/>
    <path d="M191.564 168.174C187.095 168.635 182.626 169.1 178.157 169.561C177.861 169.519 177.517 169.519 177.179 169.519C165.804 169.519 156.608 178.72 156.608 190.095C156.608 201.469 165.809 210.623 177.179 210.623C192.632 210.623 204.858 212.199 209.204 210.623C210.361 210.6 215.846 210.355 219.906 205.966C222.121 203.572 222.964 200.961 223.302 199.531C224.017 196.887 225.758 189.055 221.797 181.378C216.764 171.617 204.589 166.109 191.559 168.169L191.564 168.174Z" stroke="#180027" stroke-width="5" stroke-miterlimit="10"/>
    <path d="M184.55 186.449C183.642 186.27 176.163 184.925 170.104 190.198C165.555 194.159 163.509 200.364 164.713 206.413" fill="#F96D5F"/>
    <path d="M184.55 186.449C183.642 186.27 176.163 184.925 170.104 190.198C165.555 194.159 163.509 200.364 164.713 206.413" stroke="#180027" stroke-width="5" stroke-miterlimit="10" stroke-linecap="round"/>
    <path d="M171.981 178.88C170.673 178.918 166.04 179.209 162.281 182.794C156.274 188.528 158.287 197.146 158.377 197.508" fill="#F96D5F"/>
    <path d="M171.981 178.88C170.673 178.918 166.04 179.209 162.281 182.794C156.274 188.528 158.287 197.146 158.377 197.508" stroke="#180027" stroke-width="5" stroke-miterlimit="10" stroke-linecap="round"/>
    <path d="M125.561 140.81C124.757 141.422 119.192 145.524 111.755 143.948C103.838 142.268 100.427 135.56 100.032 134.742" stroke="#180027" stroke-width="6" stroke-miterlimit="10" stroke-linecap="round"/>
    <path d="M201.367 68.4568H222.535L194.222 96.7706H225.48" stroke="#FAFAFA" stroke-width="6" stroke-linecap="round" stroke-linejoin="round"/>
    <path d="M261.833 30.0059H283.001L254.688 58.3197H285.946" stroke="#FAFAFA" stroke-width="6" stroke-linecap="round" stroke-linejoin="round"/>
    <path d="M234.183 58.3196H244.259L230.782 71.7967H245.661" stroke="#FAFAFA" stroke-width="6" stroke-linecap="round" stroke-linejoin="round"/>
    </g>
    <defs>
    <clipPath id="clip0_91_333">
    <rect width="409" height="236" fill="white"/>
    </clipPath>
    <clipPath id="clip1_91_333">
    <rect width="409" height="80" fill="white" transform="translate(0 156)"/>
    </clipPath>
    </defs>
</svg>
