<svg width="1010" height="460" viewBox="0 0 1010 460" fill="none" xmlns="http://www.w3.org/2000/svg">
    <g clip-path="url(#clip0_309_291)">
    <path d="M324.95 86.5401C391.44 81.6601 398.78 76.3201 403.16 81.8901C419.23 102.33 353.09 215.89 293.19 204.61C269.33 200.12 243.98 175.36 243.96 147.55C243.93 120.39 268.07 100.21 285.97 92.3101C295.53 88.0901 301.28 88.2801 324.96 86.5401H324.95Z" fill="#342F38" stroke="#180027" stroke-width="12.21" stroke-miterlimit="10"/>
    <path d="M919.95 311.23C928.55 311.55 945.83 318.81 953.55 323.14C972.22 333.61 986.86 349.19 993.53 369.76C998.01 383.6 997.26 384.49 1005.67 396.94C1004.15 400.24 997.8 403.42 994.17 404.92C971.47 414.31 949.36 418.84 924.64 419.13C888.32 418.19 851.99 420.07 815.65 424.78C762.98 434.7 709.43 442.21 655.21 443.85C558.95 445.98 462.56 447.4 366.3 447.27C323.8 447.21 281.35 446.65 238.97 443C162.46 436.42 86.9501 421.85 11.6501 407.12C9.67006 406.73 7.74006 406.08 5.80006 405.41C3.86006 404.74 1.95006 403.95 0.0600586 403.12C0.710059 398.21 10.2601 389.98 12.6001 383.4C17.9401 368.37 20.0001 358.29 26.3001 348.67C26.3001 348.67 31.7701 340.02 43.4401 331.17C62.2801 316.88 181.03 303.8 343.79 300.39C432.42 297.79 521.05 295.18 609.68 292.58" fill="white"/>
    <path d="M7.14014 408.43C10.0001 408.21 12.9201 408.04 15.7501 408.58C85.9301 422.1 155 435.24 226.64 441.91C290.25 447.83 354.14 447.78 417.96 447.54C498.71 447.23 579.45 445.82 659.93 443.64C712.68 441.88 764.69 434.29 815.87 424.79C852.73 419.39 887.51 419.17 923.97 419.15C951.31 418.19 979.33 414.26 1003.22 400.09L1007.43 399.58C1008.97 402.23 1010.8 403.44 1007.4 406.18C952.53 443.38 884.79 446.16 820.53 449.94C613.5 462.11 405.57 462.19 198.44 449.96C133.66 446.13 62.5001 446.25 7.14014 408.42V408.43Z" fill="white"/>
    <path d="M1005.67 396.94C1006.2 397.72 1007.03 398.89 1007.44 399.59C964.11 427.17 910.21 419.56 861.16 421.64C823.93 423.22 787.4 432.43 750.61 437.46C681.87 446.85 612.99 446.42 544.05 447.39C417.75 449.16 292.21 454.29 166.76 436.58C115.36 429.33 57.4501 420.14 7.13011 408.43C2.79011 407.42 -0.549891 407.73 0.0601095 403.13C77.4901 417.82 155.13 433.78 233.79 441.12C306.13 447.87 378.67 445.06 451.13 444.62C549.73 444.02 653.13 447.48 750.6 433.93C783.01 429.43 815.23 421.6 847.93 419.03C894.63 415.37 949.18 423.88 992.59 403.75C996.91 401.75 1001.15 398.62 1005.66 396.94H1005.67Z" fill="#CBC5F2"/>
    <path d="M102.13 298.72C89.9401 299.79 79.9801 300.91 73.6301 301.67C73.0001 301.58 72.2701 301.58 71.5501 301.58C54.6301 301.58 27.7801 317.59 27.8201 345.32C27.8501 368.98 47.4401 388.79 71.5501 388.96H139.63C204.91 389.28 270.19 389.61 335.47 389.93C357.04 359.25 355.65 342.16 351.9 332.8C330.29 278.77 154.9 294.1 102.12 298.72H102.13Z" fill="#180027"/>
    <path d="M315.01 226.23C339.82 184.33 387.31 177.68 393.41 176.93C448.69 172.42 679.38 155.1 796.76 189.23C816.45 194.95 840.77 204.4 853.6 226.92C880.37 273.92 836.48 341.75 828.62 353.58C661.98 352.55 495.35 351.53 328.71 350.5C297.97 313.9 292.82 263.72 315.01 226.23Z" fill="#E09A69" stroke="#180027" stroke-width="10.54" stroke-miterlimit="10"/>
    <path d="M948.9 349.63C965.62 309.66 890.69 251.99 886.63 248.92C875.09 240.2 864.25 234.18 855.79 230.08C845.65 226.57 835.52 223.06 825.38 219.55C814.78 225.08 809.54 236.26 812.14 245.75C814.19 253.23 821.34 257.44 824.62 259.42C853.96 277.05 880.91 324.71 872.48 352.32C867.48 368.7 851.79 372.27 853.83 377.29C858.16 387.96 934.21 384.76 948.9 349.64V349.63Z" fill="#342F38" stroke="#180027" stroke-width="10.54" stroke-miterlimit="10"/>
    <path d="M273.34 364.15C272.61 367.19 270.82 372.74 266.12 377.83C257.5 387.16 245.83 387.67 243.37 387.73C234.13 391.08 208.14 387.73 175.29 387.73C151.11 387.73 131.55 368.17 131.55 344.09C131.55 320.01 151.11 300.35 175.29 300.35C176.01 300.35 176.74 300.35 177.37 300.44C208.64 299.97 239.92 299.5 271.19 299.03C271.91 320.74 272.62 342.44 273.34 364.15Z" fill="#180027"/>
    <path d="M190.96 336.34C189.03 335.96 173.13 333.1 160.25 344.31C150.58 352.73 146.23 365.92 148.79 378.78" fill="#180027"/>
    <path d="M164.24 320.25C161.46 320.33 151.61 320.95 143.62 328.57C130.85 340.76 135.13 359.08 135.32 359.85" fill="#180027"/>
    <path d="M877.74 343.63C866.61 364.51 849.45 376.78 847.62 378.06C837.12 385.41 827.09 389.24 820.14 391.31H723.8C699.69 391.13 680.09 371.33 680.06 347.66C680.03 319.93 706.88 303.93 723.8 303.93C724.52 303.93 725.25 303.93 725.88 304.02C738.72 303.97 751.57 303.92 764.41 303.88C753.17 271.92 769.42 236.35 800.83 223.93C832.37 211.46 868.7 226.48 882.23 257.7C884.76 265.11 897.91 305.81 877.73 343.63H877.74Z" fill="#E09A69" stroke="#180027" stroke-width="10.54" stroke-miterlimit="10" stroke-linecap="round"/>
    <path d="M739.48 339.92C737.55 339.54 721.65 336.68 708.77 347.89C699.1 356.31 694.75 369.5 697.31 382.36" fill="#E09A69"/>
    <path d="M739.48 339.92C737.55 339.54 721.65 336.68 708.77 347.89C699.1 356.31 694.75 369.5 697.31 382.36" stroke="#180027" stroke-width="10.54" stroke-miterlimit="10" stroke-linecap="round"/>
    <path d="M712.76 323.83C709.98 323.91 700.13 324.53 692.14 332.15C679.37 344.34 683.65 362.66 683.84 363.43" fill="#E09A69"/>
    <path d="M712.76 323.83C709.98 323.91 700.13 324.53 692.14 332.15C679.37 344.34 683.65 362.66 683.84 363.43" stroke="#180027" stroke-width="10.54" stroke-miterlimit="10" stroke-linecap="round"/>
    <path d="M453.85 236.9C453.85 155.47 386.85 88.4697 305.42 88.4697C257.51 88.4697 212.41 113.29 186.38 148.67C157.73 187.62 157 231.93 156.99 236.9C156.99 318.33 223.99 385.33 305.42 385.33C386.88 385.33 453.85 318.28 453.85 236.9Z" fill="#E09A69" stroke="#180027" stroke-width="10.54" stroke-miterlimit="10"/>
    <path d="M435.04 298.72C425.54 299.7 416.04 300.69 406.54 301.67C405.91 301.58 405.18 301.58 404.46 301.58C380.28 301.58 360.73 321.14 360.73 345.32C360.73 369.5 380.29 388.96 404.46 388.96C437.31 388.96 463.3 392.31 472.54 388.96C475 388.91 486.66 388.39 495.29 379.06C500 373.97 501.79 368.42 502.51 365.38C504.03 359.76 507.73 343.11 499.31 326.79C488.61 306.04 462.73 294.33 435.03 298.71L435.04 298.72Z" fill="#E09A69"/>
    <path d="M435.04 298.72C425.54 299.7 416.04 300.69 406.54 301.67C405.91 301.58 405.18 301.58 404.46 301.58C380.28 301.58 360.73 321.14 360.73 345.32C360.73 369.5 380.29 388.96 404.46 388.96C437.31 388.96 463.3 392.31 472.54 388.96C475 388.91 486.66 388.39 495.29 379.06C500 373.97 501.79 368.42 502.51 365.38C504.03 359.76 507.73 343.11 499.31 326.79C488.61 306.04 462.73 294.33 435.03 298.71L435.04 298.72Z" stroke="#180027" stroke-width="10.54" stroke-miterlimit="10"/>
    <path d="M420.13 337.569C418.2 337.189 402.3 334.329 389.42 345.539C379.75 353.959 375.4 367.149 377.96 380.009" fill="#E09A69"/>
    <path d="M420.13 337.569C418.2 337.189 402.3 334.329 389.42 345.539C379.75 353.959 375.4 367.149 377.96 380.009" stroke="#180027" stroke-width="10.54" stroke-miterlimit="10" stroke-linecap="round"/>
    <path d="M393.41 321.47C390.63 321.55 380.78 322.17 372.79 329.79C360.02 341.98 364.3 360.3 364.49 361.07" fill="#E09A69"/>
    <path d="M393.41 321.47C390.63 321.55 380.78 322.17 372.79 329.79C360.02 341.98 364.3 360.3 364.49 361.07" stroke="#180027" stroke-width="10.54" stroke-miterlimit="10" stroke-linecap="round"/>
    <path d="M455.88 86.7305H500.88L440.69 146.93H507.14" stroke="#FFFEFB" stroke-width="10" stroke-linecap="round" stroke-linejoin="round"/>
    <path d="M584.43 5H629.43L569.24 65.19H635.69" stroke="#FFFEFB" stroke-width="10" stroke-linecap="round" stroke-linejoin="round"/>
    <path d="M525.65 65.1904H547.07L518.41 93.8404H550.05" stroke="#FFFEFB" stroke-width="10" stroke-linecap="round" stroke-linejoin="round"/>
    <path d="M441.41 120.9C506.56 135.04 515.11 131.99 517.74 138.58C527.36 162.74 431.79 252.93 377.53 225.15C355.92 214.09 338.61 183.17 346.46 156.48C354.12 130.42 382.98 117.9 402.39 115.39C412.76 114.05 418.21 115.86 441.42 120.89L441.41 120.9Z" fill="#342F38" stroke="#180027" stroke-width="12.21" stroke-miterlimit="10"/>
    <path d="M645.56 205.4C617.2 208.44 615.79 264.86 575.44 278.58C566 281.79 563.03 279.74 562.14 278.97C550.64 269.09 588.08 218 579.38 209.93C566.58 198.05 463.29 287.47 457.66 281.71C453.93 277.9 498.86 233.95 492.49 209.71C491.74 206.85 488.54 197.68 492.95 191.19C494.61 188.74 496.64 187.72 501.95 182.26C504.72 179.41 506.83 176.94 508.15 175.35C525.15 174.61 542.15 173.87 559.15 173.13C573.57 173.24 604.05 173.48 643.28 173.91C713.01 174.68 764.25 175.72 814.02 199.67C821.79 203.41 836.01 210.83 834.89 214.8C832.82 222.11 779.29 215.61 759.76 213.24C754.61 212.61 748.76 211.75 740.24 211.58C721.87 211.21 713.16 214.74 686.02 209.83C681.62 209.03 655.87 204.3 645.57 205.41L645.56 205.4Z" fill="#342F38"/>
    <path d="M195.15 207.73C209.54 214.9 246.78 121.82 287.8 125.31C326.2 128.58 363.87 216.12 338.65 250.26C317.07 279.48 251.24 253.31 234.34 284.97C224.75 302.94 238.7 324.24 230.71 329.32C224.64 333.18 208.88 325.83 169.04 283.69C161.04 261.95 160.27 243.53 160.65 232.49C160.65 232.49 161.75 200.83 179.46 167.37C181.3 163.89 184.86 158.07 188.19 152.61C192.18 146.08 192.6 145.45 193.07 145.53C196.22 146.08 184.41 202.37 195.16 207.72L195.15 207.73Z" fill="#342F38"/>
    <path d="M294.74 240.55C293.03 241.85 281.2 250.57 265.39 247.22C248.56 243.65 241.31 229.39 240.47 227.65" stroke="#180027" stroke-width="10" stroke-miterlimit="10" stroke-linecap="round"/>
    <path d="M140.57 230.41C139.91 232.29 135.24 245.03 124.21 248.37C112.47 251.92 103.34 241.83 102.26 240.58" stroke="#180027" stroke-width="10" stroke-miterlimit="10" stroke-linecap="round"/>
    <path d="M140.73 374.29C140.73 374.29 152.27 388.98 184.13 375.71C215.99 362.45 167.54 350.78 167.54 350.78C167.54 350.78 138.74 353.74 140.73 374.28V374.29Z" fill="#342F38" stroke="#180027" stroke-width="9.84" stroke-miterlimit="10"/>
    <path d="M206.89 247.31C220.88 253.41 209.62 278.46 231.57 312.76C242.43 329.74 251.39 333.28 250.27 343.29C248.05 363.24 209.76 373.4 204.05 374.92C179.19 381.52 159.27 376.27 155.01 375.01C139.68 370.5 128.05 362.73 119.97 355.81C119.28 357.87 116.82 364.29 110.43 367.36C100.55 372.12 90.11 364.62 88.41 363.4C88.41 363.4 82.18 358.85 78.89 351.24C75.28 342.87 85.04 325.39 96.29 312.63C108.57 298.71 120.03 295.87 138.05 286.45C186.03 261.39 194.54 241.92 206.89 247.31Z" fill="#342F38" stroke="#180027" stroke-width="9.84" stroke-linejoin="round"/>
    <path d="M111.51 333.1C95.1199 329.2 84.0799 318.98 83.7699 308.44C83.5999 302.76 86.4299 293.28 93.5899 291.88C98.7699 290.86 104.84 294.35 108.32 300.65C115.51 290.15 126.29 286.57 132.17 289.94C138.48 293.55 138.19 304.44 136.79 310.31C132.84 326.83 113.17 332.64 111.52 333.1H111.51Z" fill="#180027"/>
    </g>
    <defs>
    <clipPath id="clip0_309_291">
    <rect width="1009.33" height="459.11" fill="white"/>
    </clipPath>
    </defs>
</svg>
