<svg width="1010" height="460" viewBox="0 0 1010 460" fill="none" xmlns="http://www.w3.org/2000/svg">
    <g clip-path="url(#clip0_280_83)">
    <path d="M355.69 86.5401C422.18 81.6601 429.52 76.3201 433.9 81.8901C449.97 102.33 383.83 215.89 323.93 204.61C300.07 200.12 274.72 175.36 274.7 147.55C274.67 120.39 298.81 100.21 316.71 92.3101C326.27 88.0901 332.02 88.2801 355.7 86.5401H355.69Z" fill="#CBC5F2" stroke="#180027" stroke-width="12.21" stroke-miterlimit="10"/>
    <path d="M919.95 311.23C928.55 311.55 945.83 318.81 953.55 323.14C972.22 333.61 986.86 349.19 993.53 369.76C998.01 383.6 997.26 384.49 1005.67 396.94C1004.15 400.24 997.8 403.42 994.17 404.92C971.47 414.31 949.36 418.84 924.64 419.13C888.32 418.19 851.99 420.07 815.65 424.78C762.98 434.7 709.43 442.21 655.21 443.85C558.95 445.98 462.56 447.4 366.3 447.27C323.8 447.21 281.35 446.65 238.97 443C162.46 436.42 86.9501 421.85 11.6501 407.12C9.67006 406.73 7.74006 406.08 5.80006 405.41C3.86006 404.74 1.95006 403.95 0.0600586 403.12C0.710059 398.21 10.2601 389.98 12.6001 383.4C17.9401 368.37 20.0001 358.29 26.3001 348.67C26.3001 348.67 31.7701 340.02 43.4401 331.17C62.2801 316.88 181.03 303.8 343.79 300.39C432.42 297.79 521.05 295.18 609.68 292.58" fill="white"/>
    <path d="M7.14014 408.43C10.0001 408.21 12.9201 408.04 15.7501 408.58C85.9301 422.1 155 435.24 226.64 441.91C290.25 447.83 354.14 447.78 417.96 447.54C498.71 447.23 579.45 445.82 659.93 443.64C712.68 441.88 764.69 434.29 815.87 424.79C852.73 419.39 887.51 419.17 923.97 419.15C951.31 418.19 979.33 414.26 1003.22 400.09L1007.43 399.58C1008.97 402.23 1010.8 403.44 1007.4 406.18C952.53 443.38 884.79 446.16 820.53 449.94C613.5 462.11 405.57 462.19 198.44 449.96C133.66 446.13 62.5001 446.25 7.14014 408.42V408.43Z" fill="white"/>
    <path d="M1005.67 396.94C1006.2 397.72 1007.03 398.89 1007.44 399.59C964.11 427.17 910.21 419.56 861.16 421.64C823.93 423.22 787.4 432.43 750.61 437.46C681.87 446.85 612.99 446.42 544.05 447.39C417.75 449.16 292.21 454.29 166.76 436.58C115.36 429.33 57.4501 420.14 7.13011 408.43C2.79011 407.42 -0.549891 407.73 0.0601095 403.13C77.4901 417.82 155.13 433.78 233.79 441.12C306.13 447.87 378.67 445.06 451.13 444.62C549.73 444.02 653.13 447.48 750.6 433.93C783.01 429.43 815.23 421.6 847.93 419.03C894.63 415.37 949.18 423.88 992.59 403.75C996.91 401.75 1001.15 398.62 1005.66 396.94H1005.67Z" fill="#CBC5F2"/>
    <path d="M132.88 298.72C120.69 299.79 110.73 300.91 104.38 301.67C103.75 301.58 103.02 301.58 102.3 301.58C78.1201 301.58 58.5701 321.14 58.5701 345.32C58.5701 369.5 78.1301 388.96 102.3 388.96C135.15 388.96 161.14 392.31 170.38 388.96C235.66 389.28 300.94 389.61 366.22 389.93C387.79 359.25 386.4 342.16 382.65 332.8C361.04 278.77 185.65 294.1 132.87 298.72H132.88Z" fill="#180027"/>
    <path d="M345.76 226.23C370.57 184.32 418.06 177.68 424.16 176.93C542.94 180.58 661.72 184.23 780.5 187.89C794.19 192.3 813.3 201.2 827.46 219.55C854.71 254.87 852.64 311.01 821.2 359.57C667.29 356.55 513.37 353.53 359.46 350.51C328.72 313.91 323.57 263.73 345.76 226.24V226.23Z" fill="#CBC5F2" stroke="#180027" stroke-width="10.54" stroke-miterlimit="10"/>
    <path d="M920.32 349.63C937.04 309.66 862.11 251.99 858.05 248.92C846.51 240.2 835.67 234.18 827.21 230.08C817.07 226.57 806.94 223.06 796.8 219.55C786.2 225.08 780.96 236.26 783.56 245.75C786.03 254.79 794.65 258.79 796.04 259.42C843.73 285.06 886.44 314.89 881.71 339.32C876.83 364.52 823.84 371.98 825.25 377.28C826.93 383.59 905.37 385.36 920.32 349.63Z" fill="#CBC5F2" stroke="#180027" stroke-width="10.54" stroke-miterlimit="10"/>
    <path d="M304.09 364.15C303.36 367.19 301.57 372.74 296.87 377.83C288.25 387.16 276.58 387.67 274.12 387.73C264.88 391.08 238.89 387.73 206.04 387.73C181.86 387.73 162.3 368.17 162.3 344.09C162.3 320.01 181.86 300.35 206.04 300.35C206.76 300.35 207.49 300.35 208.12 300.44C239.39 299.97 270.67 299.5 301.94 299.03C302.66 320.74 303.37 342.44 304.09 364.15Z" fill="#180027"/>
    <path d="M221.71 336.34C219.78 335.96 203.88 333.1 191 344.31C181.33 352.73 176.98 365.92 179.54 378.78" fill="#180027"/>
    <path d="M194.99 320.25C192.21 320.33 182.36 320.95 174.37 328.57C161.6 340.76 165.88 359.08 166.07 359.85" fill="#180027"/>
    <path d="M849.17 343.63C838.04 364.51 820.88 376.78 819.05 378.06C808.55 385.41 798.52 389.24 791.57 391.31H695.23C671.12 391.13 651.52 371.33 651.49 347.66C651.46 319.93 678.31 303.93 695.23 303.93C695.95 303.93 696.68 303.93 697.31 304.02C710.15 303.97 723 303.92 735.84 303.88C724.6 271.92 740.85 236.35 772.26 223.93C803.8 211.46 840.13 226.48 853.66 257.7C856.19 265.11 869.34 305.81 849.16 343.63H849.17Z" fill="#CBC5F2" stroke="#180027" stroke-width="10.54" stroke-miterlimit="10" stroke-linecap="round"/>
    <path d="M710.91 339.92C708.98 339.54 693.08 336.68 680.2 347.89C670.53 356.31 666.18 369.5 668.74 382.36" fill="#CBC5F2"/>
    <path d="M710.91 339.92C708.98 339.54 693.08 336.68 680.2 347.89C670.53 356.31 666.18 369.5 668.74 382.36" stroke="#180027" stroke-width="10.54" stroke-miterlimit="10" stroke-linecap="round"/>
    <path d="M684.19 323.83C681.41 323.91 671.56 324.53 663.57 332.15C650.8 344.34 655.08 362.66 655.27 363.43" fill="#CBC5F2"/>
    <path d="M684.19 323.83C681.41 323.91 671.56 324.53 663.57 332.15C650.8 344.34 655.08 362.66 655.27 363.43" stroke="#180027" stroke-width="10.54" stroke-miterlimit="10" stroke-linecap="round"/>
    <path d="M484.59 236.9C484.59 155.47 417.59 88.4702 336.16 88.4702C288.25 88.4702 243.15 113.29 217.12 148.67C188.47 187.62 187.74 231.93 187.73 236.9C187.73 318.33 254.73 385.33 336.16 385.33C417.62 385.33 484.59 318.28 484.59 236.9Z" fill="#CBC5F2" stroke="#180027" stroke-width="10.54" stroke-miterlimit="10"/>
    <path d="M465.79 298.72C456.29 299.7 446.79 300.69 437.29 301.67C436.66 301.58 435.93 301.58 435.21 301.58C411.03 301.58 391.48 321.14 391.48 345.32C391.48 369.5 411.04 388.96 435.21 388.96C468.06 388.96 494.05 392.31 503.29 388.96C505.75 388.91 517.41 388.39 526.04 379.06C530.75 373.97 532.54 368.42 533.26 365.38C534.78 359.76 538.48 343.11 530.06 326.79C519.36 306.04 493.48 294.33 465.78 298.71L465.79 298.72Z" fill="#CBC5F2"/>
    <path d="M465.79 298.72C456.29 299.7 446.79 300.69 437.29 301.67C436.66 301.58 435.93 301.58 435.21 301.58C411.03 301.58 391.48 321.14 391.48 345.32C391.48 369.5 411.04 388.96 435.21 388.96C468.06 388.96 494.05 392.31 503.29 388.96C505.75 388.91 517.41 388.39 526.04 379.06C530.75 373.97 532.54 368.42 533.26 365.38C534.78 359.76 538.48 343.11 530.06 326.79C519.36 306.04 493.48 294.33 465.78 298.71L465.79 298.72Z" stroke="#180027" stroke-width="10.54" stroke-miterlimit="10"/>
    <path d="M450.88 337.57C448.95 337.19 433.05 334.33 420.17 345.54C410.5 353.96 406.15 367.15 408.71 380.01" fill="#CBC5F2"/>
    <path d="M450.88 337.57C448.95 337.19 433.05 334.33 420.17 345.54C410.5 353.96 406.15 367.15 408.71 380.01" stroke="#180027" stroke-width="10.54" stroke-miterlimit="10" stroke-linecap="round"/>
    <path d="M424.16 321.47C421.38 321.55 411.53 322.17 403.54 329.79C390.77 341.98 395.05 360.3 395.24 361.07" fill="#CBC5F2"/>
    <path d="M424.16 321.47C421.38 321.55 411.53 322.17 403.54 329.79C390.77 341.98 395.05 360.3 395.24 361.07" stroke="#180027" stroke-width="10.54" stroke-miterlimit="10" stroke-linecap="round"/>
    <path d="M325.48 240.55C323.77 241.85 311.94 250.57 296.13 247.22C279.3 243.65 272.05 229.39 271.21 227.65" stroke="#180027" stroke-width="10" stroke-miterlimit="10" stroke-linecap="round"/>
    <path d="M171.31 230.41C170.65 232.29 165.98 245.03 154.95 248.37C143.21 251.92 134.08 241.83 133 240.58" stroke="#180027" stroke-width="10" stroke-miterlimit="10" stroke-linecap="round"/>
    <path d="M486.63 86.73H531.63L471.44 146.93H537.89" stroke="white" stroke-width="10" stroke-linecap="round" stroke-linejoin="round"/>
    <path d="M615.17 5H660.17L599.98 65.19H666.43" stroke="white" stroke-width="10" stroke-linecap="round" stroke-linejoin="round"/>
    <path d="M556.39 65.1899H577.81L549.16 93.8399H580.79" stroke="white" stroke-width="10" stroke-linecap="round" stroke-linejoin="round"/>
    <path d="M472.16 120.9C537.31 135.04 545.86 131.99 548.49 138.58C558.11 162.74 462.54 252.93 408.28 225.15C386.67 214.09 369.36 183.17 377.21 156.48C384.87 130.42 413.73 117.9 433.14 115.39C443.51 114.05 448.96 115.86 472.17 120.89L472.16 120.9Z" fill="#CBC5F2" stroke="#180027" stroke-width="12.21" stroke-miterlimit="10"/>
    <path d="M193.55 303.06C191.81 302.23 175.54 294.16 174.69 279.93C174.26 272.7 177.77 263.03 182.58 262.76C187.31 262.5 191.26 271.42 191.64 272.3C198.79 262.63 209.09 259.62 214.53 263C220.36 266.63 219.72 276.9 218.19 282.4C213.9 297.86 195.12 302.68 193.54 303.06H193.55Z" fill="#180027"/>
    <path d="M205.56 352.85C210.58 359.87 222.68 374.43 248.74 382.2C285.47 393.17 330.01 378.47 332.38 361.42C336.34 332.84 224.86 275.77 183.13 308.09C174.39 314.86 166.88 326.96 165.49 340.04C163.41 359.51 174.13 383.25 189.37 385.76C197.03 387.02 204.54 382.72 206.31 381.71C214.58 376.97 218.18 369.83 219.33 367.28" fill="white"/>
    <path d="M205.56 352.85C210.58 359.87 222.68 374.43 248.74 382.2C285.47 393.17 330.01 378.47 332.38 361.42C336.34 332.84 224.86 275.77 183.13 308.09C174.39 314.86 166.88 326.96 165.49 340.04C163.41 359.51 174.13 383.25 189.37 385.76C197.03 387.02 204.54 382.72 206.31 381.71C214.58 376.97 218.18 369.83 219.33 367.28" stroke="#180027" stroke-width="11.35" stroke-linecap="round" stroke-linejoin="round"/>
    <path d="M676.31 205.4C629.48 203.73 624.21 214.4 584.06 207.73C555.43 202.97 524.22 191.91 525.1 186.08C526.07 179.65 565.09 186.27 650.2 184.47C711.91 183.17 749.89 178.45 795.36 198.6C796.92 199.29 829.21 213.73 827.45 219.54C826.24 223.52 809.59 221.68 791.19 219.54C698.99 208.8 699.2 206.21 676.3 205.4H676.31Z" fill="#180027"/>
    <path d="M600.48 355.23C564.35 353.94 549.4 359.41 541.8 349.26C537.31 343.26 540.62 338.79 534.37 328.13C528.85 318.72 520.96 318.39 517.94 309.74C517.94 309.74 515.42 302.54 517.92 295.3C527.1 268.67 678.55 286.08 679.16 305.44C679.46 315.02 643.04 321.97 643.16 339.33C643.21 346.55 649.68 349.78 647.86 353.97C645.05 360.39 628.31 356.24 600.49 355.25L600.48 355.23Z" fill="white" stroke="#180027" stroke-width="10" stroke-miterlimit="10"/>
    <path d="M887.36 333.83C890.07 329.52 900.09 329.62 907.02 333.47C908.42 334.25 915.3 338.07 916.12 344.39C917.31 353.55 904.93 361.53 899.07 365.31C872.29 382.59 838.84 379.46 838.41 376.51C838.19 374.96 847.21 374.7 861.92 366.3C868.19 362.72 887.44 351.73 886.96 339.3C886.88 337.2 886.26 335.57 887.35 333.82L887.36 333.83Z" fill="white"/>
    </g>
    <defs>
    <clipPath id="clip0_280_83">
    <rect width="1009.33" height="459.11" fill="white"/>
    </clipPath>
    </defs>
</svg>
