<svg width="1010" height="460" viewBox="0 0 1010 460" fill="none" xmlns="http://www.w3.org/2000/svg">
    <g clip-path="url(#clip0_308_253)">
    <path d="M919.95 311.23C928.55 311.55 945.83 318.81 953.55 323.14C972.22 333.61 986.86 349.19 993.53 369.76C998.01 383.6 997.26 384.49 1005.67 396.94C1004.15 400.24 997.8 403.42 994.17 404.92C971.47 414.31 949.36 418.84 924.64 419.13C888.32 418.19 851.99 420.07 815.65 424.78C762.98 434.7 709.43 442.21 655.21 443.85C558.95 445.98 462.56 447.4 366.3 447.27C323.8 447.21 281.35 446.65 238.97 443C162.46 436.42 86.9499 421.85 11.6499 407.12C9.66994 406.73 7.73994 406.08 5.79994 405.41C3.85994 404.74 1.94994 403.95 0.0599365 403.12C0.709936 398.21 10.2599 389.98 12.5999 383.4C17.9399 368.37 19.9999 358.29 26.2999 348.67C26.2999 348.67 31.7699 340.02 43.4399 331.17C62.2799 316.88 181.03 303.8 343.79 300.39C432.42 297.79 521.05 295.18 609.68 292.58" fill="white"/>
    <path d="M7.14001 408.43C10 408.21 12.92 408.04 15.75 408.58C85.93 422.1 155 435.24 226.64 441.91C290.25 447.83 354.14 447.78 417.96 447.54C498.71 447.23 579.45 445.82 659.93 443.64C712.68 441.88 764.69 434.29 815.87 424.79C852.73 419.39 887.51 419.17 923.97 419.15C951.31 418.19 979.33 414.26 1003.22 400.09L1007.43 399.58C1008.97 402.23 1010.8 403.44 1007.4 406.18C952.53 443.38 884.79 446.16 820.53 449.94C613.5 462.11 405.57 462.19 198.44 449.96C133.66 446.13 62.5 446.25 7.14001 408.42V408.43Z" fill="white"/>
    <path d="M1005.67 396.94C1006.2 397.72 1007.03 398.89 1007.44 399.59C964.11 427.17 910.21 419.56 861.16 421.64C823.93 423.22 787.4 432.43 750.61 437.46C681.87 446.85 612.99 446.42 544.05 447.39C417.75 449.16 292.21 454.29 166.76 436.58C115.36 429.33 57.45 420.14 7.12999 408.43C2.78999 407.42 -0.550013 407.73 0.0599874 403.13C77.49 417.82 155.13 433.78 233.79 441.12C306.13 447.87 378.67 445.06 451.13 444.62C549.73 444.02 653.13 447.48 750.6 433.93C783.01 429.43 815.23 421.6 847.93 419.03C894.63 415.37 949.18 423.88 992.59 403.75C996.91 401.75 1001.15 398.62 1005.66 396.94H1005.67Z" fill="#CBC5F2"/>
    <path d="M920.32 349.63C937.04 309.66 862.11 251.99 858.05 248.92C846.51 240.2 835.67 234.18 827.21 230.08C817.07 226.57 806.94 223.06 796.8 219.55C786.2 225.08 780.96 236.26 783.56 245.75C786.03 254.79 794.65 258.79 796.04 259.42C843.73 285.06 886.44 314.89 881.71 339.32C876.83 364.52 823.84 371.98 825.25 377.28C826.93 383.59 905.37 385.36 920.32 349.63Z" fill="#FFFEFB" stroke="#180027" stroke-width="10.54" stroke-miterlimit="10"/>
    <path d="M304.09 364.15C303.36 367.19 301.57 372.74 296.87 377.83C288.25 387.16 276.58 387.67 274.12 387.73C264.88 391.08 238.89 387.73 206.04 387.73C181.86 387.73 162.3 368.17 162.3 344.09C162.3 320.01 181.86 300.35 206.04 300.35C206.76 300.35 207.49 300.35 208.12 300.44C239.39 299.97 270.67 299.5 301.94 299.03C302.66 320.74 303.37 342.44 304.09 364.15Z" fill="#180027"/>
    <path d="M221.71 336.34C219.78 335.96 203.88 333.1 191 344.31C181.33 352.73 176.98 365.92 179.54 378.78" fill="#180027"/>
    <path d="M194.99 320.25C192.21 320.33 182.36 320.95 174.37 328.57C161.6 340.76 165.88 359.08 166.07 359.85" fill="#180027"/>
    <path d="M132.88 298.72C120.69 299.79 110.73 300.91 104.38 301.67C103.75 301.58 103.02 301.58 102.3 301.58C78.1199 301.58 58.5699 321.14 58.5699 345.32C58.5699 369.5 78.1299 388.96 102.3 388.96C135.15 388.96 161.14 392.31 170.38 388.96C235.66 389.28 300.94 389.61 366.22 389.93C387.79 359.25 386.4 342.16 382.65 332.8C361.04 278.77 185.65 294.1 132.87 298.72H132.88Z" fill="#180027"/>
    <path d="M345.76 226.23C370.57 184.32 418.06 177.68 424.16 176.93C542.94 180.58 661.72 184.23 780.5 187.89C794.19 192.3 813.3 201.2 827.46 219.55C854.71 254.87 852.64 311.01 821.2 359.57C667.29 356.55 513.37 353.53 359.46 350.51C328.72 313.91 323.57 263.73 345.76 226.24V226.23Z" fill="#FFFEFB" stroke="#180027" stroke-width="10.54" stroke-miterlimit="10"/>
    <path d="M849.17 343.63C838.04 364.51 820.88 376.78 819.05 378.06C808.55 385.41 798.52 389.24 791.57 391.31H695.23C671.12 391.13 651.52 371.33 651.49 347.66C651.46 319.93 678.31 303.93 695.23 303.93C695.95 303.93 696.68 303.93 697.31 304.02C710.15 303.97 723 303.92 735.84 303.88C724.6 271.92 740.85 236.35 772.26 223.93C803.8 211.46 840.13 226.48 853.66 257.7C856.19 265.11 869.34 305.81 849.16 343.63H849.17Z" fill="#FFFEFB" stroke="#180027" stroke-width="10.54" stroke-miterlimit="10" stroke-linecap="round"/>
    <path d="M710.91 339.92C708.98 339.54 693.08 336.68 680.2 347.89C670.53 356.31 666.18 369.5 668.74 382.36" fill="#FFFEFB"/>
    <path d="M710.91 339.92C708.98 339.54 693.08 336.68 680.2 347.89C670.53 356.31 666.18 369.5 668.74 382.36" stroke="#180027" stroke-width="10.54" stroke-miterlimit="10" stroke-linecap="round"/>
    <path d="M684.19 323.83C681.41 323.91 671.56 324.53 663.57 332.15C650.8 344.34 655.08 362.66 655.27 363.43" fill="#FFFEFB"/>
    <path d="M684.19 323.83C681.41 323.91 671.56 324.53 663.57 332.15C650.8 344.34 655.08 362.66 655.27 363.43" stroke="#180027" stroke-width="10.54" stroke-miterlimit="10" stroke-linecap="round"/>
    <path d="M465.79 298.72C456.29 299.7 446.79 300.69 437.29 301.67C436.66 301.58 435.93 301.58 435.21 301.58C411.03 301.58 391.48 321.14 391.48 345.32C391.48 369.5 411.04 388.96 435.21 388.96C468.06 388.96 494.05 392.31 503.29 388.96C505.75 388.91 517.41 388.39 526.04 379.06C530.75 373.97 532.54 368.42 533.26 365.38C534.78 359.76 538.48 343.11 530.06 326.79C519.36 306.04 493.48 294.33 465.78 298.71L465.79 298.72Z" fill="#FFFEFB"/>
    <path d="M465.79 298.72C456.29 299.7 446.79 300.69 437.29 301.67C436.66 301.58 435.93 301.58 435.21 301.58C411.03 301.58 391.48 321.14 391.48 345.32C391.48 369.5 411.04 388.96 435.21 388.96C468.06 388.96 494.05 392.31 503.29 388.96C505.75 388.91 517.41 388.39 526.04 379.06C530.75 373.97 532.54 368.42 533.26 365.38C534.78 359.76 538.48 343.11 530.06 326.79C519.36 306.04 493.48 294.33 465.78 298.71L465.79 298.72Z" stroke="#180027" stroke-width="10.54" stroke-miterlimit="10"/>
    <path d="M450.88 337.569C448.95 337.189 433.05 334.329 420.17 345.539C410.5 353.959 406.15 367.149 408.71 380.009" fill="#FFFEFB"/>
    <path d="M450.88 337.569C448.95 337.189 433.05 334.329 420.17 345.539C410.5 353.959 406.15 367.149 408.71 380.009" stroke="#180027" stroke-width="10.54" stroke-miterlimit="10" stroke-linecap="round"/>
    <path d="M424.16 321.47C421.38 321.55 411.53 322.17 403.54 329.79C390.77 341.98 395.05 360.3 395.24 361.07" fill="#FFFEFB"/>
    <path d="M424.16 321.47C421.38 321.55 411.53 322.17 403.54 329.79C390.77 341.98 395.05 360.3 395.24 361.07" stroke="#180027" stroke-width="10.54" stroke-miterlimit="10" stroke-linecap="round"/>
    <path d="M486.63 86.7305H531.63L471.44 146.93H537.89" stroke="#FFFEFB" stroke-width="10" stroke-linecap="round" stroke-linejoin="round"/>
    <path d="M615.17 5H660.17L599.98 65.19H666.43" stroke="#FFFEFB" stroke-width="10" stroke-linecap="round" stroke-linejoin="round"/>
    <path d="M556.39 65.1904H577.81L549.16 93.8404H580.79" stroke="#FFFEFB" stroke-width="10" stroke-linecap="round" stroke-linejoin="round"/>
    <path d="M377.28 193.97C370.86 181.47 351.16 175.87 336.28 186.62C335.75 180.64 334.52 171.76 331.27 161.52C328.6 153.12 309.62 93.2602 262.59 88.0802C233.02 84.8202 202.84 104.33 190.12 129.62C167.9 173.76 205.19 222.98 213.2 233.56C225.58 249.9 239.47 260.25 249.17 266.36C240.45 277.55 241.57 292.17 248.89 299.02C257.57 307.14 276.35 305.63 285.87 290.84C289.8 306.91 303.44 317.63 316.7 317.23C333.52 316.72 349.41 298.33 345.53 276.52C358.37 281.34 372.43 274.86 376.93 263.31C381.81 250.79 374.31 235.32 359.91 231.42C376.97 225.33 383.62 206.33 377.28 193.97Z" fill="#CBC5F2" stroke="#180027" stroke-width="11.72" stroke-linejoin="round"/>
    <path d="M484.59 236.9C484.59 155.47 417.59 88.4697 336.16 88.4697C288.25 88.4697 243.15 113.29 217.12 148.67C188.47 187.62 187.74 231.93 187.73 236.9C187.73 318.33 254.73 385.33 336.16 385.33C417.62 385.33 484.59 318.28 484.59 236.9Z" fill="#FFFEFB" stroke="#180027" stroke-width="10.54" stroke-miterlimit="10"/>
    <path d="M325.48 240.55C323.77 241.85 311.94 250.57 296.13 247.22C279.3 243.65 272.05 229.39 271.21 227.65" stroke="#180027" stroke-width="10" stroke-miterlimit="10" stroke-linecap="round"/>
    <path d="M171.31 230.41C170.65 232.29 165.98 245.03 154.95 248.37C143.21 251.92 134.08 241.83 133 240.58" stroke="#180027" stroke-width="10" stroke-miterlimit="10" stroke-linecap="round"/>
    <path d="M188.51 346.78C188.51 346.78 200.39 361.53 232.53 347.7C264.67 333.87 215.41 322.63 215.41 322.63C215.41 322.63 186.24 325.98 188.51 346.78Z" fill="#CBC5F2" stroke="#180027" stroke-width="9.97" stroke-miterlimit="10"/>
    <path d="M239.39 261.24C243.62 262.46 256.72 266.53 280.28 282.4C299.34 295.24 308.88 301.66 310.21 308.94C312.92 323.69 297.28 339.46 283.89 346.27C265.2 355.78 246 350.29 234.17 346.96C218.58 342.57 206.69 334.84 198.41 327.92C197.73 330.01 195.32 336.55 188.88 339.75C178.92 344.69 168.25 337.22 166.51 336C166.51 336 160.14 331.46 156.71 323.79C152.94 315.34 162.63 297.51 173.88 284.44C182.67 274.23 195.7 259.1 215.9 257.39C223.78 256.72 229.48 258.38 239.38 261.25L239.39 261.24Z" fill="#CBC5F2" stroke="#180027" stroke-width="9.97" stroke-linejoin="round"/>
    <path d="M189.56 305C172.89 301.24 161.58 291.02 161.13 280.34C160.89 274.58 163.65 264.94 170.88 263.43C176.12 262.33 182.32 265.79 185.92 272.14C193.08 261.4 203.96 257.64 209.97 260.99C216.41 264.58 216.25 275.62 214.9 281.59C211.1 298.38 191.22 304.52 189.56 305.01V305Z" fill="#180027"/>
    <path d="M546.77 211.04C540.35 198.54 520.65 192.94 505.77 203.69C505.24 197.71 504.01 188.83 500.76 178.59C498.09 170.19 479.11 110.33 432.08 105.15C402.51 101.89 372.33 121.4 359.61 146.69C337.39 190.83 374.68 240.05 382.69 250.63C395.07 266.97 408.96 277.32 418.66 283.43C409.94 294.62 411.06 309.24 418.38 316.09C427.06 324.21 445.84 322.7 455.36 307.91C459.29 323.98 472.93 334.699 486.19 334.299C503.01 333.789 518.9 315.4 515.02 293.59C527.86 298.41 541.92 291.93 546.42 280.38C551.3 267.86 543.8 252.39 529.4 248.49C546.46 242.4 553.11 223.4 546.77 211.04Z" fill="#CBC5F2" stroke="#180027" stroke-width="11.72" stroke-linejoin="round"/>
    <path d="M783.1 347.06C784.93 337.22 801.25 327.19 820.22 333.29C818.54 329.31 815.68 320.75 819.33 313.04C825.53 299.94 846.88 297.01 861.24 303.57C872.61 308.77 877.73 319.07 879.34 322.75C901.44 310.44 924.89 320.22 929.69 333.81C933.66 345.05 926.01 362.13 909.17 370.97C919.5 377.77 922.67 390.16 918.54 397.86C913.65 406.99 897.71 411 885.71 401.46C886.96 415.83 878.7 428.5 867.64 431.88C853.61 436.17 835.34 425.43 832.43 406.34C823.17 413.92 809.75 412.5 802.8 404.22C795.27 395.25 797.12 380.37 807.93 373.12C791.04 369.48 781.42 356.07 783.1 347.06Z" fill="#CBC5F2" stroke="#180027" stroke-width="10.22" stroke-linejoin="round"/>
    </g>
    <defs>
    <clipPath id="clip0_308_253">
    <rect width="1009.33" height="459.11" fill="white"/>
    </clipPath>
    </defs>
</svg>
