<svg width="836" height="798" viewBox="0 0 836 798" fill="none" xmlns="http://www.w3.org/2000/svg">
    <g clip-path="url(#clip0_307_67)">
    <path d="M236.19 101.1C229.54 34.7601 224.01 27.5701 229.47 23.0401C249.48 6.44012 364.75 69.5401 355.06 129.72C351.2 153.69 327.13 179.69 299.32 180.45C272.17 181.2 251.36 157.61 242.99 139.92C238.52 130.47 238.55 124.72 236.19 101.1Z" fill="#CE9463" stroke="#180027" stroke-width="12.21" stroke-miterlimit="10"/>
    <path d="M807.83 557.9C832.63 546.3 835.22 512.06 835.41 509.02C836.56 491.5 819.99 455.78 806.3 410.82C798.83 386.29 772.72 372.3 748.6 379.43C727.11 385.77 716.75 415.8 717.23 437.23C717.35 442.64 718.11 445.32 724.99 466.87C743.22 524.03 746.94 533.69 757.34 544.42C772.06 559.61 784.81 561.13 787.52 561.39C789.06 561.54 798.46 562.29 807.83 557.91V557.9Z" fill="#180027"/>
    <path d="M458.97 377.92C472.54 401.7 506.88 401.51 509.92 401.45C527.47 401.18 561.73 381.77 605.45 364.49C629.29 355.06 641.12 327.91 632.07 304.43C624.01 283.52 593.24 275.62 571.93 277.84C566.55 278.4 563.94 279.38 543.01 287.97C487.51 310.76 478.19 315.26 468.33 326.49C454.38 342.39 453.9 355.22 453.86 357.95C453.84 359.5 453.84 368.92 458.97 377.91V377.92Z" fill="#180027"/>
    <path d="M184.05 359.65C199.33 385.38 214.62 411.12 229.9 436.85C263.58 424.23 298.3 410.44 333.9 395.34C371.67 379.32 407.71 363.01 441.99 346.62C428.01 332.5 414.04 318.37 400.06 304.25C328.06 322.72 256.06 341.18 184.06 359.65H184.05Z" fill="#CBC5F2" stroke="#180027" stroke-width="11.04" stroke-miterlimit="10"/>
    <path d="M127.07 298.57C87.74 222.85 117.68 128.17 193.4 88.8299C237.95 65.6899 291.89 66.9799 333.18 87.3099C378.64 109.69 400.72 150.55 403.13 155.16C426.8 162.65 442.58 167.64 449.89 176.66C452.3 179.64 459.14 189.66 453.18 212.69C443.38 282.97 398.81 341.58 336.8 364.9C269.11 390.35 168.49 378.32 127.06 298.57H127.07Z" fill="#CE9463" stroke="#180027" stroke-width="11.04" stroke-miterlimit="10"/>
    <path d="M793.74 558.25C792.8 683.94 654 790.1 523.46 790.56C356.93 791.15 262.41 619.53 244.04 561.62C242.65 557.25 241.5 553.03 241.5 553.03C222.37 482.88 240.03 407.59 263.57 370.26C321.52 278.39 502.23 278.32 622.84 339.48C643.92 350.17 794.71 426.62 793.72 558.25H793.74Z" fill="#FFFEFB" stroke="#180027" stroke-width="14.62" stroke-miterlimit="10"/>
    <path d="M549.17 58.29C549.17 84.67 530.01 106.58 504.84 110.84L436.96 125.75L442.58 58.29C442.58 28.86 466.44 5 495.88 5C525.32 5 549.17 28.86 549.17 58.29Z" fill="white" stroke="#180027" stroke-width="10" stroke-miterlimit="10"/>
    <path d="M273.15 288.83C272.03 287.77 270.84 287.36 269.8 287C268.23 286.46 265.86 285.64 263.28 286.67C263.28 286.67 260.17 287.91 258.76 291.5C258.44 292.31 258.26 293.19 258.26 293.19C258.21 293.45 258.17 293.67 258.16 293.77C257.99 295.03 258.47 296.37 258.57 296.64C259.21 298.37 260.43 299.45 260.99 299.89C261.32 300.1 261.8 300.4 262.39 300.75C263.08 301.15 263.6 301.43 263.63 301.45C265.06 302.2 274.06 301.68 275.4 295.88C275.99 293.34 274.93 290.51 273.15 288.82V288.83Z" fill="#7C1703"/>
    <path d="M273.68 289.25C273.41 289.03 273.17 288.89 273.06 288.83C273.88 289.93 275.28 292.2 274.8 294.71C273.91 299.43 266.91 302.39 262.31 300.43C260.58 299.69 259.5 298.38 258.9 297.49C259.15 297.94 259.39 298.39 259.65 298.83C260 299.29 260.53 299.9 261.29 300.49C261.86 300.94 263.21 301.97 265.12 302.25C265.93 302.36 266.72 302.24 268.31 301.98C270.77 301.58 272 301.38 272.78 300.61C273.11 300.28 273.72 299.54 274.47 298.63C274.7 298.35 274.88 298.12 275 297.97C274.98 297.99 275.03 297.92 275.12 297.8C275.24 297.53 275.41 297.1 275.55 296.55C276.16 294.12 275.71 290.86 273.7 289.25H273.68Z" fill="#551201"/>
    <path d="M264.91 287.6C272.92 286.44 272.51 298.14 264.91 296.88C259.89 296.05 258.94 288.46 264.91 287.6Z" fill="#C94E28"/>
    <path d="M304.47 302.69C303.35 301.63 302.16 301.22 301.12 300.86C299.55 300.32 297.18 299.5 294.6 300.53C294.6 300.53 291.49 301.77 290.08 305.36C289.76 306.17 289.58 307.05 289.58 307.05C289.53 307.31 289.49 307.53 289.48 307.63C289.31 308.89 289.79 310.23 289.89 310.5C290.53 312.23 291.75 313.31 292.31 313.75C292.64 313.96 293.12 314.26 293.71 314.61C294.4 315.01 294.92 315.29 294.95 315.31C296.38 316.06 305.38 315.54 306.72 309.74C307.31 307.2 306.25 304.37 304.47 302.68V302.69Z" fill="#7C1703"/>
    <path d="M305 303.11C304.73 302.89 304.49 302.75 304.38 302.69C305.2 303.79 306.6 306.06 306.12 308.57C305.23 313.29 298.23 316.25 293.63 314.29C291.9 313.55 290.82 312.24 290.22 311.35C290.47 311.8 290.71 312.25 290.97 312.69C291.32 313.15 291.85 313.76 292.61 314.35C293.18 314.8 294.53 315.83 296.44 316.11C297.25 316.22 298.04 316.1 299.63 315.84C302.09 315.44 303.32 315.24 304.1 314.47C304.43 314.14 305.04 313.4 305.79 312.49C306.02 312.21 306.2 311.98 306.32 311.83C306.3 311.85 306.35 311.78 306.44 311.66C306.56 311.39 306.73 310.96 306.87 310.41C307.48 307.98 307.03 304.72 305.02 303.11H305Z" fill="#551201"/>
    <path d="M296.23 301.46C304.24 300.3 303.83 312 296.23 310.74C291.21 309.91 290.26 302.32 296.23 301.46Z" fill="#C94E28"/>
    <path d="M514.13 344.74C512.84 343.68 511.46 343.27 510.24 342.91C508.42 342.37 505.66 341.55 502.68 342.58C502.68 342.58 499.07 343.82 497.43 347.41C497.06 348.22 496.86 349.1 496.86 349.1C496.8 349.36 496.76 349.58 496.75 349.68C496.56 350.94 497.11 352.28 497.22 352.55C497.96 354.28 499.38 355.36 500.02 355.8C500.4 356.01 500.96 356.31 501.64 356.66C502.44 357.06 503.04 357.34 503.08 357.36C504.73 358.11 515.18 357.59 516.73 351.79C517.41 349.25 516.18 346.42 514.12 344.73L514.13 344.74Z" fill="#7C1703"/>
    <path d="M514.74 345.16C514.43 344.94 514.15 344.8 514.02 344.74C514.97 345.84 516.59 348.11 516.04 350.62C515 355.34 506.88 358.3 501.54 356.34C499.53 355.6 498.27 354.29 497.58 353.4C497.87 353.85 498.15 354.3 498.45 354.74C498.85 355.2 499.47 355.81 500.35 356.4C501.02 356.85 502.58 357.88 504.8 358.16C505.73 358.27 506.66 358.15 508.5 357.89C511.35 357.49 512.78 357.29 513.69 356.52C514.08 356.19 514.78 355.45 515.65 354.54C515.91 354.26 516.13 354.03 516.27 353.88C516.24 353.9 516.31 353.83 516.41 353.71C516.55 353.44 516.75 353.01 516.9 352.46C517.61 350.03 517.09 346.77 514.75 345.16H514.74Z" fill="#551201"/>
    <path d="M504.57 343.51C513.86 342.35 513.38 354.05 504.57 352.79C498.74 351.96 497.64 344.37 504.57 343.51Z" fill="#C94E28"/>
    <path d="M514.57 387.58C513.28 386.52 511.9 386.11 510.68 385.75C508.86 385.21 506.1 384.39 503.12 385.42C503.12 385.42 499.51 386.66 497.87 390.25C497.5 391.06 497.3 391.94 497.3 391.94C497.24 392.2 497.2 392.42 497.19 392.52C497 393.78 497.55 395.12 497.66 395.39C498.4 397.12 499.82 398.2 500.46 398.64C500.84 398.85 501.4 399.15 502.08 399.5C502.88 399.9 503.48 400.18 503.52 400.2C505.17 400.95 515.62 400.43 517.17 394.63C517.85 392.09 516.62 389.26 514.56 387.57L514.57 387.58Z" fill="#7C1703"/>
    <path d="M515.18 388C514.87 387.78 514.59 387.64 514.46 387.58C515.41 388.68 517.03 390.95 516.48 393.46C515.44 398.18 507.32 401.14 501.98 399.18C499.97 398.44 498.71 397.13 498.02 396.24C498.31 396.69 498.59 397.14 498.89 397.58C499.29 398.04 499.91 398.65 500.79 399.24C501.46 399.69 503.02 400.72 505.24 401C506.17 401.11 507.1 400.99 508.94 400.73C511.79 400.33 513.22 400.13 514.13 399.36C514.52 399.03 515.22 398.29 516.09 397.38C516.35 397.1 516.57 396.87 516.71 396.72C516.68 396.74 516.75 396.67 516.85 396.55C516.99 396.28 517.19 395.85 517.34 395.3C518.05 392.87 517.53 389.61 515.19 388H515.18Z" fill="#551201"/>
    <path d="M505.01 386.35C514.3 385.19 513.82 396.89 505.01 395.63C499.18 394.8 498.08 387.21 505.01 386.35Z" fill="#C94E28"/>
    <path d="M545.05 371.47C543.93 370.41 542.74 370 541.7 369.64C540.13 369.1 537.76 368.28 535.18 369.31C535.18 369.31 532.07 370.55 530.66 374.14C530.34 374.95 530.16 375.83 530.16 375.83C530.11 376.09 530.07 376.31 530.06 376.41C529.89 377.67 530.37 379.01 530.47 379.28C531.11 381.01 532.33 382.09 532.89 382.53C533.22 382.74 533.7 383.04 534.29 383.39C534.98 383.79 535.5 384.07 535.53 384.09C536.96 384.84 545.96 384.32 547.3 378.52C547.89 375.98 546.83 373.15 545.05 371.46V371.47Z" fill="#7C1703"/>
    <path d="M545.58 371.89C545.31 371.67 545.07 371.53 544.96 371.47C545.78 372.57 547.18 374.84 546.7 377.35C545.81 382.07 538.81 385.03 534.21 383.07C532.48 382.33 531.4 381.02 530.8 380.13C531.05 380.58 531.29 381.03 531.55 381.47C531.9 381.93 532.43 382.54 533.19 383.13C533.76 383.58 535.11 384.61 537.02 384.89C537.83 385 538.62 384.88 540.21 384.62C542.67 384.22 543.9 384.02 544.68 383.25C545.01 382.92 545.62 382.18 546.37 381.27C546.6 380.99 546.78 380.76 546.9 380.61C546.88 380.63 546.93 380.56 547.02 380.44C547.14 380.17 547.31 379.74 547.45 379.19C548.06 376.76 547.61 373.5 545.6 371.89H545.58Z" fill="#551201"/>
    <path d="M536.81 370.25C544.82 369.09 544.41 380.79 536.81 379.53C531.79 378.7 530.84 371.11 536.81 370.25Z" fill="#C94E28"/>
    <path d="M470.98 370.48C469.86 369.42 468.67 369.01 467.63 368.65C466.06 368.11 463.69 367.29 461.11 368.32C461.11 368.32 458 369.56 456.59 373.15C456.27 373.96 456.09 374.84 456.09 374.84C456.04 375.1 456 375.32 455.99 375.42C455.82 376.68 456.3 378.02 456.4 378.29C457.04 380.02 458.26 381.1 458.82 381.54C459.15 381.75 459.63 382.05 460.22 382.4C460.91 382.8 461.43 383.08 461.46 383.1C462.89 383.85 471.89 383.33 473.23 377.53C473.82 374.99 472.76 372.16 470.98 370.47V370.48Z" fill="#7C1703"/>
    <path d="M471.51 370.9C471.24 370.68 471 370.54 470.89 370.48C471.71 371.58 473.11 373.85 472.63 376.36C471.74 381.08 464.74 384.04 460.14 382.08C458.41 381.34 457.33 380.03 456.73 379.14C456.98 379.59 457.22 380.04 457.48 380.48C457.83 380.94 458.36 381.55 459.12 382.14C459.69 382.59 461.04 383.62 462.95 383.9C463.76 384.01 464.55 383.89 466.14 383.63C468.6 383.23 469.83 383.03 470.61 382.26C470.94 381.93 471.55 381.19 472.3 380.28C472.53 380 472.71 379.77 472.83 379.62C472.81 379.64 472.86 379.57 472.95 379.45C473.07 379.18 473.24 378.75 473.38 378.2C473.99 375.77 473.54 372.51 471.53 370.9H471.51Z" fill="#551201"/>
    <path d="M462.74 369.25C470.75 368.09 470.34 379.79 462.74 378.53C457.72 377.7 456.77 370.11 462.74 369.25Z" fill="#C94E28"/>
    <path d="M295.3 286.85C293.83 285.79 292.26 285.38 290.88 285.02C288.81 284.48 285.67 283.66 282.28 284.69C282.28 284.69 278.18 285.93 276.31 289.52C275.89 290.33 275.66 291.21 275.66 291.21C275.59 291.47 275.55 291.69 275.53 291.79C275.31 293.05 275.93 294.39 276.07 294.66C276.91 296.39 278.53 297.47 279.26 297.91C279.69 298.12 280.32 298.42 281.1 298.77C282.01 299.17 282.7 299.45 282.74 299.47C284.62 300.22 296.5 299.7 298.27 293.9C299.04 291.36 297.65 288.53 295.31 286.84L295.3 286.85Z" fill="#7C1703"/>
    <path d="M295.99 287.27C295.63 287.05 295.32 286.91 295.17 286.85C296.25 287.95 298.09 290.22 297.47 292.73C296.29 297.45 287.05 300.41 280.98 298.45C278.69 297.71 277.27 296.4 276.47 295.51C276.8 295.96 277.12 296.41 277.46 296.85C277.92 297.31 278.62 297.92 279.62 298.51C280.38 298.96 282.15 299.99 284.68 300.27C285.74 300.38 286.79 300.26 288.89 300C292.14 299.6 293.76 299.4 294.79 298.63C295.23 298.3 296.03 297.56 297.01 296.65C297.31 296.37 297.56 296.14 297.72 295.99C297.69 296.01 297.76 295.94 297.88 295.82C298.04 295.55 298.26 295.12 298.44 294.57C299.24 292.14 298.65 288.88 295.99 287.27Z" fill="#551201"/>
    <path d="M284.42 285.62C294.99 284.46 294.45 296.16 284.42 294.9C277.79 294.07 276.54 286.48 284.42 285.62Z" fill="#C94E28"/>
    <path d="M580.279 725.864C607.772 694.602 599.194 642.114 561.118 608.629C523.042 575.143 469.889 573.34 442.396 604.602C414.903 635.863 423.481 688.351 461.557 721.837C499.632 755.322 552.786 757.125 580.279 725.864Z" fill="#FFFEFB" stroke="#180027" stroke-width="8.63" stroke-linecap="round" stroke-linejoin="round"/>
    <path d="M603.98 706.4C626.33 690.58 622.81 656.43 622.45 653.4C620.48 635.96 597.83 603.74 576.38 561.92C564.68 539.11 536.5 529.97 514.02 541.26C493.99 551.32 489.12 582.7 493.41 603.7C494.49 609 495.71 611.5 506.3 631.5C534.38 684.52 539.76 693.37 551.9 702.08C569.08 714.41 581.9 713.65 584.61 713.42C586.15 713.29 595.53 712.37 603.98 706.39V706.4Z" fill="#FFFEFB" stroke="#180027" stroke-width="8.63" stroke-linecap="round" stroke-linejoin="round"/>
    <path d="M594.93 680.49C607.56 671.55 605.57 652.25 605.37 650.54C604.25 640.68 591.45 622.48 579.33 598.84C572.72 585.95 556.79 580.78 544.09 587.16C532.77 592.84 530.02 610.58 532.44 622.45C533.05 625.45 533.74 626.86 539.73 638.16C555.6 668.13 558.64 673.12 565.5 678.05C575.21 685.02 582.46 684.59 583.99 684.46C584.86 684.39 590.16 683.87 594.94 680.49H594.93Z" fill="#180027"/>
    <path d="M524.47 598.53C529.59 595.31 529.99 590.08 530.01 589.61C530.18 586.94 526.58 582.64 523.55 576.79C521.9 573.6 516.4 573.1 511.41 575.61C506.96 577.85 504.93 582.93 505.11 586.08C505.16 586.88 505.33 587.23 506.85 590.01C510.88 597.4 511.69 598.61 513.9 599.57C517.03 600.94 519.69 600.39 520.25 600.27C520.57 600.2 522.53 599.75 524.46 598.53H524.47Z" fill="#180027"/>
    <path d="M542.83 572.07C547.95 568.85 548.35 563.62 548.37 563.15C548.54 560.48 544.94 556.18 541.91 550.33C540.26 547.14 534.76 546.64 529.77 549.15C525.32 551.39 523.29 556.47 523.47 559.62C523.52 560.42 523.69 560.77 525.21 563.55C529.24 570.94 530.05 572.15 532.26 573.11C535.39 574.48 538.05 573.93 538.61 573.81C538.93 573.74 540.89 573.29 542.82 572.07H542.83Z" fill="#180027"/>
    <path d="M570.99 578.6C576.11 575.38 576.51 570.15 576.53 569.68C576.7 567.01 573.1 562.71 570.07 556.86C568.42 553.67 562.92 553.17 557.93 555.68C553.48 557.92 551.45 563 551.63 566.15C551.68 566.95 551.85 567.3 553.37 570.08C557.4 577.47 558.21 578.68 560.42 579.64C563.55 581.01 566.21 580.46 566.77 580.34C567.09 580.27 569.05 579.82 570.98 578.6H570.99Z" fill="#180027"/>
    <path d="M313.78 610.69C330.82 644.2 340.19 640.59 374.03 694.59C389.51 719.3 402.62 740.39 399.04 743.61C393.16 748.91 337.81 709.63 297.28 651.89C250.33 584.99 235.44 510.64 243.94 506.4C248.34 504.21 264.68 517.89 273.66 527.85C274.26 528.52 274.73 529.04 275.02 529.37C299.59 557.1 295.36 574.48 313.76 610.68L313.78 610.69Z" fill="#CE9463"/>
    <path d="M354.14 536.31C381.43 534.09 395.81 502.91 397.05 500.13C404.24 484.12 401.18 444.86 404.04 397.94C405.6 372.35 386.02 350.13 360.92 348.38C338.56 346.82 318.38 371.34 311.35 391.59C309.58 396.7 309.36 399.48 308.28 422.08C305.41 482.01 305.53 492.36 311.53 506.05C320.02 525.42 331.44 531.3 333.89 532.48C335.28 533.16 343.82 537.14 354.14 536.31Z" fill="#FFFEFB" stroke="#180027" stroke-width="8.63" stroke-linecap="round" stroke-linejoin="round"/>
    <path d="M358.79 436.36C401.98 441.75 409.5 442.11 419.96 437.15C434.78 430.13 440.08 419.77 441.16 417.55C441.78 416.29 445.45 408.52 445.78 398.89C446.51 377.69 429.1 362.02 424.3 358.03C424.23 357.97 423.83 357.64 423.45 357.33C406.78 343.99 360.59 332.74 330.61 359.87C307.04 381.2 308.22 412.92 308.48 417.81" fill="#FFFEFB"/>
    <path d="M358.79 436.36C401.98 441.75 409.5 442.11 419.96 437.15C434.78 430.13 440.08 419.77 441.16 417.55C441.78 416.29 445.45 408.52 445.78 398.89C446.51 377.69 429.1 362.02 424.3 358.03C424.23 357.97 423.83 357.64 423.45 357.33C406.78 343.99 360.59 332.74 330.61 359.87C307.04 381.2 308.22 412.92 308.48 417.81" stroke="#180027" stroke-width="8.63" stroke-linecap="round" stroke-linejoin="round"/>
    <path d="M438.02 422.69C438.15 419.13 437.89 411.84 433.53 404.48C425.09 390.23 408.7 388.2 406.61 387.98" stroke="#180027" stroke-width="8.15" stroke-miterlimit="10" stroke-linecap="round"/>
    <path d="M445.62 401.46C446.35 396.93 445.89 393.29 445.16 390.56C441.54 377.06 426.21 367.22 406.61 364.67" stroke="#180027" stroke-width="8.15" stroke-miterlimit="10" stroke-linecap="round"/>
    <path d="M62.17 242.1C13.9 196.12 5.02001 194.26 6.20001 187.28C10.56 161.64 139.11 134.39 170.98 186.35C183.67 207.04 182.35 242.45 161.76 261.15C141.65 279.41 110.5 275.08 92.62 267.12C83.07 262.87 79.35 258.49 62.16 242.11L62.17 242.1Z" fill="#CE9463" stroke="#180027" stroke-width="12.21" stroke-miterlimit="10"/>
    <path d="M139.92 144.48C198.61 131.72 256.46 147.73 289.4 187.81C308.58 211.15 314.6 236.94 316.7 252.97C352.86 236.2 389.02 219.42 425.18 202.65C405.88 182.74 386.57 162.83 367.27 142.92C364.19 138.55 316.67 73.0498 255.95 76.2298C240.13 77.0598 218.28 82.8198 198.61 92.4398C178.94 102.06 166.81 112.92 163.78 115.7C152.37 126.15 144.75 136.7 139.91 144.49L139.92 144.48Z" fill="white"/>
    <path d="M206.69 203.93C206.99 201.8 209.28 187.29 222.89 178.56C237.37 169.27 252.55 174.33 254.37 174.97" stroke="#180027" stroke-width="10" stroke-miterlimit="10" stroke-linecap="round"/>
    <path d="M341.42 147.16C340.51 136.94 346.92 127.67 356.12 125.17C363.98 123.03 372.67 126.16 377.81 133.08" stroke="#180027" stroke-width="10" stroke-miterlimit="10" stroke-linecap="round"/>
    <path d="M433.65 219.31C433.65 219.31 431.91 237.31 399.01 243.13C366.11 248.95 399.52 214.15 399.52 214.15C399.52 214.15 424.55 201.52 433.65 219.31Z" fill="#FFFEFB" stroke="#180027" stroke-width="9.52" stroke-miterlimit="10"/>
    <path d="M348.18 177.75C345.45 180.94 337.13 191.06 326.66 216.08C318.18 236.32 313.95 246.45 316.7 252.96C322.28 266.15 343.03 270.53 357.28 268.94C377.18 266.72 389.62 252.27 397.31 243.41C407.45 231.73 412.88 219.32 415.85 209.46C417.49 210.78 422.85 214.72 429.66 213.9C440.2 212.62 444.79 201.06 445.54 199.17C445.54 199.17 448.24 192.2 446.95 184.29C445.52 175.57 428.44 166.43 412.6 161.9C400.23 158.36 381.89 153.13 364.88 162.36C358.24 165.96 354.56 170.27 348.17 177.76L348.18 177.75Z" fill="#FFFEFB" stroke="#180027" stroke-width="9.52" stroke-linejoin="round"/>
    <path d="M410.89 186.52C422.22 174.78 425.88 160.69 420.63 151.93C417.8 147.21 410.54 140.96 403.98 143.55C399.22 145.43 396.09 151.44 396.55 158.39C385.2 153.58 374.55 156.29 371.51 162.11C368.25 168.35 374.17 177.08 378.38 181.13C390.22 192.54 409.3 187 410.89 186.52Z" fill="#180027"/>
    </g>
    <defs>
    <clipPath id="clip0_307_67">
    <rect width="835.46" height="797.88" fill="white"/>
    </clipPath>
    </defs>
</svg>
