<svg width="508" height="510" viewBox="0 0 508 510" fill="none" xmlns="http://www.w3.org/2000/svg">
    <g clip-path="url(#clip0_89_266)">
    <path d="M489.395 337.641C506.088 329.823 507.837 306.76 507.959 304.712C508.738 292.91 497.579 268.847 488.366 238.553C483.339 222.028 465.763 212.605 449.523 217.404C435.057 221.679 428.082 241.904 428.407 256.341C428.489 259.988 429 261.785 433.633 276.31C445.902 314.816 448.413 321.325 455.411 328.555C465.315 338.787 473.905 339.81 475.73 339.985C476.765 340.084 483.095 340.596 489.401 337.641H489.395Z" fill="#180027"/>
    <path d="M254.558 216.392C263.695 232.411 286.804 232.289 288.856 232.248C300.672 232.068 323.735 218.992 353.162 207.347C369.21 200.995 377.173 182.701 371.081 166.891C365.653 152.803 344.944 147.487 330.593 148.982C326.972 149.36 325.217 150.017 311.128 155.805C273.767 171.161 267.49 174.186 260.858 181.753C251.472 192.462 251.146 201.111 251.117 202.943C251.1 203.985 251.106 210.336 254.558 216.392Z" fill="#180027"/>
    <path d="M168.642 3.86668C156.058 3.55258 142.527 13.4061 137.872 25.5048C129.705 46.73 151.966 70.2701 187.746 108.149C199.08 120.148 207.74 122.842 215.878 124.575C236.517 128.978 263.055 120.433 266.618 106.59C270.094 93.1007 248.571 86.9874 211.576 43.7693C189.821 18.3503 183.376 4.23313 168.642 3.86668Z" fill="#6D1B34" stroke="#180027" stroke-width="6" stroke-miterlimit="10"/>
    <path d="M82.644 189.379C91.5251 204.345 100.412 219.317 109.293 234.284C128.869 226.943 149.049 218.922 169.74 210.139C191.693 200.82 212.64 191.333 232.565 181.8C224.439 173.586 216.319 165.367 208.194 157.154C166.346 167.898 124.498 178.635 82.6499 189.379H82.644Z" fill="#CBC5F2" stroke="#180027" stroke-width="6" stroke-miterlimit="10"/>
    <path d="M49.5317 153.856C26.6722 109.812 44.074 54.7396 88.0842 31.8567C113.978 18.3969 145.329 19.1472 169.327 30.9726C195.75 43.9903 208.583 67.7574 209.984 70.4389C223.741 74.7956 232.913 77.6981 237.162 82.9448C238.563 84.6782 242.538 90.5065 239.074 103.902C233.378 144.782 207.473 178.874 171.431 192.438C132.088 207.242 73.6059 200.244 49.5259 153.856H49.5317Z" fill="#F96D5F" stroke="#180027" stroke-width="6" stroke-miterlimit="10"/>
    <path d="M44.696 85.4052C32.7983 80.7519 16.7798 84.0848 7.91039 93.2287C-6.80616 108.399 17.4018 128.42 21.3947 188.832C22.1329 200.006 22.098 210.813 29.6365 216.153C39.0872 222.842 56.7214 218.305 67.2009 209.092C93.7104 185.79 76.7387 130.595 63.853 105.816C58.4767 95.474 52.9958 88.6568 44.696 85.4052Z" fill="#6D1B34" stroke="#180027" stroke-width="6" stroke-miterlimit="10"/>
    <path d="M218.406 131.793C218.406 131.793 216.296 142.275 196.604 143.712C176.912 145.149 198.656 126.692 198.656 126.692C198.656 126.692 214.134 120.777 218.406 131.793Z" fill="#F4AAA6" stroke="#180027" stroke-width="6" stroke-miterlimit="10"/>
    <path d="M154.309 106.834C154.89 114.454 153.942 120.759 153.071 124.842C147.404 135.4 147.834 146.521 153.617 152.222C158.621 157.154 166.241 156.654 170.519 156.369C183.062 155.537 191.536 147.586 195.593 143.77C202.259 137.511 206.2 130.543 208.548 124.918C209.432 125.791 212.344 128.437 216.401 128.362C222.678 128.245 226.072 121.725 226.63 120.66C227.159 119.648 228.798 116.222 228.356 111.988C227.258 101.337 214.517 93.0135 204.701 89.4827C200.795 88.0809 194.808 85.7019 187.868 81.9443C178.505 76.8779 176.744 74.3535 171.827 74.0743C163.963 73.6206 154.838 79.286 152.199 86.7838C150.153 92.6005 153.46 95.7182 154.314 106.828L154.309 106.834Z" fill="#F4AAA6" stroke="#180027" stroke-width="6" stroke-miterlimit="10"/>
    <path d="M209.037 124.831C216.406 118.607 219.411 110.539 216.854 105.072C215.477 102.122 211.588 98.0101 207.572 99.1327C204.66 99.947 202.457 103.297 202.306 107.416C195.93 103.902 189.502 104.851 187.363 108.09C185.073 111.563 188.025 117.054 190.251 119.695C196.523 127.123 208.072 125.023 209.031 124.831H209.037Z" fill="#180027"/>
    <path d="M479.915 337.873C484.001 403.02 436.928 470.576 376.376 495.576C267.816 540.388 140.261 438.369 109.886 340.148C106.236 328.351 84.1901 257.056 123.039 211.232C149.182 180.398 189.909 176.413 212.576 174.523C313.994 166.065 472.807 224.593 479.915 337.873Z" fill="#F96D5F" stroke="#180027" stroke-width="6" stroke-linecap="round" stroke-linejoin="round"/>
    <path d="M336.22 450.795C354.726 429.736 348.951 394.377 323.321 371.819C297.691 349.261 261.911 348.046 243.404 369.106C224.898 390.165 230.673 425.524 256.303 448.082C281.933 470.64 317.713 471.855 336.22 450.795Z" fill="#F96D5F" stroke="#180027" stroke-width="6" stroke-linecap="round" stroke-linejoin="round"/>
    <path d="M95.803 98.8012C95.9773 97.5622 97.3083 89.1222 105.219 84.0442C113.635 78.6405 122.458 81.5837 123.516 81.956" stroke="#180027" stroke-width="6" stroke-miterlimit="10" stroke-linecap="round"/>
    <path d="M174.111 65.7799C173.582 59.8352 177.308 54.4431 182.655 52.9889C187.223 51.7442 192.274 53.5648 195.262 57.5899" stroke="#180027" stroke-width="6" stroke-miterlimit="10" stroke-linecap="round"/>
    <path d="M352.174 437.677C367.216 427.02 364.845 404.009 364.607 401.974C363.276 390.224 348.03 368.522 333.593 340.346C325.717 324.978 306.752 318.824 291.617 326.426C278.132 333.203 274.86 354.346 277.737 368.493C278.464 372.064 279.289 373.745 286.415 387.217C305.316 422.937 308.937 428.893 317.109 434.768C328.67 443.08 337.307 442.563 339.132 442.411C340.172 442.324 346.484 441.702 352.169 437.677H352.174Z" fill="#F96D5F" stroke="#180027" stroke-width="6" stroke-linecap="round" stroke-linejoin="round"/>
    <path d="M346.077 420.221C354.58 414.2 353.238 401.194 353.104 400.042C352.354 393.4 343.735 381.138 335.574 365.212C331.122 356.528 320.405 353.049 311.849 357.348C304.229 361.175 302.375 373.129 304.008 381.121C304.421 383.139 304.886 384.093 308.914 391.701C319.597 411.891 321.643 415.259 326.263 418.574C332.796 423.269 337.678 422.978 338.707 422.896C339.294 422.85 342.863 422.495 346.077 420.221Z" fill="#180027"/>
    <path d="M298.65 365.014C302.09 362.85 302.364 359.32 302.381 359.005C302.497 357.208 300.074 354.306 298.033 350.368C296.918 348.215 293.221 347.878 289.861 349.571C286.868 351.077 285.497 354.497 285.624 356.621C285.653 357.156 285.77 357.394 286.793 359.267C289.501 364.24 290.053 365.061 291.535 365.706C293.639 366.625 295.43 366.265 295.813 366.177C296.028 366.131 297.348 365.823 298.65 365.002V365.014Z" fill="#180027"/>
    <path d="M311.012 347.18C314.453 345.016 314.726 341.486 314.744 341.171C314.86 339.374 312.436 336.472 310.396 332.534C309.28 330.381 305.583 330.044 302.224 331.737C299.231 333.243 297.859 336.664 297.987 338.787C298.016 339.322 298.132 339.56 299.155 341.433C301.864 346.406 302.416 347.227 303.898 347.872C306.002 348.791 307.792 348.431 308.176 348.343C308.391 348.297 309.71 347.989 311.012 347.168V347.18Z" fill="#180027"/>
    <path d="M329.966 351.583C333.407 349.42 333.68 345.889 333.697 345.575C333.813 343.777 331.39 340.875 329.35 336.937C328.234 334.785 324.537 334.447 321.178 336.14C318.184 337.647 316.813 341.067 316.941 343.19C316.97 343.725 317.086 343.964 318.109 345.837C320.817 350.81 321.369 351.63 322.852 352.276C324.956 353.195 326.746 352.834 327.129 352.747C327.344 352.7 328.664 352.392 329.966 351.572V351.583Z" fill="#180027"/>
    <path d="M290.262 179.386C321.776 186.82 405.089 212.843 405.036 245.475C404.99 274.425 339.358 303.142 283.683 303.252C239.342 303.34 176.599 285.523 159.476 240.688C157.581 235.732 148.607 212.221 159.505 194.829C173.495 172.505 212.181 173.115 242.596 173.592C266.909 173.976 285.154 178.182 290.268 179.386H290.262Z" fill="#F4AAA6" stroke="#180027" stroke-width="6" stroke-miterlimit="10"/>
    <path d="M183.992 323.093C202.358 321.598 212.042 300.594 212.873 298.715C217.714 287.931 215.651 261.483 217.581 229.875C218.633 212.634 205.451 197.668 188.554 196.487C173.507 195.44 159.918 211.959 155.186 225.599C153.995 229.043 153.844 230.91 153.117 246.138C151.188 286.512 151.269 293.486 155.309 302.706C161.022 315.752 168.711 319.714 170.362 320.516C171.298 320.97 177.046 323.657 183.992 323.093Z" fill="#F96D5F" stroke="#180027" stroke-width="6" stroke-linecap="round" stroke-linejoin="round"/>
    <path d="M187.125 255.759C216.197 259.389 221.26 259.633 228.304 256.288C238.278 251.559 241.847 244.579 242.579 243.085C242.998 242.235 245.462 237 245.689 230.515C246.183 216.235 234.459 205.677 231.234 202.99C231.187 202.949 230.92 202.728 230.664 202.519C219.441 193.538 188.351 185.953 168.171 204.229C152.309 218.596 153.1 239.967 153.274 243.265" fill="#F96D5F"/>
    <path d="M187.125 255.759C216.197 259.389 221.26 259.633 228.304 256.288C238.278 251.559 241.847 244.579 242.579 243.085C242.998 242.235 245.462 237 245.689 230.515C246.183 216.235 234.459 205.677 231.234 202.99C231.187 202.949 230.92 202.728 230.664 202.519C219.441 193.538 188.351 185.953 168.171 204.229C152.309 218.596 153.1 239.967 153.274 243.265" stroke="#180027" stroke-width="6" stroke-linecap="round" stroke-linejoin="round"/>
    <path d="M240.457 246.551C240.545 244.149 240.37 239.245 237.435 234.284C231.757 224.68 220.719 223.319 219.318 223.168" stroke="#180027" stroke-width="6" stroke-miterlimit="10" stroke-linecap="round"/>
    <path d="M245.572 232.254C246.066 229.2 245.758 226.745 245.264 224.913C242.829 215.822 232.506 209.19 219.318 207.469" stroke="#180027" stroke-width="6" stroke-miterlimit="10" stroke-linecap="round"/>
    <path d="M291.407 52.1454C291.407 67.4899 280.271 80.2343 265.642 82.7122L226.188 91.3849L229.455 52.1454C229.455 35.0268 243.323 21.1482 260.434 21.1482C277.545 21.1482 291.407 35.0268 291.407 52.1454Z" fill="#CBC5F2" stroke="#180027" stroke-width="6" stroke-miterlimit="10"/>
    <path d="M134.431 148.185C133.78 147.568 133.088 147.33 132.484 147.121C131.571 146.806 130.194 146.329 128.694 146.929C128.694 146.929 126.887 147.65 126.067 149.738C125.881 150.209 125.777 150.721 125.777 150.721C125.748 150.872 125.724 151 125.718 151.058C125.62 151.791 125.899 152.571 125.957 152.728C126.329 153.734 127.038 154.362 127.363 154.618C127.555 154.74 127.834 154.915 128.177 155.119C128.578 155.351 128.88 155.514 128.898 155.526C129.729 155.962 134.96 155.659 135.739 152.286C136.082 150.808 135.466 149.162 134.431 148.179V148.185Z" fill="#7C1703"/>
    <path d="M134.739 148.429C134.582 148.301 134.443 148.22 134.379 148.185C134.855 148.825 135.669 150.145 135.39 151.605C134.873 154.351 130.804 156.073 128.131 154.932C127.125 154.502 126.497 153.74 126.149 153.222C126.294 153.484 126.433 153.746 126.585 154.002C126.788 154.269 127.096 154.624 127.538 154.967C127.869 155.229 128.654 155.828 129.764 155.991C130.235 156.055 130.694 155.985 131.618 155.834C133.048 155.601 133.763 155.485 134.216 155.037C134.408 154.845 134.762 154.415 135.198 153.885C135.332 153.723 135.437 153.589 135.506 153.502C135.495 153.513 135.524 153.472 135.576 153.403C135.646 153.246 135.745 152.995 135.826 152.676C136.181 151.262 135.919 149.366 134.751 148.429H134.739Z" fill="#551201"/>
    <path d="M129.642 147.475C134.297 146.801 134.059 153.606 129.642 152.873C126.724 152.39 126.172 147.976 129.642 147.475Z" fill="#C94E28"/>
    <path d="M152.641 156.247C151.99 155.63 151.298 155.392 150.694 155.183C149.781 154.868 148.404 154.391 146.904 154.991C146.904 154.991 145.096 155.712 144.277 157.8C144.091 158.271 143.986 158.783 143.986 158.783C143.957 158.934 143.934 159.062 143.928 159.12C143.829 159.853 144.108 160.633 144.167 160.79C144.538 161.796 145.248 162.424 145.573 162.68C145.765 162.802 146.044 162.977 146.387 163.181C146.788 163.413 147.09 163.576 147.107 163.588C147.939 164.024 153.17 163.721 153.948 160.348C154.291 158.87 153.675 157.224 152.641 156.241V156.247Z" fill="#7C1703"/>
    <path d="M152.943 156.491C152.786 156.363 152.647 156.282 152.583 156.247C153.059 156.887 153.873 158.207 153.594 159.667C153.077 162.413 149.008 164.135 146.335 162.994C145.329 162.564 144.701 161.802 144.353 161.284C144.498 161.546 144.637 161.808 144.788 162.064C144.992 162.331 145.3 162.686 145.742 163.029C146.073 163.291 146.858 163.89 147.968 164.053C148.439 164.117 148.898 164.047 149.822 163.896C151.252 163.663 151.967 163.547 152.42 163.099C152.612 162.907 152.966 162.477 153.402 161.947C153.536 161.785 153.64 161.651 153.71 161.564C153.699 161.575 153.728 161.534 153.78 161.465C153.85 161.308 153.949 161.057 154.03 160.738C154.384 159.324 154.123 157.428 152.955 156.491H152.943Z" fill="#551201"/>
    <path d="M147.851 155.532C152.507 154.857 152.269 161.662 147.851 160.929C144.934 160.447 144.382 156.032 147.851 155.532Z" fill="#C94E28"/>
    <path d="M274.494 180.706C273.744 180.09 272.942 179.851 272.233 179.642C271.175 179.328 269.571 178.851 267.839 179.45C267.839 179.45 265.741 180.171 264.787 182.259C264.572 182.73 264.456 183.242 264.456 183.242C264.421 183.394 264.398 183.522 264.392 183.58C264.282 184.313 264.601 185.092 264.665 185.249C265.095 186.255 265.921 186.884 266.293 187.139C266.514 187.262 266.839 187.436 267.234 187.64C267.699 187.872 268.048 188.035 268.071 188.047C269.03 188.483 275.104 188.181 276.005 184.807C276.4 183.33 275.685 181.683 274.488 180.7L274.494 180.706Z" fill="#7C1703"/>
    <path d="M274.854 180.95C274.674 180.822 274.511 180.741 274.436 180.706C274.988 181.346 275.929 182.666 275.61 184.126C275.005 186.872 270.286 188.594 267.182 187.453C266.014 187.023 265.281 186.261 264.88 185.743C265.049 186.005 265.212 186.267 265.386 186.523C265.619 186.79 265.979 187.145 266.49 187.488C266.88 187.75 267.786 188.349 269.077 188.512C269.617 188.576 270.158 188.506 271.227 188.355C272.884 188.122 273.715 188.006 274.244 187.558C274.471 187.366 274.877 186.936 275.383 186.406C275.534 186.244 275.662 186.11 275.743 186.023C275.726 186.034 275.767 185.993 275.825 185.924C275.906 185.767 276.022 185.516 276.11 185.197C276.522 183.783 276.22 181.887 274.86 180.95H274.854Z" fill="#551201"/>
    <path d="M268.937 179.991C274.337 179.316 274.058 186.122 268.937 185.389C265.549 184.906 264.909 180.491 268.937 179.991Z" fill="#C94E28"/>
    <path d="M274.75 205.625C274 205.008 273.198 204.77 272.489 204.56C271.431 204.246 269.827 203.769 268.095 204.369C268.095 204.369 265.996 205.09 265.043 207.178C264.828 207.649 264.712 208.161 264.712 208.161C264.677 208.312 264.654 208.44 264.648 208.498C264.538 209.231 264.857 210.011 264.921 210.168C265.351 211.174 266.177 211.802 266.549 212.058C266.769 212.18 267.095 212.355 267.49 212.558C267.955 212.791 268.304 212.954 268.327 212.966C269.286 213.402 275.36 213.099 276.261 209.726C276.656 208.248 275.941 206.602 274.744 205.619L274.75 205.625Z" fill="#7C1703"/>
    <path d="M275.104 205.869C274.924 205.741 274.761 205.66 274.686 205.625C275.238 206.265 276.179 207.585 275.86 209.045C275.255 211.791 270.536 213.512 267.432 212.372C266.264 211.942 265.531 211.18 265.13 210.662C265.299 210.924 265.462 211.186 265.636 211.442C265.869 211.709 266.229 212.064 266.74 212.407C267.13 212.669 268.036 213.268 269.327 213.431C269.867 213.495 270.408 213.425 271.477 213.274C273.134 213.041 273.965 212.925 274.494 212.477C274.721 212.285 275.127 211.855 275.633 211.325C275.784 211.162 275.912 211.029 275.993 210.941C275.976 210.953 276.017 210.912 276.075 210.843C276.156 210.686 276.272 210.435 276.36 210.115C276.772 208.702 276.47 206.806 275.11 205.869H275.104Z" fill="#551201"/>
    <path d="M269.193 204.915C274.593 204.241 274.314 211.046 269.193 210.313C265.805 209.83 265.165 205.416 269.193 204.915Z" fill="#C94E28"/>
    <path d="M292.471 196.254C291.82 195.638 291.128 195.399 290.524 195.19C289.611 194.876 288.234 194.399 286.734 194.998C286.734 194.998 284.927 195.719 284.107 197.807C283.921 198.279 283.817 198.79 283.817 198.79C283.788 198.942 283.764 199.07 283.759 199.128C283.66 199.861 283.939 200.64 283.997 200.797C284.369 201.803 285.078 202.432 285.403 202.688C285.595 202.81 285.874 202.984 286.217 203.188C286.618 203.421 286.92 203.583 286.938 203.595C287.769 204.031 293 203.729 293.779 200.355C294.122 198.878 293.506 197.232 292.471 196.249V196.254Z" fill="#7C1703"/>
    <path d="M292.779 196.499C292.622 196.371 292.483 196.289 292.419 196.254C292.895 196.894 293.709 198.215 293.43 199.675C292.913 202.42 288.844 204.142 286.171 203.002C285.165 202.571 284.537 201.809 284.189 201.292C284.334 201.553 284.474 201.815 284.625 202.071C284.828 202.339 285.136 202.693 285.578 203.037C285.909 203.298 286.694 203.898 287.804 204.06C288.275 204.124 288.734 204.055 289.658 203.903C291.088 203.671 291.803 203.554 292.256 203.106C292.448 202.915 292.802 202.484 293.238 201.955C293.372 201.792 293.477 201.658 293.546 201.571C293.535 201.583 293.564 201.542 293.616 201.472C293.686 201.315 293.785 201.065 293.866 200.745C294.221 199.331 293.959 197.435 292.791 196.499H292.779Z" fill="#551201"/>
    <path d="M287.682 195.545C292.337 194.87 292.099 201.675 287.682 200.943C284.764 200.46 284.212 196.045 287.682 195.545Z" fill="#C94E28"/>
    <path d="M249.42 195.678C248.769 195.062 248.077 194.823 247.473 194.614C246.56 194.3 245.183 193.823 243.683 194.422C243.683 194.422 241.876 195.143 241.056 197.231C240.87 197.703 240.766 198.214 240.766 198.214C240.737 198.366 240.713 198.494 240.708 198.552C240.609 199.285 240.888 200.064 240.946 200.221C241.318 201.228 242.027 201.856 242.352 202.112C242.544 202.234 242.823 202.408 243.166 202.612C243.567 202.845 243.869 203.007 243.887 203.019C244.718 203.455 249.949 203.153 250.728 199.779C251.071 198.302 250.455 196.656 249.42 195.673V195.678Z" fill="#7C1703"/>
    <path d="M249.722 195.923C249.565 195.795 249.426 195.713 249.362 195.678C249.839 196.318 250.652 197.639 250.373 199.099C249.856 201.844 245.787 203.566 243.114 202.426C242.108 201.995 241.481 201.233 241.132 200.716C241.277 200.977 241.417 201.239 241.568 201.495C241.771 201.763 242.079 202.118 242.521 202.461C242.852 202.722 243.637 203.322 244.747 203.484C245.218 203.548 245.677 203.479 246.601 203.327C248.031 203.095 248.746 202.978 249.199 202.531C249.391 202.339 249.746 201.908 250.181 201.379C250.315 201.216 250.42 201.082 250.49 200.995C250.478 201.007 250.507 200.966 250.559 200.896C250.629 200.739 250.728 200.489 250.809 200.169C251.164 198.756 250.902 196.859 249.734 195.923H249.722Z" fill="#551201"/>
    <path d="M244.631 194.963C249.286 194.288 249.048 201.094 244.631 200.361C241.713 199.878 241.161 195.463 244.631 194.963Z" fill="#C94E28"/>
    <path d="M147.305 147.033C146.451 146.417 145.538 146.178 144.736 145.969C143.533 145.655 141.708 145.178 139.738 145.777C139.738 145.777 137.355 146.498 136.268 148.586C136.024 149.058 135.89 149.569 135.89 149.569C135.849 149.721 135.826 149.849 135.814 149.907C135.686 150.64 136.047 151.419 136.128 151.576C136.616 152.583 137.558 153.211 137.982 153.467C138.232 153.589 138.598 153.763 139.052 153.967C139.581 154.2 139.982 154.362 140.005 154.374C141.098 154.81 148.003 154.508 149.031 151.134C149.479 149.657 148.671 148.011 147.311 147.028L147.305 147.033Z" fill="#7C1703"/>
    <path d="M147.712 147.278C147.503 147.15 147.323 147.068 147.235 147.033C147.863 147.673 148.932 148.994 148.572 150.454C147.886 153.199 142.516 154.921 138.988 153.781C137.657 153.35 136.831 152.588 136.366 152.071C136.558 152.332 136.744 152.594 136.942 152.85C137.209 153.118 137.616 153.473 138.197 153.816C138.639 154.077 139.668 154.677 141.138 154.839C141.754 154.903 142.365 154.834 143.585 154.682C145.474 154.45 146.416 154.333 147.014 153.886C147.27 153.694 147.735 153.263 148.305 152.734C148.479 152.571 148.624 152.437 148.717 152.35C148.7 152.362 148.741 152.321 148.81 152.251C148.903 152.094 149.031 151.844 149.136 151.524C149.601 150.11 149.258 148.214 147.712 147.278Z" fill="#551201"/>
    <path d="M140.987 146.318C147.131 145.643 146.817 152.449 140.987 151.716C137.134 151.233 136.407 146.818 140.987 146.318Z" fill="#C94E28"/>
    </g>
    <defs>
    <clipPath id="clip0_89_266">
    <rect width="508" height="508.7" fill="white" transform="translate(0 0.650146)"/>
    </clipPath>
    </defs>
</svg>
