<svg width="916" height="914" viewBox="0 0 916 914" fill="none" xmlns="http://www.w3.org/2000/svg">
    <g clip-path="url(#clip0_307_5)">
    <path d="M236.19 86.8599C229.54 20.5199 224.01 13.3299 229.47 8.79988C249.48 -7.80012 364.75 55.2999 355.06 115.48C351.2 139.45 327.13 165.45 299.32 166.21C272.17 166.96 251.36 143.37 242.99 125.68C238.52 116.23 238.55 110.48 236.19 86.8599Z" fill="#342F38" stroke="#180027" stroke-width="12.21" stroke-miterlimit="10"/>
    <path d="M883.16 618.12C911.88 604.68 914.89 565.03 915.1 561.51C916.44 541.22 897.24 499.85 881.39 447.77C872.74 419.36 842.5 403.16 814.56 411.41C789.67 418.76 777.67 453.53 778.23 478.35C778.37 484.62 779.25 487.71 787.22 512.68C808.33 578.88 812.65 590.07 824.69 602.5C841.73 620.09 856.51 621.85 859.65 622.15C861.43 622.32 872.32 623.2 883.17 618.12H883.16Z" fill="#180027"/>
    <path d="M479.12 409.67C494.84 437.21 534.6 437 538.13 436.93C558.46 436.62 598.14 414.14 648.77 394.12C676.38 383.2 690.08 351.75 679.6 324.57C670.26 300.35 634.63 291.21 609.94 293.78C603.71 294.43 600.69 295.56 576.45 305.51C512.17 331.91 501.37 337.11 489.96 350.12C473.81 368.53 473.25 383.4 473.2 386.55C473.17 388.34 473.18 399.26 479.12 409.67Z" fill="#180027"/>
    <path d="M183.35 363.23C198.63 388.96 213.92 414.7 229.2 440.43C262.88 427.81 297.6 414.02 333.2 398.92C370.97 382.9 407.01 366.59 441.29 350.2C427.31 336.08 413.34 321.95 399.36 307.83C327.36 326.3 255.36 344.76 183.36 363.23H183.35Z" fill="#180027" stroke="#180027" stroke-width="11.04" stroke-miterlimit="10"/>
    <path d="M126.37 302.16C87.04 226.44 116.98 131.76 192.7 92.4198C237.25 69.2798 291.19 70.5698 332.48 90.8998C377.94 113.28 400.02 154.14 402.43 158.75C426.1 166.24 441.88 171.23 449.19 180.25C451.6 183.23 458.44 193.25 452.48 216.28C442.68 286.56 398.11 345.17 336.1 368.49C268.41 393.94 167.79 381.91 126.36 302.16H126.37Z" fill="#E09A69" stroke="#180027" stroke-width="11.04" stroke-miterlimit="10"/>
    <path d="M866.85 618.52C873.88 730.52 792.89 846.66 688.71 889.64C501.93 966.68 282.47 791.29 230.21 622.43C223.93 602.15 186 479.58 252.84 400.8C297.82 347.79 367.89 340.94 406.89 337.69C581.38 323.15 854.62 423.77 866.85 618.52Z" fill="#E09A69" stroke="#180027" stroke-width="10" stroke-linecap="round" stroke-linejoin="round"/>
    <path d="M285.18 644.35C276.92 657.53 299.5 686.68 320.07 713.22C332.28 728.98 333.94 729.52 348.67 748.11C356.44 757.91 365.8 770.82 377.83 790.02C392.68 813.71 410.75 843.54 406.8 846.79C399.13 853.1 293.46 775.92 244.09 648.84C222.78 593.97 218.34 554.05 217.95 532.19C217.07 482.6 229.28 439.24 234.3 439.58C237.57 439.8 234.78 458.29 245.26 464.62C259.95 473.51 284.19 448.5 291.44 454.45C301.65 462.83 251.83 510.91 262.48 558.54C271.34 598.15 317.8 619.62 310.61 633.67C306.6 641.51 290.9 635.22 285.18 644.36V644.35Z" fill="#342F38"/>
    <path d="M357.71 593.11C389.31 590.54 405.97 554.43 407.4 551.2C415.73 532.66 412.18 487.19 415.5 432.85C417.31 403.21 394.63 377.48 365.56 375.45C339.67 373.65 316.29 402.05 308.15 425.5C306.1 431.42 305.84 434.63 304.59 460.81C301.27 530.22 301.41 542.21 308.36 558.06C318.19 580.49 331.42 587.3 334.26 588.68C335.87 589.46 345.76 594.08 357.71 593.11Z" fill="#E09A69" stroke="#180027" stroke-width="10" stroke-linecap="round" stroke-linejoin="round"/>
    <path d="M363.11 477.35C413.13 483.59 421.84 484.01 433.96 478.26C451.12 470.13 457.26 458.13 458.52 455.56C459.24 454.1 463.48 445.1 463.87 433.95C464.72 409.4 444.55 391.25 439 386.63C438.92 386.56 438.46 386.18 438.02 385.82C418.71 370.38 365.22 357.34 330.5 388.76C303.21 413.46 304.57 450.2 304.87 455.87" fill="#E09A69"/>
    <path d="M363.11 477.35C413.13 483.59 421.84 484.01 433.96 478.26C451.12 470.13 457.26 458.13 458.52 455.56C459.24 454.1 463.48 445.1 463.87 433.95C464.72 409.4 444.55 391.25 439 386.63C438.92 386.56 438.46 386.18 438.02 385.82C418.71 370.38 365.22 357.34 330.5 388.76C303.21 413.46 304.57 450.2 304.87 455.87" stroke="#180027" stroke-width="10" stroke-linecap="round" stroke-linejoin="round"/>
    <path d="M454.87 461.52C455.02 457.39 454.72 448.96 449.67 440.43C439.9 423.92 420.91 421.58 418.5 421.32" stroke="#180027" stroke-width="9.44" stroke-miterlimit="10" stroke-linecap="round"/>
    <path d="M463.66 436.94C464.51 431.69 463.98 427.47 463.13 424.32C458.94 408.69 441.18 397.29 418.49 394.33" stroke="#180027" stroke-width="9.44" stroke-miterlimit="10" stroke-linecap="round"/>
    <path d="M548.47 61.8701C548.47 88.2501 529.31 110.16 504.14 114.42L436.26 129.33L441.88 61.8701C441.88 32.4401 465.74 8.58008 495.18 8.58008C524.62 8.58008 548.47 32.4401 548.47 61.8701Z" fill="white" stroke="#180027" stroke-width="10" stroke-miterlimit="10"/>
    <path d="M272.45 292.41C271.33 291.35 270.14 290.94 269.1 290.58C267.53 290.04 265.16 289.22 262.58 290.25C262.58 290.25 259.47 291.49 258.06 295.08C257.74 295.89 257.56 296.77 257.56 296.77C257.51 297.03 257.47 297.25 257.46 297.35C257.29 298.61 257.77 299.95 257.87 300.22C258.51 301.95 259.73 303.03 260.29 303.47C260.62 303.68 261.1 303.98 261.69 304.33C262.38 304.73 262.9 305.01 262.93 305.03C264.36 305.78 273.36 305.26 274.7 299.46C275.29 296.92 274.23 294.09 272.45 292.4V292.41Z" fill="#7C1703"/>
    <path d="M272.97 292.83C272.7 292.61 272.46 292.47 272.35 292.41C273.17 293.51 274.57 295.78 274.09 298.29C273.2 303.01 266.2 305.97 261.6 304.01C259.87 303.27 258.79 301.96 258.19 301.07C258.44 301.52 258.68 301.97 258.94 302.41C259.29 302.87 259.82 303.48 260.58 304.07C261.15 304.52 262.5 305.55 264.41 305.83C265.22 305.94 266.01 305.82 267.6 305.56C270.06 305.16 271.29 304.96 272.07 304.19C272.4 303.86 273.01 303.12 273.76 302.21C273.99 301.93 274.17 301.7 274.29 301.55C274.27 301.57 274.32 301.5 274.41 301.38C274.53 301.11 274.7 300.68 274.84 300.13C275.45 297.7 275 294.44 272.99 292.83H272.97Z" fill="#551201"/>
    <path d="M264.21 291.19C272.22 290.03 271.81 301.73 264.21 300.47C259.19 299.64 258.24 292.05 264.21 291.19Z" fill="#C94E28"/>
    <path d="M303.77 306.27C302.65 305.21 301.46 304.8 300.42 304.44C298.85 303.9 296.48 303.08 293.9 304.11C293.9 304.11 290.79 305.35 289.38 308.94C289.06 309.75 288.88 310.63 288.88 310.63C288.83 310.89 288.79 311.11 288.78 311.21C288.61 312.47 289.09 313.81 289.19 314.08C289.83 315.81 291.05 316.89 291.61 317.33C291.94 317.54 292.42 317.84 293.01 318.19C293.7 318.59 294.22 318.87 294.25 318.89C295.68 319.64 304.68 319.12 306.02 313.32C306.61 310.78 305.55 307.95 303.77 306.26V306.27Z" fill="#7C1703"/>
    <path d="M304.3 306.69C304.03 306.47 303.79 306.33 303.68 306.27C304.5 307.37 305.9 309.64 305.42 312.15C304.53 316.87 297.53 319.83 292.93 317.87C291.2 317.13 290.12 315.82 289.52 314.93C289.77 315.38 290.01 315.83 290.27 316.27C290.62 316.73 291.15 317.34 291.91 317.93C292.48 318.38 293.83 319.41 295.74 319.69C296.55 319.8 297.34 319.68 298.93 319.42C301.39 319.02 302.62 318.82 303.4 318.05C303.73 317.72 304.34 316.98 305.09 316.07C305.32 315.79 305.5 315.56 305.62 315.41C305.6 315.43 305.65 315.36 305.74 315.24C305.86 314.97 306.03 314.54 306.17 313.99C306.78 311.56 306.33 308.3 304.32 306.69H304.3Z" fill="#551201"/>
    <path d="M295.53 305.04C303.54 303.88 303.13 315.58 295.53 314.32C290.51 313.49 289.56 305.9 295.53 305.04Z" fill="#C94E28"/>
    <path d="M513.43 348.32C512.14 347.26 510.76 346.85 509.54 346.49C507.72 345.95 504.96 345.13 501.98 346.16C501.98 346.16 498.37 347.4 496.73 350.99C496.36 351.8 496.16 352.68 496.16 352.68C496.1 352.94 496.06 353.16 496.05 353.26C495.86 354.52 496.41 355.86 496.52 356.13C497.26 357.86 498.68 358.94 499.32 359.38C499.7 359.59 500.26 359.89 500.94 360.24C501.74 360.64 502.34 360.92 502.38 360.94C504.03 361.69 514.48 361.17 516.03 355.37C516.71 352.83 515.48 350 513.42 348.31L513.43 348.32Z" fill="#7C1703"/>
    <path d="M514.04 348.74C513.73 348.52 513.45 348.38 513.32 348.32C514.27 349.42 515.89 351.69 515.34 354.2C514.3 358.92 506.18 361.88 500.84 359.92C498.83 359.18 497.57 357.87 496.88 356.98C497.17 357.43 497.45 357.88 497.75 358.32C498.15 358.78 498.77 359.39 499.65 359.98C500.32 360.43 501.88 361.46 504.1 361.74C505.03 361.85 505.96 361.73 507.8 361.47C510.65 361.07 512.08 360.87 512.99 360.1C513.38 359.77 514.08 359.03 514.95 358.12C515.21 357.84 515.43 357.61 515.57 357.46C515.54 357.48 515.61 357.41 515.71 357.29C515.85 357.02 516.05 356.59 516.2 356.04C516.91 353.61 516.39 350.35 514.05 348.74H514.04Z" fill="#551201"/>
    <path d="M503.87 347.09C513.16 345.93 512.68 357.63 503.87 356.37C498.04 355.54 496.94 347.95 503.87 347.09Z" fill="#C94E28"/>
    <path d="M513.87 391.16C512.58 390.1 511.2 389.69 509.98 389.33C508.16 388.79 505.4 387.97 502.42 389C502.42 389 498.81 390.24 497.17 393.83C496.8 394.64 496.6 395.52 496.6 395.52C496.54 395.78 496.5 396 496.49 396.1C496.3 397.36 496.85 398.7 496.96 398.97C497.7 400.7 499.12 401.78 499.76 402.22C500.14 402.43 500.7 402.73 501.38 403.08C502.18 403.48 502.78 403.76 502.82 403.78C504.47 404.53 514.92 404.01 516.47 398.21C517.15 395.67 515.92 392.84 513.86 391.15L513.87 391.16Z" fill="#7C1703"/>
    <path d="M514.48 391.58C514.17 391.36 513.89 391.22 513.76 391.16C514.71 392.26 516.33 394.53 515.78 397.04C514.74 401.76 506.62 404.72 501.28 402.76C499.27 402.02 498.01 400.71 497.32 399.82C497.61 400.27 497.89 400.72 498.19 401.16C498.59 401.62 499.21 402.23 500.09 402.82C500.76 403.27 502.32 404.3 504.54 404.58C505.47 404.69 506.4 404.57 508.24 404.31C511.09 403.91 512.52 403.71 513.43 402.94C513.82 402.61 514.52 401.87 515.39 400.96C515.65 400.68 515.87 400.45 516.01 400.3C515.98 400.32 516.05 400.25 516.15 400.13C516.29 399.86 516.49 399.43 516.64 398.88C517.35 396.45 516.83 393.19 514.49 391.58H514.48Z" fill="#551201"/>
    <path d="M504.31 389.94C513.6 388.78 513.12 400.48 504.31 399.22C498.48 398.39 497.38 390.8 504.31 389.94Z" fill="#C94E28"/>
    <path d="M544.35 375.05C543.23 373.99 542.04 373.58 541 373.22C539.43 372.68 537.06 371.86 534.48 372.89C534.48 372.89 531.37 374.13 529.96 377.72C529.64 378.53 529.46 379.41 529.46 379.41C529.41 379.67 529.37 379.89 529.36 379.99C529.19 381.25 529.67 382.59 529.77 382.86C530.41 384.59 531.63 385.67 532.19 386.11C532.52 386.32 533 386.62 533.59 386.97C534.28 387.37 534.8 387.65 534.83 387.67C536.26 388.42 545.26 387.9 546.6 382.1C547.19 379.56 546.13 376.73 544.35 375.04V375.05Z" fill="#7C1703"/>
    <path d="M544.88 375.47C544.61 375.25 544.37 375.11 544.26 375.05C545.08 376.15 546.48 378.42 546 380.93C545.11 385.65 538.11 388.61 533.51 386.65C531.78 385.91 530.7 384.6 530.1 383.71C530.35 384.16 530.59 384.61 530.85 385.05C531.2 385.51 531.73 386.12 532.49 386.71C533.06 387.16 534.41 388.19 536.32 388.47C537.13 388.58 537.92 388.46 539.51 388.2C541.97 387.8 543.2 387.6 543.98 386.83C544.31 386.5 544.92 385.76 545.67 384.85C545.9 384.57 546.08 384.34 546.2 384.19C546.18 384.21 546.23 384.14 546.32 384.02C546.44 383.75 546.61 383.32 546.75 382.77C547.36 380.34 546.91 377.08 544.9 375.47H544.88Z" fill="#551201"/>
    <path d="M536.11 373.83C544.12 372.67 543.71 384.37 536.11 383.11C531.09 382.28 530.14 374.69 536.11 373.83Z" fill="#C94E28"/>
    <path d="M470.28 374.06C469.16 373 467.97 372.59 466.93 372.23C465.36 371.69 462.99 370.87 460.41 371.9C460.41 371.9 457.3 373.14 455.89 376.73C455.57 377.54 455.39 378.42 455.39 378.42C455.34 378.68 455.3 378.9 455.29 379C455.12 380.26 455.6 381.6 455.7 381.87C456.34 383.6 457.56 384.68 458.12 385.12C458.45 385.33 458.93 385.63 459.52 385.98C460.21 386.38 460.73 386.66 460.76 386.68C462.19 387.43 471.19 386.91 472.53 381.11C473.12 378.57 472.06 375.74 470.28 374.05V374.06Z" fill="#7C1703"/>
    <path d="M470.81 374.481C470.54 374.261 470.3 374.121 470.19 374.061C471.01 375.161 472.41 377.431 471.93 379.941C471.04 384.661 464.04 387.621 459.44 385.661C457.71 384.921 456.63 383.611 456.03 382.721C456.28 383.171 456.52 383.621 456.78 384.061C457.13 384.521 457.66 385.131 458.42 385.721C458.99 386.171 460.34 387.201 462.25 387.481C463.06 387.591 463.85 387.471 465.44 387.211C467.9 386.811 469.13 386.611 469.91 385.841C470.24 385.511 470.85 384.771 471.6 383.861C471.83 383.581 472.01 383.351 472.13 383.201C472.11 383.221 472.16 383.151 472.25 383.031C472.37 382.761 472.54 382.331 472.68 381.781C473.29 379.351 472.84 376.091 470.83 374.481H470.81Z" fill="#551201"/>
    <path d="M462.04 372.84C470.05 371.68 469.64 383.38 462.04 382.12C457.02 381.29 456.07 373.7 462.04 372.84Z" fill="#C94E28"/>
    <path d="M294.6 290.43C293.13 289.37 291.56 288.96 290.18 288.6C288.11 288.06 284.97 287.24 281.58 288.27C281.58 288.27 277.48 289.51 275.61 293.1C275.19 293.91 274.96 294.79 274.96 294.79C274.89 295.05 274.85 295.27 274.83 295.37C274.61 296.63 275.23 297.97 275.37 298.24C276.21 299.97 277.83 301.05 278.56 301.49C278.99 301.7 279.62 302 280.4 302.35C281.31 302.75 282 303.03 282.04 303.05C283.92 303.8 295.8 303.28 297.57 297.48C298.34 294.94 296.95 292.11 294.61 290.42L294.6 290.43Z" fill="#7C1703"/>
    <path d="M295.29 290.85C294.93 290.63 294.62 290.49 294.47 290.43C295.55 291.53 297.39 293.8 296.77 296.31C295.59 301.03 286.35 303.99 280.28 302.03C277.99 301.29 276.57 299.98 275.77 299.09C276.1 299.54 276.42 299.99 276.76 300.43C277.22 300.89 277.92 301.5 278.92 302.09C279.68 302.54 281.45 303.57 283.98 303.85C285.04 303.96 286.09 303.84 288.19 303.58C291.44 303.18 293.06 302.98 294.09 302.21C294.53 301.88 295.33 301.14 296.31 300.23C296.61 299.95 296.86 299.72 297.02 299.57C296.99 299.59 297.06 299.52 297.18 299.4C297.34 299.13 297.56 298.7 297.74 298.15C298.54 295.72 297.95 292.46 295.29 290.85Z" fill="#551201"/>
    <path d="M283.72 289.2C294.29 288.04 293.75 299.74 283.72 298.48C277.09 297.65 275.84 290.06 283.72 289.2Z" fill="#C94E28"/>
    <path d="M177.43 235.81C196.53 248.89 213.31 228.07 266.63 229.21C305.44 230.04 311.77 241.39 345.44 236.62C364.21 233.96 393.98 229.74 404 207.51C414.9 183.36 394.77 155.07 392.59 152.1C368.47 118.97 341.81 88.7 327.05 94.64C313.08 100.26 324.96 132.17 306.41 150.74C274 183.18 196.6 127.01 167.4 156.46C149.09 174.94 155.81 220.99 177.44 235.8L177.43 235.81Z" fill="#342F38"/>
    <path d="M205.99 207.51C206.29 205.38 208.58 190.87 222.19 182.14C236.67 172.85 251.85 177.91 253.67 178.55" stroke="#180027" stroke-width="10" stroke-miterlimit="10" stroke-linecap="round"/>
    <path d="M340.72 150.74C339.81 140.52 346.22 131.25 355.42 128.75C363.28 126.61 371.97 129.74 377.11 136.66" stroke="#180027" stroke-width="10" stroke-miterlimit="10" stroke-linecap="round"/>
    <path d="M619.625 812.649C651.466 776.444 641.53 715.655 597.432 676.874C553.335 638.093 491.775 636.004 459.935 672.209C428.094 708.415 438.03 769.203 482.127 807.984C526.225 846.766 587.784 848.854 619.625 812.649Z" fill="#E09A69" stroke="#180027" stroke-width="10" stroke-linecap="round" stroke-linejoin="round"/>
    <path d="M647.08 790.1C672.96 771.78 668.88 732.22 668.47 728.72C666.18 708.52 639.95 671.21 615.11 622.77C601.56 596.35 568.93 585.77 542.89 598.84C519.69 610.49 514.06 646.84 519.01 671.16C520.26 677.3 521.68 680.19 533.94 703.35C566.46 764.76 572.69 775 586.75 785.1C606.64 799.39 621.5 798.5 624.64 798.24C626.43 798.09 637.29 797.02 647.07 790.1H647.08Z" fill="#E09A69" stroke="#180027" stroke-width="10" stroke-linecap="round" stroke-linejoin="round"/>
    <path d="M636.59 760.09C651.22 749.74 648.91 727.38 648.68 725.4C647.39 713.98 632.56 692.9 618.52 665.52C610.86 650.59 592.42 644.61 577.7 652C564.59 658.58 561.4 679.13 564.21 692.87C564.92 696.34 565.72 697.98 572.65 711.06C591.03 745.77 594.55 751.56 602.5 757.26C613.74 765.33 622.14 764.83 623.91 764.69C624.92 764.61 631.06 764 636.59 760.09Z" fill="#180027"/>
    <path d="M554.99 665.18C560.91 661.46 561.38 655.39 561.41 654.85C561.61 651.76 557.44 646.77 553.93 640C552.01 636.3 545.65 635.72 539.87 638.63C534.72 641.22 532.36 647.1 532.58 650.75C532.63 651.67 532.83 652.08 534.59 655.3C539.25 663.85 540.2 665.26 542.75 666.37C546.37 667.95 549.45 667.33 550.11 667.18C550.48 667.1 552.75 666.57 554.99 665.16V665.18Z" fill="#180027"/>
    <path d="M576.25 634.52C582.17 630.8 582.64 624.73 582.67 624.19C582.87 621.1 578.7 616.11 575.19 609.34C573.27 605.64 566.91 605.06 561.13 607.97C555.98 610.56 553.62 616.44 553.84 620.09C553.89 621.01 554.09 621.42 555.85 624.64C560.51 633.19 561.46 634.6 564.01 635.71C567.63 637.29 570.71 636.67 571.37 636.52C571.74 636.44 574.01 635.91 576.25 634.5V634.52Z" fill="#180027"/>
    <path d="M608.86 642.09C614.78 638.37 615.25 632.3 615.28 631.76C615.48 628.67 611.31 623.68 607.8 616.91C605.88 613.21 599.52 612.63 593.74 615.54C588.59 618.13 586.23 624.01 586.45 627.66C586.5 628.58 586.7 628.99 588.46 632.21C593.12 640.76 594.07 642.17 596.62 643.28C600.24 644.86 603.32 644.24 603.98 644.09C604.35 644.01 606.62 643.48 608.86 642.07V642.09Z" fill="#180027"/>
    <path d="M456.79 219.94C456.79 219.94 455.96 238.6 422.34 246.37C388.72 254.14 421.31 216.45 421.31 216.45C421.31 216.45 446.45 202.08 456.79 219.94Z" fill="#342F38" stroke="#180027" stroke-width="9.84" stroke-miterlimit="10"/>
    <path d="M304.06 173.14C296.24 186.25 319.98 200.05 322.11 240.72C323.16 260.85 317.95 268.94 324.69 276.43C338.12 291.35 375.16 277.32 380.69 275.23C404.74 266.12 417.88 250.25 420.61 246.74C430.44 234.15 435.38 221.06 437.92 210.72C439.68 211.99 445.42 215.77 452.41 214.55C463.22 212.66 467.33 200.49 468 198.5C468 198.5 470.42 191.17 468.65 183.07C466.71 174.16 448.6 165.64 432.02 161.82C413.94 157.65 402.96 162.01 382.82 164.86C329.22 172.43 310.97 161.55 304.06 173.13V173.14Z" fill="#342F38" stroke="#180027" stroke-width="9.84" stroke-linejoin="round"/>
    <path d="M431.56 187.33C442.61 174.61 445.64 159.88 439.75 151.13C436.58 146.41 428.76 140.36 422.12 143.38C417.31 145.57 414.41 151.94 415.25 159.09C403.29 154.74 392.44 158.1 389.62 164.27C386.6 170.88 393.17 179.56 397.73 183.52C410.56 194.65 429.94 187.92 431.55 187.33H431.56Z" fill="#180027"/>
    <path d="M62.17 227.86C13.9 181.88 5.01998 180.03 6.19998 173.04C10.56 147.4 139.11 120.15 170.98 172.11C183.67 192.8 182.35 228.21 161.76 246.91C141.65 265.17 110.5 260.84 92.62 252.88C83.07 248.63 79.35 244.25 62.16 227.87L62.17 227.86Z" fill="#342F38" stroke="#180027" stroke-width="12.21" stroke-miterlimit="10"/>
    </g>
    <defs>
    <clipPath id="clip0_307_5">
    <rect width="915.17" height="913.32" fill="white"/>
    </clipPath>
    </defs>
</svg>
