<svg width="912" height="885" viewBox="0 0 912 885" fill="none" xmlns="http://www.w3.org/2000/svg">
    <g clip-path="url(#clip0_280_21)">
    <path d="M200.14 33.41C133.49 35.2 125.66 30.63 121.86 36.61C107.92 58.56 185.08 164.93 243.56 147.71C266.85 140.85 289.59 113.69 286.84 86.01C284.15 58.98 258.12 41.32 239.51 35.25C229.57 32.01 223.88 32.77 200.14 33.41Z" fill="#CBC5F2" stroke="#180027" stroke-width="12.21" stroke-miterlimit="10"/>
    <path d="M879.8 589.07C908.52 575.63 911.53 535.98 911.74 532.46C913.08 512.17 893.88 470.8 878.03 418.72C869.38 390.31 839.14 374.11 811.2 382.36C786.31 389.71 774.31 424.48 774.87 449.3C775.01 455.57 775.89 458.66 783.86 483.63C804.97 549.83 809.29 561.02 821.33 573.45C838.37 591.04 853.15 592.8 856.29 593.1C858.07 593.27 868.96 594.15 879.81 589.07H879.8Z" fill="#180027"/>
    <path d="M475.76 380.62C491.48 408.16 531.24 407.95 534.77 407.88C555.1 407.57 594.78 385.09 645.41 365.07C673.02 354.15 686.72 322.7 676.24 295.52C666.9 271.3 631.27 262.16 606.58 264.73C600.35 265.38 597.33 266.51 573.09 276.46C508.81 302.86 498.01 308.06 486.6 321.07C470.45 339.48 469.89 354.35 469.84 357.5C469.81 359.29 469.82 370.21 475.76 380.62Z" fill="#180027"/>
    <path d="M179.98 334.18C195.26 359.91 210.55 385.65 225.83 411.38C259.51 398.76 294.23 384.97 329.83 369.87C367.6 353.85 403.64 337.54 437.92 321.15C423.94 307.03 409.97 292.9 395.99 278.78C323.99 297.25 251.99 315.71 179.99 334.18H179.98Z" fill="#FF3E68" stroke="#180027" stroke-width="11.04" stroke-miterlimit="10"/>
    <path d="M123.01 273.11C83.6799 197.39 113.62 102.71 189.34 63.37C233.89 40.23 287.83 41.52 329.12 61.85C374.58 84.23 396.66 125.09 399.07 129.7C422.74 137.19 438.52 142.18 445.83 151.2C448.24 154.18 455.08 164.2 449.12 187.23C439.32 257.51 394.75 316.12 332.74 339.44C265.05 364.89 164.43 352.86 123 273.11H123.01Z" fill="#CBC5F2" stroke="#180027" stroke-width="11.04" stroke-miterlimit="10"/>
    <path d="M863.49 589.47C870.52 701.47 789.53 817.61 685.35 860.59C498.57 937.63 279.11 762.24 226.85 593.38C220.57 573.1 182.64 450.53 249.48 371.75C294.46 318.74 364.53 311.89 403.53 308.64C578.02 294.1 851.26 394.72 863.49 589.47Z" fill="#CBC5F2" stroke="#180027" stroke-width="10" stroke-linecap="round" stroke-linejoin="round"/>
    <path d="M537.19 317C591.41 329.78 734.75 374.52 734.66 430.62C734.58 480.39 621.66 529.76 525.87 529.95C449.58 530.1 341.63 499.47 312.17 422.39C308.91 413.87 293.47 373.45 312.22 343.55C336.29 305.17 402.85 306.22 455.18 307.04C497.01 307.7 528.4 314.93 537.2 317H537.19Z" fill="white" stroke="#180027" stroke-width="10" stroke-miterlimit="10"/>
    <path d="M304.68 663.78C324.41 702.59 335.27 698.42 374.46 760.95C391.93 788.83 407.74 814.05 403.43 817.72C396.46 823.66 335.5 774.15 289.55 708.91C239.9 638.43 210.95 550.56 223.81 543C231.96 538.21 256.34 565.69 259.81 569.61C288.27 601.72 283.36 621.86 304.68 663.78Z" fill="#180027"/>
    <path d="M354.35 564.06C385.95 561.49 402.61 525.38 404.04 522.15C412.37 503.61 408.82 458.14 412.14 403.8C413.95 374.16 391.27 348.43 362.2 346.4C336.31 344.6 312.93 373 304.79 396.45C302.74 402.37 302.48 405.58 301.23 431.76C297.91 501.17 298.05 513.16 305 529.01C314.83 551.44 328.06 558.25 330.9 559.63C332.51 560.41 342.4 565.03 354.35 564.06Z" fill="#CBC5F2" stroke="#180027" stroke-width="10" stroke-linecap="round" stroke-linejoin="round"/>
    <path d="M359.74 448.3C409.76 454.54 418.47 454.96 430.59 449.21C447.75 441.08 453.89 429.08 455.15 426.51C455.87 425.05 460.11 416.05 460.5 404.9C461.35 380.35 441.18 362.2 435.63 357.58C435.55 357.51 435.09 357.13 434.65 356.77C415.34 341.33 361.85 328.29 327.13 359.71C299.84 384.41 301.2 421.15 301.5 426.82" fill="#CBC5F2"/>
    <path d="M359.74 448.3C409.76 454.54 418.47 454.96 430.59 449.21C447.75 441.08 453.89 429.08 455.15 426.51C455.87 425.05 460.11 416.05 460.5 404.9C461.35 380.35 441.18 362.2 435.63 357.58C435.55 357.51 435.09 357.13 434.65 356.77C415.34 341.33 361.85 328.29 327.13 359.71C299.84 384.41 301.2 421.15 301.5 426.82" stroke="#180027" stroke-width="10" stroke-linecap="round" stroke-linejoin="round"/>
    <path d="M451.5 432.47C451.65 428.34 451.35 419.91 446.3 411.38C436.53 394.87 417.54 392.53 415.13 392.27" stroke="#180027" stroke-width="9.44" stroke-miterlimit="10" stroke-linecap="round"/>
    <path d="M460.3 407.89C461.15 402.64 460.62 398.42 459.77 395.27C455.58 379.64 437.82 368.24 415.13 365.28" stroke="#180027" stroke-width="9.44" stroke-miterlimit="10" stroke-linecap="round"/>
    <path d="M515.64 58.29C515.64 84.67 496.48 106.58 471.31 110.84L403.43 125.75L409.05 58.29C409.05 28.86 432.91 5 462.35 5C491.79 5 515.64 28.86 515.64 58.29Z" fill="white" stroke="#180027" stroke-width="10" stroke-miterlimit="10"/>
    <path d="M269.08 263.36C267.96 262.3 266.77 261.89 265.73 261.53C264.16 260.99 261.79 260.17 259.21 261.2C259.21 261.2 256.1 262.44 254.69 266.03C254.37 266.84 254.19 267.72 254.19 267.72C254.14 267.98 254.1 268.2 254.09 268.3C253.92 269.56 254.4 270.9 254.5 271.17C255.14 272.9 256.36 273.98 256.92 274.42C257.25 274.63 257.73 274.93 258.32 275.28C259.01 275.68 259.53 275.96 259.56 275.98C260.99 276.73 269.99 276.21 271.33 270.41C271.92 267.87 270.86 265.04 269.08 263.35V263.36Z" fill="#7C1703"/>
    <path d="M269.61 263.78C269.34 263.56 269.1 263.42 268.99 263.36C269.81 264.46 271.21 266.73 270.73 269.24C269.84 273.96 262.84 276.92 258.24 274.96C256.51 274.22 255.43 272.91 254.83 272.02C255.08 272.47 255.32 272.92 255.58 273.36C255.93 273.82 256.46 274.43 257.22 275.02C257.79 275.47 259.14 276.5 261.05 276.78C261.86 276.89 262.65 276.77 264.24 276.51C266.7 276.11 267.93 275.91 268.71 275.14C269.04 274.81 269.65 274.07 270.4 273.16C270.63 272.88 270.81 272.65 270.93 272.5C270.91 272.52 270.96 272.45 271.05 272.33C271.17 272.06 271.34 271.63 271.48 271.08C272.09 268.65 271.64 265.39 269.63 263.78H269.61Z" fill="#551201"/>
    <path d="M260.84 262.14C268.85 260.98 268.44 272.68 260.84 271.42C255.82 270.59 254.87 263 260.84 262.14Z" fill="#C94E28"/>
    <path d="M300.41 277.22C299.29 276.16 298.1 275.75 297.06 275.39C295.49 274.85 293.12 274.03 290.54 275.06C290.54 275.06 287.43 276.3 286.02 279.89C285.7 280.7 285.52 281.58 285.52 281.58C285.47 281.84 285.43 282.06 285.42 282.16C285.25 283.42 285.73 284.76 285.83 285.03C286.47 286.76 287.69 287.84 288.25 288.28C288.58 288.49 289.06 288.79 289.65 289.14C290.34 289.54 290.86 289.82 290.89 289.84C292.32 290.59 301.32 290.07 302.66 284.27C303.25 281.73 302.19 278.9 300.41 277.21V277.22Z" fill="#7C1703"/>
    <path d="M300.94 277.64C300.67 277.42 300.43 277.28 300.32 277.22C301.14 278.32 302.54 280.59 302.06 283.1C301.17 287.82 294.17 290.78 289.57 288.82C287.84 288.08 286.76 286.77 286.16 285.88C286.41 286.33 286.65 286.78 286.91 287.22C287.26 287.68 287.79 288.29 288.55 288.88C289.12 289.33 290.47 290.36 292.38 290.64C293.19 290.75 293.98 290.63 295.57 290.37C298.03 289.97 299.26 289.77 300.04 289C300.37 288.67 300.98 287.93 301.73 287.02C301.96 286.74 302.14 286.51 302.26 286.36C302.24 286.38 302.29 286.31 302.38 286.19C302.5 285.92 302.67 285.49 302.81 284.94C303.42 282.51 302.97 279.25 300.96 277.64H300.94Z" fill="#551201"/>
    <path d="M292.17 275.99C300.18 274.83 299.77 286.53 292.17 285.27C287.15 284.44 286.2 276.85 292.17 275.99Z" fill="#C94E28"/>
    <path d="M510.07 319.27C508.78 318.21 507.4 317.8 506.18 317.44C504.36 316.9 501.6 316.08 498.62 317.11C498.62 317.11 495.01 318.35 493.37 321.94C493 322.75 492.8 323.63 492.8 323.63C492.74 323.89 492.7 324.11 492.69 324.21C492.5 325.47 493.05 326.81 493.16 327.08C493.9 328.81 495.32 329.89 495.96 330.33C496.34 330.54 496.9 330.84 497.58 331.19C498.38 331.59 498.98 331.87 499.02 331.89C500.67 332.64 511.12 332.12 512.67 326.32C513.35 323.78 512.12 320.95 510.06 319.26L510.07 319.27Z" fill="#7C1703"/>
    <path d="M510.68 319.69C510.37 319.47 510.09 319.33 509.96 319.27C510.91 320.37 512.53 322.64 511.98 325.15C510.94 329.87 502.82 332.83 497.48 330.87C495.47 330.13 494.21 328.82 493.52 327.93C493.81 328.38 494.09 328.83 494.39 329.27C494.79 329.73 495.41 330.34 496.29 330.93C496.96 331.38 498.52 332.41 500.74 332.69C501.67 332.8 502.6 332.68 504.44 332.42C507.29 332.02 508.72 331.82 509.63 331.05C510.02 330.72 510.72 329.98 511.59 329.07C511.85 328.79 512.07 328.56 512.21 328.41C512.18 328.43 512.25 328.36 512.35 328.24C512.49 327.97 512.69 327.54 512.84 326.99C513.55 324.56 513.03 321.3 510.69 319.69H510.68Z" fill="#551201"/>
    <path d="M500.51 318.04C509.8 316.88 509.32 328.58 500.51 327.32C494.68 326.49 493.58 318.9 500.51 318.04Z" fill="#C94E28"/>
    <path d="M510.5 362.11C509.21 361.05 507.83 360.64 506.61 360.28C504.79 359.74 502.03 358.92 499.05 359.95C499.05 359.95 495.44 361.19 493.8 364.78C493.43 365.59 493.23 366.47 493.23 366.47C493.17 366.73 493.13 366.95 493.12 367.05C492.93 368.31 493.48 369.65 493.59 369.92C494.33 371.65 495.75 372.73 496.39 373.17C496.77 373.38 497.33 373.68 498.01 374.03C498.81 374.43 499.41 374.71 499.45 374.73C501.1 375.48 511.55 374.96 513.1 369.16C513.78 366.62 512.55 363.79 510.49 362.1L510.5 362.11Z" fill="#7C1703"/>
    <path d="M511.11 362.53C510.8 362.31 510.52 362.17 510.39 362.11C511.34 363.21 512.96 365.48 512.41 367.99C511.37 372.71 503.25 375.67 497.91 373.71C495.9 372.97 494.64 371.66 493.95 370.77C494.24 371.22 494.52 371.67 494.82 372.11C495.22 372.57 495.84 373.18 496.72 373.77C497.39 374.22 498.95 375.25 501.17 375.53C502.1 375.64 503.03 375.52 504.87 375.26C507.72 374.86 509.15 374.66 510.06 373.89C510.45 373.56 511.15 372.82 512.02 371.91C512.28 371.63 512.5 371.4 512.64 371.25C512.61 371.27 512.68 371.2 512.78 371.08C512.92 370.81 513.12 370.38 513.27 369.83C513.98 367.4 513.46 364.14 511.12 362.53H511.11Z" fill="#551201"/>
    <path d="M500.94 360.89C510.23 359.73 509.75 371.43 500.94 370.17C495.11 369.34 494.01 361.75 500.94 360.89Z" fill="#C94E28"/>
    <path d="M540.99 346C539.87 344.94 538.68 344.53 537.64 344.17C536.07 343.63 533.7 342.81 531.12 343.84C531.12 343.84 528.01 345.08 526.6 348.67C526.28 349.48 526.1 350.36 526.1 350.36C526.05 350.62 526.01 350.84 526 350.94C525.83 352.2 526.31 353.54 526.41 353.81C527.05 355.54 528.27 356.62 528.83 357.06C529.16 357.27 529.64 357.57 530.23 357.92C530.92 358.32 531.44 358.6 531.47 358.62C532.9 359.37 541.9 358.85 543.24 353.05C543.83 350.51 542.77 347.68 540.99 345.99V346Z" fill="#7C1703"/>
    <path d="M541.52 346.42C541.25 346.2 541.01 346.06 540.9 346C541.72 347.1 543.12 349.37 542.64 351.88C541.75 356.6 534.75 359.56 530.15 357.6C528.42 356.86 527.34 355.55 526.74 354.66C526.99 355.11 527.23 355.56 527.49 356C527.84 356.46 528.37 357.07 529.13 357.66C529.7 358.11 531.05 359.14 532.96 359.42C533.77 359.53 534.56 359.41 536.15 359.15C538.61 358.75 539.84 358.55 540.62 357.78C540.95 357.45 541.56 356.71 542.31 355.8C542.54 355.52 542.72 355.29 542.84 355.14C542.82 355.16 542.87 355.09 542.96 354.97C543.08 354.7 543.25 354.27 543.39 353.72C544 351.29 543.55 348.03 541.54 346.42H541.52Z" fill="#551201"/>
    <path d="M532.75 344.78C540.76 343.62 540.35 355.32 532.75 354.06C527.73 353.23 526.78 345.64 532.75 344.78Z" fill="#C94E28"/>
    <path d="M466.92 345.01C465.8 343.95 464.61 343.54 463.57 343.18C462 342.64 459.63 341.82 457.05 342.85C457.05 342.85 453.94 344.09 452.53 347.68C452.21 348.49 452.03 349.37 452.03 349.37C451.98 349.63 451.94 349.85 451.93 349.95C451.76 351.21 452.24 352.55 452.34 352.82C452.98 354.55 454.2 355.63 454.76 356.07C455.09 356.28 455.57 356.58 456.16 356.93C456.85 357.33 457.37 357.61 457.4 357.63C458.83 358.38 467.83 357.86 469.17 352.06C469.76 349.52 468.7 346.69 466.92 345V345.01Z" fill="#7C1703"/>
    <path d="M467.45 345.43C467.18 345.21 466.94 345.07 466.83 345.01C467.65 346.11 469.05 348.38 468.57 350.89C467.68 355.61 460.68 358.57 456.08 356.61C454.35 355.87 453.27 354.56 452.67 353.67C452.92 354.12 453.16 354.57 453.42 355.01C453.77 355.47 454.3 356.08 455.06 356.67C455.63 357.12 456.98 358.15 458.89 358.43C459.7 358.54 460.49 358.42 462.08 358.16C464.54 357.76 465.77 357.56 466.55 356.79C466.88 356.46 467.49 355.72 468.24 354.81C468.47 354.53 468.65 354.3 468.77 354.15C468.75 354.17 468.8 354.1 468.89 353.98C469.01 353.71 469.18 353.28 469.32 352.73C469.93 350.3 469.48 347.04 467.47 345.43H467.45Z" fill="#551201"/>
    <path d="M458.68 343.78C466.69 342.62 466.28 354.32 458.68 353.06C453.66 352.23 452.71 344.64 458.68 343.78Z" fill="#C94E28"/>
    <path d="M291.23 261.38C289.76 260.32 288.19 259.91 286.81 259.55C284.74 259.01 281.6 258.19 278.21 259.22C278.21 259.22 274.11 260.46 272.24 264.05C271.82 264.86 271.59 265.74 271.59 265.74C271.52 266 271.48 266.22 271.46 266.32C271.24 267.58 271.86 268.92 272 269.19C272.84 270.92 274.46 272 275.19 272.44C275.62 272.65 276.25 272.95 277.03 273.3C277.94 273.7 278.63 273.98 278.67 274C280.55 274.75 292.43 274.23 294.2 268.43C294.97 265.89 293.58 263.06 291.24 261.37L291.23 261.38Z" fill="#7C1703"/>
    <path d="M291.93 261.8C291.57 261.58 291.26 261.44 291.11 261.38C292.19 262.48 294.03 264.75 293.41 267.26C292.23 271.98 282.99 274.94 276.92 272.98C274.63 272.24 273.21 270.93 272.41 270.04C272.74 270.49 273.06 270.94 273.4 271.38C273.86 271.84 274.56 272.45 275.56 273.04C276.32 273.49 278.09 274.52 280.62 274.8C281.68 274.91 282.73 274.79 284.83 274.53C288.08 274.13 289.7 273.93 290.73 273.16C291.17 272.83 291.97 272.09 292.95 271.18C293.25 270.9 293.5 270.67 293.66 270.52C293.63 270.54 293.7 270.47 293.82 270.35C293.98 270.08 294.2 269.65 294.38 269.1C295.18 266.67 294.59 263.41 291.93 261.8Z" fill="#551201"/>
    <path d="M280.36 260.15C290.93 258.99 290.39 270.69 280.36 269.43C273.73 268.6 272.48 261.01 280.36 260.15Z" fill="#C94E28"/>
    <path d="M83.1 132.05C17.95 146.19 9.40002 143.14 6.77002 149.73C-2.84998 173.89 92.72 264.08 146.98 236.3C168.59 225.24 185.9 194.32 178.05 167.63C170.39 141.57 141.53 129.05 122.12 126.54C111.75 125.2 106.3 127.01 83.09 132.04L83.1 132.05Z" fill="#CBC5F2" stroke="#180027" stroke-width="12.21" stroke-miterlimit="10"/>
    <path d="M134.27 120C191.34 105.22 249.86 122.07 283.75 163.33C314.59 200.87 313.8 244.95 313.1 257.8C348.58 231.26 384.06 204.71 419.54 178.17C400.24 158.26 380.93 138.35 361.63 118.44C358.55 114.07 311.03 48.5698 250.31 51.7498C234.49 52.5798 212.64 58.3398 192.97 67.9598C173.3 77.5798 161.17 88.4398 158.14 91.2198C146.73 101.67 139.11 112.22 134.27 120.01V120Z" fill="white"/>
    <path d="M202.62 178.46C202.92 176.33 205.21 161.82 218.82 153.09C233.3 143.8 248.48 148.86 250.3 149.5" stroke="#180027" stroke-width="10" stroke-miterlimit="10" stroke-linecap="round"/>
    <path d="M337.35 121.69C336.44 111.47 342.85 102.2 352.05 99.6999C359.91 97.5599 368.6 100.69 373.74 107.61" stroke="#180027" stroke-width="10" stroke-miterlimit="10" stroke-linecap="round"/>
    <path d="M390 155.97C391 154.46 400.24 140.18 394.1 128.32C390.98 122.29 383.53 116.19 379.53 118.28C375.6 120.33 376.69 129.41 376.81 130.3C366.42 125.94 356.69 128.45 353.93 133.78C350.97 139.5 356.41 147.45 360.27 151.15C371.13 161.54 388.55 156.42 390 155.97Z" fill="#180027"/>
    <path d="M404.18 201.8C403.5 209.85 400.73 227.36 383.49 246.11C359.18 272.53 316.29 282.03 306.22 269.44C289.35 248.33 351.73 149.01 400.8 155.04C411.07 156.3 422.91 162.44 430.3 172.31C441.3 186.99 444.04 211.22 432.98 220.54C427.42 225.22 419.31 225.36 417.4 225.39C408.47 225.54 402.15 221.52 400.01 220.01" fill="white"/>
    <path d="M404.18 201.8C403.5 209.85 400.73 227.36 383.49 246.11C359.18 272.53 316.29 282.03 306.22 269.44C289.35 248.33 351.73 149.01 400.8 155.04C411.07 156.3 422.91 162.44 430.3 172.31C441.3 186.99 444.04 211.22 432.98 220.54C427.42 225.22 419.31 225.36 417.4 225.39C408.47 225.54 402.15 221.52 400.01 220.01" stroke="#180027" stroke-width="10.63" stroke-linecap="round" stroke-linejoin="round"/>
    <path d="M616.255 783.605C648.096 747.4 638.16 686.611 594.063 647.83C549.965 609.049 488.406 606.96 456.565 643.166C424.724 679.371 434.661 740.159 478.758 778.941C522.855 817.722 584.415 819.81 616.255 783.605Z" fill="#CBC5F2" stroke="#180027" stroke-width="10" stroke-linecap="round" stroke-linejoin="round"/>
    <path d="M643.71 761.05C669.59 742.73 665.51 703.17 665.1 699.67C662.81 679.47 636.58 642.16 611.74 593.72C598.19 567.3 565.56 556.72 539.52 569.79C516.32 581.44 510.69 617.79 515.64 642.11C516.89 648.25 518.31 651.14 530.57 674.3C563.09 735.71 569.32 745.95 583.38 756.05C603.27 770.34 618.13 769.45 621.27 769.19C623.06 769.04 633.92 767.97 643.7 761.05H643.71Z" fill="#CBC5F2" stroke="#180027" stroke-width="10" stroke-linecap="round" stroke-linejoin="round"/>
    <path d="M633.22 731.04C647.85 720.69 645.54 698.33 645.31 696.35C644.02 684.93 629.19 663.85 615.15 636.47C607.49 621.54 589.05 615.56 574.33 622.95C561.22 629.53 558.03 650.08 560.84 663.82C561.55 667.29 562.35 668.93 569.28 682.01C587.66 716.72 591.18 722.51 599.13 728.21C610.37 736.28 618.77 735.78 620.54 735.64C621.55 735.56 627.69 734.95 633.22 731.04Z" fill="#180027"/>
    <path d="M551.62 636.13C557.54 632.41 558.01 626.34 558.04 625.8C558.24 622.71 554.07 617.72 550.56 610.95C548.64 607.25 542.28 606.67 536.5 609.58C531.35 612.17 528.99 618.05 529.21 621.7C529.26 622.62 529.46 623.03 531.22 626.25C535.88 634.8 536.83 636.21 539.38 637.32C543 638.9 546.08 638.28 546.74 638.13C547.11 638.05 549.38 637.52 551.62 636.11V636.13Z" fill="#180027"/>
    <path d="M572.89 605.47C578.81 601.75 579.28 595.68 579.31 595.14C579.51 592.05 575.34 587.06 571.83 580.29C569.91 576.59 563.55 576.01 557.77 578.92C552.62 581.51 550.26 587.39 550.48 591.04C550.53 591.96 550.73 592.37 552.49 595.59C557.15 604.14 558.1 605.55 560.65 606.66C564.27 608.24 567.35 607.62 568.01 607.47C568.38 607.39 570.65 606.86 572.89 605.45V605.47Z" fill="#180027"/>
    <path d="M605.5 613.04C611.42 609.32 611.89 603.25 611.92 602.71C612.12 599.62 607.95 594.63 604.44 587.86C602.52 584.16 596.16 583.58 590.38 586.49C585.23 589.08 582.87 594.96 583.09 598.61C583.14 599.53 583.34 599.94 585.1 603.16C589.76 611.71 590.71 613.12 593.26 614.23C596.88 615.81 599.96 615.19 600.62 615.04C600.99 614.96 603.26 614.43 605.5 613.02V613.04Z" fill="#180027"/>
    </g>
    <defs>
    <clipPath id="clip0_280_21">
    <rect width="911.81" height="884.27" fill="white"/>
    </clipPath>
    </defs>
</svg>
