<svg width="894" height="914" viewBox="0 0 894 914" fill="none" xmlns="http://www.w3.org/2000/svg">
    <g clip-path="url(#clip0_308_129)">
    <path d="M250.8 269.72C243.9 255.95 251.69 234.91 270.83 228.7C265.88 224.36 258.83 217.52 251.87 208.02C246.16 200.22 205.51 144.7 231.37 99.75C247.63 71.49 284.41 57.43 315.01 62.54C368.43 71.46 387.83 136.28 392 150.23C398.44 171.76 398.61 190.73 397.73 203.27C413.27 202.8 425.48 213.25 426.8 224.16C428.36 237.09 414.87 252.72 395.63 251.57C407.3 265.45 407.95 284.45 399.02 295.91C387.69 310.45 361.14 312.61 344.36 295.07C340.31 309.55 325.49 317.79 312.35 314.29C298.12 310.5 289.28 293.86 295.16 278.6C278.73 289.75 257.62 283.33 250.8 269.73V269.72Z" fill="#CBC5F2" stroke="#180027" stroke-width="12.85" stroke-linejoin="round"/>
    <path d="M861.09 614.54C889.81 601.1 892.82 561.45 893.03 557.93C894.37 537.64 875.17 496.27 859.32 444.19C850.67 415.78 820.43 399.58 792.49 407.83C767.6 415.18 755.6 449.95 756.16 474.77C756.3 481.04 757.18 484.13 765.15 509.1C786.26 575.3 790.58 586.49 802.62 598.92C819.66 616.51 834.44 618.27 837.58 618.57C839.36 618.74 850.25 619.62 861.1 614.54H861.09Z" fill="#180027"/>
    <path d="M457.05 406.09C472.77 433.63 512.53 433.42 516.06 433.35C536.39 433.04 576.07 410.56 626.7 390.54C654.31 379.62 668.01 348.17 657.53 320.99C648.19 296.77 612.56 287.63 587.87 290.2C581.64 290.85 578.62 291.98 554.38 301.93C490.1 328.33 479.3 333.53 467.89 346.54C451.74 364.95 451.18 379.82 451.13 382.97C451.1 384.76 451.11 395.68 457.05 406.09Z" fill="#180027"/>
    <path d="M161.28 359.65C176.56 385.38 191.85 411.12 207.13 436.85C240.81 424.23 275.53 410.44 311.13 395.34C348.9 379.32 384.94 363.01 419.22 346.62C405.24 332.5 391.27 318.37 377.29 304.25C305.29 322.72 233.29 341.18 161.29 359.65H161.28Z" fill="#3CE8A5" stroke="#180027" stroke-width="11.04" stroke-miterlimit="10"/>
    <path d="M104.3 298.57C64.97 222.85 94.91 128.17 170.63 88.8299C215.18 65.6899 269.12 66.9799 310.41 87.3099C355.87 109.69 377.95 150.55 380.36 155.16C404.03 162.65 419.81 167.64 427.12 176.66C429.53 179.64 436.37 189.66 430.41 212.69C420.61 282.97 376.04 341.58 314.03 364.9C246.34 390.35 145.72 378.32 104.29 298.57H104.3Z" fill="#FFFEFB" stroke="#180027" stroke-width="11.04" stroke-miterlimit="10"/>
    <path d="M844.78 614.94C851.81 726.94 770.82 843.08 666.64 886.06C479.86 963.1 260.4 787.71 208.14 618.85C201.86 598.57 163.93 476 230.77 397.22C275.75 344.21 345.82 337.36 384.82 334.11C559.31 319.57 832.55 420.19 844.78 614.94Z" fill="#FFFEFB" stroke="#180027" stroke-width="16.94" stroke-miterlimit="10"/>
    <path d="M335.64 589.53C367.24 586.96 383.9 550.85 385.33 547.62C393.66 529.08 390.11 483.61 393.43 429.27C395.24 399.63 372.56 373.9 343.49 371.87C317.6 370.07 294.22 398.47 286.08 421.92C284.03 427.84 283.77 431.05 282.52 457.23C279.2 526.64 279.34 538.63 286.29 554.48C296.12 576.91 309.35 583.72 312.19 585.1C313.8 585.88 323.69 590.5 335.64 589.53Z" fill="#FFFEFB" stroke="#180027" stroke-width="10" stroke-linecap="round" stroke-linejoin="round"/>
    <path d="M341.03 473.77C391.05 480.01 399.76 480.43 411.88 474.68C429.04 466.55 435.18 454.55 436.44 451.98C437.16 450.52 441.4 441.52 441.79 430.37C442.64 405.82 422.47 387.67 416.92 383.05C416.84 382.98 416.38 382.6 415.94 382.24C396.63 366.8 343.14 353.76 308.42 385.18C281.13 409.88 282.49 446.62 282.79 452.29" fill="#FFFEFB"/>
    <path d="M341.03 473.77C391.05 480.01 399.76 480.43 411.88 474.68C429.04 466.55 435.18 454.55 436.44 451.98C437.16 450.52 441.4 441.52 441.79 430.37C442.64 405.82 422.47 387.67 416.92 383.05C416.84 382.98 416.38 382.6 415.94 382.24C396.63 366.8 343.14 353.76 308.42 385.18C281.13 409.88 282.49 446.62 282.79 452.29" stroke="#180027" stroke-width="10" stroke-linecap="round" stroke-linejoin="round"/>
    <path d="M432.79 457.94C432.94 453.81 432.64 445.38 427.59 436.85C417.82 420.34 398.83 418 396.42 417.74" stroke="#180027" stroke-width="9.44" stroke-miterlimit="10" stroke-linecap="round"/>
    <path d="M441.59 433.36C442.44 428.11 441.91 423.89 441.06 420.74C436.87 405.11 419.11 393.71 396.42 390.75" stroke="#180027" stroke-width="9.44" stroke-miterlimit="10" stroke-linecap="round"/>
    <path d="M526.4 58.29C526.4 84.67 507.24 106.58 482.07 110.84L414.19 125.75L419.81 58.29C419.81 28.86 443.67 5 473.11 5C502.55 5 526.4 28.86 526.4 58.29Z" fill="white" stroke="#180027" stroke-width="10" stroke-miterlimit="10"/>
    <path d="M250.37 288.83C249.25 287.77 248.06 287.36 247.02 287C245.45 286.46 243.08 285.64 240.5 286.67C240.5 286.67 237.39 287.91 235.98 291.5C235.66 292.31 235.48 293.19 235.48 293.19C235.43 293.45 235.39 293.67 235.38 293.77C235.21 295.03 235.69 296.37 235.79 296.64C236.43 298.37 237.65 299.45 238.21 299.89C238.54 300.1 239.02 300.4 239.61 300.75C240.3 301.15 240.82 301.43 240.85 301.45C242.28 302.2 251.28 301.68 252.62 295.88C253.21 293.34 252.15 290.51 250.37 288.82V288.83Z" fill="#7C1703"/>
    <path d="M250.9 289.25C250.63 289.03 250.39 288.89 250.28 288.83C251.1 289.93 252.5 292.2 252.02 294.71C251.13 299.43 244.13 302.39 239.53 300.43C237.8 299.69 236.72 298.38 236.12 297.49C236.37 297.94 236.61 298.39 236.87 298.83C237.22 299.29 237.75 299.9 238.51 300.49C239.08 300.94 240.43 301.97 242.34 302.25C243.15 302.36 243.94 302.24 245.53 301.98C247.99 301.58 249.22 301.38 250 300.61C250.33 300.28 250.94 299.54 251.69 298.63C251.92 298.35 252.1 298.12 252.22 297.97C252.2 297.99 252.25 297.92 252.34 297.8C252.46 297.53 252.63 297.1 252.77 296.55C253.38 294.12 252.93 290.86 250.92 289.25H250.9Z" fill="#551201"/>
    <path d="M242.14 287.6C250.15 286.44 249.74 298.14 242.14 296.88C237.12 296.05 236.17 288.46 242.14 287.6Z" fill="#C94E28"/>
    <path d="M281.7 302.69C280.58 301.63 279.39 301.22 278.35 300.86C276.78 300.32 274.41 299.5 271.83 300.53C271.83 300.53 268.72 301.77 267.31 305.36C266.99 306.17 266.81 307.05 266.81 307.05C266.76 307.31 266.72 307.53 266.71 307.63C266.54 308.89 267.02 310.23 267.12 310.5C267.76 312.23 268.98 313.31 269.54 313.75C269.87 313.96 270.35 314.26 270.94 314.61C271.63 315.01 272.15 315.29 272.18 315.31C273.61 316.06 282.61 315.54 283.95 309.74C284.54 307.2 283.48 304.37 281.7 302.68V302.69Z" fill="#7C1703"/>
    <path d="M282.23 303.11C281.96 302.89 281.72 302.75 281.61 302.69C282.43 303.79 283.83 306.06 283.35 308.57C282.46 313.29 275.46 316.25 270.86 314.29C269.13 313.55 268.05 312.24 267.45 311.35C267.7 311.8 267.94 312.25 268.2 312.69C268.55 313.15 269.08 313.76 269.84 314.35C270.41 314.8 271.76 315.83 273.67 316.11C274.48 316.22 275.27 316.1 276.86 315.84C279.32 315.44 280.55 315.24 281.33 314.47C281.66 314.14 282.27 313.4 283.02 312.49C283.25 312.21 283.43 311.98 283.55 311.83C283.53 311.85 283.58 311.78 283.67 311.66C283.79 311.39 283.96 310.96 284.1 310.41C284.71 307.98 284.26 304.72 282.25 303.11H282.23Z" fill="#551201"/>
    <path d="M273.46 301.46C281.47 300.3 281.06 312 273.46 310.74C268.44 309.91 267.49 302.32 273.46 301.46Z" fill="#C94E28"/>
    <path d="M491.36 344.74C490.07 343.68 488.69 343.27 487.47 342.91C485.65 342.37 482.89 341.55 479.91 342.58C479.91 342.58 476.3 343.82 474.66 347.41C474.29 348.22 474.09 349.1 474.09 349.1C474.03 349.36 473.99 349.58 473.98 349.68C473.79 350.94 474.34 352.28 474.45 352.55C475.19 354.28 476.61 355.36 477.25 355.8C477.63 356.01 478.19 356.31 478.87 356.66C479.67 357.06 480.27 357.34 480.31 357.36C481.96 358.11 492.41 357.59 493.96 351.79C494.64 349.25 493.41 346.42 491.35 344.73L491.36 344.74Z" fill="#7C1703"/>
    <path d="M491.97 345.16C491.66 344.94 491.38 344.8 491.25 344.74C492.2 345.84 493.82 348.11 493.27 350.62C492.23 355.34 484.11 358.3 478.77 356.34C476.76 355.6 475.5 354.29 474.81 353.4C475.1 353.85 475.38 354.3 475.68 354.74C476.08 355.2 476.7 355.81 477.58 356.4C478.25 356.85 479.81 357.88 482.03 358.16C482.96 358.27 483.89 358.15 485.73 357.89C488.58 357.49 490.01 357.29 490.92 356.52C491.31 356.19 492.01 355.45 492.88 354.54C493.14 354.26 493.36 354.03 493.5 353.88C493.47 353.9 493.54 353.83 493.64 353.71C493.78 353.44 493.98 353.01 494.13 352.46C494.84 350.03 494.32 346.77 491.98 345.16H491.97Z" fill="#551201"/>
    <path d="M481.8 343.51C491.09 342.35 490.61 354.05 481.8 352.79C475.97 351.96 474.87 344.37 481.8 343.51Z" fill="#C94E28"/>
    <path d="M491.79 387.58C490.5 386.52 489.12 386.11 487.9 385.75C486.08 385.21 483.32 384.39 480.34 385.42C480.34 385.42 476.73 386.66 475.09 390.25C474.72 391.06 474.52 391.94 474.52 391.94C474.46 392.2 474.42 392.42 474.41 392.52C474.22 393.78 474.77 395.12 474.88 395.39C475.62 397.12 477.04 398.2 477.68 398.64C478.06 398.85 478.62 399.15 479.3 399.5C480.1 399.9 480.7 400.18 480.74 400.2C482.39 400.95 492.84 400.43 494.39 394.63C495.07 392.09 493.84 389.26 491.78 387.57L491.79 387.58Z" fill="#7C1703"/>
    <path d="M492.41 388C492.1 387.78 491.82 387.64 491.69 387.58C492.64 388.68 494.26 390.95 493.71 393.46C492.67 398.18 484.55 401.14 479.21 399.18C477.2 398.44 475.94 397.13 475.25 396.24C475.54 396.69 475.82 397.14 476.12 397.58C476.52 398.04 477.14 398.65 478.02 399.24C478.69 399.69 480.25 400.72 482.47 401C483.4 401.11 484.33 400.99 486.17 400.73C489.02 400.33 490.45 400.13 491.36 399.36C491.75 399.03 492.45 398.29 493.32 397.38C493.58 397.1 493.8 396.87 493.94 396.72C493.91 396.74 493.98 396.67 494.08 396.55C494.22 396.28 494.42 395.85 494.57 395.3C495.28 392.87 494.76 389.61 492.42 388H492.41Z" fill="#551201"/>
    <path d="M482.23 386.35C491.52 385.19 491.04 396.89 482.23 395.63C476.4 394.8 475.3 387.21 482.23 386.35Z" fill="#C94E28"/>
    <path d="M522.28 371.47C521.16 370.41 519.97 370 518.93 369.64C517.36 369.1 514.99 368.28 512.41 369.31C512.41 369.31 509.3 370.55 507.89 374.14C507.57 374.95 507.39 375.83 507.39 375.83C507.34 376.09 507.3 376.31 507.29 376.41C507.12 377.67 507.6 379.01 507.7 379.28C508.34 381.01 509.56 382.09 510.12 382.53C510.45 382.74 510.93 383.04 511.52 383.39C512.21 383.79 512.73 384.07 512.76 384.09C514.19 384.84 523.19 384.32 524.53 378.52C525.12 375.98 524.06 373.15 522.28 371.46V371.47Z" fill="#7C1703"/>
    <path d="M522.81 371.89C522.54 371.67 522.3 371.53 522.19 371.47C523.01 372.57 524.41 374.84 523.93 377.35C523.04 382.07 516.04 385.03 511.44 383.07C509.71 382.33 508.63 381.02 508.03 380.13C508.28 380.58 508.52 381.03 508.78 381.47C509.13 381.93 509.66 382.54 510.42 383.13C510.99 383.58 512.34 384.61 514.25 384.89C515.06 385 515.85 384.88 517.44 384.62C519.9 384.22 521.13 384.02 521.91 383.25C522.24 382.92 522.85 382.18 523.6 381.27C523.83 380.99 524.01 380.76 524.13 380.61C524.11 380.63 524.16 380.56 524.25 380.44C524.37 380.17 524.54 379.74 524.68 379.19C525.29 376.76 524.84 373.5 522.83 371.89H522.81Z" fill="#551201"/>
    <path d="M514.04 370.25C522.05 369.09 521.64 380.79 514.04 379.53C509.02 378.7 508.07 371.11 514.04 370.25Z" fill="#C94E28"/>
    <path d="M448.21 370.48C447.09 369.42 445.9 369.01 444.86 368.65C443.29 368.11 440.92 367.29 438.34 368.32C438.34 368.32 435.23 369.56 433.82 373.15C433.5 373.96 433.32 374.84 433.32 374.84C433.27 375.1 433.23 375.32 433.22 375.42C433.05 376.68 433.53 378.02 433.63 378.29C434.27 380.02 435.49 381.1 436.05 381.54C436.38 381.75 436.86 382.05 437.45 382.4C438.14 382.8 438.66 383.08 438.69 383.1C440.12 383.85 449.12 383.33 450.46 377.53C451.05 374.99 449.99 372.16 448.21 370.47V370.48Z" fill="#7C1703"/>
    <path d="M448.74 370.9C448.47 370.68 448.23 370.54 448.12 370.48C448.94 371.58 450.34 373.85 449.86 376.36C448.97 381.08 441.97 384.04 437.37 382.08C435.64 381.34 434.56 380.03 433.96 379.14C434.21 379.59 434.45 380.04 434.71 380.48C435.06 380.94 435.59 381.55 436.35 382.14C436.92 382.59 438.27 383.62 440.18 383.9C440.99 384.01 441.78 383.89 443.37 383.63C445.83 383.23 447.06 383.03 447.84 382.26C448.17 381.93 448.78 381.19 449.53 380.28C449.76 380 449.94 379.77 450.06 379.62C450.04 379.64 450.09 379.57 450.18 379.45C450.3 379.18 450.47 378.75 450.61 378.2C451.22 375.77 450.77 372.51 448.76 370.9H448.74Z" fill="#551201"/>
    <path d="M439.97 369.25C447.98 368.09 447.57 379.79 439.97 378.53C434.95 377.7 434 370.11 439.97 369.25Z" fill="#C94E28"/>
    <path d="M272.52 286.85C271.05 285.79 269.48 285.38 268.1 285.02C266.03 284.48 262.89 283.66 259.5 284.69C259.5 284.69 255.4 285.93 253.53 289.52C253.11 290.33 252.88 291.21 252.88 291.21C252.81 291.47 252.77 291.69 252.75 291.79C252.53 293.05 253.15 294.39 253.29 294.66C254.13 296.39 255.75 297.47 256.48 297.91C256.91 298.12 257.54 298.42 258.32 298.77C259.23 299.17 259.92 299.45 259.96 299.47C261.84 300.22 273.72 299.7 275.49 293.9C276.26 291.36 274.87 288.53 272.53 286.84L272.52 286.85Z" fill="#7C1703"/>
    <path d="M273.22 287.27C272.86 287.05 272.55 286.91 272.4 286.85C273.48 287.95 275.32 290.22 274.7 292.73C273.52 297.45 264.28 300.41 258.21 298.45C255.92 297.71 254.5 296.4 253.7 295.51C254.03 295.96 254.35 296.41 254.69 296.85C255.15 297.31 255.85 297.92 256.85 298.51C257.61 298.96 259.38 299.99 261.91 300.27C262.97 300.38 264.02 300.26 266.12 300C269.37 299.6 270.99 299.4 272.02 298.63C272.46 298.3 273.26 297.56 274.24 296.65C274.54 296.37 274.79 296.14 274.95 295.99C274.92 296.01 274.99 295.94 275.11 295.82C275.27 295.55 275.49 295.12 275.67 294.57C276.47 292.14 275.88 288.88 273.22 287.27Z" fill="#551201"/>
    <path d="M261.65 285.62C272.22 284.46 271.68 296.16 261.65 294.9C255.02 294.07 253.77 286.48 261.65 285.62Z" fill="#C94E28"/>
    <path d="M183.91 203.93C184.21 201.8 186.5 187.29 200.11 178.56C214.59 169.27 229.77 174.33 231.59 174.97" stroke="#180027" stroke-width="10" stroke-miterlimit="10" stroke-linecap="round"/>
    <path d="M318.65 147.16C317.74 136.94 324.15 127.67 333.35 125.17C341.21 123.03 349.9 126.16 355.04 133.08" stroke="#180027" stroke-width="10" stroke-miterlimit="10" stroke-linecap="round"/>
    <path d="M597.555 809.075C629.396 772.87 619.46 712.081 575.363 673.3C531.265 634.519 469.706 632.43 437.865 668.635C406.024 704.84 415.96 765.629 460.058 804.41C504.155 843.192 565.715 845.28 597.555 809.075Z" fill="#FFFEFB" stroke="#180027" stroke-width="10" stroke-linecap="round" stroke-linejoin="round"/>
    <path d="M625.01 786.52C650.89 768.2 646.81 728.64 646.4 725.14C644.11 704.94 617.88 667.63 593.04 619.19C579.49 592.77 546.86 582.19 520.82 595.26C497.62 606.91 491.99 643.26 496.94 667.58C498.19 673.72 499.61 676.61 511.87 699.77C544.39 761.18 550.62 771.42 564.68 781.52C584.57 795.81 599.43 794.92 602.57 794.66C604.36 794.51 615.22 793.44 625 786.52H625.01Z" fill="#FFFEFB" stroke="#180027" stroke-width="10" stroke-linecap="round" stroke-linejoin="round"/>
    <path d="M614.52 756.51C629.15 746.16 626.84 723.8 626.61 721.82C625.32 710.4 610.49 689.32 596.45 661.94C588.79 647.01 570.35 641.03 555.63 648.42C542.52 655 539.33 675.55 542.14 689.29C542.85 692.76 543.65 694.4 550.58 707.48C568.96 742.19 572.48 747.98 580.43 753.68C591.67 761.75 600.07 761.25 601.84 761.11C602.85 761.03 608.99 760.42 614.52 756.51Z" fill="#180027"/>
    <path d="M532.91 661.59C538.83 657.87 539.3 651.8 539.33 651.26C539.53 648.17 535.36 643.18 531.85 636.41C529.93 632.71 523.57 632.13 517.79 635.04C512.64 637.63 510.28 643.51 510.5 647.16C510.55 648.08 510.75 648.49 512.51 651.71C517.17 660.26 518.12 661.67 520.67 662.78C524.29 664.36 527.37 663.74 528.03 663.59C528.4 663.51 530.67 662.98 532.91 661.57V661.59Z" fill="#180027"/>
    <path d="M554.18 630.94C560.1 627.22 560.57 621.15 560.6 620.61C560.8 617.52 556.63 612.53 553.12 605.76C551.2 602.06 544.84 601.48 539.06 604.39C533.91 606.98 531.55 612.86 531.77 616.51C531.82 617.43 532.02 617.84 533.78 621.06C538.44 629.61 539.39 631.02 541.94 632.13C545.56 633.71 548.64 633.09 549.3 632.94C549.67 632.86 551.94 632.33 554.18 630.92V630.94Z" fill="#180027"/>
    <path d="M586.79 638.51C592.71 634.79 593.18 628.72 593.21 628.18C593.41 625.09 589.24 620.1 585.73 613.33C583.81 609.63 577.45 609.05 571.67 611.96C566.52 614.55 564.16 620.43 564.38 624.08C564.43 625 564.63 625.41 566.39 628.63C571.05 637.18 572 638.59 574.55 639.7C578.17 641.28 581.25 640.66 581.91 640.51C582.28 640.43 584.55 639.9 586.79 638.49V638.51Z" fill="#180027"/>
    <path d="M410.87 219.31C410.87 219.31 409.13 237.31 376.23 243.13C343.33 248.95 376.74 214.15 376.74 214.15C376.74 214.15 401.77 201.52 410.87 219.31Z" fill="#CBC5F2" stroke="#180027" stroke-width="9.52" stroke-miterlimit="10"/>
    <path d="M325.41 177.75C322.68 180.94 314.36 191.06 303.89 216.08C295.41 236.32 291.18 246.45 293.93 252.96C299.51 266.15 320.26 270.53 334.51 268.94C354.41 266.72 366.85 252.27 374.54 243.41C384.68 231.73 390.11 219.32 393.08 209.46C394.72 210.78 400.08 214.72 406.89 213.9C417.43 212.62 422.02 201.06 422.77 199.17C422.77 199.17 425.47 192.2 424.18 184.29C422.75 175.57 405.67 166.43 389.83 161.9C377.46 158.36 359.12 153.13 342.11 162.36C335.47 165.96 331.79 170.27 325.4 177.76L325.41 177.75Z" fill="#CBC5F2" stroke="#180027" stroke-width="9.52" stroke-linejoin="round"/>
    <path d="M388.12 186.52C399.45 174.78 403.11 160.69 397.86 151.93C395.03 147.21 387.77 140.96 381.21 143.55C376.45 145.43 373.32 151.44 373.78 158.39C362.43 153.58 351.78 156.29 348.74 162.11C345.48 168.35 351.4 177.08 355.61 181.13C367.45 192.54 386.53 187 388.12 186.52Z" fill="#180027"/>
    <path d="M18.4599 373.81C13.2499 359.31 23.4899 339.35 43.2199 335.47C38.8199 330.57 32.6399 322.95 26.8599 312.68C22.1199 304.26 -11.6301 244.29 19.3899 202.74C38.8899 176.61 77.0899 167.03 106.86 175.74C158.84 190.95 170.39 257.62 172.87 271.96C176.71 294.1 174.61 312.96 172.25 325.31C187.73 326.69 198.61 338.52 198.62 349.51C198.63 362.53 183.38 376.45 164.41 373.02C174.35 388.19 172.73 407.13 162.5 417.45C149.52 430.54 122.9 429.52 108.33 410.11C102.59 424 86.8899 430.42 74.2599 425.39C60.5899 419.94 53.7899 402.36 61.4399 387.91C43.7999 397.02 23.5999 388.15 18.4499 373.82L18.4599 373.81Z" fill="#CBC5F2" stroke="#180027" stroke-width="12.85" stroke-linejoin="round"/>
    <path d="M253.19 609.77C247.08 601.84 250.48 583 267.67 572.93C263.58 571.53 255.3 567.95 251.98 560.1C246.35 546.75 258.4 528.88 272.86 522.55C284.32 517.54 295.41 520.6 299.22 521.84C304.78 497.16 327.7 486.2 341.03 491.69C352.05 496.23 359.68 513.32 355.04 531.76C367 528.59 378.34 534.49 381.33 542.7C384.87 552.44 377.24 566.98 362.12 569.57C373.67 578.22 377.6 592.82 372.75 603.32C366.59 616.64 346.41 623.09 330.24 612.53C329.71 624.48 319.72 633.54 308.91 633.2C297.2 632.83 287.35 621.53 289.15 608.65C275.17 618.81 258.77 617.04 253.17 609.78L253.19 609.77Z" fill="#CBC5F2" stroke="#180027" stroke-width="10.22" stroke-linejoin="round"/>
    </g>
    <defs>
    <clipPath id="clip0_308_129">
    <rect width="893.1" height="913.21" fill="white"/>
    </clipPath>
    </defs>
</svg>
